<?xml version="1.0" encoding="utf-8"?>
<!-- Generator: Adobe Illustrator 24.1.3, SVG Export Plug-In . SVG Version: 6.00 Build 0)  -->
<svg version="1.1" id="Layer_1" xmlns="http://www.w3.org/2000/svg" xmlns:xlink="http://www.w3.org/1999/xlink" x="0px" y="0px"
	 viewBox="0 0 148.2 127.9" style="enable-background:new 0 0 148.2 127.9;" xml:space="preserve">
<style type="text/css">
	.st0{fill:#FFFFFF;}
</style>
<path d="M69,100.8c0-1.6,0-3.2-0.1-4.8c2.6,10.6,2.8,18.3,1.5,25.3c9.8-5.1,15.2-14.1,17.8-28.5c0.1,2.5,0,5-0.3,7.3
	c32.3-4.3,56.8-24.4,56.8-48.6c0-27.3-31.3-49.5-69.8-49.5C36.2,2.1,4.9,24.3,4.9,51.6C4.9,77.5,33.1,98.8,69,100.8 M0,52.5
	C0,23.5,33.2,0,74.1,0s74.1,23.5,74.1,52.5c0,25.8-26.4,47.3-61.1,51.7c-2.3,10.2-8.8,18.6-21.7,23.8c2.4-7.7,3.4-15.1,3.6-23.1
	C30.4,102.9,0,80.2,0,52.5"/>
<path class="st0" d="M4.9,51.6c0,25.9,28.2,47.2,64,49.3c0-1.6,0-3.2-0.1-4.8c2.6,10.6,2.8,18.3,1.5,25.3
	c9.8-5.1,15.2-14.1,17.8-28.5c0.1,2.5,0,5-0.3,7.3c32.3-4.3,56.8-24.4,56.8-48.6c0-27.3-31.3-49.5-69.8-49.5
	C36.2,2.1,4.9,24.3,4.9,51.6"/>
</svg>
