<?xml version="1.0" encoding="utf-8"?>
<!-- Generator: Adobe Illustrator 24.1.3, SVG Export Plug-In . SVG Version: 6.00 Build 0)  -->
<svg version="1.1" id="Layer_1" xmlns="http://www.w3.org/2000/svg" xmlns:xlink="http://www.w3.org/1999/xlink" x="0px" y="0px"
	 viewBox="0 0 160 600" style="enable-background:new 0 0 160 600;" xml:space="preserve">
<style type="text/css">
	.st0{fill:#FFFFFF;}
</style>
<g>
	<path class="st0" d="M30.6,265.6c-1.8,1.8-4.1,1.8-6.7,1.8h-5.3v-18.7h6.1c2.2,0,4,0.1,5.4,1.5c1.1,1.1,1.4,2.3,1.4,3.6
		c0,3.2-2.2,3.9-2.6,4c0.5,0.1,3.2,0.7,3.2,3.9C32,263.5,31.4,264.8,30.6,265.6z M24.4,251.8h-2.1v4.7h0.5c2.1,0,4.6,0.3,4.6-2.4
		C27.5,251.8,25.6,251.8,24.4,251.8z M27.4,260.2c-0.7-0.7-1.5-0.8-3.2-0.8h-1.8v4.8h2.1c1.9,0,2.4-0.3,2.9-0.8
		c0.4-0.4,0.6-1,0.6-1.6C28,261.2,27.8,260.6,27.4,260.2z"/>
	<path class="st0" d="M43.6,267.4v-1c-0.2,0.2-1.9,1.4-3.9,1.4c-1.5,0-2.7-0.4-3.6-1.3c-1.5-1.5-1.5-3.6-1.5-5.4v-7.4h3.8v7.3
		c0,1.8,0.1,2.7,0.6,3.2c0.2,0.2,0.6,0.5,1.5,0.5c1.2,0,2.3-0.7,2.5-0.9v-10.1h3.8v13.8H43.6z"/>
	<path class="st0" d="M56,267.8c-1.2,0-2.6-0.3-3.6-1.2c-1.2-1.2-1.2-2.5-1.2-4.4v-5.4h-2.4v-3.1h2.4v-3.8H55v3.8h3.9v3.1H55v5.5
		c0,1.1,0.1,2.4,1.7,2.4c0.9,0,1.5-0.3,1.7-0.3l1,2.6C59.3,267,58,267.8,56,267.8z"/>
</g>
<g>
	<path class="st0" d="M26.6,296.5c-1.1,2.7-1.7,4-2.7,5c-0.6,0.6-1.8,1.4-4,1.4c-2,0-3.3-0.8-3.4-0.9l1.1-2.7c0.2,0.1,1,0.5,2.1,0.5
		c0.8,0,1.4-0.3,1.9-0.7c0.7-0.7,1.1-2.1,1.4-2.7l-5.8-13.8h4l3.7,9.7l3.4-9.7H32L26.6,296.5z"/>
	<path class="st0" d="M39.6,296.8c-4.1,0-6.9-3-6.9-7.2c0-4.3,2.9-7.4,7.1-7.4c4.1,0,6.9,3,6.9,7.1
		C46.7,293.8,43.8,296.8,39.6,296.8z M39.7,285.3c-1.9,0-3.2,1.7-3.2,4.1c0,2.5,1.4,4.2,3.3,4.2s3.1-1.6,3.1-4.1
		C43,287,41.6,285.3,39.7,285.3z"/>
	<path class="st0" d="M58,296.4v-1c-0.2,0.2-1.9,1.4-3.9,1.4c-1.5,0-2.7-0.4-3.6-1.3c-1.5-1.5-1.5-3.6-1.5-5.4v-7.4h3.8v7.3
		c0,1.8,0.1,2.7,0.6,3.2c0.2,0.2,0.6,0.5,1.5,0.5c1.2,0,2.3-0.7,2.5-0.9v-10.1h3.8v13.8H58z"/>
	<path class="st0" d="M79.2,296.4v-7.3c0-1.8-0.1-2.7-0.6-3.2c-0.2-0.2-0.6-0.5-1.5-0.5c-1.2,0-2.3,0.7-2.5,0.9v10.1h-3.8v-13.8H74
		v1c0.2-0.2,1.9-1.4,3.9-1.4c1.5,0,2.7,0.4,3.6,1.3c1.6,1.6,1.5,3.6,1.5,5.4v7.4H79.2z"/>
	<path class="st0" d="M98,290.8h-9.1c-0.1,1,0.8,3.1,3.5,3.1c1.7,0,3.1-0.7,3.7-1l1.2,2.4c-0.1,0.1-2.2,1.5-5.2,1.5
		c-4.5,0-6.9-3.2-6.9-7.2c0-4.2,2.7-7.4,6.6-7.4c4,0,6.2,2.9,6.2,7.3C98.1,290.2,98,290.6,98,290.8z M92,285c-1.7,0-2.8,1.3-3.1,3
		h5.7C94.6,287.3,94.3,285,92,285z"/>
	<path class="st0" d="M112.7,290.8h-9.1c-0.1,1,0.8,3.1,3.5,3.1c1.7,0,3.1-0.7,3.7-1l1.2,2.4c-0.1,0.1-2.2,1.5-5.2,1.5
		c-4.5,0-6.9-3.2-6.9-7.2c0-4.2,2.7-7.4,6.6-7.4c4,0,6.2,2.9,6.2,7.3C112.8,290.2,112.7,290.6,112.7,290.8z M106.7,285
		c-1.7,0-2.8,1.3-3.1,3h5.7C109.3,287.3,109,285,106.7,285z"/>
	<path class="st0" d="M124.6,296.4v-0.8c-0.1,0.1-1.4,1.2-3.7,1.2c-3.8,0-6.2-2.9-6.2-7.1c0-4.5,3.1-7.5,6.6-7.5
		c1.5,0,2.6,0.5,2.8,0.5v-6.6h3.8v20.3H124.6z M124.1,285.9c-0.1-0.1-1-0.6-2.1-0.6c-2,0-3.5,1.4-3.5,4.3c0,2.7,1.5,4.1,3.3,4.1
		c1.2,0,2.2-0.6,2.3-0.7V285.9z"/>
</g>
<g>
	<path class="st0" d="M24.3,325.8c-1.2,0-2.6-0.3-3.6-1.2c-1.2-1.2-1.2-2.5-1.2-4.4v-5.4h-2.4v-3.1h2.4v-3.8h3.8v3.8h3.9v3.1h-3.9
		v5.5c0,1.1,0.1,2.4,1.7,2.4c0.9,0,1.5-0.3,1.7-0.3l1,2.6C27.6,325,26.3,325.8,24.3,325.8z"/>
	<path class="st0" d="M35.9,325.8c-4.1,0-6.9-3-6.9-7.2c0-4.3,2.9-7.4,7.1-7.4c4.1,0,6.9,3,6.9,7.1C43,322.8,40.1,325.8,35.9,325.8z
		 M36,314.4c-1.9,0-3.2,1.7-3.2,4.1c0,2.5,1.4,4.2,3.3,4.2s3.1-1.6,3.1-4.1C39.3,316,37.9,314.4,36,314.4z"/>
	<path class="st0" d="M57.9,325.8c-1.2,0-2.6-0.3-3.6-1.2c-1.2-1.2-1.2-2.5-1.2-4.4v-5.4h-2.4v-3.1h2.4v-3.8H57v3.8h3.9v3.1H57v5.5
		c0,1.1,0.1,2.4,1.7,2.4c0.9,0,1.5-0.3,1.7-0.3l1,2.6C61.3,325,60,325.8,57.9,325.8z"/>
	<path class="st0" d="M71.2,325.4v-1c-0.3,0.2-1.7,1.3-3.9,1.3c-2.7,0-4.5-1.8-4.5-4.4c0-4.9,6-5,7.7-5h0.4c0-0.8,0-1.2-0.4-1.6
		c-0.3-0.3-0.9-0.6-2-0.6c-1.8,0-3.5,0.9-3.7,1l-1.3-2.4c0.2-0.2,2.1-1.5,5.2-1.5c1.2,0,3.2,0.2,4.5,1.5c1.1,1.1,1.1,2.6,1.1,4.4
		v8.3H71.2z M70.9,318.9c-0.3,0-0.6,0-0.6,0c-2.4,0-4.2,0.4-4.2,2.2c0,1.4,1.2,1.8,2.1,1.8c1.5,0,2.5-0.8,2.6-0.8V318.9z"/>
	<path class="st0" d="M86.3,325.4l-5-6.5v6.5h-3.8v-20.3h3.8v11.5l5-5h4.4l-6.1,6l6.2,7.7H86.3z"/>
	<path class="st0" d="M103.7,319.8h-9.1c-0.1,1,0.8,3.1,3.5,3.1c1.7,0,3.1-0.7,3.7-1l1.2,2.4c-0.1,0.1-2.2,1.5-5.2,1.5
		c-4.5,0-6.9-3.2-6.9-7.2c0-4.2,2.7-7.4,6.6-7.4c4,0,6.2,2.9,6.2,7.3C103.8,319.2,103.7,319.6,103.7,319.8z M97.7,314
		c-1.7,0-2.8,1.3-3.1,3h5.7C100.3,316.3,100,314,97.7,314z"/>
</g>
<g>
	<path class="st0" d="M24.6,354.8c-4.1,0-6.9-3-6.9-7.2c0-4.3,2.9-7.4,7.1-7.4c4.1,0,6.9,3,6.9,7.1
		C31.7,351.8,28.8,354.8,24.6,354.8z M24.7,343.4c-1.9,0-3.2,1.7-3.2,4.1c0,2.5,1.4,4.2,3.3,4.2s3.1-1.6,3.1-4.1
		C28,345,26.6,343.4,24.7,343.4z"/>
	<path class="st0" d="M42.6,354.4v-7.3c0-1.8-0.1-2.7-0.6-3.2c-0.2-0.2-0.6-0.5-1.5-0.5c-1.2,0-2.3,0.7-2.5,0.9v10.1h-3.8v-13.8h3.2
		v1c0.2-0.2,1.9-1.4,3.9-1.4c1.5,0,2.7,0.4,3.6,1.3c1.6,1.6,1.5,3.6,1.5,5.4v7.4H42.6z"/>
	<path class="st0" d="M61.5,348.8h-9.1c-0.1,1,0.8,3.1,3.5,3.1c1.7,0,3.1-0.7,3.7-1l1.2,2.4c-0.1,0.1-2.2,1.5-5.2,1.5
		c-4.5,0-6.9-3.2-6.9-7.2c0-4.2,2.7-7.4,6.6-7.4c4,0,6.2,2.9,6.2,7.3C61.5,348.2,61.5,348.6,61.5,348.8z M55.4,343.1
		c-1.7,0-2.8,1.3-3.1,3H58C58,345.3,57.7,343.1,55.4,343.1z"/>
	<path class="st0" d="M86.6,354.4v-7.5c0-1.7,0.1-3.4-1.9-3.4c-1.2,0-2.3,0.8-2.5,1c0.1,0.6,0.2,0.7,0.2,3.1v6.9h-3.8v-7.5
		c0-1.7,0.1-3.4-1.9-3.4c-1.1,0-2.2,0.6-2.4,0.8v10.2h-3.8v-13.8h3.2v1c0.3-0.2,1.8-1.4,3.9-1.4c2.2,0,3.1,1.2,3.4,1.5
		c0.3-0.2,2-1.5,4.4-1.5c1.2,0,2.6,0.3,3.5,1.3c1.7,1.7,1.6,3.9,1.6,7.1v5.8H86.6z"/>
	<path class="st0" d="M99.6,354.8c-4.1,0-6.9-3-6.9-7.2c0-4.3,2.9-7.4,7.1-7.4c4.1,0,6.9,3,6.9,7.1
		C106.8,351.8,103.9,354.8,99.6,354.8z M99.7,343.4c-1.9,0-3.2,1.7-3.2,4.1c0,2.5,1.4,4.2,3.3,4.2c2,0,3.1-1.6,3.1-4.1
		C103,345,101.7,343.4,99.7,343.4z"/>
	<path class="st0" d="M117.8,343.5c-0.1,0-0.6-0.1-0.8-0.1c-2.3,0-3.4,1.4-3.9,2v9h-3.8v-13.8h3.2v1.7c0.1-0.2,1.8-2.1,4.6-2.1
		c1,0,1.5,0.3,1.6,0.4L117.8,343.5z"/>
	<path class="st0" d="M132,348.8H123c-0.1,1,0.8,3.1,3.5,3.1c1.7,0,3.1-0.7,3.7-1l1.2,2.4c-0.1,0.1-2.2,1.5-5.2,1.5
		c-4.5,0-6.9-3.2-6.9-7.2c0-4.2,2.7-7.4,6.6-7.4c4,0,6.2,2.9,6.2,7.3C132.1,348.2,132,348.6,132,348.8z M126,343.1
		c-1.7,0-2.8,1.3-3.1,3h5.7C128.6,345.3,128.3,343.1,126,343.1z"/>
</g>
<g>
	<path class="st0" d="M30.4,377.8h-9.1c-0.1,1,0.8,3.1,3.5,3.1c1.7,0,3.1-0.7,3.7-1l1.2,2.4c-0.1,0.1-2.2,1.5-5.2,1.5
		c-4.5,0-6.9-3.2-6.9-7.2c0-4.2,2.7-7.4,6.6-7.4c4,0,6.2,2.9,6.2,7.3C30.5,377.2,30.4,377.6,30.4,377.8z M24.4,372.1
		c-1.7,0-2.8,1.3-3.1,3H27C27,374.3,26.7,372.1,24.4,372.1z"/>
	<path class="st0" d="M40.6,383.4v-1c-0.3,0.2-1.7,1.3-3.9,1.3c-2.7,0-4.5-1.8-4.5-4.4c0-4.9,6-5,7.7-5h0.4c0-0.8,0-1.2-0.4-1.6
		c-0.3-0.3-0.9-0.6-2-0.6c-1.8,0-3.5,0.9-3.7,1l-1.3-2.4c0.2-0.2,2.1-1.5,5.2-1.5c1.2,0,3.2,0.2,4.5,1.5c1.1,1.1,1.1,2.6,1.1,4.4
		v8.3H40.6z M40.3,376.9c-0.3,0-0.6,0-0.6,0c-2.4,0-4.2,0.4-4.2,2.2c0,1.4,1.2,1.8,2.1,1.8c1.5,0,2.5-0.8,2.6-0.8V376.9z"/>
	<path class="st0" d="M51.3,383.8c-3.1,0-5.2-1.4-5.3-1.6l1.3-2.4c0.3,0.1,1.8,1.1,3.6,1.1c1.7,0,2.1-0.7,2.1-1.3c0-0.9-0.8-1.1-3-2
		c-1.2-0.5-3.4-1.4-3.4-4s2.2-4.3,5.4-4.3c3,0,4.6,1.2,4.6,1.2l-1.2,2.3c-0.1-0.1-1.7-0.9-3.1-0.9c-1.4,0-1.8,0.7-1.8,1.3
		c0,0.9,1,1.2,2.5,1.8c1.9,0.8,3.9,1.6,3.9,4.4C56.7,382.1,54.6,383.8,51.3,383.8z"/>
	<path class="st0" d="M67.6,383.6c-1.1,2.7-1.7,4-2.7,5c-0.6,0.6-1.8,1.4-4,1.4c-2,0-3.3-0.8-3.4-0.9l1.1-2.7c0.2,0.1,1,0.5,2.1,0.5
		c0.8,0,1.4-0.3,1.9-0.7c0.7-0.7,1.1-2.1,1.4-2.7l-5.8-13.8h4l3.7,9.7l3.4-9.7h3.7L67.6,383.6z"/>
	<path class="st0" d="M86.1,383.8c-3.1,0-5.2-1.4-5.3-1.6l1.3-2.4c0.3,0.1,1.8,1.1,3.6,1.1c1.7,0,2.1-0.7,2.1-1.3c0-0.9-0.8-1.1-3-2
		c-1.2-0.5-3.4-1.4-3.4-4s2.2-4.3,5.4-4.3c3,0,4.6,1.2,4.6,1.2l-1.2,2.3c-0.1-0.1-1.7-0.9-3.1-0.9c-1.4,0-1.8,0.7-1.8,1.3
		c0,0.9,1,1.2,2.5,1.8c1.9,0.8,3.9,1.6,3.9,4.4C91.5,382.1,89.4,383.8,86.1,383.8z"/>
	<path class="st0" d="M100.2,383.8c-1.2,0-2.6-0.3-3.6-1.2c-1.2-1.2-1.2-2.5-1.2-4.4v-5.4h-2.4v-3.1h2.4v-3.8h3.8v3.8h3.9v3.1h-3.9
		v5.5c0,1.1,0.1,2.4,1.7,2.4c0.9,0,1.5-0.3,1.7-0.3l1,2.6C103.6,383,102.2,383.8,100.2,383.8z"/>
	<path class="st0" d="M117.8,377.8h-9.1c-0.1,1,0.8,3.1,3.5,3.1c1.7,0,3.1-0.7,3.7-1l1.2,2.4c-0.1,0.1-2.2,1.5-5.2,1.5
		c-4.5,0-6.9-3.2-6.9-7.2c0-4.2,2.7-7.4,6.6-7.4c4,0,6.2,2.9,6.2,7.3C117.8,377.2,117.8,377.6,117.8,377.8z M111.7,372.1
		c-1.7,0-2.8,1.3-3.1,3h5.7C114.3,374.3,114.1,372.1,111.7,372.1z"/>
	<path class="st0" d="M127,383.8c-1.5,0-2.6-0.5-2.8-0.5v6.2h-3.8v-19.9h3.3v0.8c0.1-0.1,1.4-1.2,3.7-1.2c3.8,0,6.2,2.9,6.2,7.1
		C133.6,380.8,130.5,383.8,127,383.8z M126.5,372.4c-1.2,0-2.2,0.6-2.3,0.7v7.1c0.1,0.1,1,0.6,2.1,0.6c2,0,3.5-1.4,3.5-4.3
		C129.8,373.8,128.3,372.4,126.5,372.4z"/>
	<path class="st0" d="M137.9,383.6c-1.3,0-2.3-1-2.3-2.3s1-2.3,2.3-2.3s2.3,1,2.3,2.3S139.2,383.6,137.9,383.6z"/>
</g>
</svg>
