<?xml version="1.0" encoding="utf-8"?>
<!-- Generator: Adobe Illustrator 24.1.3, SVG Export Plug-In . SVG Version: 6.00 Build 0)  -->
<svg version="1.1" id="Layer_1" xmlns="http://www.w3.org/2000/svg" xmlns:xlink="http://www.w3.org/1999/xlink" x="0px" y="0px"
	 viewBox="0 0 160 600" style="enable-background:new 0 0 160 600;" xml:space="preserve">
<style type="text/css">
	.st0{fill:#FFFFFF;}
</style>
<g>
	<path class="st0" d="M27.3,260.4v7.4h-3.8v-7.4l-5.9-11.2h4l3.9,8.1l3.9-8.1h3.6L27.3,260.4z"/>
	<path class="st0" d="M39.6,268.3c-4.1,0-6.9-3-6.9-7.2c0-4.3,2.9-7.4,7.1-7.4c4.1,0,6.9,3,6.9,7.1
		C46.8,265.2,43.9,268.3,39.6,268.3z M39.8,256.8c-1.9,0-3.2,1.7-3.2,4.1c0,2.5,1.4,4.2,3.3,4.2s3.1-1.6,3.1-4.1
		C43,258.5,41.7,256.8,39.8,256.8z"/>
	<path class="st0" d="M58.1,267.9v-1c-0.2,0.2-1.9,1.4-3.9,1.4c-1.5,0-2.7-0.4-3.6-1.3c-1.5-1.5-1.5-3.6-1.5-5.4v-7.4h3.8v7.3
		c0,1.8,0.1,2.7,0.6,3.2c0.2,0.2,0.6,0.5,1.5,0.5c1.2,0,2.3-0.7,2.5-0.9v-10.1h3.8v13.8H58.1z"/>
</g>
<g>
	<path class="st0" d="M27.1,285.9c-0.1,0-0.6-0.1-0.8-0.1c-2.3,0-3.4,1.4-3.9,2v9h-3.8v-13.8h3.2v1.7c0.1-0.2,1.8-2.1,4.6-2.1
		c1,0,1.5,0.3,1.6,0.4L27.1,285.9z"/>
	<path class="st0" d="M41.2,291.2h-9.1c-0.1,1,0.8,3.1,3.5,3.1c1.7,0,3.1-0.7,3.7-1l1.2,2.4c-0.1,0.1-2.2,1.5-5.2,1.5
		c-4.5,0-6.9-3.2-6.9-7.2c0-4.2,2.7-7.4,6.6-7.4c4,0,6.2,2.9,6.2,7.3C41.3,290.6,41.2,291,41.2,291.2z M35.2,285.5
		c-1.7,0-2.8,1.3-3.1,3h5.7C37.8,287.7,37.5,285.5,35.2,285.5z"/>
	<path class="st0" d="M54.7,301.6c-0.8,0.8-2.4,1.8-5.1,1.8c-3.9,0-6-1.8-6.2-2l1.5-2.5c0.2,0.1,2,1.4,4.3,1.4
		c3.1,0,3.3-1.9,3.3-3.4V296c-0.2,0.1-1.3,0.8-3.2,0.8c-4.2,0-6.2-3.4-6.2-6.8c0-4.1,2.9-7.4,7.4-7.4c2.9,0,5.3,1.3,5.7,1.5v12.5
		C56.1,298.6,56.1,300.1,54.7,301.6z M52.4,286.1c-0.2-0.1-1.1-0.4-2.1-0.4c-2,0-3.6,1.5-3.6,4.2c0,2.6,1.5,3.9,3.3,3.9
		c1.2,0,2.3-0.6,2.4-0.7V286.1z"/>
	<path class="st0" d="M61.1,281.4c-1.2,0-2.2-1-2.2-2.2c0-1.2,1-2.2,2.2-2.2s2.2,1,2.2,2.2C63.2,280.4,62.3,281.4,61.1,281.4z
		 M59.2,296.9v-13.8H63v13.8H59.2z"/>
	<path class="st0" d="M70.4,297.3c-3.1,0-5.2-1.4-5.3-1.6l1.3-2.4c0.3,0.1,1.8,1.1,3.6,1.1c1.7,0,2.1-0.7,2.1-1.3c0-0.9-0.8-1.1-3-2
		c-1.2-0.5-3.4-1.4-3.4-4c0-2.6,2.2-4.3,5.4-4.3c3,0,4.6,1.2,4.6,1.2l-1.2,2.3c-0.1-0.1-1.7-0.9-3.1-0.9c-1.4,0-1.8,0.7-1.8,1.3
		c0,0.9,1,1.2,2.5,1.8c1.9,0.8,3.9,1.6,3.9,4.4C75.8,295.6,73.7,297.3,70.4,297.3z"/>
	<path class="st0" d="M84.4,297.3c-1.2,0-2.6-0.3-3.6-1.2c-1.2-1.2-1.2-2.5-1.2-4.4v-5.4h-2.4v-3.1h2.4v-3.8h3.8v3.8h3.9v3.1h-3.9
		v5.5c0,1.1,0.1,2.4,1.7,2.4c0.9,0,1.5-0.3,1.7-0.3l1,2.6C87.8,296.4,86.5,297.3,84.4,297.3z"/>
	<path class="st0" d="M101.9,291.2h-9.1c-0.1,1,0.8,3.1,3.5,3.1c1.7,0,3.1-0.7,3.7-1l1.2,2.4c-0.1,0.1-2.2,1.5-5.2,1.5
		c-4.5,0-6.9-3.2-6.9-7.2c0-4.2,2.7-7.4,6.6-7.4c4,0,6.2,2.9,6.2,7.3C101.9,290.6,101.9,291,101.9,291.2z M95.8,285.5
		c-1.7,0-2.8,1.3-3.1,3h5.7C98.4,287.7,98.2,285.5,95.8,285.5z"/>
	<path class="st0" d="M112.9,285.9c-0.1,0-0.6-0.1-0.8-0.1c-2.3,0-3.4,1.4-3.9,2v9h-3.8v-13.8h3.2v1.7c0.1-0.2,1.8-2.1,4.6-2.1
		c1,0,1.5,0.3,1.6,0.4L112.9,285.9z"/>
	<path class="st0" d="M127.1,291.2H118c-0.1,1,0.8,3.1,3.5,3.1c1.7,0,3.1-0.7,3.7-1l1.2,2.4c-0.1,0.1-2.2,1.5-5.2,1.5
		c-4.5,0-6.9-3.2-6.9-7.2c0-4.2,2.7-7.4,6.6-7.4c4,0,6.2,2.9,6.2,7.3C127.1,290.6,127.1,291,127.1,291.2z M121,285.5
		c-1.7,0-2.8,1.3-3.1,3h5.7C123.6,287.7,123.3,285.5,121,285.5z"/>
	<path class="st0" d="M138.8,296.9V296c-0.1,0.1-1.4,1.2-3.7,1.2c-3.8,0-6.2-2.9-6.2-7.1c0-4.5,3.1-7.5,6.6-7.5
		c1.5,0,2.6,0.5,2.8,0.5v-6.6h3.8v20.3H138.8z M138.3,286.4c-0.1-0.1-1-0.6-2.1-0.6c-2,0-3.5,1.4-3.5,4.3c0,2.7,1.5,4.1,3.3,4.1
		c1.2,0,2.2-0.6,2.3-0.7V286.4z"/>
</g>
<g>
	<path class="st0" d="M26.8,326c-1.1,2.7-1.7,4-2.7,5c-0.6,0.6-1.8,1.4-4,1.4c-2,0-3.3-0.8-3.4-0.9l1.1-2.7c0.2,0.1,1,0.5,2.1,0.5
		c0.8,0,1.4-0.3,1.9-0.7c0.7-0.7,1.1-2.1,1.4-2.7l-5.8-13.8h4l3.7,9.7l3.4-9.7h3.7L26.8,326z"/>
	<path class="st0" d="M39.9,326.3c-4.1,0-6.9-3-6.9-7.2c0-4.3,2.9-7.4,7.1-7.4c4.1,0,6.9,3,6.9,7.1C47,323.2,44.1,326.3,39.9,326.3z
		 M40,314.8c-1.9,0-3.2,1.7-3.2,4.1c0,2.5,1.4,4.2,3.3,4.2s3.1-1.6,3.1-4.1C43.3,316.5,41.9,314.8,40,314.8z"/>
	<path class="st0" d="M58.3,325.9v-1c-0.2,0.2-1.9,1.4-3.9,1.4c-1.5,0-2.7-0.4-3.6-1.3c-1.5-1.5-1.5-3.6-1.5-5.4v-7.4h3.8v7.3
		c0,1.8,0.1,2.7,0.6,3.2c0.2,0.2,0.6,0.5,1.5,0.5c1.2,0,2.3-0.7,2.5-0.9v-10.1h3.8v13.8H58.3z"/>
	<path class="st0" d="M73.2,314.9c-0.1,0-0.6-0.1-0.8-0.1c-2.3,0-3.4,1.4-3.9,2v9h-3.8v-13.8h3.2v1.7c0.1-0.2,1.8-2.1,4.6-2.1
		c1,0,1.5,0.3,1.6,0.4L73.2,314.9z"/>
</g>
<g>
	<path class="st0" d="M26.3,354.9v-1c-0.3,0.2-1.7,1.3-3.9,1.3c-2.7,0-4.5-1.8-4.5-4.4c0-4.9,6-5,7.7-5h0.4c0-0.8,0-1.2-0.4-1.6
		c-0.3-0.3-0.9-0.6-2-0.6c-1.8,0-3.5,0.9-3.7,1l-1.3-2.4c0.2-0.2,2.1-1.5,5.2-1.5c1.2,0,3.2,0.2,4.5,1.5c1.1,1.1,1.1,2.6,1.1,4.4
		v8.3H26.3z M26.1,348.4c-0.3,0-0.6,0-0.6,0c-2.4,0-4.2,0.4-4.2,2.2c0,1.4,1.2,1.8,2.1,1.8c1.5,0,2.5-0.8,2.6-0.8V348.4z"/>
	<path class="st0" d="M39,355.3c-4.3,0-7.1-3.1-7.1-7.2c0-4.3,3.2-7.4,7.3-7.4c2.9,0,4.6,1.4,4.8,1.7l-1.5,2.3c-0.2-0.1-1.3-1-2.9-1
		c-2.5,0-3.9,2.2-3.9,4.1c0,2.4,1.2,4.3,3.8,4.3c1.8,0,3.2-1,3.3-1l1.5,2.4C44.2,353.6,42.3,355.3,39,355.3z"/>
	<path class="st0" d="M52.3,355.3c-4.3,0-7.1-3.1-7.1-7.2c0-4.3,3.2-7.4,7.3-7.4c2.9,0,4.6,1.4,4.8,1.7l-1.5,2.3
		c-0.2-0.1-1.3-1-2.9-1c-2.5,0-3.9,2.2-3.9,4.1c0,2.4,1.2,4.3,3.8,4.3c1.8,0,3.2-1,3.3-1l1.5,2.4C57.5,353.6,55.5,355.3,52.3,355.3z
		"/>
	<path class="st0" d="M65.3,355.3c-4.1,0-6.9-3-6.9-7.2c0-4.3,2.9-7.4,7.1-7.4c4.1,0,6.9,3,6.9,7.1
		C72.5,352.3,69.6,355.3,65.3,355.3z M65.4,343.8c-1.9,0-3.2,1.7-3.2,4.1c0,2.5,1.4,4.2,3.3,4.2s3.1-1.6,3.1-4.1
		C68.7,345.5,67.4,343.8,65.4,343.8z"/>
	<path class="st0" d="M83.7,354.9v-1c-0.2,0.2-1.9,1.4-3.9,1.4c-1.5,0-2.7-0.4-3.6-1.3c-1.5-1.5-1.5-3.6-1.5-5.4v-7.4h3.8v7.3
		c0,1.8,0.1,2.7,0.6,3.2c0.2,0.2,0.6,0.5,1.5,0.5c1.2,0,2.3-0.7,2.5-0.9v-10.1H87v13.8H83.7z"/>
	<path class="st0" d="M98.5,354.9v-7.3c0-1.8-0.1-2.7-0.6-3.2c-0.2-0.2-0.6-0.5-1.5-0.5c-1.2,0-2.3,0.7-2.5,0.9v10.1h-3.8v-13.8h3.2
		v1c0.2-0.2,1.9-1.4,3.9-1.4c1.5,0,2.7,0.4,3.6,1.3c1.6,1.6,1.5,3.6,1.5,5.4v7.4H98.5z"/>
	<path class="st0" d="M111.1,355.3c-1.2,0-2.6-0.3-3.6-1.2c-1.2-1.2-1.2-2.5-1.2-4.4v-5.4H104v-3.1h2.4v-3.8h3.8v3.8h3.9v3.1h-3.9
		v5.5c0,1.1,0.1,2.4,1.7,2.4c0.9,0,1.5-0.3,1.7-0.3l1,2.6C114.5,354.5,113.1,355.3,111.1,355.3z"/>
</g>
<g>
	<path class="st0" d="M28,367.1c-0.1-0.1-1-0.7-2-0.7c-2,0-2,1.6-2,3v0.7H28v3.1h-4.1v10.6h-3.8v-10.6h-2.2v-3.1h2.2v-0.7
		c0-2.3,0.3-3.6,1.5-4.8c0.9-0.9,2-1.4,3.8-1.4c2.4,0,3.9,1.2,3.9,1.3L28,367.1z"/>
	<path class="st0" d="M36.4,384.3c-4.1,0-6.9-3-6.9-7.2c0-4.3,2.9-7.4,7.1-7.4c4.1,0,6.9,3,6.9,7.1
		C43.5,381.3,40.6,384.3,36.4,384.3z M36.5,372.8c-1.9,0-3.2,1.7-3.2,4.1c0,2.5,1.4,4.2,3.3,4.2s3.1-1.6,3.1-4.1
		C39.8,374.5,38.4,372.8,36.5,372.8z"/>
	<path class="st0" d="M54.5,372.9c-0.1,0-0.6-0.1-0.8-0.1c-2.3,0-3.4,1.4-3.9,2v9H46v-13.8h3.2v1.7c0.1-0.2,1.8-2.1,4.6-2.1
		c1,0,1.5,0.3,1.6,0.4L54.5,372.9z"/>
	<path class="st0" d="M75.9,383.9l-1.4-3.9h-6.7l-1.4,3.9h-4l6.8-18.7h4l6.8,18.7H75.9z M71.1,369.4l-2.4,7.5h4.7L71.1,369.4z"/>
	<path class="st0" d="M95.7,381.1c-2.7,2.7-6.2,2.8-9.8,2.8h-3.8v-18.7h5.2c3.2,0,5.9,0,8.5,2.5c1.6,1.6,2.5,4.1,2.5,6.7
		C98.2,376.9,97.4,379.4,95.7,381.1z M92.7,369.9c-1.6-1.6-3.4-1.5-5.6-1.5H86v12.4h1.9c4.2,0,6.4-2.3,6.4-6.4
		C94.3,372.3,93.7,370.9,92.7,369.9z"/>
	<path class="st0" d="M112.1,383.9l-1.4-3.9H104l-1.4,3.9h-4l6.8-18.7h4l6.8,18.7H112.1z M107.4,369.4l-2.4,7.5h4.7L107.4,369.4z"/>
</g>
<g>
	<path class="st0" d="M23,413.3c-3.1,0-5.2-1.4-5.3-1.6l1.3-2.4c0.3,0.1,1.8,1.1,3.6,1.1c1.7,0,2.1-0.7,2.1-1.3c0-0.9-0.8-1.1-3-2
		c-1.2-0.5-3.4-1.4-3.4-4s2.2-4.3,5.4-4.3c3,0,4.6,1.2,4.6,1.2l-1.2,2.3c-0.1-0.1-1.7-0.9-3.1-0.9c-1.4,0-1.8,0.7-1.8,1.3
		c0,0.9,1,1.2,2.5,1.8c1.9,0.8,3.9,1.6,3.9,4.4C28.4,411.6,26.3,413.3,23,413.3z"/>
	<path class="st0" d="M37.1,413.3c-1.2,0-2.6-0.3-3.6-1.2c-1.2-1.2-1.2-2.5-1.2-4.4v-5.4H30v-3.1h2.4v-3.8h3.8v3.8h3.9v3.1h-3.9v5.5
		c0,1.1,0.1,2.4,1.7,2.4c0.9,0,1.5-0.3,1.7-0.3l1,2.6C40.5,412.5,39.2,413.3,37.1,413.3z"/>
	<path class="st0" d="M51.5,412.9v-1c-0.2,0.2-1.9,1.4-3.9,1.4c-1.5,0-2.7-0.4-3.6-1.3c-1.5-1.5-1.5-3.6-1.5-5.4v-7.4h3.8v7.3
		c0,1.8,0.1,2.7,0.6,3.2c0.2,0.2,0.6,0.5,1.5,0.5c1.2,0,2.3-0.7,2.5-0.9v-10.1h3.8v13.8H51.5z"/>
	<path class="st0" d="M67.1,412.9v-0.8c-0.1,0.1-1.4,1.2-3.7,1.2c-3.8,0-6.2-2.9-6.2-7.1c0-4.5,3.1-7.5,6.6-7.5
		c1.5,0,2.6,0.5,2.8,0.5v-6.6h3.8v20.3H67.1z M66.7,402.4c-0.1-0.1-1-0.6-2.1-0.6c-2,0-3.5,1.4-3.5,4.3c0,2.7,1.5,4.1,3.3,4.1
		c1.2,0,2.2-0.6,2.3-0.7V402.4z"/>
	<path class="st0" d="M85.7,407.2h-9.1c-0.1,1,0.8,3.1,3.5,3.1c1.7,0,3.1-0.7,3.7-1l1.2,2.4c-0.1,0.1-2.2,1.5-5.2,1.5
		c-4.5,0-6.9-3.2-6.9-7.2c0-4.2,2.7-7.4,6.6-7.4c4,0,6.2,2.9,6.2,7.3C85.8,406.7,85.7,407,85.7,407.2z M79.7,401.5
		c-1.7,0-2.8,1.3-3.1,3h5.7C82.3,403.8,82,401.5,79.7,401.5z"/>
	<path class="st0" d="M96.7,412.9v-7.3c0-1.8-0.1-2.7-0.6-3.2c-0.2-0.2-0.6-0.5-1.5-0.5c-1.2,0-2.3,0.7-2.5,0.9v10.1h-3.8v-13.8h3.2
		v1c0.2-0.2,1.9-1.4,3.9-1.4c1.5,0,2.7,0.4,3.6,1.3c1.6,1.6,1.5,3.6,1.5,5.4v7.4H96.7z"/>
	<path class="st0" d="M109.3,413.3c-1.2,0-2.6-0.3-3.6-1.2c-1.2-1.2-1.2-2.5-1.2-4.4v-5.4h-2.4v-3.1h2.4v-3.8h3.8v3.8h3.9v3.1h-3.9
		v5.5c0,1.1,0.1,2.4,1.7,2.4c0.9,0,1.5-0.3,1.7-0.3l1,2.6C112.7,412.5,111.3,413.3,109.3,413.3z"/>
</g>
<g>
	<path class="st0" d="M34.7,441.9v-7.5c0-1.7,0.1-3.4-1.9-3.4c-1.2,0-2.3,0.8-2.5,1c0.1,0.6,0.2,0.7,0.2,3.1v6.9h-3.8v-7.5
		c0-1.7,0.1-3.4-1.9-3.4c-1.1,0-2.2,0.6-2.4,0.8v10.2h-3.8v-13.8h3.2v1c0.3-0.2,1.8-1.4,3.9-1.4c2.2,0,3.1,1.2,3.4,1.5
		c0.3-0.2,2-1.5,4.4-1.5c1.2,0,2.6,0.3,3.5,1.3c1.7,1.7,1.6,3.9,1.6,7.1v5.8H34.7z"/>
	<path class="st0" d="M53.6,436.3h-9.1c-0.1,1,0.8,3.1,3.5,3.1c1.7,0,3.1-0.7,3.7-1l1.2,2.4c-0.1,0.1-2.2,1.5-5.2,1.5
		c-4.5,0-6.9-3.2-6.9-7.2c0-4.2,2.7-7.4,6.6-7.4c4,0,6.2,2.9,6.2,7.3C53.7,435.7,53.6,436.1,53.6,436.3z M47.6,430.5
		c-1.7,0-2.8,1.3-3.1,3h5.7C50.2,432.8,49.9,430.5,47.6,430.5z"/>
	<path class="st0" d="M72.4,441.9v-7.5c0-1.7,0.1-3.4-1.9-3.4c-1.2,0-2.3,0.8-2.5,1c0.1,0.6,0.2,0.7,0.2,3.1v6.9h-3.8v-7.5
		c0-1.7,0.1-3.4-1.9-3.4c-1.1,0-2.2,0.6-2.4,0.8v10.2h-3.8v-13.8h3.2v1c0.3-0.2,1.8-1.4,3.9-1.4c2.2,0,3.1,1.2,3.4,1.5
		c0.3-0.2,2-1.5,4.4-1.5c1.2,0,2.6,0.3,3.5,1.3c1.7,1.7,1.6,3.9,1.6,7.1v5.8H72.4z"/>
	<path class="st0" d="M85,442.3c-2.8,0-5.5-1-5.8-1.1v-19.6H83v7.1c0.2-0.1,1.5-1,3.4-1c3.3,0,5.9,2.6,5.9,6.9
		C92.3,439.2,89.5,442.3,85,442.3z M85.5,430.8c-1.2,0-2.4,0.7-2.5,0.8v7.4c0.2,0.1,0.8,0.3,2,0.3c2.2,0,3.5-1.8,3.5-4.6
		C88.5,432,87,430.8,85.5,430.8z"/>
	<path class="st0" d="M107,436.3h-9.1c-0.1,1,0.8,3.1,3.5,3.1c1.7,0,3.1-0.7,3.7-1l1.2,2.4c-0.1,0.1-2.2,1.5-5.2,1.5
		c-4.5,0-6.9-3.2-6.9-7.2c0-4.2,2.7-7.4,6.6-7.4c4,0,6.2,2.9,6.2,7.3C107,435.7,107,436.1,107,436.3z M100.9,430.5
		c-1.7,0-2.8,1.3-3.1,3h5.7C103.5,432.8,103.2,430.5,100.9,430.5z"/>
	<path class="st0" d="M118.1,431c-0.1,0-0.6-0.1-0.8-0.1c-2.3,0-3.4,1.4-3.9,2v9h-3.8v-13.8h3.2v1.7c0.1-0.2,1.8-2.1,4.6-2.1
		c1,0,1.5,0.3,1.6,0.4L118.1,431z"/>
	<path class="st0" d="M124.8,442.3c-3.1,0-5.2-1.4-5.3-1.6l1.3-2.4c0.3,0.1,1.8,1.1,3.6,1.1c1.7,0,2.1-0.7,2.1-1.3
		c0-0.9-0.8-1.1-3-2c-1.2-0.5-3.4-1.4-3.4-4s2.2-4.3,5.4-4.3c3,0,4.6,1.2,4.6,1.2l-1.2,2.3c-0.1-0.1-1.7-0.9-3.1-0.9
		c-1.4,0-1.8,0.7-1.8,1.3c0,0.9,1,1.2,2.5,1.8c1.9,0.8,3.9,1.6,3.9,4.4C130.3,440.6,128.2,442.3,124.8,442.3z"/>
</g>
<g>
	<path class="st0" d="M20.5,455.4c-1.2,0-2.2-1-2.2-2.2s1-2.2,2.2-2.2s2.2,1,2.2,2.2S21.7,455.4,20.5,455.4z M18.6,470.9v-13.8h3.8
		v13.8H18.6z"/>
	<path class="st0" d="M33.9,470.9v-7.3c0-1.8-0.1-2.7-0.6-3.2c-0.2-0.2-0.6-0.5-1.5-0.5c-1.2,0-2.3,0.7-2.5,0.9v10.1h-3.8v-13.8h3.2
		v1c0.2-0.2,1.9-1.4,3.9-1.4c1.5,0,2.7,0.4,3.6,1.3c1.6,1.6,1.5,3.6,1.5,5.4v7.4H33.9z"/>
	<path class="st0" d="M45,471.3c-3.1,0-5.2-1.4-5.3-1.6l1.3-2.4c0.3,0.1,1.8,1.1,3.6,1.1c1.7,0,2.1-0.7,2.1-1.3c0-0.9-0.8-1.1-3-2
		c-1.2-0.5-3.4-1.4-3.4-4s2.2-4.3,5.4-4.3c3,0,4.6,1.2,4.6,1.2l-1.2,2.3c-0.1-0.1-1.7-0.9-3.1-0.9c-1.4,0-1.8,0.7-1.8,1.3
		c0,0.9,1,1.2,2.5,1.8c1.9,0.8,3.9,1.6,3.9,4.4C50.5,469.6,48.4,471.3,45,471.3z"/>
	<path class="st0" d="M61.8,470.9v-1c-0.2,0.2-1.9,1.4-3.9,1.4c-1.5,0-2.7-0.4-3.6-1.3c-1.5-1.5-1.5-3.6-1.5-5.4v-7.4h3.8v7.3
		c0,1.8,0.1,2.7,0.6,3.2c0.2,0.2,0.6,0.5,1.5,0.5c1.2,0,2.3-0.7,2.5-0.9v-10.1H65v13.8H61.8z"/>
	<path class="st0" d="M76.7,460c-0.1,0-0.6-0.1-0.8-0.1c-2.3,0-3.4,1.4-3.9,2v9h-3.8v-13.8h3.2v1.7c0.1-0.2,1.8-2.1,4.6-2.1
		c1,0,1.5,0.3,1.6,0.4L76.7,460z"/>
	<path class="st0" d="M86.9,470.9v-1c-0.3,0.2-1.7,1.3-3.9,1.3c-2.7,0-4.5-1.8-4.5-4.4c0-4.9,6-5,7.7-5h0.4c0-0.8,0-1.2-0.4-1.6
		c-0.3-0.3-0.9-0.6-2-0.6c-1.8,0-3.5,0.9-3.7,1l-1.3-2.4c0.2-0.2,2.1-1.5,5.2-1.5c1.2,0,3.2,0.2,4.5,1.5c1.1,1.1,1.1,2.6,1.1,4.4
		v8.3H86.9z M86.7,464.4c-0.3,0-0.6,0-0.6,0c-2.4,0-4.2,0.4-4.2,2.2c0,1.4,1.2,1.8,2.1,1.8c1.5,0,2.5-0.8,2.6-0.8V464.4z"/>
	<path class="st0" d="M101.7,470.9v-7.3c0-1.8-0.1-2.7-0.6-3.2c-0.2-0.2-0.6-0.5-1.5-0.5c-1.2,0-2.3,0.7-2.5,0.9v10.1h-3.8v-13.8
		h3.2v1c0.2-0.2,1.9-1.4,3.9-1.4c1.5,0,2.7,0.4,3.6,1.3c1.6,1.6,1.5,3.6,1.5,5.4v7.4H101.7z"/>
	<path class="st0" d="M114.8,471.3c-4.3,0-7.1-3.1-7.1-7.2c0-4.3,3.2-7.4,7.3-7.4c2.9,0,4.6,1.4,4.8,1.7l-1.5,2.3
		c-0.2-0.1-1.3-1-2.9-1c-2.5,0-3.9,2.2-3.9,4.1c0,2.4,1.2,4.3,3.8,4.3c1.8,0,3.2-1,3.3-1l1.5,2.4C120,469.7,118.1,471.3,114.8,471.3
		z"/>
	<path class="st0" d="M133.7,465.3h-9.1c-0.1,1,0.8,3.1,3.5,3.1c1.7,0,3.1-0.7,3.7-1l1.2,2.4c-0.1,0.1-2.2,1.5-5.2,1.5
		c-4.5,0-6.9-3.2-6.9-7.2c0-4.2,2.7-7.4,6.6-7.4c4,0,6.2,2.9,6.2,7.3C133.8,464.7,133.7,465.1,133.7,465.3z M127.7,459.5
		c-1.7,0-2.8,1.3-3.1,3h5.7C130.3,461.8,130,459.5,127.7,459.5z"/>
	<path class="st0" d="M138.2,471.1c-1.3,0-2.3-1-2.3-2.3s1-2.3,2.3-2.3s2.3,1,2.3,2.3S139.5,471.1,138.2,471.1z"/>
</g>
</svg>
