<?xml version="1.0" encoding="utf-8"?>
<!-- Generator: Adobe Illustrator 24.1.3, SVG Export Plug-In . SVG Version: 6.00 Build 0)  -->
<svg version="1.1" id="Layer_1" xmlns="http://www.w3.org/2000/svg" xmlns:xlink="http://www.w3.org/1999/xlink" x="0px" y="0px"
	 viewBox="0 0 160 600" style="enable-background:new 0 0 160 600;" xml:space="preserve">
<style type="text/css">
	.st0{fill:#FFFFFF;}
</style>
<g>
	<path class="st0" d="M27,89.8l-1-2.9h-5l-1,2.9h-3l5.1-14h3l5.1,14H27z M23.5,78.9l-1.8,5.6h3.5L23.5,78.9z"/>
	<path class="st0" d="M36,90.1c-3.2,0-5.3-2.3-5.3-5.4c0-3.2,2.4-5.5,5.5-5.5c2.2,0,3.4,1,3.6,1.3l-1.1,1.7c-0.1-0.1-1-0.7-2.2-0.7
		c-1.9,0-2.9,1.6-2.9,3.1c0,1.8,0.9,3.2,2.8,3.2c1.3,0,2.4-0.7,2.5-0.8l1.1,1.8C39.9,88.8,38.5,90.1,36,90.1z"/>
	<path class="st0" d="M46.2,90.1c-0.9,0-2-0.2-2.7-0.9c-0.9-0.9-0.9-1.9-0.9-3.3v-4h-1.8v-2.4h1.8v-2.9h2.8v2.9h2.9v2.4h-2.9v4.1
		c0,0.8,0.1,1.8,1.3,1.8c0.7,0,1.1-0.2,1.3-0.3l0.7,2C48.7,89.5,47.7,90.1,46.2,90.1z"/>
	<path class="st0" d="M51.9,78.2c-0.9,0-1.6-0.7-1.6-1.6s0.7-1.6,1.6-1.6s1.6,0.7,1.6,1.6S52.8,78.2,51.9,78.2z M50.5,89.8V79.4h2.8
		v10.3H50.5z"/>
	<path class="st0" d="M61.3,89.8h-2.7l-3.9-10.3h2.9l2.5,7.2l2.4-7.2h2.8L61.3,89.8z"/>
	<path class="st0" d="M72.3,89.8V89c-0.2,0.1-1.3,1-2.9,1c-2.1,0-3.3-1.4-3.3-3.3c0-3.7,4.5-3.7,5.8-3.7h0.3c0-0.6,0-0.9-0.3-1.2
		c-0.2-0.2-0.7-0.4-1.5-0.4c-1.4,0-2.6,0.7-2.8,0.8l-0.9-1.8c0.1-0.1,1.6-1.1,3.9-1.1c0.9,0,2.4,0.1,3.4,1.2
		c0.9,0.9,0.8,1.9,0.8,3.3v6.2H72.3z M72.1,84.9c-0.2,0-0.4,0-0.4,0c-1.8,0-3.1,0.3-3.1,1.6c0,1.1,0.9,1.4,1.6,1.4
		c1.2,0,1.8-0.6,2-0.6V84.9z"/>
	<path class="st0" d="M81.5,90.1c-0.9,0-2-0.2-2.7-0.9c-0.9-0.9-0.9-1.9-0.9-3.3v-4h-1.8v-2.4h1.8v-2.9h2.8v2.9h2.9v2.4h-2.9v4.1
		c0,0.8,0.1,1.8,1.3,1.8c0.7,0,1.1-0.2,1.3-0.3l0.7,2C84,89.5,83,90.1,81.5,90.1z"/>
	<path class="st0" d="M94.7,85.5h-6.8c0,0.8,0.6,2.3,2.6,2.3c1.3,0,2.3-0.5,2.8-0.7l0.9,1.8c-0.1,0.1-1.6,1.1-3.9,1.1
		c-3.4,0-5.1-2.4-5.1-5.4c0-3.2,2-5.5,5-5.5c3,0,4.6,2.1,4.6,5.5C94.7,85.1,94.7,85.4,94.7,85.5z M90.2,81.2c-1.3,0-2.1,1-2.3,2.2
		h4.2C92.1,82.9,91.9,81.2,90.2,81.2z"/>
</g>
<g>
	<path class="st0" d="M24.1,111.9c-0.8,2-1.3,3-2,3.7c-0.4,0.4-1.3,1.1-3,1.1c-1.5,0-2.5-0.6-2.6-0.7l0.8-2c0.1,0.1,0.8,0.4,1.6,0.4
		c0.6,0,1.1-0.2,1.4-0.5c0.5-0.5,0.9-1.6,1-2.1L17,101.4h3l2.8,7.2l2.6-7.2h2.8L24.1,111.9z"/>
	<path class="st0" d="M33.9,112.1c-3,0-5.1-2.2-5.1-5.4c0-3.2,2.2-5.5,5.4-5.5c3,0,5.2,2.2,5.2,5.4
		C39.2,109.8,37.1,112.1,33.9,112.1z M34,103.5c-1.4,0-2.4,1.2-2.4,3.1c0,1.9,1,3.1,2.5,3.1s2.4-1.2,2.4-3.1
		C36.4,104.7,35.4,103.5,34,103.5z"/>
	<path class="st0" d="M47.8,111.8V111c-0.2,0.1-1.4,1.1-2.9,1.1c-1.1,0-2-0.3-2.7-1c-1.2-1.2-1.1-2.7-1.1-4.1v-5.6h2.8v5.4
		c0,1.3,0.1,2,0.4,2.4c0.1,0.1,0.4,0.4,1.1,0.4c0.9,0,1.7-0.5,1.9-0.7v-7.6h2.8v10.3H47.8z"/>
	<path class="st0" d="M58.9,103.6c-0.1,0-0.5-0.1-0.6-0.1c-1.7,0-2.6,1-2.9,1.5v6.8h-2.8v-10.3H55v1.3c0.1-0.1,1.4-1.6,3.4-1.6
		c0.7,0,1.1,0.3,1.2,0.3L58.9,103.6z"/>
	<path class="st0" d="M72.1,111.8v-5.4c0-1.3-0.1-2-0.4-2.4c-0.1-0.1-0.4-0.4-1.1-0.4c-0.9,0-1.7,0.5-1.9,0.7v7.6h-2.8v-10.3h2.4
		v0.8c0.2-0.1,1.4-1.1,2.9-1.1c1.1,0,2,0.3,2.7,1c1.2,1.2,1.1,2.7,1.1,4.1v5.6H72.1z"/>
	<path class="st0" d="M81.9,112.1c-3,0-5.1-2.2-5.1-5.4c0-3.2,2.2-5.5,5.4-5.5c3,0,5.2,2.2,5.2,5.4
		C87.3,109.8,85.1,112.1,81.9,112.1z M82,103.5c-1.4,0-2.4,1.2-2.4,3.1c0,1.9,1,3.1,2.5,3.1s2.4-1.2,2.4-3.1
		C84.4,104.7,83.4,103.5,82,103.5z"/>
	<path class="st0" d="M89.6,107.4v-2.4h7.3v2.4H89.6z"/>
	<path class="st0" d="M104.5,112.1c-3.2,0-5.3-2.3-5.3-5.4c0-3.2,2.4-5.5,5.5-5.5c2.2,0,3.4,1,3.6,1.3l-1.1,1.7
		c-0.1-0.1-1-0.7-2.2-0.7c-1.9,0-2.9,1.6-2.9,3.1c0,1.8,0.9,3.2,2.8,3.2c1.3,0,2.4-0.7,2.5-0.8l1.1,1.8
		C108.4,110.8,106.9,112.1,104.5,112.1z"/>
	<path class="st0" d="M114.3,112.1c-3,0-5.1-2.2-5.1-5.4c0-3.2,2.2-5.5,5.4-5.5c3,0,5.2,2.2,5.2,5.4
		C119.7,109.8,117.5,112.1,114.3,112.1z M114.4,103.5c-1.4,0-2.4,1.2-2.4,3.1c0,1.9,1,3.1,2.5,3.1s2.4-1.2,2.4-3.1
		C116.8,104.7,115.8,103.5,114.4,103.5z"/>
	<path class="st0" d="M124.7,112.1c-2.4,0-3.9-1.1-4-1.2l1-1.8c0.2,0.1,1.4,0.8,2.7,0.8c1.3,0,1.6-0.5,1.6-1c0-0.7-0.6-0.8-2.2-1.5
		c-0.9-0.4-2.6-1-2.6-3s1.6-3.3,4.1-3.3c2.2,0,3.4,0.9,3.4,0.9l-0.9,1.7c-0.1-0.1-1.3-0.7-2.4-0.7c-1.1,0-1.4,0.5-1.4,0.9
		c0,0.7,0.7,0.9,1.9,1.3c1.4,0.6,3,1.2,3,3.3C128.8,110.8,127.2,112.1,124.7,112.1z"/>
	<path class="st0" d="M135.3,112.1c-0.9,0-2-0.2-2.7-0.9c-0.9-0.9-0.9-1.9-0.9-3.3v-4H130v-2.4h1.8v-2.9h2.8v2.9h2.9v2.4h-2.9v4.1
		c0,0.8,0.1,1.8,1.3,1.8c0.7,0,1.1-0.2,1.3-0.3l0.7,2C137.9,111.5,136.9,112.1,135.3,112.1z"/>
</g>
<g>
	<path class="st0" d="M19.3,122.2c-0.9,0-1.6-0.7-1.6-1.6s0.7-1.6,1.6-1.6s1.6,0.7,1.6,1.6S20.2,122.2,19.3,122.2z M17.9,133.8
		v-10.3h2.8v10.3H17.9z"/>
	<path class="st0" d="M29.4,133.8v-5.4c0-1.3-0.1-2-0.4-2.4c-0.1-0.1-0.4-0.4-1.1-0.4c-0.9,0-1.7,0.5-1.9,0.7v7.6h-2.8v-10.3h2.4
		v0.8c0.2-0.1,1.4-1.1,2.9-1.1c1.1,0,2,0.3,2.7,1c1.2,1.2,1.1,2.7,1.1,4.1v5.6H29.4z"/>
	<path class="st0" d="M37.8,134.1c-2.4,0-3.9-1.1-4-1.2l1-1.8c0.2,0.1,1.4,0.8,2.7,0.8c1.3,0,1.6-0.5,1.6-1c0-0.7-0.6-0.8-2.2-1.5
		c-0.9-0.4-2.6-1-2.6-3s1.6-3.3,4.1-3.3c2.2,0,3.4,0.9,3.4,0.9l-0.9,1.7c-0.1-0.1-1.3-0.7-2.4-0.7s-1.4,0.5-1.4,0.9
		c0,0.7,0.7,0.9,1.9,1.3c1.4,0.6,3,1.2,3,3.3C41.9,132.8,40.3,134.1,37.8,134.1z"/>
	<path class="st0" d="M50.5,133.8V133c-0.2,0.1-1.4,1.1-2.9,1.1c-1.1,0-2-0.3-2.7-1c-1.2-1.2-1.1-2.7-1.1-4.1v-5.6h2.8v5.4
		c0,1.3,0.1,2,0.4,2.4c0.1,0.1,0.4,0.4,1.1,0.4c0.9,0,1.7-0.5,1.9-0.7v-7.6h2.8v10.3H50.5z"/>
	<path class="st0" d="M61.7,125.6c-0.1,0-0.5-0.1-0.6-0.1c-1.7,0-2.6,1-2.9,1.5v6.8h-2.8v-10.3h2.4v1.3c0.1-0.1,1.4-1.6,3.4-1.6
		c0.7,0,1.1,0.3,1.2,0.3L61.7,125.6z"/>
	<path class="st0" d="M69.4,133.8V133c-0.2,0.1-1.3,1-2.9,1c-2.1,0-3.3-1.4-3.3-3.3c0-3.7,4.5-3.7,5.8-3.7h0.3c0-0.6,0-0.9-0.3-1.2
		c-0.2-0.2-0.7-0.4-1.5-0.4c-1.4,0-2.6,0.7-2.8,0.8l-0.9-1.8c0.1-0.1,1.6-1.1,3.9-1.1c0.9,0,2.4,0.1,3.4,1.2
		c0.9,0.9,0.8,1.9,0.8,3.3v6.2H69.4z M69.2,128.9c-0.2,0-0.4,0-0.4,0c-1.8,0-3.1,0.3-3.1,1.6c0,1.1,0.9,1.4,1.6,1.4
		c1.2,0,1.8-0.6,2-0.6V128.9z"/>
	<path class="st0" d="M80.4,133.8v-5.4c0-1.3-0.1-2-0.4-2.4c-0.1-0.1-0.4-0.4-1.1-0.4c-0.9,0-1.7,0.5-1.9,0.7v7.6h-2.8v-10.3h2.4
		v0.8c0.2-0.1,1.4-1.1,2.9-1.1c1.1,0,2,0.3,2.7,1c1.2,1.2,1.1,2.7,1.1,4.1v5.6H80.4z"/>
	<path class="st0" d="M90.4,134.1c-3.2,0-5.3-2.3-5.3-5.4c0-3.2,2.4-5.5,5.5-5.5c2.2,0,3.4,1,3.6,1.3l-1.1,1.7
		c-0.1-0.1-1-0.7-2.2-0.7c-1.9,0-2.9,1.6-2.9,3.1c0,1.8,0.9,3.2,2.8,3.2c1.3,0,2.4-0.7,2.5-0.8l1.1,1.8
		C94.2,132.8,92.8,134.1,90.4,134.1z"/>
	<path class="st0" d="M104.6,129.5h-6.8c0,0.8,0.6,2.3,2.6,2.3c1.3,0,2.3-0.5,2.8-0.7l0.9,1.8c-0.1,0.1-1.6,1.1-3.9,1.1
		c-3.4,0-5.1-2.4-5.1-5.4c0-3.2,2-5.5,5-5.5c3,0,4.6,2.1,4.6,5.5C104.6,129.1,104.6,129.4,104.6,129.5z M100,125.3
		c-1.3,0-2.1,1-2.3,2.2h4.2C102,126.9,101.8,125.3,100,125.3z"/>
</g>
<g>
	<path class="st0" d="M24.2,155.8v-5.4c0-1.3-0.1-2-0.4-2.4c-0.1-0.1-0.4-0.4-1.1-0.4c-0.9,0-1.7,0.5-1.9,0.7v7.6h-2.8v-10.3h2.4
		v0.8c0.2-0.1,1.4-1.1,2.9-1.1c1.1,0,2,0.3,2.7,1c1.2,1.2,1.1,2.7,1.1,4.1v5.6H24.2z"/>
	<path class="st0" d="M33.9,156.1c-3,0-5.1-2.2-5.1-5.4c0-3.2,2.2-5.5,5.4-5.5c3,0,5.2,2.2,5.2,5.4
		C39.3,153.8,37.1,156.1,33.9,156.1z M34,147.5c-1.4,0-2.4,1.2-2.4,3.1c0,1.9,1,3.1,2.5,3.1s2.4-1.2,2.4-3.1
		C36.5,148.8,35.5,147.5,34,147.5z"/>
	<path class="st0" d="M52.3,155.8h-2.9l-1.8-7.1l-1.8,7.1h-2.9l-2.8-10.3h2.7l1.7,7.2l1.9-7.2h2.5l1.8,7.2l1.8-7.2h2.6L52.3,155.8z"
		/>
	<path class="st0" d="M57.9,155.9c-1,0-1.7-0.8-1.7-1.7s0.8-1.7,1.7-1.7s1.7,0.8,1.7,1.7S58.8,155.9,57.9,155.9z"/>
</g>
</svg>
