<?xml version="1.0" encoding="utf-8"?>
<!-- Generator: Adobe Illustrator 24.1.3, SVG Export Plug-In . SVG Version: 6.00 Build 0)  -->
<svg version="1.1" id="Layer_1" xmlns="http://www.w3.org/2000/svg" xmlns:xlink="http://www.w3.org/1999/xlink" x="0px" y="0px"
	 viewBox="0 0 160 600" style="enable-background:new 0 0 160 600;" xml:space="preserve">
<style type="text/css">
	.st0{fill:#FFFFFF;}
</style>
<g>
	<path class="st0" d="M27,186.8l-1-2.9h-5l-1,2.9h-3l5.1-14h3l5.1,14H27z M23.5,176l-1.8,5.6h3.5L23.5,176z"/>
	<path class="st0" d="M37.8,186.8v-5.4c0-1.3-0.1-2-0.4-2.4c-0.1-0.1-0.4-0.4-1.1-0.4c-0.9,0-1.7,0.5-1.9,0.7v7.6h-2.8v-10.3H34v0.8
		c0.2-0.1,1.4-1.1,2.9-1.1c1.1,0,2,0.3,2.7,1c1.2,1.2,1.1,2.7,1.1,4.1v5.6H37.8z"/>
	<path class="st0" d="M49.9,186.8v-0.6c-0.1,0.1-1,0.9-2.8,0.9c-2.8,0-4.6-2.2-4.6-5.3c0-3.4,2.4-5.6,5-5.6c1.2,0,2,0.4,2.1,0.4v-5
		h2.8v15.2H49.9z M49.5,178.9c-0.1,0-0.8-0.4-1.6-0.4c-1.5,0-2.6,1.1-2.6,3.2c0,2,1.1,3.1,2.5,3.1c0.9,0,1.7-0.5,1.7-0.5V178.9z"/>
	<path class="st0" d="M71.6,186.8v-5.6c0-1.2,0-2.6-1.4-2.6c-0.9,0-1.7,0.6-1.9,0.7c0.1,0.4,0.1,0.5,0.1,2.3v5.2h-2.8v-5.6
		c0-1.2,0-2.6-1.4-2.6c-0.8,0-1.6,0.5-1.8,0.6v7.6h-2.8v-10.3h2.4v0.8c0.2-0.1,1.3-1.1,2.9-1.1c1.6,0,2.3,0.9,2.5,1.1
		c0.2-0.1,1.5-1.1,3.3-1.1c0.9,0,1.9,0.3,2.6,0.9c1.2,1.2,1.2,3,1.2,5.3v4.3H71.6z"/>
	<path class="st0" d="M82.5,186.8v-0.7c-0.2,0.1-1.3,1-2.9,1c-2.1,0-3.3-1.4-3.3-3.3c0-3.7,4.5-3.7,5.8-3.7h0.3c0-0.6,0-0.9-0.3-1.2
		c-0.2-0.2-0.7-0.4-1.5-0.4c-1.4,0-2.6,0.7-2.8,0.8l-0.9-1.8c0.1-0.1,1.6-1.1,3.9-1.1c0.9,0,2.4,0.1,3.4,1.2
		c0.9,0.9,0.8,1.9,0.8,3.3v6.2H82.5z M82.3,181.9c-0.2,0-0.4,0-0.4,0c-1.8,0-3.1,0.3-3.1,1.6c0,1.1,0.9,1.4,1.6,1.4
		c1.2,0,1.8-0.6,2-0.6V181.9z"/>
	<path class="st0" d="M93.8,186.8l-3.7-4.9v4.9h-2.8v-15.2h2.8v8.7l3.8-3.8h3.3l-4.6,4.5l4.6,5.8H93.8z"/>
	<path class="st0" d="M106.9,182.5h-6.8c0,0.8,0.6,2.3,2.6,2.3c1.3,0,2.3-0.5,2.8-0.7l0.9,1.8c-0.1,0.1-1.6,1.1-3.9,1.1
		c-3.4,0-5.1-2.4-5.1-5.4c0-3.2,2-5.5,5-5.5c3,0,4.6,2.1,4.6,5.5C107,182.1,106.9,182.4,106.9,182.5z M102.4,178.3
		c-1.3,0-2.1,1-2.3,2.2h4.2C104.4,179.9,104.2,178.3,102.4,178.3z"/>
</g>
<g>
	<path class="st0" d="M21.2,209.1c-2.4,0-3.9-1.1-4-1.2l1-1.8c0.2,0.1,1.4,0.8,2.7,0.8c1.3,0,1.6-0.5,1.6-1c0-0.7-0.6-0.8-2.2-1.5
		c-0.9-0.4-2.6-1-2.6-3s1.6-3.3,4.1-3.3c2.2,0,3.4,0.9,3.4,0.9l-0.9,1.7c-0.1-0.1-1.3-0.7-2.4-0.7s-1.4,0.5-1.4,0.9
		c0,0.7,0.7,0.9,1.9,1.3c1.4,0.6,3,1.2,3,3.3C25.3,207.8,23.7,209.1,21.2,209.1z"/>
	<path class="st0" d="M33.8,208.8V208c-0.2,0.1-1.4,1.1-2.9,1.1c-1.1,0-2-0.3-2.7-1c-1.2-1.2-1.1-2.7-1.1-4.1v-5.6h2.8v5.4
		c0,1.3,0.1,2,0.4,2.4c0.1,0.1,0.4,0.4,1.1,0.4c0.9,0,1.7-0.5,1.9-0.7v-7.6h2.8v10.3H33.8z"/>
	<path class="st0" d="M45,200.6c-0.1,0-0.5-0.1-0.6-0.1c-1.7,0-2.6,1-2.9,1.5v6.8h-2.8v-10.3h2.4v1.3c0.1-0.1,1.4-1.6,3.4-1.6
		c0.7,0,1.1,0.3,1.2,0.3L45,200.6z"/>
	<path class="st0" d="M55.8,204.6h-6.8c0,0.8,0.6,2.3,2.6,2.3c1.3,0,2.3-0.5,2.8-0.7l0.9,1.8c-0.1,0.1-1.6,1.1-3.9,1.1
		c-3.4,0-5.1-2.4-5.1-5.4c0-3.2,2-5.5,5-5.5c3,0,4.6,2.1,4.6,5.5C55.8,204.1,55.8,204.4,55.8,204.6z M51.2,200.3
		c-1.3,0-2.1,1-2.3,2.2h4.2C53.2,202,53,200.3,51.2,200.3z"/>
	<path class="st0" d="M68.7,208.9c-0.8,2-1.3,3-2,3.7c-0.4,0.4-1.3,1.1-3,1.1c-1.5,0-2.5-0.6-2.6-0.7l0.8-2c0.1,0.1,0.8,0.4,1.6,0.4
		c0.6,0,1.1-0.2,1.4-0.5c0.5-0.5,0.9-1.6,1-2.1l-4.3-10.3h3l2.8,7.2l2.6-7.2h2.8L68.7,208.9z"/>
	<path class="st0" d="M78.5,209.1c-3,0-5.1-2.2-5.1-5.4c0-3.2,2.2-5.5,5.4-5.5c3,0,5.2,2.2,5.2,5.4
		C83.9,206.8,81.7,209.1,78.5,209.1z M78.6,200.5c-1.4,0-2.4,1.2-2.4,3.1c0,1.9,1,3.1,2.5,3.1s2.4-1.2,2.4-3.1
		C81.1,201.8,80,200.5,78.6,200.5z"/>
	<path class="st0" d="M92.4,208.8V208c-0.2,0.1-1.4,1.1-2.9,1.1c-1.1,0-2-0.3-2.7-1c-1.2-1.2-1.1-2.7-1.1-4.1v-5.6h2.8v5.4
		c0,1.3,0.1,2,0.4,2.4c0.1,0.1,0.4,0.4,1.1,0.4c0.9,0,1.7-0.5,1.9-0.7v-7.6h2.8v10.3H92.4z"/>
	<path class="st0" d="M99.3,199.1c-0.3,0.3-0.8,0.7-1.2,1l-1.6-1.4c0.1-0.1,0.2-0.2,0.3-0.3c1.5-1.5,1.4-2.9,1.4-3.6h3
		C101.2,196.3,100.9,197.5,99.3,199.1z"/>
	<path class="st0" d="M108.7,200.6c-0.1,0-0.5-0.1-0.6-0.1c-1.7,0-2.6,1-2.9,1.5v6.8h-2.8v-10.3h2.4v1.3c0.1-0.1,1.4-1.6,3.4-1.6
		c0.7,0,1.1,0.3,1.2,0.3L108.7,200.6z"/>
	<path class="st0" d="M119.4,204.6h-6.8c0,0.8,0.6,2.3,2.6,2.3c1.3,0,2.3-0.5,2.8-0.7l0.9,1.8c-0.1,0.1-1.6,1.1-3.9,1.1
		c-3.4,0-5.1-2.4-5.1-5.4c0-3.2,2-5.5,5-5.5c3,0,4.6,2.1,4.6,5.5C119.4,204.1,119.4,204.4,119.4,204.6z M114.9,200.3
		c-1.3,0-2.1,1-2.3,2.2h4.2C116.8,202,116.6,200.3,114.9,200.3z"/>
</g>
<g>
	<path class="st0" d="M22.8,231.1c-1.2,0-2-0.4-2.1-0.4v4.7h-2.8v-14.9h2.5v0.6c0.1-0.1,1-0.9,2.8-0.9c2.8,0,4.6,2.2,4.6,5.3
		C27.8,228.9,25.4,231.1,22.8,231.1z M22.4,222.5c-0.9,0-1.7,0.5-1.7,0.5v5.3c0.1,0,0.8,0.4,1.6,0.4c1.5,0,2.6-1.1,2.6-3.2
		C24.9,223.6,23.8,222.5,22.4,222.5z"/>
	<path class="st0" d="M36.1,222.6c-0.1,0-0.5-0.1-0.6-0.1c-1.7,0-2.6,1-2.9,1.5v6.8h-2.8v-10.3h2.4v1.3c0.1-0.1,1.4-1.6,3.4-1.6
		c0.7,0,1.1,0.3,1.2,0.3L36.1,222.6z"/>
	<path class="st0" d="M42.4,231.1c-3,0-5.1-2.2-5.1-5.4c0-3.2,2.2-5.5,5.4-5.5c3,0,5.2,2.2,5.2,5.4
		C47.7,228.8,45.5,231.1,42.4,231.1z M42.4,222.5c-1.4,0-2.4,1.2-2.4,3.1c0,1.9,1,3.1,2.5,3.1s2.4-1.2,2.4-3.1
		C44.9,223.8,43.9,222.5,42.4,222.5z"/>
	<path class="st0" d="M54,231.1c-0.9,0-2-0.2-2.7-0.9c-0.9-0.9-0.9-1.9-0.9-3.3v-4h-1.8v-2.4h1.8v-2.9h2.8v2.9h2.9v2.4h-2.9v4.1
		c0,0.8,0.1,1.8,1.3,1.8c0.7,0,1.1-0.2,1.3-0.3l0.7,2C56.6,230.5,55.6,231.1,54,231.1z"/>
	<path class="st0" d="M67.2,226.6h-6.8c0,0.8,0.6,2.3,2.6,2.3c1.3,0,2.3-0.5,2.8-0.7l0.9,1.8c-0.1,0.1-1.6,1.1-3.9,1.1
		c-3.4,0-5.1-2.4-5.1-5.4c0-3.2,2-5.5,5-5.5c3,0,4.6,2.1,4.6,5.5C67.3,226.1,67.2,226.4,67.2,226.6z M62.7,222.3
		c-1.3,0-2.1,1-2.3,2.2h4.2C64.7,224,64.4,222.3,62.7,222.3z"/>
	<path class="st0" d="M74,231.1c-3.2,0-5.3-2.3-5.3-5.4c0-3.2,2.4-5.5,5.5-5.5c2.2,0,3.4,1,3.6,1.3l-1.1,1.7c-0.1-0.1-1-0.7-2.2-0.7
		c-1.9,0-2.9,1.6-2.9,3.1c0,1.8,0.9,3.2,2.8,3.2c1.3,0,2.4-0.7,2.5-0.8l1.1,1.8C77.9,229.9,76.4,231.1,74,231.1z"/>
	<path class="st0" d="M84.1,231.1c-0.9,0-2-0.2-2.7-0.9c-0.9-0.9-0.9-1.9-0.9-3.3v-4h-1.8v-2.4h1.8v-2.9h2.8v2.9h2.9v2.4h-2.9v4.1
		c0,0.8,0.1,1.8,1.3,1.8c0.7,0,1.1-0.2,1.3-0.3l0.7,2C86.7,230.5,85.7,231.1,84.1,231.1z"/>
	<path class="st0" d="M97.4,226.6h-6.8c0,0.8,0.6,2.3,2.6,2.3c1.3,0,2.3-0.5,2.8-0.7l0.9,1.8c-0.1,0.1-1.6,1.1-3.9,1.1
		c-3.4,0-5.1-2.4-5.1-5.4c0-3.2,2-5.5,5-5.5c3,0,4.6,2.1,4.6,5.5C97.4,226.1,97.4,226.4,97.4,226.6z M92.8,222.3
		c-1.3,0-2.1,1-2.3,2.2h4.2C94.8,224,94.6,222.3,92.8,222.3z"/>
	<path class="st0" d="M106.3,230.8v-0.6c-0.1,0.1-1,0.9-2.8,0.9c-2.8,0-4.6-2.2-4.6-5.3c0-3.4,2.4-5.6,5-5.6c1.2,0,2,0.4,2.1,0.4v-5
		h2.8v15.2H106.3z M105.9,222.9c-0.1,0-0.8-0.4-1.6-0.4c-1.5,0-2.6,1.1-2.6,3.2c0,2,1.1,3.1,2.5,3.1c0.9,0,1.7-0.5,1.7-0.5V222.9z"
		/>
	<path class="st0" d="M112.9,230.9c-1,0-1.7-0.8-1.7-1.7s0.8-1.7,1.7-1.7s1.7,0.8,1.7,1.7S113.9,230.9,112.9,230.9z"/>
</g>
</svg>
