<?xml version="1.0" encoding="utf-8"?>
<!-- Generator: Adobe Illustrator 24.1.3, SVG Export Plug-In . SVG Version: 6.00 Build 0)  -->
<svg version="1.1" id="Layer_1" xmlns="http://www.w3.org/2000/svg" xmlns:xlink="http://www.w3.org/1999/xlink" x="0px" y="0px"
	 viewBox="0 0 160 600" style="enable-background:new 0 0 160 600;" xml:space="preserve">
<g>
	<path d="M67.6,326.4c-1.4,0.2-2.6,0.4-3.7,0.7c-0.4,0.7-0.7,1.3-1,1.9s-0.6,1.1-0.8,1.7c-0.2,0.3-0.3,0.5-0.5,0.5
		c-0.2,0.1-0.5,0-1-0.1c-0.2-0.1-0.5-0.2-0.8-0.3c-0.3-0.1-0.6-0.2-0.9-0.4c-0.2-0.1-0.4-0.3-0.6-0.3c-0.2-0.1-0.3-0.2-0.4-0.3
		c-0.1-0.1-0.1-0.3-0.2-0.5c0-0.2,0-0.5,0.2-0.9c0.5-1.2,1-2.6,1.8-4.2c0.7-1.6,1.5-3.3,2.3-5s1.7-3.4,2.6-5.1s1.7-3.1,2.5-4.4
		c0.3-0.5,0.6-0.8,1.1-1.1s1.1-0.4,2-0.3c0.8,0,1.5,0.1,2.1,0.2c0.6,0.1,1.2,0.2,1.7,0.3c0.5,0.1,1,0.2,1.4,0.3
		c0.4,0.1,0.9,0.2,1.3,0.3c0.6,0.2,1,0.4,1.1,0.8c0.2,0.3,0.2,0.7,0.2,1.2c-0.1,1.2-0.2,2.6-0.3,4.2c-0.1,1.6-0.1,3.2-0.2,5
		c0,1.7-0.1,3.5-0.1,5.2c0,1.7,0,3.3,0,4.8c0,0.3-0.1,0.5-0.2,0.6c-0.1,0.1-0.5,0.2-0.9,0.2c-0.5,0-0.9,0-1.4,0s-0.8-0.1-1.3-0.2
		c-0.5-0.1-0.8-0.3-0.9-0.5c-0.2-0.2-0.3-0.5-0.4-1c-0.1-0.5-0.1-1-0.2-1.6c-0.1-0.6-0.1-1.2-0.2-2C70.5,326,69,326.2,67.6,326.4z
		 M69,321.9c0.9-0.1,1.7-0.2,2.6-0.2c0-1.4-0.1-2.8-0.1-4.2c0-1.4,0-2.8,0-4.2c-0.8,1.3-1.6,2.7-2.4,4.2s-1.8,3.1-2.6,4.8
		C67.3,322.1,68.2,322,69,321.9z"/>
	<path d="M98.3,315.9c-0.5,1.6-1,3.3-1.6,5c-0.5,1.7-1,3.4-1.5,5.1c-0.5,1.7-0.9,3.2-1.3,4.7c0,0.2-0.1,0.4-0.2,0.5
		c-0.1,0.1-0.3,0.1-0.6,0.1c-0.2,0-0.5-0.1-0.9-0.1c-0.3-0.1-0.7-0.2-1.1-0.2c-0.8-0.2-1.4-0.5-1.8-0.8c-0.4-0.3-0.6-0.8-0.4-1.4
		c0.1-0.6,0.2-1.3,0.3-2.2c0.2-0.8,0.3-1.7,0.5-2.7c-0.8,0.1-1.6,0.2-2.3,0.3s-1.5,0.2-2.3,0.3c-0.3,1.2-0.5,2.3-0.7,3.4
		c-0.2,1-0.4,2-0.5,2.8c-0.1,0.3-0.2,0.5-0.4,0.6c-0.2,0.1-0.5,0.1-1,0c-0.5-0.1-1-0.2-1.5-0.4c-0.5-0.1-0.9-0.3-1.3-0.5
		c-0.4-0.2-0.7-0.4-0.9-0.7c-0.2-0.2-0.2-0.6-0.1-1c0.3-1.2,0.5-2.6,0.8-4.2c0.2-1.6,0.5-3.2,0.7-5c0.2-1.7,0.4-3.5,0.7-5.2
		c0.2-1.7,0.4-3.3,0.7-4.8c0.2-0.6,0.4-0.9,0.6-1c0.3-0.1,0.7-0.1,1.2,0.1c0.6,0.2,1.2,0.4,1.9,0.6c0.7,0.3,1.3,0.6,1.8,0.9
		c0.3,0.2,0.5,0.3,0.7,0.4c0.2,0.1,0.3,0.3,0.3,0.4c0.1,0.1,0.1,0.3,0.1,0.5c0,0.2-0.1,0.4-0.1,0.6c-0.3,1-0.6,2.1-0.9,3.5
		s-0.7,2.8-1.1,4.3c0.8-0.1,1.6-0.2,2.3-0.2s1.5-0.1,2.2-0.2c0.5-1.8,0.9-3.7,1.4-5.5c0.4-1.8,0.9-3.4,1.3-4.9
		c0.2-0.6,0.4-0.9,0.7-0.9c0.3-0.1,0.8,0,1.3,0.1c0.5,0.1,1.1,0.3,1.7,0.6c0.6,0.3,1.1,0.5,1.7,0.8c0.5,0.3,0.8,0.6,0.9,0.9
		s0.1,0.6-0.1,1C99.3,312.9,98.8,314.3,98.3,315.9z"/>
	<path d="M117.4,315.9c-0.5,1.6-1,3.3-1.6,5c-0.5,1.7-1,3.4-1.5,5.1c-0.5,1.7-0.9,3.2-1.3,4.7c0,0.2-0.1,0.4-0.2,0.5
		c-0.1,0.1-0.3,0.1-0.6,0.1c-0.2,0-0.5-0.1-0.9-0.1c-0.3-0.1-0.7-0.2-1.1-0.2c-0.8-0.2-1.4-0.5-1.8-0.8c-0.4-0.3-0.6-0.8-0.4-1.4
		c0.1-0.6,0.2-1.3,0.3-2.2c0.2-0.8,0.3-1.7,0.5-2.7c-0.8,0.1-1.6,0.2-2.3,0.3s-1.5,0.2-2.3,0.3c-0.3,1.2-0.5,2.3-0.7,3.4
		c-0.2,1-0.4,2-0.5,2.8c-0.1,0.3-0.2,0.5-0.4,0.6c-0.2,0.1-0.5,0.1-1,0c-0.5-0.1-1-0.2-1.5-0.4c-0.5-0.1-0.9-0.3-1.3-0.5
		c-0.4-0.2-0.7-0.4-0.9-0.7c-0.2-0.2-0.2-0.6-0.1-1c0.3-1.2,0.5-2.6,0.8-4.2c0.2-1.6,0.5-3.2,0.7-5c0.2-1.7,0.4-3.5,0.7-5.2
		c0.2-1.7,0.4-3.3,0.7-4.8c0.2-0.6,0.4-0.9,0.6-1c0.3-0.1,0.7-0.1,1.2,0.1c0.6,0.2,1.2,0.4,1.9,0.6c0.7,0.3,1.3,0.6,1.8,0.9
		c0.3,0.2,0.5,0.3,0.7,0.4c0.2,0.1,0.3,0.3,0.3,0.4c0.1,0.1,0.1,0.3,0.1,0.5c0,0.2-0.1,0.4-0.1,0.6c-0.3,1-0.6,2.1-0.9,3.5
		s-0.7,2.8-1.1,4.3c0.8-0.1,1.6-0.2,2.3-0.2s1.5-0.1,2.2-0.2c0.5-1.8,0.9-3.7,1.4-5.5c0.4-1.8,0.9-3.4,1.3-4.9
		c0.2-0.6,0.4-0.9,0.7-0.9c0.3-0.1,0.8,0,1.3,0.1c0.5,0.1,1.1,0.3,1.7,0.6c0.6,0.3,1.1,0.5,1.7,0.8c0.5,0.3,0.8,0.6,0.9,0.9
		s0.1,0.6-0.1,1C118.4,312.9,117.9,314.3,117.4,315.9z"/>
	<path d="M136.5,315.9c-0.5,1.6-1,3.3-1.6,5c-0.5,1.7-1,3.4-1.5,5.1c-0.5,1.7-0.9,3.2-1.3,4.7c0,0.2-0.1,0.4-0.2,0.5
		c-0.1,0.1-0.3,0.1-0.6,0.1c-0.2,0-0.5-0.1-0.9-0.1c-0.3-0.1-0.7-0.2-1.1-0.2c-0.8-0.2-1.4-0.5-1.8-0.8c-0.4-0.3-0.6-0.8-0.4-1.4
		c0.1-0.6,0.2-1.3,0.3-2.2c0.2-0.8,0.3-1.7,0.5-2.7c-0.8,0.1-1.6,0.2-2.3,0.3s-1.5,0.2-2.3,0.3c-0.3,1.2-0.5,2.3-0.7,3.4
		c-0.2,1-0.4,2-0.5,2.8c-0.1,0.3-0.2,0.5-0.4,0.6c-0.2,0.1-0.5,0.1-1,0c-0.5-0.1-1-0.2-1.5-0.4c-0.5-0.1-0.9-0.3-1.3-0.5
		c-0.4-0.2-0.7-0.4-0.9-0.7c-0.2-0.2-0.2-0.6-0.1-1c0.3-1.2,0.5-2.6,0.8-4.2c0.2-1.6,0.5-3.2,0.7-5c0.2-1.7,0.4-3.5,0.7-5.2
		c0.2-1.7,0.4-3.3,0.7-4.8c0.2-0.6,0.4-0.9,0.6-1c0.3-0.1,0.7-0.1,1.2,0.1c0.6,0.2,1.2,0.4,1.9,0.6c0.7,0.3,1.3,0.6,1.8,0.9
		c0.3,0.2,0.5,0.3,0.7,0.4c0.2,0.1,0.3,0.3,0.3,0.4c0.1,0.1,0.1,0.3,0.1,0.5c0,0.2-0.1,0.4-0.1,0.6c-0.3,1-0.6,2.1-0.9,3.5
		s-0.7,2.8-1.1,4.3c0.8-0.1,1.6-0.2,2.3-0.2s1.5-0.1,2.2-0.2c0.5-1.8,0.9-3.7,1.4-5.5c0.4-1.8,0.9-3.4,1.3-4.9
		c0.2-0.6,0.4-0.9,0.7-0.9c0.3-0.1,0.8,0,1.3,0.1c0.5,0.1,1.1,0.3,1.7,0.6c0.6,0.3,1.1,0.5,1.7,0.8c0.5,0.3,0.8,0.6,0.9,0.9
		s0.1,0.6-0.1,1C137.5,312.9,137,314.3,136.5,315.9z"/>
</g>
</svg>
