<?xml version="1.0" encoding="utf-8"?>
<!-- Generator: Adobe Illustrator 24.1.3, SVG Export Plug-In . SVG Version: 6.00 Build 0)  -->
<svg version="1.1" id="Layer_1" xmlns="http://www.w3.org/2000/svg" xmlns:xlink="http://www.w3.org/1999/xlink" x="0px" y="0px"
	 viewBox="0 0 160 600" style="enable-background:new 0 0 160 600;" xml:space="preserve">
<style type="text/css">
	.st0{fill:#349946;}
	.st1{fill:#231F20;}
</style>
<path class="st0" d="M15.9,585h-1.6l-0.5-1.5h-3.1l-0.5,1.5H8.5l2.8-7.3h1.1c0.4,0,0.6,0.1,0.7,0.4c0.1,0.3,1.4,3.5,1.4,3.5h-1.5
	l-0.9-2.5l-1.1,3.1h3.2c0.4,0,0.7,0.1,0.8,0.5L15.9,585z"/>
<path class="st0" d="M29.7,585h-1.6l-0.5-1.5h-3.1L24,585h-1.6l2.8-7.3h1.1c0.4,0,0.6,0.1,0.7,0.4c0.1,0.3,1.4,3.5,1.4,3.5h-1.5
	l-0.9-2.5l-1.1,3.1H28c0.4,0,0.7,0.1,0.8,0.5L29.7,585z"/>
<path class="st0" d="M16.4,577.7h2.9c2.2,0,3.3,1.2,3.3,3.7c0,1.4-0.4,2.4-1.2,3c-0.7,0.6-1.5,0.7-2.6,0.7h-2.5V577.7z M19,583.7
	c1.4,0,2-0.7,2-2.3c0-1.6-0.6-2.4-1.8-2.4h-1.4v4.7H19z"/>
<g>
	<path class="st1" d="M42.1,585h-1.2l-0.5-5.2l-1.8,5.2h-1l-1.8-5.2l-0.4,5.2h-1.1l0.7-6.9h1.3l1.9,5.3l1.8-5.3h1.3L42.1,585z"/>
	<path class="st1" d="M47.7,582.4c0,0.1,0,0.1,0,0.2c0,0.1,0,0.2,0,0.2h-3.4c0,0.4,0.1,0.7,0.3,0.9c0.3,0.3,0.6,0.5,1.1,0.5
		c0.4,0,0.9-0.1,1.4-0.4l0.4,0.7c-0.5,0.4-1.1,0.5-1.9,0.5c-0.8,0-1.4-0.3-1.8-0.8c-0.4-0.5-0.6-1.1-0.6-1.9c0-0.8,0.2-1.4,0.7-2
		c0.4-0.5,1-0.8,1.7-0.8c0.7,0,1.2,0.2,1.6,0.7C47.6,580.9,47.7,581.6,47.7,582.4z M46.7,581.9c0-0.3-0.1-0.6-0.2-0.8
		c-0.2-0.3-0.5-0.5-0.9-0.5c-0.4,0-0.6,0.1-0.9,0.4c-0.2,0.2-0.4,0.6-0.4,0.9H46.7z"/>
	<path class="st1" d="M56,585h-1.1v-2.9c0-0.6-0.1-1-0.2-1.1s-0.3-0.2-0.6-0.2c-0.4,0-0.7,0.1-1.1,0.4c0,0.1,0.1,0.5,0.1,1.2v2.7
		h-1.1v-2.8c0-0.7-0.1-1.1-0.2-1.2c-0.1-0.1-0.3-0.2-0.6-0.2c-0.4,0-0.7,0.1-1.1,0.4v3.9h-1.1v-5.1h1v0.4c0.5-0.3,1-0.5,1.5-0.5
		c0.5,0,0.9,0.2,1.2,0.6c0.6-0.4,1.1-0.6,1.7-0.6c0.5,0,1,0.2,1.3,0.5c0.2,0.2,0.4,0.6,0.5,0.9c0,0.2,0.1,0.7,0.1,1.3V585z"/>
	<path class="st1" d="M61.9,582.3c0,0.8-0.2,1.5-0.7,2c-0.5,0.5-1.1,0.8-1.9,0.8c-0.6,0-1.2-0.1-2-0.4v-7.3h1.1v2.7
		c0.4-0.3,0.8-0.4,1.3-0.4c0.6,0,1.2,0.2,1.6,0.7C61.7,580.9,61.9,581.5,61.9,582.3z M60.8,582.3c0-0.5-0.1-0.9-0.4-1.2
		c-0.2-0.3-0.5-0.4-0.9-0.4c-0.4,0-0.7,0.1-1.1,0.4v3c0.3,0.1,0.6,0.1,0.8,0.1c0.5,0,0.8-0.2,1.1-0.5
		C60.6,583.3,60.8,582.9,60.8,582.3z"/>
	<path class="st1" d="M67.4,582.4c0,0.1,0,0.1,0,0.2c0,0.1,0,0.2,0,0.2h-3.4c0,0.4,0.1,0.7,0.3,0.9c0.3,0.3,0.6,0.5,1.1,0.5
		c0.4,0,0.9-0.1,1.4-0.4l0.4,0.7c-0.5,0.4-1.1,0.5-1.9,0.5c-0.8,0-1.4-0.3-1.8-0.8c-0.4-0.5-0.6-1.1-0.6-1.9c0-0.8,0.2-1.4,0.7-2
		c0.4-0.5,1-0.8,1.7-0.8c0.7,0,1.2,0.2,1.6,0.7C67.2,580.9,67.4,581.6,67.4,582.4z M66.3,581.9c0-0.3-0.1-0.6-0.2-0.8
		c-0.2-0.3-0.5-0.5-0.9-0.5c-0.4,0-0.6,0.1-0.9,0.4c-0.2,0.2-0.4,0.6-0.4,0.9H66.3z"/>
	<path class="st1" d="M71.6,579.9l-0.3,0.9c-0.1,0-0.2,0-0.3,0c-0.6,0-1.1,0.3-1.5,0.8v3.5h-1.1v-5.1h1v0.6c0.1-0.1,0.2-0.3,0.5-0.4
		c0.4-0.2,0.8-0.4,1.2-0.4C71.3,579.8,71.5,579.8,71.6,579.9z"/>
</g>
<g>
	<path class="st1" d="M75.8,583.5c0,0.5-0.2,0.9-0.5,1.2c-0.4,0.3-0.8,0.4-1.4,0.4c-0.5,0-0.9-0.1-1.3-0.2c-0.3-0.1-0.4-0.2-0.5-0.3
		l0.4-0.7c0.5,0.3,0.9,0.4,1.3,0.4c0.3,0,0.5-0.1,0.7-0.2c0.2-0.1,0.2-0.3,0.2-0.4s-0.1-0.3-0.3-0.4c-0.1-0.1-0.4-0.2-0.8-0.4
		c-0.4-0.2-0.7-0.3-0.9-0.5c-0.3-0.3-0.5-0.6-0.5-1c0-0.5,0.2-0.8,0.5-1.1s0.8-0.4,1.4-0.4c0.7,0,1.3,0.2,1.6,0.5l-0.4,0.7
		c-0.4-0.2-0.8-0.3-1.2-0.3c-0.5,0-0.8,0.2-0.8,0.6c0,0.2,0.1,0.3,0.3,0.4c0.1,0.1,0.3,0.2,0.6,0.3c0.5,0.2,0.9,0.4,1,0.5
		C75.6,582.7,75.8,583.1,75.8,583.5z"/>
	<path class="st1" d="M80.8,585h-1.2V578h1.2V585z"/>
	<path class="st1" d="M86.5,585h-1.1v-2.8c0-0.7-0.1-1.1-0.2-1.2c-0.2-0.2-0.4-0.2-0.6-0.2c-0.4,0-0.7,0.1-1.1,0.4v3.9h-1.1v-5.1h1
		v0.4c0.5-0.3,1-0.5,1.5-0.5c0.5,0,1,0.2,1.3,0.5c0.2,0.2,0.4,0.5,0.5,0.9c0,0.2,0.1,0.6,0.1,1V585z"/>
	<path class="st1" d="M91.2,583.5c0,0.5-0.2,0.9-0.5,1.2c-0.4,0.3-0.8,0.4-1.4,0.4c-0.5,0-0.9-0.1-1.3-0.2c-0.3-0.1-0.4-0.2-0.5-0.3
		l0.4-0.7c0.5,0.3,0.9,0.4,1.3,0.4c0.3,0,0.5-0.1,0.7-0.2c0.2-0.1,0.2-0.3,0.2-0.4s-0.1-0.3-0.3-0.4c-0.1-0.1-0.4-0.2-0.8-0.4
		c-0.4-0.2-0.7-0.3-0.9-0.5c-0.3-0.3-0.5-0.6-0.5-1c0-0.5,0.2-0.8,0.5-1.1c0.3-0.3,0.8-0.4,1.4-0.4c0.7,0,1.3,0.2,1.6,0.5l-0.4,0.7
		c-0.4-0.2-0.8-0.3-1.2-0.3c-0.5,0-0.8,0.2-0.8,0.6c0,0.2,0.1,0.3,0.3,0.4c0.1,0.1,0.3,0.2,0.6,0.3c0.5,0.2,0.9,0.4,1,0.5
		C91,582.7,91.2,583.1,91.2,583.5z"/>
	<path class="st1" d="M96.6,585h-1v-0.4c-0.5,0.3-1,0.5-1.5,0.5c-0.5,0-1-0.2-1.3-0.5c-0.2-0.2-0.4-0.5-0.5-0.9c0-0.2-0.1-0.6-0.1-1
		v-2.8h1.1v2.8c0,0.3,0,0.6,0,0.7c0,0.3,0.1,0.5,0.3,0.6s0.3,0.2,0.6,0.2c0.3,0,0.7-0.1,1.1-0.4v-3.8h1.1V585z"/>
	<path class="st1" d="M101.1,579.9l-0.3,0.9c-0.1,0-0.2,0-0.3,0c-0.6,0-1.1,0.3-1.5,0.8v3.5h-1.1v-5.1h1v0.6
		c0.1-0.1,0.2-0.3,0.5-0.4c0.4-0.2,0.8-0.4,1.2-0.4C100.8,579.8,100.9,579.8,101.1,579.9z"/>
</g>
<g>
	<path class="st1" d="M105.6,585h-1v-0.4c-0.5,0.3-1,0.5-1.5,0.5c-0.5,0-0.9-0.1-1.2-0.4c-0.3-0.3-0.4-0.7-0.4-1.2
		c0-1.2,1-1.8,2.9-1.8h0.2v-0.2c0-0.3-0.1-0.5-0.2-0.6c-0.2-0.2-0.4-0.2-0.8-0.2c-0.4,0-0.9,0.1-1.4,0.4l-0.4-0.7
		c0.1-0.1,0.3-0.2,0.5-0.3c0.4-0.2,0.8-0.2,1.3-0.2c0.7,0,1.2,0.2,1.6,0.5c0.2,0.2,0.3,0.4,0.3,0.7c0,0.2,0.1,0.5,0.1,0.9V585z
		 M104.5,583.8v-1.3h-0.2c-0.8,0-1.3,0.1-1.6,0.4c-0.1,0.1-0.2,0.3-0.2,0.5c0,0.2,0.1,0.4,0.3,0.6c0.2,0.1,0.4,0.2,0.6,0.2
		C103.7,584.2,104.1,584.1,104.5,583.8z"/>
	<path class="st1" d="M111.1,585H110v-2.8c0-0.7-0.1-1.1-0.2-1.2c-0.2-0.2-0.4-0.2-0.6-0.2c-0.4,0-0.7,0.1-1.1,0.4v3.9h-1.1v-5.1h1
		v0.4c0.5-0.3,1-0.5,1.5-0.5c0.5,0,1,0.2,1.3,0.5c0.2,0.2,0.4,0.5,0.5,0.9c0,0.2,0.1,0.6,0.1,1V585z"/>
	<path class="st1" d="M116.5,584.5c-0.1,0.1-0.2,0.2-0.5,0.3c-0.4,0.2-0.9,0.3-1.3,0.3c-0.8,0-1.4-0.2-1.8-0.7s-0.7-1.1-0.7-1.9
		c0-0.8,0.2-1.5,0.7-2c0.5-0.5,1.1-0.8,1.9-0.8c0.4,0,0.8,0.1,1.2,0.3c0.2,0.1,0.4,0.2,0.5,0.3l-0.5,0.7c-0.4-0.2-0.7-0.4-1.1-0.4
		c-0.5,0-0.9,0.2-1.2,0.5c-0.3,0.3-0.4,0.7-0.4,1.2c0,0.5,0.1,0.9,0.4,1.2c0.3,0.3,0.6,0.5,1.1,0.5c0.4,0,0.8-0.1,1.3-0.4
		L116.5,584.5z"/>
</g>
<g>
	<path class="st1" d="M121.6,582.4c0,0.1,0,0.1,0,0.2c0,0.1,0,0.2,0,0.2h-3.4c0,0.4,0.1,0.7,0.3,0.9c0.3,0.3,0.6,0.5,1.1,0.5
		c0.4,0,0.9-0.1,1.4-0.4l0.4,0.7c-0.5,0.4-1.1,0.5-1.9,0.5c-0.8,0-1.4-0.3-1.8-0.8c-0.4-0.5-0.6-1.1-0.6-1.9c0-0.8,0.2-1.4,0.7-2
		c0.4-0.5,1-0.8,1.7-0.8c0.7,0,1.2,0.2,1.6,0.7C121.4,580.9,121.6,581.6,121.6,582.4z M120.5,581.9c0-0.3-0.1-0.6-0.2-0.8
		c-0.2-0.3-0.5-0.5-0.9-0.5c-0.4,0-0.6,0.1-0.9,0.4s-0.4,0.6-0.4,0.9H120.5z"/>
	<path class="st1" d="M129.9,580.1c0,0.6-0.2,1.2-0.6,1.5c-0.3,0.3-0.6,0.5-1.1,0.6c-0.3,0.1-0.7,0.1-1.3,0.1h-0.5v2.6h-1.2V578h1.8
		c0.6,0,1,0,1.3,0.1c0.4,0.1,0.7,0.2,1,0.5C129.8,579,129.9,579.5,129.9,580.1z M128.7,580.1c0-0.4-0.1-0.7-0.3-0.9
		c-0.2-0.2-0.6-0.3-1.3-0.3h-0.7v2.4h0.5c0.8,0,1.2-0.1,1.4-0.3S128.7,580.5,128.7,580.1z"/>
	<path class="st1" d="M132.3,585h-1.1v-7.5h1.1V585z"/>
	<path class="st1" d="M137.5,585h-1v-0.4c-0.5,0.3-1,0.5-1.5,0.5c-0.5,0-0.9-0.1-1.2-0.4c-0.3-0.3-0.4-0.7-0.4-1.2
		c0-1.2,1-1.8,2.9-1.8h0.2v-0.2c0-0.3-0.1-0.5-0.2-0.6c-0.2-0.2-0.4-0.2-0.8-0.2c-0.4,0-0.9,0.1-1.4,0.4l-0.4-0.7
		c0.1-0.1,0.3-0.2,0.5-0.3c0.4-0.2,0.8-0.2,1.3-0.2c0.7,0,1.2,0.2,1.6,0.5c0.2,0.2,0.3,0.4,0.3,0.7c0,0.2,0.1,0.5,0.1,0.9V585z
		 M136.4,583.8v-1.3h-0.2c-0.8,0-1.3,0.1-1.6,0.4c-0.1,0.1-0.2,0.3-0.2,0.5c0,0.2,0.1,0.4,0.3,0.6c0.2,0.1,0.4,0.2,0.6,0.2
		C135.6,584.2,136,584.1,136.4,583.8z"/>
	<path class="st1" d="M143,585h-1.1v-2.8c0-0.7-0.1-1.1-0.2-1.2c-0.2-0.2-0.4-0.2-0.6-0.2c-0.4,0-0.7,0.1-1.1,0.4v3.9h-1.1v-5.1h1
		v0.4c0.5-0.3,1-0.5,1.5-0.5c0.5,0,1,0.2,1.3,0.5c0.2,0.2,0.4,0.5,0.5,0.9c0,0.2,0.1,0.6,0.1,1V585z"/>
	<path class="st1" d="M147.7,583.5c0,0.5-0.2,0.9-0.5,1.2c-0.4,0.3-0.8,0.4-1.4,0.4c-0.5,0-0.9-0.1-1.3-0.2
		c-0.3-0.1-0.4-0.2-0.5-0.3l0.4-0.7c0.5,0.3,0.9,0.4,1.3,0.4c0.3,0,0.5-0.1,0.7-0.2c0.2-0.1,0.2-0.3,0.2-0.4s-0.1-0.3-0.3-0.4
		c-0.1-0.1-0.4-0.2-0.8-0.4c-0.4-0.2-0.7-0.3-0.9-0.5c-0.3-0.3-0.5-0.6-0.5-1c0-0.5,0.2-0.8,0.5-1.1c0.3-0.3,0.8-0.4,1.4-0.4
		c0.7,0,1.3,0.2,1.6,0.5l-0.4,0.7c-0.4-0.2-0.8-0.3-1.2-0.3c-0.5,0-0.8,0.2-0.8,0.6c0,0.2,0.1,0.3,0.3,0.4c0.1,0.1,0.3,0.2,0.6,0.3
		c0.5,0.2,0.9,0.4,1,0.5C147.5,582.7,147.7,583.1,147.7,583.5z"/>
</g>
<path class="st0" d="M15.9,19.7h-1.6l-0.5-1.5h-3.1l-0.5,1.5H8.5l2.8-7.3h1.1c0.4,0,0.6,0.1,0.7,0.4c0.1,0.3,1.4,3.5,1.4,3.5h-1.5
	l-0.9-2.5L11.1,17h3.2c0.4,0,0.7,0.1,0.8,0.5L15.9,19.7z"/>
<path class="st0" d="M29.7,19.7h-1.6l-0.5-1.5h-3.1L24,19.7h-1.6l2.8-7.3h1.1c0.4,0,0.6,0.1,0.7,0.4c0.1,0.3,1.4,3.5,1.4,3.5h-1.5
	L26,13.9L24.9,17H28c0.4,0,0.7,0.1,0.8,0.5L29.7,19.7z"/>
<path class="st0" d="M16.4,12.4h2.9c2.2,0,3.3,1.2,3.3,3.7c0,1.4-0.4,2.4-1.2,3c-0.7,0.6-1.5,0.7-2.6,0.7h-2.5V12.4z M19,18.4
	c1.4,0,2-0.7,2-2.3c0-1.6-0.6-2.4-1.8-2.4h-1.4v4.7H19z"/>
<g>
	<path class="st1" d="M42.1,19.6h-1.2l-0.5-5.2l-1.8,5.2h-1l-1.8-5.2l-0.4,5.2h-1.1l0.7-6.9h1.3l1.9,5.3l1.8-5.3h1.3L42.1,19.6z"/>
	<path class="st1" d="M47.7,17.1c0,0.1,0,0.1,0,0.2s0,0.2,0,0.2h-3.4c0,0.4,0.1,0.7,0.3,0.9c0.3,0.3,0.6,0.5,1.1,0.5
		c0.4,0,0.9-0.1,1.4-0.4l0.4,0.7c-0.5,0.4-1.1,0.5-1.9,0.5c-0.8,0-1.4-0.3-1.8-0.8c-0.4-0.5-0.6-1.1-0.6-1.9c0-0.8,0.2-1.4,0.7-2
		c0.4-0.5,1-0.8,1.7-0.8c0.7,0,1.2,0.2,1.6,0.7C47.6,15.6,47.7,16.2,47.7,17.1z M46.7,16.6c0-0.3-0.1-0.6-0.2-0.8
		c-0.2-0.3-0.5-0.5-0.9-0.5c-0.4,0-0.6,0.1-0.9,0.4c-0.2,0.2-0.4,0.6-0.4,0.9H46.7z"/>
	<path class="st1" d="M56,19.6h-1.1v-2.9c0-0.6-0.1-1-0.2-1.1s-0.3-0.2-0.6-0.2c-0.4,0-0.7,0.1-1.1,0.4c0,0.1,0.1,0.5,0.1,1.2v2.7
		h-1.1v-2.8c0-0.7-0.1-1.1-0.2-1.2c-0.1-0.1-0.3-0.2-0.6-0.2c-0.4,0-0.7,0.1-1.1,0.4v3.9h-1.1v-5.1h1V15c0.5-0.3,1-0.5,1.5-0.5
		c0.5,0,0.9,0.2,1.2,0.6c0.6-0.4,1.1-0.6,1.7-0.6c0.5,0,1,0.2,1.3,0.5c0.2,0.2,0.4,0.6,0.5,0.9c0,0.2,0.1,0.7,0.1,1.3V19.6z"/>
	<path class="st1" d="M61.9,17c0,0.8-0.2,1.5-0.7,2c-0.5,0.5-1.1,0.8-1.9,0.8c-0.6,0-1.2-0.1-2-0.4v-7.3h1.1v2.7
		c0.4-0.3,0.8-0.4,1.3-0.4c0.6,0,1.2,0.2,1.6,0.7C61.7,15.6,61.9,16.2,61.9,17z M60.8,17c0-0.5-0.1-0.9-0.4-1.2
		c-0.2-0.3-0.5-0.4-0.9-0.4c-0.4,0-0.7,0.1-1.1,0.4v3c0.3,0.1,0.6,0.1,0.8,0.1c0.5,0,0.8-0.2,1.1-0.5C60.6,18,60.8,17.6,60.8,17z"/>
	<path class="st1" d="M67.4,17.1c0,0.1,0,0.1,0,0.2s0,0.2,0,0.2h-3.4c0,0.4,0.1,0.7,0.3,0.9c0.3,0.3,0.6,0.5,1.1,0.5
		c0.4,0,0.9-0.1,1.4-0.4l0.4,0.7c-0.5,0.4-1.1,0.5-1.9,0.5c-0.8,0-1.4-0.3-1.8-0.8c-0.4-0.5-0.6-1.1-0.6-1.9c0-0.8,0.2-1.4,0.7-2
		c0.4-0.5,1-0.8,1.7-0.8c0.7,0,1.2,0.2,1.6,0.7C67.2,15.6,67.4,16.2,67.4,17.1z M66.3,16.6c0-0.3-0.1-0.6-0.2-0.8
		c-0.2-0.3-0.5-0.5-0.9-0.5c-0.4,0-0.6,0.1-0.9,0.4c-0.2,0.2-0.4,0.6-0.4,0.9H66.3z"/>
	<path class="st1" d="M71.6,14.6l-0.3,0.9c-0.1,0-0.2,0-0.3,0c-0.6,0-1.1,0.3-1.5,0.8v3.5h-1.1v-5.1h1v0.6c0.1-0.1,0.2-0.3,0.5-0.4
		c0.4-0.2,0.8-0.4,1.2-0.4C71.3,14.4,71.5,14.5,71.6,14.6z"/>
</g>
<g>
	<path class="st1" d="M75.8,18.2c0,0.5-0.2,0.9-0.5,1.2c-0.4,0.3-0.8,0.4-1.4,0.4c-0.5,0-0.9-0.1-1.3-0.2c-0.3-0.1-0.4-0.2-0.5-0.3
		l0.4-0.7c0.5,0.3,0.9,0.4,1.3,0.4c0.3,0,0.5-0.1,0.7-0.2c0.2-0.1,0.2-0.3,0.2-0.4c0-0.2-0.1-0.3-0.3-0.4c-0.1-0.1-0.4-0.2-0.8-0.4
		c-0.4-0.2-0.7-0.3-0.9-0.5c-0.3-0.3-0.5-0.6-0.5-1c0-0.5,0.2-0.8,0.5-1.1s0.8-0.4,1.4-0.4c0.7,0,1.3,0.2,1.6,0.5l-0.4,0.7
		c-0.4-0.2-0.8-0.3-1.2-0.3c-0.5,0-0.8,0.2-0.8,0.6c0,0.2,0.1,0.3,0.3,0.4c0.1,0.1,0.3,0.2,0.6,0.3c0.5,0.2,0.9,0.4,1,0.5
		C75.6,17.4,75.8,17.8,75.8,18.2z"/>
	<path class="st1" d="M80.8,19.6h-1.2v-6.9h1.2V19.6z"/>
	<path class="st1" d="M86.5,19.6h-1.1v-2.8c0-0.7-0.1-1.1-0.2-1.2c-0.2-0.2-0.4-0.2-0.6-0.2c-0.4,0-0.7,0.1-1.1,0.4v3.9h-1.1v-5.1h1
		V15c0.5-0.3,1-0.5,1.5-0.5c0.5,0,1,0.2,1.3,0.5c0.2,0.2,0.4,0.5,0.5,0.9c0,0.2,0.1,0.6,0.1,1V19.6z"/>
	<path class="st1" d="M91.2,18.2c0,0.5-0.2,0.9-0.5,1.2c-0.4,0.3-0.8,0.4-1.4,0.4c-0.5,0-0.9-0.1-1.3-0.2c-0.3-0.1-0.4-0.2-0.5-0.3
		l0.4-0.7c0.5,0.3,0.9,0.4,1.3,0.4c0.3,0,0.5-0.1,0.7-0.2c0.2-0.1,0.2-0.3,0.2-0.4c0-0.2-0.1-0.3-0.3-0.4c-0.1-0.1-0.4-0.2-0.8-0.4
		c-0.4-0.2-0.7-0.3-0.9-0.5c-0.3-0.3-0.5-0.6-0.5-1c0-0.5,0.2-0.8,0.5-1.1c0.3-0.3,0.8-0.4,1.4-0.4c0.7,0,1.3,0.2,1.6,0.5l-0.4,0.7
		c-0.4-0.2-0.8-0.3-1.2-0.3c-0.5,0-0.8,0.2-0.8,0.6c0,0.2,0.1,0.3,0.3,0.4c0.1,0.1,0.3,0.2,0.6,0.3c0.5,0.2,0.9,0.4,1,0.5
		C91,17.4,91.2,17.8,91.2,18.2z"/>
	<path class="st1" d="M96.6,19.6h-1v-0.4c-0.5,0.3-1,0.5-1.5,0.5c-0.5,0-1-0.2-1.3-0.5c-0.2-0.2-0.4-0.5-0.5-0.9
		c0-0.2-0.1-0.6-0.1-1v-2.8h1.1v2.8c0,0.3,0,0.6,0,0.7c0,0.3,0.1,0.5,0.3,0.6s0.3,0.2,0.6,0.2c0.3,0,0.7-0.1,1.1-0.4v-3.8h1.1V19.6z
		"/>
	<path class="st1" d="M101.1,14.6l-0.3,0.9c-0.1,0-0.2,0-0.3,0c-0.6,0-1.1,0.3-1.5,0.8v3.5h-1.1v-5.1h1v0.6c0.1-0.1,0.2-0.3,0.5-0.4
		c0.4-0.2,0.8-0.4,1.2-0.4C100.8,14.4,100.9,14.5,101.1,14.6z"/>
</g>
<g>
	<path class="st1" d="M105.6,19.6h-1v-0.4c-0.5,0.3-1,0.5-1.5,0.5c-0.5,0-0.9-0.1-1.2-0.4c-0.3-0.3-0.4-0.7-0.4-1.2
		c0-1.2,1-1.8,2.9-1.8h0.2v-0.2c0-0.3-0.1-0.5-0.2-0.6c-0.2-0.2-0.4-0.2-0.8-0.2c-0.4,0-0.9,0.1-1.4,0.4l-0.4-0.7
		c0.1-0.1,0.3-0.2,0.5-0.3c0.4-0.2,0.8-0.2,1.3-0.2c0.7,0,1.2,0.2,1.6,0.5c0.2,0.2,0.3,0.4,0.3,0.7c0,0.2,0.1,0.5,0.1,0.9V19.6z
		 M104.5,18.5v-1.3h-0.2c-0.8,0-1.3,0.1-1.6,0.4c-0.1,0.1-0.2,0.3-0.2,0.5c0,0.2,0.1,0.4,0.3,0.6c0.2,0.1,0.4,0.2,0.6,0.2
		C103.7,18.9,104.1,18.8,104.5,18.5z"/>
	<path class="st1" d="M111.1,19.6H110v-2.8c0-0.7-0.1-1.1-0.2-1.2c-0.2-0.2-0.4-0.2-0.6-0.2c-0.4,0-0.7,0.1-1.1,0.4v3.9h-1.1v-5.1h1
		V15c0.5-0.3,1-0.5,1.5-0.5c0.5,0,1,0.2,1.3,0.5c0.2,0.2,0.4,0.5,0.5,0.9c0,0.2,0.1,0.6,0.1,1V19.6z"/>
	<path class="st1" d="M116.5,19.2c-0.1,0.1-0.2,0.2-0.5,0.3c-0.4,0.2-0.9,0.3-1.3,0.3c-0.8,0-1.4-0.2-1.8-0.7
		c-0.5-0.5-0.7-1.1-0.7-1.9c0-0.8,0.2-1.5,0.7-2c0.5-0.5,1.1-0.8,1.9-0.8c0.4,0,0.8,0.1,1.2,0.3c0.2,0.1,0.4,0.2,0.5,0.3l-0.5,0.7
		c-0.4-0.2-0.7-0.4-1.1-0.4c-0.5,0-0.9,0.2-1.2,0.5c-0.3,0.3-0.4,0.7-0.4,1.2c0,0.5,0.1,0.9,0.4,1.2c0.3,0.3,0.6,0.5,1.1,0.5
		c0.4,0,0.8-0.1,1.3-0.4L116.5,19.2z"/>
</g>
<g>
	<path class="st1" d="M121.6,17.1c0,0.1,0,0.1,0,0.2s0,0.2,0,0.2h-3.4c0,0.4,0.1,0.7,0.3,0.9c0.3,0.3,0.6,0.5,1.1,0.5
		c0.4,0,0.9-0.1,1.4-0.4l0.4,0.7c-0.5,0.4-1.1,0.5-1.9,0.5c-0.8,0-1.4-0.3-1.8-0.8c-0.4-0.5-0.6-1.1-0.6-1.9c0-0.8,0.2-1.4,0.7-2
		c0.4-0.5,1-0.8,1.7-0.8c0.7,0,1.2,0.2,1.6,0.7C121.4,15.6,121.6,16.2,121.6,17.1z M120.5,16.6c0-0.3-0.1-0.6-0.2-0.8
		c-0.2-0.3-0.5-0.5-0.9-0.5c-0.4,0-0.6,0.1-0.9,0.4c-0.2,0.2-0.4,0.6-0.4,0.9H120.5z"/>
	<path class="st1" d="M129.9,14.8c0,0.6-0.2,1.2-0.6,1.5c-0.3,0.3-0.6,0.5-1.1,0.6C128,17,127.6,17,127,17h-0.5v2.6h-1.2v-6.9h1.8
		c0.6,0,1,0,1.3,0.1c0.4,0.1,0.7,0.2,1,0.5C129.8,13.7,129.9,14.2,129.9,14.8z M128.7,14.8c0-0.4-0.1-0.7-0.3-0.9
		c-0.2-0.2-0.6-0.3-1.3-0.3h-0.7V16h0.5c0.8,0,1.2-0.1,1.4-0.3S128.7,15.2,128.7,14.8z"/>
	<path class="st1" d="M132.3,19.6h-1.1v-7.5h1.1V19.6z"/>
	<path class="st1" d="M137.5,19.6h-1v-0.4c-0.5,0.3-1,0.5-1.5,0.5c-0.5,0-0.9-0.1-1.2-0.4c-0.3-0.3-0.4-0.7-0.4-1.2
		c0-1.2,1-1.8,2.9-1.8h0.2v-0.2c0-0.3-0.1-0.5-0.2-0.6c-0.2-0.2-0.4-0.2-0.8-0.2c-0.4,0-0.9,0.1-1.4,0.4l-0.4-0.7
		c0.1-0.1,0.3-0.2,0.5-0.3c0.4-0.2,0.8-0.2,1.3-0.2c0.7,0,1.2,0.2,1.6,0.5c0.2,0.2,0.3,0.4,0.3,0.7c0,0.2,0.1,0.5,0.1,0.9V19.6z
		 M136.4,18.5v-1.3h-0.2c-0.8,0-1.3,0.1-1.6,0.4c-0.1,0.1-0.2,0.3-0.2,0.5c0,0.2,0.1,0.4,0.3,0.6c0.2,0.1,0.4,0.2,0.6,0.2
		C135.6,18.9,136,18.8,136.4,18.5z"/>
	<path class="st1" d="M143,19.6h-1.1v-2.8c0-0.7-0.1-1.1-0.2-1.2c-0.2-0.2-0.4-0.2-0.6-0.2c-0.4,0-0.7,0.1-1.1,0.4v3.9h-1.1v-5.1h1
		V15c0.5-0.3,1-0.5,1.5-0.5c0.5,0,1,0.2,1.3,0.5c0.2,0.2,0.4,0.5,0.5,0.9c0,0.2,0.1,0.6,0.1,1V19.6z"/>
	<path class="st1" d="M147.7,18.2c0,0.5-0.2,0.9-0.5,1.2c-0.4,0.3-0.8,0.4-1.4,0.4c-0.5,0-0.9-0.1-1.3-0.2c-0.3-0.1-0.4-0.2-0.5-0.3
		l0.4-0.7c0.5,0.3,0.9,0.4,1.3,0.4c0.3,0,0.5-0.1,0.7-0.2c0.2-0.1,0.2-0.3,0.2-0.4c0-0.2-0.1-0.3-0.3-0.4c-0.1-0.1-0.4-0.2-0.8-0.4
		c-0.4-0.2-0.7-0.3-0.9-0.5c-0.3-0.3-0.5-0.6-0.5-1c0-0.5,0.2-0.8,0.5-1.1c0.3-0.3,0.8-0.4,1.4-0.4c0.7,0,1.3,0.2,1.6,0.5l-0.4,0.7
		c-0.4-0.2-0.8-0.3-1.2-0.3c-0.5,0-0.8,0.2-0.8,0.6c0,0.2,0.1,0.3,0.3,0.4c0.1,0.1,0.3,0.2,0.6,0.3c0.5,0.2,0.9,0.4,1,0.5
		C147.5,17.4,147.7,17.8,147.7,18.2z"/>
</g>
</svg>
