<?xml version="1.0" encoding="utf-8"?>
<!-- Generator: Adobe Illustrator 23.0.6, SVG Export Plug-In . SVG Version: 6.00 Build 0)  -->
<svg version="1.1" id="Layer_1" xmlns="http://www.w3.org/2000/svg" xmlns:xlink="http://www.w3.org/1999/xlink" x="0px" y="0px"
	 viewBox="0 0 300 250" style="enable-background:new 0 0 300 250;" xml:space="preserve">
<style type="text/css">
	.st0{fill:#FFFFFF;}
	.st1{fill:none;stroke:#000000;stroke-width:5.695;}
	.st2{clip-path:url(#SVGID_2_);}
</style>
<path class="st0" d="M64.28,198.43c15.29,0,27.68-12.39,27.68-27.68c0-15.29-12.39-27.68-27.68-27.68S36.6,155.47,36.6,170.75
	C36.6,186.04,48.99,198.43,64.28,198.43"/>
<path class="st1" d="M64.28,198.43c15.29,0,27.68-12.39,27.68-27.68c0-15.29-12.39-27.68-27.68-27.68S36.6,155.47,36.6,170.75
	C36.6,186.04,48.99,198.43,64.28,198.43z"/>
<g>
	<defs>
		<rect id="SVGID_1_" x="49.18" y="167.29" width="30.19" height="11.61"/>
	</defs>
	<clipPath id="SVGID_2_">
		<use xlink:href="#SVGID_1_"  style="overflow:visible;"/>
	</clipPath>
	<path class="st2" d="M76.84,168.99H51.71c-1.4,0-2.53,1.13-2.53,2.53c0,1.4,1.13,2.53,2.53,2.53h25.13c1.4,0,2.53-1.13,2.53-2.53
		C79.37,170.12,78.24,168.99,76.84,168.99"/>
</g>
</svg>
