<?xml version="1.0" encoding="utf-8"?>
<!-- Generator: Adobe Illustrator 24.1.0, SVG Export Plug-In . SVG Version: 6.00 Build 0)  -->
<svg version="1.1" id="Layer_1" xmlns="http://www.w3.org/2000/svg" xmlns:xlink="http://www.w3.org/1999/xlink" x="0px" y="0px"
	 viewBox="0 0 300 250" style="enable-background:new 0 0 300 250;" xml:space="preserve">
<style type="text/css">
	.st0{fill:#0D4C87;}
</style>
<g>
	<path class="st0" d="M69.8,134.3v3.3h4.7v3.4h-4.7v6.6h-4V131h9.6v3.3H69.8z"/>
	<path class="st0" d="M78.9,134.2c-0.7,0-2.1-1.4-2.1-2.1c0-0.7,1.4-2,2.1-2c0.7,0,2.1,1.4,2.1,2C81,132.8,79.6,134.2,78.9,134.2z
		 M77,147.6v-11.8h3.8v11.8H77z"/>
	<path class="st0" d="M90.7,147.6v-7.2c0-0.9-0.6-1.6-1.7-1.6c-1.1,0-1.9,0.7-1.9,1.7v7.2h-3.8v-11.8h3.5v1.6h0c0.5-1.2,1.7-2,3.6-2
		c2.6,0,4.1,1.5,4.1,4v8.2H90.7z"/>
	<path class="st0" d="M105.8,147.6v-1.5h0c-0.6,1.2-2,1.8-3.6,1.8c-2.9,0-5.7-2.2-5.7-6.2c0-3.8,2.7-6.3,6-6.3c1.2,0,2.5,0.4,3,0.8
		v-7.2h3.7v18.5H105.8z M105.4,139.9c-0.4-0.5-1.1-1.1-2.3-1.1c-1.7,0-2.8,1.3-2.8,3c0,1.7,1.2,3,2.8,3c1.1,0,1.9-0.6,2.3-1.2V139.9
		z"/>
	<path class="st0" d="M123.3,148c-3.6,0-6.4-2.5-6.4-6.3s2.9-6.3,6.4-6.3c3.5,0,6.4,2.5,6.4,6.3S126.9,148,123.3,148z M123.3,138.8
		c-1.4,0-2.7,1.2-2.7,3c0,1.7,1.2,3,2.7,3c1.4,0,2.7-1.2,2.7-3C126,140,124.7,138.8,123.3,138.8z"/>
	<path class="st0" d="M139.4,147.6V146h0c-0.5,1.2-1.7,2-3.6,2c-2.6,0-4.1-1.4-4.1-3.9v-8.2h3.8v7.2c0,0.9,0.6,1.6,1.8,1.6
		c1.1,0,1.8-0.8,1.8-1.7v-7.2h3.8v11.8H139.4z"/>
	<path class="st0" d="M153.2,138.9h-3.1v4.4c0,1,0.5,1.4,1.6,1.4c0.4,0,0.7,0,1-0.2l-0.3,2.9c-0.4,0.2-1,0.3-1.8,0.3
		c-2.7,0-4.2-1.4-4.2-3.7v-5.1h-2v-3.1h2v-2.5l3.8-1.4v3.9h3.8L153.2,138.9z"/>
	<path class="st0" d="M168.6,147.6v-7.2c0-0.9-0.6-1.6-1.8-1.6c-1.1,0-1.8,0.7-1.8,1.7v7.2h-3.8v-18.5h3.8v7.8h0
		c0.6-0.9,1.7-1.5,3.3-1.5c2.6,0,4.1,1.5,4.1,4v8.2H168.6z"/>
	<path class="st0" d="M180.7,148c-3.6,0-6.4-2.5-6.4-6.3s2.9-6.3,6.4-6.3c3.5,0,6.4,2.5,6.4,6.3S184.2,148,180.7,148z M180.7,138.8
		c-1.4,0-2.7,1.2-2.7,3c0,1.7,1.2,3,2.7,3c1.4,0,2.7-1.2,2.7-3C183.3,140,182.1,138.8,180.7,138.8z"/>
	<path class="st0" d="M201.3,147.7h-2.6l-1.6-4.7c-0.2-0.7-0.5-1.6-0.7-2.4h-0.1c-0.2,0.9-0.4,1.7-0.7,2.4l-1.6,4.7h-2.5l-4.1-11.9
		h3.5l1.5,4.5c0.2,0.7,0.4,1.5,0.6,2.3h0.1c0.1-0.7,0.3-1.6,0.6-2.3l1.5-4.5h2.9l1.5,4.4c0.2,0.7,0.4,1.5,0.5,2.3h0.1
		c0.2-0.8,0.4-1.6,0.6-2.3l1.5-4.4h3.2L201.3,147.7z"/>
	<path class="st0" d="M220.6,138.9h-3.1v4.4c0,1,0.5,1.4,1.6,1.4c0.4,0,0.7,0,1-0.2l-0.3,2.9c-0.4,0.2-1,0.3-1.8,0.3
		c-2.7,0-4.2-1.4-4.2-3.7v-5.1h-2v-3.1h2v-2.5l3.8-1.4v3.9h3.8L220.6,138.9z"/>
	<path class="st0" d="M228.3,148c-3.6,0-6.4-2.5-6.4-6.3s2.9-6.3,6.4-6.3c3.5,0,6.4,2.5,6.4,6.3S231.8,148,228.3,148z M228.3,138.8
		c-1.4,0-2.7,1.2-2.7,3c0,1.7,1.2,3,2.7,3c1.4,0,2.7-1.2,2.7-3C230.9,140,229.7,138.8,228.3,138.8z"/>
</g>
<g>
	<path class="st0" d="M99.1,173.6v-7.2c0-0.9-0.4-1.6-1.7-1.6c-1.2,0-1.8,0.7-1.8,1.7v7.2h-3.8v-7.2c0-0.9-0.4-1.6-1.7-1.6
		c-1.2,0-1.8,0.7-1.8,1.7v7.2h-3.8v-11.8h3.5v1.6h0c0.5-1.2,1.6-2,3.5-2c1.7,0,3,0.7,3.5,1.9c0.5-1.1,1.9-1.9,3.6-1.9
		c2.7,0,4.2,1.5,4.2,4v8.2H99.1z"/>
	<path class="st0" d="M113.6,174.1c-0.7-0.2-1.5-0.7-1.8-1.6c-0.5,1-1.6,1.4-3.1,1.4c-2.1,0-3.9-1.5-3.9-3.9c0-2.2,1.7-3.6,4-3.8
		l2.3-0.2v-0.4c0-0.7-0.6-1.2-1.8-1.2c-1.1,0-2.4,0.4-3.3,0.9l-0.7-2.9c1-0.6,2.6-1,4.1-1c3.1,0,5.3,1.4,5.3,4.3v3.8
		c0,1.4,0.5,2.1,1.4,2.4L113.6,174.1z M111.2,168.5l-1.4,0.1c-1,0.1-1.4,0.8-1.4,1.5c0,0.6,0.5,1.1,1.2,1.1c0.9,0,1.7-0.7,1.7-1.7
		V168.5z"/>
	<path class="st0" d="M124.9,173.6l-3.5-4.8h0v4.8h-3.8v-18.5h3.8v11.5h0l3.5-4.8h4.2l-4.1,5.7l4.4,6.1H124.9z"/>
	<path class="st0" d="M140.8,167l-1.7,1.7h-5.8c0.2,1,1.5,2.1,3.5,2.1c1.2,0,2.5-0.4,3.2-0.9l-0.4,3.3c-0.9,0.5-2.2,0.8-3.7,0.8
		c-3.6,0-6.5-2.5-6.5-6.3c0-3.8,2.8-6.2,6.1-6.2c3.3,0,5.3,2.3,5.3,4.7C140.9,166.4,140.9,166.8,140.8,167z M135.6,164.3
		c-1.1,0-2.1,0.9-2.3,1.9h4c0-0.1,0-0.2,0-0.3C137.3,165.1,136.6,164.3,135.6,164.3z"/>
	<path class="st0" d="M150.6,160.2c-0.7,0-2.1-1.4-2.1-2.1c0-0.7,1.4-2,2.1-2c0.7,0,2.1,1.4,2.1,2
		C152.7,158.8,151.3,160.2,150.6,160.2z M148.7,173.6v-11.8h3.8v11.8H148.7z"/>
	<path class="st0" d="M162.9,164.9h-3.1v4.4c0,1,0.5,1.4,1.6,1.4c0.4,0,0.7,0,1-0.2l-0.3,2.9c-0.4,0.2-1,0.3-1.8,0.3
		c-2.7,0-4.2-1.4-4.2-3.7v-5.1h-2v-3.1h2v-2.5l3.8-1.4v3.9h3.8L162.9,164.9z"/>
	<path class="st0" d="M178.1,165.9c-0.2-0.1-0.8-0.3-1.1-0.3c-1.2,0-2.3,0.6-2.3,2.5v5.5h-3.8v-11.8h3.8v2.6h0
		c0.4-1.8,1.8-2.8,3.4-2.8c0.4,0,0.8,0.1,1.1,0.2L178.1,165.9z"/>
	<path class="st0" d="M190.8,167l-1.7,1.7h-5.8c0.2,1,1.5,2.1,3.5,2.1c1.2,0,2.5-0.4,3.3-0.9l-0.4,3.3c-0.9,0.5-2.2,0.8-3.7,0.8
		c-3.6,0-6.5-2.5-6.5-6.3c0-3.8,2.8-6.2,6.1-6.2c3.3,0,5.3,2.3,5.3,4.7C190.9,166.4,190.9,166.8,190.8,167z M185.6,164.3
		c-1.1,0-2.1,0.9-2.3,1.9h4c0-0.1,0-0.2,0-0.3C187.3,165.1,186.6,164.3,185.6,164.3z"/>
	<path class="st0" d="M200.9,174.1c-0.7-0.2-1.5-0.7-1.8-1.6c-0.5,1-1.6,1.4-3.1,1.4c-2.1,0-3.9-1.5-3.9-3.9c0-2.2,1.7-3.6,4-3.8
		l2.3-0.2v-0.4c0-0.7-0.6-1.2-1.8-1.2c-1.1,0-2.4,0.4-3.3,0.9l-0.7-2.9c1-0.6,2.6-1,4.1-1c3.1,0,5.3,1.4,5.3,4.3v3.8
		c0,1.4,0.5,2.1,1.4,2.4L200.9,174.1z M198.5,168.5l-1.4,0.1c-1,0.1-1.4,0.8-1.4,1.5c0,0.6,0.5,1.1,1.2,1.1c0.9,0,1.7-0.7,1.7-1.7
		V168.5z"/>
	<path class="st0" d="M208.9,174.1c-2.4-0.1-4-1.4-4-4.2v-14.8h3.8v14.3c0,1,0.5,1.5,1.6,1.6L208.9,174.1z"/>
	<path class="st0" d="M213.8,174c-0.7,0-2.2-1.5-2.2-2.2c0-0.7,1.5-2.1,2.2-2.1c0.7,0,2.2,1.5,2.2,2.1
		C215.9,172.5,214.5,174,213.8,174z"/>
</g>
</svg>
