<?xml version="1.0" encoding="utf-8"?>
<!-- Generator: Adobe Illustrator 24.1.3, SVG Export Plug-In . SVG Version: 6.00 Build 0)  -->
<svg version="1.1" id="Layer_1" xmlns="http://www.w3.org/2000/svg" xmlns:xlink="http://www.w3.org/1999/xlink" x="0px" y="0px"
	 viewBox="0 0 300 250" style="enable-background:new 0 0 300 250;" xml:space="preserve">
<g>
	<path d="M44.4,43.3c-0.2-1-0.3-2.1-0.3-3.3s0.1-2.4,0.3-3.8c0.2-1.3,0.4-2.7,0.7-4c0.3-1.4,0.6-2.7,1-4.1c0.4-1.4,0.8-2.7,1.1-4
		c0.2-0.6,0.4-0.9,0.8-1.1c0.3-0.1,0.9-0.1,1.6,0.2c0.7,0.2,1.3,0.4,1.9,0.7c0.6,0.3,1.2,0.6,1.8,1c1.2,0.8,1.6,1.8,1.2,3.1
		c-0.4,1.1-0.7,2.2-1.1,3.4c-0.4,1.2-0.8,2.5-1.1,3.8c-0.3,1.3-0.6,2.5-0.9,3.7c-0.2,1.2-0.4,2.3-0.4,3.2c-0.1,1,0,1.8,0.2,2.4
		c0.2,0.6,0.5,1,1,1.1c0.6,0.1,1.2-0.1,1.8-0.8c0.6-0.7,1.1-1.6,1.6-2.8c0.5-1.2,1-2.6,1.5-4.1c0.5-1.6,0.9-3.2,1.3-4.9
		s0.8-3.3,1.1-4.9c0.3-1.6,0.6-3.1,0.9-4.3c0-0.6,0.3-1,0.7-1.1c0.4-0.1,1-0.1,1.6,0c0.6,0.2,1.3,0.4,2,0.7c0.7,0.3,1.4,0.7,2,1
		c0.3,0.2,0.5,0.4,0.7,0.5c0.2,0.2,0.3,0.3,0.3,0.5c0.1,0.2,0.1,0.3,0.1,0.5c0,0.2-0.1,0.4-0.1,0.7c-0.7,2.9-1.3,5.6-2,8
		c-0.7,2.4-1.4,4.6-2.1,6.5c-0.8,1.9-1.6,3.5-2.5,4.7c-0.9,1.3-1.9,2.2-3,2.8c-0.8,0.3-1.6,0.6-2.3,0.7c-0.8,0.1-1.7,0.2-2.7,0.1
		c-2-0.1-3.6-0.5-4.9-1.2c-0.6-0.3-1.1-0.6-1.6-1c-0.5-0.4-0.9-0.9-1.3-1.4C44.9,45.2,44.6,44.3,44.4,43.3z"/>
	<path d="M89.3,31.5c-0.6,1.9-1.2,3.8-1.8,5.8c-0.6,2-1.2,4-1.8,6c-0.6,2-1.1,3.8-1.5,5.5c0,0.3-0.1,0.5-0.2,0.6
		c-0.2,0.1-0.4,0.1-0.7,0.1c-0.3,0-0.6-0.1-1-0.2c-0.4-0.1-0.8-0.2-1.2-0.3c-0.9-0.2-1.6-0.5-2.1-0.9c-0.5-0.4-0.7-0.9-0.5-1.6
		c0.1-0.7,0.2-1.6,0.4-2.5c0.2-1,0.4-2,0.6-3.2c-0.9,0.1-1.8,0.2-2.7,0.4c-0.9,0.1-1.8,0.2-2.7,0.4c-0.4,1.4-0.6,2.7-0.9,4
		c-0.2,1.2-0.4,2.3-0.6,3.3c-0.1,0.3-0.2,0.6-0.4,0.7c-0.2,0.1-0.6,0.1-1.1,0c-0.6-0.1-1.1-0.3-1.7-0.4c-0.6-0.1-1.1-0.3-1.5-0.6
		c-0.5-0.2-0.9-0.5-1.1-0.8c-0.2-0.3-0.3-0.7-0.1-1.2c0.3-1.4,0.6-3.1,0.9-4.9c0.3-1.9,0.6-3.8,0.8-5.9s0.5-4.1,0.8-6.1
		c0.3-2,0.5-3.9,0.8-5.6c0.2-0.7,0.4-1,0.8-1.2c0.3-0.1,0.8-0.1,1.5,0.2c0.7,0.2,1.5,0.4,2.3,0.8c0.8,0.3,1.5,0.7,2.1,1
		c0.3,0.2,0.6,0.4,0.8,0.5c0.2,0.2,0.3,0.3,0.4,0.5c0.1,0.2,0.1,0.3,0.1,0.6c0,0.2-0.1,0.4-0.1,0.7c-0.4,1.2-0.7,2.5-1.1,4.1
		c-0.4,1.6-0.8,3.3-1.2,5.1c0.9-0.1,1.9-0.2,2.8-0.2c0.9-0.1,1.8-0.1,2.6-0.2c0.6-2.2,1.1-4.3,1.6-6.4c0.5-2.1,1-4.1,1.5-5.8
		c0.2-0.7,0.5-1,0.9-1.1c0.4-0.1,0.9,0,1.6,0.1c0.6,0.2,1.3,0.4,2,0.7c0.7,0.3,1.3,0.6,2,1c0.6,0.4,0.9,0.7,1,1
		c0.1,0.3,0.1,0.7-0.1,1.2C90.5,27.9,89.9,29.6,89.3,31.5z"/>
	<path d="M119.3,26.8c0.4,0.7,0.7,1.5,0.9,2.4c0.2,1.5,0.3,3.1,0.2,4.9c-0.1,1.7-0.5,3.5-1,5.2c-0.5,1.7-1.2,3.4-2.1,4.9
		c-0.9,1.5-2,2.8-3.3,3.9c-0.9,0.6-1.8,1.1-2.8,1.3c-1,0.2-2.1,0.3-3.4,0.1c-0.8-0.1-1.7-0.2-2.6-0.4s-1.7-0.4-2.4-0.8
		c-0.6-0.3-1.2-0.7-1.8-1.1c-0.6-0.4-1-1-1.4-1.5c-0.5-0.9-0.9-2-1.2-3.2C98.1,41.3,98,40,98,38.7c0-1.3,0.2-2.6,0.5-4
		c0.3-1.4,0.8-2.7,1.4-4c0.6-1.3,1.3-2.5,2.2-3.7c0.9-1.2,1.9-2.2,3-3.1c0.8-0.6,1.7-1,2.8-1.3c1.1-0.3,2.1-0.4,3.1-0.2
		c1.3,0.2,2.5,0.5,3.6,0.9c1.1,0.4,2.1,0.9,2.8,1.4C118.3,25.4,118.9,26.1,119.3,26.8z M110.5,28.4c-0.6,0.5-1.2,1.2-1.7,2
		c-0.6,0.9-1.1,1.8-1.6,2.9c-0.5,1.1-0.9,2.1-1.2,3c-0.3,1-0.5,2-0.7,3c-0.1,1-0.2,2-0.1,2.9s0.2,1.6,0.5,2.3s0.7,1,1.2,1.2
		c0.5,0.1,1,0.1,1.5-0.3s1-0.8,1.5-1.5s1-1.5,1.5-2.5c0.5-1,0.8-2.1,1.2-3.2c0.3-1,0.5-2,0.7-3.2c0.2-1.2,0.3-2.2,0.3-3.2
		c0-1-0.1-1.9-0.3-2.6c-0.2-0.7-0.5-1.1-1-1.3C111.6,27.7,111.1,27.9,110.5,28.4z"/>
	<path d="M143.7,31.5c-0.6,1.9-1.2,3.8-1.8,5.8c-0.6,2-1.2,4-1.8,6c-0.6,2-1.1,3.8-1.5,5.5c0,0.3-0.1,0.5-0.2,0.6
		c-0.2,0.1-0.4,0.1-0.7,0.1c-0.3,0-0.6-0.1-1-0.2c-0.4-0.1-0.8-0.2-1.2-0.3c-0.9-0.2-1.6-0.5-2.1-0.9c-0.5-0.4-0.7-0.9-0.5-1.6
		c0.1-0.7,0.2-1.6,0.4-2.5c0.2-1,0.4-2,0.6-3.2c-0.9,0.1-1.8,0.2-2.7,0.4c-0.9,0.1-1.8,0.2-2.7,0.4c-0.4,1.4-0.6,2.7-0.9,4
		c-0.2,1.2-0.4,2.3-0.6,3.3c-0.1,0.3-0.2,0.6-0.4,0.7c-0.2,0.1-0.6,0.1-1.1,0c-0.6-0.1-1.1-0.3-1.7-0.4c-0.6-0.1-1.1-0.3-1.5-0.6
		c-0.5-0.2-0.9-0.5-1.1-0.8c-0.2-0.3-0.3-0.7-0.1-1.2c0.3-1.4,0.6-3.1,0.9-4.9c0.3-1.9,0.6-3.8,0.8-5.9s0.5-4.1,0.8-6.1
		c0.3-2,0.5-3.9,0.8-5.6c0.2-0.7,0.4-1,0.8-1.2c0.3-0.1,0.8-0.1,1.5,0.2c0.7,0.2,1.5,0.4,2.3,0.8c0.8,0.3,1.5,0.7,2.1,1
		c0.3,0.2,0.6,0.4,0.8,0.5c0.2,0.2,0.3,0.3,0.4,0.5c0.1,0.2,0.1,0.3,0.1,0.6c0,0.2-0.1,0.4-0.1,0.7c-0.4,1.2-0.7,2.5-1.1,4.1
		c-0.4,1.6-0.8,3.3-1.2,5.1c0.9-0.1,1.9-0.2,2.8-0.2c0.9-0.1,1.8-0.1,2.6-0.2c0.6-2.2,1.1-4.3,1.6-6.4c0.5-2.1,1-4.1,1.5-5.8
		c0.2-0.7,0.5-1,0.9-1.1c0.4-0.1,0.9,0,1.6,0.1c0.6,0.2,1.3,0.4,2,0.7c0.7,0.3,1.3,0.6,2,1c0.6,0.4,0.9,0.7,1,1
		c0.1,0.3,0.1,0.7-0.1,1.2C144.9,27.9,144.3,29.6,143.7,31.5z"/>
</g>
</svg>
