<?xml version="1.0" encoding="utf-8"?>
<!-- Generator: Adobe Illustrator 24.1.0, SVG Export Plug-In . SVG Version: 6.00 Build 0)  -->
<svg version="1.1" id="Layer_1" xmlns="http://www.w3.org/2000/svg" xmlns:xlink="http://www.w3.org/1999/xlink" x="0px" y="0px"
	 viewBox="0 0 300 250" style="enable-background:new 0 0 300 250;" xml:space="preserve">
<style type="text/css">
	.st0{fill:#0D4C87;}
</style>
<g>
	<path class="st0" d="M37.9,78.2v7.4H34v-7.3L27.8,69h4.3l2.7,4c0.4,0.5,0.8,1.3,1.2,2h0.1c0.3-0.6,0.9-1.5,1.2-2l2.7-4h4L37.9,78.2
		z"/>
	<path class="st0" d="M49.2,86c-3.6,0-6.4-2.5-6.4-6.3s2.9-6.3,6.4-6.3c3.5,0,6.4,2.5,6.4,6.3S52.8,86,49.2,86z M49.2,76.7
		c-1.4,0-2.7,1.2-2.7,3c0,1.7,1.2,3,2.7,3c1.4,0,2.7-1.2,2.7-3C51.9,78,50.6,76.7,49.2,76.7z"/>
	<path class="st0" d="M65.3,85.6V84h0c-0.5,1.2-1.7,2-3.6,2c-2.6,0-4.1-1.4-4.1-3.9v-8.2h3.8V81c0,0.9,0.6,1.6,1.8,1.6
		c1.1,0,1.8-0.8,1.8-1.7v-7.2h3.8v11.8H65.3z"/>
	<path class="st0" d="M71.8,76.4l-1.2-0.2c0.9-1,1.6-2.5,1.7-3.7c-0.6-0.1-1.7-1.2-1.7-1.8c0-0.8,1.5-2.1,2.2-2.1
		c0.6,0,2.2,1.3,2.2,2.1C75,72.4,73.4,75,71.8,76.4z"/>
	<path class="st0" d="M83,85.7h-2.9l-4.5-11.9h3.7l1.7,4.5c0.2,0.6,0.5,1.5,0.6,2.3h0.1c0.2-0.8,0.4-1.7,0.7-2.3l1.7-4.5h3.5
		L83,85.7z"/>
	<path class="st0" d="M99.2,79l-1.7,1.7h-5.8c0.2,1,1.5,2.1,3.5,2.1c1.2,0,2.5-0.4,3.2-0.9l-0.4,3.3c-0.9,0.5-2.2,0.8-3.7,0.8
		c-3.6,0-6.5-2.5-6.5-6.3c0-3.8,2.8-6.2,6.1-6.2c3.3,0,5.3,2.3,5.3,4.7C99.3,78.4,99.3,78.8,99.2,79z M94,76.3
		c-1.1,0-2.1,0.9-2.3,1.9h4c0-0.1,0-0.2,0-0.3C95.7,77.1,95,76.3,94,76.3z"/>
	<path class="st0" d="M116,77.6c-0.8-0.5-1.6-0.8-2.5-0.8c-1.7,0-3,1.2-3,2.9c0,1.7,1.3,2.9,3.1,2.9c1,0,1.7-0.2,2.6-0.6l-0.3,3.2
		c-0.8,0.4-1.8,0.6-2.9,0.6c-3.3,0-6.4-2.3-6.4-6.1c0-3.8,3.1-6.2,6.3-6.2c1.6,0,2.8,0.3,3.9,0.9L116,77.6z"/>
	<path class="st0" d="M126.7,86.1c-0.7-0.2-1.5-0.7-1.8-1.6c-0.5,1-1.6,1.4-3.1,1.4c-2.1,0-3.9-1.5-3.9-3.9c0-2.2,1.7-3.6,4-3.8
		l2.3-0.2v-0.4c0-0.7-0.6-1.2-1.8-1.2c-1.1,0-2.4,0.4-3.3,0.9l-0.7-2.9c1-0.6,2.6-1,4.1-1c3.1,0,5.3,1.4,5.3,4.3v3.8
		c0,1.4,0.5,2.1,1.4,2.4L126.7,86.1z M124.3,80.4l-1.4,0.1c-1,0.1-1.4,0.8-1.4,1.5c0,0.6,0.5,1.1,1.2,1.1c0.9,0,1.7-0.7,1.7-1.7
		V80.4z"/>
	<path class="st0" d="M134.7,86.1c-2.4-0.1-4-1.4-4-4.2V67.1h3.8v14.3c0,1,0.5,1.5,1.6,1.6L134.7,86.1z"/>
	<path class="st0" d="M146.3,77.6c-0.8-0.5-1.6-0.8-2.5-0.8c-1.7,0-3,1.2-3,2.9c0,1.7,1.3,2.9,3.1,2.9c1,0,1.7-0.2,2.6-0.6l-0.3,3.2
		c-0.8,0.4-1.8,0.6-2.9,0.6c-3.3,0-6.4-2.3-6.4-6.1c0-3.8,3.1-6.2,6.3-6.2c1.6,0,2.8,0.3,3.9,0.9L146.3,77.6z"/>
	<path class="st0" d="M156.5,85.6V84h0c-0.5,1.2-1.7,2-3.6,2c-2.6,0-4.1-1.4-4.1-3.9v-8.2h3.8V81c0,0.9,0.6,1.6,1.8,1.6
		c1.1,0,1.8-0.8,1.8-1.7v-7.2h3.8v11.8H156.5z"/>
	<path class="st0" d="M166.5,86.1c-2.4-0.1-4-1.4-4-4.2V67.1h3.8v14.3c0,1,0.5,1.5,1.6,1.6L166.5,86.1z"/>
	<path class="st0" d="M177.8,86.1c-0.7-0.2-1.5-0.7-1.8-1.6c-0.5,1-1.6,1.4-3.1,1.4c-2.1,0-3.9-1.5-3.9-3.9c0-2.2,1.7-3.6,4-3.8
		l2.3-0.2v-0.4c0-0.7-0.6-1.2-1.8-1.2c-1.1,0-2.4,0.4-3.3,0.9l-0.7-2.9c1-0.6,2.6-1,4.1-1c3.1,0,5.3,1.4,5.3,4.3v3.8
		c0,1.4,0.5,2.1,1.4,2.4L177.8,86.1z M175.3,80.4l-1.4,0.1c-1,0.1-1.4,0.8-1.4,1.5c0,0.6,0.5,1.1,1.2,1.1c0.9,0,1.7-0.7,1.7-1.7
		V80.4z"/>
	<path class="st0" d="M189.3,76.9h-3.1v4.4c0,1,0.5,1.4,1.6,1.4c0.4,0,0.7,0,1-0.2l-0.3,2.9c-0.4,0.2-1,0.3-1.8,0.3
		c-2.7,0-4.2-1.4-4.2-3.7v-5.1h-2v-3.1h2v-2.5l3.8-1.4v3.9h3.8L189.3,76.9z"/>
	<path class="st0" d="M201.9,79l-1.7,1.7h-5.8c0.2,1,1.5,2.1,3.5,2.1c1.2,0,2.5-0.4,3.3-0.9l-0.4,3.3c-0.9,0.5-2.2,0.8-3.7,0.8
		c-3.6,0-6.5-2.5-6.5-6.3c0-3.8,2.8-6.2,6.1-6.2c3.3,0,5.3,2.3,5.3,4.7C202,78.4,202,78.8,201.9,79z M196.8,76.3
		c-1.1,0-2.1,0.9-2.3,1.9h4c0-0.1,0-0.2,0-0.3C198.5,77.1,197.8,76.3,196.8,76.3z"/>
	<path class="st0" d="M212.7,85.6v-1.5h0c-0.7,1.2-2,1.8-3.6,1.8c-2.9,0-5.7-2.2-5.7-6.2c0-3.8,2.7-6.3,6-6.3c1.2,0,2.5,0.4,3,0.8
		v-7.2h3.7v18.5H212.7z M212.3,77.9c-0.4-0.5-1.1-1.1-2.3-1.1c-1.7,0-2.8,1.3-2.8,3s1.2,3,2.8,3c1.1,0,1.9-0.6,2.3-1.2V77.9z"/>
	<path class="st0" d="M231.5,84.4c-1.8,4.7-3.7,6.4-5.9,7.3l-2.3-2.3c1.9-0.7,3.4-2.1,4.3-4.6l-4.2-11h3.7l1.7,4.6
		c0.3,0.7,0.5,1.5,0.7,2.3h0.1c0.2-0.8,0.5-1.6,0.8-2.3l1.7-4.6h3.5L231.5,84.4z"/>
	<path class="st0" d="M242.3,86c-3.6,0-6.4-2.5-6.4-6.3s2.9-6.3,6.4-6.3c3.5,0,6.4,2.5,6.4,6.3S245.8,86,242.3,86z M242.3,76.7
		c-1.4,0-2.7,1.2-2.7,3c0,1.7,1.2,3,2.7,3c1.4,0,2.7-1.2,2.7-3C244.9,78,243.7,76.7,242.3,76.7z"/>
	<path class="st0" d="M258.3,85.6V84h0c-0.5,1.2-1.7,2-3.6,2c-2.6,0-4.1-1.4-4.1-3.9v-8.2h3.8V81c0,0.9,0.6,1.6,1.8,1.6
		c1.1,0,1.8-0.8,1.8-1.7v-7.2h3.8v11.8H258.3z"/>
	<path class="st0" d="M271.5,77.9c-0.2-0.1-0.8-0.3-1.1-0.3c-1.2,0-2.3,0.6-2.3,2.5v5.5h-3.8V73.8h3.8v2.6h0
		c0.4-1.8,1.8-2.8,3.4-2.8c0.4,0,0.8,0.1,1.1,0.2L271.5,77.9z"/>
</g>
<g>
	<path class="st0" d="M46.9,102.5c-0.6,0-2.2-1.3-2.2-2.1c0-1.6,1.6-4.3,3.1-5.7l1.2,0.2c-0.9,1-1.6,2.5-1.7,3.7
		c0.6,0.1,1.7,1.2,1.7,1.8C49.1,101.1,47.6,102.5,46.9,102.5z M52.3,102.5c-0.6,0-2.2-1.3-2.2-2.1c0-1.6,1.6-4.3,3.1-5.7l1.2,0.2
		c-0.9,1-1.6,2.5-1.7,3.7c0.7,0.1,1.7,1.2,1.7,1.8C54.4,101.1,52.9,102.5,52.3,102.5z"/>
	<path class="st0" d="M63.1,111.9c-1.2,0-2.5-0.4-3-0.8v6.4h-3.7V99.8h3.4v1.5h0c0.7-1.2,2-1.8,3.6-1.8c2.9,0,5.7,2.2,5.7,6.2
		C69,109.5,66.3,111.9,63.1,111.9z M62.4,102.8c-1.1,0-1.9,0.6-2.3,1.2v3.7c0.4,0.5,1.1,1,2.3,1c1.7,0,2.8-1.3,2.8-3
		S64,102.8,62.4,102.8z"/>
	<path class="st0" d="M81.7,105l-1.7,1.7h-5.8c0.2,1,1.5,2.1,3.5,2.1c1.2,0,2.5-0.4,3.2-0.9l-0.4,3.3c-0.9,0.5-2.2,0.8-3.7,0.8
		c-3.6,0-6.5-2.5-6.5-6.3c0-3.8,2.8-6.2,6.1-6.2c3.3,0,5.3,2.3,5.3,4.7C81.8,104.4,81.8,104.8,81.7,105z M76.6,102.3
		c-1.1,0-2.1,0.9-2.3,1.9h4c0-0.1,0-0.2,0-0.3C78.3,103.1,77.6,102.3,76.6,102.3z"/>
	<path class="st0" d="M91,103.9c-0.2-0.1-0.8-0.3-1.1-0.3c-1.2,0-2.3,0.6-2.3,2.5v5.5h-3.8V99.8h3.8v2.6h0c0.4-1.8,1.8-2.8,3.4-2.8
		c0.4,0,0.8,0.1,1.1,0.2L91,103.9z"/>
	<path class="st0" d="M96.8,111.8c-1.6,0-2.8-0.3-3.7-0.8l-0.3-3.4c1,0.7,2.4,1.3,3.7,1.3c0.7,0,1.1-0.4,1.1-0.8
		c0-0.5-0.4-0.7-1.1-0.9c-2.3-0.6-3.6-1.8-3.6-3.8c0-2.3,1.9-3.8,4.4-3.8c1.5,0,2.9,0.4,3.5,0.7l-0.6,2.8c-0.6-0.3-1.5-0.6-2.4-0.6
		c-0.6,0-1,0.3-1,0.8c0,0.4,0.3,0.7,1,0.9c2.7,0.7,3.7,2,3.7,4C101.4,110,99.9,111.8,96.8,111.8z"/>
	<path class="st0" d="M109,112c-3.6,0-6.4-2.5-6.4-6.3s2.9-6.3,6.4-6.3c3.5,0,6.4,2.5,6.4,6.3S112.6,112,109,112z M109,102.7
		c-1.4,0-2.7,1.2-2.7,3c0,1.7,1.2,3,2.7,3c1.4,0,2.7-1.2,2.7-3C111.7,104,110.4,102.7,109,102.7z"/>
	<path class="st0" d="M124.8,111.6v-7.2c0-0.9-0.6-1.6-1.7-1.6c-1.1,0-1.9,0.7-1.9,1.7v7.2h-3.8V99.8h3.5v1.6h0c0.5-1.2,1.7-2,3.6-2
		c2.6,0,4.1,1.5,4.1,4v8.2H124.8z"/>
	<path class="st0" d="M139.3,112.1c-0.7-0.2-1.5-0.7-1.8-1.6c-0.5,1-1.6,1.4-3.1,1.4c-2.1,0-3.9-1.5-3.9-3.9c0-2.2,1.7-3.6,4-3.8
		l2.3-0.2v-0.4c0-0.7-0.6-1.2-1.8-1.2c-1.1,0-2.4,0.4-3.3,0.9l-0.7-2.9c1-0.6,2.6-1,4.1-1c3.1,0,5.3,1.4,5.3,4.3v3.8
		c0,1.4,0.5,2.1,1.4,2.4L139.3,112.1z M136.8,106.4l-1.4,0.1c-1,0.1-1.4,0.8-1.4,1.5c0,0.6,0.5,1.1,1.2,1.1c0.9,0,1.7-0.7,1.7-1.7
		V106.4z"/>
	<path class="st0" d="M147.2,112.1c-2.4-0.1-4-1.4-4-4.2V93.1h3.8v14.3c0,1,0.5,1.5,1.6,1.6L147.2,112.1z"/>
	<path class="st0" d="M162.6,111.9c-1.2,0-2.5-0.4-3-0.8v6.4h-3.7V99.8h3.4v1.5h0c0.6-1.2,2-1.8,3.6-1.8c2.9,0,5.7,2.2,5.7,6.2
		C168.6,109.5,165.9,111.9,162.6,111.9z M162,102.8c-1.1,0-1.9,0.6-2.3,1.2v3.7c0.4,0.5,1.1,1,2.3,1c1.7,0,2.8-1.3,2.8-3
		S163.6,102.8,162,102.8z"/>
	<path class="st0" d="M181.3,105l-1.7,1.7h-5.8c0.2,1,1.5,2.1,3.5,2.1c1.2,0,2.5-0.4,3.2-0.9l-0.4,3.3c-0.9,0.5-2.2,0.8-3.7,0.8
		c-3.6,0-6.5-2.5-6.5-6.3c0-3.8,2.8-6.2,6.1-6.2c3.3,0,5.3,2.3,5.3,4.7C181.4,104.4,181.4,104.8,181.3,105z M176.1,102.3
		c-1.1,0-2.1,0.9-2.3,1.9h4c0-0.1,0-0.2,0-0.3C177.8,103.1,177.1,102.3,176.1,102.3z"/>
	<path class="st0" d="M190.7,111.6v-7.2c0-0.9-0.6-1.6-1.7-1.6c-1.1,0-1.9,0.7-1.9,1.7v7.2h-3.8V99.8h3.5v1.6h0c0.5-1.2,1.7-2,3.6-2
		c2.6,0,4.1,1.5,4.1,4v8.2H190.7z"/>
	<path class="st0" d="M200.7,111.8c-1.6,0-2.8-0.3-3.7-0.8l-0.3-3.4c1,0.7,2.4,1.3,3.7,1.3c0.7,0,1.1-0.4,1.1-0.8
		c0-0.5-0.4-0.7-1.1-0.9c-2.3-0.6-3.6-1.8-3.6-3.8c0-2.3,1.9-3.8,4.4-3.8c1.5,0,2.9,0.4,3.5,0.7l-0.7,2.8c-0.6-0.3-1.5-0.6-2.4-0.6
		c-0.6,0-1,0.3-1,0.8c0,0.4,0.3,0.7,1,0.9c2.7,0.7,3.7,2,3.7,4C205.3,110,203.9,111.8,200.7,111.8z"/>
	<path class="st0" d="M209.2,98.2c-0.7,0-2.1-1.4-2.1-2.1c0-0.7,1.4-2,2.1-2s2.1,1.4,2.1,2C211.2,96.8,209.9,98.2,209.2,98.2z
		 M207.3,111.6V99.8h3.8v11.8H207.3z"/>
	<path class="st0" d="M219.4,112c-3.6,0-6.4-2.5-6.4-6.3s2.9-6.3,6.4-6.3c3.5,0,6.4,2.5,6.4,6.3S223,112,219.4,112z M219.4,102.7
		c-1.4,0-2.7,1.2-2.7,3c0,1.7,1.2,3,2.7,3c1.4,0,2.7-1.2,2.7-3C222.1,104,220.9,102.7,219.4,102.7z"/>
	<path class="st0" d="M235.2,111.6v-7.2c0-0.9-0.6-1.6-1.7-1.6c-1.1,0-1.9,0.7-1.9,1.7v7.2h-3.8V99.8h3.5v1.6h0c0.5-1.2,1.7-2,3.6-2
		c2.6,0,4.1,1.5,4.1,4v8.2H235.2z"/>
	<path class="st0" d="M243.2,112c-0.7,0-2.2-1.5-2.2-2.2c0-0.7,1.5-2.1,2.2-2.1c0.7,0,2.2,1.5,2.2,2.1
		C245.4,110.5,243.9,112,243.2,112z"/>
	<path class="st0" d="M246.8,102.4l-1.2-0.2c0.9-1,1.6-2.5,1.7-3.7c-0.7-0.1-1.7-1.2-1.7-1.8c0-0.8,1.5-2.1,2.2-2.1
		c0.6,0,2.2,1.3,2.2,2.1C249.9,98.4,248.3,101,246.8,102.4z M252.1,102.4l-1.2-0.2c0.9-1,1.6-2.5,1.7-3.7c-0.6-0.1-1.7-1.2-1.7-1.8
		c0-0.8,1.5-2.1,2.2-2.1c0.6,0,2.2,1.3,2.2,2.1C255.2,98.4,253.7,101,252.1,102.4z"/>
</g>
</svg>
