<?xml version="1.0" encoding="utf-8"?>
<!-- Generator: Adobe Illustrator 24.1.3, SVG Export Plug-In . SVG Version: 6.00 Build 0)  -->
<svg version="1.1" id="Layer_1" xmlns="http://www.w3.org/2000/svg" xmlns:xlink="http://www.w3.org/1999/xlink" x="0px" y="0px"
	 viewBox="0 0 300 250" style="enable-background:new 0 0 300 250;" xml:space="preserve">
<style type="text/css">
	.st0{fill:#FFFFFF;}
</style>
<g>
	<path class="st0" d="M123.8,117v5.1h-2.6V117l-4-7.7h2.8l2.7,5.6l2.7-5.6h2.5L123.8,117z"/>
	<path class="st0" d="M132.4,122.4c-2.8,0-4.7-2-4.7-5c0-3,2-5.1,4.9-5.1c2.8,0,4.7,2.1,4.7,4.9
		C137.3,120.3,135.3,122.4,132.4,122.4z M132.5,114.5c-1.3,0-2.2,1.1-2.2,2.8c0,1.7,0.9,2.9,2.3,2.9s2.2-1.1,2.2-2.8
		C134.7,115.6,133.8,114.5,132.5,114.5z"/>
	<path class="st0" d="M145.1,122.1v-0.7c-0.2,0.1-1.3,1-2.7,1c-1,0-1.9-0.3-2.5-0.9c-1.1-1.1-1-2.5-1-3.7v-5.1h2.6v5
		c0,1.2,0.1,1.9,0.4,2.2c0.1,0.1,0.4,0.3,1,0.3c0.8,0,1.6-0.5,1.8-0.6v-6.9h2.6v9.5H145.1z"/>
	<path class="st0" d="M159.8,114.6c-0.1,0-0.4-0.1-0.6-0.1c-1.6,0-2.4,0.9-2.7,1.4v6.2h-2.6v-9.5h2.2v1.2c0.1-0.1,1.3-1.5,3.1-1.5
		c0.7,0,1,0.2,1.1,0.3L159.8,114.6z"/>
	<path class="st0" d="M169.6,118.2h-6.2c0,0.7,0.5,2.1,2.4,2.1c1.2,0,2.1-0.5,2.5-0.7l0.8,1.7c-0.1,0.1-1.5,1-3.6,1
		c-3.1,0-4.7-2.2-4.7-5c0-2.9,1.9-5.1,4.6-5.1c2.8,0,4.3,2,4.3,5.1C169.7,117.8,169.6,118.1,169.6,118.2z M165.5,114.3
		c-1.2,0-1.9,0.9-2.1,2.1h3.9C167.3,115.8,167.1,114.3,165.5,114.3z"/>
	<path class="st0" d="M179,125.3c-0.6,0.6-1.6,1.3-3.5,1.3c-2.7,0-4.1-1.3-4.3-1.4l1-1.7c0.1,0.1,1.4,0.9,2.9,0.9
		c2.1,0,2.3-1.3,2.3-2.3v-0.6c-0.1,0.1-0.9,0.6-2.2,0.6c-2.9,0-4.3-2.3-4.3-4.7c0-2.8,2-5.1,5.1-5.1c2,0,3.7,0.9,4,1v8.6
		C180,123.3,180,124.3,179,125.3z M177.5,114.7c-0.1-0.1-0.7-0.3-1.4-0.3c-1.4,0-2.5,1.1-2.5,2.9c0,1.8,1,2.7,2.3,2.7
		c0.8,0,1.6-0.4,1.6-0.5V114.7z"/>
	<path class="st0" d="M183.6,111.4c-0.8,0-1.5-0.7-1.5-1.5s0.7-1.5,1.5-1.5s1.5,0.7,1.5,1.5S184.4,111.4,183.6,111.4z M182.3,122.1
		v-9.5h2.6v9.5H182.3z"/>
	<path class="st0" d="M190.1,122.4c-2.2,0-3.6-1-3.7-1.1l0.9-1.7c0.2,0.1,1.3,0.8,2.5,0.8c1.2,0,1.5-0.5,1.5-0.9
		c0-0.6-0.5-0.8-2-1.4c-0.8-0.3-2.4-0.9-2.4-2.8c0-1.8,1.5-3,3.7-3c2.1,0,3.1,0.8,3.1,0.8l-0.8,1.6c-0.1-0.1-1.2-0.6-2.2-0.6
		c-1,0-1.3,0.5-1.3,0.9c0,0.6,0.7,0.8,1.7,1.2c1.3,0.5,2.7,1.1,2.7,3C193.8,121.2,192.4,122.4,190.1,122.4z"/>
	<path class="st0" d="M199.9,122.4c-0.8,0-1.8-0.2-2.4-0.8c-0.8-0.8-0.8-1.7-0.8-3v-3.7H195v-2.2h1.6V110h2.6v2.6h2.7v2.2h-2.7v3.8
		c0,0.8,0.1,1.6,1.2,1.6c0.6,0,1-0.2,1.2-0.2l0.7,1.8C202.2,121.8,201.3,122.4,199.9,122.4z"/>
	<path class="st0" d="M212,118.2h-6.2c0,0.7,0.5,2.1,2.4,2.1c1.2,0,2.1-0.5,2.5-0.7l0.8,1.7c-0.1,0.1-1.5,1-3.6,1
		c-3.1,0-4.7-2.2-4.7-5c0-2.9,1.9-5.1,4.6-5.1c2.8,0,4.3,2,4.3,5.1C212,117.8,212,118.1,212,118.2z M207.8,114.3
		c-1.2,0-1.9,0.9-2.1,2.1h3.9C209.6,115.8,209.4,114.3,207.8,114.3z"/>
	<path class="st0" d="M219.7,114.6c-0.1,0-0.4-0.1-0.6-0.1c-1.6,0-2.4,0.9-2.7,1.4v6.2h-2.6v-9.5h2.2v1.2c0.1-0.1,1.3-1.5,3.1-1.5
		c0.7,0,1,0.2,1.1,0.3L219.7,114.6z"/>
	<path class="st0" d="M229.6,118.2h-6.2c0,0.7,0.5,2.1,2.4,2.1c1.2,0,2.1-0.5,2.5-0.7l0.8,1.7c-0.1,0.1-1.5,1-3.6,1
		c-3.1,0-4.7-2.2-4.7-5c0-2.9,1.9-5.1,4.6-5.1c2.8,0,4.3,2,4.3,5.1C229.6,117.8,229.6,118.1,229.6,118.2z M225.4,114.3
		c-1.2,0-1.9,0.9-2.1,2.1h3.9C227.2,115.8,227,114.3,225.4,114.3z"/>
	<path class="st0" d="M237.8,122.1v-0.6c-0.1,0.1-1,0.8-2.5,0.8c-2.6,0-4.3-2-4.3-4.9c0-3.1,2.2-5.1,4.6-5.1c1.1,0,1.8,0.3,1.9,0.4
		v-4.6h2.6v14H237.8z M237.5,114.9c-0.1,0-0.7-0.4-1.4-0.4c-1.4,0-2.4,1-2.4,2.9c0,1.8,1,2.8,2.3,2.8c0.8,0,1.5-0.4,1.6-0.5V114.9z"
		/>
</g>
<g>
	<path class="st0" d="M123.5,142.5c-0.7,1.9-1.2,2.7-1.8,3.4c-0.4,0.4-1.2,1-2.8,1c-1.4,0-2.3-0.6-2.4-0.6l0.8-1.9
		c0.1,0.1,0.7,0.3,1.5,0.3c0.6,0,1-0.2,1.3-0.5c0.5-0.5,0.8-1.5,0.9-1.9l-4-9.5h2.8l2.5,6.7l2.4-6.7h2.6L123.5,142.5z"/>
	<path class="st0" d="M132.5,142.7c-2.8,0-4.7-2-4.7-5c0-3,2-5.1,4.9-5.1c2.8,0,4.7,2.1,4.7,4.9
		C137.5,140.6,135.5,142.7,132.5,142.7z M132.6,134.8c-1.3,0-2.2,1.1-2.2,2.8c0,1.7,0.9,2.9,2.3,2.9s2.2-1.1,2.2-2.8
		C134.9,136,133.9,134.8,132.6,134.8z"/>
	<path class="st0" d="M145.3,142.4v-0.7c-0.2,0.1-1.3,1-2.7,1c-1,0-1.9-0.3-2.5-0.9c-1.1-1.1-1-2.5-1-3.7v-5.1h2.6v5
		c0,1.2,0.1,1.9,0.4,2.2c0.1,0.1,0.4,0.3,1,0.3c0.8,0,1.6-0.5,1.8-0.6v-6.9h2.6v9.5H145.3z"/>
	<path class="st0" d="M155.6,134.9c-0.1,0-0.4-0.1-0.6-0.1c-1.6,0-2.4,0.9-2.7,1.4v6.2h-2.6v-9.5h2.2v1.2c0.1-0.1,1.3-1.5,3.1-1.5
		c0.7,0,1,0.2,1.1,0.2L155.6,134.9z"/>
	<path class="st0" d="M167.2,142.4v-0.7c-0.2,0.1-1.2,0.9-2.7,0.9c-1.9,0-3.1-1.3-3.1-3c0-3.4,4.1-3.4,5.3-3.4h0.3
		c0-0.6,0-0.8-0.3-1.1c-0.2-0.2-0.6-0.4-1.4-0.4c-1.3,0-2.4,0.6-2.5,0.7l-0.9-1.7c0.1-0.1,1.4-1,3.6-1c0.8,0,2.2,0.1,3.1,1.1
		c0.8,0.8,0.8,1.8,0.8,3v5.7H167.2z M167,137.9c-0.2,0-0.4,0-0.4,0c-1.7,0-2.9,0.3-2.9,1.5c0,1,0.8,1.3,1.5,1.3
		c1.1,0,1.7-0.5,1.8-0.6V137.9z"/>
	<path class="st0" d="M176,142.7c-3,0-4.9-2.1-4.9-4.9c0-3,2.2-5.1,5-5.1c2,0,3.1,1,3.3,1.2l-1,1.6c-0.1-0.1-0.9-0.7-2-0.7
		c-1.7,0-2.7,1.5-2.7,2.9c0,1.7,0.8,2.9,2.6,2.9c1.2,0,2.2-0.7,2.3-0.7l1,1.7C179.6,141.6,178.2,142.7,176,142.7z"/>
	<path class="st0" d="M185.1,142.7c-3,0-4.9-2.1-4.9-4.9c0-3,2.2-5.1,5-5.1c2,0,3.1,1,3.3,1.2l-1,1.6c-0.1-0.1-0.9-0.7-2-0.7
		c-1.7,0-2.7,1.5-2.7,2.9c0,1.7,0.8,2.9,2.6,2.9c1.2,0,2.2-0.7,2.3-0.7l1,1.7C188.7,141.6,187.4,142.7,185.1,142.7z"/>
	<path class="st0" d="M194.2,142.7c-2.8,0-4.7-2-4.7-5c0-3,2-5.1,4.9-5.1c2.8,0,4.7,2.1,4.7,4.9
		C199.1,140.6,197.1,142.7,194.2,142.7z M194.3,134.8c-1.3,0-2.2,1.1-2.2,2.8c0,1.7,0.9,2.9,2.3,2.9c1.3,0,2.2-1.1,2.2-2.8
		C196.5,136,195.6,134.8,194.3,134.8z"/>
	<path class="st0" d="M206.9,142.4v-0.7c-0.2,0.1-1.3,1-2.7,1c-1,0-1.9-0.3-2.5-0.9c-1.1-1.1-1-2.5-1-3.7v-5.1h2.6v5
		c0,1.2,0.1,1.9,0.4,2.2c0.1,0.1,0.4,0.3,1,0.3c0.8,0,1.6-0.5,1.8-0.6v-6.9h2.6v9.5H206.9z"/>
	<path class="st0" d="M217.2,142.4v-5c0-1.2-0.1-1.9-0.4-2.2c-0.1-0.1-0.4-0.3-1-0.3c-0.8,0-1.6,0.5-1.8,0.6v6.9h-2.6v-9.5h2.2v0.7
		c0.2-0.1,1.3-1,2.7-1c1,0,1.9,0.3,2.5,0.9c1.1,1.1,1,2.5,1,3.7v5.1H217.2z"/>
	<path class="st0" d="M225.9,142.7c-0.8,0-1.8-0.2-2.4-0.8c-0.8-0.8-0.8-1.7-0.8-3v-3.7H221v-2.2h1.6v-2.6h2.6v2.6h2.7v2.2h-2.7v3.8
		c0,0.8,0.1,1.6,1.2,1.6c0.6,0,1-0.2,1.2-0.2l0.7,1.8C228.2,142.1,227.3,142.7,225.9,142.7z"/>
	<path class="st0" d="M240.8,130.8c-0.1-0.1-0.7-0.5-1.4-0.5c-1.4,0-1.4,1.1-1.4,2.1v0.5h2.8v2.2h-2.8v7.3h-2.6v-7.3h-1.5v-2.2h1.5
		v-0.5c0-1.6,0.2-2.5,1-3.3c0.6-0.6,1.4-0.9,2.6-0.9c1.7,0,2.7,0.8,2.7,0.9L240.8,130.8z"/>
	<path class="st0" d="M246.7,142.7c-2.8,0-4.7-2-4.7-5c0-3,2-5.1,4.9-5.1c2.8,0,4.7,2.1,4.7,4.9
		C251.6,140.6,249.6,142.7,246.7,142.7z M246.8,134.8c-1.3,0-2.2,1.1-2.2,2.8c0,1.7,0.9,2.9,2.3,2.9c1.3,0,2.2-1.1,2.2-2.8
		C249,136,248.1,134.8,246.8,134.8z"/>
	<path class="st0" d="M259.2,134.9c-0.1,0-0.4-0.1-0.6-0.1c-1.6,0-2.4,0.9-2.7,1.4v6.2h-2.6v-9.5h2.2v1.2c0.1-0.1,1.3-1.5,3.1-1.5
		c0.7,0,1,0.2,1.1,0.2L259.2,134.9z"/>
</g>
<g>
	<path class="st0" d="M126.2,162.7l-0.9-2.7h-4.6l-0.9,2.7h-2.8l4.7-12.9h2.7l4.7,12.9H126.2z M122.9,152.8l-1.6,5.2h3.2
		L122.9,152.8z"/>
	<path class="st0" d="M139.9,160.8c-1.9,1.9-4.3,1.9-6.7,1.9h-2.6v-12.9h3.5c2.2,0,4.1,0,5.8,1.7c1.1,1.1,1.8,2.8,1.8,4.6
		C141.7,157.9,141.1,159.7,139.9,160.8z M137.9,153.1c-1.1-1.1-2.4-1.1-3.8-1.1h-0.8v8.5h1.3c2.9,0,4.4-1.6,4.4-4.4
		C139,154.8,138.6,153.8,137.9,153.1z"/>
	<path class="st0" d="M151.3,162.7l-0.9-2.7h-4.6l-0.9,2.7H142l4.7-12.9h2.7l4.7,12.9H151.3z M148,152.8l-1.6,5.2h3.2L148,152.8z"/>
	<path class="st0" d="M162.8,163c-2.2,0-3.6-1-3.7-1.1l0.9-1.7c0.2,0.1,1.3,0.8,2.5,0.8c1.2,0,1.5-0.5,1.5-0.9c0-0.6-0.5-0.8-2-1.4
		c-0.8-0.3-2.4-0.9-2.4-2.8c0-1.8,1.5-3,3.7-3c2.1,0,3.1,0.8,3.1,0.8l-0.8,1.6c-0.1-0.1-1.2-0.6-2.2-0.6c-1,0-1.3,0.5-1.3,0.9
		c0,0.6,0.7,0.8,1.7,1.2c1.3,0.5,2.7,1.1,2.7,3C166.6,161.8,165.2,163,162.8,163z"/>
	<path class="st0" d="M172.6,163c-0.8,0-1.8-0.2-2.5-0.8c-0.8-0.8-0.8-1.7-0.8-3v-3.7h-1.6v-2.2h1.6v-2.6h2.6v2.6h2.7v2.2H172v3.8
		c0,0.8,0.1,1.6,1.2,1.6c0.6,0,1-0.2,1.2-0.2l0.7,1.8C175,162.4,174.1,163,172.6,163z"/>
	<path class="st0" d="M182.6,162.7V162c-0.2,0.1-1.3,1-2.7,1c-1,0-1.9-0.3-2.5-0.9c-1.1-1.1-1-2.5-1-3.7v-5.1h2.6v5
		c0,1.2,0.1,1.9,0.4,2.2c0.1,0.1,0.4,0.3,1,0.3c0.8,0,1.6-0.5,1.8-0.6v-6.9h2.6v9.5H182.6z"/>
	<path class="st0" d="M193.4,162.7v-0.6c-0.1,0.1-1,0.8-2.5,0.8c-2.6,0-4.3-2-4.3-4.9c0-3.1,2.2-5.1,4.6-5.1c1.1,0,1.8,0.3,1.9,0.4
		v-4.6h2.6v14H193.4z M193.1,155.5c-0.1,0-0.7-0.4-1.4-0.4c-1.4,0-2.4,1-2.4,2.9c0,1.8,1,2.8,2.3,2.8c0.8,0,1.5-0.4,1.6-0.5V155.5z"
		/>
	<path class="st0" d="M206.3,158.8H200c0,0.7,0.5,2.1,2.4,2.1c1.2,0,2.1-0.5,2.5-0.7l0.8,1.7c-0.1,0.1-1.5,1-3.6,1
		c-3.1,0-4.7-2.2-4.7-5c0-2.9,1.9-5.1,4.6-5.1c2.8,0,4.3,2,4.3,5.1C206.3,158.4,206.3,158.7,206.3,158.8z M202.1,154.9
		c-1.2,0-1.9,0.9-2.1,2.1h3.9C203.9,156.4,203.7,154.9,202.1,154.9z"/>
	<path class="st0" d="M213.9,162.7v-5c0-1.2-0.1-1.9-0.4-2.2c-0.1-0.1-0.4-0.3-1-0.3c-0.8,0-1.6,0.5-1.8,0.6v6.9h-2.6v-9.5h2.2v0.7
		c0.2-0.1,1.3-1,2.7-1c1,0,1.9,0.3,2.5,0.9c1.1,1.1,1,2.5,1,3.7v5.1H213.9z"/>
	<path class="st0" d="M222.6,163c-0.8,0-1.8-0.2-2.5-0.8c-0.8-0.8-0.8-1.7-0.8-3v-3.7h-1.6v-2.2h1.6v-2.6h2.6v2.6h2.7v2.2H222v3.8
		c0,0.8,0.1,1.6,1.2,1.6c0.6,0,1-0.2,1.2-0.2l0.7,1.8C224.9,162.4,224,163,222.6,163z"/>
</g>
<g>
	<path class="st0" d="M128.9,183.1v-5.2c0-1.1,0-2.4-1.3-2.4c-0.8,0-1.6,0.6-1.7,0.7c0.1,0.4,0.1,0.5,0.1,2.1v4.8h-2.6v-5.2
		c0-1.1,0-2.4-1.3-2.4c-0.8,0-1.5,0.4-1.6,0.5v7h-2.6v-9.5h2.2v0.7c0.2-0.1,1.2-1,2.7-1c1.5,0,2.1,0.8,2.3,1c0.2-0.1,1.4-1,3-1
		c0.8,0,1.8,0.2,2.4,0.9c1.1,1.1,1.1,2.7,1.1,4.9v4H128.9z"/>
	<path class="st0" d="M142,179.2h-6.2c0,0.7,0.5,2.1,2.4,2.1c1.2,0,2.1-0.5,2.5-0.7l0.8,1.7c-0.1,0.1-1.5,1-3.6,1
		c-3.1,0-4.7-2.2-4.7-5c0-2.9,1.9-5.1,4.6-5.1c2.8,0,4.3,2,4.3,5.1C142,178.8,142,179,142,179.2z M137.8,175.2
		c-1.2,0-1.9,0.9-2.1,2.1h3.9C139.6,176.8,139.4,175.2,137.8,175.2z"/>
	<path class="st0" d="M155,183.1v-5.2c0-1.1,0-2.4-1.3-2.4c-0.8,0-1.6,0.6-1.7,0.7c0.1,0.4,0.1,0.5,0.1,2.1v4.8h-2.6v-5.2
		c0-1.1,0-2.4-1.3-2.4c-0.8,0-1.5,0.4-1.6,0.5v7h-2.6v-9.5h2.2v0.7c0.2-0.1,1.2-1,2.7-1c1.5,0,2.1,0.8,2.3,1c0.2-0.1,1.4-1,3-1
		c0.8,0,1.8,0.2,2.4,0.9c1.1,1.1,1.1,2.7,1.1,4.9v4H155z"/>
	<path class="st0" d="M163.7,183.3c-1.9,0-3.8-0.7-4-0.8v-13.5h2.6v4.9c0.1-0.1,1-0.7,2.3-0.7c2.3,0,4.1,1.8,4.1,4.8
		C168.7,181.2,166.8,183.3,163.7,183.3z M164.1,175.4c-0.8,0-1.6,0.5-1.7,0.6v5.1c0.1,0,0.6,0.2,1.4,0.2c1.5,0,2.4-1.2,2.4-3.1
		C166.1,176.2,165.1,175.4,164.1,175.4z"/>
	<path class="st0" d="M178.9,179.2h-6.2c0,0.7,0.5,2.1,2.4,2.1c1.2,0,2.1-0.5,2.5-0.7l0.8,1.7c-0.1,0.1-1.5,1-3.6,1
		c-3.1,0-4.7-2.2-4.7-5c0-2.9,1.9-5.1,4.6-5.1c2.8,0,4.3,2,4.3,5.1C178.9,178.8,178.9,179,178.9,179.2z M174.7,175.2
		c-1.2,0-1.9,0.9-2.1,2.1h3.9C176.5,176.8,176.3,175.2,174.7,175.2z"/>
	<path class="st0" d="M186.6,175.5c-0.1,0-0.4-0.1-0.6-0.1c-1.6,0-2.4,0.9-2.7,1.4v6.2h-2.6v-9.5h2.2v1.2c0.1-0.1,1.3-1.5,3.1-1.5
		c0.7,0,1,0.2,1.1,0.2L186.6,175.5z"/>
	<path class="st0" d="M191.3,183.3c-2.2,0-3.6-1-3.7-1.1l0.9-1.7c0.2,0.1,1.3,0.8,2.5,0.8c1.2,0,1.5-0.5,1.5-0.9
		c0-0.6-0.5-0.8-2-1.4c-0.8-0.3-2.4-0.9-2.4-2.8c0-1.8,1.5-3,3.7-3c2.1,0,3.1,0.8,3.1,0.8l-0.8,1.6c-0.1-0.1-1.2-0.6-2.2-0.6
		c-1,0-1.3,0.5-1.3,0.9c0,0.6,0.7,0.8,1.7,1.2c1.3,0.5,2.7,1.1,2.7,3C195.1,182.1,193.6,183.3,191.3,183.3z"/>
	<path class="st0" d="M202.7,172.4c-0.8,0-1.5-0.7-1.5-1.5c0-0.8,0.7-1.5,1.5-1.5s1.5,0.7,1.5,1.5
		C204.2,171.7,203.5,172.4,202.7,172.4z M201.4,183.1v-9.5h2.6v9.5H201.4z"/>
	<path class="st0" d="M212,183.1v-5c0-1.2-0.1-1.9-0.4-2.2c-0.1-0.1-0.4-0.3-1-0.3c-0.8,0-1.6,0.5-1.8,0.6v6.9h-2.6v-9.5h2.2v0.7
		c0.2-0.1,1.3-1,2.7-1c1,0,1.9,0.3,2.5,0.9c1.1,1.1,1,2.5,1,3.7v5.1H212z"/>
	<path class="st0" d="M219.7,183.3c-2.2,0-3.6-1-3.7-1.1l0.9-1.7c0.2,0.1,1.3,0.8,2.5,0.8c1.2,0,1.5-0.5,1.5-0.9
		c0-0.6-0.5-0.8-2-1.4c-0.8-0.3-2.4-0.9-2.4-2.8c0-1.8,1.5-3,3.7-3c2.1,0,3.1,0.8,3.1,0.8l-0.8,1.6c-0.1-0.1-1.2-0.6-2.2-0.6
		c-1,0-1.3,0.5-1.3,0.9c0,0.6,0.7,0.8,1.7,1.2c1.3,0.5,2.7,1.1,2.7,3C223.5,182.1,222,183.3,219.7,183.3z"/>
	<path class="st0" d="M231.4,183.1v-0.7c-0.2,0.1-1.3,1-2.7,1c-1,0-1.9-0.3-2.5-0.9c-1.1-1.1-1-2.5-1-3.7v-5.1h2.6v5
		c0,1.2,0.1,1.9,0.4,2.2c0.1,0.1,0.4,0.3,1,0.3c0.8,0,1.6-0.5,1.8-0.6v-6.9h2.6v9.5H231.4z"/>
	<path class="st0" d="M241.7,175.5c-0.1,0-0.4-0.1-0.6-0.1c-1.6,0-2.4,0.9-2.7,1.4v6.2h-2.6v-9.5h2.2v1.2c0.1-0.1,1.3-1.5,3.1-1.5
		c0.7,0,1,0.2,1.1,0.2L241.7,175.5z"/>
	<path class="st0" d="M248.7,183.1v-0.7c-0.2,0.1-1.2,0.9-2.7,0.9c-1.9,0-3.1-1.3-3.1-3c0-3.4,4.1-3.4,5.3-3.4h0.3
		c0-0.6,0-0.8-0.3-1.1c-0.2-0.2-0.6-0.4-1.4-0.4c-1.3,0-2.4,0.6-2.5,0.7l-0.9-1.7c0.1-0.1,1.4-1,3.6-1c0.8,0,2.2,0.1,3.1,1.1
		c0.8,0.8,0.8,1.8,0.8,3v5.7H248.7z M248.5,178.6c-0.2,0-0.4,0-0.4,0c-1.7,0-2.9,0.3-2.9,1.5c0,1,0.8,1.3,1.5,1.3
		c1.1,0,1.7-0.5,1.8-0.6V178.6z"/>
	<path class="st0" d="M258.9,183.1v-5c0-1.2-0.1-1.9-0.4-2.2c-0.1-0.1-0.4-0.3-1-0.3c-0.8,0-1.6,0.5-1.8,0.6v6.9h-2.6v-9.5h2.2v0.7
		c0.2-0.1,1.3-1,2.7-1c1,0,1.9,0.3,2.5,0.9c1.1,1.1,1,2.5,1,3.7v5.1H258.9z"/>
	<path class="st0" d="M268,183.3c-3,0-4.9-2.1-4.9-4.9c0-3,2.2-5.1,5-5.1c2,0,3.1,1,3.3,1.2l-1,1.6c-0.1-0.1-0.9-0.7-2-0.7
		c-1.7,0-2.7,1.5-2.7,2.9c0,1.7,0.8,2.9,2.6,2.9c1.2,0,2.2-0.7,2.3-0.7l1,1.7C271.6,182.2,270.3,183.3,268,183.3z"/>
	<path class="st0" d="M281.1,179.2h-6.2c0,0.7,0.5,2.1,2.4,2.1c1.2,0,2.1-0.5,2.5-0.7l0.8,1.7c-0.1,0.1-1.5,1-3.6,1
		c-3.1,0-4.7-2.2-4.7-5c0-2.9,1.9-5.1,4.6-5.1c2.8,0,4.3,2,4.3,5.1C281.2,178.8,281.1,179,281.1,179.2z M277,175.2
		c-1.2,0-1.9,0.9-2.1,2.1h3.9C278.7,176.8,278.6,175.2,277,175.2z"/>
	<path class="st0" d="M284.3,183.2c-0.9,0-1.6-0.7-1.6-1.6s0.7-1.6,1.6-1.6s1.6,0.7,1.6,1.6S285.2,183.2,284.3,183.2z"/>
</g>
</svg>
