<?xml version="1.0" encoding="utf-8"?>
<!-- Generator: Adobe Illustrator 24.1.3, SVG Export Plug-In . SVG Version: 6.00 Build 0)  -->
<svg version="1.1" id="Layer_1" xmlns="http://www.w3.org/2000/svg" xmlns:xlink="http://www.w3.org/1999/xlink" x="0px" y="0px"
	 viewBox="0 0 300 250" style="enable-background:new 0 0 300 250;" xml:space="preserve">
<style type="text/css">
	.st0{fill:#F16022;}
	.st1{fill:none;}
	.st2{fill:#FFFFFF;}
</style>
<path class="st0" d="M170.3,173.1c-2,0-3.6,1.6-3.6,3.6V198c0,2,1.6,3.6,3.6,3.6h114.4c2,0,3.6-1.6,3.6-3.6v-21.3
	c0-2-1.6-3.6-3.6-3.6H170.3z"/>
<rect y="-23" class="st1" width="300" height="271.7"/>
<g>
	<path class="st2" d="M184.7,191.1l-0.5-1.7h-3.3l-0.6,1.7h-2.4l3.4-9.5h2.3l3.4,9.5H184.7z M182.5,184.1l-1.1,3.5h2.2L182.5,184.1z
		"/>
	<path class="st2" d="M192.2,191.3c-2.8,0-4.8-2-4.8-4.9c0-3.2,2.2-5.1,5.1-5.1c2,0,3,0.9,3.3,1.1l-1,1.5c-0.1-0.1-0.9-0.6-2.1-0.6
		c-1.7,0-3,1.2-3,3c0,1.6,1,3,2.7,3c1.2,0,2.2-0.6,2.4-0.8l1,1.5C195.8,190.1,194.7,191.3,192.2,191.3z"/>
	<path class="st2" d="M201.5,183.5v7.6h-2.4v-7.6h-2.5v-1.9h7.4v1.9H201.5z"/>
	<path class="st2" d="M205.1,191.1v-9.5h2.3v9.5H205.1z"/>
	<path class="st2" d="M214,191.1h-2.2l-3.2-9.5h2.3l2.1,6.7l2.1-6.7h2.3L214,191.1z"/>
	<path class="st2" d="M223.7,191.1l-0.5-1.7h-3.3l-0.6,1.7h-2.4l3.4-9.5h2.3l3.4,9.5H223.7z M221.4,184.1l-1.1,3.5h2.2L221.4,184.1z
		"/>
	<path class="st2" d="M230.4,183.5v7.6h-2.4v-7.6h-2.5v-1.9h7.4v1.9H230.4z"/>
	<path class="st2" d="M234,191.1v-9.5h6v1.9h-3.7v1.9h3.4v1.8h-3.4v2h3.8v1.9H234z"/>
	<path class="st2" d="M250.7,191.1l-3.8-5.8l0.1,5.8h-2.1v-9.5h2l3.7,5.7l0-5.7h2.1v9.5H250.7z"/>
	<path class="st2" d="M258.9,191.3c-2.9,0-4.8-2.1-4.8-5.1c0-2.9,1.9-4.8,4.7-4.8c2.9,0,4.8,2.1,4.8,4.9
		C263.6,189.4,261.7,191.3,258.9,191.3z M258.8,183.3c-1.4,0-2.3,1.3-2.3,3.2c0,1.9,1.1,3,2.5,3c2,0,2.3-1.9,2.3-3.2
		C261.3,184.5,260.3,183.3,258.8,183.3z"/>
	<path class="st2" d="M274.6,191.1h-2.5l-1.5-6.7l-1.6,6.7h-2.5l-2.2-9.5h2.3l1.2,7l1.7-7h2.3l1.6,7l1.3-7h2.1L274.6,191.1z"/>
</g>
</svg>
