<?xml version="1.0" encoding="utf-8"?>
<!-- Generator: Adobe Illustrator 24.1.3, SVG Export Plug-In . SVG Version: 6.00 Build 0)  -->
<svg version="1.1" id="Layer_1" xmlns="http://www.w3.org/2000/svg" xmlns:xlink="http://www.w3.org/1999/xlink" x="0px" y="0px"
	 viewBox="0 0 300 250" style="enable-background:new 0 0 300 250;" xml:space="preserve">
<style type="text/css">
	.st0{fill:#349946;}
	.st1{fill:#231F20;}
</style>
<path class="st0" d="M25.7,236.3h-2.1l-0.7-2h-4.2l-0.7,2h-2.1l3.7-9.8h1.5c0.5,0,0.9,0.2,1,0.5c0.1,0.4,1.8,4.8,1.8,4.8h-2
	l-1.2-3.3l-1.5,4.2h4.2c0.6,0,0.9,0.2,1,0.7L25.7,236.3z"/>
<path class="st0" d="M44.3,236.3h-2.1l-0.7-2h-4.2l-0.7,2h-2.1l3.7-9.8h1.5c0.5,0,0.9,0.2,1,0.5c0.1,0.4,1.8,4.8,1.8,4.8h-2
	l-1.2-3.3l-1.5,4.2h4.2c0.6,0,0.9,0.2,1,0.7L44.3,236.3z"/>
<path class="st0" d="M26.4,226.5h3.8c3,0,4.5,1.6,4.5,4.9c0,1.8-0.6,3.2-1.6,4c-1,0.8-2,0.9-3.4,0.9h-3.3V226.5z M30,234.5
	c1.9,0,2.7-0.9,2.7-3.1c0-2.2-0.7-3.2-2.4-3.2h-1.9v6.3H30z"/>
<g>
	<path class="st1" d="M60.9,236.2h-1.5l-0.6-7l-2.4,7h-1.3l-2.4-7l-0.6,7h-1.4l0.9-9.3h1.8l2.5,7.2l2.4-7.2H60L60.9,236.2z"/>
	<path class="st1" d="M68.5,232.7c0,0.1,0,0.2,0,0.3c0,0.1,0,0.2,0,0.2h-4.6c0,0.5,0.1,0.9,0.4,1.3c0.4,0.4,0.9,0.6,1.5,0.6
		c0.6,0,1.2-0.2,1.9-0.5l0.5,1c-0.7,0.5-1.5,0.7-2.5,0.7c-1,0-1.9-0.3-2.4-1c-0.6-0.6-0.9-1.5-0.9-2.5c0-1.1,0.3-1.9,0.9-2.6
		c0.6-0.7,1.4-1,2.3-1c0.9,0,1.6,0.3,2.1,0.9C68.3,230.8,68.5,231.6,68.5,232.7z M67.1,232.1c0-0.4-0.1-0.8-0.3-1.1
		c-0.3-0.4-0.7-0.7-1.2-0.7c-0.5,0-0.9,0.2-1.2,0.5c-0.3,0.3-0.5,0.7-0.6,1.3H67.1z"/>
	<path class="st1" d="M79.6,236.2h-1.5v-3.9c0-0.8-0.1-1.3-0.3-1.5s-0.5-0.3-0.8-0.3c-0.5,0-1,0.2-1.5,0.5c0.1,0.2,0.1,0.7,0.1,1.6
		v3.6h-1.5v-3.8c0-0.9-0.1-1.4-0.3-1.7c-0.2-0.2-0.4-0.3-0.8-0.3c-0.5,0-1,0.2-1.5,0.5v5.2H70v-6.8h1.3v0.5c0.6-0.5,1.3-0.7,2-0.7
		c0.7,0,1.3,0.3,1.7,0.8c0.8-0.5,1.5-0.8,2.3-0.8c0.7,0,1.3,0.2,1.7,0.6c0.3,0.3,0.5,0.8,0.6,1.3c0.1,0.3,0.1,0.9,0.1,1.7V236.2z"/>
	<path class="st1" d="M87.5,232.7c0,1.1-0.3,2-1,2.7c-0.6,0.7-1.5,1-2.6,1c-0.8,0-1.6-0.2-2.7-0.5v-9.8h1.5v3.6
		c0.5-0.3,1.1-0.5,1.7-0.5c0.9,0,1.6,0.3,2.1,0.9C87.3,230.8,87.5,231.6,87.5,232.7z M86,232.7c0-0.7-0.2-1.2-0.5-1.6
		c-0.3-0.4-0.7-0.6-1.2-0.6c-0.5,0-1,0.2-1.4,0.5v4c0.4,0.1,0.8,0.2,1.1,0.2c0.6,0,1.1-0.2,1.5-0.7C85.8,234,86,233.4,86,232.7z"/>
	<path class="st1" d="M94.8,232.7c0,0.1,0,0.2,0,0.3c0,0.1,0,0.2,0,0.2h-4.6c0,0.5,0.1,0.9,0.4,1.3c0.4,0.4,0.9,0.6,1.5,0.6
		c0.6,0,1.2-0.2,1.9-0.5l0.5,1c-0.7,0.5-1.5,0.7-2.5,0.7c-1,0-1.9-0.3-2.4-1c-0.6-0.6-0.9-1.5-0.9-2.5c0-1.1,0.3-1.9,0.9-2.6
		c0.6-0.7,1.4-1,2.3-1c0.9,0,1.6,0.3,2.1,0.9C94.6,230.8,94.8,231.6,94.8,232.7z M93.4,232.1c0-0.4-0.1-0.8-0.3-1.1
		c-0.3-0.4-0.7-0.7-1.2-0.7c-0.5,0-0.9,0.2-1.2,0.5c-0.3,0.3-0.5,0.7-0.6,1.3H93.4z"/>
	<path class="st1" d="M100.6,229.4l-0.3,1.2c-0.1,0-0.3,0-0.5,0c-0.8,0-1.5,0.3-2,1v4.7h-1.5v-6.8h1.3v0.9c0.1-0.2,0.3-0.4,0.6-0.6
		c0.5-0.3,1-0.5,1.6-0.5C100.1,229.2,100.3,229.3,100.6,229.4z"/>
</g>
<g>
	<path class="st1" d="M106.2,234.3c0,0.7-0.2,1.2-0.7,1.6c-0.5,0.4-1.1,0.6-1.9,0.6c-0.6,0-1.2-0.1-1.8-0.3
		c-0.3-0.1-0.6-0.3-0.7-0.4l0.5-1c0.7,0.4,1.3,0.5,1.8,0.5c0.4,0,0.7-0.1,0.9-0.2c0.2-0.2,0.3-0.4,0.3-0.6s-0.1-0.4-0.4-0.6
		c-0.1-0.1-0.5-0.3-1.1-0.5c-0.5-0.2-0.9-0.5-1.2-0.7c-0.4-0.4-0.6-0.8-0.6-1.4c0-0.6,0.2-1.1,0.7-1.5c0.5-0.4,1.1-0.6,1.8-0.6
		c1,0,1.7,0.2,2.2,0.6l-0.5,1c-0.5-0.3-1.1-0.5-1.6-0.5c-0.7,0-1.1,0.3-1.1,0.8c0,0.2,0.1,0.4,0.3,0.6c0.1,0.1,0.4,0.2,0.9,0.4
		c0.7,0.3,1.1,0.5,1.4,0.7C105.9,233.2,106.2,233.7,106.2,234.3z"/>
	<path class="st1" d="M112.8,236.2h-1.6v-9.3h1.6V236.2z"/>
	<path class="st1" d="M120.5,236.2H119v-3.7c0-0.9-0.1-1.5-0.3-1.7s-0.5-0.3-0.9-0.3c-0.5,0-1,0.2-1.5,0.5v5.2h-1.5v-6.8h1.3v0.5
		c0.6-0.5,1.3-0.7,2-0.7c0.7,0,1.3,0.2,1.7,0.6c0.3,0.3,0.5,0.7,0.6,1.2c0.1,0.3,0.1,0.7,0.1,1.4V236.2z"/>
	<path class="st1" d="M126.8,234.3c0,0.7-0.2,1.2-0.7,1.6c-0.5,0.4-1.1,0.6-1.9,0.6c-0.6,0-1.2-0.1-1.8-0.3
		c-0.3-0.1-0.6-0.3-0.7-0.4l0.5-1c0.7,0.4,1.3,0.5,1.8,0.5c0.4,0,0.7-0.1,0.9-0.2c0.2-0.2,0.3-0.4,0.3-0.6s-0.1-0.4-0.4-0.6
		c-0.1-0.1-0.5-0.3-1.1-0.5c-0.5-0.2-0.9-0.5-1.2-0.7c-0.4-0.4-0.6-0.8-0.6-1.4c0-0.6,0.2-1.1,0.7-1.5c0.5-0.4,1.1-0.6,1.8-0.6
		c1,0,1.7,0.2,2.2,0.6l-0.5,1c-0.5-0.3-1.1-0.5-1.6-0.5c-0.7,0-1.1,0.3-1.1,0.8c0,0.2,0.1,0.4,0.3,0.6c0.1,0.1,0.4,0.2,0.9,0.4
		c0.7,0.3,1.1,0.5,1.4,0.7C126.6,233.2,126.8,233.7,126.8,234.3z"/>
	<path class="st1" d="M134,236.2h-1.3v-0.5c-0.6,0.5-1.3,0.7-2,0.7c-0.7,0-1.3-0.2-1.7-0.6c-0.3-0.3-0.5-0.7-0.6-1.2
		c-0.1-0.3-0.1-0.7-0.1-1.4v-3.8h1.5v3.7c0,0.5,0,0.8,0,0.9c0,0.4,0.2,0.7,0.4,0.8c0.2,0.2,0.5,0.2,0.8,0.2c0.4,0,0.9-0.2,1.5-0.5
		v-5.2h1.5V236.2z"/>
	<path class="st1" d="M140.1,229.4l-0.3,1.2c-0.1,0-0.3,0-0.5,0c-0.8,0-1.5,0.3-2,1v4.7h-1.5v-6.8h1.3v0.9c0.1-0.2,0.3-0.4,0.6-0.6
		c0.5-0.3,1-0.5,1.6-0.5C139.6,229.2,139.9,229.3,140.1,229.4z"/>
</g>
<g>
	<path class="st1" d="M146.1,236.2h-1.3v-0.5c-0.7,0.4-1.3,0.6-2,0.6c-0.7,0-1.2-0.2-1.6-0.6c-0.4-0.4-0.6-0.9-0.6-1.6
		c0-1.6,1.3-2.4,3.8-2.4h0.3v-0.3c0-0.4-0.1-0.7-0.2-0.9c-0.2-0.2-0.6-0.3-1.1-0.3c-0.6,0-1.2,0.2-1.8,0.5l-0.5-1
		c0.2-0.1,0.4-0.3,0.7-0.4c0.5-0.2,1.1-0.3,1.8-0.3c0.9,0,1.6,0.2,2.1,0.7c0.2,0.2,0.4,0.5,0.5,0.9c0,0.2,0.1,0.6,0.1,1.2V236.2z
		 M144.6,234.7v-1.8h-0.3c-1.1,0-1.8,0.2-2.1,0.5c-0.2,0.2-0.3,0.4-0.3,0.7c0,0.3,0.1,0.6,0.3,0.8c0.2,0.2,0.5,0.3,0.9,0.3
		C143.6,235.2,144.1,235,144.6,234.7z"/>
	<path class="st1" d="M153.5,236.2H152v-3.7c0-0.9-0.1-1.5-0.3-1.7c-0.2-0.2-0.5-0.3-0.9-0.3c-0.5,0-1,0.2-1.5,0.5v5.2h-1.5v-6.8
		h1.3v0.5c0.6-0.5,1.3-0.7,2-0.7c0.7,0,1.3,0.2,1.7,0.6c0.3,0.3,0.5,0.7,0.6,1.2c0.1,0.3,0.1,0.7,0.1,1.4V236.2z"/>
	<path class="st1" d="M160.8,235.6c-0.1,0.1-0.3,0.3-0.7,0.4c-0.6,0.3-1.2,0.4-1.8,0.4c-1,0-1.8-0.3-2.5-1s-0.9-1.5-0.9-2.5
		c0-1.1,0.3-2,1-2.6s1.5-1,2.5-1c0.6,0,1.1,0.1,1.6,0.3c0.3,0.2,0.6,0.3,0.7,0.4l-0.6,1c-0.5-0.3-1-0.5-1.5-0.5
		c-0.6,0-1.1,0.2-1.5,0.7c-0.4,0.4-0.5,1-0.5,1.6c0,0.7,0.2,1.2,0.5,1.7c0.4,0.4,0.9,0.6,1.5,0.6c0.5,0,1.1-0.2,1.7-0.5L160.8,235.6
		z"/>
</g>
<g>
	<path class="st1" d="M167.6,232.7c0,0.1,0,0.2,0,0.3c0,0.1,0,0.2,0,0.2H163c0,0.5,0.1,0.9,0.4,1.3c0.4,0.4,0.9,0.6,1.5,0.6
		c0.6,0,1.2-0.2,1.9-0.5l0.5,1c-0.7,0.5-1.5,0.7-2.5,0.7c-1,0-1.9-0.3-2.4-1c-0.6-0.6-0.9-1.5-0.9-2.5c0-1.1,0.3-1.9,0.9-2.6
		c0.6-0.7,1.4-1,2.3-1c0.9,0,1.6,0.3,2.1,0.9S167.6,231.6,167.6,232.7z M166.1,232.1c0-0.4-0.1-0.8-0.3-1.1
		c-0.3-0.4-0.7-0.7-1.2-0.7c-0.5,0-0.9,0.2-1.2,0.5c-0.3,0.3-0.5,0.7-0.6,1.3H166.1z"/>
	<path class="st1" d="M178.8,229.7c0,0.9-0.3,1.6-0.8,2.1c-0.4,0.4-0.9,0.6-1.4,0.8c-0.3,0.1-0.9,0.1-1.7,0.1h-0.7v3.6h-1.6v-9.3
		h2.5c0.8,0,1.3,0,1.7,0.1c0.5,0.1,1,0.3,1.3,0.7C178.5,228.2,178.8,228.9,178.8,229.7z M177.1,229.7c0-0.5-0.1-0.9-0.4-1.2
		c-0.3-0.3-0.8-0.4-1.7-0.4h-0.9v3.2h0.7c1,0,1.7-0.1,1.9-0.4C177,230.6,177.1,230.2,177.1,229.7z"/>
	<path class="st1" d="M181.9,236.2h-1.5v-10.1h1.5V236.2z"/>
	<path class="st1" d="M188.9,236.2h-1.3v-0.5c-0.7,0.4-1.3,0.6-2,0.6c-0.7,0-1.2-0.2-1.6-0.6c-0.4-0.4-0.6-0.9-0.6-1.6
		c0-1.6,1.3-2.4,3.8-2.4h0.3v-0.3c0-0.4-0.1-0.7-0.2-0.9c-0.2-0.2-0.6-0.3-1.1-0.3c-0.6,0-1.2,0.2-1.8,0.5l-0.5-1
		c0.2-0.1,0.4-0.3,0.7-0.4c0.5-0.2,1.1-0.3,1.8-0.3c0.9,0,1.6,0.2,2.1,0.7c0.2,0.2,0.4,0.5,0.5,0.9c0,0.2,0.1,0.6,0.1,1.2V236.2z
		 M187.5,234.7v-1.8h-0.3c-1.1,0-1.8,0.2-2.1,0.5c-0.2,0.2-0.3,0.4-0.3,0.7c0,0.3,0.1,0.6,0.3,0.8c0.2,0.2,0.5,0.3,0.9,0.3
		C186.4,235.2,186.9,235,187.5,234.7z"/>
	<path class="st1" d="M196.3,236.2h-1.5v-3.7c0-0.9-0.1-1.5-0.3-1.7s-0.5-0.3-0.9-0.3c-0.5,0-1,0.2-1.5,0.5v5.2h-1.5v-6.8h1.3v0.5
		c0.6-0.5,1.3-0.7,2-0.7c0.7,0,1.3,0.2,1.7,0.6c0.3,0.3,0.5,0.7,0.6,1.2c0.1,0.3,0.1,0.7,0.1,1.4V236.2z"/>
	<path class="st1" d="M202.6,234.3c0,0.7-0.2,1.2-0.7,1.6c-0.5,0.4-1.1,0.6-1.9,0.6c-0.6,0-1.2-0.1-1.8-0.3
		c-0.3-0.1-0.6-0.3-0.7-0.4l0.5-1c0.7,0.4,1.3,0.5,1.8,0.5c0.4,0,0.7-0.1,0.9-0.2c0.2-0.2,0.3-0.4,0.3-0.6s-0.1-0.4-0.4-0.6
		c-0.1-0.1-0.5-0.3-1.1-0.5c-0.5-0.2-0.9-0.5-1.2-0.7c-0.4-0.4-0.6-0.8-0.6-1.4c0-0.6,0.2-1.1,0.7-1.5c0.5-0.4,1.1-0.6,1.8-0.6
		c1,0,1.7,0.2,2.2,0.6l-0.5,1c-0.5-0.3-1.1-0.5-1.6-0.5c-0.7,0-1.1,0.3-1.1,0.8c0,0.2,0.1,0.4,0.3,0.6c0.1,0.1,0.4,0.2,0.9,0.4
		c0.7,0.3,1.2,0.5,1.4,0.7C202.4,233.2,202.6,233.7,202.6,234.3z"/>
</g>
</svg>
