<?xml version="1.0" encoding="utf-8"?>
<!-- Generator: Adobe Illustrator 24.1.3, SVG Export Plug-In . SVG Version: 6.00 Build 0)  -->
<svg version="1.1" id="Layer_1" xmlns="http://www.w3.org/2000/svg" xmlns:xlink="http://www.w3.org/1999/xlink" x="0px" y="0px"
	 viewBox="0 0 300 250" style="enable-background:new 0 0 300 250;" xml:space="preserve">
<style type="text/css">
	.st0{fill:#349946;}
	.st1{fill:#231F20;}
</style>
<path class="st0" d="M26.2,236.4h-2.1l-0.7-2h-4.2l-0.7,2h-2.1l3.7-9.8h1.5c0.5,0,0.9,0.2,1,0.5c0.1,0.4,1.8,4.8,1.8,4.8h-2
	l-1.2-3.3l-1.5,4.2H24c0.6,0,0.9,0.2,1,0.7L26.2,236.4z"/>
<path class="st0" d="M44.8,236.4h-2.1l-0.7-2h-4.2l-0.7,2H35l3.7-9.8h1.5c0.5,0,0.9,0.2,1,0.5c0.1,0.4,1.8,4.8,1.8,4.8h-2l-1.2-3.3
	l-1.5,4.2h4.3c0.6,0,0.9,0.2,1,0.7L44.8,236.4z"/>
<path class="st0" d="M26.9,226.6h3.9c3,0,4.5,1.6,4.5,4.9c0,1.8-0.6,3.2-1.6,4c-1,0.8-2,0.9-3.4,0.9h-3.3V226.6z M30.5,234.6
	c1.9,0,2.7-0.9,2.7-3.1c0-2.2-0.8-3.2-2.4-3.2h-1.9v6.3H30.5z"/>
<g>
	<path class="st1" d="M61.6,236.3H60l-0.6-7l-2.4,7h-1.3l-2.5-7l-0.6,7h-1.4l0.9-9.3h1.8l2.5,7.2l2.4-7.2h1.8L61.6,236.3z"/>
	<path class="st1" d="M69.2,232.8c0,0.1,0,0.2,0,0.3c0,0.1,0,0.2,0,0.2h-4.6c0,0.5,0.1,0.9,0.4,1.3c0.4,0.4,0.9,0.6,1.5,0.6
		c0.6,0,1.2-0.2,1.9-0.5l0.5,1c-0.7,0.5-1.5,0.7-2.5,0.7c-1,0-1.9-0.3-2.5-1c-0.6-0.6-0.9-1.5-0.9-2.5c0-1.1,0.3-1.9,0.9-2.6
		c0.6-0.7,1.4-1,2.3-1c0.9,0,1.6,0.3,2.2,0.9C68.9,230.9,69.2,231.7,69.2,232.8z M67.7,232.2c0-0.4-0.1-0.8-0.3-1.1
		c-0.3-0.4-0.7-0.7-1.2-0.7c-0.5,0-0.9,0.2-1.2,0.5c-0.3,0.3-0.5,0.7-0.6,1.3H67.7z"/>
	<path class="st1" d="M80.3,236.3h-1.5v-3.9c0-0.8-0.1-1.3-0.3-1.5c-0.2-0.2-0.5-0.3-0.8-0.3c-0.5,0-1,0.2-1.5,0.5
		c0.1,0.2,0.1,0.7,0.1,1.5v3.6h-1.5v-3.8c0-0.9-0.1-1.4-0.3-1.7c-0.2-0.2-0.4-0.3-0.8-0.3c-0.5,0-1,0.2-1.5,0.5v5.2h-1.5v-6.8H72
		v0.5c0.6-0.5,1.3-0.7,2-0.7c0.7,0,1.3,0.3,1.7,0.8c0.8-0.5,1.5-0.8,2.3-0.8c0.7,0,1.3,0.2,1.7,0.6c0.3,0.3,0.5,0.8,0.6,1.3
		c0.1,0.3,0.1,0.9,0.1,1.7V236.3z"/>
	<path class="st1" d="M88.3,232.8c0,1.1-0.3,2-1,2.7c-0.7,0.7-1.5,1-2.6,1c-0.8,0-1.6-0.2-2.7-0.5v-9.8h1.5v3.6
		c0.5-0.3,1.1-0.5,1.7-0.5c0.9,0,1.6,0.3,2.1,0.9C88,230.9,88.3,231.7,88.3,232.8z M86.7,232.8c0-0.7-0.2-1.2-0.5-1.6
		c-0.3-0.4-0.7-0.6-1.2-0.6c-0.5,0-1,0.2-1.4,0.5v4c0.4,0.1,0.8,0.2,1.1,0.2c0.6,0,1.1-0.2,1.5-0.7
		C86.5,234.1,86.7,233.5,86.7,232.8z"/>
	<path class="st1" d="M95.6,232.8c0,0.1,0,0.2,0,0.3c0,0.1,0,0.2,0,0.2h-4.6c0,0.5,0.1,0.9,0.4,1.3c0.4,0.4,0.9,0.6,1.5,0.6
		c0.6,0,1.2-0.2,1.9-0.5l0.5,1c-0.7,0.5-1.5,0.7-2.5,0.7c-1,0-1.9-0.3-2.5-1c-0.6-0.6-0.9-1.5-0.9-2.5c0-1.1,0.3-1.9,0.9-2.6
		c0.6-0.7,1.4-1,2.3-1c0.9,0,1.6,0.3,2.2,0.9C95.3,230.9,95.6,231.7,95.6,232.8z M94.1,232.2c0-0.4-0.1-0.8-0.3-1.1
		c-0.3-0.4-0.7-0.7-1.2-0.7c-0.5,0-0.9,0.2-1.2,0.5c-0.3,0.3-0.5,0.7-0.6,1.3H94.1z"/>
	<path class="st1" d="M101.3,229.5l-0.3,1.2c-0.1,0-0.3,0-0.5,0c-0.8,0-1.5,0.3-2,1v4.7H97v-6.8h1.3v0.9c0.1-0.2,0.3-0.4,0.6-0.6
		c0.5-0.3,1-0.5,1.6-0.5C100.9,229.3,101.1,229.4,101.3,229.5z"/>
</g>
<g>
	<path class="st1" d="M106.9,234.4c0,0.7-0.2,1.2-0.7,1.6s-1.1,0.6-1.9,0.6c-0.6,0-1.2-0.1-1.8-0.3c-0.3-0.1-0.6-0.3-0.7-0.4l0.5-1
		c0.7,0.4,1.3,0.5,1.8,0.5c0.4,0,0.7-0.1,0.9-0.2s0.3-0.4,0.3-0.6c0-0.2-0.1-0.4-0.4-0.6c-0.1-0.1-0.5-0.3-1.1-0.5
		c-0.5-0.2-0.9-0.5-1.2-0.7c-0.4-0.4-0.6-0.8-0.6-1.4c0-0.6,0.2-1.1,0.7-1.5c0.5-0.4,1.1-0.6,1.8-0.6c1,0,1.7,0.2,2.2,0.6l-0.5,1
		c-0.5-0.3-1.1-0.5-1.6-0.5c-0.7,0-1.1,0.3-1.1,0.8c0,0.2,0.1,0.4,0.3,0.6c0.1,0.1,0.4,0.2,0.9,0.4c0.7,0.3,1.2,0.5,1.4,0.7
		C106.7,233.3,106.9,233.8,106.9,234.4z"/>
	<path class="st1" d="M113.6,236.3H112V227h1.6V236.3z"/>
	<path class="st1" d="M121.4,236.3h-1.5v-3.7c0-0.9-0.1-1.5-0.3-1.7c-0.2-0.2-0.5-0.3-0.9-0.3c-0.5,0-1,0.2-1.5,0.5v5.2h-1.5v-6.8
		h1.3v0.5c0.6-0.5,1.3-0.7,2-0.7c0.7,0,1.3,0.2,1.7,0.6c0.3,0.3,0.5,0.7,0.6,1.2c0.1,0.3,0.1,0.7,0.1,1.4V236.3z"/>
	<path class="st1" d="M127.6,234.4c0,0.7-0.2,1.2-0.7,1.6s-1.1,0.6-1.9,0.6c-0.6,0-1.2-0.1-1.8-0.3c-0.3-0.1-0.6-0.3-0.7-0.4l0.5-1
		c0.7,0.4,1.3,0.5,1.8,0.5c0.4,0,0.7-0.1,0.9-0.2s0.3-0.4,0.3-0.6c0-0.2-0.1-0.4-0.4-0.6c-0.1-0.1-0.5-0.3-1.1-0.5
		c-0.5-0.2-0.9-0.5-1.2-0.7c-0.4-0.4-0.6-0.8-0.6-1.4c0-0.6,0.2-1.1,0.7-1.5c0.5-0.4,1.1-0.6,1.8-0.6c1,0,1.7,0.2,2.2,0.6l-0.5,1
		c-0.5-0.3-1.1-0.5-1.6-0.5c-0.7,0-1.1,0.3-1.1,0.8c0,0.2,0.1,0.4,0.3,0.6c0.1,0.1,0.4,0.2,0.9,0.4c0.7,0.3,1.2,0.5,1.4,0.7
		C127.4,233.3,127.6,233.8,127.6,234.4z"/>
	<path class="st1" d="M134.9,236.3h-1.3v-0.5c-0.6,0.5-1.3,0.7-2,0.7c-0.7,0-1.3-0.2-1.7-0.6c-0.3-0.3-0.5-0.7-0.6-1.2
		c-0.1-0.3-0.1-0.7-0.1-1.4v-3.8h1.5v3.7c0,0.5,0,0.8,0,0.9c0,0.4,0.2,0.7,0.4,0.8c0.2,0.2,0.5,0.2,0.8,0.2c0.4,0,0.9-0.2,1.5-0.5
		v-5.2h1.5V236.3z"/>
	<path class="st1" d="M141,229.5l-0.3,1.2c-0.1,0-0.3,0-0.5,0c-0.8,0-1.5,0.3-2,1v4.7h-1.5v-6.8h1.3v0.9c0.1-0.2,0.3-0.4,0.6-0.6
		c0.5-0.3,1-0.5,1.6-0.5C140.5,229.3,140.8,229.4,141,229.5z"/>
</g>
<g>
	<path class="st1" d="M147,236.3h-1.3v-0.5c-0.7,0.4-1.3,0.6-2,0.6c-0.7,0-1.2-0.2-1.6-0.6c-0.4-0.4-0.6-0.9-0.6-1.6
		c0-1.6,1.3-2.4,3.8-2.4h0.3v-0.3c0-0.4-0.1-0.7-0.2-0.9c-0.2-0.2-0.6-0.3-1.1-0.3c-0.6,0-1.2,0.2-1.8,0.5l-0.5-1
		c0.2-0.1,0.4-0.3,0.7-0.4c0.5-0.2,1.1-0.3,1.8-0.3c0.9,0,1.6,0.2,2.1,0.7c0.2,0.2,0.4,0.5,0.5,0.9c0,0.2,0.1,0.6,0.1,1.2V236.3z
		 M145.6,234.8V233h-0.3c-1.1,0-1.8,0.2-2.1,0.5c-0.2,0.2-0.3,0.4-0.3,0.7c0,0.3,0.1,0.6,0.3,0.8s0.5,0.3,0.9,0.3
		C144.5,235.3,145,235.1,145.6,234.8z"/>
	<path class="st1" d="M154.5,236.3h-1.5v-3.7c0-0.9-0.1-1.5-0.3-1.7s-0.5-0.3-0.9-0.3c-0.5,0-1,0.2-1.5,0.5v5.2h-1.5v-6.8h1.3v0.5
		c0.6-0.5,1.3-0.7,2-0.7c0.7,0,1.3,0.2,1.7,0.6c0.3,0.3,0.5,0.7,0.6,1.2c0.1,0.3,0.1,0.7,0.1,1.4V236.3z"/>
	<path class="st1" d="M161.7,235.7c-0.1,0.1-0.3,0.3-0.7,0.4c-0.6,0.3-1.2,0.4-1.8,0.4c-1,0-1.8-0.3-2.5-1c-0.6-0.6-0.9-1.5-0.9-2.5
		c0-1.1,0.3-2,1-2.6c0.7-0.7,1.5-1,2.5-1c0.6,0,1.1,0.1,1.6,0.3c0.3,0.2,0.6,0.3,0.7,0.4l-0.6,1c-0.5-0.3-1-0.5-1.5-0.5
		c-0.6,0-1.1,0.2-1.5,0.7c-0.4,0.4-0.5,1-0.5,1.6c0,0.7,0.2,1.2,0.5,1.7c0.4,0.4,0.9,0.6,1.5,0.6c0.5,0,1.1-0.2,1.7-0.5L161.7,235.7
		z"/>
</g>
<g>
	<path class="st1" d="M168.6,232.8c0,0.1,0,0.2,0,0.3c0,0.1,0,0.2,0,0.2h-4.6c0,0.5,0.1,0.9,0.4,1.3c0.4,0.4,0.9,0.6,1.5,0.6
		c0.6,0,1.2-0.2,1.9-0.5l0.5,1c-0.7,0.5-1.5,0.7-2.5,0.7c-1,0-1.9-0.3-2.5-1c-0.6-0.6-0.9-1.5-0.9-2.5c0-1.1,0.3-1.9,0.9-2.6
		s1.4-1,2.3-1c0.9,0,1.6,0.3,2.2,0.9C168.3,230.9,168.6,231.7,168.6,232.8z M167.1,232.2c0-0.4-0.1-0.8-0.3-1.1
		c-0.3-0.4-0.7-0.7-1.2-0.7c-0.5,0-0.9,0.2-1.2,0.5c-0.3,0.3-0.5,0.7-0.6,1.3H167.1z"/>
	<path class="st1" d="M179.8,229.8c0,0.9-0.3,1.5-0.8,2.1c-0.4,0.4-0.9,0.6-1.4,0.8c-0.3,0.1-0.9,0.1-1.7,0.1h-0.7v3.6h-1.6V227h2.5
		c0.8,0,1.3,0,1.7,0.1c0.5,0.1,1,0.3,1.3,0.7C179.5,228.3,179.8,229,179.8,229.8z M178.2,229.8c0-0.5-0.1-0.9-0.4-1.2
		c-0.3-0.3-0.8-0.4-1.7-0.4h-0.9v3.2h0.7c1,0,1.7-0.1,1.9-0.4C178,230.8,178.2,230.4,178.2,229.8z"/>
	<path class="st1" d="M183,236.3h-1.5v-10.1h1.5V236.3z"/>
	<path class="st1" d="M190,236.3h-1.3v-0.5c-0.7,0.4-1.3,0.6-2,0.6c-0.7,0-1.2-0.2-1.6-0.6c-0.4-0.4-0.6-0.9-0.6-1.6
		c0-1.6,1.3-2.4,3.8-2.4h0.3v-0.3c0-0.4-0.1-0.7-0.2-0.9c-0.2-0.2-0.6-0.3-1.1-0.3c-0.6,0-1.2,0.2-1.8,0.5l-0.5-1
		c0.2-0.1,0.4-0.3,0.7-0.4c0.5-0.2,1.1-0.3,1.8-0.3c0.9,0,1.6,0.2,2.1,0.7c0.2,0.2,0.4,0.5,0.5,0.9c0,0.2,0.1,0.6,0.1,1.2V236.3z
		 M188.5,234.8V233h-0.3c-1.1,0-1.8,0.2-2.1,0.5c-0.2,0.2-0.3,0.4-0.3,0.7c0,0.3,0.1,0.6,0.3,0.8c0.2,0.2,0.5,0.3,0.9,0.3
		C187.4,235.3,187.9,235.1,188.5,234.8z"/>
	<path class="st1" d="M197.4,236.3h-1.5v-3.7c0-0.9-0.1-1.5-0.3-1.7c-0.2-0.2-0.5-0.3-0.9-0.3c-0.5,0-1,0.2-1.5,0.5v5.2h-1.5v-6.8
		h1.3v0.5c0.6-0.5,1.3-0.7,2-0.7c0.7,0,1.3,0.2,1.7,0.6c0.3,0.3,0.5,0.7,0.6,1.2c0.1,0.3,0.1,0.7,0.1,1.4V236.3z"/>
	<path class="st1" d="M203.7,234.4c0,0.7-0.2,1.2-0.7,1.6c-0.5,0.4-1.1,0.6-1.9,0.6c-0.6,0-1.2-0.1-1.8-0.3
		c-0.3-0.1-0.6-0.3-0.7-0.4l0.5-1c0.7,0.4,1.3,0.5,1.8,0.5c0.4,0,0.7-0.1,0.9-0.2s0.3-0.4,0.3-0.6c0-0.2-0.1-0.4-0.4-0.6
		c-0.1-0.1-0.5-0.3-1.1-0.5c-0.5-0.2-0.9-0.5-1.2-0.7c-0.4-0.4-0.6-0.8-0.6-1.4c0-0.6,0.2-1.1,0.7-1.5c0.5-0.4,1.1-0.6,1.8-0.6
		c1,0,1.7,0.2,2.2,0.6l-0.5,1c-0.5-0.3-1.1-0.5-1.6-0.5c-0.7,0-1.1,0.3-1.1,0.8c0,0.2,0.1,0.4,0.3,0.6c0.1,0.1,0.4,0.2,0.9,0.4
		c0.7,0.3,1.2,0.5,1.4,0.7C203.5,233.3,203.7,233.8,203.7,234.4z"/>
</g>
</svg>
