<svg xmlns="http://www.w3.org/2000/svg" viewBox="0 0 172.7 149"><path d="M92.3 117.5c0-1.8.1-3.7.1-5.6-3 12.3-3.3 21.3-1.7 29.4-11.4-6-17.7-16.4-20.7-33.2-.1 2.9 0 5.8.4 8.6-37.7-5-66.2-28.4-66.2-56.6 0-31.8 36.4-57.6 81.4-57.6 44.9 0 81.3 25.8 81.3 57.6 0 30.2-32.8 54.9-74.6 57.4m80.4-56.4C172.7 27.4 134 0 86.3 0 38.7 0 0 27.4 0 61.1c0 30.1 30.7 55.1 71.2 60.2 2.7 11.9 10.3 21.7 25.3 27.7-2.8-9-3.9-17.6-4.1-26.9 44.8-2.2 80.3-28.6 80.3-61"/><path d="M166.9 60.1c0 30.2-32.8 54.9-74.6 57.4 0-1.8.1-3.7.1-5.6-3 12.3-3.3 21.3-1.7 29.4-11.4-6-17.7-16.4-20.7-33.2-.1 2.9 0 5.8.4 8.6-37.7-5-66.2-28.4-66.2-56.6 0-31.8 36.4-57.6 81.4-57.6 44.9 0 81.3 25.8 81.3 57.6" fill="#fff"/></svg>