<svg version="1.1" id="Layer_1" xmlns="http://www.w3.org/2000/svg" x="0" y="0" viewBox="0 0 728 90" xml:space="preserve"><style>.st0{fill:#fff}</style><path class="st0" d="M181.8 33.9c-1.6 1.6-3.7 1.6-6 1.6H171V18.9h5.4c1.9 0 3.6.1 4.8 1.3 1 1 1.2 2 1.2 3.2 0 2.9-2 3.5-2.3 3.6.4.1 2.8.6 2.8 3.5.1 1.6-.4 2.7-1.1 3.4zm-5.6-12.2h-1.8v4.2h.5c1.9 0 4.1.2 4.1-2.1 0-2.2-1.7-2.1-2.8-2.1zm2.7 7.4c-.6-.6-1.3-.7-2.9-.7h-1.6v4.3h1.9c1.7 0 2.1-.3 2.6-.7.4-.3.5-.9.5-1.4 0-.5-.1-1.1-.5-1.5zM193.4 35.6v-.9c-.2.1-1.7 1.3-3.5 1.3-1.3 0-2.4-.4-3.2-1.2-1.4-1.4-1.3-3.2-1.3-4.8v-6.6h3.4v6.5c0 1.6.1 2.4.5 2.8.2.1.5.4 1.3.4 1.1 0 2.1-.6 2.3-.8v-9h3.4v12.3h-2.9zM204.5 35.9c-1.1 0-2.3-.3-3.2-1.1-1-1-1-2.2-1-3.9v-4.8h-2.1v-2.8h2.1v-3.4h3.4v3.4h3.5v2.8h-3.5V31c0 1 .1 2.1 1.5 2.1.8 0 1.3-.2 1.5-.3l.9 2.3c-.1.1-1.3.8-3.1.8zM222.9 35.7c-.9 2.4-1.5 3.5-2.4 4.4-.5.5-1.6 1.3-3.6 1.3-1.8 0-3-.7-3.1-.8l1-2.4c.2.1.9.4 1.9.4.7 0 1.3-.2 1.7-.6.6-.6 1-1.9 1.2-2.4l-5.1-12.3h3.6l3.3 8.6 3.1-8.6h3.3l-4.9 12.4zM234.5 35.9c-3.6 0-6.1-2.6-6.1-6.4 0-3.8 2.6-6.6 6.4-6.6 3.6 0 6.1 2.7 6.1 6.4 0 3.9-2.6 6.6-6.4 6.6zm.1-10.2c-1.7 0-2.8 1.5-2.8 3.7s1.2 3.7 3 3.7 2.8-1.4 2.8-3.7c-.1-2.2-1.3-3.7-3-3.7zM251 35.6v-.9c-.2.1-1.7 1.3-3.5 1.3-1.3 0-2.4-.4-3.2-1.2-1.4-1.4-1.3-3.2-1.3-4.8v-6.6h3.4v6.5c0 1.6.1 2.4.5 2.8.1.1.5.4 1.3.4 1.1 0 2.1-.6 2.3-.8v-9h3.4v12.3H251zM269.9 35.6v-6.5c0-1.6-.1-2.4-.5-2.8-.1-.1-.5-.4-1.3-.4-1.1 0-2.1.6-2.3.8v9h-3.4V23.3h2.9v.9c.2-.1 1.7-1.3 3.5-1.3 1.3 0 2.4.4 3.2 1.2 1.4 1.4 1.3 3.2 1.3 4.8v6.6h-3.4zM286.7 30.5h-8.1c0 .9.7 2.8 3.1 2.8 1.5 0 2.7-.6 3.3-.9l1.1 2.1c-.1.1-1.9 1.3-4.7 1.3-4 0-6.1-2.8-6.1-6.4 0-3.8 2.4-6.6 5.9-6.6 3.6 0 5.5 2.5 5.5 6.5v1.2zm-5.4-5.1c-1.5 0-2.5 1.1-2.7 2.7h5c0-.7-.2-2.7-2.3-2.7zM299.8 30.5h-8.1c0 .9.7 2.8 3.1 2.8 1.5 0 2.7-.6 3.3-.9l1.1 2.1c-.1.1-1.9 1.3-4.7 1.3-4 0-6.1-2.8-6.1-6.4 0-3.8 2.4-6.6 5.9-6.6 3.6 0 5.5 2.5 5.5 6.5.1.7 0 1 0 1.2zm-5.4-5.1c-1.5 0-2.5 1.1-2.7 2.7h5c.1-.7-.2-2.7-2.3-2.7zM310.4 35.6v-.8c-.1.1-1.2 1.1-3.3 1.1-3.3 0-5.5-2.6-5.5-6.3 0-4 2.8-6.7 5.9-6.7 1.4 0 2.3.4 2.5.5v-5.9h3.4v18.1h-3zm-.4-9.4c-.1-.1-.9-.5-1.9-.5-1.8 0-3.1 1.3-3.1 3.8 0 2.4 1.3 3.6 2.9 3.6 1.1 0 2-.6 2.1-.6v-6.3zM327.2 35.9c-1.1 0-2.3-.3-3.2-1.1-1-1-1-2.2-1-3.9v-4.8h-2.1v-2.8h2.1v-3.4h3.4v3.4h3.5v2.8h-3.5V31c0 1 .1 2.1 1.5 2.1.8 0 1.3-.2 1.5-.3l.9 2.3c-.1.1-1.3.8-3.1.8zM337.6 35.9c-3.6 0-6.1-2.6-6.1-6.4 0-3.8 2.6-6.6 6.4-6.6 3.6 0 6.1 2.7 6.1 6.4 0 3.9-2.6 6.6-6.4 6.6zm.1-10.2c-1.7 0-2.8 1.5-2.8 3.7s1.2 3.7 3 3.7 2.8-1.4 2.8-3.7c-.1-2.2-1.3-3.7-3-3.7zM357.3 35.9c-1.1 0-2.3-.3-3.2-1.1-1-1-1-2.2-1-3.9v-4.8H351v-2.8h2.1v-3.4h3.4v3.4h3.5v2.8h-3.5V31c0 1 .1 2.1 1.5 2.1.8 0 1.3-.2 1.5-.3l.9 2.3c-.1.1-1.3.8-3.1.8zM369.1 35.6v-.9c-.2.2-1.5 1.1-3.5 1.1-2.4 0-4-1.6-4-3.9 0-4.4 5.3-4.4 6.8-4.4h.3c0-.8 0-1.1-.4-1.4-.3-.3-.8-.5-1.7-.5-1.6 0-3.1.8-3.3.9l-1.1-2.1c.2-.1 1.8-1.3 4.7-1.3 1 0 2.8.2 4 1.4 1 1 1 2.3 1 3.9v7.4h-2.8zm-.2-5.9h-.5c-2.2 0-3.7.4-3.7 1.9 0 1.3 1.1 1.6 1.9 1.6 1.4 0 2.2-.7 2.3-.8v-2.7zM382.6 35.6l-4.4-5.8v5.8h-3.4V17.5h3.4v10.3l4.5-4.5h3.9l-5.4 5.4 5.5 6.9h-4.1zM398.2 30.5h-8.1c-.1.9.7 2.8 3.1 2.8 1.5 0 2.8-.6 3.3-.9l1.1 2.1c-.1.1-1.9 1.3-4.7 1.3-4 0-6.1-2.8-6.1-6.4 0-3.8 2.4-6.6 5.9-6.6 3.6 0 5.5 2.5 5.5 6.5v1.2zm-5.4-5.1c-1.5 0-2.5 1.1-2.7 2.7h5c0-.7-.2-2.7-2.3-2.7zM411.8 35.9c-3.6 0-6.1-2.6-6.1-6.4 0-3.8 2.6-6.6 6.4-6.6 3.6 0 6.1 2.7 6.1 6.4 0 3.9-2.6 6.6-6.4 6.6zm.1-10.2c-1.7 0-2.8 1.5-2.8 3.7s1.2 3.7 3 3.7c1.7 0 2.8-1.4 2.8-3.7-.1-2.2-1.3-3.7-3-3.7zM428 35.6v-6.5c0-1.6-.1-2.4-.5-2.8-.2-.1-.5-.4-1.3-.4-1.1 0-2.1.6-2.3.8v9h-3.4V23.3h2.9v.9c.2-.1 1.7-1.3 3.5-1.3 1.3 0 2.4.4 3.2 1.2 1.4 1.4 1.3 3.2 1.3 4.8v6.6H428zM444.8 30.5h-8.1c-.1.9.7 2.8 3.1 2.8 1.5 0 2.8-.6 3.3-.9l1.1 2.1c-.1.1-1.9 1.3-4.7 1.3-4 0-6.1-2.8-6.1-6.4 0-3.8 2.4-6.6 5.9-6.6 3.6 0 5.5 2.5 5.5 6.5.1.7 0 1 0 1.2zm-5.4-5.1c-1.5 0-2.5 1.1-2.7 2.7h5c0-.7-.2-2.7-2.3-2.7z"/><g><path class="st0" d="M185.2 61.6v-6.7c0-1.5 0-3-1.7-3-1 0-2 .7-2.2.9.1.5.1.7.1 2.7v6.2H178V55c0-1.5 0-3-1.7-3-1 0-1.9.6-2.1.7v9.1h-3.4V49.3h2.9v.9c.2-.2 1.6-1.3 3.4-1.3 1.9 0 2.8 1.1 3 1.3.2-.2 1.8-1.3 3.9-1.3 1 0 2.3.3 3.1 1.1 1.5 1.5 1.4 3.5 1.4 6.3v5.2h-3.3zM196.8 61.9c-3.6 0-6.1-2.6-6.1-6.4 0-3.8 2.6-6.6 6.4-6.6 3.6 0 6.1 2.7 6.1 6.4 0 3.9-2.6 6.6-6.4 6.6zm.1-10.2c-1.7 0-2.8 1.5-2.8 3.7s1.2 3.7 3 3.7 2.8-1.5 2.8-3.7c-.1-2.2-1.3-3.7-3-3.7zM213.1 51.8c-.1 0-.6-.1-.7-.1-2 0-3.1 1.2-3.4 1.8v8.1h-3.4V49.3h2.9v1.5c.1-.2 1.6-1.9 4.1-1.9.9 0 1.3.3 1.4.3l-.9 2.6zM225.8 56.5h-8.1c0 .9.7 2.8 3.1 2.8 1.5 0 2.7-.6 3.3-.9l1.1 2.1c-.1.1-1.9 1.3-4.7 1.3-4 0-6.1-2.8-6.1-6.4 0-3.8 2.4-6.6 5.9-6.6 3.6 0 5.5 2.5 5.5 6.5.1.7 0 1 0 1.2zm-5.4-5.1c-1.5 0-2.5 1.1-2.7 2.7h5c0-.7-.2-2.7-2.3-2.7zM244.7 56.5h-8.1c0 .9.7 2.8 3.1 2.8 1.5 0 2.7-.6 3.3-.9l1.1 2.1c-.1.1-1.9 1.3-4.7 1.3-4 0-6.1-2.8-6.1-6.4 0-3.8 2.4-6.6 5.9-6.6 3.6 0 5.5 2.5 5.5 6.5v1.2zm-5.4-5.1c-1.5 0-2.5 1.1-2.7 2.7h5c0-.7-.2-2.7-2.3-2.7zM253.8 61.6v-.9c-.2.2-1.5 1.2-3.5 1.2-2.4 0-4-1.6-4-3.9 0-4.4 5.3-4.4 6.8-4.4h.4c0-.8 0-1.1-.4-1.4-.3-.3-.8-.5-1.7-.5-1.6 0-3.1.8-3.3.9l-1.1-2.1c.2-.2 1.8-1.3 4.7-1.3 1 0 2.8.2 4 1.4 1 1 1 2.3 1 3.9v7.4h-2.9zm-.3-5.9h-.5c-2.2 0-3.7.4-3.7 1.9 0 1.3 1.1 1.6 1.9 1.6 1.4 0 2.2-.7 2.3-.8v-2.7zM263.3 61.9c-2.8 0-4.6-1.3-4.8-1.4l1.1-2.1c.2.1 1.6 1 3.2 1 1.5 0 1.9-.6 1.9-1.2 0-.8-.7-1-2.6-1.8-1.1-.4-3-1.2-3-3.6 0-2.3 1.9-3.9 4.8-3.9 2.7 0 4.1 1.1 4.1 1.1l-1.1 2.1c-.1-.1-1.5-.8-2.8-.8-1.2 0-1.6.6-1.6 1.1 0 .8.9 1.1 2.2 1.6 1.7.7 3.5 1.4 3.5 3.9-.1 2.5-1.9 4-4.9 4zM277.9 61.7c-.9 2.4-1.5 3.5-2.4 4.4-.5.5-1.6 1.3-3.6 1.3-1.8 0-3-.7-3.1-.8l1-2.4c.2.1.9.4 1.9.4.7 0 1.3-.2 1.7-.6.6-.6 1-1.9 1.2-2.4l-5.1-12.3h3.6l3.3 8.6 3.1-8.6h3.3l-4.9 12.4zM294.3 61.9c-2.8 0-4.6-1.3-4.8-1.4l1.1-2.1c.2.1 1.6 1 3.2 1 1.5 0 1.9-.6 1.9-1.2 0-.8-.7-1-2.6-1.8-1.1-.4-3-1.2-3-3.6 0-2.3 1.9-3.9 4.8-3.9 2.7 0 4.1 1.1 4.1 1.1l-1.1 2.1c-.1-.1-1.5-.8-2.8-.8-1.2 0-1.6.6-1.6 1.1 0 .8.9 1.1 2.2 1.6 1.7.7 3.5 1.4 3.5 3.9s-1.9 4-4.9 4zM307 61.9c-1.1 0-2.3-.3-3.2-1.1-1-1-1-2.2-1-3.9v-4.8h-2.1v-2.8h2.1v-3.4h3.4v3.4h3.5v2.8h-3.5V57c0 1 .1 2.1 1.5 2.1.8 0 1.3-.2 1.5-.3l.9 2.3c-.1.1-1.3.8-3.1.8zM322.7 56.5h-8.1c0 .9.7 2.8 3.1 2.8 1.5 0 2.7-.6 3.3-.9l1.1 2.1c-.1.1-1.9 1.3-4.7 1.3-4 0-6.1-2.8-6.1-6.4 0-3.8 2.4-6.6 5.9-6.6 3.6 0 5.5 2.5 5.5 6.5v1.2zm-5.4-5.1c-1.5 0-2.5 1.1-2.7 2.7h5c0-.7-.2-2.7-2.3-2.7zM330.9 61.9c-1.4 0-2.3-.4-2.5-.5V67H325V49.3h2.9v.7c.1-.1 1.2-1.1 3.3-1.1 3.3 0 5.5 2.6 5.5 6.3.1 4-2.7 6.7-5.8 6.7zm-.4-10.2c-1.1 0-2 .6-2.1.7v6.3c.1 0 .9.5 1.9.5 1.8 0 3.1-1.3 3.1-3.8 0-2.4-1.3-3.7-2.9-3.7zM340.7 61.7c-1.1 0-2.1-.9-2.1-2.1s.9-2 2.1-2 2 .9 2 2-.9 2.1-2 2.1z"/></g></svg>