<svg xmlns="http://www.w3.org/2000/svg" viewBox="0 0 728 90"><path d="M51.5 34.5c-.1-.7-.2-1.5-.2-2.3 0-.8.1-1.7.2-2.6.1-.9.3-1.9.5-2.8s.4-1.9.7-2.9.5-1.9.8-2.8c.1-.4.3-.7.5-.7.2-.1.6 0 1.1.1.5.1.9.3 1.3.5s.8.4 1.2.7c.8.6 1.1 1.3.9 2.1-.2.7-.5 1.5-.8 2.4-.3.9-.5 1.7-.8 2.6s-.4 1.7-.6 2.6c-.2.8-.3 1.6-.3 2.3 0 .7 0 1.2.1 1.7.1.4.3.7.7.8.4.1.8-.1 1.2-.6.4-.5.8-1.1 1.2-2 .4-.8.7-1.8 1-2.9s.6-2.2.9-3.4.5-2.3.8-3.4c.2-1.1.4-2.1.6-3 0-.4.2-.7.5-.8s.7-.1 1.1 0c.4.1.9.3 1.4.5.5.2 1 .5 1.4.7.2.1.4.2.5.4.1.1.2.2.2.3 0 .1.1.2 0 .4 0 .1 0 .3-.1.5-.5 2-.9 3.9-1.4 5.6-.5 1.7-1 3.2-1.5 4.5-.5 1.3-1.1 2.4-1.7 3.3-.6.9-1.3 1.5-2.1 1.9-.5.2-1.1.4-1.6.5-.5.1-1.2.1-1.9.1-1.4-.1-2.5-.4-3.4-.8-.4-.2-.8-.4-1.1-.7s-.6-.6-.9-1c0-.5-.2-1.1-.4-1.8zM82.9 26.2c-.4 1.3-.9 2.7-1.3 4.1l-1.2 4.2c-.4 1.4-.7 2.7-1.1 3.9 0 .2-.1.3-.2.4-.1.1-.3.1-.5.1s-.4 0-.7-.1c-.3-.1-.6-.1-.9-.2-.6-.2-1.1-.4-1.5-.6-.4-.2-.5-.6-.3-1.1.1-.5.2-1.1.3-1.8s.3-1.4.4-2.2c-.7.1-1.3.2-1.9.2s-1.3.2-1.9.3c-.2 1-.5 1.9-.6 2.8-.2.9-.3 1.6-.4 2.3-.1.2-.2.4-.3.5s-.4.1-.8 0l-1.2-.3c-.4-.1-.8-.2-1.1-.4-.4-.2-.6-.3-.8-.5s-.2-.5-.1-.9c.2-1 .5-2.1.7-3.4.2-1.3.4-2.7.6-4.1.2-1.4.4-2.9.5-4.3.2-1.4.4-2.7.5-3.9.1-.5.3-.7.5-.8.2-.1.6 0 1 .1.5.1 1 .3 1.6.5.6.2 1.1.5 1.5.7.2.1.4.2.5.4l.3.3c.1.1.1.2.1.4s0 .3-.1.5c-.2.8-.5 1.8-.8 2.9-.3 1.1-.6 2.3-.9 3.5.7-.1 1.3-.1 1.9-.2s1.2-.1 1.8-.1c.4-1.5.8-3 1.1-4.5.4-1.5.7-2.8 1.1-4.1.1-.5.3-.7.6-.8.3-.1.6 0 1.1.1.5.1.9.3 1.4.5s.9.4 1.4.7c.4.3.6.5.7.7.1.2.1.5-.1.9-.1.8-.5 2-.9 3.3zM104.5 22.9c.3.5.5 1.1.6 1.7.2 1 .2 2.2.1 3.4s-.3 2.4-.7 3.6c-.4 1.2-.9 2.3-1.5 3.4s-1.4 2-2.3 2.7c-.6.4-1.3.7-2 .9s-1.5.2-2.4.1c-.6-.1-1.2-.1-1.8-.3s-1.2-.3-1.7-.5c-.4-.2-.8-.5-1.2-.8-.4-.3-.7-.7-1-1.1-.4-.7-.7-1.4-.8-2.2-.2-.8-.3-1.7-.3-2.6 0-.9.1-1.8.3-2.8.2-.9.5-1.9 1-2.8.4-.9.9-1.8 1.5-2.6s1.3-1.5 2.1-2.2c.5-.4 1.2-.7 1.9-.9s1.5-.2 2.2-.1c.9.1 1.7.3 2.5.6s1.5.6 2 1c.8.6 1.2 1.1 1.5 1.5zm-6.2 1.2c-.4.3-.8.8-1.2 1.4s-.8 1.3-1.1 2l-.9 2.1c-.2.7-.4 1.4-.5 2.1s-.1 1.4-.1 2c0 .6.1 1.2.3 1.6.2.4.5.7.8.8.3.1.7 0 1-.2.4-.2.7-.6 1.1-1 .4-.5.7-1.1 1-1.7.3-.7.6-1.4.8-2.3.2-.7.4-1.4.5-2.2.1-.8.2-1.6.2-2.3 0-.7-.1-1.3-.2-1.8s-.4-.8-.7-.9c-.2-.1-.6 0-1 .4zM121.5 26.2c-.4 1.3-.9 2.7-1.3 4.1l-1.2 4.2c-.4 1.4-.7 2.7-1.1 3.9 0 .2-.1.3-.2.4-.1.1-.3.1-.5.1s-.4 0-.7-.1c-.3-.1-.6-.1-.9-.2-.6-.2-1.1-.4-1.5-.6-.4-.2-.5-.6-.3-1.1.1-.5.2-1.1.3-1.8s.3-1.4.4-2.2c-.7.1-1.3.2-1.9.2s-1.3.2-1.9.3c-.2 1-.5 1.9-.6 2.8-.2.9-.3 1.6-.4 2.3-.1.2-.2.4-.3.5s-.4.1-.8 0l-1.2-.3c-.4-.1-.8-.2-1.1-.4-.4-.2-.6-.3-.8-.5s-.2-.5-.1-.9c.2-1 .5-2.1.7-3.4.2-1.3.4-2.7.6-4.1.2-1.4.4-2.9.5-4.3.2-1.4.4-2.7.5-3.9.1-.5.3-.7.5-.8.2-.1.6 0 1 .1.5.1 1 .3 1.6.5.6.2 1.1.5 1.5.7.2.1.4.2.5.4l.3.3c.1.1.1.2.1.4s0 .3-.1.5c-.2.8-.5 1.8-.8 2.9-.3 1.1-.6 2.3-.9 3.5.7-.1 1.3-.1 1.9-.2s1.2-.1 1.8-.1c.4-1.5.8-3 1.1-4.5.4-1.5.7-2.8 1.1-4.1.1-.5.3-.7.6-.8.3-.1.6 0 1.1.1.5.1.9.3 1.4.5s.9.4 1.4.7c.4.3.6.5.7.7.1.2.1.5-.1.9 0 .8-.4 2-.9 3.3z"/></svg>