<svg version="1.1" id="Layer_1" xmlns="http://www.w3.org/2000/svg" x="0" y="0" viewBox="0 0 728 90" xml:space="preserve"><style>.st0{fill:#fff}</style><path class="st0" d="M30 38l-1-2.9h-5L23 38h-3l5.1-14h3L33 38h-3zm-3.6-10.9l-1.8 5.6h3.5l-1.7-5.6zM39 38.3c-3.2 0-5.3-2.3-5.3-5.4 0-3.2 2.4-5.5 5.5-5.5 2.2 0 3.4 1 3.6 1.3l-1.1 1.7c-.1-.1-1-.7-2.2-.7-1.9 0-2.9 1.6-2.9 3.1 0 1.8.9 3.2 2.8 3.2 1.3 0 2.4-.7 2.5-.8L43 37c-.2 0-1.6 1.3-4 1.3zM49.1 38.3c-.9 0-2-.2-2.7-.9-.9-.9-.9-1.9-.9-3.3v-4h-1.8v-2.4h1.8v-2.9h2.8v2.9h2.9V30h-2.9v4.1c0 .8.1 1.8 1.3 1.8.7 0 1.1-.2 1.3-.3l.7 2c0 .1-1 .7-2.5.7zM54.8 26.4c-.9 0-1.6-.7-1.6-1.6s.7-1.6 1.6-1.6 1.6.7 1.6 1.6-.7 1.6-1.6 1.6zM53.4 38V27.6h2.8V38h-2.8zM64.2 38h-2.7l-3.9-10.3h2.9l2.5 7.2 2.4-7.2h2.8l-4 10.3zM75.3 38v-.7c-.2.1-1.3 1-2.9 1-2.1 0-3.3-1.4-3.3-3.3 0-3.7 4.5-3.7 5.8-3.7h.3c0-.6 0-.9-.3-1.2-.2-.2-.7-.4-1.5-.4-1.4 0-2.6.7-2.8.8l-.9-1.8c.1-.1 1.6-1.1 3.9-1.1.9 0 2.4.1 3.4 1.2.9.9.8 1.9.8 3.3V38h-2.5zm-.2-4.9h-.4c-1.8 0-3.1.3-3.1 1.6 0 1.1.9 1.4 1.6 1.4 1.2 0 1.8-.6 2-.6v-2.4zM84.4 38.3c-.9 0-2-.2-2.7-.9-.9-.9-.9-1.9-.9-3.3v-4H79v-2.4h1.8v-2.9h2.8v2.9h2.9V30h-2.9v4.1c0 .8.1 1.8 1.3 1.8.7 0 1.1-.2 1.3-.3l.7 2c0 .1-1 .7-2.5.7zM97.6 33.7h-6.8c0 .8.6 2.3 2.6 2.3 1.3 0 2.3-.5 2.8-.7l.9 1.8c-.1.1-1.6 1.1-3.9 1.1-3.4 0-5.1-2.4-5.1-5.4 0-3.2 2-5.5 5-5.5s4.6 2.1 4.6 5.5c0 .5-.1.8-.1.9zm-4.5-4.3c-1.3 0-2.1 1-2.3 2.2H95c0-.5-.2-2.2-1.9-2.2zM110.6 38.1c-.8 2-1.3 3-2 3.7-.4.4-1.3 1.1-3 1.1-1.5 0-2.5-.6-2.6-.7l.8-2c.1.1.8.4 1.6.4.6 0 1.1-.2 1.4-.5.5-.5.9-1.6 1-2.1l-4.3-10.3h3l2.8 7.2 2.6-7.2h2.8l-4.1 10.4zM120.4 38.3c-3 0-5.1-2.2-5.1-5.4s2.2-5.5 5.4-5.5c3 0 5.2 2.2 5.2 5.4-.2 3.2-2.3 5.5-5.5 5.5zm0-8.6c-1.4 0-2.4 1.2-2.4 3.1 0 1.9 1 3.1 2.5 3.1s2.4-1.2 2.4-3.1c0-1.9-1-3.1-2.5-3.1zM134.2 38v-.8c-.2.1-1.4 1.1-2.9 1.1-1.1 0-2-.3-2.7-1-1.2-1.2-1.1-2.7-1.1-4.1v-5.6h2.8V33c0 1.3.1 2 .4 2.4.1.1.4.4 1.1.4.9 0 1.7-.5 1.9-.7v-7.6h2.8V38h-2.3zM145.4 29.8c-.1 0-.5-.1-.6-.1-1.7 0-2.6 1-2.9 1.5V38H139V27.6h2.4v1.3c.1-.1 1.4-1.6 3.4-1.6.7 0 1.1.3 1.2.3l-.6 2.2zM158.6 38v-5.4c0-1.3-.1-2-.4-2.4-.1-.1-.4-.4-1.1-.4-.9 0-1.7.5-1.9.7V38h-2.8V27.6h2.4v.8c.2-.1 1.4-1.1 2.9-1.1 1.1 0 2 .3 2.7 1 1.2 1.2 1.1 2.7 1.1 4.1V38h-2.9zM168.3 38.3c-3 0-5.1-2.2-5.1-5.4s2.2-5.5 5.4-5.5c3 0 5.2 2.2 5.2 5.4-.1 3.2-2.3 5.5-5.5 5.5zm.1-8.6c-1.4 0-2.4 1.2-2.4 3.1 0 1.9 1 3.1 2.5 3.1s2.4-1.2 2.4-3.1c0-1.9-1-3.1-2.5-3.1zM176 33.6v-2.4h7.3v2.4H176zM190.9 38.3c-3.2 0-5.3-2.3-5.3-5.4 0-3.2 2.4-5.5 5.5-5.5 2.2 0 3.4 1 3.6 1.3l-1.1 1.7c-.1-.1-1-.7-2.2-.7-1.9 0-2.9 1.6-2.9 3.1 0 1.8.9 3.2 2.8 3.2 1.3 0 2.4-.7 2.5-.8l1.1 1.8c-.1 0-1.5 1.3-4 1.3zM200.7 38.3c-3 0-5.1-2.2-5.1-5.4s2.2-5.5 5.4-5.5c3 0 5.2 2.2 5.2 5.4-.1 3.2-2.3 5.5-5.5 5.5zm.1-8.6c-1.4 0-2.4 1.2-2.4 3.1 0 1.9 1 3.1 2.5 3.1s2.4-1.2 2.4-3.1c0-1.9-1-3.1-2.5-3.1zM211.1 38.3c-2.4 0-3.9-1.1-4-1.2l1-1.8c.2.1 1.4.8 2.7.8 1.3 0 1.6-.5 1.6-1 0-.7-.6-.8-2.2-1.5-.9-.4-2.6-1-2.6-3s1.6-3.3 4.1-3.3c2.2 0 3.4.9 3.4.9l-.9 1.7c-.1-.1-1.3-.7-2.4-.7s-1.4.5-1.4.9c0 .7.7.9 1.9 1.3 1.4.6 3 1.2 3 3.3-.1 2.3-1.6 3.6-4.2 3.6zM221.8 38.3c-.9 0-2-.2-2.7-.9-.9-.9-.9-1.9-.9-3.3v-4h-1.8v-2.4h1.8v-2.9h2.8v2.9h2.9V30H221v4.1c0 .8.1 1.8 1.3 1.8.7 0 1.1-.2 1.3-.3l.7 2c0 .1-1 .7-2.5.7zM232.5 26.4c-.9 0-1.6-.7-1.6-1.6s.7-1.6 1.6-1.6 1.6.7 1.6 1.6-.7 1.6-1.6 1.6zM231 38V27.6h2.8V38H231zM242.6 38v-5.4c0-1.3-.1-2-.4-2.4-.1-.1-.4-.4-1.1-.4-.9 0-1.7.5-1.9.7V38h-2.8V27.6h2.4v.8c.2-.1 1.4-1.1 2.9-1.1 1.1 0 2 .3 2.7 1 1.2 1.2 1.1 2.7 1.1 4.1V38h-2.9zM250.9 38.3c-2.4 0-3.9-1.1-4-1.2l1-1.8c.2.1 1.4.8 2.7.8 1.3 0 1.6-.5 1.6-1 0-.7-.6-.8-2.2-1.5-.9-.4-2.6-1-2.6-3s1.6-3.3 4.1-3.3c2.2 0 3.4.9 3.4.9l-.9 1.7c-.1-.1-1.3-.7-2.4-.7s-1.4.5-1.4.9c0 .7.7.9 1.9 1.3 1.4.6 3 1.2 3 3.3-.1 2.3-1.6 3.6-4.2 3.6zM263.6 38v-.8c-.2.1-1.4 1.1-2.9 1.1-1.1 0-2-.3-2.7-1-1.2-1.2-1.1-2.7-1.1-4.1v-5.6h2.8V33c0 1.3.1 2 .4 2.4.1.1.4.4 1.1.4.9 0 1.7-.5 1.9-.7v-7.6h2.8V38h-2.3zM274.8 29.8c-.1 0-.5-.1-.6-.1-1.7 0-2.6 1-2.9 1.5V38h-2.8V27.6h2.4v1.3c.1-.1 1.4-1.6 3.4-1.6.7 0 1.1.3 1.2.3l-.7 2.2zM282.5 38v-.7c-.2.1-1.3 1-2.9 1-2.1 0-3.3-1.4-3.3-3.3 0-3.7 4.5-3.7 5.8-3.7h.3c0-.6 0-.9-.3-1.2-.2-.2-.7-.4-1.5-.4-1.4 0-2.6.7-2.8.8l-.9-1.8c.1-.1 1.6-1.1 3.9-1.1.9 0 2.4.1 3.4 1.2.9.9.8 1.9.8 3.3V38h-2.5zm-.2-4.9h-.4c-1.8 0-3.1.3-3.1 1.6 0 1.1.9 1.4 1.6 1.4 1.2 0 1.8-.6 2-.6v-2.4zM293.6 38v-5.4c0-1.3-.1-2-.4-2.4-.1-.1-.4-.4-1.1-.4-.9 0-1.7.5-1.9.7V38h-2.8V27.6h2.4v.8c.2-.1 1.4-1.1 2.9-1.1 1.1 0 2 .3 2.7 1 1.2 1.2 1.1 2.7 1.1 4.1V38h-2.9zM303.5 38.3c-3.2 0-5.3-2.3-5.3-5.4 0-3.2 2.4-5.5 5.5-5.5 2.2 0 3.4 1 3.6 1.3l-1.1 1.7c-.1-.1-1-.7-2.2-.7-1.9 0-2.9 1.6-2.9 3.1 0 1.8.9 3.2 2.8 3.2 1.3 0 2.4-.7 2.5-.8l1.1 1.8c-.1 0-1.6 1.3-4 1.3zM317.7 33.7h-6.8c0 .8.6 2.3 2.6 2.3 1.3 0 2.3-.5 2.8-.7l.9 1.8c-.1.1-1.6 1.1-3.9 1.1-3.4 0-5.1-2.4-5.1-5.4 0-3.2 2-5.5 5-5.5s4.6 2.1 4.6 5.5c0 .5-.1.8-.1.9zm-4.5-4.3c-1.3 0-2.1 1-2.3 2.2h4.2c0-.5-.2-2.2-1.9-2.2zM330.8 38v-5.4c0-1.3-.1-2-.4-2.4-.1-.1-.4-.4-1.1-.4-.9 0-1.7.5-1.9.7V38h-2.8V27.6h2.4v.8c.2-.1 1.4-1.1 2.9-1.1 1.1 0 2 .3 2.7 1 1.2 1.2 1.1 2.7 1.1 4.1V38h-2.9zM340.5 38.3c-3 0-5.1-2.2-5.1-5.4s2.2-5.5 5.4-5.5c3 0 5.2 2.2 5.2 5.4-.1 3.2-2.3 5.5-5.5 5.5zm.1-8.6c-1.4 0-2.4 1.2-2.4 3.1 0 1.9 1 3.1 2.5 3.1s2.4-1.2 2.4-3.1c0-1.9-1-3.1-2.5-3.1zM358.9 38H356l-1.8-7.1-1.8 7.1h-2.9l-2.8-10.3h2.7l1.7 7.2 1.9-7.2h2.5l1.8 7.2 1.8-7.2h2.6L358.9 38zM364.5 38.1c-1 0-1.7-.8-1.7-1.7s.8-1.7 1.7-1.7 1.7.8 1.7 1.7-.8 1.7-1.7 1.7z"/></svg>