<svg version="1.1" id="Layer_1" xmlns="http://www.w3.org/2000/svg" x="0" y="0" viewBox="0 0 728 90" xml:space="preserve"><style>.st0{fill:#fff}</style><path class="st0" d="M178.3 30.6v6.6h-3.4v-6.6l-5.2-10h3.6l3.5 7.2 3.5-7.2h3.2l-5.2 10zM189.3 37.6c-3.6 0-6.1-2.6-6.1-6.4 0-3.8 2.6-6.6 6.4-6.6 3.6 0 6.1 2.7 6.1 6.4 0 3.9-2.6 6.6-6.4 6.6zm.1-10.2c-1.7 0-2.8 1.5-2.8 3.7s1.2 3.7 3 3.7 2.8-1.4 2.8-3.7c0-2.2-1.2-3.7-3-3.7zM205.8 37.3v-.9c-.2.1-1.7 1.3-3.5 1.3-1.3 0-2.4-.4-3.2-1.2-1.4-1.4-1.3-3.2-1.3-4.8V25h3.4v6.5c0 1.6.1 2.4.5 2.8.2.1.5.4 1.3.4 1.1 0 2.1-.6 2.3-.8v-9h3.4v12.3h-2.9zM224.7 27.5c-.1 0-.6-.1-.7-.1-2 0-3.1 1.2-3.4 1.8v8.1h-3.4V25h2.9v1.5c.1-.2 1.6-1.9 4.1-1.9.9 0 1.3.3 1.4.3l-.9 2.6zM237.5 32.2h-8.1c0 .9.7 2.8 3.1 2.8 1.5 0 2.7-.6 3.3-.9l1.1 2.1c-.1.1-1.9 1.3-4.7 1.3-4 0-6.1-2.8-6.1-6.4 0-3.8 2.4-6.6 5.9-6.6 3.6 0 5.5 2.5 5.5 6.5v1.2zm-5.4-5.1c-1.5 0-2.5 1.1-2.7 2.7h5c0-.7-.3-2.7-2.3-2.7zM249.6 41.5c-.8.8-2.1 1.6-4.5 1.6-3.4 0-5.3-1.6-5.5-1.8l1.3-2.2c.2.1 1.8 1.2 3.8 1.2 2.7 0 2.9-1.7 2.9-3v-.8c-.2.1-1.1.8-2.9.8-3.7 0-5.5-3-5.5-6 0-3.7 2.6-6.6 6.6-6.6 2.6 0 4.8 1.1 5.1 1.3v11.2c0 1.6 0 3-1.3 4.3zm-2-13.8c-.2-.1-.9-.4-1.8-.4-1.7 0-3.2 1.4-3.2 3.7 0 2.3 1.3 3.5 2.9 3.5 1.1 0 2-.5 2.1-.6v-6.2zM255.4 23.5c-1.1 0-1.9-.8-1.9-1.9s.8-1.9 1.9-1.9 1.9.9 1.9 1.9-.8 1.9-1.9 1.9zm-1.7 13.8V25h3.4v12.3h-3.4zM263.8 37.6c-2.8 0-4.6-1.3-4.8-1.4l1.1-2.1c.2.1 1.6 1 3.2 1 1.5 0 1.9-.6 1.9-1.2 0-.8-.7-1-2.6-1.8-1.1-.4-3-1.2-3-3.6 0-2.3 1.9-3.9 4.8-3.9 2.7 0 4.1 1.1 4.1 1.1l-1.1 2.1c-.1-.1-1.5-.8-2.8-.8-1.2 0-1.6.6-1.6 1.1 0 .8.9 1 2.2 1.6 1.7.7 3.5 1.4 3.5 3.9-.1 2.5-1.9 4-4.9 4zM276.4 37.6c-1.1 0-2.3-.3-3.2-1.1-1-1-1-2.2-1-3.9v-4.8h-2.1V25h2.1v-3.4h3.4V25h3.5v2.8h-3.5v4.9c0 1 .1 2.1 1.5 2.1.8 0 1.3-.2 1.5-.3l.9 2.3c-.1.1-1.3.8-3.1.8zM292.1 32.2H284c0 .9.7 2.8 3.1 2.8 1.5 0 2.7-.6 3.3-.9l1.1 2.1c-.1.1-1.9 1.3-4.7 1.3-4 0-6.1-2.8-6.1-6.4 0-3.8 2.4-6.6 5.9-6.6 3.6 0 5.5 2.5 5.5 6.5.1.7 0 1.1 0 1.2zm-5.4-5.1c-1.5 0-2.5 1.1-2.7 2.7h5c0-.7-.2-2.7-2.3-2.7zM302 27.5c-.1 0-.6-.1-.7-.1-2 0-3.1 1.2-3.4 1.8v8.1h-3.4V25h2.9v1.5c.1-.2 1.6-1.9 4.1-1.9.9 0 1.3.3 1.4.3l-.9 2.6zM314.8 32.2h-8.1c0 .9.7 2.8 3.1 2.8 1.5 0 2.7-.6 3.3-.9l1.1 2.1c-.1.1-1.9 1.3-4.7 1.3-4 0-6.1-2.8-6.1-6.4 0-3.8 2.4-6.6 5.9-6.6 3.6 0 5.5 2.5 5.5 6.5v1.2zm-5.4-5.1c-1.5 0-2.5 1.1-2.7 2.7h5c0-.7-.2-2.7-2.3-2.7zM325.4 37.3v-.8c-.1.1-1.2 1.1-3.3 1.1-3.3 0-5.5-2.6-5.5-6.3 0-4 2.8-6.7 5.9-6.7 1.4 0 2.3.4 2.5.5v-5.9h3.4v18.1h-3zm-.4-9.4c-.1-.1-.9-.5-1.9-.5-1.8 0-3.1 1.3-3.1 3.8 0 2.4 1.3 3.6 2.9 3.6 1.1 0 2-.6 2.1-.6v-6.3zM344.2 37.4c-.9 2.4-1.5 3.5-2.4 4.4-.5.5-1.6 1.3-3.6 1.3-1.8 0-3-.7-3.1-.8l1-2.4c.2.1.9.4 1.9.4.7 0 1.3-.2 1.7-.6.6-.6 1-1.9 1.2-2.4L335.8 25h3.6l3.3 8.6 3.1-8.6h3.3l-4.9 12.4zM355.9 37.6c-3.6 0-6.1-2.6-6.1-6.4 0-3.8 2.6-6.6 6.4-6.6 3.6 0 6.1 2.7 6.1 6.4 0 3.9-2.6 6.6-6.4 6.6zm.1-10.2c-1.7 0-2.8 1.5-2.8 3.7s1.2 3.7 3 3.7 2.8-1.4 2.8-3.7c-.1-2.2-1.3-3.7-3-3.7zM372.3 37.3v-.9c-.2.1-1.7 1.3-3.5 1.3-1.3 0-2.4-.4-3.2-1.2-1.4-1.4-1.3-3.2-1.3-4.8V25h3.4v6.5c0 1.6.1 2.4.5 2.8.1.1.5.4 1.3.4 1.1 0 2.1-.6 2.3-.8v-9h3.4v12.3h-2.9zM385.6 27.5c-.1 0-.6-.1-.8-.1-2 0-3.1 1.2-3.4 1.8v8.1H378V25h2.9v1.5c.1-.2 1.6-1.9 4.1-1.9.9 0 1.3.3 1.4.3l-.8 2.6zM400.7 37.3v-.9c-.2.2-1.5 1.1-3.5 1.1-2.4 0-4-1.6-4-3.9 0-4.4 5.3-4.4 6.8-4.4h.4c0-.8 0-1.1-.4-1.4-.3-.3-.8-.5-1.8-.5-1.6 0-3.1.8-3.3.9l-1.1-2.1c.2-.1 1.8-1.3 4.7-1.3 1 0 2.8.2 4 1.4 1 1 1 2.3 1 3.9v7.4h-2.8zm-.3-5.8h-.5c-2.2 0-3.7.4-3.7 1.9 0 1.3 1.1 1.6 1.9 1.6 1.4 0 2.2-.7 2.3-.8v-2.7zM412 37.6c-3.8 0-6.3-2.7-6.3-6.4 0-3.8 2.8-6.6 6.5-6.6 2.6 0 4.1 1.2 4.2 1.5l-1.3 2.1c-.2-.1-1.2-.8-2.6-.8-2.2 0-3.4 1.9-3.4 3.7 0 2.1 1.1 3.8 3.3 3.8 1.6 0 2.8-.9 3-.9l1.3 2.1c-.1.1-1.8 1.5-4.7 1.5zM423.8 37.6c-3.8 0-6.3-2.7-6.3-6.4 0-3.8 2.8-6.6 6.5-6.6 2.6 0 4.1 1.2 4.2 1.5l-1.3 2.1c-.2-.1-1.2-.8-2.6-.8-2.2 0-3.4 1.9-3.4 3.7 0 2.1 1.1 3.8 3.3 3.8 1.6 0 2.8-.9 3-.9l1.3 2.1c0 .1-1.8 1.5-4.7 1.5zM435.5 37.6c-3.6 0-6.1-2.6-6.1-6.4 0-3.8 2.6-6.6 6.4-6.6 3.6 0 6.1 2.7 6.1 6.4 0 3.9-2.6 6.6-6.4 6.6zm.1-10.2c-1.7 0-2.8 1.5-2.8 3.7s1.2 3.7 3 3.7c1.7 0 2.8-1.4 2.8-3.7-.1-2.2-1.3-3.7-3-3.7zM452 37.3v-.9c-.2.1-1.7 1.3-3.5 1.3-1.3 0-2.4-.4-3.2-1.2-1.4-1.4-1.3-3.2-1.3-4.8V25h3.4v6.5c0 1.6.1 2.4.5 2.8.1.1.5.4 1.3.4 1.1 0 2.1-.6 2.3-.8v-9h3.4v12.3H452zM465.2 37.3v-6.5c0-1.6-.1-2.4-.5-2.8-.2-.1-.5-.4-1.3-.4-1.1 0-2.1.6-2.3.8v9h-3.4V25h2.9v.9c.2-.1 1.7-1.3 3.5-1.3 1.3 0 2.4.4 3.2 1.2 1.4 1.4 1.3 3.2 1.3 4.8v6.6h-3.4zM476.4 37.6c-1.1 0-2.3-.3-3.2-1.1-1-1-1-2.2-1-3.9v-4.8h-2.1V25h2.1v-3.4h3.4V25h3.5v2.8h-3.5v4.9c0 1 .1 2.1 1.5 2.1.8 0 1.3-.2 1.5-.3l.8 2.3c0 .1-1.2.8-3 .8zM495.8 22.3c-.1-.1-.9-.6-1.8-.6-1.8 0-1.8 1.4-1.8 2.7v.6h3.6v2.8h-3.6v9.5h-3.4v-9.5h-2V25h2v-.6c0-2 .2-3.2 1.3-4.3.8-.8 1.8-1.2 3.4-1.2 2.2 0 3.5 1.1 3.5 1.2l-1.2 2.2zM503.3 37.6c-3.6 0-6.1-2.6-6.1-6.4 0-3.8 2.6-6.6 6.4-6.6 3.6 0 6.1 2.7 6.1 6.4 0 3.9-2.6 6.6-6.4 6.6zm.1-10.2c-1.7 0-2.8 1.5-2.8 3.7s1.2 3.7 3 3.7c1.7 0 2.8-1.4 2.8-3.7 0-2.2-1.2-3.7-3-3.7zM519.6 27.5c-.1 0-.6-.1-.8-.1-2 0-3.1 1.2-3.4 1.8v8.1H512V25h2.9v1.5c.1-.2 1.6-1.9 4.1-1.9.9 0 1.3.3 1.4.3l-.8 2.6z"/><g><path class="st0" d="M181.4 63.3l-1.2-3.5h-6l-1.2 3.5h-3.6l6-16.7h3.5l6.1 16.7h-3.6zm-4.2-12.9l-2.1 6.7h4.2l-2.1-6.7zM199.1 60.8c-2.4 2.4-5.5 2.5-8.7 2.5H187V46.6h4.6c2.8 0 5.3 0 7.5 2.2 1.4 1.4 2.3 3.6 2.3 6 0 2.3-.8 4.5-2.3 6zm-2.7-10c-1.4-1.4-3-1.4-5-1.4h-1v11.1h1.7c3.7 0 5.7-2 5.7-5.7.1-1.9-.4-3.1-1.4-4zM213.8 63.3l-1.2-3.5h-6l-1.2 3.5h-3.6l6-16.7h3.5l6.1 16.7h-3.6zm-4.2-12.9l-2.1 6.7h4.2l-2.1-6.7zM228.8 63.6c-2.8 0-4.6-1.3-4.8-1.4l1.1-2.1c.2.1 1.6 1 3.2 1 1.5 0 1.9-.6 1.9-1.2 0-.8-.7-1-2.6-1.8-1.1-.4-3-1.2-3-3.6 0-2.3 1.9-3.9 4.8-3.9 2.7 0 4.1 1.1 4.1 1.1l-1.1 2.1c-.1-.1-1.5-.8-2.8-.8-1.2 0-1.6.6-1.6 1.1 0 .8.9 1 2.2 1.6 1.7.7 3.5 1.4 3.5 3.9-.1 2.5-1.9 4-4.9 4zM241.4 63.6c-1.1 0-2.3-.3-3.2-1.1-1-1-1-2.2-1-3.9v-4.8h-2.1V51h2.1v-3.4h3.4V51h3.5v2.8h-3.5v4.9c0 1 .1 2.1 1.5 2.1.8 0 1.3-.2 1.5-.3l.9 2.3c-.1.1-1.3.8-3.1.8zM254.3 63.3v-.9c-.2.2-1.7 1.3-3.5 1.3-1.3 0-2.4-.4-3.2-1.2-1.4-1.4-1.3-3.2-1.3-4.8V51h3.4v6.5c0 1.6.1 2.4.5 2.8.1.2.5.5 1.3.5 1.1 0 2.1-.6 2.3-.8v-9h3.4v12.3h-2.9zM268.3 63.3v-.8c-.1.1-1.2 1.1-3.3 1.1-3.3 0-5.5-2.6-5.5-6.3 0-4 2.8-6.7 5.9-6.7 1.4 0 2.3.4 2.5.5v-5.9h3.4v18.1h-3zm-.5-9.4c-.1-.1-.9-.5-1.9-.5-1.8 0-3.1 1.3-3.1 3.8 0 2.4 1.3 3.6 2.9 3.6 1.1 0 2-.6 2.1-.6v-6.3zM284.9 58.2h-8.1c0 .9.7 2.8 3.1 2.8 1.5 0 2.7-.6 3.3-.9l1.1 2.1c-.1.1-1.9 1.3-4.7 1.3-4 0-6.1-2.8-6.1-6.4 0-3.8 2.4-6.6 5.9-6.6 3.6 0 5.5 2.5 5.5 6.5v1.2zm-5.4-5.1c-1.5 0-2.5 1.1-2.7 2.7h5c0-.7-.3-2.7-2.3-2.7zM294.7 63.3v-6.5c0-1.6-.1-2.4-.5-2.8-.1-.2-.5-.5-1.3-.5-1.1 0-2.1.6-2.3.8v9h-3.4V51h2.9v.9c.2-.1 1.7-1.3 3.5-1.3 1.3 0 2.4.4 3.2 1.2 1.4 1.4 1.3 3.2 1.3 4.8v6.6h-3.4zM305.9 63.6c-1.1 0-2.3-.3-3.2-1.1-1-1-1-2.2-1-3.9v-4.8h-2.1V51h2.1v-3.4h3.4V51h3.5v2.8h-3.5v4.9c0 1 .1 2.1 1.5 2.1.8 0 1.3-.2 1.5-.3l.9 2.3c-.1.1-1.2.8-3.1.8zM331.4 63.3v-6.7c0-1.5 0-3-1.7-3-1 0-2 .7-2.2.9.1.5.1.6.1 2.7v6.2h-3.4v-6.7c0-1.5 0-3-1.7-3-1 0-1.9.6-2.1.7v9.1H317V51h2.9v.9c.2-.2 1.6-1.3 3.4-1.3 1.9 0 2.8 1.1 3 1.3.2-.2 1.8-1.3 3.9-1.3 1 0 2.3.3 3.1 1.1 1.5 1.5 1.4 3.5 1.4 6.3v5.2h-3.3zM348.3 58.2h-8.1c0 .9.7 2.8 3.1 2.8 1.5 0 2.7-.6 3.3-.9l1.1 2.1c-.1.1-1.9 1.3-4.7 1.3-4 0-6.1-2.8-6.1-6.4 0-3.8 2.4-6.6 5.9-6.6 3.6 0 5.5 2.5 5.5 6.5v1.2zm-5.4-5.1c-1.5 0-2.5 1.1-2.7 2.7h5c0-.7-.3-2.7-2.3-2.7zM365 63.3v-6.7c0-1.5 0-3-1.7-3-1 0-2 .7-2.2.9.1.5.1.6.1 2.7v6.2h-3.4v-6.7c0-1.5 0-3-1.7-3-1 0-1.9.6-2.1.7v9.1h-3.4V51h2.9v.9c.2-.2 1.6-1.3 3.4-1.3 1.9 0 2.8 1.1 3 1.3.2-.2 1.8-1.3 3.9-1.3 1 0 2.3.3 3.1 1.1 1.5 1.5 1.4 3.5 1.4 6.3v5.2H365zM376.3 63.6c-2.5 0-4.9-.9-5.2-1V45.2h3.4v6.3c.2-.1 1.3-.8 3-.8 2.9 0 5.3 2.3 5.3 6.2 0 4-2.5 6.7-6.5 6.7zm.5-10.2c-1.1 0-2.1.6-2.2.7v6.6c.2 0 .7.2 1.8.2 1.9 0 3.1-1.6 3.1-4.1-.1-2.4-1.4-3.4-2.7-3.4zM395.9 58.2h-8.1c-.1.9.7 2.8 3.1 2.8 1.5 0 2.8-.6 3.3-.9l1.1 2.1c-.1.1-1.9 1.3-4.7 1.3-4 0-6.1-2.8-6.1-6.4 0-3.8 2.4-6.6 5.9-6.6 3.6 0 5.5 2.5 5.5 6.5.1.7 0 1.1 0 1.2zm-5.4-5.1c-1.5 0-2.5 1.1-2.7 2.7h5c.1-.7-.2-2.7-2.3-2.7zM405.9 53.5c-.1 0-.6-.1-.8-.1-2 0-3.1 1.2-3.4 1.8v8.1h-3.4V51h2.9v1.5c.1-.2 1.6-1.9 4.1-1.9.9 0 1.3.3 1.4.3l-.8 2.6zM411.9 63.6c-2.8 0-4.6-1.3-4.8-1.4l1.1-2.1c.2.1 1.7 1 3.2 1 1.5 0 1.9-.6 1.9-1.2 0-.8-.7-1-2.6-1.8-1.1-.4-3-1.2-3-3.6 0-2.3 1.9-3.9 4.8-3.9 2.7 0 4.1 1.1 4.1 1.1l-1.1 2.1c-.1-.1-1.5-.8-2.8-.8s-1.6.6-1.6 1.1c0 .8.8 1 2.2 1.6 1.7.7 3.5 1.4 3.5 3.9s-1.9 4-4.9 4zM426.7 49.5c-1.1 0-1.9-.8-1.9-1.9 0-1.1.8-1.9 1.9-1.9s1.9.9 1.9 1.9c0 1-.8 1.9-1.9 1.9zM425 63.3V51h3.4v12.3H425zM438.7 63.3v-6.5c0-1.6-.1-2.4-.5-2.8-.2-.2-.5-.5-1.3-.5-1.1 0-2.1.6-2.3.8v9h-3.4V51h2.9v.9c.2-.1 1.7-1.3 3.5-1.3 1.3 0 2.4.4 3.2 1.2 1.4 1.4 1.3 3.2 1.3 4.8v6.6h-3.4zM448.7 63.6c-2.8 0-4.6-1.3-4.8-1.4l1.1-2.1c.2.1 1.7 1 3.2 1 1.5 0 1.9-.6 1.9-1.2 0-.8-.7-1-2.6-1.8-1.1-.4-3-1.2-3-3.6 0-2.3 1.9-3.9 4.8-3.9 2.7 0 4.1 1.1 4.1 1.1l-1.1 2.1c-.1-.1-1.5-.8-2.8-.8s-1.6.6-1.6 1.1c0 .8.8 1 2.2 1.6 1.7.7 3.5 1.4 3.5 3.9-.1 2.5-1.9 4-4.9 4zM463.7 63.3v-.9c-.2.2-1.7 1.3-3.5 1.3-1.3 0-2.4-.4-3.2-1.2-1.4-1.4-1.3-3.2-1.3-4.8V51h3.4v6.5c0 1.6.1 2.4.5 2.8.1.2.5.5 1.3.5 1.1 0 2.1-.6 2.3-.8v-9h3.4v12.3h-2.9zM477 53.5c-.1 0-.6-.1-.8-.1-2 0-3.1 1.2-3.4 1.8v8.1h-3.4V51h2.9v1.5c.1-.2 1.6-1.9 4.1-1.9.9 0 1.3.3 1.4.3l-.8 2.6zM486.1 63.3v-.9c-.2.2-1.5 1.2-3.5 1.2-2.4 0-4-1.6-4-3.9 0-4.4 5.3-4.4 6.8-4.4h.4c0-.8 0-1.1-.4-1.4-.3-.3-.8-.5-1.8-.5-1.6 0-3.1.8-3.3.9l-1.1-2.1c.2-.1 1.8-1.3 4.7-1.3 1 0 2.8.2 4 1.4 1 1 1 2.3 1 3.9v7.4h-2.8zm-.2-5.8h-.5c-2.2 0-3.7.4-3.7 1.9 0 1.3 1.1 1.6 1.9 1.6 1.4 0 2.2-.7 2.3-.8v-2.7zM499.3 63.3v-6.5c0-1.6-.1-2.4-.5-2.8-.2-.2-.5-.5-1.3-.5-1.1 0-2.1.6-2.3.8v9h-3.4V51h2.9v.9c.2-.1 1.7-1.3 3.5-1.3 1.3 0 2.4.4 3.2 1.2 1.4 1.4 1.3 3.2 1.3 4.8v6.6h-3.4zM511.1 63.6c-3.8 0-6.3-2.7-6.3-6.4 0-3.8 2.8-6.6 6.5-6.6 2.6 0 4.1 1.2 4.2 1.5l-1.3 2.1c-.2-.1-1.2-.8-2.6-.8-2.2 0-3.4 1.9-3.4 3.7 0 2.1 1.1 3.8 3.3 3.8 1.6 0 2.8-.8 3-.9l1.3 2.1c-.1.1-1.8 1.5-4.7 1.5zM528 58.2h-8.1c-.1.9.7 2.8 3.1 2.8 1.5 0 2.8-.6 3.3-.9l1.1 2.1c-.1.1-1.9 1.3-4.7 1.3-4 0-6.1-2.8-6.1-6.4 0-3.8 2.4-6.6 5.9-6.6 3.6 0 5.5 2.5 5.5 6.5v1.2zm-5.4-5.1c-1.5 0-2.5 1.1-2.7 2.7h5c0-.7-.3-2.7-2.3-2.7zM532 63.5c-1.2 0-2.1-.9-2.1-2.1s.9-2 2.1-2c1.1 0 2 .9 2 2s-.8 2.1-2 2.1z"/></g></svg>