<svg version="1.1" id="Layer_1" xmlns="http://www.w3.org/2000/svg" x="0" y="0" viewBox="0 0 728 90" xml:space="preserve"><style>.st1{fill:#fff}</style><path d="M518 17.8c-2.1 0-3.7 1.7-3.7 3.7v22.3c0 2.1 1.7 3.7 3.7 3.7h119.3c2.1 0 3.7-1.7 3.7-3.7V21.5c0-2.1-1.7-3.7-3.7-3.7H518z" fill="#f16022"/><path class="st1" d="M533.1 36.6l-.6-1.8H529l-.6 1.8H526l3.6-9.9h2.4l3.6 9.9h-2.5zm-2.3-7.3l-1.1 3.7h2.3l-1.2-3.7zM540.9 36.9c-2.9 0-5-2-5-5.1 0-3.3 2.3-5.3 5.3-5.3 2.1 0 3.2.9 3.4 1.1l-1 1.6c-.1-.1-1-.7-2.2-.7-1.8 0-3.1 1.3-3.1 3.1 0 1.7 1.1 3.1 2.9 3.1 1.3 0 2.2-.7 2.5-.8l1 1.6c0 .1-1.3 1.4-3.8 1.4zM550.6 28.7v7.9h-2.5v-7.9h-2.6v-1.9h7.7v1.9h-2.6zM554.4 36.6v-9.9h2.4v9.9h-2.4zM563.6 36.6h-2.3l-3.4-9.9h2.4l2.1 7 2.2-7h2.4l-3.4 9.9zM573.7 36.6l-.6-1.8h-3.5l-.6 1.8h-2.5l3.6-9.9h2.4l3.6 9.9h-2.4zm-2.3-7.3l-1.1 3.7h2.3l-1.2-3.7zM580.8 28.7v7.9h-2.5v-7.9h-2.6v-1.9h7.7v1.9h-2.6zM584.5 36.6v-9.9h6.2v1.9H587v2h3.6v1.9H587v2.1h3.9v2h-6.4zM601.9 36.6l-4-6 .1 6h-2.2v-9.9h2.1l3.8 6v-6h2.2v9.9h-2zM610.5 36.9c-3 0-5-2.2-5-5.3 0-3 2-5 4.9-5 3 0 5 2.2 5 5.1 0 3.1-2 5.2-4.9 5.2zm-.1-8.4c-1.5 0-2.4 1.3-2.4 3.3 0 2 1.1 3.1 2.6 3.1 2.1 0 2.4-2 2.4-3.3 0-1.8-1-3.1-2.6-3.1zM626.9 36.6h-2.6l-1.5-7-1.7 7h-2.6l-2.3-9.9h2.4l1.3 7.3 1.8-7.3h2.4l1.7 7.3 1.4-7.3h2.2l-2.5 9.9z"/></svg>