<svg version="1.1" id="Layer_1" xmlns="http://www.w3.org/2000/svg" xmlns:xlink="http://www.w3.org/1999/xlink" x="0" y="0" viewBox="0 0 728 90" xml:space="preserve"><style>.st1{clip-path:url(#SVGID_2_);fill:#349946}.st2{fill:#231f20}</style><path fill="#fff" d="M559.5 62.6h169v27.8h-169z"/><defs><path id="SVGID_1_" d="M559.5 62.6h169v27.8h-169z"/></defs><clipPath id="SVGID_2_"><use xlink:href="#SVGID_1_" overflow="visible"/></clipPath><path class="st1" d="M575.5 79.6h-1.7l-.6-1.7h-3.5l-.6 1.7h-1.8l3.1-8.1h1.3c.4 0 .7.1.8.4.1.3 1.5 3.9 1.5 3.9h-1.6l-1-2.7-1.3 3.4h3.5c.5 0 .7.2.9.5l1 2.6zM590.9 79.6h-1.7l-.6-1.7h-3.5l-.6 1.7h-1.8l3.1-8.1h1.3c.4 0 .7.1.8.4.1.3 1.5 3.9 1.5 3.9h-1.6l-1-2.7-1.3 3.4h3.5c.5 0 .7.2.9.5l1 2.6zM576.1 71.5h3.2c2.5 0 3.7 1.3 3.7 4.1 0 1.5-.5 2.6-1.3 3.3-.8.6-1.7.7-2.8.7h-2.7v-8.1zm3 6.6c1.5 0 2.2-.8 2.2-2.6s-.6-2.6-2-2.6h-1.5v5.2h1.3z"/><g><path class="st2" d="M604.6 79.5h-1.3l-.5-5.8-2 5.8h-1.1l-2-5.8-.5 5.8H596l.7-7.7h1.4l2.1 5.9 2-5.9h1.4l1 7.7zM610.9 76.7v.5h-3.8c0 .4.1.7.4 1 .3.3.7.5 1.2.5s1-.1 1.5-.4l.4.8c-.6.4-1.3.6-2.1.6-.9 0-1.5-.3-2-.8s-.7-1.2-.7-2.1c0-.9.2-1.6.7-2.2.5-.6 1.1-.8 1.9-.8.8 0 1.4.3 1.8.8.5.4.7 1.2.7 2.1zm-1.2-.5c0-.3-.1-.6-.2-.9-.2-.4-.5-.5-1-.5-.4 0-.7.1-1 .4-.3.3-.4.6-.5 1h2.7zM620.1 79.5h-1.3v-3.2c0-.6-.1-1.1-.2-1.2s-.4-.3-.7-.3c-.4 0-.8.1-1.3.4.1.2.1.6.1 1.3v3h-1.3v-3.1c0-.7-.1-1.2-.3-1.4-.1-.2-.4-.2-.6-.2-.4 0-.8.1-1.2.4v4.3H612v-5.6h1.1v.4c.5-.4 1.1-.6 1.6-.6.6 0 1 .2 1.4.6.6-.4 1.3-.6 1.9-.6.6 0 1.1.2 1.4.5.3.3.4.6.5 1 0 .3.1.7.1 1.4v2.9zM626.6 76.6c0 .9-.3 1.7-.8 2.2-.5.6-1.2.9-2.1.9-.6 0-1.4-.1-2.2-.4v-8h1.3v3c.4-.3.9-.4 1.4-.4.7 0 1.3.3 1.8.8.4.3.6 1 .6 1.9zm-1.3 0c0-.6-.1-1-.4-1.3-.3-.3-.6-.5-1-.5s-.8.1-1.2.4v3.3c.3.1.6.1.9.1.5 0 .9-.2 1.2-.6s.5-.8.5-1.4zM632.6 76.7v.5h-3.8c0 .4.1.7.4 1 .3.3.7.5 1.2.5s1-.1 1.5-.4l.4.8c-.6.4-1.3.6-2.1.6-.9 0-1.5-.3-2-.8s-.7-1.2-.7-2.1c0-.9.2-1.6.7-2.2.5-.6 1.1-.8 1.9-.8.8 0 1.4.3 1.8.8.5.4.7 1.2.7 2.1zm-1.2-.5c0-.3-.1-.6-.2-.9-.2-.4-.5-.5-1-.5-.4 0-.7.1-1 .4-.3.3-.4.6-.5 1h2.7zM637.4 73.9l-.3 1h-.4c-.7 0-1.2.3-1.6.9v3.8h-1.3V74h1.1v.7l.5-.5c.4-.3.8-.4 1.3-.4.3 0 .5 0 .7.1z"/></g><g><path class="st2" d="M642 77.9c0 .5-.2 1-.6 1.3-.4.3-.9.5-1.5.5-.5 0-1-.1-1.4-.3-.3-.1-.5-.2-.6-.3l.4-.8c.6.3 1 .4 1.5.4.3 0 .6-.1.7-.2.2-.1.3-.3.3-.5s-.1-.4-.3-.5c-.1-.1-.4-.2-.9-.4s-.8-.4-1-.5c-.3-.3-.5-.7-.5-1.1 0-.5.2-.9.6-1.2.4-.3.9-.5 1.5-.5.8 0 1.4.2 1.8.5l-.4.8c-.4-.3-.9-.4-1.3-.4-.6 0-.9.2-.9.6 0 .2.1.3.3.5.1.1.4.2.7.3.6.2 1 .4 1.2.6.2.3.4.7.4 1.2zM647.5 79.5h-1.3v-7.7h1.3v7.7zM653.9 79.5h-1.3v-3.1c0-.7-.1-1.2-.3-1.4-.2-.2-.4-.3-.7-.3-.4 0-.8.1-1.3.4v4.3H649v-5.6h1.1v.4c.5-.4 1.1-.6 1.7-.6.6 0 1.1.2 1.4.5.3.3.4.6.5 1 0 .2.1.6.1 1.1v3.3zM659.1 77.9c0 .5-.2 1-.6 1.3-.4.3-.9.5-1.5.5-.5 0-1-.1-1.4-.3-.3-.1-.5-.2-.6-.3l.4-.8c.6.3 1 .4 1.5.4.3 0 .6-.1.7-.2.2-.1.3-.3.3-.5s-.1-.4-.3-.5c-.1-.1-.4-.2-.9-.4s-.8-.4-1-.5c-.3-.3-.5-.7-.5-1.1 0-.5.2-.9.6-1.2.4-.3.9-.5 1.5-.5.8 0 1.4.2 1.8.5l-.4.8c-.4-.3-.9-.4-1.3-.4-.6 0-.9.2-.9.6 0 .2.1.3.3.5.1.1.4.2.7.3.6.2 1 .4 1.2.6.2.3.4.7.4 1.2zM665 79.5h-1.1v-.4c-.5.4-1.1.6-1.7.6-.6 0-1.1-.2-1.4-.5-.3-.3-.4-.6-.5-1 0-.2-.1-.6-.1-1.2v-3.1h1.3V77.8c0 .3.1.5.3.7.2.1.4.2.7.2.3 0 .7-.1 1.2-.4V74h1.3v5.5zM670.1 73.9l-.3 1h-.4c-.7 0-1.2.3-1.6.9v3.8h-1.3V74h1.1v.7l.5-.5c.4-.3.8-.4 1.3-.4.3 0 .5 0 .7.1z"/></g><g><path class="st2" d="M675 79.5h-1.1v-.4c-.6.4-1.1.5-1.7.5-.5 0-1-.2-1.3-.5-.3-.3-.5-.8-.5-1.3 0-1.3 1.1-2 3.2-2h.2v-.2c0-.3-.1-.6-.2-.7-.2-.2-.5-.3-.9-.3-.5 0-1 .1-1.5.4l-.4-.8c.1-.1.3-.2.6-.3.4-.2.9-.3 1.5-.3.8 0 1.3.2 1.7.6.2.2.3.4.4.7 0 .2.1.5.1 1v3.6zm-1.2-1.2v-1.5h-.3c-.9 0-1.5.1-1.7.4-.1.1-.2.3-.2.6s.1.5.3.6c.2.1.4.2.7.2.3.1.7-.1 1.2-.3zM681.1 79.5h-1.3v-3.1c0-.7-.1-1.2-.3-1.4-.2-.2-.4-.3-.7-.3-.4 0-.8.1-1.3.4v4.3h-1.3v-5.6h1.1v.4c.5-.4 1.1-.6 1.7-.6.6 0 1.1.2 1.4.5.3.3.4.6.5 1 0 .2.1.6.1 1.1v3.3zM687.1 79c-.1.1-.3.2-.6.3-.5.2-1 .3-1.5.3-.8 0-1.5-.3-2-.8s-.8-1.2-.8-2.1c0-.9.3-1.6.8-2.2.6-.6 1.2-.9 2.1-.9.5 0 .9.1 1.3.3.3.1.5.2.5.4l-.5.8c-.4-.3-.8-.4-1.3-.4s-.9.2-1.3.6c-.3.4-.4.8-.4 1.3 0 .6.1 1 .4 1.4s.7.5 1.2.5c.4 0 .9-.1 1.4-.4l.7.9z"/></g><g><path class="st2" d="M692.8 76.7v.5H689c0 .4.1.7.4 1 .3.3.7.5 1.2.5s1-.1 1.5-.4l.4.8c-.6.4-1.3.6-2.1.6-.9 0-1.5-.3-2-.8s-.7-1.2-.7-2.1c0-.9.2-1.6.7-2.2.5-.6 1.1-.8 1.9-.8.8 0 1.4.3 1.8.8.5.4.7 1.2.7 2.1zm-1.2-.5c0-.3-.1-.6-.2-.9-.2-.4-.5-.5-1-.5-.4 0-.7.1-1 .4-.3.3-.4.6-.5 1h2.7zM702 74.2c0 .7-.2 1.3-.7 1.7-.3.3-.7.5-1.2.6-.3.1-.8.1-1.4.1h-.6v2.9h-1.3v-7.7h2c.6 0 1.1 0 1.4.1.4.1.8.3 1.1.6.5.4.7 1 .7 1.7zm-1.3 0c0-.4-.1-.7-.4-1-.2-.2-.7-.3-1.4-.3h-.7v2.6h.5c.8 0 1.4-.1 1.6-.4.2-.2.4-.5.4-.9zM704.6 79.5h-1.3v-8.3h1.3v8.3zM710.4 79.5h-1.1v-.4c-.6.4-1.1.5-1.7.5-.5 0-1-.2-1.3-.5-.3-.3-.5-.8-.5-1.3 0-1.3 1.1-2 3.2-2h.2v-.2c0-.3-.1-.6-.2-.7-.2-.2-.5-.3-.9-.3-.5 0-1 .1-1.5.4l-.4-.8c.1-.1.3-.2.6-.3.4-.2.9-.3 1.5-.3.8 0 1.3.2 1.7.6.2.2.3.4.4.7 0 .2.1.5.1 1v3.6zm-1.2-1.2v-1.5h-.3c-.9 0-1.5.1-1.7.4-.1.1-.2.3-.2.6s.1.5.3.6c.2.1.4.2.7.2.3.1.7-.1 1.2-.3zM716.5 79.5h-1.3v-3.1c0-.7-.1-1.2-.3-1.4-.2-.2-.4-.3-.7-.3-.4 0-.8.1-1.3.4v4.3h-1.3v-5.6h1.1v.4c.5-.4 1.1-.6 1.7-.6.6 0 1.1.2 1.4.5.3.3.4.6.5 1 0 .2.1.6.1 1.1v3.3zM721.7 77.9c0 .5-.2 1-.6 1.3-.4.3-.9.5-1.5.5-.5 0-1-.1-1.4-.3-.3-.1-.5-.2-.6-.3l.4-.8c.6.3 1 .4 1.5.4.3 0 .6-.1.7-.2.2-.1.3-.3.3-.5s-.1-.4-.3-.5c-.1-.1-.4-.2-.9-.4s-.8-.4-1-.5c-.3-.3-.5-.7-.5-1.1 0-.5.2-.9.6-1.2.4-.3.9-.5 1.5-.5.8 0 1.4.2 1.8.5l-.4.8c-.4-.3-.9-.4-1.3-.4-.6 0-.9.2-.9.6 0 .2.1.3.3.5.1.1.4.2.7.3.6.2 1 .4 1.2.6.2.3.4.7.4 1.2z"/></g></svg>