<?xml version="1.0" encoding="utf-8"?>
<!-- Generator: Adobe Illustrator 23.0.6, SVG Export Plug-In . SVG Version: 6.00 Build 0)  -->
<svg version="1.1" id="Layer_1" xmlns="http://www.w3.org/2000/svg" xmlns:xlink="http://www.w3.org/1999/xlink" x="0px" y="0px"
	 viewBox="0 0 300 250" style="enable-background:new 0 0 300 250;" xml:space="preserve">
<style type="text/css">
	.st0{fill:#FFFFFF;}
	.st1{fill:none;stroke:#000000;stroke-width:5.695;}
	.st2{clip-path:url(#SVGID_2_);}
</style>
<path class="st0" d="M232.86,198.43c15.29,0,27.68-12.39,27.68-27.68c0-15.29-12.39-27.68-27.68-27.68s-27.68,12.39-27.68,27.68
	C205.18,186.04,217.58,198.43,232.86,198.43"/>
<path class="st1" d="M232.86,198.43c15.29,0,27.68-12.39,27.68-27.68c0-15.29-12.39-27.68-27.68-27.68s-27.68,12.39-27.68,27.68
	C205.18,186.04,217.58,198.43,232.86,198.43z"/>
<g>
	<defs>
		<rect id="SVGID_1_" x="217.76" y="154.68" width="30.19" height="33.6"/>
	</defs>
	<clipPath id="SVGID_2_">
		<use xlink:href="#SVGID_1_"  style="overflow:visible;"/>
	</clipPath>
	<path class="st2" d="M245.42,168.96h-10.04v-10.04c0-1.4-1.13-2.53-2.53-2.53c-1.4,0-2.53,1.13-2.53,2.53v10.04h-10.04
		c-1.4,0-2.53,1.13-2.53,2.53c0,1.4,1.13,2.53,2.53,2.53h10.04v10.04c0,1.4,1.13,2.53,2.53,2.53c1.4,0,2.53-1.13,2.53-2.53v-10.04
		h10.04c1.4,0,2.53-1.13,2.53-2.53C247.95,170.09,246.82,168.96,245.42,168.96"/>
</g>
</svg>
