<?xml version="1.0" encoding="utf-8"?>
<!-- Generator: Adobe Illustrator 24.1.0, SVG Export Plug-In . SVG Version: 6.00 Build 0)  -->
<svg version="1.1" id="Layer_1" xmlns="http://www.w3.org/2000/svg" xmlns:xlink="http://www.w3.org/1999/xlink" x="0px" y="0px"
	 viewBox="0 0 300 250" style="enable-background:new 0 0 300 250;" xml:space="preserve">
<g>
	<path d="M14.9,238.7v-4.5l-0.9,0.1l0.1-0.6l1.5-0.1v5.2H14.9z"/>
	<path d="M17.1,238.7v-4.5l-0.9,0.1l0.1-0.6l1.5-0.1v5.2H17.1z"/>
	<path d="M19.7,238.8c-0.3,0-0.6-0.1-0.8-0.2l-0.1-0.7c0.3,0.1,0.6,0.2,0.9,0.2c0.6,0,1.2-0.3,1.2-1c0-0.5-0.5-1-1.1-1
		c0,0-0.1,0-0.1,0l-0.1-0.6c0.5-0.1,0.9-0.4,0.9-0.8c0-0.4-0.3-0.6-0.7-0.6c-0.3,0-0.5,0.1-0.8,0.2l-0.1-0.6c0.3-0.2,0.6-0.2,1-0.2
		c0.8,0,1.4,0.5,1.4,1.2c0,0.6-0.4,0.9-0.7,1c0.6,0.1,1.1,0.6,1.1,1.5C21.5,238.1,20.9,238.8,19.7,238.8z"/>
	<path d="M23.4,238.8c-0.4,0-0.8-0.1-1-0.2l-0.1-0.7c0.3,0.2,0.7,0.3,1,0.3c0.6,0,1.1-0.4,1.1-1c0-0.7-0.5-1-1.1-1
		c-0.4,0-0.6,0-0.9,0.1l0.1-2.6h2.2l-0.1,0.6h-1.4l0,1.2c0.1,0,0.1,0,0.2,0c1,0,1.7,0.6,1.7,1.7C25.2,238,24.6,238.8,23.4,238.8z"/>
	<path d="M26.8,238.8c-0.3,0-0.6-0.1-0.8-0.2l-0.1-0.7c0.3,0.1,0.6,0.2,0.9,0.2c0.6,0,1.2-0.3,1.2-1c0-0.5-0.5-1-1.1-1
		c0,0-0.1,0-0.1,0l-0.1-0.6c0.5-0.1,0.9-0.4,0.9-0.8c0-0.4-0.3-0.6-0.7-0.6c-0.3,0-0.5,0.1-0.8,0.2l-0.1-0.6c0.3-0.2,0.6-0.2,1-0.2
		c0.8,0,1.4,0.5,1.4,1.2c0,0.6-0.4,0.9-0.7,1c0.6,0.1,1.1,0.6,1.1,1.5C28.7,238.1,28,238.8,26.8,238.8z"/>
	<path d="M30,238.7v-4.5l-0.9,0.1l0.1-0.6l1.5-0.1v5.2H30z"/>
	<path d="M32.8,238.8c-0.4,0-0.8-0.1-1-0.2l-0.1-0.7c0.3,0.2,0.7,0.3,1,0.3c0.6,0,1.1-0.4,1.1-1c0-0.7-0.5-1-1.1-1
		c-0.4,0-0.6,0-0.9,0.1l0.1-2.6h2.2l-0.1,0.6h-1.4l0,1.2c0.1,0,0.1,0,0.2,0c1,0,1.7,0.6,1.7,1.7C34.6,238,34,238.8,32.8,238.8z"/>
</g>
</svg>
