<?xml version="1.0" encoding="utf-8"?>
<!-- Generator: Adobe Illustrator 24.1.3, SVG Export Plug-In . SVG Version: 6.00 Build 0)  -->
<svg version="1.1" id="Layer_1" xmlns="http://www.w3.org/2000/svg" xmlns:xlink="http://www.w3.org/1999/xlink" x="0px" y="0px"
	 viewBox="0 0 300 250" style="enable-background:new 0 0 300 250;" xml:space="preserve">
<g>
	<path d="M191.6,39.1c-1.4,0.2-2.7,0.4-3.7,0.7c-0.4,0.7-0.7,1.3-1,1.9c-0.3,0.6-0.6,1.2-0.8,1.7c-0.2,0.3-0.3,0.5-0.6,0.5
		c-0.2,0.1-0.5,0-1-0.1c-0.2-0.1-0.5-0.2-0.8-0.3s-0.6-0.2-0.9-0.4c-0.2-0.1-0.4-0.3-0.6-0.4c-0.2-0.1-0.3-0.2-0.4-0.4
		s-0.1-0.3-0.2-0.5c0-0.2,0-0.5,0.2-0.9c0.5-1.2,1-2.6,1.8-4.2s1.5-3.3,2.4-5c0.8-1.7,1.7-3.4,2.6-5.1c0.9-1.7,1.7-3.2,2.5-4.5
		c0.3-0.5,0.7-0.9,1.1-1.2c0.5-0.3,1.1-0.4,2-0.3c0.8,0,1.5,0.1,2.1,0.2c0.6,0.1,1.2,0.2,1.7,0.3c0.5,0.1,1,0.2,1.4,0.3
		c0.4,0.1,0.9,0.2,1.3,0.3c0.6,0.2,1,0.4,1.1,0.8c0.2,0.3,0.2,0.7,0.2,1.2c-0.1,1.2-0.2,2.7-0.3,4.3c-0.1,1.6-0.1,3.3-0.2,5
		c0,1.7-0.1,3.5-0.1,5.2c0,1.8,0,3.4,0,4.9c0,0.3-0.1,0.5-0.2,0.7c-0.1,0.1-0.5,0.2-1,0.2c-0.5,0-0.9,0-1.4,0
		c-0.4,0-0.8-0.1-1.3-0.2c-0.5-0.1-0.8-0.3-1-0.5s-0.3-0.5-0.4-1c-0.1-0.5-0.1-1.1-0.2-1.7c-0.1-0.6-0.1-1.3-0.2-2
		C194.5,38.7,193.1,38.9,191.6,39.1z M193,34.5c0.9-0.1,1.7-0.2,2.6-0.2c0-1.4-0.1-2.9-0.1-4.3c0-1.4,0-2.8,0-4.2
		c-0.8,1.3-1.6,2.7-2.5,4.2c-0.9,1.5-1.8,3.1-2.7,4.8C191.3,34.7,192.2,34.6,193,34.5z"/>
	<path d="M222.5,28.5c-0.5,1.6-1.1,3.3-1.6,5c-0.5,1.7-1,3.4-1.5,5.1c-0.5,1.7-0.9,3.3-1.3,4.7c0,0.2-0.1,0.4-0.2,0.5
		c-0.1,0.1-0.3,0.1-0.6,0.1c-0.2,0-0.5-0.1-0.9-0.1s-0.7-0.2-1.1-0.2c-0.8-0.2-1.4-0.5-1.8-0.8c-0.4-0.3-0.6-0.8-0.4-1.4
		c0.1-0.6,0.2-1.4,0.3-2.2c0.2-0.8,0.3-1.7,0.5-2.7c-0.8,0.1-1.6,0.2-2.3,0.3c-0.8,0.1-1.6,0.2-2.3,0.3c-0.3,1.2-0.6,2.3-0.7,3.4
		c-0.2,1.1-0.4,2-0.5,2.8c-0.1,0.3-0.2,0.5-0.4,0.6c-0.2,0.1-0.5,0.1-1,0c-0.5-0.1-1-0.2-1.5-0.4c-0.5-0.1-0.9-0.3-1.3-0.5
		c-0.4-0.2-0.8-0.4-0.9-0.7c-0.2-0.3-0.2-0.6-0.1-1.1c0.3-1.2,0.6-2.6,0.8-4.2c0.2-1.6,0.5-3.3,0.7-5c0.2-1.7,0.5-3.5,0.7-5.2
		c0.2-1.7,0.4-3.3,0.7-4.8c0.2-0.6,0.4-0.9,0.7-1c0.3-0.1,0.7-0.1,1.3,0.1c0.6,0.2,1.3,0.4,2,0.6c0.7,0.3,1.3,0.6,1.8,0.9
		c0.3,0.2,0.5,0.3,0.7,0.4s0.3,0.3,0.3,0.4c0.1,0.1,0.1,0.3,0.1,0.5c0,0.2-0.1,0.4-0.1,0.6c-0.3,1-0.6,2.2-1,3.5
		c-0.3,1.3-0.7,2.8-1.1,4.3c0.8-0.1,1.6-0.2,2.3-0.2c0.8-0.1,1.5-0.1,2.2-0.2c0.5-1.8,0.9-3.7,1.4-5.5c0.4-1.8,0.9-3.5,1.3-5
		c0.2-0.6,0.4-0.9,0.7-1s0.8,0,1.4,0.1c0.6,0.1,1.1,0.3,1.7,0.6c0.6,0.3,1.1,0.5,1.7,0.9c0.5,0.3,0.8,0.6,0.9,0.9s0.1,0.6-0.1,1
		C223.6,25.4,223.1,26.9,222.5,28.5z"/>
	<path d="M241.9,28.5c-0.5,1.6-1.1,3.3-1.6,5c-0.5,1.7-1,3.4-1.5,5.1c-0.5,1.7-0.9,3.3-1.3,4.7c0,0.2-0.1,0.4-0.2,0.5
		c-0.1,0.1-0.3,0.1-0.6,0.1c-0.2,0-0.5-0.1-0.9-0.1s-0.7-0.2-1.1-0.2c-0.8-0.2-1.4-0.5-1.8-0.8c-0.4-0.3-0.6-0.8-0.4-1.4
		c0.1-0.6,0.2-1.4,0.3-2.2c0.2-0.8,0.3-1.7,0.5-2.7c-0.8,0.1-1.6,0.2-2.3,0.3c-0.8,0.1-1.6,0.2-2.3,0.3c-0.3,1.2-0.6,2.3-0.7,3.4
		c-0.2,1.1-0.4,2-0.5,2.8c-0.1,0.3-0.2,0.5-0.4,0.6c-0.2,0.1-0.5,0.1-1,0c-0.5-0.1-1-0.2-1.5-0.4c-0.5-0.1-0.9-0.3-1.3-0.5
		c-0.4-0.2-0.8-0.4-0.9-0.7c-0.2-0.3-0.2-0.6-0.1-1.1c0.3-1.2,0.6-2.6,0.8-4.2c0.2-1.6,0.5-3.3,0.7-5c0.2-1.7,0.5-3.5,0.7-5.2
		c0.2-1.7,0.4-3.3,0.7-4.8c0.2-0.6,0.4-0.9,0.7-1c0.3-0.1,0.7-0.1,1.3,0.1c0.6,0.2,1.3,0.4,2,0.6c0.7,0.3,1.3,0.6,1.8,0.9
		c0.3,0.2,0.5,0.3,0.7,0.4s0.3,0.3,0.3,0.4c0.1,0.1,0.1,0.3,0.1,0.5c0,0.2-0.1,0.4-0.1,0.6c-0.3,1-0.6,2.2-1,3.5
		c-0.3,1.3-0.7,2.8-1.1,4.3c0.8-0.1,1.6-0.2,2.3-0.2c0.8-0.1,1.5-0.1,2.2-0.2c0.5-1.8,0.9-3.7,1.4-5.5c0.4-1.8,0.9-3.5,1.3-5
		c0.2-0.6,0.4-0.9,0.7-1s0.8,0,1.4,0.1c0.6,0.1,1.1,0.3,1.7,0.6c0.6,0.3,1.1,0.5,1.7,0.9c0.5,0.3,0.8,0.6,0.9,0.9s0.1,0.6-0.1,1
		C242.9,25.4,242.4,26.9,241.9,28.5z"/>
	<path d="M261.2,28.5c-0.5,1.6-1.1,3.3-1.6,5c-0.5,1.7-1,3.4-1.5,5.1c-0.5,1.7-0.9,3.3-1.3,4.7c0,0.2-0.1,0.4-0.2,0.5
		c-0.1,0.1-0.3,0.1-0.6,0.1c-0.2,0-0.5-0.1-0.9-0.1s-0.7-0.2-1.1-0.2c-0.8-0.2-1.4-0.5-1.8-0.8c-0.4-0.3-0.6-0.8-0.4-1.4
		c0.1-0.6,0.2-1.4,0.3-2.2c0.2-0.8,0.3-1.7,0.5-2.7c-0.8,0.1-1.6,0.2-2.3,0.3c-0.8,0.1-1.6,0.2-2.3,0.3c-0.3,1.2-0.6,2.3-0.7,3.4
		c-0.2,1.1-0.4,2-0.5,2.8c-0.1,0.3-0.2,0.5-0.4,0.6c-0.2,0.1-0.5,0.1-1,0c-0.5-0.1-1-0.2-1.5-0.4c-0.5-0.1-0.9-0.3-1.3-0.5
		c-0.4-0.2-0.8-0.4-0.9-0.7c-0.2-0.3-0.2-0.6-0.1-1.1c0.3-1.2,0.6-2.6,0.8-4.2c0.2-1.6,0.5-3.3,0.7-5c0.2-1.7,0.5-3.5,0.7-5.2
		c0.2-1.7,0.4-3.3,0.7-4.8c0.2-0.6,0.4-0.9,0.7-1c0.3-0.1,0.7-0.1,1.3,0.1c0.6,0.2,1.3,0.4,2,0.6c0.7,0.3,1.3,0.6,1.8,0.9
		c0.3,0.2,0.5,0.3,0.7,0.4s0.3,0.3,0.3,0.4c0.1,0.1,0.1,0.3,0.1,0.5c0,0.2-0.1,0.4-0.1,0.6c-0.3,1-0.6,2.2-1,3.5
		c-0.3,1.3-0.7,2.8-1.1,4.3c0.8-0.1,1.6-0.2,2.3-0.2c0.8-0.1,1.5-0.1,2.2-0.2c0.5-1.8,0.9-3.7,1.4-5.5c0.4-1.8,0.9-3.5,1.3-5
		c0.2-0.6,0.4-0.9,0.7-1s0.8,0,1.4,0.1c0.6,0.1,1.1,0.3,1.7,0.6c0.6,0.3,1.1,0.5,1.7,0.9c0.5,0.3,0.8,0.6,0.9,0.9s0.1,0.6-0.1,1
		C262.2,25.4,261.7,26.9,261.2,28.5z"/>
</g>
</svg>
