<?xml version="1.0" encoding="utf-8"?>
<!-- Generator: Adobe Illustrator 24.1.3, SVG Export Plug-In . SVG Version: 6.00 Build 0)  -->
<svg version="1.1" id="Layer_1" xmlns="http://www.w3.org/2000/svg" xmlns:xlink="http://www.w3.org/1999/xlink" x="0px" y="0px"
	 viewBox="0 0 300 250" style="enable-background:new 0 0 300 250;" xml:space="preserve">
<style type="text/css">
	.st0{fill:#FFFFFF;}
</style>
<g>
	<path class="st0" d="M26,118.3l-0.9-2.7h-4.6l-0.9,2.7h-2.8l4.7-12.8h2.7l4.7,12.8H26z M22.7,108.3l-1.6,5.2h3.2L22.7,108.3z"/>
	<path class="st0" d="M34.3,118.6c-3,0-4.9-2.1-4.9-4.9c0-2.9,2.2-5.1,5-5.1c2,0,3.1,1,3.3,1.2l-1,1.6c-0.1-0.1-0.9-0.7-2-0.7
		c-1.7,0-2.7,1.5-2.7,2.9c0,1.7,0.8,2.9,2.6,2.9c1.2,0,2.2-0.7,2.3-0.7l1,1.7C37.8,117.4,36.5,118.6,34.3,118.6z"/>
	<path class="st0" d="M43.6,118.6c-0.8,0-1.8-0.2-2.4-0.8c-0.8-0.8-0.8-1.7-0.8-3V111h-1.6v-2.2h1.6v-2.6h2.6v2.6h2.7v2.2h-2.7v3.8
		c0,0.8,0.1,1.6,1.2,1.6c0.6,0,1-0.2,1.2-0.2l0.7,1.8C45.9,118,45,118.6,43.6,118.6z"/>
	<path class="st0" d="M48.9,107.6c-0.8,0-1.5-0.7-1.5-1.5c0-0.8,0.7-1.5,1.5-1.5s1.5,0.7,1.5,1.5C50.4,107,49.7,107.6,48.9,107.6z
		 M47.6,118.3v-9.5h2.6v9.5H47.6z"/>
	<path class="st0" d="M57.5,118.3H55l-3.6-9.5h2.7l2.3,6.6l2.2-6.6h2.5L57.5,118.3z"/>
	<path class="st0" d="M67.6,118.3v-0.7c-0.2,0.1-1.2,0.9-2.7,0.9c-1.9,0-3.1-1.3-3.1-3c0-3.4,4.1-3.4,5.3-3.4h0.3
		c0-0.6,0-0.8-0.3-1.1c-0.2-0.2-0.6-0.4-1.3-0.4c-1.3,0-2.4,0.6-2.5,0.7l-0.9-1.7c0.1-0.1,1.4-1,3.6-1c0.8,0,2.2,0.1,3.1,1.1
		c0.8,0.8,0.8,1.8,0.8,3v5.7H67.6z M67.5,113.8c-0.2,0-0.4,0-0.4,0c-1.7,0-2.9,0.3-2.9,1.5c0,1,0.8,1.3,1.5,1.3
		c1.1,0,1.7-0.5,1.8-0.6V113.8z"/>
	<path class="st0" d="M76,118.6c-0.8,0-1.8-0.2-2.4-0.8c-0.8-0.8-0.8-1.7-0.8-3V111h-1.6v-2.2h1.6v-2.6h2.6v2.6h2.7v2.2h-2.7v3.8
		c0,0.8,0.1,1.6,1.2,1.6c0.6,0,1-0.2,1.2-0.2l0.7,1.8C78.3,118,77.4,118.6,76,118.6z"/>
	<path class="st0" d="M88.2,114.4h-6.2c0,0.7,0.5,2.1,2.4,2.1c1.2,0,2.1-0.5,2.5-0.7l0.8,1.7c-0.1,0.1-1.5,1-3.6,1
		c-3.1,0-4.7-2.2-4.7-4.9c0-2.9,1.8-5.1,4.5-5.1c2.8,0,4.3,2,4.3,5C88.2,114,88.2,114.3,88.2,114.4z M84,110.5
		c-1.2,0-1.9,0.9-2.1,2.1h3.9C85.8,112,85.6,110.5,84,110.5z"/>
	<path class="st0" d="M100,118.4c-0.7,1.9-1.2,2.7-1.8,3.4c-0.4,0.4-1.2,1-2.8,1c-1.4,0-2.3-0.6-2.4-0.6l0.8-1.8
		c0.1,0.1,0.7,0.3,1.5,0.3c0.6,0,1-0.2,1.3-0.5c0.5-0.5,0.8-1.5,0.9-1.9l-4-9.5h2.8l2.5,6.6l2.4-6.6h2.6L100,118.4z"/>
	<path class="st0" d="M109,118.6c-2.8,0-4.7-2-4.7-4.9c0-2.9,2-5.1,4.9-5.1c2.8,0,4.7,2.1,4.7,4.9C114,116.5,112,118.6,109,118.6z
		 M109.1,110.7c-1.3,0-2.2,1.1-2.2,2.8c0,1.7,0.9,2.9,2.3,2.9c1.3,0,2.2-1.1,2.2-2.8C111.4,111.8,110.4,110.7,109.1,110.7z"/>
	<path class="st0" d="M121.7,118.3v-0.7c-0.2,0.1-1.3,1-2.7,1c-1,0-1.8-0.3-2.5-0.9c-1.1-1.1-1-2.5-1-3.7v-5.1h2.6v5
		c0,1.2,0.1,1.8,0.4,2.2c0.1,0.1,0.4,0.3,1,0.3c0.8,0,1.6-0.5,1.8-0.6v-6.9h2.6v9.5H121.7z"/>
	<path class="st0" d="M132,110.8c-0.1,0-0.4-0.1-0.6-0.1c-1.6,0-2.4,0.9-2.7,1.4v6.2h-2.6v-9.5h2.2v1.2c0.1-0.1,1.3-1.5,3.1-1.5
		c0.7,0,1,0.2,1.1,0.2L132,110.8z"/>
	<path class="st0" d="M144.1,118.3v-5c0-1.2-0.1-1.8-0.4-2.2c-0.1-0.1-0.4-0.3-1-0.3c-0.8,0-1.6,0.5-1.8,0.6v6.9h-2.6v-9.5h2.2v0.7
		c0.2-0.1,1.3-1,2.7-1c1,0,1.8,0.3,2.5,0.9c1.1,1.1,1,2.5,1,3.7v5.1H144.1z"/>
	<path class="st0" d="M153,118.6c-2.8,0-4.7-2-4.7-4.9c0-2.9,2-5.1,4.9-5.1c2.8,0,4.7,2.1,4.7,4.9C158,116.5,156,118.6,153,118.6z
		 M153.1,110.7c-1.3,0-2.2,1.1-2.2,2.8c0,1.7,0.9,2.9,2.3,2.9c1.3,0,2.2-1.1,2.2-2.8C155.4,111.8,154.4,110.7,153.1,110.7z"/>
	<path class="st0" d="M160.1,114.3v-2.2h6.7v2.2H160.1z"/>
	<path class="st0" d="M173.8,118.6c-3,0-4.9-2.1-4.9-4.9c0-2.9,2.2-5.1,5-5.1c2,0,3.1,1,3.3,1.2l-1,1.6c-0.1-0.1-0.9-0.7-2-0.7
		c-1.7,0-2.7,1.5-2.7,2.9c0,1.7,0.8,2.9,2.6,2.9c1.2,0,2.2-0.7,2.3-0.7l1,1.7C177.3,117.4,176,118.6,173.8,118.6z"/>
	<path class="st0" d="M182.8,118.6c-2.8,0-4.7-2-4.7-4.9c0-2.9,2-5.1,4.9-5.1c2.8,0,4.7,2.1,4.7,4.9
		C187.7,116.5,185.7,118.6,182.8,118.6z M182.9,110.7c-1.3,0-2.2,1.1-2.2,2.8c0,1.7,0.9,2.9,2.3,2.9c1.3,0,2.2-1.1,2.2-2.8
		C185.1,111.8,184.2,110.7,182.9,110.7z"/>
	<path class="st0" d="M192.4,118.6c-2.2,0-3.6-1-3.7-1.1l0.9-1.7c0.2,0.1,1.3,0.8,2.5,0.8c1.2,0,1.5-0.5,1.5-0.9
		c0-0.6-0.5-0.8-2-1.4c-0.8-0.3-2.3-0.9-2.3-2.8c0-1.8,1.5-3,3.7-3c2.1,0,3.1,0.8,3.1,0.8l-0.8,1.6c-0.1-0.1-1.2-0.6-2.2-0.6
		s-1.3,0.5-1.3,0.9c0,0.6,0.7,0.8,1.7,1.2c1.3,0.5,2.7,1.1,2.7,3C196.1,117.4,194.7,118.6,192.4,118.6z"/>
	<path class="st0" d="M202.1,118.6c-0.8,0-1.8-0.2-2.4-0.8c-0.8-0.8-0.8-1.7-0.8-3V111h-1.6v-2.2h1.6v-2.6h2.6v2.6h2.7v2.2h-2.7v3.8
		c0,0.8,0.1,1.6,1.2,1.6c0.6,0,1-0.2,1.2-0.2l0.7,1.8C204.4,118,203.5,118.6,202.1,118.6z"/>
</g>
<g>
	<path class="st0" d="M18.9,127.9c-0.8,0-1.5-0.7-1.5-1.5s0.7-1.5,1.5-1.5s1.5,0.7,1.5,1.5S19.7,127.9,18.9,127.9z M17.6,138.6v-9.5
		h2.6v9.5H17.6z"/>
	<path class="st0" d="M28.2,138.6v-5c0-1.2-0.1-1.8-0.4-2.2c-0.1-0.1-0.4-0.3-1-0.3c-0.8,0-1.6,0.5-1.8,0.6v6.9h-2.6v-9.5h2.2v0.7
		c0.2-0.1,1.3-1,2.7-1c1,0,1.8,0.3,2.5,0.9c1.1,1.1,1,2.5,1,3.7v5.1H28.2z"/>
	<path class="st0" d="M35.9,138.8c-2.2,0-3.6-1-3.7-1.1l0.9-1.7c0.2,0.1,1.3,0.8,2.5,0.8c1.2,0,1.5-0.5,1.5-0.9c0-0.6-0.5-0.8-2-1.4
		c-0.8-0.3-2.3-0.9-2.3-2.8c0-1.8,1.5-3,3.7-3c2.1,0,3.1,0.8,3.1,0.8l-0.8,1.6c-0.1-0.1-1.2-0.6-2.2-0.6s-1.3,0.5-1.3,0.9
		c0,0.6,0.7,0.8,1.7,1.2c1.3,0.5,2.7,1.1,2.7,3C39.6,137.7,38.2,138.8,35.9,138.8z"/>
	<path class="st0" d="M47.5,138.6v-0.7c-0.2,0.1-1.3,1-2.7,1c-1,0-1.8-0.3-2.5-0.9c-1.1-1.1-1-2.5-1-3.7v-5.1h2.6v5
		c0,1.2,0.1,1.8,0.4,2.2c0.1,0.1,0.4,0.3,1,0.3c0.8,0,1.6-0.5,1.8-0.6v-6.9h2.6v9.5H47.5z"/>
	<path class="st0" d="M57.8,131c-0.1,0-0.4-0.1-0.6-0.1c-1.6,0-2.4,0.9-2.7,1.4v6.2H52v-9.5h2.2v1.2c0.1-0.1,1.3-1.5,3.1-1.5
		c0.7,0,1,0.2,1.1,0.3L57.8,131z"/>
	<path class="st0" d="M64.9,138.6v-0.7c-0.2,0.1-1.2,0.9-2.7,0.9c-1.9,0-3.1-1.3-3.1-3c0-3.4,4.1-3.4,5.3-3.4h0.3
		c0-0.6,0-0.8-0.3-1.1c-0.2-0.2-0.6-0.4-1.3-0.4c-1.3,0-2.4,0.6-2.5,0.7l-0.9-1.7c0.1-0.1,1.4-1,3.6-1c0.8,0,2.2,0.1,3.1,1.1
		c0.8,0.8,0.8,1.8,0.8,3v5.7H64.9z M64.7,134.1c-0.2,0-0.4,0-0.4,0c-1.7,0-2.9,0.3-2.9,1.5c0,1,0.8,1.3,1.5,1.3
		c1.1,0,1.7-0.5,1.8-0.6V134.1z"/>
	<path class="st0" d="M75,138.6v-5c0-1.2-0.1-1.8-0.4-2.2c-0.1-0.1-0.4-0.3-1-0.3c-0.8,0-1.6,0.5-1.8,0.6v6.9h-2.6v-9.5h2.2v0.7
		c0.2-0.1,1.3-1,2.7-1c1,0,1.8,0.3,2.5,0.9c1.1,1.1,1,2.5,1,3.7v5.1H75z"/>
	<path class="st0" d="M84.1,138.8c-3,0-4.9-2.1-4.9-4.9c0-2.9,2.2-5.1,5-5.1c2,0,3.1,1,3.3,1.2l-1,1.6c-0.1-0.1-0.9-0.7-2-0.7
		c-1.7,0-2.7,1.5-2.7,2.8c0,1.7,0.8,2.9,2.6,2.9c1.2,0,2.2-0.7,2.3-0.7l1,1.7C87.7,137.7,86.3,138.8,84.1,138.8z"/>
	<path class="st0" d="M97.2,134.7h-6.2c0,0.7,0.5,2.1,2.4,2.1c1.2,0,2.1-0.5,2.5-0.7l0.8,1.7c-0.1,0.1-1.5,1-3.6,1
		c-3.1,0-4.7-2.2-4.7-4.9c0-2.9,1.8-5.1,4.5-5.1c2.8,0,4.3,2,4.3,5C97.2,134.3,97.2,134.5,97.2,134.7z M93,130.7
		c-1.2,0-1.9,0.9-2.1,2.1h3.9C94.8,132.3,94.6,130.7,93,130.7z"/>
	<path class="st0" d="M109.1,138.6v-5c0-1.2-0.1-1.8-0.4-2.2c-0.1-0.1-0.4-0.3-1-0.3c-0.8,0-1.6,0.5-1.8,0.6v6.9h-2.6v-9.5h2.2v0.7
		c0.2-0.1,1.3-1,2.7-1c1,0,1.8,0.3,2.5,0.9c1.1,1.1,1,2.5,1,3.7v5.1H109.1z"/>
	<path class="st0" d="M118.1,138.8c-2.8,0-4.7-2-4.7-4.9c0-2.9,2-5.1,4.9-5.1c2.8,0,4.7,2.1,4.7,4.9
		C123,136.8,121,138.8,118.1,138.8z M118.2,131c-1.3,0-2.2,1.1-2.2,2.8c0,1.7,0.9,2.9,2.3,2.9c1.3,0,2.2-1.1,2.2-2.8
		C120.4,132.1,119.5,131,118.2,131z"/>
	<path class="st0" d="M135,138.6h-2.7l-1.7-6.5l-1.6,6.5h-2.6l-2.5-9.5h2.5l1.5,6.6l1.7-6.6h2.3l1.7,6.6l1.6-6.6h2.4L135,138.6z"/>
	<path class="st0" d="M140.1,138.7c-0.9,0-1.6-0.7-1.6-1.6s0.7-1.6,1.6-1.6s1.6,0.7,1.6,1.6S140.9,138.7,140.1,138.7z"/>
	<path class="st0" d="M156.6,138.6l-0.9-2.7H151l-0.9,2.7h-2.8l4.7-12.8h2.7l4.7,12.8H156.6z M153.3,128.6l-1.6,5.2h3.2L153.3,128.6
		z"/>
	<path class="st0" d="M166.5,138.6v-5c0-1.2-0.1-1.8-0.4-2.2c-0.1-0.1-0.4-0.3-1-0.3c-0.8,0-1.6,0.5-1.8,0.6v6.9h-2.6v-9.5h2.2v0.7
		c0.2-0.1,1.3-1,2.7-1c1,0,1.8,0.3,2.5,0.9c1.1,1.1,1,2.5,1,3.7v5.1H166.5z"/>
	<path class="st0" d="M177.6,138.6V138c-0.1,0.1-1,0.8-2.5,0.8c-2.6,0-4.3-2-4.3-4.9c0-3.1,2.2-5.1,4.6-5.1c1.1,0,1.8,0.3,1.9,0.4
		v-4.6h2.6v13.9H177.6z M177.2,131.3c-0.1,0-0.7-0.4-1.4-0.4c-1.4,0-2.4,1-2.4,2.9c0,1.8,1,2.8,2.3,2.8c0.8,0,1.5-0.4,1.6-0.5V131.3
		z"/>
	<path class="st0" d="M197.5,138.6v-5.2c0-1.1,0-2.3-1.3-2.3c-0.8,0-1.6,0.6-1.7,0.7c0.1,0.4,0.1,0.5,0.1,2.1v4.8h-2.6v-5.2
		c0-1.1,0-2.3-1.3-2.3c-0.8,0-1.5,0.4-1.6,0.5v7h-2.6v-9.5h2.2v0.7c0.2-0.1,1.2-1,2.7-1c1.5,0,2.1,0.8,2.3,1c0.2-0.1,1.4-1,3-1
		c0.8,0,1.8,0.2,2.4,0.9c1.1,1.1,1.1,2.7,1.1,4.9v4H197.5z"/>
	<path class="st0" d="M207.4,138.6v-0.7c-0.2,0.1-1.2,0.9-2.7,0.9c-1.9,0-3.1-1.3-3.1-3c0-3.4,4.1-3.4,5.3-3.4h0.3
		c0-0.6,0-0.8-0.3-1.1c-0.2-0.2-0.6-0.4-1.3-0.4c-1.3,0-2.4,0.6-2.5,0.7l-0.9-1.7c0.1-0.1,1.4-1,3.6-1c0.8,0,2.2,0.1,3.1,1.1
		c0.8,0.8,0.8,1.8,0.8,3v5.7H207.4z M207.3,134.1c-0.2,0-0.4,0-0.4,0c-1.7,0-2.9,0.3-2.9,1.5c0,1,0.8,1.3,1.5,1.3
		c1.1,0,1.7-0.5,1.8-0.6V134.1z"/>
	<path class="st0" d="M217.8,138.6l-3.4-4.4v4.4h-2.6v-13.9h2.6v7.9l3.4-3.5h3l-4.2,4.2l4.2,5.3H217.8z"/>
	<path class="st0" d="M229.9,134.7h-6.2c0,0.7,0.5,2.1,2.4,2.1c1.2,0,2.1-0.5,2.5-0.7l0.8,1.7c-0.1,0.1-1.5,1-3.6,1
		c-3.1,0-4.7-2.2-4.7-4.9c0-2.9,1.8-5.1,4.5-5.1c2.8,0,4.3,2,4.3,5C230,134.3,229.9,134.5,229.9,134.7z M225.8,130.7
		c-1.2,0-1.9,0.9-2.1,2.1h3.9C227.6,132.3,227.4,130.7,225.8,130.7z"/>
</g>
<g>
	<path class="st0" d="M20.6,159.1c-2.2,0-3.6-1-3.7-1.1l0.9-1.7c0.2,0.1,1.3,0.8,2.5,0.8c1.2,0,1.5-0.5,1.5-0.9c0-0.6-0.5-0.8-2-1.4
		c-0.8-0.3-2.3-0.9-2.3-2.8c0-1.8,1.5-3,3.7-3c2.1,0,3.1,0.8,3.1,0.8l-0.8,1.6c-0.1-0.1-1.2-0.6-2.2-0.6s-1.3,0.5-1.3,0.9
		c0,0.6,0.7,0.8,1.7,1.2c1.3,0.5,2.7,1.1,2.7,3C24.4,157.9,22.9,159.1,20.6,159.1z"/>
	<path class="st0" d="M32.3,158.8v-0.7c-0.2,0.1-1.3,1-2.7,1c-1,0-1.8-0.3-2.5-0.9c-1.1-1.1-1-2.5-1-3.7v-5.1h2.6v5
		c0,1.2,0.1,1.8,0.4,2.2c0.1,0.1,0.4,0.3,1,0.3c0.8,0,1.6-0.5,1.8-0.6v-6.9h2.6v9.5H32.3z"/>
	<path class="st0" d="M42.5,151.3c-0.1,0-0.4-0.1-0.6-0.1c-1.6,0-2.4,0.9-2.7,1.4v6.2h-2.6v-9.5h2.2v1.2c0.1-0.1,1.3-1.5,3.1-1.5
		c0.7,0,1,0.2,1.1,0.3L42.5,151.3z"/>
	<path class="st0" d="M52.4,155h-6.2c0,0.7,0.5,2.1,2.4,2.1c1.2,0,2.1-0.5,2.5-0.7l0.8,1.7c-0.1,0.1-1.5,1-3.6,1
		c-3.1,0-4.7-2.2-4.7-4.9c0-2.9,1.8-5.1,4.5-5.1c2.8,0,4.3,2,4.3,5C52.4,154.5,52.4,154.8,52.4,155z M48.2,151
		c-1.2,0-1.9,0.9-2.1,2.1H50C50,152.6,49.8,151,48.2,151z"/>
	<path class="st0" d="M64.3,158.9c-0.7,1.9-1.2,2.7-1.8,3.4c-0.4,0.4-1.2,1-2.8,1c-1.4,0-2.3-0.6-2.4-0.6l0.8-1.8
		c0.1,0.1,0.7,0.3,1.5,0.3c0.6,0,1-0.2,1.3-0.5c0.5-0.5,0.8-1.5,0.9-1.9l-4-9.5h2.8l2.5,6.6l2.4-6.6H68L64.3,158.9z"/>
	<path class="st0" d="M73.3,159.1c-2.8,0-4.7-2-4.7-4.9c0-2.9,2-5.1,4.9-5.1c2.8,0,4.7,2.1,4.7,4.9C78.2,157,76.2,159.1,73.3,159.1z
		 M73.4,151.2c-1.3,0-2.2,1.1-2.2,2.8c0,1.7,0.9,2.9,2.3,2.9c1.3,0,2.2-1.1,2.2-2.8C75.6,152.4,74.7,151.2,73.4,151.2z"/>
	<path class="st0" d="M86,158.8v-0.7c-0.2,0.1-1.3,1-2.7,1c-1,0-1.8-0.3-2.5-0.9c-1.1-1.1-1-2.5-1-3.7v-5.1h2.6v5
		c0,1.2,0.1,1.8,0.4,2.2c0.1,0.1,0.4,0.3,1,0.3c0.8,0,1.6-0.5,1.8-0.6v-6.9h2.6v9.5H86z"/>
	<path class="st0" d="M92.4,150c-0.3,0.3-0.7,0.7-1.1,0.9l-1.5-1.3c0.1-0.1,0.2-0.2,0.3-0.3c1.3-1.3,1.3-2.7,1.3-3.3h2.7
		C94.1,147.4,93.8,148.5,92.4,150z"/>
	<path class="st0" d="M101,151.3c-0.1,0-0.4-0.1-0.6-0.1c-1.6,0-2.4,0.9-2.7,1.4v6.2h-2.6v-9.5h2.2v1.2c0.1-0.1,1.3-1.5,3.1-1.5
		c0.7,0,1,0.2,1.1,0.3L101,151.3z"/>
	<path class="st0" d="M110.8,155h-6.2c0,0.7,0.5,2.1,2.4,2.1c1.2,0,2.1-0.5,2.5-0.7l0.8,1.7c-0.1,0.1-1.5,1-3.6,1
		c-3.1,0-4.7-2.2-4.7-4.9c0-2.9,1.8-5.1,4.5-5.1c2.8,0,4.3,2,4.3,5C110.9,154.5,110.8,154.8,110.8,155z M106.7,151
		c-1.2,0-1.9,0.9-2.1,2.1h3.9C108.5,152.6,108.3,151,106.7,151z"/>
	<path class="st0" d="M121.5,159.1c-1.1,0-1.8-0.3-1.9-0.4v4.3H117v-13.7h2.3v0.6c0.1-0.1,1-0.8,2.5-0.8c2.6,0,4.3,2,4.3,4.9
		C126.1,157.1,123.9,159.1,121.5,159.1z M121.2,151.2c-0.8,0-1.5,0.4-1.6,0.5v4.9c0.1,0,0.7,0.4,1.4,0.4c1.4,0,2.4-1,2.4-2.9
		C123.5,152.2,122.4,151.2,121.2,151.2z"/>
	<path class="st0" d="M133.7,151.3c-0.1,0-0.4-0.1-0.6-0.1c-1.6,0-2.4,0.9-2.7,1.4v6.2h-2.6v-9.5h2.2v1.2c0.1-0.1,1.3-1.5,3.1-1.5
		c0.7,0,1,0.2,1.1,0.3L133.7,151.3z"/>
	<path class="st0" d="M139.5,159.1c-2.8,0-4.7-2-4.7-4.9c0-2.9,2-5.1,4.9-5.1c2.8,0,4.7,2.1,4.7,4.9
		C144.4,157,142.4,159.1,139.5,159.1z M139.6,151.2c-1.3,0-2.2,1.1-2.2,2.8c0,1.7,0.9,2.9,2.3,2.9c1.3,0,2.2-1.1,2.2-2.8
		C141.8,152.4,140.9,151.2,139.6,151.2z"/>
	<path class="st0" d="M150.2,159.1c-0.8,0-1.8-0.2-2.4-0.8c-0.8-0.8-0.8-1.7-0.8-3v-3.7h-1.6v-2.2h1.6v-2.6h2.6v2.6h2.7v2.2h-2.7
		v3.8c0,0.8,0.1,1.6,1.2,1.6c0.6,0,1-0.2,1.2-0.2l0.7,1.8C152.5,158.6,151.6,159.1,150.2,159.1z"/>
	<path class="st0" d="M162.3,155h-6.2c0,0.7,0.5,2.1,2.4,2.1c1.2,0,2.1-0.5,2.5-0.7l0.8,1.7c-0.1,0.1-1.5,1-3.6,1
		c-3.1,0-4.7-2.2-4.7-4.9c0-2.9,1.8-5.1,4.5-5.1c2.8,0,4.3,2,4.3,5C162.4,154.5,162.3,154.8,162.3,155z M158.2,151
		c-1.2,0-1.9,0.9-2.1,2.1h3.9C160,152.6,159.8,151,158.2,151z"/>
	<path class="st0" d="M168.5,159.1c-3,0-4.9-2.1-4.9-4.9c0-2.9,2.2-5.1,5-5.1c2,0,3.1,1,3.3,1.2l-1,1.6c-0.1-0.1-0.9-0.7-2-0.7
		c-1.7,0-2.7,1.5-2.7,2.8c0,1.7,0.8,2.9,2.6,2.9c1.2,0,2.2-0.7,2.3-0.7l1,1.7C172.1,158,170.8,159.1,168.5,159.1z"/>
	<path class="st0" d="M177.8,159.1c-0.8,0-1.8-0.2-2.4-0.8c-0.8-0.8-0.8-1.7-0.8-3v-3.7H173v-2.2h1.6v-2.6h2.6v2.6h2.7v2.2h-2.7v3.8
		c0,0.8,0.1,1.6,1.2,1.6c0.6,0,1-0.2,1.2-0.2l0.7,1.8C180.2,158.6,179.3,159.1,177.8,159.1z"/>
	<path class="st0" d="M190,155h-6.2c0,0.7,0.5,2.1,2.4,2.1c1.2,0,2.1-0.5,2.5-0.7l0.8,1.7c-0.1,0.1-1.5,1-3.6,1
		c-3.1,0-4.7-2.2-4.7-4.9c0-2.9,1.8-5.1,4.5-5.1c2.8,0,4.3,2,4.3,5C190,154.5,190,154.8,190,155z M185.8,151c-1.2,0-1.9,0.9-2.1,2.1
		h3.9C187.6,152.6,187.4,151,185.8,151z"/>
	<path class="st0" d="M198.2,158.8v-0.6c-0.1,0.1-1,0.8-2.5,0.8c-2.6,0-4.3-2-4.3-4.9c0-3.1,2.2-5.1,4.6-5.1c1.1,0,1.8,0.3,1.9,0.4
		v-4.6h2.6v13.9H198.2z M197.9,151.6c-0.1,0-0.7-0.4-1.4-0.4c-1.4,0-2.4,1-2.4,2.9c0,1.8,1,2.8,2.3,2.8c0.8,0,1.5-0.4,1.6-0.5V151.6
		z"/>
	<path class="st0" d="M204.3,159c-0.9,0-1.6-0.7-1.6-1.6s0.7-1.6,1.6-1.6c0.9,0,1.6,0.7,1.6,1.6S205.2,159,204.3,159z"/>
</g>
</svg>
