<?xml version="1.0" encoding="utf-8"?>
<!-- Generator: Adobe Illustrator 24.1.3, SVG Export Plug-In . SVG Version: 6.00 Build 0)  -->
<svg version="1.1" id="Layer_1" xmlns="http://www.w3.org/2000/svg" xmlns:xlink="http://www.w3.org/1999/xlink" x="0px" y="0px"
	 viewBox="0 0 300 250" style="enable-background:new 0 0 300 250;" xml:space="preserve">
<style type="text/css">
	.st0{fill:#FFFFFF;}
</style>
<g>
	<path class="st0" d="M131.8,119.1c-1.2,1.2-2.8,1.3-4.6,1.3h-3.6v-12.8h4.2c1.5,0,2.8,0.1,3.7,1c0.8,0.8,1,1.6,1,2.5
		c0,2.2-1.5,2.7-1.8,2.8c0.3,0.1,2.2,0.5,2.2,2.7C132.8,117.7,132.4,118.6,131.8,119.1z M127.6,109.7h-1.4v3.2h0.4
		c1.5,0,3.2,0.2,3.2-1.6C129.7,109.6,128.4,109.7,127.6,109.7z M129.6,115.4c-0.5-0.5-1-0.5-2.2-0.5h-1.3v3.3h1.5
		c1.3,0,1.7-0.2,2-0.6c0.3-0.3,0.4-0.7,0.4-1.1C130,116.1,129.9,115.7,129.6,115.4z"/>
	<path class="st0" d="M140.8,120.4v-0.7c-0.2,0.1-1.3,1-2.7,1c-1,0-1.8-0.3-2.5-0.9c-1.1-1.1-1-2.5-1-3.7v-5.1h2.6v5
		c0,1.2,0.1,1.8,0.4,2.2c0.1,0.1,0.4,0.3,1,0.3c0.8,0,1.6-0.5,1.8-0.6v-6.9h2.6v9.5H140.8z"/>
	<path class="st0" d="M149.4,120.6c-0.8,0-1.8-0.2-2.4-0.8c-0.8-0.8-0.8-1.7-0.8-3v-3.7h-1.6v-2.2h1.6v-2.6h2.6v2.6h2.7v2.2h-2.7
		v3.8c0,0.8,0.1,1.6,1.2,1.6c0.6,0,1-0.2,1.2-0.2l0.7,1.8C151.7,120.1,150.8,120.6,149.4,120.6z"/>
	<path class="st0" d="M163.5,120.5c-0.7,1.9-1.2,2.7-1.8,3.4c-0.4,0.4-1.2,1-2.8,1c-1.4,0-2.3-0.6-2.4-0.6l0.8-1.8
		c0.1,0.1,0.7,0.3,1.5,0.3c0.6,0,1-0.2,1.3-0.5c0.5-0.5,0.8-1.5,0.9-1.9l-4-9.5h2.8l2.5,6.6l2.4-6.6h2.6L163.5,120.5z"/>
	<path class="st0" d="M172.5,120.6c-2.8,0-4.7-2-4.7-4.9c0-2.9,2-5.1,4.9-5.1c2.8,0,4.7,2.1,4.7,4.9
		C177.5,118.6,175.5,120.6,172.5,120.6z M172.6,112.8c-1.3,0-2.2,1.1-2.2,2.8c0,1.7,0.9,2.9,2.3,2.9c1.3,0,2.2-1.1,2.2-2.8
		C174.9,113.9,174,112.8,172.6,112.8z"/>
	<path class="st0" d="M185.3,120.4v-0.7c-0.2,0.1-1.3,1-2.7,1c-1,0-1.8-0.3-2.5-0.9c-1.1-1.1-1-2.5-1-3.7v-5.1h2.6v5
		c0,1.2,0.1,1.8,0.4,2.2c0.1,0.1,0.4,0.3,1,0.3c0.8,0,1.6-0.5,1.8-0.6v-6.9h2.6v9.5H185.3z"/>
	<path class="st0" d="M199.8,120.4v-5c0-1.2-0.1-1.8-0.4-2.2c-0.1-0.1-0.4-0.3-1-0.3c-0.8,0-1.6,0.5-1.8,0.6v6.9H194v-9.5h2.2v0.7
		c0.2-0.1,1.3-1,2.7-1c1,0,1.8,0.3,2.5,0.9c1.1,1.1,1,2.5,1,3.7v5.1H199.8z"/>
	<path class="st0" d="M212.8,116.5h-6.2c0,0.7,0.5,2.1,2.4,2.1c1.2,0,2.1-0.5,2.5-0.7l0.8,1.7c-0.1,0.1-1.5,1-3.6,1
		c-3.1,0-4.7-2.2-4.7-4.9c0-2.9,1.8-5.1,4.5-5.1c2.8,0,4.3,2,4.3,5C212.8,116.1,212.8,116.4,212.8,116.5z M208.6,112.6
		c-1.2,0-1.9,0.9-2.1,2.1h3.9C210.4,114.1,210.2,112.6,208.6,112.6z"/>
	<path class="st0" d="M222.9,116.5h-6.2c0,0.7,0.5,2.1,2.4,2.1c1.2,0,2.1-0.5,2.5-0.7l0.8,1.7c-0.1,0.1-1.5,1-3.6,1
		c-3.1,0-4.7-2.2-4.7-4.9c0-2.9,1.8-5.1,4.5-5.1c2.8,0,4.3,2,4.3,5C223,116.1,222.9,116.4,222.9,116.5z M218.8,112.6
		c-1.2,0-1.9,0.9-2.1,2.1h3.9C220.6,114.1,220.4,112.6,218.8,112.6z"/>
	<path class="st0" d="M231.1,120.4v-0.6c-0.1,0.1-1,0.8-2.5,0.8c-2.6,0-4.3-2-4.3-4.9c0-3.1,2.2-5.1,4.6-5.1c1.1,0,1.8,0.3,1.9,0.4
		v-4.6h2.6v13.9H231.1z M230.8,113.2c-0.1,0-0.7-0.4-1.4-0.4c-1.4,0-2.4,1-2.4,2.9c0,1.8,1,2.8,2.3,2.8c0.8,0,1.5-0.4,1.6-0.5V113.2
		z"/>
</g>
<g>
	<path class="st0" d="M127.5,140.9c-0.8,0-1.8-0.2-2.4-0.8c-0.8-0.8-0.8-1.7-0.8-3v-3.7h-1.6v-2.2h1.6v-2.6h2.6v2.6h2.7v2.2h-2.7
		v3.8c0,0.8,0.1,1.6,1.2,1.6c0.6,0,1-0.2,1.2-0.2l0.7,1.8C129.8,140.4,128.9,140.9,127.5,140.9z"/>
	<path class="st0" d="M135.5,140.9c-2.8,0-4.7-2-4.7-4.9c0-2.9,2-5.1,4.9-5.1c2.8,0,4.7,2.1,4.7,4.9
		C140.4,138.8,138.4,140.9,135.5,140.9z M135.6,133c-1.3,0-2.2,1.1-2.2,2.8c0,1.7,0.9,2.9,2.3,2.9c1.3,0,2.2-1.1,2.2-2.8
		C137.8,134.2,136.9,133,135.6,133z"/>
	<path class="st0" d="M150.7,140.9c-0.8,0-1.8-0.2-2.4-0.8c-0.8-0.8-0.8-1.7-0.8-3v-3.7h-1.6v-2.2h1.6v-2.6h2.6v2.6h2.7v2.2H150v3.8
		c0,0.8,0.1,1.6,1.2,1.6c0.6,0,1-0.2,1.2-0.2l0.7,1.8C153,140.4,152.1,140.9,150.7,140.9z"/>
	<path class="st0" d="M159.8,140.6V140c-0.2,0.1-1.2,0.9-2.7,0.9c-1.9,0-3.1-1.3-3.1-3c0-3.4,4.1-3.4,5.3-3.4h0.3
		c0-0.6,0-0.8-0.3-1.1c-0.2-0.2-0.6-0.4-1.3-0.4c-1.3,0-2.4,0.6-2.5,0.7l-0.9-1.7c0.1-0.1,1.4-1,3.6-1c0.8,0,2.2,0.1,3.1,1.1
		c0.8,0.8,0.8,1.8,0.8,3v5.7H159.8z M159.6,136.2c-0.2,0-0.4,0-0.4,0c-1.7,0-2.9,0.3-2.9,1.5c0,1,0.8,1.3,1.5,1.3
		c1.1,0,1.7-0.5,1.8-0.6V136.2z"/>
	<path class="st0" d="M170.2,140.6l-3.4-4.4v4.4h-2.6v-13.9h2.6v7.9l3.4-3.5h3l-4.2,4.2l4.2,5.3H170.2z"/>
	<path class="st0" d="M182.3,136.8h-6.2c0,0.7,0.5,2.1,2.4,2.1c1.2,0,2.1-0.5,2.5-0.7l0.8,1.7c-0.1,0.1-1.5,1-3.6,1
		c-3.1,0-4.7-2.2-4.7-4.9c0-2.9,1.8-5.1,4.5-5.1c2.8,0,4.3,2,4.3,5C182.3,136.4,182.3,136.6,182.3,136.8z M178.1,132.8
		c-1.2,0-1.9,0.9-2.1,2.1h3.9C179.9,134.4,179.7,132.8,178.1,132.8z"/>
	<path class="st0" d="M192.8,140.9c-2.8,0-4.7-2-4.7-4.9c0-2.9,2-5.1,4.9-5.1c2.8,0,4.7,2.1,4.7,4.9
		C197.7,138.8,195.7,140.9,192.8,140.9z M192.9,133c-1.3,0-2.2,1.1-2.2,2.8c0,1.7,0.9,2.9,2.3,2.9c1.3,0,2.2-1.1,2.2-2.8
		C195.1,134.2,194.2,133,192.9,133z"/>
	<path class="st0" d="M205.3,140.6v-5c0-1.2-0.1-1.8-0.4-2.2c-0.1-0.1-0.4-0.3-1-0.3c-0.8,0-1.6,0.5-1.8,0.6v6.9h-2.6v-9.5h2.2v0.7
		c0.2-0.1,1.3-1,2.7-1c1,0,1.8,0.3,2.5,0.9c1.1,1.1,1,2.5,1,3.7v5.1H205.3z"/>
	<path class="st0" d="M218.3,136.8H212c0,0.7,0.5,2.1,2.4,2.1c1.2,0,2.1-0.5,2.5-0.7l0.8,1.7c-0.1,0.1-1.5,1-3.6,1
		c-3.1,0-4.7-2.2-4.7-4.9c0-2.9,1.8-5.1,4.5-5.1c2.8,0,4.3,2,4.3,5C218.3,136.4,218.3,136.6,218.3,136.8z M214.1,132.8
		c-1.2,0-1.9,0.9-2.1,2.1h3.9C215.9,134.4,215.7,132.8,214.1,132.8z"/>
	<path class="st0" d="M235.6,140.6v-5.2c0-1.1,0-2.3-1.3-2.3c-0.8,0-1.6,0.6-1.7,0.7c0.1,0.4,0.1,0.5,0.1,2.1v4.8H230v-5.2
		c0-1.1,0-2.3-1.3-2.3c-0.8,0-1.5,0.4-1.6,0.5v7h-2.6v-9.5h2.2v0.7c0.2-0.1,1.2-1,2.7-1c1.5,0,2.1,0.8,2.3,1c0.2-0.1,1.4-1,3-1
		c0.8,0,1.8,0.2,2.4,0.9c1.1,1.1,1.1,2.7,1.1,4.9v4H235.6z"/>
	<path class="st0" d="M244.5,140.9c-2.8,0-4.7-2-4.7-4.9c0-2.9,2-5.1,4.9-5.1c2.8,0,4.7,2.1,4.7,4.9
		C249.5,138.8,247.5,140.9,244.5,140.9z M244.6,133c-1.3,0-2.2,1.1-2.2,2.8c0,1.7,0.9,2.9,2.3,2.9c1.3,0,2.2-1.1,2.2-2.8
		C246.9,134.2,245.9,133,244.6,133z"/>
	<path class="st0" d="M257.1,133.1c-0.1,0-0.4-0.1-0.6-0.1c-1.6,0-2.4,0.9-2.7,1.4v6.2h-2.6v-9.5h2.2v1.2c0.1-0.1,1.3-1.5,3.1-1.5
		c0.7,0,1,0.2,1.1,0.3L257.1,133.1z"/>
	<path class="st0" d="M266.9,136.8h-6.2c0,0.7,0.5,2.1,2.4,2.1c1.2,0,2.1-0.5,2.5-0.7l0.8,1.7c-0.1,0.1-1.5,1-3.6,1
		c-3.1,0-4.7-2.2-4.7-4.9c0-2.9,1.8-5.1,4.5-5.1c2.8,0,4.3,2,4.3,5C267,136.4,266.9,136.6,266.9,136.8z M262.8,132.8
		c-1.2,0-1.9,0.9-2.1,2.1h3.9C264.5,134.4,264.4,132.8,262.8,132.8z"/>
</g>
<g>
	<path class="st0" d="M131.7,157h-6.2c0,0.7,0.5,2.1,2.4,2.1c1.2,0,2.1-0.5,2.5-0.7l0.8,1.7c-0.1,0.1-1.5,1-3.6,1
		c-3.1,0-4.7-2.2-4.7-4.9c0-2.9,1.8-5.1,4.5-5.1c2.8,0,4.3,2,4.3,5C131.8,156.6,131.7,156.9,131.7,157z M127.6,153.1
		c-1.2,0-1.9,0.9-2.1,2.1h3.9C129.4,154.6,129.2,153.1,127.6,153.1z"/>
	<path class="st0" d="M138.7,160.9v-0.7c-0.2,0.1-1.2,0.9-2.7,0.9c-1.9,0-3.1-1.3-3.1-3c0-3.4,4.1-3.4,5.3-3.4h0.3
		c0-0.6,0-0.8-0.3-1.1c-0.2-0.2-0.6-0.4-1.3-0.4c-1.3,0-2.4,0.6-2.5,0.7l-0.9-1.7c0.1-0.1,1.4-1,3.6-1c0.8,0,2.2,0.1,3.1,1.1
		c0.8,0.8,0.8,1.8,0.8,3v5.7H138.7z M138.6,156.4c-0.2,0-0.4,0-0.4,0c-1.7,0-2.9,0.3-2.9,1.5c0,1,0.8,1.3,1.5,1.3
		c1.1,0,1.7-0.5,1.8-0.6V156.4z"/>
	<path class="st0" d="M146.1,161.2c-2.2,0-3.6-1-3.7-1.1l0.9-1.7c0.2,0.1,1.3,0.8,2.5,0.8c1.2,0,1.5-0.5,1.5-0.9
		c0-0.6-0.5-0.8-2-1.4c-0.8-0.3-2.3-0.9-2.3-2.8c0-1.8,1.5-3,3.7-3c2.1,0,3.1,0.8,3.1,0.8l-0.8,1.6c-0.1-0.1-1.2-0.6-2.2-0.6
		s-1.3,0.5-1.3,0.9c0,0.6,0.7,0.8,1.7,1.2c1.3,0.5,2.7,1.1,2.7,3C149.9,160,148.4,161.2,146.1,161.2z"/>
	<path class="st0" d="M157.4,161c-0.7,1.9-1.2,2.7-1.8,3.4c-0.4,0.4-1.2,1-2.8,1c-1.4,0-2.3-0.6-2.4-0.6l0.8-1.8
		c0.1,0.1,0.7,0.3,1.5,0.3c0.6,0,1-0.2,1.3-0.5c0.5-0.5,0.8-1.5,0.9-1.9l-4-9.5h2.8l2.5,6.6l2.4-6.6h2.6L157.4,161z"/>
	<path class="st0" d="M170.1,161.2c-2.2,0-3.6-1-3.7-1.1l0.9-1.7c0.2,0.1,1.3,0.8,2.5,0.8c1.2,0,1.5-0.5,1.5-0.9
		c0-0.6-0.5-0.8-2-1.4c-0.8-0.3-2.3-0.9-2.3-2.8c0-1.8,1.5-3,3.7-3c2.1,0,3.1,0.8,3.1,0.8l-0.8,1.6c-0.1-0.1-1.2-0.6-2.2-0.6
		s-1.3,0.5-1.3,0.9c0,0.6,0.7,0.8,1.7,1.2c1.3,0.5,2.7,1.1,2.7,3C173.8,160,172.4,161.2,170.1,161.2z"/>
	<path class="st0" d="M179.9,161.2c-0.8,0-1.8-0.2-2.4-0.8c-0.8-0.8-0.8-1.7-0.8-3v-3.7H175v-2.2h1.6v-2.6h2.6v2.6h2.7v2.2h-2.7v3.8
		c0,0.8,0.1,1.6,1.2,1.6c0.6,0,1-0.2,1.2-0.2l0.7,1.8C182.2,160.6,181.3,161.2,179.9,161.2z"/>
	<path class="st0" d="M192,157h-6.2c0,0.7,0.5,2.1,2.4,2.1c1.2,0,2.1-0.5,2.5-0.7l0.8,1.7c-0.1,0.1-1.5,1-3.6,1
		c-3.1,0-4.7-2.2-4.7-4.9c0-2.9,1.8-5.1,4.5-5.1c2.8,0,4.3,2,4.3,5C192,156.6,192,156.9,192,157z M187.9,153.1
		c-1.2,0-1.9,0.9-2.1,2.1h3.9C189.6,154.6,189.5,153.1,187.9,153.1z"/>
	<path class="st0" d="M198.4,161.2c-1.1,0-1.8-0.3-1.9-0.4v4.3h-2.6v-13.7h2.3v0.6c0.1-0.1,1-0.8,2.5-0.8c2.6,0,4.3,2,4.3,4.9
		C202.9,159.1,200.8,161.2,198.4,161.2z M198.1,153.3c-0.8,0-1.5,0.4-1.6,0.5v4.9c0.1,0,0.7,0.4,1.4,0.4c1.4,0,2.4-1,2.4-2.9
		C200.3,154.3,199.3,153.3,198.1,153.3z"/>
	<path class="st0" d="M205.9,161.1c-0.9,0-1.6-0.7-1.6-1.6s0.7-1.6,1.6-1.6c0.9,0,1.6,0.7,1.6,1.6S206.8,161.1,205.9,161.1z"/>
</g>
</svg>
