<?xml version="1.0" encoding="utf-8"?>
<!-- Generator: Adobe Illustrator 24.1.3, SVG Export Plug-In . SVG Version: 6.00 Build 0)  -->
<svg version="1.1" id="Layer_1" xmlns="http://www.w3.org/2000/svg" xmlns:xlink="http://www.w3.org/1999/xlink" x="0px" y="0px"
	 viewBox="0 0 300 250" style="enable-background:new 0 0 300 250;" xml:space="preserve">
<g>
	<path d="M72.7,25.3c0.4,0.7,0.7,1.5,0.8,2.4c0.2,1.5,0.3,3.1,0.2,4.8c-0.1,1.7-0.5,3.5-1,5.2c-0.5,1.7-1.2,3.3-2.1,4.9
		c-0.9,1.5-2,2.8-3.3,3.9c-0.9,0.6-1.8,1.1-2.8,1.3c-1,0.2-2.1,0.3-3.4,0.1c-0.8-0.1-1.7-0.2-2.6-0.4s-1.7-0.4-2.4-0.8
		c-0.6-0.3-1.2-0.7-1.8-1.1c-0.6-0.4-1-1-1.4-1.5c-0.5-0.9-0.9-2-1.2-3.2c-0.3-1.2-0.4-2.4-0.4-3.7s0.2-2.6,0.5-4
		c0.3-1.4,0.8-2.7,1.4-4c0.6-1.3,1.3-2.5,2.2-3.7c0.9-1.2,1.9-2.2,3-3.1c0.8-0.5,1.7-1,2.8-1.3c1.1-0.3,2.1-0.4,3.1-0.2
		c1.3,0.2,2.5,0.5,3.6,0.9c1.1,0.4,2.1,0.9,2.8,1.4C71.7,23.9,72.3,24.6,72.7,25.3z M64,26.9c-0.6,0.5-1.2,1.2-1.7,2
		c-0.6,0.9-1.1,1.8-1.6,2.9c-0.5,1-0.9,2.1-1.2,3c-0.3,1-0.5,2-0.7,3c-0.1,1-0.2,2-0.1,2.9c0,0.9,0.2,1.6,0.5,2.3s0.7,1,1.2,1.2
		c0.5,0.1,1,0.1,1.5-0.3c0.5-0.3,1-0.8,1.5-1.5c0.5-0.7,1-1.5,1.4-2.5c0.5-1,0.8-2.1,1.2-3.2c0.3-1,0.5-2,0.7-3.2
		c0.2-1.2,0.3-2.2,0.3-3.2c0-1-0.1-1.9-0.3-2.6c-0.2-0.7-0.5-1.1-1-1.3C65.1,26.2,64.5,26.4,64,26.9z"/>
	<path d="M95.8,25.3c0.4,0.7,0.7,1.5,0.8,2.4c0.2,1.5,0.3,3.1,0.2,4.8c-0.1,1.7-0.5,3.5-1,5.2c-0.5,1.7-1.2,3.3-2.1,4.9
		c-0.9,1.5-2,2.8-3.3,3.9c-0.9,0.6-1.8,1.1-2.8,1.3c-1,0.2-2.1,0.3-3.4,0.1c-0.8-0.1-1.7-0.2-2.6-0.4s-1.7-0.4-2.4-0.8
		c-0.6-0.3-1.2-0.7-1.8-1.1c-0.6-0.4-1-1-1.4-1.5c-0.5-0.9-0.9-2-1.2-3.2c-0.3-1.2-0.4-2.4-0.4-3.7s0.2-2.6,0.5-4
		c0.3-1.4,0.8-2.7,1.4-4c0.6-1.3,1.3-2.5,2.2-3.7c0.9-1.2,1.9-2.2,3-3.1c0.8-0.5,1.7-1,2.8-1.3c1.1-0.3,2.1-0.4,3.1-0.2
		c1.3,0.2,2.5,0.5,3.6,0.9c1.1,0.4,2.1,0.9,2.8,1.4C94.8,23.9,95.4,24.6,95.8,25.3z M87.1,26.9c-0.6,0.5-1.2,1.2-1.7,2
		c-0.6,0.9-1.1,1.8-1.6,2.9c-0.5,1-0.9,2.1-1.2,3c-0.3,1-0.5,2-0.7,3c-0.1,1-0.2,2-0.1,2.9c0,0.9,0.2,1.6,0.5,2.3s0.7,1,1.2,1.2
		c0.5,0.1,1,0.1,1.5-0.3c0.5-0.3,1-0.8,1.5-1.5c0.5-0.7,1-1.5,1.4-2.5c0.5-1,0.8-2.1,1.2-3.2c0.3-1,0.5-2,0.7-3.2
		c0.2-1.2,0.3-2.2,0.3-3.2c0-1-0.1-1.9-0.3-2.6c-0.2-0.7-0.5-1.1-1-1.3C88.1,26.2,87.6,26.4,87.1,26.9z"/>
	<path d="M104.5,44.2c-0.2,1.1-0.4,2.1-0.6,3.2c-0.1,0.3-0.3,0.5-0.5,0.6c-0.2,0.1-0.6,0.1-1.2,0c-0.6-0.1-1.1-0.3-1.7-0.4
		c-0.5-0.1-1-0.3-1.4-0.5s-0.7-0.5-0.9-0.8C97.9,46,97.9,45.5,98,45c0.2-0.5,0.4-1.3,0.5-2.5c0.2-1.2,0.3-2.5,0.4-4
		c0.1-1.5,0.3-3,0.4-4.6c0.1-1.6,0.3-3.1,0.4-4.4c0.1-1.3,0.3-2.5,0.4-3.4c0.2-0.9,0.4-1.4,0.6-1.5c0.8-0.4,1.8-0.8,2.8-1.3
		c1-0.4,2.1-0.8,3.2-1.2c1.1-0.4,2.2-0.7,3.3-0.9s2.2-0.4,3.2-0.4c1,0,2,0.1,2.8,0.3c0.9,0.2,1.6,0.6,2.3,1.2
		c0.8,0.8,1.4,1.6,2.1,2.5s1.1,2,1.5,3.3c0.2,0.6,0.2,1.2,0.1,1.8c-0.1,0.6-0.2,1.1-0.5,1.6c-0.3,0.5-0.6,1-1,1.4
		c-0.4,0.4-0.8,0.9-1.3,1.3c-0.8,0.7-1.7,1.4-2.7,2c-1.1,0.7-2.2,1.3-3.4,1.8s-2.5,1.1-3.9,1.5c-1.4,0.5-2.7,0.9-4,1.2
		C104.9,42,104.7,43.1,104.5,44.2z M110.8,33.4c1.2-0.7,2.1-1.3,2.9-2c0.8-0.7,1.3-1.4,1.6-2c0.3-0.7,0.4-1.2,0.2-1.6
		c-0.1-0.2-0.3-0.4-0.7-0.6c-0.4-0.1-0.9-0.2-1.6-0.2c-0.6,0-1.3,0.1-2.1,0.3c-0.8,0.2-1.6,0.4-2.4,0.7c-0.4,1.1-0.7,2.2-1,3.4
		c-0.3,1.2-0.6,2.4-1,3.7C108.2,34.6,109.6,34.1,110.8,33.4z"/>
	<path d="M121.1,40.9c0.4-0.1,0.9-0.1,1.3-0.1c0.4,0,0.9,0.1,1.3,0.2c0.4,0.1,0.8,0.3,1.1,0.5c1.9,1.1,3.5,1.8,4.9,2.1
		c1.4,0.3,2.4,0.2,3-0.2c0.3-0.2,0.3-0.4,0.2-0.6c-0.1-0.2-0.4-0.5-0.8-0.8s-0.9-0.6-1.5-1c-0.6-0.4-1.3-0.7-1.9-1.1
		c-0.7-0.4-1.4-0.8-2.1-1.2c-0.7-0.4-1.3-0.8-1.9-1.3c-0.6-0.4-1.2-1-1.6-1.5s-0.8-1.2-1.1-1.9c-0.3-0.7-0.4-1.4-0.4-2.1
		c0-0.8,0.1-1.5,0.4-2.4c0.2-0.7,0.5-1.5,1-2.3c0.5-0.8,1-1.6,1.7-2.4c0.7-0.8,1.4-1.5,2.2-2.1c0.8-0.7,1.6-1.2,2.4-1.7
		c0.3-0.2,0.6-0.4,1-0.5c0.4-0.2,0.9-0.3,1.4-0.4c0.5-0.1,1.1-0.1,1.7-0.1c0.6,0,1.3,0.1,1.9,0.3c1,0.3,2,0.7,3,1.2s1.9,1,2.5,1.6
		c0.4,0.4,0.8,0.8,1,1.2c0.2,0.4,0.4,0.8,0.5,1.1s0.2,0.7,0.2,1.1c0,0.4,0,0.7,0,1c-0.1,0.5-0.2,1.1-0.4,1.8c-0.2,0.7-0.3,1.4-0.5,2
		c-0.2,0.7-0.4,1.4-0.7,2c-0.2,0.6-0.5,1.2-0.7,1.6c-0.3,0.4-0.5,0.7-0.8,0.8c-0.3,0.1-0.7,0.1-1.2-0.2c-3-0.9-4.4-2.3-4.2-4
		c0-0.4,0.1-0.8,0.2-1.3c0.1-0.5,0.2-0.9,0.4-1.4c0.1-0.5,0.2-0.9,0.3-1.4c0.1-0.4,0.1-0.8,0.1-1c0-0.3-0.1-0.4-0.3-0.5
		s-0.5,0.1-0.9,0.4c-0.4,0.2-0.8,0.5-1.2,0.8c-0.5,0.4-0.9,0.8-1.3,1.3c-0.4,0.5-0.8,1-1.1,1.5c-0.3,0.5-0.5,1.1-0.6,1.7
		c-0.1,0.6-0.1,1.1,0,1.7c0.1,0.5,0.5,1,1,1.5c0.6,0.6,1.4,1.1,2.2,1.6c0.8,0.5,1.6,1,2.4,1.5c0.8,0.5,1.5,0.9,2.2,1.4
		c0.7,0.5,1.3,0.9,1.7,1.4c0.5,0.5,0.7,1,0.9,1.5c0.1,0.5,0,1.1-0.3,1.7c-0.2,0.4-0.5,0.9-0.9,1.4c-0.4,0.5-0.9,1-1.6,1.4
		c-0.7,0.4-1.5,0.8-2.4,1.1c-1,0.3-2.1,0.4-3.4,0.5c-1.8,0-3.5-0.3-5.2-0.9c-1.7-0.6-3.4-1.7-5.2-3.3c-1-0.8-1.5-1.3-1.5-1.7
		c0-0.4,0.2-0.7,0.6-0.9C120.2,41.1,120.7,41,121.1,40.9z"/>
</g>
</svg>
