<?xml version="1.0" encoding="utf-8"?>
<!-- Generator: Adobe Illustrator 23.0.6, SVG Export Plug-In . SVG Version: 6.00 Build 0)  -->
<svg version="1.1" id="Layer_1" xmlns="http://www.w3.org/2000/svg" xmlns:xlink="http://www.w3.org/1999/xlink" x="0px" y="0px"
	 viewBox="0 0 300 250" style="enable-background:new 0 0 300 250;" xml:space="preserve">
<style type="text/css">
	.st0{fill:#FFFFFF;}
</style>
<path class="st0" d="M154.4,206.7h-2.73c-1.38,0-2.5,1.42-2.5,2.69v-4.23c0-1.27-1.12-2.69-2.51-2.69h-2.72
	c-1.39,0-2.51,1.42-2.51,2.69v-2.7c0-1.27-1.12-2.69-2.5-2.69h-2.72c-1.38,0-2.5,1.42-2.5,2.69V192c0-1.96-1.73-3.55-3.87-3.55
	c-2.14,0-3.87,1.59-3.87,3.55v20.63c-2.4-1.65-5.9-4.63-9.11-3.24c-2.29,1-1.77,4.07,0.51,6.35c3.99,3.99,8.2,11.91,9.76,16.46
	c2.45,7.18,3.84,10.34,3.84,10.34h20.66c0,0,2.29-7.38,4.46-11.86c0.26-0.53,0.81-1.57,0.81-5.16v-7.28v-8.87
	C156.91,208.12,155.79,206.7,154.4,206.7"/>
<path d="M131.9,241.17h18.73c0.7-2.17,2.49-7.49,4.22-11.08c0.23-0.48,0.67-1.39,0.67-4.56v-16.15c0-0.56-0.56-1.31-1.12-1.31h-2.73
	c-0.57,0-1.12,0.75-1.12,1.31c0,0.76-0.62,1.38-1.38,1.38c-0.76,0-1.38-0.62-1.38-1.38v-4.23c0-0.56-0.56-1.31-1.12-1.31h-2.72
	c-0.57,0-1.12,0.75-1.12,1.31c0,0.76-0.62,1.38-1.38,1.38c-0.76,0-1.38-0.62-1.38-1.38v-2.7c0-0.56-0.56-1.31-1.12-1.31h-2.73
	c-0.57,0-1.12,0.75-1.12,1.31c0,0.76-0.62,1.38-1.38,1.38c-0.76,0-1.38-0.62-1.38-1.38V192c0-1.19-1.11-2.17-2.49-2.17
	c-1.37,0-2.49,0.97-2.49,2.17v20.63c0,0.51-0.28,0.98-0.74,1.22c-0.45,0.24-1,0.21-1.42-0.08c-0.28-0.19-0.58-0.41-0.9-0.63
	c-1.7-1.21-3.82-2.72-5.67-2.72c-0.43,0-0.83,0.08-1.21,0.25c-0.37,0.16-0.56,0.39-0.62,0.74c-0.14,0.76,0.29,2.09,1.57,3.37
	c4.02,4.02,8.36,11.95,10.09,16.99C130.15,236.77,131.35,239.82,131.9,241.17 M151.64,243.94h-20.66c-0.55,0-1.04-0.32-1.26-0.82
	c-0.06-0.13-1.44-3.3-3.89-10.45c-1.42-4.15-5.48-11.99-9.43-15.94c-1.78-1.78-2.67-4.02-2.32-5.84c0.24-1.25,1.03-2.23,2.23-2.76
	c0.73-0.32,1.5-0.48,2.31-0.48c2.18,0,4.21,1.13,5.97,2.32V192c0-2.72,2.36-4.93,5.25-4.93c2.89,0,5.25,2.21,5.25,4.93v6.58
	c0.35-0.12,0.73-0.19,1.12-0.19h2.73c1.79,0,3.22,1.4,3.71,2.95c0.4-0.16,0.84-0.26,1.3-0.26h2.72c2.23,0,3.89,2.15,3.89,4.07v0.35
	c0.35-0.12,0.73-0.19,1.12-0.19h2.73c2.23,0,3.89,2.15,3.89,4.07v16.15c0,3.81-0.6,5.05-0.93,5.71c-2.11,4.38-4.38,11.64-4.4,11.71
	C152.78,243.54,152.24,243.94,151.64,243.94"/>
<path d="M133.7,210.32c-0.76,0-1.38-0.62-1.38-1.38v-6.48c0-0.76,0.62-1.38,1.38-1.38c0.76,0,1.38,0.62,1.38,1.38v6.48
	C135.08,209.7,134.47,210.32,133.7,210.32"/>
<path d="M141.44,213.02c-0.76,0-1.38-0.62-1.38-1.38v-6.48c0-0.76,0.62-1.38,1.38-1.38c0.76,0,1.38,0.62,1.38,1.38v6.48
	C142.82,212.4,142.2,213.02,141.44,213.02"/>
<path d="M149.17,217.25c-0.76,0-1.38-0.62-1.38-1.38v-6.48c0-0.76,0.62-1.38,1.38-1.38c0.76,0,1.38,0.62,1.38,1.38v6.48
	C150.55,216.64,149.94,217.25,149.17,217.25"/>
</svg>
