<?xml version="1.0" encoding="utf-8"?>
<!-- Generator: Adobe Illustrator 24.1.3, SVG Export Plug-In . SVG Version: 6.00 Build 0)  -->
<svg version="1.1" id="Layer_1" xmlns="http://www.w3.org/2000/svg" xmlns:xlink="http://www.w3.org/1999/xlink" x="0px" y="0px"
	 viewBox="0 0 172.7 149" style="enable-background:new 0 0 172.7 149;" xml:space="preserve">
<style type="text/css">
	.st0{fill:#FFFFFF;}
</style>
<path d="M92.3,117.5c0-1.8,0.1-3.7,0.1-5.6c-3,12.3-3.3,21.3-1.7,29.4c-11.4-6-17.7-16.4-20.7-33.2c-0.1,2.9,0,5.8,0.4,8.6
	c-37.7-5-66.2-28.4-66.2-56.6c0-31.8,36.4-57.6,81.4-57.6c44.9,0,81.3,25.8,81.3,57.6C166.9,90.3,134.1,115,92.3,117.5 M172.7,61.1
	C172.7,27.4,134,0,86.3,0C38.7,0,0,27.4,0,61.1c0,30.1,30.7,55.1,71.2,60.2c2.7,11.9,10.3,21.7,25.3,27.7c-2.8-9-3.9-17.6-4.1-26.9
	C137.2,119.9,172.7,93.5,172.7,61.1"/>
<path class="st0" d="M166.9,60.1c0,30.2-32.8,54.9-74.6,57.4c0-1.8,0.1-3.7,0.1-5.6c-3,12.3-3.3,21.3-1.7,29.4
	c-11.4-6-17.7-16.4-20.7-33.2c-0.1,2.9,0,5.8,0.4,8.6c-37.7-5-66.2-28.4-66.2-56.6c0-31.8,36.4-57.6,81.4-57.6
	C130.5,2.5,166.9,28.3,166.9,60.1"/>
</svg>
