<?xml version="1.0" encoding="utf-8"?>
<!-- Generator: Adobe Illustrator 24.1.3, SVG Export Plug-In . SVG Version: 6.00 Build 0)  -->
<svg version="1.1" id="Layer_1" xmlns="http://www.w3.org/2000/svg" xmlns:xlink="http://www.w3.org/1999/xlink" x="0px" y="0px"
	 viewBox="0 0 728 90" style="enable-background:new 0 0 728 90;" xml:space="preserve">
<style type="text/css">
	.st0{fill:#FFFFFF;}
</style>
<g>
	<path class="st0" d="M30,60l-1-2.9h-5l-1,2.9h-3l5.1-14h3L33,60H30z M26.4,49.1l-1.8,5.6h3.5L26.4,49.1z"/>
	<path class="st0" d="M40.8,60v-5.4c0-1.3-0.1-2-0.4-2.4c-0.1-0.1-0.4-0.4-1.1-0.4c-0.9,0-1.7,0.5-1.9,0.7V60h-2.8V49.6h2.4v0.8
		c0.2-0.1,1.4-1.1,2.9-1.1c1.1,0,2,0.3,2.7,1c1.2,1.2,1.1,2.7,1.1,4.1V60H40.8z"/>
	<path class="st0" d="M52.8,60v-0.6c-0.1,0.1-1,0.9-2.8,0.9c-2.8,0-4.6-2.2-4.6-5.3c0-3.4,2.4-5.6,5-5.6c1.2,0,2,0.4,2.1,0.4v-5h2.8
		V60H52.8z M52.4,52.1c-0.1,0-0.8-0.4-1.6-0.4c-1.5,0-2.6,1.1-2.6,3.2c0,2,1.1,3.1,2.5,3.1c0.9,0,1.7-0.5,1.7-0.5V52.1z"/>
	<path class="st0" d="M74.6,60v-5.6c0-1.2,0-2.6-1.4-2.6c-0.9,0-1.7,0.6-1.9,0.7c0.1,0.4,0.1,0.5,0.1,2.3V60h-2.8v-5.6
		c0-1.2,0-2.6-1.4-2.6c-0.8,0-1.6,0.5-1.8,0.6V60h-2.8V49.6h2.4v0.8c0.2-0.1,1.3-1.1,2.9-1.1c1.6,0,2.3,0.9,2.5,1.1
		c0.2-0.1,1.5-1.1,3.3-1.1c0.9,0,1.9,0.3,2.6,0.9c1.2,1.2,1.2,3,1.2,5.3V60H74.6z"/>
	<path class="st0" d="M85.4,60v-0.7c-0.2,0.1-1.3,1-2.9,1c-2.1,0-3.3-1.4-3.3-3.3c0-3.7,4.5-3.7,5.8-3.7h0.3c0-0.6,0-0.9-0.3-1.2
		c-0.2-0.2-0.7-0.4-1.5-0.4c-1.4,0-2.6,0.7-2.8,0.8l-0.9-1.8c0.1-0.1,1.6-1.1,3.9-1.1c0.9,0,2.4,0.1,3.4,1.2
		c0.9,0.9,0.8,1.9,0.8,3.3V60H85.4z M85.2,55.1c-0.2,0-0.4,0-0.4,0c-1.8,0-3.1,0.3-3.1,1.6c0,1.1,0.9,1.4,1.6,1.4
		c1.2,0,1.8-0.6,2-0.6V55.1z"/>
	<path class="st0" d="M96.7,60L93,55.1V60h-2.8V44.8H93v8.7l3.8-3.8h3.3l-4.6,4.5l4.6,5.8H96.7z"/>
	<path class="st0" d="M109.9,55.7h-6.8c0,0.8,0.6,2.3,2.6,2.3c1.3,0,2.3-0.5,2.8-0.7l0.9,1.8c-0.1,0.1-1.6,1.1-3.9,1.1
		c-3.4,0-5.1-2.4-5.1-5.4c0-3.2,2-5.5,5-5.5c3,0,4.6,2.1,4.6,5.5C109.9,55.3,109.9,55.6,109.9,55.7z M105.3,51.5
		c-1.3,0-2.1,1-2.3,2.2h4.2C107.3,53.1,107.1,51.5,105.3,51.5z"/>
	<path class="st0" d="M119.9,60.3c-2.4,0-3.9-1.1-4-1.2l1-1.8c0.2,0.1,1.4,0.8,2.7,0.8c1.3,0,1.6-0.5,1.6-1c0-0.7-0.6-0.8-2.2-1.5
		c-0.9-0.4-2.6-1-2.6-3c0-2,1.6-3.3,4.1-3.3c2.2,0,3.4,0.9,3.4,0.9l-0.9,1.7c-0.1-0.1-1.3-0.7-2.4-0.7s-1.4,0.5-1.4,0.9
		c0,0.7,0.7,0.9,1.9,1.3c1.4,0.6,3,1.2,3,3.3C124,59,122.5,60.3,119.9,60.3z"/>
	<path class="st0" d="M132.6,60v-0.8c-0.2,0.1-1.4,1.1-2.9,1.1c-1.1,0-2-0.3-2.7-1c-1.2-1.2-1.1-2.7-1.1-4.1v-5.6h2.8v5.4
		c0,1.3,0.1,2,0.4,2.4c0.1,0.1,0.4,0.4,1.1,0.4c0.9,0,1.7-0.5,1.9-0.7v-7.6h2.8V60H132.6z"/>
	<path class="st0" d="M143.8,51.8c-0.1,0-0.5-0.1-0.6-0.1c-1.7,0-2.6,1-2.9,1.5V60h-2.8V49.6h2.4v1.3c0.1-0.1,1.4-1.6,3.4-1.6
		c0.7,0,1.1,0.3,1.2,0.3L143.8,51.8z"/>
	<path class="st0" d="M154.5,55.7h-6.8c0,0.8,0.6,2.3,2.6,2.3c1.3,0,2.3-0.5,2.8-0.7l0.9,1.8c-0.1,0.1-1.6,1.1-3.9,1.1
		c-3.4,0-5.1-2.4-5.1-5.4c0-3.2,2-5.5,5-5.5c3,0,4.6,2.1,4.6,5.5C154.6,55.3,154.5,55.6,154.5,55.7z M150,51.5c-1.3,0-2.1,1-2.3,2.2
		h4.2C152,53.1,151.8,51.5,150,51.5z"/>
	<path class="st0" d="M167.5,60.1c-0.8,2-1.3,3-2,3.7c-0.4,0.4-1.3,1.1-3,1.1c-1.5,0-2.5-0.6-2.6-0.7l0.8-2c0.1,0.1,0.8,0.4,1.6,0.4
		c0.6,0,1.1-0.2,1.4-0.5c0.5-0.5,0.9-1.6,1-2.1l-4.3-10.3h3l2.8,7.2l2.6-7.2h2.8L167.5,60.1z"/>
	<path class="st0" d="M177.3,60.3c-3,0-5.1-2.2-5.1-5.4c0-3.2,2.2-5.5,5.4-5.5c3,0,5.2,2.2,5.2,5.4C182.7,58,180.5,60.3,177.3,60.3z
		 M177.4,51.7c-1.4,0-2.4,1.2-2.4,3.1c0,1.9,1,3.1,2.5,3.1s2.4-1.2,2.4-3.1C179.8,52.9,178.8,51.7,177.4,51.7z"/>
	<path class="st0" d="M191.2,60v-0.8c-0.2,0.1-1.4,1.1-2.9,1.1c-1.1,0-2-0.3-2.7-1c-1.2-1.2-1.1-2.7-1.1-4.1v-5.6h2.8v5.4
		c0,1.3,0.1,2,0.4,2.4c0.1,0.1,0.4,0.4,1.1,0.4c0.9,0,1.7-0.5,1.9-0.7v-7.6h2.8V60H191.2z"/>
	<path class="st0" d="M198.1,50.3c-0.3,0.3-0.8,0.7-1.2,1l-1.6-1.4c0.1-0.1,0.2-0.2,0.3-0.3c1.5-1.5,1.4-2.9,1.4-3.6h3
		C199.9,47.5,199.7,48.7,198.1,50.3z"/>
	<path class="st0" d="M207.5,51.8c-0.1,0-0.5-0.1-0.6-0.1c-1.7,0-2.6,1-2.9,1.5V60h-2.8V49.6h2.4v1.3c0.1-0.1,1.4-1.6,3.4-1.6
		c0.7,0,1.1,0.3,1.2,0.3L207.5,51.8z"/>
	<path class="st0" d="M218.2,55.7h-6.8c0,0.8,0.6,2.3,2.6,2.3c1.3,0,2.3-0.5,2.8-0.7l0.9,1.8c-0.1,0.1-1.6,1.1-3.9,1.1
		c-3.4,0-5.1-2.4-5.1-5.4c0-3.2,2-5.5,5-5.5c3,0,4.6,2.1,4.6,5.5C218.2,55.3,218.2,55.6,218.2,55.7z M213.7,51.5
		c-1.3,0-2.1,1-2.3,2.2h4.2C215.6,53.1,215.4,51.5,213.7,51.5z"/>
	<path class="st0" d="M229.9,60.3c-1.2,0-2-0.4-2.1-0.4v4.7h-2.8V49.6h2.5v0.6c0.1-0.1,1-0.9,2.8-0.9c2.8,0,4.6,2.2,4.6,5.3
		C234.8,58,232.5,60.3,229.9,60.3z M229.5,51.7c-0.9,0-1.7,0.5-1.7,0.5v5.3c0.1,0,0.8,0.4,1.6,0.4c1.5,0,2.6-1.1,2.6-3.2
		C232,52.8,230.8,51.7,229.5,51.7z"/>
	<path class="st0" d="M243.1,51.8c-0.1,0-0.5-0.1-0.6-0.1c-1.7,0-2.6,1-2.9,1.5V60h-2.8V49.6h2.4v1.3c0.1-0.1,1.4-1.6,3.4-1.6
		c0.7,0,1.1,0.3,1.2,0.3L243.1,51.8z"/>
	<path class="st0" d="M249.4,60.3c-3,0-5.1-2.2-5.1-5.4c0-3.2,2.2-5.5,5.4-5.5c3,0,5.2,2.2,5.2,5.4C254.8,58,252.6,60.3,249.4,60.3z
		 M249.5,51.7c-1.4,0-2.4,1.2-2.4,3.1c0,1.9,1,3.1,2.5,3.1s2.4-1.2,2.4-3.1C252,52.9,251,51.7,249.5,51.7z"/>
	<path class="st0" d="M261.1,60.3c-0.9,0-2-0.2-2.7-0.9c-0.9-0.9-0.9-1.9-0.9-3.3v-4h-1.8v-2.4h1.8v-2.9h2.8v2.9h2.9V52h-2.9v4.1
		c0,0.8,0.1,1.8,1.3,1.8c0.7,0,1.1-0.2,1.3-0.3l0.7,2C263.6,59.7,262.6,60.3,261.1,60.3z"/>
	<path class="st0" d="M274.3,55.7h-6.8c0,0.8,0.6,2.3,2.6,2.3c1.3,0,2.3-0.5,2.8-0.7l0.9,1.8c-0.1,0.1-1.6,1.1-3.9,1.1
		c-3.4,0-5.1-2.4-5.1-5.4c0-3.2,2-5.5,5-5.5c3,0,4.6,2.1,4.6,5.5C274.4,55.3,274.3,55.6,274.3,55.7z M269.8,51.5
		c-1.3,0-2.1,1-2.3,2.2h4.2C271.7,53.1,271.5,51.5,269.8,51.5z"/>
	<path class="st0" d="M281.1,60.3c-3.2,0-5.3-2.3-5.3-5.4c0-3.2,2.4-5.5,5.5-5.5c2.2,0,3.4,1,3.6,1.3l-1.1,1.7
		c-0.1-0.1-1-0.7-2.2-0.7c-1.9,0-2.9,1.6-2.9,3.1c0,1.8,0.9,3.2,2.8,3.2c1.3,0,2.4-0.7,2.5-0.8L285,59C285,59,283.5,60.3,281.1,60.3
		z"/>
	<path class="st0" d="M291.2,60.3c-0.9,0-2-0.2-2.7-0.9c-0.9-0.9-0.9-1.9-0.9-3.3v-4h-1.8v-2.4h1.8v-2.9h2.8v2.9h2.9V52h-2.9v4.1
		c0,0.8,0.1,1.8,1.3,1.8c0.7,0,1.1-0.2,1.3-0.3l0.7,2C293.8,59.7,292.8,60.3,291.2,60.3z"/>
	<path class="st0" d="M304.5,55.7h-6.8c0,0.8,0.6,2.3,2.6,2.3c1.3,0,2.3-0.5,2.8-0.7l0.9,1.8c-0.1,0.1-1.6,1.1-3.9,1.1
		c-3.4,0-5.1-2.4-5.1-5.4c0-3.2,2-5.5,5-5.5c3,0,4.6,2.1,4.6,5.5C304.5,55.3,304.5,55.6,304.5,55.7z M299.9,51.5
		c-1.3,0-2.1,1-2.3,2.2h4.2C301.9,53.1,301.7,51.5,299.9,51.5z"/>
	<path class="st0" d="M313.4,60v-0.6c-0.1,0.1-1,0.9-2.8,0.9c-2.8,0-4.6-2.2-4.6-5.3c0-3.4,2.4-5.6,5-5.6c1.2,0,2,0.4,2.1,0.4v-5
		h2.8V60H313.4z M313,52.1c-0.1,0-0.8-0.4-1.6-0.4c-1.5,0-2.6,1.1-2.6,3.2c0,2,1.1,3.1,2.5,3.1c0.9,0,1.7-0.5,1.7-0.5V52.1z"/>
	<path class="st0" d="M320,60.1c-1,0-1.7-0.8-1.7-1.7s0.8-1.7,1.7-1.7s1.7,0.8,1.7,1.7S321,60.1,320,60.1z"/>
</g>
</svg>
