<?xml version="1.0" encoding="utf-8"?>
<!-- Generator: Adobe Illustrator 24.1.3, SVG Export Plug-In . SVG Version: 6.00 Build 0)  -->
<svg version="1.1" id="Layer_1" xmlns="http://www.w3.org/2000/svg" xmlns:xlink="http://www.w3.org/1999/xlink" x="0px" y="0px"
	 viewBox="0 0 728 90" style="enable-background:new 0 0 728 90;" xml:space="preserve">
<g>
	<path d="M51.5,34.5c-0.1-0.7-0.2-1.5-0.2-2.3c0-0.8,0.1-1.7,0.2-2.6c0.1-0.9,0.3-1.9,0.5-2.8s0.4-1.9,0.7-2.9s0.5-1.9,0.8-2.8
		c0.1-0.4,0.3-0.7,0.5-0.7c0.2-0.1,0.6,0,1.1,0.1c0.5,0.1,0.9,0.3,1.3,0.5c0.4,0.2,0.8,0.4,1.2,0.7c0.8,0.6,1.1,1.3,0.9,2.1
		c-0.2,0.7-0.5,1.5-0.8,2.4c-0.3,0.9-0.5,1.7-0.8,2.6s-0.4,1.7-0.6,2.6c-0.2,0.8-0.3,1.6-0.3,2.3c0,0.7,0,1.2,0.1,1.7
		c0.1,0.4,0.3,0.7,0.7,0.8c0.4,0.1,0.8-0.1,1.2-0.6c0.4-0.5,0.8-1.1,1.2-2c0.4-0.8,0.7-1.8,1-2.9s0.6-2.2,0.9-3.4s0.5-2.3,0.8-3.4
		c0.2-1.1,0.4-2.1,0.6-3c0-0.4,0.2-0.7,0.5-0.8s0.7-0.1,1.1,0c0.4,0.1,0.9,0.3,1.4,0.5c0.5,0.2,1,0.5,1.4,0.7
		c0.2,0.1,0.4,0.2,0.5,0.4c0.1,0.1,0.2,0.2,0.2,0.3c0,0.1,0.1,0.2,0,0.4c0,0.1,0,0.3-0.1,0.5c-0.5,2-0.9,3.9-1.4,5.6
		c-0.5,1.7-1,3.2-1.5,4.5c-0.5,1.3-1.1,2.4-1.7,3.3c-0.6,0.9-1.3,1.5-2.1,1.9c-0.5,0.2-1.1,0.4-1.6,0.5c-0.5,0.1-1.2,0.1-1.9,0.1
		c-1.4-0.1-2.5-0.4-3.4-0.8c-0.4-0.2-0.8-0.4-1.1-0.7s-0.6-0.6-0.9-1C51.9,35.8,51.7,35.2,51.5,34.5z"/>
	<path d="M82.9,26.2c-0.4,1.3-0.9,2.7-1.3,4.1c-0.4,1.4-0.8,2.8-1.2,4.2c-0.4,1.4-0.7,2.7-1.1,3.9c0,0.2-0.1,0.3-0.2,0.4
		c-0.1,0.1-0.3,0.1-0.5,0.1c-0.2,0-0.4,0-0.7-0.1c-0.3-0.1-0.6-0.1-0.9-0.2c-0.6-0.2-1.1-0.4-1.5-0.6c-0.4-0.2-0.5-0.6-0.3-1.1
		c0.1-0.5,0.2-1.1,0.3-1.8s0.3-1.4,0.4-2.2c-0.7,0.1-1.3,0.2-1.9,0.2s-1.3,0.2-1.9,0.3c-0.2,1-0.5,1.9-0.6,2.8
		c-0.2,0.9-0.3,1.6-0.4,2.3c-0.1,0.2-0.2,0.4-0.3,0.5s-0.4,0.1-0.8,0c-0.4-0.1-0.8-0.2-1.2-0.3s-0.8-0.2-1.1-0.4
		c-0.4-0.2-0.6-0.3-0.8-0.5s-0.2-0.5-0.1-0.9c0.2-1,0.5-2.1,0.7-3.4c0.2-1.3,0.4-2.7,0.6-4.1c0.2-1.4,0.4-2.9,0.5-4.3
		c0.2-1.4,0.4-2.7,0.5-3.9c0.1-0.5,0.3-0.7,0.5-0.8c0.2-0.1,0.6,0,1,0.1c0.5,0.1,1,0.3,1.6,0.5c0.6,0.2,1.1,0.5,1.5,0.7
		c0.2,0.1,0.4,0.2,0.5,0.4c0.1,0.1,0.2,0.2,0.3,0.3c0.1,0.1,0.1,0.2,0.1,0.4s0,0.3-0.1,0.5c-0.2,0.8-0.5,1.8-0.8,2.9
		c-0.3,1.1-0.6,2.3-0.9,3.5c0.7-0.1,1.3-0.1,1.9-0.2s1.2-0.1,1.8-0.1c0.4-1.5,0.8-3,1.1-4.5c0.4-1.5,0.7-2.8,1.1-4.1
		c0.1-0.5,0.3-0.7,0.6-0.8c0.3-0.1,0.6,0,1.1,0.1c0.5,0.1,0.9,0.3,1.4,0.5s0.9,0.4,1.4,0.7c0.4,0.3,0.6,0.5,0.7,0.7
		c0.1,0.2,0.1,0.5-0.1,0.9C83.7,23.7,83.3,24.9,82.9,26.2z"/>
	<path d="M104.5,22.9c0.3,0.5,0.5,1.1,0.6,1.7c0.2,1,0.2,2.2,0.1,3.4s-0.3,2.4-0.7,3.6c-0.4,1.2-0.9,2.3-1.5,3.4s-1.4,2-2.3,2.7
		c-0.6,0.4-1.3,0.7-2,0.9s-1.5,0.2-2.4,0.1c-0.6-0.1-1.2-0.1-1.8-0.3s-1.2-0.3-1.7-0.5c-0.4-0.2-0.8-0.5-1.2-0.8
		c-0.4-0.3-0.7-0.7-1-1.1c-0.4-0.7-0.7-1.4-0.8-2.2c-0.2-0.8-0.3-1.7-0.3-2.6c0-0.9,0.1-1.8,0.3-2.8c0.2-0.9,0.5-1.9,1-2.8
		c0.4-0.9,0.9-1.8,1.5-2.6c0.6-0.8,1.3-1.5,2.1-2.2c0.5-0.4,1.2-0.7,1.9-0.9s1.5-0.2,2.2-0.1c0.9,0.1,1.7,0.3,2.5,0.6
		c0.8,0.3,1.5,0.6,2,1C103.8,22,104.2,22.5,104.5,22.9z M98.3,24.1c-0.4,0.3-0.8,0.8-1.2,1.4s-0.8,1.3-1.1,2
		c-0.3,0.7-0.6,1.4-0.9,2.1c-0.2,0.7-0.4,1.4-0.5,2.1s-0.1,1.4-0.1,2c0,0.6,0.1,1.2,0.3,1.6c0.2,0.4,0.5,0.7,0.8,0.8
		c0.3,0.1,0.7,0,1-0.2c0.4-0.2,0.7-0.6,1.1-1c0.4-0.5,0.7-1.1,1-1.7c0.3-0.7,0.6-1.4,0.8-2.3c0.2-0.7,0.4-1.4,0.5-2.2
		c0.1-0.8,0.2-1.6,0.2-2.3c0-0.7-0.1-1.3-0.2-1.8c-0.1-0.5-0.4-0.8-0.7-0.9C99.1,23.6,98.7,23.7,98.3,24.1z"/>
	<path d="M121.5,26.2c-0.4,1.3-0.9,2.7-1.3,4.1c-0.4,1.4-0.8,2.8-1.2,4.2c-0.4,1.4-0.7,2.7-1.1,3.9c0,0.2-0.1,0.3-0.2,0.4
		c-0.1,0.1-0.3,0.1-0.5,0.1c-0.2,0-0.4,0-0.7-0.1c-0.3-0.1-0.6-0.1-0.9-0.2c-0.6-0.2-1.1-0.4-1.5-0.6c-0.4-0.2-0.5-0.6-0.3-1.1
		c0.1-0.5,0.2-1.1,0.3-1.8s0.3-1.4,0.4-2.2c-0.7,0.1-1.3,0.2-1.9,0.2s-1.3,0.2-1.9,0.3c-0.2,1-0.5,1.9-0.6,2.8
		c-0.2,0.9-0.3,1.6-0.4,2.3c-0.1,0.2-0.2,0.4-0.3,0.5s-0.4,0.1-0.8,0c-0.4-0.1-0.8-0.2-1.2-0.3s-0.8-0.2-1.1-0.4
		c-0.4-0.2-0.6-0.3-0.8-0.5s-0.2-0.5-0.1-0.9c0.2-1,0.5-2.1,0.7-3.4c0.2-1.3,0.4-2.7,0.6-4.1c0.2-1.4,0.4-2.9,0.5-4.3
		c0.2-1.4,0.4-2.7,0.5-3.9c0.1-0.5,0.3-0.7,0.5-0.8c0.2-0.1,0.6,0,1,0.1c0.5,0.1,1,0.3,1.6,0.5c0.6,0.2,1.1,0.5,1.5,0.7
		c0.2,0.1,0.4,0.2,0.5,0.4c0.1,0.1,0.2,0.2,0.3,0.3c0.1,0.1,0.1,0.2,0.1,0.4s0,0.3-0.1,0.5c-0.2,0.8-0.5,1.8-0.8,2.9
		c-0.3,1.1-0.6,2.3-0.9,3.5c0.7-0.1,1.3-0.1,1.9-0.2s1.2-0.1,1.8-0.1c0.4-1.5,0.8-3,1.1-4.5c0.4-1.5,0.7-2.8,1.1-4.1
		c0.1-0.5,0.3-0.7,0.6-0.8c0.3-0.1,0.6,0,1.1,0.1c0.5,0.1,0.9,0.3,1.4,0.5s0.9,0.4,1.4,0.7c0.4,0.3,0.6,0.5,0.7,0.7
		c0.1,0.2,0.1,0.5-0.1,0.9C122.4,23.7,122,24.9,121.5,26.2z"/>
</g>
</svg>
