<?xml version="1.0" encoding="utf-8"?>
<!-- Generator: Adobe Illustrator 24.1.3, SVG Export Plug-In . SVG Version: 6.00 Build 0)  -->
<svg version="1.1" id="Layer_1" xmlns="http://www.w3.org/2000/svg" xmlns:xlink="http://www.w3.org/1999/xlink" x="0px" y="0px"
	 viewBox="0 0 728 90" style="enable-background:new 0 0 728 90;" xml:space="preserve">
<g>
	<path d="M70.2,24.9c0.3,0.5,0.5,1.1,0.6,1.7c0.2,1,0.2,2.2,0.1,3.4s-0.3,2.4-0.7,3.6c-0.4,1.2-0.9,2.3-1.5,3.4s-1.4,2-2.3,2.7
		c-0.6,0.4-1.3,0.7-2,0.9s-1.5,0.2-2.4,0.1c-0.6-0.1-1.2-0.1-1.8-0.3s-1.2-0.3-1.7-0.5c-0.4-0.2-0.8-0.5-1.2-0.8
		c-0.4-0.3-0.7-0.7-1-1.1c-0.4-0.7-0.7-1.4-0.8-2.2c-0.2-0.8-0.3-1.7-0.3-2.6c0-0.9,0.1-1.8,0.3-2.8c0.2-0.9,0.5-1.9,1-2.8
		c0.4-0.9,0.9-1.8,1.5-2.6c0.6-0.8,1.3-1.5,2.1-2.2c0.5-0.4,1.2-0.7,1.9-0.9s1.5-0.2,2.2-0.1c0.9,0.1,1.7,0.3,2.5,0.6
		c0.8,0.3,1.5,0.6,2,1C69.5,23.9,69.9,24.4,70.2,24.9z M64,26c-0.4,0.3-0.8,0.8-1.2,1.4s-0.8,1.3-1.1,2c-0.3,0.7-0.6,1.4-0.9,2.1
		c-0.2,0.7-0.4,1.4-0.5,2.1s-0.1,1.4-0.1,2c0,0.6,0.1,1.2,0.3,1.6c0.2,0.4,0.5,0.7,0.8,0.8c0.3,0.1,0.7,0,1-0.2
		c0.4-0.2,0.7-0.6,1.1-1c0.4-0.5,0.7-1.1,1-1.7c0.3-0.7,0.6-1.4,0.8-2.3c0.2-0.7,0.4-1.4,0.5-2.2C66,29.8,66,29,66,28.3
		c0-0.7-0.1-1.3-0.2-1.8c-0.1-0.5-0.4-0.8-0.7-0.9C64.8,25.5,64.4,25.6,64,26z"/>
	<path d="M86.3,24.9c0.3,0.5,0.5,1.1,0.6,1.7c0.2,1,0.2,2.2,0.1,3.4s-0.3,2.4-0.7,3.6c-0.4,1.2-0.9,2.3-1.5,3.4s-1.4,2-2.3,2.7
		c-0.6,0.4-1.3,0.7-2,0.9s-1.5,0.2-2.4,0.1c-0.6-0.1-1.2-0.1-1.8-0.3s-1.2-0.3-1.7-0.5c-0.4-0.2-0.8-0.5-1.2-0.8
		c-0.4-0.3-0.7-0.7-1-1.1c-0.4-0.7-0.7-1.4-0.8-2.2c-0.2-0.8-0.3-1.7-0.3-2.6c0-0.9,0.1-1.8,0.3-2.8c0.2-0.9,0.5-1.9,1-2.8
		c0.4-0.9,0.9-1.8,1.5-2.6c0.6-0.8,1.3-1.5,2.1-2.2c0.5-0.4,1.2-0.7,1.9-0.9s1.5-0.2,2.2-0.1c0.9,0.1,1.7,0.3,2.5,0.6
		c0.8,0.3,1.5,0.6,2,1C85.6,23.9,86.1,24.4,86.3,24.9z M80.2,26c-0.4,0.3-0.8,0.8-1.2,1.4s-0.8,1.3-1.1,2c-0.3,0.7-0.6,1.4-0.9,2.1
		c-0.2,0.7-0.4,1.4-0.5,2.1s-0.1,1.4-0.1,2c0,0.6,0.1,1.2,0.3,1.6c0.2,0.4,0.5,0.7,0.8,0.8c0.3,0.1,0.7,0,1-0.2
		c0.4-0.2,0.7-0.6,1.1-1c0.4-0.5,0.7-1.1,1-1.7c0.3-0.7,0.6-1.4,0.8-2.3c0.2-0.7,0.4-1.4,0.5-2.2c0.1-0.8,0.2-1.6,0.2-2.3
		c0-0.7-0.1-1.3-0.2-1.8c-0.1-0.5-0.4-0.8-0.7-0.9C81,25.5,80.6,25.6,80.2,26z"/>
	<path d="M92.4,38.1c-0.2,0.8-0.3,1.5-0.4,2.2c-0.1,0.2-0.2,0.4-0.3,0.4c-0.1,0.1-0.4,0.1-0.8,0c-0.4-0.1-0.8-0.2-1.2-0.3
		c-0.4-0.1-0.7-0.2-1-0.4s-0.5-0.3-0.7-0.6c-0.1-0.2-0.2-0.5-0.1-0.9c0.1-0.3,0.3-0.9,0.4-1.7c0.1-0.8,0.2-1.7,0.3-2.8
		s0.2-2.1,0.3-3.2c0.1-1.1,0.2-2.1,0.3-3.1s0.2-1.7,0.3-2.4c0.1-0.6,0.3-1,0.4-1.1c0.6-0.3,1.2-0.6,2-0.9c0.7-0.3,1.5-0.6,2.2-0.8
		s1.5-0.5,2.3-0.6c0.8-0.2,1.5-0.3,2.2-0.3c0.7,0,1.4,0.1,2,0.2c0.6,0.2,1.1,0.4,1.6,0.8c0.5,0.5,1,1.1,1.5,1.7
		c0.4,0.6,0.8,1.4,1,2.3c0.1,0.4,0.1,0.9,0.1,1.2s-0.2,0.7-0.3,1.1c-0.2,0.3-0.4,0.7-0.7,1c-0.3,0.3-0.6,0.6-0.9,0.9
		c-0.5,0.5-1.2,1-1.9,1.4c-0.7,0.5-1.5,0.9-2.4,1.3c-0.9,0.4-1.8,0.8-2.7,1.1c-1,0.3-1.9,0.6-2.8,0.8C92.7,36.6,92.6,37.4,92.4,38.1
		z M96.8,30.6c0.8-0.5,1.5-0.9,2-1.4c0.5-0.5,0.9-1,1.1-1.4c0.2-0.5,0.3-0.8,0.1-1.2c0-0.2-0.2-0.3-0.5-0.4
		c-0.3-0.1-0.7-0.1-1.1-0.1c-0.4,0-0.9,0.1-1.5,0.2s-1.1,0.3-1.7,0.5c-0.2,0.8-0.5,1.6-0.7,2.4s-0.5,1.7-0.7,2.6
		C95,31.4,96,31,96.8,30.6z"/>
	<path d="M104.1,35.8c0.3,0,0.6-0.1,0.9,0c0.3,0,0.6,0.1,0.9,0.1c0.3,0.1,0.5,0.2,0.8,0.3c1.3,0.8,2.5,1.2,3.4,1.5
		c1,0.2,1.7,0.2,2.1-0.2c0.2-0.1,0.2-0.3,0.1-0.4c-0.1-0.2-0.3-0.4-0.6-0.6c-0.3-0.2-0.6-0.4-1.1-0.7c-0.4-0.3-0.9-0.5-1.4-0.8
		c-0.5-0.3-1-0.6-1.4-0.8s-0.9-0.6-1.3-0.9c-0.4-0.3-0.8-0.7-1.2-1.1c-0.3-0.4-0.6-0.8-0.8-1.3c-0.2-0.5-0.3-1-0.3-1.5
		c0-0.5,0.1-1.1,0.3-1.7c0.1-0.5,0.4-1.1,0.7-1.6s0.7-1.1,1.2-1.7s1-1,1.5-1.5s1.1-0.9,1.7-1.2c0.2-0.1,0.4-0.3,0.7-0.4
		c0.3-0.1,0.6-0.2,1-0.3c0.4-0.1,0.8-0.1,1.2-0.1c0.4,0,0.9,0.1,1.4,0.2c0.7,0.2,1.4,0.5,2.1,0.9c0.7,0.3,1.3,0.7,1.8,1.1
		c0.3,0.3,0.6,0.5,0.7,0.8s0.3,0.5,0.4,0.8s0.1,0.5,0.1,0.8c0,0.2,0,0.5,0,0.7c-0.1,0.4-0.1,0.8-0.3,1.3c-0.1,0.5-0.2,0.9-0.4,1.4
		c-0.1,0.5-0.3,0.9-0.5,1.4s-0.3,0.8-0.5,1.1c-0.2,0.3-0.4,0.5-0.6,0.5c-0.2,0.1-0.5,0-0.9-0.1c-2.1-0.7-3.1-1.6-2.9-2.8
		c0-0.3,0.1-0.5,0.2-0.9c0.1-0.3,0.2-0.7,0.3-1c0.1-0.3,0.2-0.7,0.2-1c0.1-0.3,0.1-0.5,0.1-0.7c0-0.2-0.1-0.3-0.2-0.3
		c-0.1,0-0.3,0-0.6,0.2c-0.3,0.1-0.6,0.3-0.9,0.6c-0.3,0.3-0.6,0.6-0.9,0.9c-0.3,0.3-0.5,0.7-0.8,1.1c-0.2,0.4-0.4,0.8-0.4,1.2
		c-0.1,0.4-0.1,0.8,0,1.2c0.1,0.4,0.3,0.7,0.7,1c0.5,0.4,1,0.8,1.5,1.1c0.6,0.3,1.1,0.7,1.7,1c0.6,0.3,1.1,0.7,1.6,1
		c0.5,0.3,0.9,0.6,1.2,1s0.5,0.7,0.6,1.1c0.1,0.4,0,0.8-0.2,1.2c-0.2,0.3-0.4,0.6-0.7,1c-0.3,0.3-0.7,0.7-1.1,1s-1,0.5-1.7,0.7
		c-0.7,0.2-1.5,0.3-2.4,0.3c-1.3,0-2.5-0.2-3.7-0.6c-1.2-0.4-2.4-1.2-3.7-2.3c-0.7-0.5-1-0.9-1.1-1.2c0-0.3,0.1-0.5,0.4-0.6
		C103.5,35.9,103.8,35.9,104.1,35.8z"/>
</g>
</svg>
