<?xml version="1.0" encoding="utf-8"?>
<!-- Generator: Adobe Illustrator 24.1.3, SVG Export Plug-In . SVG Version: 6.00 Build 0)  -->
<svg version="1.1" id="Layer_1" xmlns="http://www.w3.org/2000/svg" xmlns:xlink="http://www.w3.org/1999/xlink" x="0px" y="0px"
	 viewBox="0 0 728 90" style="enable-background:new 0 0 728 90;" xml:space="preserve">
<style type="text/css">
	.st0{fill:#FFFFFF;}
</style>
<g>
	<path class="st0" d="M30,38l-1-2.9h-5l-1,2.9h-3l5.1-14h3L33,38H30z M26.4,27.1l-1.8,5.6h3.5L26.4,27.1z"/>
	<path class="st0" d="M39,38.3c-3.2,0-5.3-2.3-5.3-5.4c0-3.2,2.4-5.5,5.5-5.5c2.2,0,3.4,1,3.6,1.3l-1.1,1.7c-0.1-0.1-1-0.7-2.2-0.7
		c-1.9,0-2.9,1.6-2.9,3.1c0,1.8,0.9,3.2,2.8,3.2c1.3,0,2.4-0.7,2.5-0.8l1.1,1.8C42.8,37,41.4,38.3,39,38.3z"/>
	<path class="st0" d="M49.1,38.3c-0.9,0-2-0.2-2.7-0.9c-0.9-0.9-0.9-1.9-0.9-3.3v-4h-1.8v-2.4h1.8v-2.9h2.8v2.9h2.9V30h-2.9v4.1
		c0,0.8,0.1,1.8,1.3,1.8c0.7,0,1.1-0.2,1.3-0.3l0.7,2C51.6,37.7,50.6,38.3,49.1,38.3z"/>
	<path class="st0" d="M54.8,26.4c-0.9,0-1.6-0.7-1.6-1.6s0.7-1.6,1.6-1.6s1.6,0.7,1.6,1.6S55.7,26.4,54.8,26.4z M53.4,38V27.6h2.8
		V38H53.4z"/>
	<path class="st0" d="M64.2,38h-2.7l-3.9-10.3h2.9l2.5,7.2l2.4-7.2h2.8L64.2,38z"/>
	<path class="st0" d="M75.3,38v-0.7c-0.2,0.1-1.3,1-2.9,1c-2.1,0-3.3-1.4-3.3-3.3c0-3.7,4.5-3.7,5.8-3.7h0.3c0-0.6,0-0.9-0.3-1.2
		c-0.2-0.2-0.7-0.4-1.5-0.4c-1.4,0-2.6,0.7-2.8,0.8l-0.9-1.8c0.1-0.1,1.6-1.1,3.9-1.1c0.9,0,2.4,0.1,3.4,1.2
		c0.9,0.9,0.8,1.9,0.8,3.3V38H75.3z M75.1,33.1c-0.2,0-0.4,0-0.4,0c-1.8,0-3.1,0.3-3.1,1.6c0,1.1,0.9,1.4,1.6,1.4
		c1.2,0,1.8-0.6,2-0.6V33.1z"/>
	<path class="st0" d="M84.4,38.3c-0.9,0-2-0.2-2.7-0.9c-0.9-0.9-0.9-1.9-0.9-3.3v-4h-1.8v-2.4h1.8v-2.9h2.8v2.9h2.9V30h-2.9v4.1
		c0,0.8,0.1,1.8,1.3,1.8c0.7,0,1.1-0.2,1.3-0.3l0.7,2C86.9,37.7,85.9,38.3,84.4,38.3z"/>
	<path class="st0" d="M97.6,33.7h-6.8c0,0.8,0.6,2.3,2.6,2.3c1.3,0,2.3-0.5,2.8-0.7l0.9,1.8c-0.1,0.1-1.6,1.1-3.9,1.1
		c-3.4,0-5.1-2.4-5.1-5.4c0-3.2,2-5.5,5-5.5c3,0,4.6,2.1,4.6,5.5C97.7,33.3,97.6,33.6,97.6,33.7z M93.1,29.4c-1.3,0-2.1,1-2.3,2.2
		H95C95,31.1,94.8,29.4,93.1,29.4z"/>
	<path class="st0" d="M110.6,38.1c-0.8,2-1.3,3-2,3.7c-0.4,0.4-1.3,1.1-3,1.1c-1.5,0-2.5-0.6-2.6-0.7l0.8-2c0.1,0.1,0.8,0.4,1.6,0.4
		c0.6,0,1.1-0.2,1.4-0.5c0.5-0.5,0.9-1.6,1-2.1l-4.3-10.3h3l2.8,7.2l2.6-7.2h2.8L110.6,38.1z"/>
	<path class="st0" d="M120.4,38.3c-3,0-5.1-2.2-5.1-5.4c0-3.2,2.2-5.5,5.4-5.5c3,0,5.2,2.2,5.2,5.4C125.7,36,123.6,38.3,120.4,38.3z
		 M120.4,29.7c-1.4,0-2.4,1.2-2.4,3.1c0,1.9,1,3.1,2.5,3.1s2.4-1.2,2.4-3.1C122.9,30.9,121.9,29.7,120.4,29.7z"/>
	<path class="st0" d="M134.2,38v-0.8c-0.2,0.1-1.4,1.1-2.9,1.1c-1.1,0-2-0.3-2.7-1c-1.2-1.2-1.1-2.7-1.1-4.1v-5.6h2.8v5.4
		c0,1.3,0.1,2,0.4,2.4c0.1,0.1,0.4,0.4,1.1,0.4c0.9,0,1.7-0.5,1.9-0.7v-7.6h2.8V38H134.2z"/>
	<path class="st0" d="M145.4,29.8c-0.1,0-0.5-0.1-0.6-0.1c-1.7,0-2.6,1-2.9,1.5V38H139V27.6h2.4v1.3c0.1-0.1,1.4-1.6,3.4-1.6
		c0.7,0,1.1,0.3,1.2,0.3L145.4,29.8z"/>
	<path class="st0" d="M158.6,38v-5.4c0-1.3-0.1-2-0.4-2.4c-0.1-0.1-0.4-0.4-1.1-0.4c-0.9,0-1.7,0.5-1.9,0.7V38h-2.8V27.6h2.4v0.8
		c0.2-0.1,1.4-1.1,2.9-1.1c1.1,0,2,0.3,2.7,1c1.2,1.2,1.1,2.7,1.1,4.1V38H158.6z"/>
	<path class="st0" d="M168.3,38.3c-3,0-5.1-2.2-5.1-5.4c0-3.2,2.2-5.5,5.4-5.5c3,0,5.2,2.2,5.2,5.4C173.7,36,171.5,38.3,168.3,38.3z
		 M168.4,29.7c-1.4,0-2.4,1.2-2.4,3.1c0,1.9,1,3.1,2.5,3.1s2.4-1.2,2.4-3.1C170.9,30.9,169.9,29.7,168.4,29.7z"/>
	<path class="st0" d="M176,33.6v-2.4h7.3v2.4H176z"/>
	<path class="st0" d="M190.9,38.3c-3.2,0-5.3-2.3-5.3-5.4c0-3.2,2.4-5.5,5.5-5.5c2.2,0,3.4,1,3.6,1.3l-1.1,1.7
		c-0.1-0.1-1-0.7-2.2-0.7c-1.9,0-2.9,1.6-2.9,3.1c0,1.8,0.9,3.2,2.8,3.2c1.3,0,2.4-0.7,2.5-0.8l1.1,1.8
		C194.8,37,193.4,38.3,190.9,38.3z"/>
	<path class="st0" d="M200.7,38.3c-3,0-5.1-2.2-5.1-5.4c0-3.2,2.2-5.5,5.4-5.5c3,0,5.2,2.2,5.2,5.4C206.1,36,203.9,38.3,200.7,38.3z
		 M200.8,29.7c-1.4,0-2.4,1.2-2.4,3.1c0,1.9,1,3.1,2.5,3.1s2.4-1.2,2.4-3.1C203.3,30.9,202.3,29.7,200.8,29.7z"/>
	<path class="st0" d="M211.1,38.3c-2.4,0-3.9-1.1-4-1.2l1-1.8c0.2,0.1,1.4,0.8,2.7,0.8c1.3,0,1.6-0.5,1.6-1c0-0.7-0.6-0.8-2.2-1.5
		c-0.9-0.4-2.6-1-2.6-3s1.6-3.3,4.1-3.3c2.2,0,3.4,0.9,3.4,0.9l-0.9,1.7c-0.1-0.1-1.3-0.7-2.4-0.7s-1.4,0.5-1.4,0.9
		c0,0.7,0.7,0.9,1.9,1.3c1.4,0.6,3,1.2,3,3.3C215.2,37,213.7,38.3,211.1,38.3z"/>
	<path class="st0" d="M221.8,38.3c-0.9,0-2-0.2-2.7-0.9c-0.9-0.9-0.9-1.9-0.9-3.3v-4h-1.8v-2.4h1.8v-2.9h2.8v2.9h2.9V30h-2.9v4.1
		c0,0.8,0.1,1.8,1.3,1.8c0.7,0,1.1-0.2,1.3-0.3l0.7,2C224.3,37.7,223.3,38.3,221.8,38.3z"/>
	<path class="st0" d="M232.5,26.4c-0.9,0-1.6-0.7-1.6-1.6s0.7-1.6,1.6-1.6s1.6,0.7,1.6,1.6S233.4,26.4,232.5,26.4z M231,38V27.6h2.8
		V38H231z"/>
	<path class="st0" d="M242.6,38v-5.4c0-1.3-0.1-2-0.4-2.4c-0.1-0.1-0.4-0.4-1.1-0.4c-0.9,0-1.7,0.5-1.9,0.7V38h-2.8V27.6h2.4v0.8
		c0.2-0.1,1.4-1.1,2.9-1.1c1.1,0,2,0.3,2.7,1c1.2,1.2,1.1,2.7,1.1,4.1V38H242.6z"/>
	<path class="st0" d="M250.9,38.3c-2.4,0-3.9-1.1-4-1.2l1-1.8c0.2,0.1,1.4,0.8,2.7,0.8c1.3,0,1.6-0.5,1.6-1c0-0.7-0.6-0.8-2.2-1.5
		c-0.9-0.4-2.6-1-2.6-3s1.6-3.3,4.1-3.3c2.2,0,3.4,0.9,3.4,0.9l-0.9,1.7c-0.1-0.1-1.3-0.7-2.4-0.7s-1.4,0.5-1.4,0.9
		c0,0.7,0.7,0.9,1.9,1.3c1.4,0.6,3,1.2,3,3.3C255,37,253.5,38.3,250.9,38.3z"/>
	<path class="st0" d="M263.6,38v-0.8c-0.2,0.1-1.4,1.1-2.9,1.1c-1.1,0-2-0.3-2.7-1c-1.2-1.2-1.1-2.7-1.1-4.1v-5.6h2.8v5.4
		c0,1.3,0.1,2,0.4,2.4c0.1,0.1,0.4,0.4,1.1,0.4c0.9,0,1.7-0.5,1.9-0.7v-7.6h2.8V38H263.6z"/>
	<path class="st0" d="M274.8,29.8c-0.1,0-0.5-0.1-0.6-0.1c-1.7,0-2.6,1-2.9,1.5V38h-2.8V27.6h2.4v1.3c0.1-0.1,1.4-1.6,3.4-1.6
		c0.7,0,1.1,0.3,1.2,0.3L274.8,29.8z"/>
	<path class="st0" d="M282.5,38v-0.7c-0.2,0.1-1.3,1-2.9,1c-2.1,0-3.3-1.4-3.3-3.3c0-3.7,4.5-3.7,5.8-3.7h0.3c0-0.6,0-0.9-0.3-1.2
		c-0.2-0.2-0.7-0.4-1.5-0.4c-1.4,0-2.6,0.7-2.8,0.8l-0.9-1.8c0.1-0.1,1.6-1.1,3.9-1.1c0.9,0,2.4,0.1,3.4,1.2
		c0.9,0.9,0.8,1.9,0.8,3.3V38H282.5z M282.3,33.1c-0.2,0-0.4,0-0.4,0c-1.8,0-3.1,0.3-3.1,1.6c0,1.1,0.9,1.4,1.6,1.4
		c1.2,0,1.8-0.6,2-0.6V33.1z"/>
	<path class="st0" d="M293.6,38v-5.4c0-1.3-0.1-2-0.4-2.4c-0.1-0.1-0.4-0.4-1.1-0.4c-0.9,0-1.7,0.5-1.9,0.7V38h-2.8V27.6h2.4v0.8
		c0.2-0.1,1.4-1.1,2.9-1.1c1.1,0,2,0.3,2.7,1c1.2,1.2,1.1,2.7,1.1,4.1V38H293.6z"/>
	<path class="st0" d="M303.5,38.3c-3.2,0-5.3-2.3-5.3-5.4c0-3.2,2.4-5.5,5.5-5.5c2.2,0,3.4,1,3.6,1.3l-1.1,1.7
		c-0.1-0.1-1-0.7-2.2-0.7c-1.9,0-2.9,1.6-2.9,3.1c0,1.8,0.9,3.2,2.8,3.2c1.3,0,2.4-0.7,2.5-0.8l1.1,1.8
		C307.4,37,305.9,38.3,303.5,38.3z"/>
	<path class="st0" d="M317.7,33.7h-6.8c0,0.8,0.6,2.3,2.6,2.3c1.3,0,2.3-0.5,2.8-0.7l0.9,1.8c-0.1,0.1-1.6,1.1-3.9,1.1
		c-3.4,0-5.1-2.4-5.1-5.4c0-3.2,2-5.5,5-5.5c3,0,4.6,2.1,4.6,5.5C317.8,33.3,317.7,33.6,317.7,33.7z M313.2,29.4
		c-1.3,0-2.1,1-2.3,2.2h4.2C315.1,31.1,314.9,29.4,313.2,29.4z"/>
	<path class="st0" d="M330.8,38v-5.4c0-1.3-0.1-2-0.4-2.4c-0.1-0.1-0.4-0.4-1.1-0.4c-0.9,0-1.7,0.5-1.9,0.7V38h-2.8V27.6h2.4v0.8
		c0.2-0.1,1.4-1.1,2.9-1.1c1.1,0,2,0.3,2.7,1c1.2,1.2,1.1,2.7,1.1,4.1V38H330.8z"/>
	<path class="st0" d="M340.5,38.3c-3,0-5.1-2.2-5.1-5.4c0-3.2,2.2-5.5,5.4-5.5c3,0,5.2,2.2,5.2,5.4C345.9,36,343.7,38.3,340.5,38.3z
		 M340.6,29.7c-1.4,0-2.4,1.2-2.4,3.1c0,1.9,1,3.1,2.5,3.1s2.4-1.2,2.4-3.1C343.1,30.9,342.1,29.7,340.6,29.7z"/>
	<path class="st0" d="M358.9,38H356l-1.8-7.1l-1.8,7.1h-2.9l-2.8-10.3h2.7l1.7,7.2l1.9-7.2h2.5l1.8,7.2l1.8-7.2h2.6L358.9,38z"/>
	<path class="st0" d="M364.5,38.1c-1,0-1.7-0.8-1.7-1.7s0.8-1.7,1.7-1.7s1.7,0.8,1.7,1.7S365.4,38.1,364.5,38.1z"/>
</g>
</svg>
