<?xml version="1.0" encoding="utf-8"?>
<!-- Generator: Adobe Illustrator 24.1.3, SVG Export Plug-In . SVG Version: 6.00 Build 0)  -->
<svg version="1.1" id="Layer_1" xmlns="http://www.w3.org/2000/svg" xmlns:xlink="http://www.w3.org/1999/xlink" x="0px" y="0px"
	 viewBox="0 0 728 90" style="enable-background:new 0 0 728 90;" xml:space="preserve">
<g>
	<path d="M419.7,24.6c-1,0.1-1.9,0.3-2.6,0.5c-0.3,0.5-0.5,0.9-0.7,1.3c-0.2,0.4-0.4,0.8-0.6,1.2c-0.1,0.2-0.2,0.3-0.4,0.4
		c-0.2,0-0.4,0-0.7-0.1c-0.2-0.1-0.4-0.1-0.6-0.2c-0.2-0.1-0.4-0.2-0.6-0.3c-0.2-0.1-0.3-0.2-0.4-0.2c-0.1-0.1-0.2-0.1-0.3-0.2
		c-0.1-0.1-0.1-0.2-0.1-0.4c0-0.2,0-0.4,0.1-0.6c0.3-0.8,0.7-1.8,1.2-3c0.5-1.1,1.1-2.3,1.6-3.5c0.6-1.2,1.2-2.4,1.8-3.6
		c0.6-1.2,1.2-2.2,1.8-3.1c0.2-0.3,0.5-0.6,0.8-0.8c0.3-0.2,0.8-0.3,1.4-0.2c0.5,0,1,0.1,1.5,0.1s0.8,0.1,1.2,0.2
		c0.4,0.1,0.7,0.2,1,0.2c0.3,0.1,0.6,0.2,0.9,0.2c0.4,0.1,0.7,0.3,0.8,0.5c0.1,0.2,0.1,0.5,0.1,0.9c-0.1,0.9-0.1,1.9-0.2,3
		c-0.1,1.1-0.1,2.3-0.1,3.5c0,1.2,0,2.4,0,3.7c0,1.2,0,2.4,0,3.4c0,0.2,0,0.4-0.1,0.5c-0.1,0.1-0.3,0.1-0.7,0.1c-0.3,0-0.7,0-1,0
		c-0.3,0-0.6-0.1-0.9-0.2c-0.3-0.1-0.5-0.2-0.7-0.3s-0.2-0.4-0.3-0.7c-0.1-0.4-0.1-0.7-0.1-1.2c0-0.4-0.1-0.9-0.1-1.4
		C421.7,24.3,420.7,24.4,419.7,24.6z M420.7,21.4c0.6-0.1,1.2-0.1,1.8-0.1c0-1,0-2-0.1-3c0-1,0-2,0-2.9c-0.5,0.9-1.1,1.9-1.7,2.9
		c-0.6,1.1-1.2,2.2-1.9,3.3C419.5,21.6,420.1,21.5,420.7,21.4z"/>
	<path d="M441.3,17.2c-0.4,1.1-0.7,2.3-1.1,3.5c-0.4,1.2-0.7,2.4-1.1,3.6c-0.3,1.2-0.6,2.3-0.9,3.3c0,0.2,0,0.3-0.1,0.3
		c-0.1,0.1-0.2,0.1-0.4,0.1c-0.2,0-0.4,0-0.6-0.1s-0.5-0.1-0.7-0.2c-0.5-0.1-1-0.3-1.3-0.5c-0.3-0.2-0.4-0.5-0.3-1
		c0.1-0.4,0.1-0.9,0.2-1.5c0.1-0.6,0.2-1.2,0.4-1.9c-0.6,0.1-1.1,0.1-1.6,0.2s-1.1,0.1-1.6,0.2c-0.2,0.8-0.4,1.6-0.5,2.4
		c-0.1,0.7-0.3,1.4-0.4,2c-0.1,0.2-0.1,0.3-0.2,0.4c-0.1,0.1-0.3,0.1-0.7,0c-0.3-0.1-0.7-0.2-1-0.3s-0.7-0.2-0.9-0.3
		c-0.3-0.1-0.5-0.3-0.7-0.5c-0.1-0.2-0.2-0.4-0.1-0.7c0.2-0.8,0.4-1.8,0.6-2.9c0.2-1.1,0.3-2.3,0.5-3.5c0.2-1.2,0.3-2.4,0.5-3.6
		s0.3-2.3,0.5-3.3c0.1-0.4,0.3-0.6,0.5-0.7c0.2-0.1,0.5,0,0.9,0.1c0.4,0.1,0.9,0.3,1.4,0.4s0.9,0.4,1.3,0.6c0.2,0.1,0.4,0.2,0.5,0.3
		c0.1,0.1,0.2,0.2,0.2,0.3c0,0.1,0.1,0.2,0,0.3c0,0.1,0,0.3-0.1,0.4c-0.2,0.7-0.4,1.5-0.7,2.4s-0.5,1.9-0.7,3
		c0.6-0.1,1.1-0.1,1.6-0.1s1.1-0.1,1.6-0.1c0.3-1.3,0.7-2.6,1-3.8c0.3-1.3,0.6-2.4,0.9-3.5c0.1-0.4,0.3-0.6,0.5-0.7
		c0.2-0.1,0.5,0,0.9,0.1c0.4,0.1,0.8,0.2,1.2,0.4c0.4,0.2,0.8,0.4,1.2,0.6c0.3,0.2,0.6,0.4,0.6,0.6c0.1,0.2,0.1,0.4,0,0.7
		C442,15.1,441.7,16.1,441.3,17.2z"/>
	<path d="M454.8,17.2c-0.4,1.1-0.7,2.3-1.1,3.5c-0.4,1.2-0.7,2.4-1.1,3.6c-0.3,1.2-0.6,2.3-0.9,3.3c0,0.2,0,0.3-0.1,0.3
		c-0.1,0.1-0.2,0.1-0.4,0.1c-0.2,0-0.4,0-0.6-0.1s-0.5-0.1-0.7-0.2c-0.5-0.1-1-0.3-1.3-0.5c-0.3-0.2-0.4-0.5-0.3-1
		c0.1-0.4,0.1-0.9,0.2-1.5c0.1-0.6,0.2-1.2,0.4-1.9c-0.6,0.1-1.1,0.1-1.6,0.2s-1.1,0.1-1.6,0.2c-0.2,0.8-0.4,1.6-0.5,2.4
		c-0.1,0.7-0.3,1.4-0.4,2c-0.1,0.2-0.1,0.3-0.2,0.4c-0.1,0.1-0.3,0.1-0.7,0c-0.3-0.1-0.7-0.2-1-0.3s-0.7-0.2-0.9-0.3
		c-0.3-0.1-0.5-0.3-0.7-0.5c-0.1-0.2-0.2-0.4-0.1-0.7c0.2-0.8,0.4-1.8,0.6-2.9c0.2-1.1,0.3-2.3,0.5-3.5c0.2-1.2,0.3-2.4,0.5-3.6
		s0.3-2.3,0.5-3.3c0.1-0.4,0.3-0.6,0.5-0.7c0.2-0.1,0.5,0,0.9,0.1c0.4,0.1,0.9,0.3,1.4,0.4s0.9,0.4,1.3,0.6c0.2,0.1,0.4,0.2,0.5,0.3
		c0.1,0.1,0.2,0.2,0.2,0.3c0,0.1,0.1,0.2,0,0.3c0,0.1,0,0.3-0.1,0.4c-0.2,0.7-0.4,1.5-0.7,2.4s-0.5,1.9-0.7,3
		c0.6-0.1,1.1-0.1,1.6-0.1s1.1-0.1,1.6-0.1c0.3-1.3,0.7-2.6,1-3.8c0.3-1.3,0.6-2.4,0.9-3.5c0.1-0.4,0.3-0.6,0.5-0.7
		c0.2-0.1,0.5,0,0.9,0.1c0.4,0.1,0.8,0.2,1.2,0.4c0.4,0.2,0.8,0.4,1.2,0.6c0.3,0.2,0.6,0.4,0.6,0.6c0.1,0.2,0.1,0.4,0,0.7
		C455.5,15.1,455.1,16.1,454.8,17.2z"/>
	<path d="M468.2,17.2c-0.4,1.1-0.7,2.3-1.1,3.5c-0.4,1.2-0.7,2.4-1.1,3.6c-0.3,1.2-0.6,2.3-0.9,3.3c0,0.2,0,0.3-0.1,0.3
		c-0.1,0.1-0.2,0.1-0.4,0.1c-0.2,0-0.4,0-0.6-0.1s-0.5-0.1-0.7-0.2c-0.5-0.1-1-0.3-1.3-0.5c-0.3-0.2-0.4-0.5-0.3-1
		c0.1-0.4,0.1-0.9,0.2-1.5c0.1-0.6,0.2-1.2,0.4-1.9c-0.6,0.1-1.1,0.1-1.6,0.2s-1.1,0.1-1.6,0.2c-0.2,0.8-0.4,1.6-0.5,2.4
		c-0.1,0.7-0.3,1.4-0.4,2c-0.1,0.2-0.1,0.3-0.2,0.4c-0.1,0.1-0.3,0.1-0.7,0c-0.3-0.1-0.7-0.2-1-0.3s-0.7-0.2-0.9-0.3
		c-0.3-0.1-0.5-0.3-0.7-0.5c-0.1-0.2-0.2-0.4-0.1-0.7c0.2-0.8,0.4-1.8,0.6-2.9c0.2-1.1,0.3-2.3,0.5-3.5c0.2-1.2,0.3-2.4,0.5-3.6
		s0.3-2.3,0.5-3.3c0.1-0.4,0.3-0.6,0.5-0.7c0.2-0.1,0.5,0,0.9,0.1c0.4,0.1,0.9,0.3,1.4,0.4s0.9,0.4,1.3,0.6c0.2,0.1,0.4,0.2,0.5,0.3
		c0.1,0.1,0.2,0.2,0.2,0.3c0,0.1,0.1,0.2,0,0.3c0,0.1,0,0.3-0.1,0.4c-0.2,0.7-0.4,1.5-0.7,2.4s-0.5,1.9-0.7,3
		c0.6-0.1,1.1-0.1,1.6-0.1s1.1-0.1,1.6-0.1c0.3-1.3,0.7-2.6,1-3.8c0.3-1.3,0.6-2.4,0.9-3.5c0.1-0.4,0.3-0.6,0.5-0.7
		c0.2-0.1,0.5,0,0.9,0.1c0.4,0.1,0.8,0.2,1.2,0.4c0.4,0.2,0.8,0.4,1.2,0.6c0.3,0.2,0.6,0.4,0.6,0.6c0.1,0.2,0.1,0.4,0,0.7
		C468.9,15.1,468.6,16.1,468.2,17.2z"/>
</g>
</svg>
