<?xml version="1.0" encoding="utf-8"?>
<!-- Generator: Adobe Illustrator 24.1.3, SVG Export Plug-In . SVG Version: 6.00 Build 0)  -->
<svg version="1.1" id="Layer_1" xmlns="http://www.w3.org/2000/svg" xmlns:xlink="http://www.w3.org/1999/xlink" x="0px" y="0px"
	 viewBox="0 0 728 90" style="enable-background:new 0 0 728 90;" xml:space="preserve">
<style type="text/css">
	.st0{fill:#FFFFFF;}
</style>
<g>
	<path class="st0" d="M178.3,30.6v6.6h-3.4v-6.6l-5.2-10h3.6l3.5,7.2l3.5-7.2h3.2L178.3,30.6z"/>
	<path class="st0" d="M189.3,37.6c-3.6,0-6.1-2.6-6.1-6.4c0-3.8,2.6-6.6,6.4-6.6c3.6,0,6.1,2.7,6.1,6.4
		C195.7,34.9,193.1,37.6,189.3,37.6z M189.4,27.4c-1.7,0-2.8,1.5-2.8,3.7c0,2.2,1.2,3.7,3,3.7s2.8-1.4,2.8-3.7
		C192.4,28.9,191.2,27.4,189.4,27.4z"/>
	<path class="st0" d="M205.8,37.3v-0.9c-0.2,0.1-1.7,1.3-3.5,1.3c-1.3,0-2.4-0.4-3.2-1.2c-1.4-1.4-1.3-3.2-1.3-4.8V25h3.4v6.5
		c0,1.6,0.1,2.4,0.5,2.8c0.2,0.1,0.5,0.4,1.3,0.4c1.1,0,2.1-0.6,2.3-0.8v-9h3.4v12.3H205.8z"/>
	<path class="st0" d="M224.7,27.5c-0.1,0-0.6-0.1-0.7-0.1c-2,0-3.1,1.2-3.4,1.8v8.1h-3.4V25h2.9v1.5c0.1-0.2,1.6-1.9,4.1-1.9
		c0.9,0,1.3,0.3,1.4,0.3L224.7,27.5z"/>
	<path class="st0" d="M237.5,32.2h-8.1c0,0.9,0.7,2.8,3.1,2.8c1.5,0,2.7-0.6,3.3-0.9l1.1,2.1c-0.1,0.1-1.9,1.3-4.7,1.3
		c-4,0-6.1-2.8-6.1-6.4c0-3.8,2.4-6.6,5.9-6.6c3.6,0,5.5,2.5,5.5,6.5C237.5,31.7,237.5,32.1,237.5,32.2z M232.1,27.1
		c-1.5,0-2.5,1.1-2.7,2.7h5C234.4,29.1,234.1,27.1,232.1,27.1z"/>
	<path class="st0" d="M249.6,41.5c-0.8,0.8-2.1,1.6-4.5,1.6c-3.4,0-5.3-1.6-5.5-1.8l1.3-2.2c0.2,0.1,1.8,1.2,3.8,1.2
		c2.7,0,2.9-1.7,2.9-3v-0.8c-0.2,0.1-1.1,0.8-2.9,0.8c-3.7,0-5.5-3-5.5-6c0-3.7,2.6-6.6,6.6-6.6c2.6,0,4.8,1.1,5.1,1.3v11.2
		C250.9,38.8,250.9,40.2,249.6,41.5z M247.6,27.7c-0.2-0.1-0.9-0.4-1.8-0.4c-1.7,0-3.2,1.4-3.2,3.7c0,2.3,1.3,3.5,2.9,3.5
		c1.1,0,2-0.5,2.1-0.6V27.7z"/>
	<path class="st0" d="M255.4,23.5c-1.1,0-1.9-0.8-1.9-1.9s0.8-1.9,1.9-1.9s1.9,0.9,1.9,1.9S256.5,23.5,255.4,23.5z M253.7,37.3V25
		h3.4v12.3H253.7z"/>
	<path class="st0" d="M263.8,37.6c-2.8,0-4.6-1.3-4.8-1.4l1.1-2.1c0.2,0.1,1.6,1,3.2,1c1.5,0,1.9-0.6,1.9-1.2c0-0.8-0.7-1-2.6-1.8
		c-1.1-0.4-3-1.2-3-3.6c0-2.3,1.9-3.9,4.8-3.9c2.7,0,4.1,1.1,4.1,1.1l-1.1,2.1c-0.1-0.1-1.5-0.8-2.8-0.8c-1.2,0-1.6,0.6-1.6,1.1
		c0,0.8,0.9,1,2.2,1.6c1.7,0.7,3.5,1.4,3.5,3.9C268.6,36.1,266.8,37.6,263.8,37.6z"/>
	<path class="st0" d="M276.4,37.6c-1.1,0-2.3-0.3-3.2-1.1c-1-1-1-2.2-1-3.9v-4.8h-2.1V25h2.1v-3.4h3.4V25h3.5v2.8h-3.5v4.9
		c0,1,0.1,2.1,1.5,2.1c0.8,0,1.3-0.2,1.5-0.3l0.9,2.3C279.4,36.9,278.2,37.6,276.4,37.6z"/>
	<path class="st0" d="M292.1,32.2H284c0,0.9,0.7,2.8,3.1,2.8c1.5,0,2.7-0.6,3.3-0.9l1.1,2.1c-0.1,0.1-1.9,1.3-4.7,1.3
		c-4,0-6.1-2.8-6.1-6.4c0-3.8,2.4-6.6,5.9-6.6c3.6,0,5.5,2.5,5.5,6.5C292.2,31.7,292.1,32.1,292.1,32.2z M286.7,27.1
		c-1.5,0-2.5,1.1-2.7,2.7h5C289,29.1,288.8,27.1,286.7,27.1z"/>
	<path class="st0" d="M302,27.5c-0.1,0-0.6-0.1-0.7-0.1c-2,0-3.1,1.2-3.4,1.8v8.1h-3.4V25h2.9v1.5c0.1-0.2,1.6-1.9,4.1-1.9
		c0.9,0,1.3,0.3,1.4,0.3L302,27.5z"/>
	<path class="st0" d="M314.8,32.2h-8.1c0,0.9,0.7,2.8,3.1,2.8c1.5,0,2.7-0.6,3.3-0.9l1.1,2.1c-0.1,0.1-1.9,1.3-4.7,1.3
		c-4,0-6.1-2.8-6.1-6.4c0-3.8,2.4-6.6,5.9-6.6c3.6,0,5.5,2.5,5.5,6.5C314.8,31.7,314.8,32.1,314.8,32.2z M309.4,27.1
		c-1.5,0-2.5,1.1-2.7,2.7h5C311.7,29.1,311.5,27.1,309.4,27.1z"/>
	<path class="st0" d="M325.4,37.3v-0.8c-0.1,0.1-1.2,1.1-3.3,1.1c-3.3,0-5.5-2.6-5.5-6.3c0-4,2.8-6.7,5.9-6.7c1.4,0,2.3,0.4,2.5,0.5
		v-5.9h3.4v18.1H325.4z M325,27.9c-0.1-0.1-0.9-0.5-1.9-0.5c-1.8,0-3.1,1.3-3.1,3.8c0,2.4,1.3,3.6,2.9,3.6c1.1,0,2-0.6,2.1-0.6V27.9
		z"/>
	<path class="st0" d="M344.2,37.4c-0.9,2.4-1.5,3.5-2.4,4.4c-0.5,0.5-1.6,1.3-3.6,1.3c-1.8,0-3-0.7-3.1-0.8l1-2.4
		c0.2,0.1,0.9,0.4,1.9,0.4c0.7,0,1.3-0.2,1.7-0.6c0.6-0.6,1-1.9,1.2-2.4L335.8,25h3.6l3.3,8.6l3.1-8.6h3.3L344.2,37.4z"/>
	<path class="st0" d="M355.9,37.6c-3.6,0-6.1-2.6-6.1-6.4c0-3.8,2.6-6.6,6.4-6.6c3.6,0,6.1,2.7,6.1,6.4
		C362.3,34.9,359.7,37.6,355.9,37.6z M356,27.4c-1.7,0-2.8,1.5-2.8,3.7c0,2.2,1.2,3.7,3,3.7s2.8-1.4,2.8-3.7
		C358.9,28.9,357.7,27.4,356,27.4z"/>
	<path class="st0" d="M372.3,37.3v-0.9c-0.2,0.1-1.7,1.3-3.5,1.3c-1.3,0-2.4-0.4-3.2-1.2c-1.4-1.4-1.3-3.2-1.3-4.8V25h3.4v6.5
		c0,1.6,0.1,2.4,0.5,2.8c0.1,0.1,0.5,0.4,1.3,0.4c1.1,0,2.1-0.6,2.3-0.8v-9h3.4v12.3H372.3z"/>
	<path class="st0" d="M385.6,27.5c-0.1,0-0.6-0.1-0.8-0.1c-2,0-3.1,1.2-3.4,1.8v8.1H378V25h2.9v1.5c0.1-0.2,1.6-1.9,4.1-1.9
		c0.9,0,1.3,0.3,1.4,0.3L385.6,27.5z"/>
	<path class="st0" d="M400.7,37.3v-0.9c-0.2,0.2-1.5,1.1-3.5,1.1c-2.4,0-4-1.6-4-3.9c0-4.4,5.3-4.4,6.8-4.4h0.4c0-0.8,0-1.1-0.4-1.4
		c-0.3-0.3-0.8-0.5-1.8-0.5c-1.6,0-3.1,0.8-3.3,0.9l-1.1-2.1c0.2-0.1,1.8-1.3,4.7-1.3c1,0,2.8,0.2,4,1.4c1,1,1,2.3,1,3.9v7.4H400.7z
		 M400.4,31.5c-0.2,0-0.5,0-0.5,0c-2.2,0-3.7,0.4-3.7,1.9c0,1.3,1.1,1.6,1.9,1.6c1.4,0,2.2-0.7,2.3-0.8V31.5z"/>
	<path class="st0" d="M412,37.6c-3.8,0-6.3-2.7-6.3-6.4c0-3.8,2.8-6.6,6.5-6.6c2.6,0,4.1,1.2,4.2,1.5l-1.3,2.1
		c-0.2-0.1-1.2-0.8-2.6-0.8c-2.2,0-3.4,1.9-3.4,3.7c0,2.1,1.1,3.8,3.3,3.8c1.6,0,2.8-0.9,3-0.9l1.3,2.1
		C416.6,36.2,414.9,37.6,412,37.6z"/>
	<path class="st0" d="M423.8,37.6c-3.8,0-6.3-2.7-6.3-6.4c0-3.8,2.8-6.6,6.5-6.6c2.6,0,4.1,1.2,4.2,1.5l-1.3,2.1
		c-0.2-0.1-1.2-0.8-2.6-0.8c-2.2,0-3.4,1.9-3.4,3.7c0,2.1,1.1,3.8,3.3,3.8c1.6,0,2.8-0.9,3-0.9l1.3,2.1
		C428.5,36.2,426.7,37.6,423.8,37.6z"/>
	<path class="st0" d="M435.5,37.6c-3.6,0-6.1-2.6-6.1-6.4c0-3.8,2.6-6.6,6.4-6.6c3.6,0,6.1,2.7,6.1,6.4
		C441.9,34.9,439.3,37.6,435.5,37.6z M435.6,27.4c-1.7,0-2.8,1.5-2.8,3.7c0,2.2,1.2,3.7,3,3.7c1.7,0,2.8-1.4,2.8-3.7
		C438.5,28.9,437.3,27.4,435.6,27.4z"/>
	<path class="st0" d="M452,37.3v-0.9c-0.2,0.1-1.7,1.3-3.5,1.3c-1.3,0-2.4-0.4-3.2-1.2c-1.4-1.4-1.3-3.2-1.3-4.8V25h3.4v6.5
		c0,1.6,0.1,2.4,0.5,2.8c0.1,0.1,0.5,0.4,1.3,0.4c1.1,0,2.1-0.6,2.3-0.8v-9h3.4v12.3H452z"/>
	<path class="st0" d="M465.2,37.3v-6.5c0-1.6-0.1-2.4-0.5-2.8c-0.2-0.1-0.5-0.4-1.3-0.4c-1.1,0-2.1,0.6-2.3,0.8v9h-3.4V25h2.9v0.9
		c0.2-0.1,1.7-1.3,3.5-1.3c1.3,0,2.4,0.4,3.2,1.2c1.4,1.4,1.3,3.2,1.3,4.8v6.6H465.2z"/>
	<path class="st0" d="M476.4,37.6c-1.1,0-2.3-0.3-3.2-1.1c-1-1-1-2.2-1-3.9v-4.8h-2.1V25h2.1v-3.4h3.4V25h3.5v2.8h-3.5v4.9
		c0,1,0.1,2.1,1.5,2.1c0.8,0,1.3-0.2,1.5-0.3l0.8,2.3C479.4,36.9,478.2,37.6,476.4,37.6z"/>
	<path class="st0" d="M495.8,22.3c-0.1-0.1-0.9-0.6-1.8-0.6c-1.8,0-1.8,1.4-1.8,2.7V25h3.6v2.8h-3.6v9.5h-3.4v-9.5h-2V25h2v-0.6
		c0-2,0.2-3.2,1.3-4.3c0.8-0.8,1.8-1.2,3.4-1.2c2.2,0,3.5,1.1,3.5,1.2L495.8,22.3z"/>
	<path class="st0" d="M503.3,37.6c-3.6,0-6.1-2.6-6.1-6.4c0-3.8,2.6-6.6,6.4-6.6c3.6,0,6.1,2.7,6.1,6.4
		C509.7,34.9,507.1,37.6,503.3,37.6z M503.4,27.4c-1.7,0-2.8,1.5-2.8,3.7c0,2.2,1.2,3.7,3,3.7c1.7,0,2.8-1.4,2.8-3.7
		C506.4,28.9,505.2,27.4,503.4,27.4z"/>
	<path class="st0" d="M519.6,27.5c-0.1,0-0.6-0.1-0.8-0.1c-2,0-3.1,1.2-3.4,1.8v8.1H512V25h2.9v1.5c0.1-0.2,1.6-1.9,4.1-1.9
		c0.9,0,1.3,0.3,1.4,0.3L519.6,27.5z"/>
</g>
<g>
	<path class="st0" d="M181.4,63.3l-1.2-3.5h-6l-1.2,3.5h-3.6l6-16.7h3.5l6.1,16.7H181.4z M177.2,50.4l-2.1,6.7h4.2L177.2,50.4z"/>
	<path class="st0" d="M199.1,60.8c-2.4,2.4-5.5,2.5-8.7,2.5H187V46.6h4.6c2.8,0,5.3,0,7.5,2.2c1.4,1.4,2.3,3.6,2.3,6
		C201.4,57.1,200.6,59.3,199.1,60.8z M196.4,50.8c-1.4-1.4-3-1.4-5-1.4h-1v11.1h1.7c3.7,0,5.7-2,5.7-5.7
		C197.9,52.9,197.4,51.7,196.4,50.8z"/>
	<path class="st0" d="M213.8,63.3l-1.2-3.5h-6l-1.2,3.5h-3.6l6-16.7h3.5l6.1,16.7H213.8z M209.6,50.4l-2.1,6.7h4.2L209.6,50.4z"/>
	<path class="st0" d="M228.8,63.6c-2.8,0-4.6-1.3-4.8-1.4l1.1-2.1c0.2,0.1,1.6,1,3.2,1c1.5,0,1.9-0.6,1.9-1.2c0-0.8-0.7-1-2.6-1.8
		c-1.1-0.4-3-1.2-3-3.6c0-2.3,1.9-3.9,4.8-3.9c2.7,0,4.1,1.1,4.1,1.1l-1.1,2.1c-0.1-0.1-1.5-0.8-2.8-0.8c-1.2,0-1.6,0.6-1.6,1.1
		c0,0.8,0.9,1,2.2,1.6c1.7,0.7,3.5,1.4,3.5,3.9C233.6,62.1,231.8,63.6,228.8,63.6z"/>
	<path class="st0" d="M241.4,63.6c-1.1,0-2.3-0.3-3.2-1.1c-1-1-1-2.2-1-3.9v-4.8h-2.1V51h2.1v-3.4h3.4V51h3.5v2.8h-3.5v4.9
		c0,1,0.1,2.1,1.5,2.1c0.8,0,1.3-0.2,1.5-0.3l0.9,2.3C244.4,62.9,243.2,63.6,241.4,63.6z"/>
	<path class="st0" d="M254.3,63.3v-0.9c-0.2,0.2-1.7,1.3-3.5,1.3c-1.3,0-2.4-0.4-3.2-1.2c-1.4-1.4-1.3-3.2-1.3-4.8V51h3.4v6.5
		c0,1.6,0.1,2.4,0.5,2.8c0.1,0.2,0.5,0.5,1.3,0.5c1.1,0,2.1-0.6,2.3-0.8v-9h3.4v12.3H254.3z"/>
	<path class="st0" d="M268.3,63.3v-0.8c-0.1,0.1-1.2,1.1-3.3,1.1c-3.3,0-5.5-2.6-5.5-6.3c0-4,2.8-6.7,5.9-6.7c1.4,0,2.3,0.4,2.5,0.5
		v-5.9h3.4v18.1H268.3z M267.8,53.9c-0.1-0.1-0.9-0.5-1.9-0.5c-1.8,0-3.1,1.3-3.1,3.8c0,2.4,1.3,3.6,2.9,3.6c1.1,0,2-0.6,2.1-0.6
		V53.9z"/>
	<path class="st0" d="M284.9,58.2h-8.1c0,0.9,0.7,2.8,3.1,2.8c1.5,0,2.7-0.6,3.3-0.9l1.1,2.1c-0.1,0.1-1.9,1.3-4.7,1.3
		c-4,0-6.1-2.8-6.1-6.4c0-3.8,2.4-6.6,5.9-6.6c3.6,0,5.5,2.5,5.5,6.5C284.9,57.7,284.9,58.1,284.9,58.2z M279.5,53.1
		c-1.5,0-2.5,1.1-2.7,2.7h5C281.8,55.1,281.5,53.1,279.5,53.1z"/>
	<path class="st0" d="M294.7,63.3v-6.5c0-1.6-0.1-2.4-0.5-2.8c-0.1-0.2-0.5-0.5-1.3-0.5c-1.1,0-2.1,0.6-2.3,0.8v9h-3.4V51h2.9v0.9
		c0.2-0.1,1.7-1.3,3.5-1.3c1.3,0,2.4,0.4,3.2,1.2c1.4,1.4,1.3,3.2,1.3,4.8v6.6H294.7z"/>
	<path class="st0" d="M305.9,63.6c-1.1,0-2.3-0.3-3.2-1.1c-1-1-1-2.2-1-3.9v-4.8h-2.1V51h2.1v-3.4h3.4V51h3.5v2.8h-3.5v4.9
		c0,1,0.1,2.1,1.5,2.1c0.8,0,1.3-0.2,1.5-0.3l0.9,2.3C308.9,62.9,307.8,63.6,305.9,63.6z"/>
	<path class="st0" d="M331.4,63.3v-6.7c0-1.5,0-3-1.7-3c-1,0-2,0.7-2.2,0.9c0.1,0.5,0.1,0.6,0.1,2.7v6.2h-3.4v-6.7c0-1.5,0-3-1.7-3
		c-1,0-1.9,0.6-2.1,0.7v9.1H317V51h2.9v0.9c0.2-0.2,1.6-1.3,3.4-1.3c1.9,0,2.8,1.1,3,1.3c0.2-0.2,1.8-1.3,3.9-1.3
		c1,0,2.3,0.3,3.1,1.1c1.5,1.5,1.4,3.5,1.4,6.3v5.2H331.4z"/>
	<path class="st0" d="M348.3,58.2h-8.1c0,0.9,0.7,2.8,3.1,2.8c1.5,0,2.7-0.6,3.3-0.9l1.1,2.1c-0.1,0.1-1.9,1.3-4.7,1.3
		c-4,0-6.1-2.8-6.1-6.4c0-3.8,2.4-6.6,5.9-6.6c3.6,0,5.5,2.5,5.5,6.5C348.3,57.7,348.3,58.1,348.3,58.2z M342.9,53.1
		c-1.5,0-2.5,1.1-2.7,2.7h5C345.2,55.1,344.9,53.1,342.9,53.1z"/>
	<path class="st0" d="M365,63.3v-6.7c0-1.5,0-3-1.7-3c-1,0-2,0.7-2.2,0.9c0.1,0.5,0.1,0.6,0.1,2.7v6.2h-3.4v-6.7c0-1.5,0-3-1.7-3
		c-1,0-1.9,0.6-2.1,0.7v9.1h-3.4V51h2.9v0.9c0.2-0.2,1.6-1.3,3.4-1.3c1.9,0,2.8,1.1,3,1.3c0.2-0.2,1.8-1.3,3.9-1.3
		c1,0,2.3,0.3,3.1,1.1c1.5,1.5,1.4,3.5,1.4,6.3v5.2H365z"/>
	<path class="st0" d="M376.3,63.6c-2.5,0-4.9-0.9-5.2-1V45.2h3.4v6.3c0.2-0.1,1.3-0.8,3-0.8c2.9,0,5.3,2.3,5.3,6.2
		C382.8,60.9,380.3,63.6,376.3,63.6z M376.8,53.4c-1.1,0-2.1,0.6-2.2,0.7v6.6c0.2,0,0.7,0.2,1.8,0.2c1.9,0,3.1-1.6,3.1-4.1
		C379.4,54.4,378.1,53.4,376.8,53.4z"/>
	<path class="st0" d="M395.9,58.2h-8.1c-0.1,0.9,0.7,2.8,3.1,2.8c1.5,0,2.8-0.6,3.3-0.9l1.1,2.1c-0.1,0.1-1.9,1.3-4.7,1.3
		c-4,0-6.1-2.8-6.1-6.4c0-3.8,2.4-6.6,5.9-6.6c3.6,0,5.5,2.5,5.5,6.5C396,57.7,395.9,58.1,395.9,58.2z M390.5,53.1
		c-1.5,0-2.5,1.1-2.7,2.7h5C392.9,55.1,392.6,53.1,390.5,53.1z"/>
	<path class="st0" d="M405.9,53.5c-0.1,0-0.6-0.1-0.8-0.1c-2,0-3.1,1.2-3.4,1.8v8.1h-3.4V51h2.9v1.5c0.1-0.2,1.6-1.9,4.1-1.9
		c0.9,0,1.3,0.3,1.4,0.3L405.9,53.5z"/>
	<path class="st0" d="M411.9,63.6c-2.8,0-4.6-1.3-4.8-1.4l1.1-2.1c0.2,0.1,1.7,1,3.2,1c1.5,0,1.9-0.6,1.9-1.2c0-0.8-0.7-1-2.6-1.8
		c-1.1-0.4-3-1.2-3-3.6c0-2.3,1.9-3.9,4.8-3.9c2.7,0,4.1,1.1,4.1,1.1l-1.1,2.1c-0.1-0.1-1.5-0.8-2.8-0.8s-1.6,0.6-1.6,1.1
		c0,0.8,0.8,1,2.2,1.6c1.7,0.7,3.5,1.4,3.5,3.9C416.8,62.1,414.9,63.6,411.9,63.6z"/>
	<path class="st0" d="M426.7,49.5c-1.1,0-1.9-0.8-1.9-1.9c0-1.1,0.8-1.9,1.9-1.9s1.9,0.9,1.9,1.9C428.6,48.6,427.8,49.5,426.7,49.5z
		 M425,63.3V51h3.4v12.3H425z"/>
	<path class="st0" d="M438.7,63.3v-6.5c0-1.6-0.1-2.4-0.5-2.8c-0.2-0.2-0.5-0.5-1.3-0.5c-1.1,0-2.1,0.6-2.3,0.8v9h-3.4V51h2.9v0.9
		c0.2-0.1,1.7-1.3,3.5-1.3c1.3,0,2.4,0.4,3.2,1.2c1.4,1.4,1.3,3.2,1.3,4.8v6.6H438.7z"/>
	<path class="st0" d="M448.7,63.6c-2.8,0-4.6-1.3-4.8-1.4l1.1-2.1c0.2,0.1,1.7,1,3.2,1c1.5,0,1.9-0.6,1.9-1.2c0-0.8-0.7-1-2.6-1.8
		c-1.1-0.4-3-1.2-3-3.6c0-2.3,1.9-3.9,4.8-3.9c2.7,0,4.1,1.1,4.1,1.1l-1.1,2.1c-0.1-0.1-1.5-0.8-2.8-0.8s-1.6,0.6-1.6,1.1
		c0,0.8,0.8,1,2.2,1.6c1.7,0.7,3.5,1.4,3.5,3.9C453.5,62.1,451.7,63.6,448.7,63.6z"/>
	<path class="st0" d="M463.7,63.3v-0.9c-0.2,0.2-1.7,1.3-3.5,1.3c-1.3,0-2.4-0.4-3.2-1.2c-1.4-1.4-1.3-3.2-1.3-4.8V51h3.4v6.5
		c0,1.6,0.1,2.4,0.5,2.8c0.1,0.2,0.5,0.5,1.3,0.5c1.1,0,2.1-0.6,2.3-0.8v-9h3.4v12.3H463.7z"/>
	<path class="st0" d="M477,53.5c-0.1,0-0.6-0.1-0.8-0.1c-2,0-3.1,1.2-3.4,1.8v8.1h-3.4V51h2.9v1.5c0.1-0.2,1.6-1.9,4.1-1.9
		c0.9,0,1.3,0.3,1.4,0.3L477,53.5z"/>
	<path class="st0" d="M486.1,63.3v-0.9c-0.2,0.2-1.5,1.2-3.5,1.2c-2.4,0-4-1.6-4-3.9c0-4.4,5.3-4.4,6.8-4.4h0.4c0-0.8,0-1.1-0.4-1.4
		c-0.3-0.3-0.8-0.5-1.8-0.5c-1.6,0-3.1,0.8-3.3,0.9l-1.1-2.1c0.2-0.1,1.8-1.3,4.7-1.3c1,0,2.8,0.2,4,1.4c1,1,1,2.3,1,3.9v7.4H486.1z
		 M485.9,57.5c-0.2,0-0.5,0-0.5,0c-2.2,0-3.7,0.4-3.7,1.9c0,1.3,1.1,1.6,1.9,1.6c1.4,0,2.2-0.7,2.3-0.8V57.5z"/>
	<path class="st0" d="M499.3,63.3v-6.5c0-1.6-0.1-2.4-0.5-2.8c-0.2-0.2-0.5-0.5-1.3-0.5c-1.1,0-2.1,0.6-2.3,0.8v9h-3.4V51h2.9v0.9
		c0.2-0.1,1.7-1.3,3.5-1.3c1.3,0,2.4,0.4,3.2,1.2c1.4,1.4,1.3,3.2,1.3,4.8v6.6H499.3z"/>
	<path class="st0" d="M511.1,63.6c-3.8,0-6.3-2.7-6.3-6.4c0-3.8,2.8-6.6,6.5-6.6c2.6,0,4.1,1.2,4.2,1.5l-1.3,2.1
		c-0.2-0.1-1.2-0.8-2.6-0.8c-2.2,0-3.4,1.9-3.4,3.7c0,2.1,1.1,3.8,3.3,3.8c1.6,0,2.8-0.8,3-0.9l1.3,2.1
		C515.7,62.2,514,63.6,511.1,63.6z"/>
	<path class="st0" d="M528,58.2h-8.1c-0.1,0.9,0.7,2.8,3.1,2.8c1.5,0,2.8-0.6,3.3-0.9l1.1,2.1c-0.1,0.1-1.9,1.3-4.7,1.3
		c-4,0-6.1-2.8-6.1-6.4c0-3.8,2.4-6.6,5.9-6.6c3.6,0,5.5,2.5,5.5,6.5C528,57.7,528,58.1,528,58.2z M522.6,53.1
		c-1.5,0-2.5,1.1-2.7,2.7h5C524.9,55.1,524.6,53.1,522.6,53.1z"/>
	<path class="st0" d="M532,63.5c-1.2,0-2.1-0.9-2.1-2.1s0.9-2,2.1-2c1.1,0,2,0.9,2,2S533.2,63.5,532,63.5z"/>
</g>
</svg>
