<?xml version="1.0" encoding="utf-8"?>
<!-- Generator: Adobe Illustrator 24.1.3, SVG Export Plug-In . SVG Version: 6.00 Build 0)  -->
<svg version="1.1" id="Layer_1" xmlns="http://www.w3.org/2000/svg" xmlns:xlink="http://www.w3.org/1999/xlink" x="0px" y="0px"
	 viewBox="0 0 728 90" style="enable-background:new 0 0 728 90;" xml:space="preserve">
<style type="text/css">
	.st0{fill:#FFFFFF;}
</style>
<g>
	<path class="st0" d="M181.8,33.9c-1.6,1.6-3.7,1.6-6,1.6H171V18.9h5.4c1.9,0,3.6,0.1,4.8,1.3c1,1,1.2,2,1.2,3.2
		c0,2.9-2,3.5-2.3,3.6c0.4,0.1,2.8,0.6,2.8,3.5C183,32.1,182.5,33.2,181.8,33.9z M176.2,21.7h-1.8v4.2h0.5c1.9,0,4.1,0.2,4.1-2.1
		C179,21.6,177.3,21.7,176.2,21.7z M178.9,29.1c-0.6-0.6-1.3-0.7-2.9-0.7h-1.6v4.3h1.9c1.7,0,2.1-0.3,2.6-0.7
		c0.4-0.3,0.5-0.9,0.5-1.4C179.4,30.1,179.3,29.5,178.9,29.1z"/>
	<path class="st0" d="M193.4,35.6v-0.9c-0.2,0.1-1.7,1.3-3.5,1.3c-1.3,0-2.4-0.4-3.2-1.2c-1.4-1.4-1.3-3.2-1.3-4.8v-6.6h3.4v6.5
		c0,1.6,0.1,2.4,0.5,2.8c0.2,0.1,0.5,0.4,1.3,0.4c1.1,0,2.1-0.6,2.3-0.8v-9h3.4v12.3H193.4z"/>
	<path class="st0" d="M204.5,35.9c-1.1,0-2.3-0.3-3.2-1.1c-1-1-1-2.2-1-3.9v-4.8h-2.1v-2.8h2.1v-3.4h3.4v3.4h3.5v2.8h-3.5V31
		c0,1,0.1,2.1,1.5,2.1c0.8,0,1.3-0.2,1.5-0.3l0.9,2.3C207.5,35.2,206.3,35.9,204.5,35.9z"/>
	<path class="st0" d="M222.9,35.7c-0.9,2.4-1.5,3.5-2.4,4.4c-0.5,0.5-1.6,1.3-3.6,1.3c-1.8,0-3-0.7-3.1-0.8l1-2.4
		c0.2,0.1,0.9,0.4,1.9,0.4c0.7,0,1.3-0.2,1.7-0.6c0.6-0.6,1-1.9,1.2-2.4l-5.1-12.3h3.6l3.3,8.6l3.1-8.6h3.3L222.9,35.7z"/>
	<path class="st0" d="M234.5,35.9c-3.6,0-6.1-2.6-6.1-6.4c0-3.8,2.6-6.6,6.4-6.6c3.6,0,6.1,2.7,6.1,6.4
		C240.9,33.2,238.3,35.9,234.5,35.9z M234.6,25.7c-1.7,0-2.8,1.5-2.8,3.7c0,2.2,1.2,3.7,3,3.7s2.8-1.4,2.8-3.7
		C237.5,27.2,236.3,25.7,234.6,25.7z"/>
	<path class="st0" d="M251,35.6v-0.9c-0.2,0.1-1.7,1.3-3.5,1.3c-1.3,0-2.4-0.4-3.2-1.2c-1.4-1.4-1.3-3.2-1.3-4.8v-6.6h3.4v6.5
		c0,1.6,0.1,2.4,0.5,2.8c0.1,0.1,0.5,0.4,1.3,0.4c1.1,0,2.1-0.6,2.3-0.8v-9h3.4v12.3H251z"/>
	<path class="st0" d="M269.9,35.6v-6.5c0-1.6-0.1-2.4-0.5-2.8c-0.1-0.1-0.5-0.4-1.3-0.4c-1.1,0-2.1,0.6-2.3,0.8v9h-3.4V23.3h2.9v0.9
		c0.2-0.1,1.7-1.3,3.5-1.3c1.3,0,2.4,0.4,3.2,1.2c1.4,1.4,1.3,3.2,1.3,4.8v6.6H269.9z"/>
	<path class="st0" d="M286.7,30.5h-8.1c0,0.9,0.7,2.8,3.1,2.8c1.5,0,2.7-0.6,3.3-0.9l1.1,2.1c-0.1,0.1-1.9,1.3-4.7,1.3
		c-4,0-6.1-2.8-6.1-6.4c0-3.8,2.4-6.6,5.9-6.6c3.6,0,5.5,2.5,5.5,6.5C286.7,30,286.7,30.3,286.7,30.5z M281.3,25.4
		c-1.5,0-2.5,1.1-2.7,2.7h5C283.6,27.4,283.4,25.4,281.3,25.4z"/>
	<path class="st0" d="M299.8,30.5h-8.1c0,0.9,0.7,2.8,3.1,2.8c1.5,0,2.7-0.6,3.3-0.9l1.1,2.1c-0.1,0.1-1.9,1.3-4.7,1.3
		c-4,0-6.1-2.8-6.1-6.4c0-3.8,2.4-6.6,5.9-6.6c3.6,0,5.5,2.5,5.5,6.5C299.9,30,299.8,30.3,299.8,30.5z M294.4,25.4
		c-1.5,0-2.5,1.1-2.7,2.7h5C296.8,27.4,296.5,25.4,294.4,25.4z"/>
	<path class="st0" d="M310.4,35.6v-0.8c-0.1,0.1-1.2,1.1-3.3,1.1c-3.3,0-5.5-2.6-5.5-6.3c0-4,2.8-6.7,5.9-6.7c1.4,0,2.3,0.4,2.5,0.5
		v-5.9h3.4v18.1H310.4z M310,26.2c-0.1-0.1-0.9-0.5-1.9-0.5c-1.8,0-3.1,1.3-3.1,3.8c0,2.4,1.3,3.6,2.9,3.6c1.1,0,2-0.6,2.1-0.6V26.2
		z"/>
	<path class="st0" d="M327.2,35.9c-1.1,0-2.3-0.3-3.2-1.1c-1-1-1-2.2-1-3.9v-4.8h-2.1v-2.8h2.1v-3.4h3.4v3.4h3.5v2.8h-3.5V31
		c0,1,0.1,2.1,1.5,2.1c0.8,0,1.3-0.2,1.5-0.3l0.9,2.3C330.2,35.2,329,35.9,327.2,35.9z"/>
	<path class="st0" d="M337.6,35.9c-3.6,0-6.1-2.6-6.1-6.4c0-3.8,2.6-6.6,6.4-6.6c3.6,0,6.1,2.7,6.1,6.4
		C344,33.2,341.4,35.9,337.6,35.9z M337.7,25.7c-1.7,0-2.8,1.5-2.8,3.7c0,2.2,1.2,3.7,3,3.7s2.8-1.4,2.8-3.7
		C340.6,27.2,339.4,25.7,337.7,25.7z"/>
	<path class="st0" d="M357.3,35.9c-1.1,0-2.3-0.3-3.2-1.1c-1-1-1-2.2-1-3.9v-4.8h-2.1v-2.8h2.1v-3.4h3.4v3.4h3.5v2.8h-3.5V31
		c0,1,0.1,2.1,1.5,2.1c0.8,0,1.3-0.2,1.5-0.3l0.9,2.3C360.3,35.2,359.1,35.9,357.3,35.9z"/>
	<path class="st0" d="M369.1,35.6v-0.9c-0.2,0.2-1.5,1.1-3.5,1.1c-2.4,0-4-1.6-4-3.9c0-4.4,5.3-4.4,6.8-4.4h0.3c0-0.8,0-1.1-0.4-1.4
		c-0.3-0.3-0.8-0.5-1.7-0.5c-1.6,0-3.1,0.8-3.3,0.9l-1.1-2.1c0.2-0.1,1.8-1.3,4.7-1.3c1,0,2.8,0.2,4,1.4c1,1,1,2.3,1,3.9v7.4H369.1z
		 M368.9,29.7c-0.2,0-0.5,0-0.5,0c-2.2,0-3.7,0.4-3.7,1.9c0,1.3,1.1,1.6,1.9,1.6c1.4,0,2.2-0.7,2.3-0.8V29.7z"/>
	<path class="st0" d="M382.6,35.6l-4.4-5.8v5.8h-3.4V17.5h3.4v10.3l4.5-4.5h3.9l-5.4,5.4l5.5,6.9H382.6z"/>
	<path class="st0" d="M398.2,30.5h-8.1c-0.1,0.9,0.7,2.8,3.1,2.8c1.5,0,2.8-0.6,3.3-0.9l1.1,2.1c-0.1,0.1-1.9,1.3-4.7,1.3
		c-4,0-6.1-2.8-6.1-6.4c0-3.8,2.4-6.6,5.9-6.6c3.6,0,5.5,2.5,5.5,6.5C398.2,30,398.2,30.3,398.2,30.5z M392.8,25.4
		c-1.5,0-2.5,1.1-2.7,2.7h5C395.1,27.4,394.9,25.4,392.8,25.4z"/>
	<path class="st0" d="M411.8,35.9c-3.6,0-6.1-2.6-6.1-6.4c0-3.8,2.6-6.6,6.4-6.6c3.6,0,6.1,2.7,6.1,6.4
		C418.2,33.2,415.6,35.9,411.8,35.9z M411.9,25.7c-1.7,0-2.8,1.5-2.8,3.7c0,2.2,1.2,3.7,3,3.7c1.7,0,2.8-1.4,2.8-3.7
		C414.8,27.2,413.6,25.7,411.9,25.7z"/>
	<path class="st0" d="M428,35.6v-6.5c0-1.6-0.1-2.4-0.5-2.8c-0.2-0.1-0.5-0.4-1.3-0.4c-1.1,0-2.1,0.6-2.3,0.8v9h-3.4V23.3h2.9v0.9
		c0.2-0.1,1.7-1.3,3.5-1.3c1.3,0,2.4,0.4,3.2,1.2c1.4,1.4,1.3,3.2,1.3,4.8v6.6H428z"/>
	<path class="st0" d="M444.8,30.5h-8.1c-0.1,0.9,0.7,2.8,3.1,2.8c1.5,0,2.8-0.6,3.3-0.9l1.1,2.1c-0.1,0.1-1.9,1.3-4.7,1.3
		c-4,0-6.1-2.8-6.1-6.4c0-3.8,2.4-6.6,5.9-6.6c3.6,0,5.5,2.5,5.5,6.5C444.9,30,444.8,30.3,444.8,30.5z M439.4,25.4
		c-1.5,0-2.5,1.1-2.7,2.7h5C441.7,27.4,441.5,25.4,439.4,25.4z"/>
</g>
<g>
	<path class="st0" d="M185.2,61.6v-6.7c0-1.5,0-3-1.7-3c-1,0-2,0.7-2.2,0.9c0.1,0.5,0.1,0.7,0.1,2.7v6.2H178v-6.7c0-1.5,0-3-1.7-3
		c-1,0-1.9,0.6-2.1,0.7v9.1h-3.4V49.3h2.9v0.9c0.2-0.2,1.6-1.3,3.4-1.3c1.9,0,2.8,1.1,3,1.3c0.2-0.2,1.8-1.3,3.9-1.3
		c1,0,2.3,0.3,3.1,1.1c1.5,1.5,1.4,3.5,1.4,6.3v5.2H185.2z"/>
	<path class="st0" d="M196.8,61.9c-3.6,0-6.1-2.6-6.1-6.4c0-3.8,2.6-6.6,6.4-6.6c3.6,0,6.1,2.7,6.1,6.4
		C203.2,59.2,200.6,61.9,196.8,61.9z M196.9,51.7c-1.7,0-2.8,1.5-2.8,3.7c0,2.2,1.2,3.7,3,3.7s2.8-1.5,2.8-3.7
		C199.8,53.2,198.6,51.7,196.9,51.7z"/>
	<path class="st0" d="M213.1,51.8c-0.1,0-0.6-0.1-0.7-0.1c-2,0-3.1,1.2-3.4,1.8v8.1h-3.4V49.3h2.9v1.5c0.1-0.2,1.6-1.9,4.1-1.9
		c0.9,0,1.3,0.3,1.4,0.3L213.1,51.8z"/>
	<path class="st0" d="M225.8,56.5h-8.1c0,0.9,0.7,2.8,3.1,2.8c1.5,0,2.7-0.6,3.3-0.9l1.1,2.1c-0.1,0.1-1.9,1.3-4.7,1.3
		c-4,0-6.1-2.8-6.1-6.4c0-3.8,2.4-6.6,5.9-6.6c3.6,0,5.5,2.5,5.5,6.5C225.9,56,225.8,56.3,225.8,56.5z M220.4,51.4
		c-1.5,0-2.5,1.1-2.7,2.7h5C222.7,53.4,222.5,51.4,220.4,51.4z"/>
	<path class="st0" d="M244.7,56.5h-8.1c0,0.9,0.7,2.8,3.1,2.8c1.5,0,2.7-0.6,3.3-0.9l1.1,2.1c-0.1,0.1-1.9,1.3-4.7,1.3
		c-4,0-6.1-2.8-6.1-6.4c0-3.8,2.4-6.6,5.9-6.6c3.6,0,5.5,2.5,5.5,6.5C244.7,56,244.7,56.3,244.7,56.5z M239.3,51.4
		c-1.5,0-2.5,1.1-2.7,2.7h5C241.6,53.4,241.4,51.4,239.3,51.4z"/>
	<path class="st0" d="M253.8,61.6v-0.9c-0.2,0.2-1.5,1.2-3.5,1.2c-2.4,0-4-1.6-4-3.9c0-4.4,5.3-4.4,6.8-4.4h0.4c0-0.8,0-1.1-0.4-1.4
		c-0.3-0.3-0.8-0.5-1.7-0.5c-1.6,0-3.1,0.8-3.3,0.9l-1.1-2.1c0.2-0.2,1.8-1.3,4.7-1.3c1,0,2.8,0.2,4,1.4c1,1,1,2.3,1,3.9v7.4H253.8z
		 M253.5,55.7c-0.2,0-0.5,0-0.5,0c-2.2,0-3.7,0.4-3.7,1.9c0,1.3,1.1,1.6,1.9,1.6c1.4,0,2.2-0.7,2.3-0.8V55.7z"/>
	<path class="st0" d="M263.3,61.9c-2.8,0-4.6-1.3-4.8-1.4l1.1-2.1c0.2,0.1,1.6,1,3.2,1c1.5,0,1.9-0.6,1.9-1.2c0-0.8-0.7-1-2.6-1.8
		c-1.1-0.4-3-1.2-3-3.6c0-2.3,1.9-3.9,4.8-3.9c2.7,0,4.1,1.1,4.1,1.1l-1.1,2.1c-0.1-0.1-1.5-0.8-2.8-0.8c-1.2,0-1.6,0.6-1.6,1.1
		c0,0.8,0.9,1.1,2.2,1.6c1.7,0.7,3.5,1.4,3.5,3.9C268.1,60.4,266.3,61.9,263.3,61.9z"/>
	<path class="st0" d="M277.9,61.7c-0.9,2.4-1.5,3.5-2.4,4.4c-0.5,0.5-1.6,1.3-3.6,1.3c-1.8,0-3-0.7-3.1-0.8l1-2.4
		c0.2,0.1,0.9,0.4,1.9,0.4c0.7,0,1.3-0.2,1.7-0.6c0.6-0.6,1-1.9,1.2-2.4l-5.1-12.3h3.6l3.3,8.6l3.1-8.6h3.3L277.9,61.7z"/>
	<path class="st0" d="M294.3,61.9c-2.8,0-4.6-1.3-4.8-1.4l1.1-2.1c0.2,0.1,1.6,1,3.2,1c1.5,0,1.9-0.6,1.9-1.2c0-0.8-0.7-1-2.6-1.8
		c-1.1-0.4-3-1.2-3-3.6c0-2.3,1.9-3.9,4.8-3.9c2.7,0,4.1,1.1,4.1,1.1l-1.1,2.1c-0.1-0.1-1.5-0.8-2.8-0.8c-1.2,0-1.6,0.6-1.6,1.1
		c0,0.8,0.9,1.1,2.2,1.6c1.7,0.7,3.5,1.4,3.5,3.9C299.2,60.4,297.3,61.9,294.3,61.9z"/>
	<path class="st0" d="M307,61.9c-1.1,0-2.3-0.3-3.2-1.1c-1-1-1-2.2-1-3.9v-4.8h-2.1v-2.8h2.1v-3.4h3.4v3.4h3.5v2.8h-3.5V57
		c0,1,0.1,2.1,1.5,2.1c0.8,0,1.3-0.2,1.5-0.3l0.9,2.3C310,61.2,308.8,61.9,307,61.9z"/>
	<path class="st0" d="M322.7,56.5h-8.1c0,0.9,0.7,2.8,3.1,2.8c1.5,0,2.7-0.6,3.3-0.9l1.1,2.1c-0.1,0.1-1.9,1.3-4.7,1.3
		c-4,0-6.1-2.8-6.1-6.4c0-3.8,2.4-6.6,5.9-6.6c3.6,0,5.5,2.5,5.5,6.5C322.7,56,322.7,56.3,322.7,56.5z M317.3,51.4
		c-1.5,0-2.5,1.1-2.7,2.7h5C319.6,53.4,319.4,51.4,317.3,51.4z"/>
	<path class="st0" d="M330.9,61.9c-1.4,0-2.3-0.4-2.5-0.5V67H325V49.3h2.9V50c0.1-0.1,1.2-1.1,3.3-1.1c3.3,0,5.5,2.6,5.5,6.3
		C336.8,59.2,334,61.9,330.9,61.9z M330.5,51.7c-1.1,0-2,0.6-2.1,0.7v6.3c0.1,0,0.9,0.5,1.9,0.5c1.8,0,3.1-1.3,3.1-3.8
		C333.4,53,332.1,51.7,330.5,51.7z"/>
	<path class="st0" d="M340.7,61.7c-1.1,0-2.1-0.9-2.1-2.1s0.9-2,2.1-2s2,0.9,2,2S341.8,61.7,340.7,61.7z"/>
</g>
</svg>
