<?xml version="1.0" encoding="utf-8"?>
<!-- Generator: Adobe Illustrator 24.1.3, SVG Export Plug-In . SVG Version: 6.00 Build 0)  -->
<svg version="1.1" id="Layer_1" xmlns="http://www.w3.org/2000/svg" xmlns:xlink="http://www.w3.org/1999/xlink" x="0px" y="0px"
	 viewBox="0 0 728 90" style="enable-background:new 0 0 728 90;" xml:space="preserve">
<style type="text/css">
	.st0{fill:#F16022;}
	.st1{fill:#FFFFFF;}
</style>
<path class="st0" d="M518,17.8c-2.1,0-3.7,1.7-3.7,3.7v22.3c0,2.1,1.7,3.7,3.7,3.7h119.3c2.1,0,3.7-1.7,3.7-3.7V21.5
	c0-2.1-1.7-3.7-3.7-3.7H518z"/>
<g>
	<path class="st1" d="M533.1,36.6l-0.6-1.8h-3.5l-0.6,1.8H526l3.6-9.9h2.4l3.6,9.9H533.1z M530.8,29.3l-1.1,3.7h2.3L530.8,29.3z"/>
	<path class="st1" d="M540.9,36.9c-2.9,0-5-2-5-5.1c0-3.3,2.3-5.3,5.3-5.3c2.1,0,3.2,0.9,3.4,1.1l-1,1.6c-0.1-0.1-1-0.7-2.2-0.7
		c-1.8,0-3.1,1.3-3.1,3.1c0,1.7,1.1,3.1,2.9,3.1c1.3,0,2.2-0.7,2.5-0.8l1,1.6C544.7,35.6,543.4,36.9,540.9,36.9z"/>
	<path class="st1" d="M550.6,28.7v7.9h-2.5v-7.9h-2.6v-1.9h7.7v1.9H550.6z"/>
	<path class="st1" d="M554.4,36.6v-9.9h2.4v9.9H554.4z"/>
	<path class="st1" d="M563.6,36.6h-2.3l-3.4-9.9h2.4l2.1,7l2.2-7h2.4L563.6,36.6z"/>
	<path class="st1" d="M573.7,36.6l-0.6-1.8h-3.5l-0.6,1.8h-2.5l3.6-9.9h2.4l3.6,9.9H573.7z M571.4,29.3l-1.1,3.7h2.3L571.4,29.3z"/>
	<path class="st1" d="M580.8,28.7v7.9h-2.5v-7.9h-2.6v-1.9h7.7v1.9H580.8z"/>
	<path class="st1" d="M584.5,36.6v-9.9h6.2v1.9H587v2h3.6v1.9H587v2.1h3.9v2H584.5z"/>
	<path class="st1" d="M601.9,36.6l-4-6l0.1,6h-2.2v-9.9h2.1l3.8,6l0-6h2.2v9.9H601.9z"/>
	<path class="st1" d="M610.5,36.9c-3,0-5-2.2-5-5.3c0-3,2-5,4.9-5c3,0,5,2.2,5,5.1C615.4,34.8,613.4,36.9,610.5,36.9z M610.4,28.5
		c-1.5,0-2.4,1.3-2.4,3.3c0,2,1.1,3.1,2.6,3.1c2.1,0,2.4-2,2.4-3.3C613,29.8,612,28.5,610.4,28.5z"/>
	<path class="st1" d="M626.9,36.6h-2.6l-1.5-7l-1.7,7h-2.6l-2.3-9.9h2.4l1.3,7.3l1.8-7.3h2.4l1.7,7.3l1.4-7.3h2.2L626.9,36.6z"/>
</g>
</svg>
