<?xml version="1.0" encoding="utf-8"?>
<!-- Generator: Adobe Illustrator 24.1.3, SVG Export Plug-In . SVG Version: 6.00 Build 0)  -->
<svg version="1.1" id="Layer_1" xmlns="http://www.w3.org/2000/svg" xmlns:xlink="http://www.w3.org/1999/xlink" x="0px" y="0px"
	 viewBox="0 0 728 90" style="enable-background:new 0 0 728 90;" xml:space="preserve">
<style type="text/css">
	.st0{fill:#FFFFFF;}
	.st1{clip-path:url(#SVGID_2_);fill:#349946;}
	.st2{fill:#231F20;}
</style>
<rect x="559.5" y="62.6" class="st0" width="169" height="27.8"/>
<g>
	<defs>
		<rect id="SVGID_1_" x="559.5" y="62.6" width="169" height="27.8"/>
	</defs>
	<clipPath id="SVGID_2_">
		<use xlink:href="#SVGID_1_"  style="overflow:visible;"/>
	</clipPath>
	<path class="st1" d="M575.5,79.6h-1.7l-0.6-1.7h-3.5l-0.6,1.7h-1.8l3.1-8.1h1.3c0.4,0,0.7,0.1,0.8,0.4c0.1,0.3,1.5,3.9,1.5,3.9
		h-1.6l-1-2.7l-1.3,3.4h3.5c0.5,0,0.7,0.2,0.9,0.5L575.5,79.6z"/>
	<path class="st1" d="M590.9,79.6h-1.7l-0.6-1.7h-3.5l-0.6,1.7h-1.8l3.1-8.1h1.3c0.4,0,0.7,0.1,0.8,0.4c0.1,0.3,1.5,3.9,1.5,3.9
		h-1.6l-1-2.7l-1.3,3.4h3.5c0.5,0,0.7,0.2,0.9,0.5L590.9,79.6z"/>
	<path class="st1" d="M576.1,71.5h3.2c2.5,0,3.7,1.3,3.7,4.1c0,1.5-0.5,2.6-1.3,3.3c-0.8,0.6-1.7,0.7-2.8,0.7h-2.7V71.5z
		 M579.1,78.1c1.5,0,2.2-0.8,2.2-2.6c0-1.8-0.6-2.6-2-2.6h-1.5v5.2H579.1z"/>
</g>
<g>
	<path class="st2" d="M604.6,79.5h-1.3l-0.5-5.8l-2,5.8h-1.1l-2-5.8l-0.5,5.8h-1.2l0.7-7.7h1.4l2.1,5.9l2-5.9h1.4L604.6,79.5z"/>
	<path class="st2" d="M610.9,76.7c0,0.1,0,0.2,0,0.3s0,0.2,0,0.2h-3.8c0,0.4,0.1,0.7,0.4,1c0.3,0.3,0.7,0.5,1.2,0.5
		c0.5,0,1-0.1,1.5-0.4l0.4,0.8c-0.6,0.4-1.3,0.6-2.1,0.6c-0.9,0-1.5-0.3-2-0.8c-0.5-0.5-0.7-1.2-0.7-2.1c0-0.9,0.2-1.6,0.7-2.2
		c0.5-0.6,1.1-0.8,1.9-0.8c0.8,0,1.4,0.3,1.8,0.8C610.7,75,610.9,75.8,610.9,76.7z M609.7,76.2c0-0.3-0.1-0.6-0.2-0.9
		c-0.2-0.4-0.5-0.5-1-0.5c-0.4,0-0.7,0.1-1,0.4c-0.3,0.3-0.4,0.6-0.5,1H609.7z"/>
	<path class="st2" d="M620.1,79.5h-1.3v-3.2c0-0.6-0.1-1.1-0.2-1.2s-0.4-0.3-0.7-0.3c-0.4,0-0.8,0.1-1.3,0.4
		c0.1,0.2,0.1,0.6,0.1,1.3v3h-1.3v-3.1c0-0.7-0.1-1.2-0.3-1.4c-0.1-0.2-0.4-0.2-0.6-0.2c-0.4,0-0.8,0.1-1.2,0.4v4.3h-1.3v-5.6h1.1
		v0.4c0.5-0.4,1.1-0.6,1.6-0.6c0.6,0,1,0.2,1.4,0.6c0.6-0.4,1.3-0.6,1.9-0.6c0.6,0,1.1,0.2,1.4,0.5c0.3,0.3,0.4,0.6,0.5,1
		c0,0.3,0.1,0.7,0.1,1.4V79.5z"/>
	<path class="st2" d="M626.6,76.6c0,0.9-0.3,1.7-0.8,2.2c-0.5,0.6-1.2,0.9-2.1,0.9c-0.6,0-1.4-0.1-2.2-0.4v-8h1.3v3
		c0.4-0.3,0.9-0.4,1.4-0.4c0.7,0,1.3,0.3,1.8,0.8C626.4,75,626.6,75.7,626.6,76.6z M625.3,76.6c0-0.6-0.1-1-0.4-1.3
		c-0.3-0.3-0.6-0.5-1-0.5c-0.4,0-0.8,0.1-1.2,0.4v3.3c0.3,0.1,0.6,0.1,0.9,0.1c0.5,0,0.9-0.2,1.2-0.6S625.3,77.2,625.3,76.6z"/>
	<path class="st2" d="M632.6,76.7c0,0.1,0,0.2,0,0.3s0,0.2,0,0.2h-3.8c0,0.4,0.1,0.7,0.4,1c0.3,0.3,0.7,0.5,1.2,0.5
		c0.5,0,1-0.1,1.5-0.4l0.4,0.8c-0.6,0.4-1.3,0.6-2.1,0.6c-0.9,0-1.5-0.3-2-0.8c-0.5-0.5-0.7-1.2-0.7-2.1c0-0.9,0.2-1.6,0.7-2.2
		c0.5-0.6,1.1-0.8,1.9-0.8c0.8,0,1.4,0.3,1.8,0.8C632.4,75,632.6,75.8,632.6,76.7z M631.4,76.2c0-0.3-0.1-0.6-0.2-0.9
		c-0.2-0.4-0.5-0.5-1-0.5c-0.4,0-0.7,0.1-1,0.4c-0.3,0.3-0.4,0.6-0.5,1H631.4z"/>
	<path class="st2" d="M637.4,73.9l-0.3,1c-0.1,0-0.2,0-0.4,0c-0.7,0-1.2,0.3-1.6,0.9v3.8h-1.3v-5.6h1.1v0.7c0.1-0.1,0.3-0.3,0.5-0.5
		c0.4-0.3,0.8-0.4,1.3-0.4C637,73.8,637.2,73.8,637.4,73.9z"/>
</g>
<g>
	<path class="st2" d="M642,77.9c0,0.5-0.2,1-0.6,1.3c-0.4,0.3-0.9,0.5-1.5,0.5c-0.5,0-1-0.1-1.4-0.3c-0.3-0.1-0.5-0.2-0.6-0.3
		l0.4-0.8c0.6,0.3,1,0.4,1.5,0.4c0.3,0,0.6-0.1,0.7-0.2c0.2-0.1,0.3-0.3,0.3-0.5s-0.1-0.4-0.3-0.5c-0.1-0.1-0.4-0.2-0.9-0.4
		c-0.5-0.2-0.8-0.4-1-0.5c-0.3-0.3-0.5-0.7-0.5-1.1c0-0.5,0.2-0.9,0.6-1.2c0.4-0.3,0.9-0.5,1.5-0.5c0.8,0,1.4,0.2,1.8,0.5l-0.4,0.8
		c-0.4-0.3-0.9-0.4-1.3-0.4c-0.6,0-0.9,0.2-0.9,0.6c0,0.2,0.1,0.3,0.3,0.5c0.1,0.1,0.4,0.2,0.7,0.3c0.6,0.2,1,0.4,1.2,0.6
		C641.8,77,642,77.4,642,77.9z"/>
	<path class="st2" d="M647.5,79.5h-1.3v-7.7h1.3V79.5z"/>
	<path class="st2" d="M653.9,79.5h-1.3v-3.1c0-0.7-0.1-1.2-0.3-1.4c-0.2-0.2-0.4-0.3-0.7-0.3c-0.4,0-0.8,0.1-1.3,0.4v4.3h-1.3v-5.6
		h1.1v0.4c0.5-0.4,1.1-0.6,1.7-0.6c0.6,0,1.1,0.2,1.4,0.5c0.3,0.3,0.4,0.6,0.5,1c0,0.2,0.1,0.6,0.1,1.1V79.5z"/>
	<path class="st2" d="M659.1,77.9c0,0.5-0.2,1-0.6,1.3c-0.4,0.3-0.9,0.5-1.5,0.5c-0.5,0-1-0.1-1.4-0.3c-0.3-0.1-0.5-0.2-0.6-0.3
		l0.4-0.8c0.6,0.3,1,0.4,1.5,0.4c0.3,0,0.6-0.1,0.7-0.2c0.2-0.1,0.3-0.3,0.3-0.5s-0.1-0.4-0.3-0.5c-0.1-0.1-0.4-0.2-0.9-0.4
		c-0.5-0.2-0.8-0.4-1-0.5c-0.3-0.3-0.5-0.7-0.5-1.1c0-0.5,0.2-0.9,0.6-1.2c0.4-0.3,0.9-0.5,1.5-0.5c0.8,0,1.4,0.2,1.8,0.5l-0.4,0.8
		c-0.4-0.3-0.9-0.4-1.3-0.4c-0.6,0-0.9,0.2-0.9,0.6c0,0.2,0.1,0.3,0.3,0.5c0.1,0.1,0.4,0.2,0.7,0.3c0.6,0.2,1,0.4,1.2,0.6
		C658.9,77,659.1,77.4,659.1,77.9z"/>
	<path class="st2" d="M665,79.5h-1.1v-0.4c-0.5,0.4-1.1,0.6-1.7,0.6c-0.6,0-1.1-0.2-1.4-0.5c-0.3-0.3-0.4-0.6-0.5-1
		c0-0.2-0.1-0.6-0.1-1.2v-3.1h1.3V77c0,0.4,0,0.6,0,0.8c0,0.3,0.1,0.5,0.3,0.7c0.2,0.1,0.4,0.2,0.7,0.2c0.3,0,0.7-0.1,1.2-0.4v-4.3
		h1.3V79.5z"/>
	<path class="st2" d="M670.1,73.9l-0.3,1c-0.1,0-0.2,0-0.4,0c-0.7,0-1.2,0.3-1.6,0.9v3.8h-1.3v-5.6h1.1v0.7c0.1-0.1,0.3-0.3,0.5-0.5
		c0.4-0.3,0.8-0.4,1.3-0.4C669.7,73.8,669.9,73.8,670.1,73.9z"/>
</g>
<g>
	<path class="st2" d="M675,79.5h-1.1v-0.4c-0.6,0.4-1.1,0.5-1.7,0.5c-0.5,0-1-0.2-1.3-0.5c-0.3-0.3-0.5-0.8-0.5-1.3
		c0-1.3,1.1-2,3.2-2h0.2v-0.2c0-0.3-0.1-0.6-0.2-0.7c-0.2-0.2-0.5-0.3-0.9-0.3c-0.5,0-1,0.1-1.5,0.4l-0.4-0.8
		c0.1-0.1,0.3-0.2,0.6-0.3c0.4-0.2,0.9-0.3,1.5-0.3c0.8,0,1.3,0.2,1.7,0.6c0.2,0.2,0.3,0.4,0.4,0.7c0,0.2,0.1,0.5,0.1,1V79.5z
		 M673.8,78.3v-1.5h-0.3c-0.9,0-1.5,0.1-1.7,0.4c-0.1,0.1-0.2,0.3-0.2,0.6c0,0.3,0.1,0.5,0.3,0.6c0.2,0.1,0.4,0.2,0.7,0.2
		C672.9,78.7,673.3,78.5,673.8,78.3z"/>
	<path class="st2" d="M681.1,79.5h-1.3v-3.1c0-0.7-0.1-1.2-0.3-1.4c-0.2-0.2-0.4-0.3-0.7-0.3c-0.4,0-0.8,0.1-1.3,0.4v4.3h-1.3v-5.6
		h1.1v0.4c0.5-0.4,1.1-0.6,1.7-0.6c0.6,0,1.1,0.2,1.4,0.5c0.3,0.3,0.4,0.6,0.5,1c0,0.2,0.1,0.6,0.1,1.1V79.5z"/>
	<path class="st2" d="M687.1,79c-0.1,0.1-0.3,0.2-0.6,0.3c-0.5,0.2-1,0.3-1.5,0.3c-0.8,0-1.5-0.3-2-0.8s-0.8-1.2-0.8-2.1
		c0-0.9,0.3-1.6,0.8-2.2c0.6-0.6,1.2-0.9,2.1-0.9c0.5,0,0.9,0.1,1.3,0.3c0.3,0.1,0.5,0.2,0.5,0.4l-0.5,0.8c-0.4-0.3-0.8-0.4-1.3-0.4
		c-0.5,0-0.9,0.2-1.3,0.6c-0.3,0.4-0.4,0.8-0.4,1.3c0,0.6,0.1,1,0.4,1.4s0.7,0.5,1.2,0.5c0.4,0,0.9-0.1,1.4-0.4L687.1,79z"/>
</g>
<g>
	<path class="st2" d="M692.8,76.7c0,0.1,0,0.2,0,0.3s0,0.2,0,0.2h-3.8c0,0.4,0.1,0.7,0.4,1c0.3,0.3,0.7,0.5,1.2,0.5
		c0.5,0,1-0.1,1.5-0.4l0.4,0.8c-0.6,0.4-1.3,0.6-2.1,0.6c-0.9,0-1.5-0.3-2-0.8c-0.5-0.5-0.7-1.2-0.7-2.1c0-0.9,0.2-1.6,0.7-2.2
		c0.5-0.6,1.1-0.8,1.9-0.8c0.8,0,1.4,0.3,1.8,0.8C692.6,75,692.8,75.8,692.8,76.7z M691.6,76.2c0-0.3-0.1-0.6-0.2-0.9
		c-0.2-0.4-0.5-0.5-1-0.5c-0.4,0-0.7,0.1-1,0.4c-0.3,0.3-0.4,0.6-0.5,1H691.6z"/>
	<path class="st2" d="M702,74.2c0,0.7-0.2,1.3-0.7,1.7c-0.3,0.3-0.7,0.5-1.2,0.6c-0.3,0.1-0.8,0.1-1.4,0.1h-0.6v2.9h-1.3v-7.7h2
		c0.6,0,1.1,0,1.4,0.1c0.4,0.1,0.8,0.3,1.1,0.6C701.8,72.9,702,73.5,702,74.2z M700.7,74.2c0-0.4-0.1-0.7-0.4-1
		c-0.2-0.2-0.7-0.3-1.4-0.3h-0.7v2.6h0.5c0.8,0,1.4-0.1,1.6-0.4C700.5,74.9,700.7,74.6,700.7,74.2z"/>
	<path class="st2" d="M704.6,79.5h-1.3v-8.3h1.3V79.5z"/>
	<path class="st2" d="M710.4,79.5h-1.1v-0.4c-0.6,0.4-1.1,0.5-1.7,0.5c-0.5,0-1-0.2-1.3-0.5c-0.3-0.3-0.5-0.8-0.5-1.3
		c0-1.3,1.1-2,3.2-2h0.2v-0.2c0-0.3-0.1-0.6-0.2-0.7c-0.2-0.2-0.5-0.3-0.9-0.3c-0.5,0-1,0.1-1.5,0.4l-0.4-0.8
		c0.1-0.1,0.3-0.2,0.6-0.3c0.4-0.2,0.9-0.3,1.5-0.3c0.8,0,1.3,0.2,1.7,0.6c0.2,0.2,0.3,0.4,0.4,0.7c0,0.2,0.1,0.5,0.1,1V79.5z
		 M709.2,78.3v-1.5h-0.3c-0.9,0-1.5,0.1-1.7,0.4c-0.1,0.1-0.2,0.3-0.2,0.6c0,0.3,0.1,0.5,0.3,0.6c0.2,0.1,0.4,0.2,0.7,0.2
		C708.3,78.7,708.7,78.5,709.2,78.3z"/>
	<path class="st2" d="M716.5,79.5h-1.3v-3.1c0-0.7-0.1-1.2-0.3-1.4c-0.2-0.2-0.4-0.3-0.7-0.3c-0.4,0-0.8,0.1-1.3,0.4v4.3h-1.3v-5.6
		h1.1v0.4c0.5-0.4,1.1-0.6,1.7-0.6c0.6,0,1.1,0.2,1.4,0.5c0.3,0.3,0.4,0.6,0.5,1c0,0.2,0.1,0.6,0.1,1.1V79.5z"/>
	<path class="st2" d="M721.7,77.9c0,0.5-0.2,1-0.6,1.3c-0.4,0.3-0.9,0.5-1.5,0.5c-0.5,0-1-0.1-1.4-0.3c-0.3-0.1-0.5-0.2-0.6-0.3
		l0.4-0.8c0.6,0.3,1,0.4,1.5,0.4c0.3,0,0.6-0.1,0.7-0.2c0.2-0.1,0.3-0.3,0.3-0.5s-0.1-0.4-0.3-0.5c-0.1-0.1-0.4-0.2-0.9-0.4
		c-0.5-0.2-0.8-0.4-1-0.5c-0.3-0.3-0.5-0.7-0.5-1.1c0-0.5,0.2-0.9,0.6-1.2c0.4-0.3,0.9-0.5,1.5-0.5c0.8,0,1.4,0.2,1.8,0.5l-0.4,0.8
		c-0.4-0.3-0.9-0.4-1.3-0.4c-0.6,0-0.9,0.2-0.9,0.6c0,0.2,0.1,0.3,0.3,0.5c0.1,0.1,0.4,0.2,0.7,0.3c0.6,0.2,1,0.4,1.2,0.6
		C721.5,77,721.7,77.4,721.7,77.9z"/>
</g>
</svg>
