<svg version="1.1" id="Layer_1" xmlns="http://www.w3.org/2000/svg" x="0" y="0" viewBox="0 0 160 600" xml:space="preserve"><style>.st0{fill:#fff}</style><path class="st0" d="M27 186.8l-1-2.9h-5l-1 2.9h-3l5.1-14h3l5.1 14H27zM23.5 176l-1.8 5.6h3.5l-1.7-5.6zM37.8 186.8v-5.4c0-1.3-.1-2-.4-2.4-.1-.1-.4-.4-1.1-.4-.9 0-1.7.5-1.9.7v7.6h-2.8v-10.3H34v.8c.2-.1 1.4-1.1 2.9-1.1 1.1 0 2 .3 2.7 1 1.2 1.2 1.1 2.7 1.1 4.1v5.6h-2.9zM49.9 186.8v-.6c-.1.1-1 .9-2.8.9-2.8 0-4.6-2.2-4.6-5.3 0-3.4 2.4-5.6 5-5.6 1.2 0 2 .4 2.1.4v-5h2.8v15.2h-2.5zm-.4-7.9c-.1 0-.8-.4-1.6-.4-1.5 0-2.6 1.1-2.6 3.2 0 2 1.1 3.1 2.5 3.1.9 0 1.7-.5 1.7-.5v-5.4zM71.6 186.8v-5.6c0-1.2 0-2.6-1.4-2.6-.9 0-1.7.6-1.9.7.1.4.1.5.1 2.3v5.2h-2.8v-5.6c0-1.2 0-2.6-1.4-2.6-.8 0-1.6.5-1.8.6v7.6h-2.8v-10.3H62v.8c.2-.1 1.3-1.1 2.9-1.1 1.6 0 2.3.9 2.5 1.1.2-.1 1.5-1.1 3.3-1.1.9 0 1.9.3 2.6.9 1.2 1.2 1.2 3 1.2 5.3v4.3h-2.9zM82.5 186.8v-.7c-.2.1-1.3 1-2.9 1-2.1 0-3.3-1.4-3.3-3.3 0-3.7 4.5-3.7 5.8-3.7h.3c0-.6 0-.9-.3-1.2-.2-.2-.7-.4-1.5-.4-1.4 0-2.6.7-2.8.8l-.9-1.8c.1-.1 1.6-1.1 3.9-1.1.9 0 2.4.1 3.4 1.2.9.9.8 1.9.8 3.3v6.2h-2.5zm-.2-4.9h-.4c-1.8 0-3.1.3-3.1 1.6 0 1.1.9 1.4 1.6 1.4 1.2 0 1.8-.6 2-.6v-2.4zM93.8 186.8l-3.7-4.9v4.9h-2.8v-15.2h2.8v8.7l3.8-3.8h3.3l-4.6 4.5 4.6 5.8h-3.4zM106.9 182.5h-6.8c0 .8.6 2.3 2.6 2.3 1.3 0 2.3-.5 2.8-.7l.9 1.8c-.1.1-1.6 1.1-3.9 1.1-3.4 0-5.1-2.4-5.1-5.4 0-3.2 2-5.5 5-5.5s4.6 2.1 4.6 5.5c0 .5-.1.8-.1.9zm-4.5-4.2c-1.3 0-2.1 1-2.3 2.2h4.2c.1-.6-.1-2.2-1.9-2.2z"/><g><path class="st0" d="M21.2 209.1c-2.4 0-3.9-1.1-4-1.2l1-1.8c.2.1 1.4.8 2.7.8 1.3 0 1.6-.5 1.6-1 0-.7-.6-.8-2.2-1.5-.9-.4-2.6-1-2.6-3s1.6-3.3 4.1-3.3c2.2 0 3.4.9 3.4.9l-.9 1.7c-.1-.1-1.3-.7-2.4-.7s-1.4.5-1.4.9c0 .7.7.9 1.9 1.3 1.4.6 3 1.2 3 3.3-.1 2.3-1.7 3.6-4.2 3.6zM33.8 208.8v-.8c-.2.1-1.4 1.1-2.9 1.1-1.1 0-2-.3-2.7-1-1.2-1.2-1.1-2.7-1.1-4.1v-5.6h2.8v5.4c0 1.3.1 2 .4 2.4.1.1.4.4 1.1.4.9 0 1.7-.5 1.9-.7v-7.6h2.8v10.3h-2.3zM45 200.6c-.1 0-.5-.1-.6-.1-1.7 0-2.6 1-2.9 1.5v6.8h-2.8v-10.3h2.4v1.3c.1-.1 1.4-1.6 3.4-1.6.7 0 1.1.3 1.2.3l-.7 2.1zM55.8 204.6H49c0 .8.6 2.3 2.6 2.3 1.3 0 2.3-.5 2.8-.7l.9 1.8c-.1.1-1.6 1.1-3.9 1.1-3.4 0-5.1-2.4-5.1-5.4 0-3.2 2-5.5 5-5.5s4.6 2.1 4.6 5.5c-.1.4-.1.7-.1.9zm-4.6-4.3c-1.3 0-2.1 1-2.3 2.2h4.2c.1-.5-.1-2.2-1.9-2.2zM68.7 208.9c-.8 2-1.3 3-2 3.7-.4.4-1.3 1.1-3 1.1-1.5 0-2.5-.6-2.6-.7l.8-2c.1.1.8.4 1.6.4.6 0 1.1-.2 1.4-.5.5-.5.9-1.6 1-2.1l-4.3-10.3h3l2.8 7.2 2.6-7.2h2.8l-4.1 10.4zM78.5 209.1c-3 0-5.1-2.2-5.1-5.4s2.2-5.5 5.4-5.5c3 0 5.2 2.2 5.2 5.4-.1 3.2-2.3 5.5-5.5 5.5zm.1-8.6c-1.4 0-2.4 1.2-2.4 3.1 0 1.9 1 3.1 2.5 3.1s2.4-1.2 2.4-3.1c0-1.8-1.1-3.1-2.5-3.1zM92.4 208.8v-.8c-.2.1-1.4 1.1-2.9 1.1-1.1 0-2-.3-2.7-1-1.2-1.2-1.1-2.7-1.1-4.1v-5.6h2.8v5.4c0 1.3.1 2 .4 2.4.1.1.4.4 1.1.4.9 0 1.7-.5 1.9-.7v-7.6h2.8v10.3h-2.3zM99.3 199.1c-.3.3-.8.7-1.2 1l-1.6-1.4.3-.3c1.5-1.5 1.4-2.9 1.4-3.6h3c0 1.5-.3 2.7-1.9 4.3zM108.7 200.6c-.1 0-.5-.1-.6-.1-1.7 0-2.6 1-2.9 1.5v6.8h-2.8v-10.3h2.4v1.3c.1-.1 1.4-1.6 3.4-1.6.7 0 1.1.3 1.2.3l-.7 2.1zM119.4 204.6h-6.8c0 .8.6 2.3 2.6 2.3 1.3 0 2.3-.5 2.8-.7l.9 1.8c-.1.1-1.6 1.1-3.9 1.1-3.4 0-5.1-2.4-5.1-5.4 0-3.2 2-5.5 5-5.5s4.6 2.1 4.6 5.5c-.1.4-.1.7-.1.9zm-4.5-4.3c-1.3 0-2.1 1-2.3 2.2h4.2c0-.5-.2-2.2-1.9-2.2z"/></g><g><path class="st0" d="M22.8 231.1c-1.2 0-2-.4-2.1-.4v4.7h-2.8v-14.9h2.5v.6c.1-.1 1-.9 2.8-.9 2.8 0 4.6 2.2 4.6 5.3 0 3.4-2.4 5.6-5 5.6zm-.4-8.6c-.9 0-1.7.5-1.7.5v5.3c.1 0 .8.4 1.6.4 1.5 0 2.6-1.1 2.6-3.2 0-1.9-1.1-3-2.5-3zM36.1 222.6c-.1 0-.5-.1-.6-.1-1.7 0-2.6 1-2.9 1.5v6.8h-2.8v-10.3h2.4v1.3c.1-.1 1.4-1.6 3.4-1.6.7 0 1.1.3 1.2.3l-.7 2.1zM42.4 231.1c-3 0-5.1-2.2-5.1-5.4s2.2-5.5 5.4-5.5c3 0 5.2 2.2 5.2 5.4-.2 3.2-2.4 5.5-5.5 5.5zm0-8.6c-1.4 0-2.4 1.2-2.4 3.1 0 1.9 1 3.1 2.5 3.1s2.4-1.2 2.4-3.1c0-1.8-1-3.1-2.5-3.1zM54 231.1c-.9 0-2-.2-2.7-.9-.9-.9-.9-1.9-.9-3.3v-4h-1.8v-2.4h1.8v-2.9h2.8v2.9h2.9v2.4h-2.9v4.1c0 .8.1 1.8 1.3 1.8.7 0 1.1-.2 1.3-.3l.7 2c.1 0-.9.6-2.5.6zM67.2 226.6h-6.8c0 .8.6 2.3 2.6 2.3 1.3 0 2.3-.5 2.8-.7l.9 1.8c-.1.1-1.6 1.1-3.9 1.1-3.4 0-5.1-2.4-5.1-5.4 0-3.2 2-5.5 5-5.5s4.6 2.1 4.6 5.5c0 .4-.1.7-.1.9zm-4.5-4.3c-1.3 0-2.1 1-2.3 2.2h4.2c.1-.5-.2-2.2-1.9-2.2zM74 231.1c-3.2 0-5.3-2.3-5.3-5.4 0-3.2 2.4-5.5 5.5-5.5 2.2 0 3.4 1 3.6 1.3l-1.1 1.7c-.1-.1-1-.7-2.2-.7-1.9 0-2.9 1.6-2.9 3.1 0 1.8.9 3.2 2.8 3.2 1.3 0 2.4-.7 2.5-.8l1.1 1.8c-.1.1-1.6 1.3-4 1.3zM84.1 231.1c-.9 0-2-.2-2.7-.9-.9-.9-.9-1.9-.9-3.3v-4h-1.8v-2.4h1.8v-2.9h2.8v2.9h2.9v2.4h-2.9v4.1c0 .8.1 1.8 1.3 1.8.7 0 1.1-.2 1.3-.3l.7 2c.1 0-.9.6-2.5.6zM97.4 226.6h-6.8c0 .8.6 2.3 2.6 2.3 1.3 0 2.3-.5 2.8-.7l.9 1.8c-.1.1-1.6 1.1-3.9 1.1-3.4 0-5.1-2.4-5.1-5.4 0-3.2 2-5.5 5-5.5s4.6 2.1 4.6 5.5c-.1.4-.1.7-.1.9zm-4.6-4.3c-1.3 0-2.1 1-2.3 2.2h4.2c.1-.5-.1-2.2-1.9-2.2zM106.3 230.8v-.6c-.1.1-1 .9-2.8.9-2.8 0-4.6-2.2-4.6-5.3 0-3.4 2.4-5.6 5-5.6 1.2 0 2 .4 2.1.4v-5h2.8v15.2h-2.5zm-.4-7.9c-.1 0-.8-.4-1.6-.4-1.5 0-2.6 1.1-2.6 3.2 0 2 1.1 3.1 2.5 3.1.9 0 1.7-.5 1.7-.5v-5.4zM112.9 230.9c-1 0-1.7-.8-1.7-1.7s.8-1.7 1.7-1.7 1.7.8 1.7 1.7-.7 1.7-1.7 1.7z"/></g></svg>