<svg version="1.1" id="Layer_1" xmlns="http://www.w3.org/2000/svg" x="0" y="0" viewBox="0 0 160 600" xml:space="preserve"><style>.st0{fill:#fff}</style><path class="st0" d="M27 89.8l-1-2.9h-5l-1 2.9h-3l5.1-14h3l5.1 14H27zm-3.5-10.9l-1.8 5.6h3.5l-1.7-5.6zM36 90.1c-3.2 0-5.3-2.3-5.3-5.4 0-3.2 2.4-5.5 5.5-5.5 2.2 0 3.4 1 3.6 1.3l-1.1 1.7c-.1-.1-1-.7-2.2-.7-1.9 0-2.9 1.6-2.9 3.1 0 1.8.9 3.2 2.8 3.2 1.3 0 2.4-.7 2.5-.8l1.1 1.8c-.1 0-1.5 1.3-4 1.3zM46.2 90.1c-.9 0-2-.2-2.7-.9-.9-.9-.9-1.9-.9-3.3v-4h-1.8v-2.4h1.8v-2.9h2.8v2.9h2.9v2.4h-2.9V86c0 .8.1 1.8 1.3 1.8.7 0 1.1-.2 1.3-.3l.7 2s-1 .6-2.5.6zM51.9 78.2c-.9 0-1.6-.7-1.6-1.6S51 75 51.9 75s1.6.7 1.6 1.6-.7 1.6-1.6 1.6zm-1.4 11.6V79.4h2.8v10.3h-2.8zM61.3 89.8h-2.7l-3.9-10.3h2.9l2.5 7.2 2.4-7.2h2.8l-4 10.3zM72.3 89.8V89c-.2.1-1.3 1-2.9 1-2.1 0-3.3-1.4-3.3-3.3 0-3.7 4.5-3.7 5.8-3.7h.3c0-.6 0-.9-.3-1.2-.2-.2-.7-.4-1.5-.4-1.4 0-2.6.7-2.8.8l-.9-1.8c.1-.1 1.6-1.1 3.9-1.1.9 0 2.4.1 3.4 1.2.9.9.8 1.9.8 3.3V90h-2.5zm-.2-4.9h-.4c-1.8 0-3.1.3-3.1 1.6 0 1.1.9 1.4 1.6 1.4 1.2 0 1.8-.6 2-.6v-2.4zM81.5 90.1c-.9 0-2-.2-2.7-.9-.9-.9-.9-1.9-.9-3.3v-4h-1.8v-2.4h1.8v-2.9h2.8v2.9h2.9v2.4h-2.9V86c0 .8.1 1.8 1.3 1.8.7 0 1.1-.2 1.3-.3l.7 2s-1 .6-2.5.6zM94.7 85.5h-6.8c0 .8.6 2.3 2.6 2.3 1.3 0 2.3-.5 2.8-.7l.9 1.8c-.1.1-1.6 1.1-3.9 1.1-3.4 0-5.1-2.4-5.1-5.4 0-3.2 2-5.5 5-5.5s4.6 2.1 4.6 5.5c-.1.5-.1.8-.1.9zm-4.5-4.3c-1.3 0-2.1 1-2.3 2.2h4.2c0-.5-.2-2.2-1.9-2.2z"/><g><path class="st0" d="M24.1 111.9c-.8 2-1.3 3-2 3.7-.4.4-1.3 1.1-3 1.1-1.5 0-2.5-.6-2.6-.7l.8-2c.1.1.8.4 1.6.4.6 0 1.1-.2 1.4-.5.5-.5.9-1.6 1-2.1L17 101.4h3l2.8 7.2 2.6-7.2h2.8l-4.1 10.5zM33.9 112.1c-3 0-5.1-2.2-5.1-5.4s2.2-5.5 5.4-5.5c3 0 5.2 2.2 5.2 5.4-.2 3.2-2.3 5.5-5.5 5.5zm.1-8.6c-1.4 0-2.4 1.2-2.4 3.1 0 1.9 1 3.1 2.5 3.1s2.4-1.2 2.4-3.1c-.1-1.9-1.1-3.1-2.5-3.1zM47.8 111.8v-.8c-.2.1-1.4 1.1-2.9 1.1-1.1 0-2-.3-2.7-1-1.2-1.2-1.1-2.7-1.1-4.1v-5.6h2.8v5.4c0 1.3.1 2 .4 2.4.1.1.4.4 1.1.4.9 0 1.7-.5 1.9-.7v-7.6h2.8v10.3h-2.3zM58.9 103.6c-.1 0-.5-.1-.6-.1-1.7 0-2.6 1-2.9 1.5v6.8h-2.8v-10.3H55v1.3c.1-.1 1.4-1.6 3.4-1.6.7 0 1.1.3 1.2.3l-.7 2.1zM72.1 111.8v-5.4c0-1.3-.1-2-.4-2.4-.1-.1-.4-.4-1.1-.4-.9 0-1.7.5-1.9.7v7.6h-2.8v-10.3h2.4v.8c.2-.1 1.4-1.1 2.9-1.1 1.1 0 2 .3 2.7 1 1.2 1.2 1.1 2.7 1.1 4.1v5.6h-2.9zM81.9 112.1c-3 0-5.1-2.2-5.1-5.4s2.2-5.5 5.4-5.5c3 0 5.2 2.2 5.2 5.4-.1 3.2-2.3 5.5-5.5 5.5zm.1-8.6c-1.4 0-2.4 1.2-2.4 3.1 0 1.9 1 3.1 2.5 3.1s2.4-1.2 2.4-3.1c-.1-1.9-1.1-3.1-2.5-3.1zM89.6 107.4V105h7.3v2.4h-7.3zM104.5 112.1c-3.2 0-5.3-2.3-5.3-5.4 0-3.2 2.4-5.5 5.5-5.5 2.2 0 3.4 1 3.6 1.3l-1.1 1.7c-.1-.1-1-.7-2.2-.7-1.9 0-2.9 1.6-2.9 3.1 0 1.8.9 3.2 2.8 3.2 1.3 0 2.4-.7 2.5-.8l1.1 1.8c-.1 0-1.6 1.3-4 1.3zM114.3 112.1c-3 0-5.1-2.2-5.1-5.4s2.2-5.5 5.4-5.5c3 0 5.2 2.2 5.2 5.4-.1 3.2-2.3 5.5-5.5 5.5zm.1-8.6c-1.4 0-2.4 1.2-2.4 3.1 0 1.9 1 3.1 2.5 3.1s2.4-1.2 2.4-3.1c-.1-1.9-1.1-3.1-2.5-3.1zM124.7 112.1c-2.4 0-3.9-1.1-4-1.2l1-1.8c.2.1 1.4.8 2.7.8 1.3 0 1.6-.5 1.6-1 0-.7-.6-.8-2.2-1.5-.9-.4-2.6-1-2.6-3s1.6-3.3 4.1-3.3c2.2 0 3.4.9 3.4.9l-.9 1.7c-.1-.1-1.3-.7-2.4-.7-1.1 0-1.4.5-1.4.9 0 .7.7.9 1.9 1.3 1.4.6 3 1.2 3 3.3-.1 2.3-1.7 3.6-4.2 3.6zM135.3 112.1c-.9 0-2-.2-2.7-.9-.9-.9-.9-1.9-.9-3.3v-4H130v-2.4h1.8v-2.9h2.8v2.9h2.9v2.4h-2.9v4.1c0 .8.1 1.8 1.3 1.8.7 0 1.1-.2 1.3-.3l.7 2s-1 .6-2.6.6z"/></g><g><path class="st0" d="M19.3 122.2c-.9 0-1.6-.7-1.6-1.6s.7-1.6 1.6-1.6 1.6.7 1.6 1.6-.7 1.6-1.6 1.6zm-1.4 11.6v-10.3h2.8v10.3h-2.8zM29.4 133.8v-5.4c0-1.3-.1-2-.4-2.4-.1-.1-.4-.4-1.1-.4-.9 0-1.7.5-1.9.7v7.6h-2.8v-10.3h2.4v.8c.2-.1 1.4-1.1 2.9-1.1 1.1 0 2 .3 2.7 1 1.2 1.2 1.1 2.7 1.1 4.1v5.6h-2.9zM37.8 134.1c-2.4 0-3.9-1.1-4-1.2l1-1.8c.2.1 1.4.8 2.7.8 1.3 0 1.6-.5 1.6-1 0-.7-.6-.8-2.2-1.5-.9-.4-2.6-1-2.6-3s1.6-3.3 4.1-3.3c2.2 0 3.4.9 3.4.9l-.9 1.7c-.1-.1-1.3-.7-2.4-.7s-1.4.5-1.4.9c0 .7.7.9 1.9 1.3 1.4.6 3 1.2 3 3.3-.1 2.3-1.7 3.6-4.2 3.6zM50.5 133.8v-.8c-.2.1-1.4 1.1-2.9 1.1-1.1 0-2-.3-2.7-1-1.2-1.2-1.1-2.7-1.1-4.1v-5.6h2.8v5.4c0 1.3.1 2 .4 2.4.1.1.4.4 1.1.4.9 0 1.7-.5 1.9-.7v-7.6h2.8v10.3h-2.3zM61.7 125.6c-.1 0-.5-.1-.6-.1-1.7 0-2.6 1-2.9 1.5v6.8h-2.8v-10.3h2.4v1.3c.1-.1 1.4-1.6 3.4-1.6.7 0 1.1.3 1.2.3l-.7 2.1zM69.4 133.8v-.8c-.2.1-1.3 1-2.9 1-2.1 0-3.3-1.4-3.3-3.3 0-3.7 4.5-3.7 5.8-3.7h.3c0-.6 0-.9-.3-1.2-.2-.2-.7-.4-1.5-.4-1.4 0-2.6.7-2.8.8l-.9-1.8c.1-.1 1.6-1.1 3.9-1.1.9 0 2.4.1 3.4 1.2.9.9.8 1.9.8 3.3v6.2h-2.5zm-.2-4.9h-.4c-1.8 0-3.1.3-3.1 1.6 0 1.1.9 1.4 1.6 1.4 1.2 0 1.8-.6 2-.6v-2.4zM80.4 133.8v-5.4c0-1.3-.1-2-.4-2.4-.1-.1-.4-.4-1.1-.4-.9 0-1.7.5-1.9.7v7.6h-2.8v-10.3h2.4v.8c.2-.1 1.4-1.1 2.9-1.1 1.1 0 2 .3 2.7 1 1.2 1.2 1.1 2.7 1.1 4.1v5.6h-2.9zM90.4 134.1c-3.2 0-5.3-2.3-5.3-5.4 0-3.2 2.4-5.5 5.5-5.5 2.2 0 3.4 1 3.6 1.3l-1.1 1.7c-.1-.1-1-.7-2.2-.7-1.9 0-2.9 1.6-2.9 3.1 0 1.8.9 3.2 2.8 3.2 1.3 0 2.4-.7 2.5-.8l1.1 1.8c-.2 0-1.6 1.3-4 1.3zM104.6 129.5h-6.8c0 .8.6 2.3 2.6 2.3 1.3 0 2.3-.5 2.8-.7l.9 1.8c-.1.1-1.6 1.1-3.9 1.1-3.4 0-5.1-2.4-5.1-5.4 0-3.2 2-5.5 5-5.5s4.6 2.1 4.6 5.5c-.1.5-.1.8-.1.9zm-4.6-4.2c-1.3 0-2.1 1-2.3 2.2h4.2c.1-.6-.1-2.2-1.9-2.2z"/></g><g><path class="st0" d="M24.2 155.8v-5.4c0-1.3-.1-2-.4-2.4-.1-.1-.4-.4-1.1-.4-.9 0-1.7.5-1.9.7v7.6H18v-10.3h2.4v.8c.2-.1 1.4-1.1 2.9-1.1 1.1 0 2 .3 2.7 1 1.2 1.2 1.1 2.7 1.1 4.1v5.6h-2.9zM33.9 156.1c-3 0-5.1-2.2-5.1-5.4s2.2-5.5 5.4-5.5c3 0 5.2 2.2 5.2 5.4-.1 3.2-2.3 5.5-5.5 5.5zm.1-8.6c-1.4 0-2.4 1.2-2.4 3.1 0 1.9 1 3.1 2.5 3.1s2.4-1.2 2.4-3.1c0-1.8-1-3.1-2.5-3.1zM52.3 155.8h-2.9l-1.8-7.1-1.8 7.1h-2.9l-2.8-10.3h2.7l1.7 7.2 1.9-7.2h2.5l1.8 7.2 1.8-7.2h2.6l-2.8 10.3zM57.9 155.9c-1 0-1.7-.8-1.7-1.7s.8-1.7 1.7-1.7 1.7.8 1.7 1.7-.8 1.7-1.7 1.7z"/></g></svg>