<svg xmlns="http://www.w3.org/2000/svg" viewBox="0 0 160 600"><path d="M67.6 326.4c-1.4.2-2.6.4-3.7.7-.4.7-.7 1.3-1 1.9s-.6 1.1-.8 1.7c-.2.3-.3.5-.5.5-.2.1-.5 0-1-.1-.2-.1-.5-.2-.8-.3-.3-.1-.6-.2-.9-.4-.2-.1-.4-.3-.6-.3-.2-.1-.3-.2-.4-.3-.1-.1-.1-.3-.2-.5 0-.2 0-.5.2-.9.5-1.2 1-2.6 1.8-4.2.7-1.6 1.5-3.3 2.3-5s1.7-3.4 2.6-5.1 1.7-3.1 2.5-4.4c.3-.5.6-.8 1.1-1.1s1.1-.4 2-.3c.8 0 1.5.1 2.1.2.6.1 1.2.2 1.7.3.5.1 1 .2 1.4.3.4.1.9.2 1.3.3.6.2 1 .4 1.1.8.2.3.2.7.2 1.2-.1 1.2-.2 2.6-.3 4.2-.1 1.6-.1 3.2-.2 5 0 1.7-.1 3.5-.1 5.2v4.8c0 .3-.1.5-.2.6-.1.1-.5.2-.9.2h-1.4c-.5 0-.8-.1-1.3-.2s-.8-.3-.9-.5c-.2-.2-.3-.5-.4-1-.1-.5-.1-1-.2-1.6-.1-.6-.1-1.2-.2-2-1.4-.1-2.9.1-4.3.3zm1.4-4.5c.9-.1 1.7-.2 2.6-.2 0-1.4-.1-2.8-.1-4.2v-4.2c-.8 1.3-1.6 2.7-2.4 4.2s-1.8 3.1-2.6 4.8c.8-.2 1.7-.3 2.5-.4zM98.3 315.9c-.5 1.6-1 3.3-1.6 5l-1.5 5.1c-.5 1.7-.9 3.2-1.3 4.7 0 .2-.1.4-.2.5-.1.1-.3.1-.6.1-.2 0-.5-.1-.9-.1-.3-.1-.7-.2-1.1-.2-.8-.2-1.4-.5-1.8-.8-.4-.3-.6-.8-.4-1.4.1-.6.2-1.3.3-2.2.2-.8.3-1.7.5-2.7-.8.1-1.6.2-2.3.3s-1.5.2-2.3.3c-.3 1.2-.5 2.3-.7 3.4-.2 1-.4 2-.5 2.8-.1.3-.2.5-.4.6-.2.1-.5.1-1 0s-1-.2-1.5-.4c-.5-.1-.9-.3-1.3-.5s-.7-.4-.9-.7c-.2-.2-.2-.6-.1-1 .3-1.2.5-2.6.8-4.2.2-1.6.5-3.2.7-5 .2-1.7.4-3.5.7-5.2.2-1.7.4-3.3.7-4.8.2-.6.4-.9.6-1 .3-.1.7-.1 1.2.1.6.2 1.2.4 1.9.6.7.3 1.3.6 1.8.9.3.2.5.3.7.4.2.1.3.3.3.4.1.1.1.3.1.5s-.1.4-.1.6c-.3 1-.6 2.1-.9 3.5s-.7 2.8-1.1 4.3c.8-.1 1.6-.2 2.3-.2s1.5-.1 2.2-.2c.5-1.8.9-3.7 1.4-5.5.4-1.8.9-3.4 1.3-4.9.2-.6.4-.9.7-.9.3-.1.8 0 1.3.1s1.1.3 1.7.6c.6.3 1.1.5 1.7.8.5.3.8.6.9.9s.1.6-.1 1c-.2 1.4-.7 2.8-1.2 4.4zM117.4 315.9c-.5 1.6-1 3.3-1.6 5l-1.5 5.1c-.5 1.7-.9 3.2-1.3 4.7 0 .2-.1.4-.2.5-.1.1-.3.1-.6.1-.2 0-.5-.1-.9-.1-.3-.1-.7-.2-1.1-.2-.8-.2-1.4-.5-1.8-.8-.4-.3-.6-.8-.4-1.4.1-.6.2-1.3.3-2.2.2-.8.3-1.7.5-2.7-.8.1-1.6.2-2.3.3s-1.5.2-2.3.3c-.3 1.2-.5 2.3-.7 3.4-.2 1-.4 2-.5 2.8-.1.3-.2.5-.4.6-.2.1-.5.1-1 0s-1-.2-1.5-.4c-.5-.1-.9-.3-1.3-.5s-.7-.4-.9-.7c-.2-.2-.2-.6-.1-1 .3-1.2.5-2.6.8-4.2.2-1.6.5-3.2.7-5 .2-1.7.4-3.5.7-5.2.2-1.7.4-3.3.7-4.8.2-.6.4-.9.6-1 .3-.1.7-.1 1.2.1.6.2 1.2.4 1.9.6.7.3 1.3.6 1.8.9.3.2.5.3.7.4.2.1.3.3.3.4.1.1.1.3.1.5s-.1.4-.1.6c-.3 1-.6 2.1-.9 3.5s-.7 2.8-1.1 4.3c.8-.1 1.6-.2 2.3-.2s1.5-.1 2.2-.2c.5-1.8.9-3.7 1.4-5.5.4-1.8.9-3.4 1.3-4.9.2-.6.4-.9.7-.9.3-.1.8 0 1.3.1s1.1.3 1.7.6c.6.3 1.1.5 1.7.8.5.3.8.6.9.9s.1.6-.1 1c-.2 1.4-.7 2.8-1.2 4.4zM136.5 315.9c-.5 1.6-1 3.3-1.6 5l-1.5 5.1c-.5 1.7-.9 3.2-1.3 4.7 0 .2-.1.4-.2.5-.1.1-.3.1-.6.1-.2 0-.5-.1-.9-.1-.3-.1-.7-.2-1.1-.2-.8-.2-1.4-.5-1.8-.8-.4-.3-.6-.8-.4-1.4.1-.6.2-1.3.3-2.2.2-.8.3-1.7.5-2.7-.8.1-1.6.2-2.3.3s-1.5.2-2.3.3c-.3 1.2-.5 2.3-.7 3.4-.2 1-.4 2-.5 2.8-.1.3-.2.5-.4.6-.2.1-.5.1-1 0s-1-.2-1.5-.4c-.5-.1-.9-.3-1.3-.5s-.7-.4-.9-.7c-.2-.2-.2-.6-.1-1 .3-1.2.5-2.6.8-4.2.2-1.6.5-3.2.7-5 .2-1.7.4-3.5.7-5.2.2-1.7.4-3.3.7-4.8.2-.6.4-.9.6-1 .3-.1.7-.1 1.2.1.6.2 1.2.4 1.9.6.7.3 1.3.6 1.8.9.3.2.5.3.7.4.2.1.3.3.3.4.1.1.1.3.1.5s-.1.4-.1.6c-.3 1-.6 2.1-.9 3.5s-.7 2.8-1.1 4.3c.8-.1 1.6-.2 2.3-.2s1.5-.1 2.2-.2c.5-1.8.9-3.7 1.4-5.5.4-1.8.9-3.4 1.3-4.9.2-.6.4-.9.7-.9.3-.1.8 0 1.3.1s1.1.3 1.7.6c.6.3 1.1.5 1.7.8.5.3.8.6.9.9s.1.6-.1 1c-.2 1.4-.7 2.8-1.2 4.4z"/></svg>