<svg xmlns="http://www.w3.org/2000/svg" viewBox="0 0 160 600"><path d="M75.3 134.9c.4.6.6 1.4.8 2.2.2 1.3.3 2.8.2 4.4-.1 1.6-.4 3.1-.9 4.7s-1.1 3-1.9 4.4c-.8 1.4-1.8 2.6-3 3.5-.8.6-1.6 1-2.5 1.1-.9.2-1.9.2-3 .1-.8-.1-1.5-.2-2.3-.3s-1.5-.4-2.2-.7c-.5-.3-1.1-.6-1.6-1s-.9-.9-1.2-1.4c-.5-.8-.8-1.8-1.1-2.9-.2-1.1-.4-2.2-.3-3.4s.2-2.4.5-3.6c.3-1.2.7-2.4 1.2-3.6.5-1.2 1.2-2.3 2-3.3s1.7-2 2.7-2.8c.7-.5 1.5-.9 2.5-1.1s1.9-.3 2.8-.2c1.1.2 2.2.4 3.3.8 1 .3 1.9.8 2.6 1.3.5.5 1.1 1.1 1.4 1.8zm-7.9 1.4c-.5.5-1 1.1-1.6 1.8-.5.8-1 1.6-1.5 2.6-.5.9-.8 1.9-1.1 2.7-.3.9-.5 1.8-.6 2.7s-.2 1.8-.1 2.6c0 .8.2 1.5.4 2.1.2.6.6.9 1.1 1 .4.1.9 0 1.3-.2.5-.3.9-.7 1.4-1.4.5-.6.9-1.4 1.3-2.3.4-.9.8-1.9 1.1-2.9.3-.9.5-1.8.6-2.9.2-1 .2-2 .2-2.9 0-.9-.1-1.7-.3-2.4-.2-.7-.5-1-.9-1.1-.3 0-.8.1-1.3.6zM96.2 134.9c.3.6.6 1.4.8 2.2.2 1.3.3 2.8.2 4.4-.1 1.6-.4 3.1-.9 4.7s-1.1 3-1.9 4.4c-.8 1.4-1.8 2.6-3 3.5-.8.6-1.6 1-2.5 1.1s-1.9.2-3 .1c-.8-.1-1.5-.2-2.3-.3-.8-.2-1.5-.4-2.2-.7-.5-.3-1.1-.6-1.6-1s-.9-.9-1.2-1.4c-.5-.8-.8-1.8-1.1-2.9-.2-1.1-.4-2.2-.3-3.4s.2-2.4.5-3.6c.3-1.2.7-2.4 1.2-3.6.5-1.2 1.2-2.3 2-3.3s1.7-2 2.8-2.8c.7-.5 1.5-.9 2.5-1.1 1-.3 1.9-.3 2.8-.2 1.1.2 2.2.4 3.3.8s1.9.8 2.6 1.3c.4.5.9 1.1 1.3 1.8zm-7.9 1.4c-.5.5-1 1.1-1.6 1.8-.5.8-1 1.6-1.5 2.6-.5.9-.8 1.9-1.1 2.7-.3.9-.5 1.8-.6 2.7-.1.9-.2 1.8-.1 2.6 0 .8.2 1.5.4 2.1.2.6.6.9 1.1 1 .4.1.9 0 1.3-.2.5-.3.9-.7 1.4-1.4s.9-1.4 1.3-2.3c.4-.9.8-1.9 1.1-2.9.3-.9.5-1.8.6-2.9.2-1 .2-2 .2-2.9 0-.9-.1-1.7-.3-2.4-.2-.7-.5-1-.9-1.1-.3 0-.8.1-1.3.6zM104 152c-.2 1-.4 1.9-.6 2.9-.1.3-.2.5-.4.6-.2.1-.5.1-1.1 0-.5-.1-1-.3-1.5-.4-.5-.1-.9-.3-1.3-.5s-.7-.4-.9-.7c-.2-.3-.2-.7-.1-1.2.2-.4.3-1.2.5-2.2s.3-2.2.4-3.6c.1-1.3.2-2.7.4-4.2.1-1.4.2-2.8.4-4 .1-1.2.3-2.2.4-3.1.2-.8.3-1.3.5-1.4.8-.4 1.6-.8 2.5-1.1.9-.4 1.9-.8 2.9-1.1 1-.3 2-.6 3-.8 1-.2 1.9-.3 2.9-.3.9 0 1.8.1 2.6.3.8.2 1.5.6 2.1 1.1.7.7 1.3 1.4 1.9 2.3.6.8 1 1.8 1.3 2.9.1.6.2 1.1.1 1.6s-.2 1-.5 1.4c-.2.4-.5.9-.9 1.3s-.7.8-1.2 1.2c-.7.6-1.5 1.2-2.4 1.8-1 .6-2 1.1-3.1 1.7-1.1.5-2.3 1-3.5 1.4-1.2.4-2.4.8-3.7 1.1-.3 1-.5 2-.7 3zm5.7-9.8c1.1-.6 1.9-1.2 2.6-1.9.7-.6 1.2-1.2 1.4-1.8s.3-1.1.2-1.5c-.1-.2-.3-.4-.6-.5-.4-.1-.8-.2-1.4-.2-.6 0-1.2.1-1.9.2s-1.4.4-2.2.7c-.3 1-.6 2-.9 3.1l-.9 3.3c1.4-.3 2.6-.8 3.7-1.4z"/><path d="M119 149c.4-.1.8-.1 1.2-.1s.8.1 1.2.2c.4.1.7.2 1 .4 1.7 1 3.2 1.6 4.4 1.9 1.3.3 2.2.2 2.7-.2.2-.1.3-.3.2-.5-.1-.2-.4-.5-.8-.7-.4-.3-.8-.6-1.4-.9-.6-.3-1.1-.7-1.8-1-.6-.3-1.2-.7-1.9-1.1-.6-.4-1.2-.8-1.7-1.1-.6-.4-1.1-.9-1.5-1.4-.4-.5-.8-1.1-1-1.7-.2-.6-.4-1.3-.4-1.9 0-.7.1-1.4.4-2.2.2-.7.5-1.4.9-2.1s.9-1.4 1.5-2.1c.6-.7 1.2-1.3 2-1.9.7-.6 1.4-1.1 2.2-1.5.2-.2.6-.3.9-.5.4-.2.8-.3 1.3-.3s1-.1 1.6-.1c.6 0 1.1.1 1.7.3.9.3 1.8.7 2.7 1.1.9.4 1.7.9 2.3 1.4.4.4.7.7.9 1 .2.4.4.7.5 1 .1.3.1.7.2 1v.9c-.1.5-.2 1-.3 1.6-.1.6-.3 1.2-.5 1.9s-.4 1.2-.6 1.8c-.2.6-.4 1-.6 1.4-.2.4-.5.6-.7.7-.3.1-.6.1-1.1-.2-2.7-.8-4-2.1-3.8-3.6 0-.3.1-.7.2-1.1s.2-.9.3-1.3l.3-1.2c.1-.4.1-.7.1-.9 0-.2-.1-.4-.3-.4-.2 0-.4.1-.8.3-.3.2-.7.4-1.1.8-.4.3-.8.7-1.2 1.2-.4.4-.7.9-1 1.4-.3.5-.5 1-.6 1.5-.1.5-.1 1 0 1.5s.4.9.9 1.3c.6.5 1.2 1 2 1.4.7.5 1.4.9 2.1 1.3.7.4 1.4.8 2 1.3.6.4 1.2.8 1.6 1.3.4.4.7.9.8 1.4.1.5 0 1-.3 1.5-.2.4-.5.8-.8 1.3-.4.5-.8.9-1.4 1.3-.6.4-1.3.7-2.2 1-.9.3-1.9.4-3.1.4-1.6 0-3.2-.2-4.7-.8-1.5-.6-3.1-1.6-4.7-3-.9-.7-1.3-1.2-1.4-1.6 0-.3.2-.6.6-.8.3-.5.6-.6 1-.6z"/></svg>