<svg version="1.1" id="Layer_1" xmlns="http://www.w3.org/2000/svg" x="0" y="0" viewBox="0 0 160 600" xml:space="preserve"><style>.st0{fill:#fff}</style><path class="st0" d="M27.3 260.4v7.4h-3.8v-7.4l-5.9-11.2h4l3.9 8.1 3.9-8.1H33l-5.7 11.2zM39.6 268.3c-4.1 0-6.9-3-6.9-7.2 0-4.3 2.9-7.4 7.1-7.4 4.1 0 6.9 3 6.9 7.1.1 4.4-2.8 7.5-7.1 7.5zm.2-11.5c-1.9 0-3.2 1.7-3.2 4.1 0 2.5 1.4 4.2 3.3 4.2s3.1-1.6 3.1-4.1c0-2.5-1.3-4.2-3.2-4.2zM58.1 267.9v-1c-.2.2-1.9 1.4-3.9 1.4-1.5 0-2.7-.4-3.6-1.3-1.5-1.5-1.5-3.6-1.5-5.4v-7.4h3.8v7.3c0 1.8.1 2.7.6 3.2.2.2.6.5 1.5.5 1.2 0 2.3-.7 2.5-.9v-10.1h3.8V268h-3.2zM27.1 285.9c-.1 0-.6-.1-.8-.1-2.3 0-3.4 1.4-3.9 2v9h-3.8V283h3.2v1.7c.1-.2 1.8-2.1 4.6-2.1 1 0 1.5.3 1.6.4l-.9 2.9zM41.2 291.2h-9.1c-.1 1 .8 3.1 3.5 3.1 1.7 0 3.1-.7 3.7-1l1.2 2.4c-.1.1-2.2 1.5-5.2 1.5-4.5 0-6.9-3.2-6.9-7.2 0-4.2 2.7-7.4 6.6-7.4 4 0 6.2 2.9 6.2 7.3.1.7 0 1.1 0 1.3zm-6-5.7c-1.7 0-2.8 1.3-3.1 3h5.7c0-.8-.3-3-2.6-3zM54.7 301.6c-.8.8-2.4 1.8-5.1 1.8-3.9 0-6-1.8-6.2-2l1.5-2.5c.2.1 2 1.4 4.3 1.4 3.1 0 3.3-1.9 3.3-3.4v-.9c-.2.1-1.3.8-3.2.8-4.2 0-6.2-3.4-6.2-6.8 0-4.1 2.9-7.4 7.4-7.4 2.9 0 5.3 1.3 5.7 1.5v12.5c-.1 2-.1 3.5-1.5 5zm-2.3-15.5c-.2-.1-1.1-.4-2.1-.4-2 0-3.6 1.5-3.6 4.2 0 2.6 1.5 3.9 3.3 3.9 1.2 0 2.3-.6 2.4-.7v-7zM61.1 281.4c-1.2 0-2.2-1-2.2-2.2 0-1.2 1-2.2 2.2-2.2s2.2 1 2.2 2.2c-.1 1.2-1 2.2-2.2 2.2zm-1.9 15.5v-13.8H63v13.8h-3.8zM70.4 297.3c-3.1 0-5.2-1.4-5.3-1.6l1.3-2.4c.3.1 1.8 1.1 3.6 1.1 1.7 0 2.1-.7 2.1-1.3 0-.9-.8-1.1-3-2-1.2-.5-3.4-1.4-3.4-4s2.2-4.3 5.4-4.3c3 0 4.6 1.2 4.6 1.2l-1.2 2.3c-.1-.1-1.7-.9-3.1-.9-1.4 0-1.8.7-1.8 1.3 0 .9 1 1.2 2.5 1.8 1.9.8 3.9 1.6 3.9 4.4-.2 2.7-2.3 4.4-5.6 4.4zM84.4 297.3c-1.2 0-2.6-.3-3.6-1.2-1.2-1.2-1.2-2.5-1.2-4.4v-5.4h-2.4v-3.1h2.4v-3.8h3.8v3.8h3.9v3.1h-3.9v5.5c0 1.1.1 2.4 1.7 2.4.9 0 1.5-.3 1.7-.3l1 2.6c0-.1-1.3.8-3.4.8zM101.9 291.2h-9.1c-.1 1 .8 3.1 3.5 3.1 1.7 0 3.1-.7 3.7-1l1.2 2.4c-.1.1-2.2 1.5-5.2 1.5-4.5 0-6.9-3.2-6.9-7.2 0-4.2 2.7-7.4 6.6-7.4 4 0 6.2 2.9 6.2 7.3v1.3zm-6.1-5.7c-1.7 0-2.8 1.3-3.1 3h5.7c0-.8-.2-3-2.6-3zM112.9 285.9c-.1 0-.6-.1-.8-.1-2.3 0-3.4 1.4-3.9 2v9h-3.8V283h3.2v1.7c.1-.2 1.8-2.1 4.6-2.1 1 0 1.5.3 1.6.4l-.9 2.9zM127.1 291.2H118c-.1 1 .8 3.1 3.5 3.1 1.7 0 3.1-.7 3.7-1l1.2 2.4c-.1.1-2.2 1.5-5.2 1.5-4.5 0-6.9-3.2-6.9-7.2 0-4.2 2.7-7.4 6.6-7.4 4 0 6.2 2.9 6.2 7.3v1.3zm-6.1-5.7c-1.7 0-2.8 1.3-3.1 3h5.7c0-.8-.3-3-2.6-3zM138.8 296.9v-.9c-.1.1-1.4 1.2-3.7 1.2-3.8 0-6.2-2.9-6.2-7.1 0-4.5 3.1-7.5 6.6-7.5 1.5 0 2.6.5 2.8.5v-6.6h3.8v20.3h-3.3zm-.5-10.5c-.1-.1-1-.6-2.1-.6-2 0-3.5 1.4-3.5 4.3 0 2.7 1.5 4.1 3.3 4.1 1.2 0 2.2-.6 2.3-.7v-7.1z"/><g><path class="st0" d="M26.8 326c-1.1 2.7-1.7 4-2.7 5-.6.6-1.8 1.4-4 1.4-2 0-3.3-.8-3.4-.9l1.1-2.7c.2.1 1 .5 2.1.5.8 0 1.4-.3 1.9-.7.7-.7 1.1-2.1 1.4-2.7l-5.8-13.8h4l3.7 9.7 3.4-9.7h3.7L26.8 326zM39.9 326.3c-4.1 0-6.9-3-6.9-7.2 0-4.3 2.9-7.4 7.1-7.4 4.1 0 6.9 3 6.9 7.1 0 4.4-2.9 7.5-7.1 7.5zm.1-11.5c-1.9 0-3.2 1.7-3.2 4.1 0 2.5 1.4 4.2 3.3 4.2s3.1-1.6 3.1-4.1c.1-2.5-1.3-4.2-3.2-4.2zM58.3 325.9v-1c-.2.2-1.9 1.4-3.9 1.4-1.5 0-2.7-.4-3.6-1.3-1.5-1.5-1.5-3.6-1.5-5.4v-7.4h3.8v7.3c0 1.8.1 2.7.6 3.2.2.2.6.5 1.5.5 1.2 0 2.3-.7 2.5-.9v-10.1h3.8V326h-3.2zM73.2 314.9c-.1 0-.6-.1-.8-.1-2.3 0-3.4 1.4-3.9 2v9h-3.8V312h3.2v1.7c.1-.2 1.8-2.1 4.6-2.1 1 0 1.5.3 1.6.4l-.9 2.9z"/></g><g><path class="st0" d="M26.3 354.9v-1c-.3.2-1.7 1.3-3.9 1.3-2.7 0-4.5-1.8-4.5-4.4 0-4.9 6-5 7.7-5h.4c0-.8 0-1.2-.4-1.6-.3-.3-.9-.6-2-.6-1.8 0-3.5.9-3.7 1l-1.3-2.4c.2-.2 2.1-1.5 5.2-1.5 1.2 0 3.2.2 4.5 1.5 1.1 1.1 1.1 2.6 1.1 4.4v8.3h-3.1zm-.2-6.5h-.6c-2.4 0-4.2.4-4.2 2.2 0 1.4 1.2 1.8 2.1 1.8 1.5 0 2.5-.8 2.6-.8v-3.2zM39 355.3c-4.3 0-7.1-3.1-7.1-7.2 0-4.3 3.2-7.4 7.3-7.4 2.9 0 4.6 1.4 4.8 1.7l-1.5 2.3c-.2-.1-1.3-1-2.9-1-2.5 0-3.9 2.2-3.9 4.1 0 2.4 1.2 4.3 3.8 4.3 1.8 0 3.2-1 3.3-1l1.5 2.4c-.1.1-2 1.8-5.3 1.8zM52.3 355.3c-4.3 0-7.1-3.1-7.1-7.2 0-4.3 3.2-7.4 7.3-7.4 2.9 0 4.6 1.4 4.8 1.7l-1.5 2.3c-.2-.1-1.3-1-2.9-1-2.5 0-3.9 2.2-3.9 4.1 0 2.4 1.2 4.3 3.8 4.3 1.8 0 3.2-1 3.3-1l1.5 2.4c-.1.1-2.1 1.8-5.3 1.8zM65.3 355.3c-4.1 0-6.9-3-6.9-7.2 0-4.3 2.9-7.4 7.1-7.4 4.1 0 6.9 3 6.9 7.1.1 4.5-2.8 7.5-7.1 7.5zm.1-11.5c-1.9 0-3.2 1.7-3.2 4.1 0 2.5 1.4 4.2 3.3 4.2s3.1-1.6 3.1-4.1c.1-2.5-1.2-4.2-3.2-4.2zM83.7 354.9v-1c-.2.2-1.9 1.4-3.9 1.4-1.5 0-2.7-.4-3.6-1.3-1.5-1.5-1.5-3.6-1.5-5.4v-7.4h3.8v7.3c0 1.8.1 2.7.6 3.2.2.2.6.5 1.5.5 1.2 0 2.3-.7 2.5-.9v-10.1H87V355h-3.3zM98.5 354.9v-7.3c0-1.8-.1-2.7-.6-3.2-.2-.2-.6-.5-1.5-.5-1.2 0-2.3.7-2.5.9v10.1h-3.8v-13.8h3.2v1c.2-.2 1.9-1.4 3.9-1.4 1.5 0 2.7.4 3.6 1.3 1.6 1.6 1.5 3.6 1.5 5.4v7.4h-3.8zM111.1 355.3c-1.2 0-2.6-.3-3.6-1.2-1.2-1.2-1.2-2.5-1.2-4.4v-5.4H104v-3.1h2.4v-3.8h3.8v3.8h3.9v3.1h-3.9v5.5c0 1.1.1 2.4 1.7 2.4.9 0 1.5-.3 1.7-.3l1 2.6c-.1 0-1.5.8-3.5.8z"/></g><g><path class="st0" d="M28 367.1c-.1-.1-1-.7-2-.7-2 0-2 1.6-2 3v.7h4v3.1h-4.1v10.6h-3.8v-10.6h-2.2v-3.1h2.2v-.7c0-2.3.3-3.6 1.5-4.8.9-.9 2-1.4 3.8-1.4 2.4 0 3.9 1.2 3.9 1.3l-1.3 2.6zM36.4 384.3c-4.1 0-6.9-3-6.9-7.2 0-4.3 2.9-7.4 7.1-7.4 4.1 0 6.9 3 6.9 7.1 0 4.5-2.9 7.5-7.1 7.5zm.1-11.5c-1.9 0-3.2 1.7-3.2 4.1 0 2.5 1.4 4.2 3.3 4.2s3.1-1.6 3.1-4.1c.1-2.5-1.3-4.2-3.2-4.2zM54.5 372.9c-.1 0-.6-.1-.8-.1-2.3 0-3.4 1.4-3.9 2v9H46V370h3.2v1.7c.1-.2 1.8-2.1 4.6-2.1 1 0 1.5.3 1.6.4l-.9 2.9zM75.9 383.9l-1.4-3.9h-6.7l-1.4 3.9h-4l6.8-18.7h4l6.8 18.7h-4.1zm-4.8-14.5l-2.4 7.5h4.7l-2.3-7.5zM95.7 381.1c-2.7 2.7-6.2 2.8-9.8 2.8h-3.8v-18.7h5.2c3.2 0 5.9 0 8.5 2.5 1.6 1.6 2.5 4.1 2.5 6.7-.1 2.5-.9 5-2.6 6.7zm-3-11.2c-1.6-1.6-3.4-1.5-5.6-1.5H86v12.4h1.9c4.2 0 6.4-2.3 6.4-6.4 0-2.1-.6-3.5-1.6-4.5zM112.1 383.9l-1.4-3.9H104l-1.4 3.9h-4l6.8-18.7h4l6.8 18.7h-4.1zm-4.7-14.5l-2.4 7.5h4.7l-2.3-7.5z"/></g><g><path class="st0" d="M23 413.3c-3.1 0-5.2-1.4-5.3-1.6l1.3-2.4c.3.1 1.8 1.1 3.6 1.1 1.7 0 2.1-.7 2.1-1.3 0-.9-.8-1.1-3-2-1.2-.5-3.4-1.4-3.4-4s2.2-4.3 5.4-4.3c3 0 4.6 1.2 4.6 1.2l-1.2 2.3c-.1-.1-1.7-.9-3.1-.9-1.4 0-1.8.7-1.8 1.3 0 .9 1 1.2 2.5 1.8 1.9.8 3.9 1.6 3.9 4.4-.2 2.7-2.3 4.4-5.6 4.4zM37.1 413.3c-1.2 0-2.6-.3-3.6-1.2-1.2-1.2-1.2-2.5-1.2-4.4v-5.4H30v-3.1h2.4v-3.8h3.8v3.8h3.9v3.1h-3.9v5.5c0 1.1.1 2.4 1.7 2.4.9 0 1.5-.3 1.7-.3l1 2.6c-.1 0-1.4.8-3.5.8zM51.5 412.9v-1c-.2.2-1.9 1.4-3.9 1.4-1.5 0-2.7-.4-3.6-1.3-1.5-1.5-1.5-3.6-1.5-5.4v-7.4h3.8v7.3c0 1.8.1 2.7.6 3.2.2.2.6.5 1.5.5 1.2 0 2.3-.7 2.5-.9v-10.1h3.8V413h-3.2zM67.1 412.9v-.8c-.1.1-1.4 1.2-3.7 1.2-3.8 0-6.2-2.9-6.2-7.1 0-4.5 3.1-7.5 6.6-7.5 1.5 0 2.6.5 2.8.5v-6.6h3.8v20.3h-3.3zm-.4-10.5c-.1-.1-1-.6-2.1-.6-2 0-3.5 1.4-3.5 4.3 0 2.7 1.5 4.1 3.3 4.1 1.2 0 2.2-.6 2.3-.7v-7.1zM85.7 407.2h-9.1c-.1 1 .8 3.1 3.5 3.1 1.7 0 3.1-.7 3.7-1l1.2 2.4c-.1.1-2.2 1.5-5.2 1.5-4.5 0-6.9-3.2-6.9-7.2 0-4.2 2.7-7.4 6.6-7.4 4 0 6.2 2.9 6.2 7.3.1.8 0 1.1 0 1.3zm-6-5.7c-1.7 0-2.8 1.3-3.1 3h5.7c0-.7-.3-3-2.6-3zM96.7 412.9v-7.3c0-1.8-.1-2.7-.6-3.2-.2-.2-.6-.5-1.5-.5-1.2 0-2.3.7-2.5.9v10.1h-3.8v-13.8h3.2v1c.2-.2 1.9-1.4 3.9-1.4 1.5 0 2.7.4 3.6 1.3 1.6 1.6 1.5 3.6 1.5 5.4v7.4h-3.8zM109.3 413.3c-1.2 0-2.6-.3-3.6-1.2-1.2-1.2-1.2-2.5-1.2-4.4v-5.4h-2.4v-3.1h2.4v-3.8h3.8v3.8h3.9v3.1h-3.9v5.5c0 1.1.1 2.4 1.7 2.4.9 0 1.5-.3 1.7-.3l1 2.6s-1.4.8-3.4.8z"/></g><g><path class="st0" d="M34.7 441.9v-7.5c0-1.7.1-3.4-1.9-3.4-1.2 0-2.3.8-2.5 1 .1.6.2.7.2 3.1v6.9h-3.8v-7.5c0-1.7.1-3.4-1.9-3.4-1.1 0-2.2.6-2.4.8v10.2h-3.8v-13.8h3.2v1c.3-.2 1.8-1.4 3.9-1.4 2.2 0 3.1 1.2 3.4 1.5.3-.2 2-1.5 4.4-1.5 1.2 0 2.6.3 3.5 1.3 1.7 1.7 1.6 3.9 1.6 7.1v5.8h-3.9zM53.6 436.3h-9.1c-.1 1 .8 3.1 3.5 3.1 1.7 0 3.1-.7 3.7-1l1.2 2.4c-.1.1-2.2 1.5-5.2 1.5-4.5 0-6.9-3.2-6.9-7.2 0-4.2 2.7-7.4 6.6-7.4 4 0 6.2 2.9 6.2 7.3.1.7 0 1.1 0 1.3zm-6-5.8c-1.7 0-2.8 1.3-3.1 3h5.7c0-.7-.3-3-2.6-3zM72.4 441.9v-7.5c0-1.7.1-3.4-1.9-3.4-1.2 0-2.3.8-2.5 1 .1.6.2.7.2 3.1v6.9h-3.8v-7.5c0-1.7.1-3.4-1.9-3.4-1.1 0-2.2.6-2.4.8v10.2h-3.8v-13.8h3.2v1c.3-.2 1.8-1.4 3.9-1.4 2.2 0 3.1 1.2 3.4 1.5.3-.2 2-1.5 4.4-1.5 1.2 0 2.6.3 3.5 1.3 1.7 1.7 1.6 3.9 1.6 7.1v5.8h-3.9zM85 442.3c-2.8 0-5.5-1-5.8-1.1v-19.6H83v7.1c.2-.1 1.5-1 3.4-1 3.3 0 5.9 2.6 5.9 6.9 0 4.6-2.8 7.7-7.3 7.7zm.5-11.5c-1.2 0-2.4.7-2.5.8v7.4c.2.1.8.3 2 .3 2.2 0 3.5-1.8 3.5-4.6 0-2.7-1.5-3.9-3-3.9zM107 436.3h-9.1c-.1 1 .8 3.1 3.5 3.1 1.7 0 3.1-.7 3.7-1l1.2 2.4c-.1.1-2.2 1.5-5.2 1.5-4.5 0-6.9-3.2-6.9-7.2 0-4.2 2.7-7.4 6.6-7.4 4 0 6.2 2.9 6.2 7.3v1.3zm-6.1-5.8c-1.7 0-2.8 1.3-3.1 3h5.7c0-.7-.3-3-2.6-3zM118.1 431c-.1 0-.6-.1-.8-.1-2.3 0-3.4 1.4-3.9 2v9h-3.8v-13.8h3.2v1.7c.1-.2 1.8-2.1 4.6-2.1 1 0 1.5.3 1.6.4l-.9 2.9zM124.8 442.3c-3.1 0-5.2-1.4-5.3-1.6l1.3-2.4c.3.1 1.8 1.1 3.6 1.1 1.7 0 2.1-.7 2.1-1.3 0-.9-.8-1.1-3-2-1.2-.5-3.4-1.4-3.4-4s2.2-4.3 5.4-4.3c3 0 4.6 1.2 4.6 1.2l-1.2 2.3c-.1-.1-1.7-.9-3.1-.9-1.4 0-1.8.7-1.8 1.3 0 .9 1 1.2 2.5 1.8 1.9.8 3.9 1.6 3.9 4.4-.1 2.7-2.2 4.4-5.6 4.4z"/></g><g><path class="st0" d="M20.5 455.4c-1.2 0-2.2-1-2.2-2.2s1-2.2 2.2-2.2 2.2 1 2.2 2.2-1 2.2-2.2 2.2zm-1.9 15.5v-13.8h3.8v13.8h-3.8zM33.9 470.9v-7.3c0-1.8-.1-2.7-.6-3.2-.2-.2-.6-.5-1.5-.5-1.2 0-2.3.7-2.5.9v10.1h-3.8v-13.8h3.2v1c.2-.2 1.9-1.4 3.9-1.4 1.5 0 2.7.4 3.6 1.3 1.6 1.6 1.5 3.6 1.5 5.4v7.4h-3.8zM45 471.3c-3.1 0-5.2-1.4-5.3-1.6l1.3-2.4c.3.1 1.8 1.1 3.6 1.1 1.7 0 2.1-.7 2.1-1.3 0-.9-.8-1.1-3-2-1.2-.5-3.4-1.4-3.4-4s2.2-4.3 5.4-4.3c3 0 4.6 1.2 4.6 1.2l-1.2 2.3c-.1-.1-1.7-.9-3.1-.9-1.4 0-1.8.7-1.8 1.3 0 .9 1 1.2 2.5 1.8 1.9.8 3.9 1.6 3.9 4.4-.1 2.7-2.2 4.4-5.6 4.4zM61.8 470.9v-1c-.2.2-1.9 1.4-3.9 1.4-1.5 0-2.7-.4-3.6-1.3-1.5-1.5-1.5-3.6-1.5-5.4v-7.4h3.8v7.3c0 1.8.1 2.7.6 3.2.2.2.6.5 1.5.5 1.2 0 2.3-.7 2.5-.9v-10.1H65V471h-3.2zM76.7 460c-.1 0-.6-.1-.8-.1-2.3 0-3.4 1.4-3.9 2v9h-3.8v-13.8h3.2v1.7c.1-.2 1.8-2.1 4.6-2.1 1 0 1.5.3 1.6.4l-.9 2.9zM86.9 470.9v-1c-.3.2-1.7 1.3-3.9 1.3-2.7 0-4.5-1.8-4.5-4.4 0-4.9 6-5 7.7-5h.4c0-.8 0-1.2-.4-1.6-.3-.3-.9-.6-2-.6-1.8 0-3.5.9-3.7 1l-1.3-2.4c.2-.2 2.1-1.5 5.2-1.5 1.2 0 3.2.2 4.5 1.5 1.1 1.1 1.1 2.6 1.1 4.4v8.3h-3.1zm-.2-6.5h-.6c-2.4 0-4.2.4-4.2 2.2 0 1.4 1.2 1.8 2.1 1.8 1.5 0 2.5-.8 2.6-.8v-3.2zM101.7 470.9v-7.3c0-1.8-.1-2.7-.6-3.2-.2-.2-.6-.5-1.5-.5-1.2 0-2.3.7-2.5.9v10.1h-3.8v-13.8h3.2v1c.2-.2 1.9-1.4 3.9-1.4 1.5 0 2.7.4 3.6 1.3 1.6 1.6 1.5 3.6 1.5 5.4v7.4h-3.8zM114.8 471.3c-4.3 0-7.1-3.1-7.1-7.2 0-4.3 3.2-7.4 7.3-7.4 2.9 0 4.6 1.4 4.8 1.7l-1.5 2.3c-.2-.1-1.3-1-2.9-1-2.5 0-3.9 2.2-3.9 4.1 0 2.4 1.2 4.3 3.8 4.3 1.8 0 3.2-1 3.3-1l1.5 2.4c-.1.2-2 1.8-5.3 1.8zM133.7 465.3h-9.1c-.1 1 .8 3.1 3.5 3.1 1.7 0 3.1-.7 3.7-1l1.2 2.4c-.1.1-2.2 1.5-5.2 1.5-4.5 0-6.9-3.2-6.9-7.2 0-4.2 2.7-7.4 6.6-7.4 4 0 6.2 2.9 6.2 7.3.1.7 0 1.1 0 1.3zm-6-5.8c-1.7 0-2.8 1.3-3.1 3h5.7c0-.7-.3-3-2.6-3zM138.2 471.1c-1.3 0-2.3-1-2.3-2.3s1-2.3 2.3-2.3 2.3 1 2.3 2.3-1 2.3-2.3 2.3z"/></g></svg>