<svg version="1.1" id="Layer_1" xmlns="http://www.w3.org/2000/svg" x="0" y="0" viewBox="0 0 160 600" xml:space="preserve"><style>.st0{fill:#fff}</style><path class="st0" d="M30.6 265.6c-1.8 1.8-4.1 1.8-6.7 1.8h-5.3v-18.7h6.1c2.2 0 4 .1 5.4 1.5 1.1 1.1 1.4 2.3 1.4 3.6 0 3.2-2.2 3.9-2.6 4 .5.1 3.2.7 3.2 3.9-.1 1.8-.7 3.1-1.5 3.9zm-6.2-13.8h-2.1v4.7h.5c2.1 0 4.6.3 4.6-2.4.1-2.3-1.8-2.3-3-2.3zm3 8.4c-.7-.7-1.5-.8-3.2-.8h-1.8v4.8h2.1c1.9 0 2.4-.3 2.9-.8.4-.4.6-1 .6-1.6 0-.6-.2-1.2-.6-1.6zM43.6 267.4v-1c-.2.2-1.9 1.4-3.9 1.4-1.5 0-2.7-.4-3.6-1.3-1.5-1.5-1.5-3.6-1.5-5.4v-7.4h3.8v7.3c0 1.8.1 2.7.6 3.2.2.2.6.5 1.5.5 1.2 0 2.3-.7 2.5-.9v-10.1h3.8v13.8h-3.2zM56 267.8c-1.2 0-2.6-.3-3.6-1.2-1.2-1.2-1.2-2.5-1.2-4.4v-5.4h-2.4v-3.1h2.4v-3.8H55v3.8h3.9v3.1H55v5.5c0 1.1.1 2.4 1.7 2.4.9 0 1.5-.3 1.7-.3l1 2.6c-.1 0-1.4.8-3.4.8zM26.6 296.5c-1.1 2.7-1.7 4-2.7 5-.6.6-1.8 1.4-4 1.4-2 0-3.3-.8-3.4-.9l1.1-2.7c.2.1 1 .5 2.1.5.8 0 1.4-.3 1.9-.7.7-.7 1.1-2.1 1.4-2.7l-5.8-13.8h4l3.7 9.7 3.4-9.7H32l-5.4 13.9zM39.6 296.8c-4.1 0-6.9-3-6.9-7.2 0-4.3 2.9-7.4 7.1-7.4 4.1 0 6.9 3 6.9 7.1 0 4.5-2.9 7.5-7.1 7.5zm.1-11.5c-1.9 0-3.2 1.7-3.2 4.1 0 2.5 1.4 4.2 3.3 4.2s3.1-1.6 3.1-4.1c.1-2.5-1.3-4.2-3.2-4.2zM58 296.4v-1c-.2.2-1.9 1.4-3.9 1.4-1.5 0-2.7-.4-3.6-1.3-1.5-1.5-1.5-3.6-1.5-5.4v-7.4h3.8v7.3c0 1.8.1 2.7.6 3.2.2.2.6.5 1.5.5 1.2 0 2.3-.7 2.5-.9v-10.1h3.8v13.8H58zM79.2 296.4v-7.3c0-1.8-.1-2.7-.6-3.2-.2-.2-.6-.5-1.5-.5-1.2 0-2.3.7-2.5.9v10.1h-3.8v-13.8H74v1c.2-.2 1.9-1.4 3.9-1.4 1.5 0 2.7.4 3.6 1.3 1.6 1.6 1.5 3.6 1.5 5.4v7.4h-3.8zM98 290.8h-9.1c-.1 1 .8 3.1 3.5 3.1 1.7 0 3.1-.7 3.7-1l1.2 2.4c-.1.1-2.2 1.5-5.2 1.5-4.5 0-6.9-3.2-6.9-7.2 0-4.2 2.7-7.4 6.6-7.4 4 0 6.2 2.9 6.2 7.3.1.7 0 1.1 0 1.3zm-6-5.8c-1.7 0-2.8 1.3-3.1 3h5.7c0-.7-.3-3-2.6-3zM112.7 290.8h-9.1c-.1 1 .8 3.1 3.5 3.1 1.7 0 3.1-.7 3.7-1l1.2 2.4c-.1.1-2.2 1.5-5.2 1.5-4.5 0-6.9-3.2-6.9-7.2 0-4.2 2.7-7.4 6.6-7.4 4 0 6.2 2.9 6.2 7.3.1.7 0 1.1 0 1.3zm-6-5.8c-1.7 0-2.8 1.3-3.1 3h5.7c0-.7-.3-3-2.6-3zM124.6 296.4v-.8c-.1.1-1.4 1.2-3.7 1.2-3.8 0-6.2-2.9-6.2-7.1 0-4.5 3.1-7.5 6.6-7.5 1.5 0 2.6.5 2.8.5v-6.6h3.8v20.3h-3.3zm-.5-10.5c-.1-.1-1-.6-2.1-.6-2 0-3.5 1.4-3.5 4.3 0 2.7 1.5 4.1 3.3 4.1 1.2 0 2.2-.6 2.3-.7v-7.1z"/><g><path class="st0" d="M24.3 325.8c-1.2 0-2.6-.3-3.6-1.2-1.2-1.2-1.2-2.5-1.2-4.4v-5.4h-2.4v-3.1h2.4v-3.8h3.8v3.8h3.9v3.1h-3.9v5.5c0 1.1.1 2.4 1.7 2.4.9 0 1.5-.3 1.7-.3l1 2.6c-.1 0-1.4.8-3.4.8zM35.9 325.8c-4.1 0-6.9-3-6.9-7.2 0-4.3 2.9-7.4 7.1-7.4 4.1 0 6.9 3 6.9 7.1 0 4.5-2.9 7.5-7.1 7.5zm.1-11.4c-1.9 0-3.2 1.7-3.2 4.1 0 2.5 1.4 4.2 3.3 4.2s3.1-1.6 3.1-4.1c.1-2.6-1.3-4.2-3.2-4.2zM57.9 325.8c-1.2 0-2.6-.3-3.6-1.2-1.2-1.2-1.2-2.5-1.2-4.4v-5.4h-2.4v-3.1h2.4v-3.8H57v3.8h3.9v3.1H57v5.5c0 1.1.1 2.4 1.7 2.4.9 0 1.5-.3 1.7-.3l1 2.6c-.1 0-1.4.8-3.5.8zM71.2 325.4v-1c-.3.2-1.7 1.3-3.9 1.3-2.7 0-4.5-1.8-4.5-4.4 0-4.9 6-5 7.7-5h.4c0-.8 0-1.2-.4-1.6-.3-.3-.9-.6-2-.6-1.8 0-3.5.9-3.7 1l-1.3-2.4c.2-.2 2.1-1.5 5.2-1.5 1.2 0 3.2.2 4.5 1.5 1.1 1.1 1.1 2.6 1.1 4.4v8.3h-3.1zm-.3-6.5h-.6c-2.4 0-4.2.4-4.2 2.2 0 1.4 1.2 1.8 2.1 1.8 1.5 0 2.5-.8 2.6-.8v-3.2zM86.3 325.4l-5-6.5v6.5h-3.8v-20.3h3.8v11.5l5-5h4.4l-6.1 6 6.2 7.7h-4.5zM103.7 319.8h-9.1c-.1 1 .8 3.1 3.5 3.1 1.7 0 3.1-.7 3.7-1l1.2 2.4c-.1.1-2.2 1.5-5.2 1.5-4.5 0-6.9-3.2-6.9-7.2 0-4.2 2.7-7.4 6.6-7.4 4 0 6.2 2.9 6.2 7.3.1.7 0 1.1 0 1.3zm-6-5.8c-1.7 0-2.8 1.3-3.1 3h5.7c0-.7-.3-3-2.6-3z"/></g><g><path class="st0" d="M24.6 354.8c-4.1 0-6.9-3-6.9-7.2 0-4.3 2.9-7.4 7.1-7.4 4.1 0 6.9 3 6.9 7.1 0 4.5-2.9 7.5-7.1 7.5zm.1-11.4c-1.9 0-3.2 1.7-3.2 4.1 0 2.5 1.4 4.2 3.3 4.2s3.1-1.6 3.1-4.1c.1-2.6-1.3-4.2-3.2-4.2zM42.6 354.4v-7.3c0-1.8-.1-2.7-.6-3.2-.2-.2-.6-.5-1.5-.5-1.2 0-2.3.7-2.5.9v10.1h-3.8v-13.8h3.2v1c.2-.2 1.9-1.4 3.9-1.4 1.5 0 2.7.4 3.6 1.3 1.6 1.6 1.5 3.6 1.5 5.4v7.4h-3.8zM61.5 348.8h-9.1c-.1 1 .8 3.1 3.5 3.1 1.7 0 3.1-.7 3.7-1l1.2 2.4c-.1.1-2.2 1.5-5.2 1.5-4.5 0-6.9-3.2-6.9-7.2 0-4.2 2.7-7.4 6.6-7.4 4 0 6.2 2.9 6.2 7.3v1.3zm-6.1-5.7c-1.7 0-2.8 1.3-3.1 3H58c0-.8-.3-3-2.6-3zM86.6 354.4v-7.5c0-1.7.1-3.4-1.9-3.4-1.2 0-2.3.8-2.5 1 .1.6.2.7.2 3.1v6.9h-3.8V347c0-1.7.1-3.4-1.9-3.4-1.1 0-2.2.6-2.4.8v10.2h-3.8v-13.8h3.2v1c.3-.2 1.8-1.4 3.9-1.4 2.2 0 3.1 1.2 3.4 1.5.3-.2 2-1.5 4.4-1.5 1.2 0 2.6.3 3.5 1.3 1.7 1.7 1.6 3.9 1.6 7.1v5.8h-3.9zM99.6 354.8c-4.1 0-6.9-3-6.9-7.2 0-4.3 2.9-7.4 7.1-7.4 4.1 0 6.9 3 6.9 7.1.1 4.5-2.8 7.5-7.1 7.5zm.1-11.4c-1.9 0-3.2 1.7-3.2 4.1 0 2.5 1.4 4.2 3.3 4.2 2 0 3.1-1.6 3.1-4.1.1-2.6-1.2-4.2-3.2-4.2zM117.8 343.5c-.1 0-.6-.1-.8-.1-2.3 0-3.4 1.4-3.9 2v9h-3.8v-13.8h3.2v1.7c.1-.2 1.8-2.1 4.6-2.1 1 0 1.5.3 1.6.4l-.9 2.9zM132 348.8h-9c-.1 1 .8 3.1 3.5 3.1 1.7 0 3.1-.7 3.7-1l1.2 2.4c-.1.1-2.2 1.5-5.2 1.5-4.5 0-6.9-3.2-6.9-7.2 0-4.2 2.7-7.4 6.6-7.4 4 0 6.2 2.9 6.2 7.3 0 .7-.1 1.1-.1 1.3zm-6-5.7c-1.7 0-2.8 1.3-3.1 3h5.7c0-.8-.3-3-2.6-3z"/></g><g><path class="st0" d="M30.4 377.8h-9.1c-.1 1 .8 3.1 3.5 3.1 1.7 0 3.1-.7 3.7-1l1.2 2.4c-.1.1-2.2 1.5-5.2 1.5-4.5 0-6.9-3.2-6.9-7.2 0-4.2 2.7-7.4 6.6-7.4 4 0 6.2 2.9 6.2 7.3.1.7 0 1.1 0 1.3zm-6-5.7c-1.7 0-2.8 1.3-3.1 3H27c0-.8-.3-3-2.6-3zM40.6 383.4v-1c-.3.2-1.7 1.3-3.9 1.3-2.7 0-4.5-1.8-4.5-4.4 0-4.9 6-5 7.7-5h.4c0-.8 0-1.2-.4-1.6-.3-.3-.9-.6-2-.6-1.8 0-3.5.9-3.7 1l-1.3-2.4c.2-.2 2.1-1.5 5.2-1.5 1.2 0 3.2.2 4.5 1.5 1.1 1.1 1.1 2.6 1.1 4.4v8.3h-3.1zm-.3-6.5h-.6c-2.4 0-4.2.4-4.2 2.2 0 1.4 1.2 1.8 2.1 1.8 1.5 0 2.5-.8 2.6-.8v-3.2zM51.3 383.8c-3.1 0-5.2-1.4-5.3-1.6l1.3-2.4c.3.1 1.8 1.1 3.6 1.1 1.7 0 2.1-.7 2.1-1.3 0-.9-.8-1.1-3-2-1.2-.5-3.4-1.4-3.4-4s2.2-4.3 5.4-4.3c3 0 4.6 1.2 4.6 1.2l-1.2 2.3c-.1-.1-1.7-.9-3.1-.9-1.4 0-1.8.7-1.8 1.3 0 .9 1 1.2 2.5 1.8 1.9.8 3.9 1.6 3.9 4.4-.2 2.7-2.3 4.4-5.6 4.4zM67.6 383.6c-1.1 2.7-1.7 4-2.7 5-.6.6-1.8 1.4-4 1.4-2 0-3.3-.8-3.4-.9l1.1-2.7c.2.1 1 .5 2.1.5.8 0 1.4-.3 1.9-.7.7-.7 1.1-2.1 1.4-2.7l-5.8-13.8h4l3.7 9.7 3.4-9.7H73l-5.4 13.9zM86.1 383.8c-3.1 0-5.2-1.4-5.3-1.6l1.3-2.4c.3.1 1.8 1.1 3.6 1.1 1.7 0 2.1-.7 2.1-1.3 0-.9-.8-1.1-3-2-1.2-.5-3.4-1.4-3.4-4s2.2-4.3 5.4-4.3c3 0 4.6 1.2 4.6 1.2l-1.2 2.3c-.1-.1-1.7-.9-3.1-.9-1.4 0-1.8.7-1.8 1.3 0 .9 1 1.2 2.5 1.8 1.9.8 3.9 1.6 3.9 4.4-.2 2.7-2.3 4.4-5.6 4.4zM100.2 383.8c-1.2 0-2.6-.3-3.6-1.2-1.2-1.2-1.2-2.5-1.2-4.4v-5.4H93v-3.1h2.4v-3.8h3.8v3.8h3.9v3.1h-3.9v5.5c0 1.1.1 2.4 1.7 2.4.9 0 1.5-.3 1.7-.3l1 2.6s-1.4.8-3.4.8zM117.8 377.8h-9.1c-.1 1 .8 3.1 3.5 3.1 1.7 0 3.1-.7 3.7-1l1.2 2.4c-.1.1-2.2 1.5-5.2 1.5-4.5 0-6.9-3.2-6.9-7.2 0-4.2 2.7-7.4 6.6-7.4 4 0 6.2 2.9 6.2 7.3v1.3zm-6.1-5.7c-1.7 0-2.8 1.3-3.1 3h5.7c0-.8-.2-3-2.6-3zM127 383.8c-1.5 0-2.6-.5-2.8-.5v6.2h-3.8v-19.9h3.3v.8c.1-.1 1.4-1.2 3.7-1.2 3.8 0 6.2 2.9 6.2 7.1 0 4.5-3.1 7.5-6.6 7.5zm-.5-11.4c-1.2 0-2.2.6-2.3.7v7.1c.1.1 1 .6 2.1.6 2 0 3.5-1.4 3.5-4.3 0-2.7-1.5-4.1-3.3-4.1zM137.9 383.6c-1.3 0-2.3-1-2.3-2.3s1-2.3 2.3-2.3 2.3 1 2.3 2.3-1 2.3-2.3 2.3z"/></g></svg>