<svg xmlns="http://www.w3.org/2000/svg" viewBox="0 0 160 600"><path d="M51.9 150.2c-.2-.9-.3-1.9-.3-2.9 0-1.1.1-2.2.2-3.4l.6-3.6c.3-1.2.6-2.5.9-3.7s.7-2.5 1-3.6c.2-.5.4-.9.7-1 .3-.1.8-.1 1.4.1.6.2 1.2.4 1.7.6.6.3 1.1.6 1.6.9 1.1.7 1.5 1.6 1.1 2.8-.3 1-.7 2-1 3.1-.4 1.1-.7 2.2-1 3.4-.3 1.1-.6 2.3-.8 3.3-.2 1.1-.3 2.1-.4 2.9-.1.9 0 1.6.2 2.2.2.6.4.9.9 1 .5.1 1.1-.1 1.6-.7s1-1.4 1.5-2.5.9-2.3 1.4-3.7c.4-1.4.8-2.9 1.2-4.4.4-1.5.7-3 1-4.4.3-1.5.6-2.8.8-3.9 0-.6.3-.9.7-1 .4-.1.9-.1 1.5 0s1.2.4 1.8.7c.7.3 1.2.6 1.8.9.3.2.5.3.6.5.2.1.3.3.3.4.1.1.1.3.1.5s-.1.4-.1.6c-.6 2.6-1.2 5-1.8 7.2-.6 2.2-1.3 4.1-1.9 5.8-.7 1.7-1.4 3.1-2.2 4.3-.8 1.1-1.7 2-2.7 2.5-.7.3-1.4.5-2.1.6-.7.1-1.5.2-2.4.1-1.8-.1-3.3-.5-4.4-1-.5-.3-1-.6-1.4-.9-.4-.3-.8-.8-1.1-1.3-.5-.7-.8-1.5-1-2.4zM92.4 139.6c-.6 1.7-1.1 3.5-1.7 5.3s-1.1 3.6-1.6 5.4c-.5 1.8-1 3.4-1.4 5 0 .3-.1.4-.2.5-.2.1-.4.1-.6.1-.3 0-.6-.1-.9-.1-.4-.1-.7-.2-1.1-.3-.8-.2-1.5-.5-1.9-.8-.5-.3-.6-.8-.4-1.5.1-.7.2-1.4.4-2.3.2-.9.3-1.8.6-2.9-.8.1-1.7.2-2.5.3-.8.1-1.6.2-2.5.3-.3 1.3-.6 2.5-.8 3.6-.2 1.1-.4 2.1-.5 3-.1.3-.2.5-.4.6-.2.1-.5.1-1 0s-1-.3-1.5-.4c-.5-.1-1-.3-1.4-.5-.5-.2-.8-.4-1-.7-.2-.3-.2-.6-.1-1.1.3-1.3.6-2.8.8-4.4.3-1.7.5-3.5.8-5.3.2-1.8.5-3.7.7-5.5.2-1.8.5-3.5.7-5.1.2-.6.4-.9.7-1 .3-.1.7-.1 1.3.1.6.2 1.3.4 2.1.7.7.3 1.4.6 1.9.9.3.2.5.3.7.5.2.1.3.3.4.4.1.1.1.3.1.5s-.1.4-.1.6c-.3 1-.7 2.3-1 3.7-.4 1.4-.7 2.9-1.1 4.6.8-.1 1.7-.2 2.5-.2.8-.1 1.6-.1 2.4-.2.5-2 1-3.9 1.5-5.8s.9-3.7 1.4-5.2c.2-.6.4-.9.8-1s.8 0 1.4.1c.6.1 1.2.4 1.8.6l1.8.9c.5.4.8.7.9.9.1.3.1.6-.1 1.1-.9 1.3-1.4 2.8-1.9 4.6zM120.2 135.3c.4.6.6 1.4.8 2.2.2 1.3.3 2.8.2 4.4-.1 1.6-.4 3.1-.9 4.7s-1.1 3-1.9 4.4-1.8 2.6-3 3.5c-.8.6-1.6 1-2.5 1.1-.9.2-1.9.2-3 .1-.8-.1-1.5-.2-2.3-.3-.8-.2-1.5-.4-2.2-.7-.5-.3-1.1-.6-1.6-1s-.9-.9-1.2-1.4c-.5-.8-.8-1.8-1.1-2.9s-.3-2.2-.3-3.4.2-2.4.5-3.6c.3-1.2.7-2.4 1.2-3.6.5-1.2 1.2-2.3 2-3.3s1.7-2 2.8-2.8c.7-.5 1.5-.9 2.5-1.1 1-.3 1.9-.3 2.8-.2 1.1.2 2.2.4 3.3.8 1 .3 1.9.8 2.6 1.3.4.6.9 1.2 1.3 1.8zm-8 1.4c-.5.5-1 1.1-1.6 1.8-.5.8-1 1.6-1.5 2.6-.5.9-.8 1.9-1.1 2.7-.3.9-.5 1.8-.6 2.7s-.2 1.8-.1 2.6.2 1.5.4 2.1c.2.6.6.9 1.1 1 .4.1.9 0 1.3-.2.5-.3.9-.7 1.4-1.4s.9-1.4 1.3-2.3c.4-.9.8-1.9 1.1-2.9.3-.9.5-1.8.6-2.9.2-1 .2-2 .2-2.9 0-.9-.1-1.7-.3-2.4-.2-.7-.5-1-.9-1.1-.3 0-.7.2-1.3.6zM142.2 139.6c-.6 1.7-1.1 3.5-1.7 5.3-.6 1.8-1.1 3.6-1.6 5.4-.5 1.8-1 3.4-1.4 5 0 .3-.1.4-.2.5-.2.1-.4.1-.6.1-.3 0-.6-.1-.9-.1-.4-.1-.7-.2-1.1-.3-.8-.2-1.5-.5-1.9-.8-.5-.3-.6-.8-.4-1.5.1-.7.2-1.4.4-2.3.2-.9.3-1.8.6-2.9-.8.1-1.7.2-2.5.3-.8.1-1.6.2-2.5.3-.3 1.3-.6 2.5-.8 3.6-.2 1.1-.4 2.1-.5 3-.1.3-.2.5-.4.6-.2.1-.5.1-1 0s-1-.3-1.5-.4c-.5-.1-1-.3-1.4-.5-.5-.2-.8-.4-1-.7-.2-.3-.2-.6-.1-1.1.3-1.3.6-2.8.8-4.4.3-1.7.5-3.5.8-5.3s.5-3.7.7-5.5c.2-1.8.5-3.5.7-5.1.2-.6.4-.9.7-1s.7-.1 1.3.1c.6.2 1.3.4 2.1.7.7.3 1.4.6 1.9.9.3.2.5.3.7.5.2.1.3.3.4.4.1.1.1.3.1.5s-.1.4-.1.6c-.3 1-.7 2.3-1 3.7-.4 1.4-.7 2.9-1.1 4.6.8-.1 1.7-.2 2.5-.2s1.6-.1 2.4-.2c.5-2 1-3.9 1.5-5.8s.9-3.7 1.4-5.2c.2-.6.4-.9.8-1 .3-.1.8 0 1.4.1.6.1 1.2.4 1.8.6l1.8.9c.5.4.8.7.9.9.1.3.1.6-.1 1.1-.8 1.3-1.4 2.8-1.9 4.6z"/></svg>