<svg version="1.1" id="Layer_1" xmlns="http://www.w3.org/2000/svg" x="0" y="0" viewBox="0 0 160 600" xml:space="preserve"><style>.st0{fill:#349946}.st1{fill:#231f20}</style><path class="st0" d="M15.9 585h-1.6l-.5-1.5h-3.1l-.5 1.5H8.5l2.8-7.3h1.1c.4 0 .6.1.7.4.1.3 1.4 3.5 1.4 3.5H13l-.9-2.5-1.1 3.1h3.2c.4 0 .7.1.8.5l.9 2.3zM29.7 585h-1.6l-.5-1.5h-3.1L24 585h-1.6l2.8-7.3h1.1c.4 0 .6.1.7.4.1.3 1.4 3.5 1.4 3.5h-1.5l-.9-2.5-1.1 3.1H28c.4 0 .7.1.8.5l.9 2.3zM16.4 577.7h2.9c2.2 0 3.3 1.2 3.3 3.7 0 1.4-.4 2.4-1.2 3-.7.6-1.5.7-2.6.7h-2.5v-7.4zm2.6 6c1.4 0 2-.7 2-2.3 0-1.6-.6-2.4-1.8-2.4h-1.4v4.7H19z"/><path class="st1" d="M42.1 585h-1.2l-.5-5.2-1.8 5.2h-1l-1.8-5.2-.4 5.2h-1.1l.7-6.9h1.3l1.9 5.3 1.8-5.3h1.3l.8 6.9zM47.7 582.4v.4h-3.4c0 .4.1.7.3.9.3.3.6.5 1.1.5.4 0 .9-.1 1.4-.4l.4.7c-.5.4-1.1.5-1.9.5-.8 0-1.4-.3-1.8-.8-.4-.5-.6-1.1-.6-1.9 0-.8.2-1.4.7-2 .4-.5 1-.8 1.7-.8s1.2.2 1.6.7c.4.7.5 1.4.5 2.2zm-1-.5c0-.3-.1-.6-.2-.8-.2-.3-.5-.5-.9-.5s-.6.1-.9.4c-.2.2-.4.6-.4.9h2.4zM56 585h-1.1v-2.9c0-.6-.1-1-.2-1.1s-.3-.2-.6-.2c-.4 0-.7.1-1.1.4 0 .1.1.5.1 1.2v2.7H52v-2.8c0-.7-.1-1.1-.2-1.2-.1-.1-.3-.2-.6-.2-.4 0-.7.1-1.1.4v3.9H49v-5.1h1v.4c.5-.3 1-.5 1.5-.5s.9.2 1.2.6c.6-.4 1.1-.6 1.7-.6.5 0 1 .2 1.3.5.2.2.4.6.5.9 0 .2.1.7.1 1.3v2.3zM61.9 582.3c0 .8-.2 1.5-.7 2-.5.5-1.1.8-1.9.8-.6 0-1.2-.1-2-.4v-7.3h1.1v2.7c.4-.3.8-.4 1.3-.4.6 0 1.2.2 1.6.7.4.5.6 1.1.6 1.9zm-1.1 0c0-.5-.1-.9-.4-1.2-.2-.3-.5-.4-.9-.4s-.7.1-1.1.4v3c.3.1.6.1.8.1.5 0 .8-.2 1.1-.5.3-.4.5-.8.5-1.4zM67.4 582.4v.4H64c0 .4.1.7.3.9.3.3.6.5 1.1.5.4 0 .9-.1 1.4-.4l.4.7c-.5.4-1.1.5-1.9.5-.8 0-1.4-.3-1.8-.8-.4-.5-.6-1.1-.6-1.9 0-.8.2-1.4.7-2 .4-.5 1-.8 1.7-.8s1.2.2 1.6.7c.3.7.5 1.4.5 2.2zm-1.1-.5c0-.3-.1-.6-.2-.8-.2-.3-.5-.5-.9-.5s-.6.1-.9.4c-.2.2-.4.6-.4.9h2.4zM71.6 579.9l-.3.9H71c-.6 0-1.1.3-1.5.8v3.5h-1.1V580h1v.6c.1-.1.2-.3.5-.4.4-.2.8-.4 1.2-.4.2 0 .4 0 .5.1zM75.8 583.5c0 .5-.2.9-.5 1.2-.4.3-.8.4-1.4.4-.5 0-.9-.1-1.3-.2-.3-.1-.4-.2-.5-.3l.4-.7c.5.3.9.4 1.3.4.3 0 .5-.1.7-.2.2-.1.2-.3.2-.4s-.1-.3-.3-.4c-.1-.1-.4-.2-.8-.4s-.7-.3-.9-.5c-.3-.3-.5-.6-.5-1 0-.5.2-.8.5-1.1s.8-.4 1.4-.4c.7 0 1.3.2 1.6.5l-.4.7c-.4-.2-.8-.3-1.2-.3-.5 0-.8.2-.8.6 0 .2.1.3.3.4.1.1.3.2.6.3.5.2.9.4 1 .5.4.1.6.5.6.9zM80.8 585h-1.2v-7h1.2v7zM86.5 585h-1.1v-2.8c0-.7-.1-1.1-.2-1.2-.2-.2-.4-.2-.6-.2-.4 0-.7.1-1.1.4v3.9h-1.1V580h1v.4c.5-.3 1-.5 1.5-.5s1 .2 1.3.5c.2.2.4.5.5.9 0 .2.1.6.1 1v2.7zM91.2 583.5c0 .5-.2.9-.5 1.2-.4.3-.8.4-1.4.4-.5 0-.9-.1-1.3-.2-.3-.1-.4-.2-.5-.3l.4-.7c.5.3.9.4 1.3.4.3 0 .5-.1.7-.2.2-.1.2-.3.2-.4s-.1-.3-.3-.4c-.1-.1-.4-.2-.8-.4s-.7-.3-.9-.5c-.3-.3-.5-.6-.5-1 0-.5.2-.8.5-1.1.3-.3.8-.4 1.4-.4.7 0 1.3.2 1.6.5l-.4.7c-.4-.2-.8-.3-1.2-.3-.5 0-.8.2-.8.6 0 .2.1.3.3.4.1.1.3.2.6.3.5.2.9.4 1 .5.4.1.6.5.6.9zM96.6 585h-1v-.4c-.5.3-1 .5-1.5.5s-1-.2-1.3-.5c-.2-.2-.4-.5-.5-.9 0-.2-.1-.6-.1-1v-2.8h1.1v3.5c0 .3.1.5.3.6s.3.2.6.2.7-.1 1.1-.4V580h1.1v5zM101.1 579.9l-.3.9h-.3c-.6 0-1.1.3-1.5.8v3.5h-1.1V580h1v.6c.1-.1.2-.3.5-.4.4-.2.8-.4 1.2-.4.2 0 .3 0 .5.1z"/><g><path class="st1" d="M105.6 585h-1v-.4c-.5.3-1 .5-1.5.5s-.9-.1-1.2-.4c-.3-.3-.4-.7-.4-1.2 0-1.2 1-1.8 2.9-1.8h.2v-.2c0-.3-.1-.5-.2-.6-.2-.2-.4-.2-.8-.2s-.9.1-1.4.4l-.4-.7c.1-.1.3-.2.5-.3.4-.2.8-.2 1.3-.2.7 0 1.2.2 1.6.5.2.2.3.4.3.7 0 .2.1.5.1.9v3zm-1.1-1.2v-1.3h-.2c-.8 0-1.3.1-1.6.4-.1.1-.2.3-.2.5s.1.4.3.6c.2.1.4.2.6.2.3 0 .7-.1 1.1-.4zM111.1 585H110v-2.8c0-.7-.1-1.1-.2-1.2-.2-.2-.4-.2-.6-.2-.4 0-.7.1-1.1.4v3.9H107V580h1v.4c.5-.3 1-.5 1.5-.5s1 .2 1.3.5c.2.2.4.5.5.9 0 .2.1.6.1 1v2.7zM116.5 584.5c-.1.1-.2.2-.5.3-.4.2-.9.3-1.3.3-.8 0-1.4-.2-1.8-.7s-.7-1.1-.7-1.9c0-.8.2-1.5.7-2 .5-.5 1.1-.8 1.9-.8.4 0 .8.1 1.2.3.2.1.4.2.5.3l-.5.7c-.4-.2-.7-.4-1.1-.4-.5 0-.9.2-1.2.5-.3.3-.4.7-.4 1.2s.1.9.4 1.2c.3.3.6.5 1.1.5.4 0 .8-.1 1.3-.4l.4.9z"/></g><g><path class="st1" d="M121.6 582.4v.4h-3.4c0 .4.1.7.3.9.3.3.6.5 1.1.5.4 0 .9-.1 1.4-.4l.4.7c-.5.4-1.1.5-1.9.5-.8 0-1.4-.3-1.8-.8-.4-.5-.6-1.1-.6-1.9 0-.8.2-1.4.7-2 .4-.5 1-.8 1.7-.8s1.2.2 1.6.7c.3.7.5 1.4.5 2.2zm-1.1-.5c0-.3-.1-.6-.2-.8-.2-.3-.5-.5-.9-.5s-.6.1-.9.4-.4.6-.4.9h2.4zM129.9 580.1c0 .6-.2 1.2-.6 1.5-.3.3-.6.5-1.1.6-.3.1-.7.1-1.3.1h-.5v2.6h-1.2V578h1.8c.6 0 1 0 1.3.1.4.1.7.2 1 .5.5.4.6.9.6 1.5zm-1.2 0c0-.4-.1-.7-.3-.9-.2-.2-.6-.3-1.3-.3h-.7v2.4h.5c.8 0 1.2-.1 1.4-.3s.4-.5.4-.9zM132.3 585h-1.1v-7.5h1.1v7.5zM137.5 585h-1v-.4c-.5.3-1 .5-1.5.5s-.9-.1-1.2-.4c-.3-.3-.4-.7-.4-1.2 0-1.2 1-1.8 2.9-1.8h.2v-.2c0-.3-.1-.5-.2-.6-.2-.2-.4-.2-.8-.2s-.9.1-1.4.4l-.4-.7c.1-.1.3-.2.5-.3.4-.2.8-.2 1.3-.2.7 0 1.2.2 1.6.5.2.2.3.4.3.7 0 .2.1.5.1.9v3zm-1.1-1.2v-1.3h-.2c-.8 0-1.3.1-1.6.4-.1.1-.2.3-.2.5s.1.4.3.6c.2.1.4.2.6.2.3 0 .7-.1 1.1-.4zM143 585h-1.1v-2.8c0-.7-.1-1.1-.2-1.2-.2-.2-.4-.2-.6-.2-.4 0-.7.1-1.1.4v3.9h-1.1V580h1v.4c.5-.3 1-.5 1.5-.5s1 .2 1.3.5c.2.2.4.5.5.9 0 .2.1.6.1 1v2.7zM147.7 583.5c0 .5-.2.9-.5 1.2-.4.3-.8.4-1.4.4-.5 0-.9-.1-1.3-.2-.3-.1-.4-.2-.5-.3l.4-.7c.5.3.9.4 1.3.4.3 0 .5-.1.7-.2.2-.1.2-.3.2-.4s-.1-.3-.3-.4c-.1-.1-.4-.2-.8-.4s-.7-.3-.9-.5c-.3-.3-.5-.6-.5-1 0-.5.2-.8.5-1.1.3-.3.8-.4 1.4-.4.7 0 1.3.2 1.6.5l-.4.7c-.4-.2-.8-.3-1.2-.3-.5 0-.8.2-.8.6 0 .2.1.3.3.4.1.1.3.2.6.3.5.2.9.4 1 .5.4.1.6.5.6.9z"/></g><path class="st0" d="M15.9 19.7h-1.6l-.5-1.5h-3.1l-.5 1.5H8.5l2.8-7.3h1.1c.4 0 .6.1.7.4.1.3 1.4 3.5 1.4 3.5H13l-.9-2.5-1 3.2h3.2c.4 0 .7.1.8.5l.8 2.2zM29.7 19.7h-1.6l-.5-1.5h-3.1l-.5 1.5h-1.6l2.8-7.3h1.1c.4 0 .6.1.7.4.1.3 1.4 3.5 1.4 3.5h-1.5l-.9-2.4-1.1 3.1H28c.4 0 .7.1.8.5l.9 2.2zM16.4 12.4h2.9c2.2 0 3.3 1.2 3.3 3.7 0 1.4-.4 2.4-1.2 3-.7.6-1.5.7-2.6.7h-2.5v-7.4zm2.6 6c1.4 0 2-.7 2-2.3 0-1.6-.6-2.4-1.8-2.4h-1.4v4.7H19z"/><g><path class="st1" d="M42.1 19.6h-1.2l-.5-5.2-1.8 5.2h-1l-1.8-5.2-.4 5.2h-1.1l.7-6.9h1.3l1.9 5.3 1.8-5.3h1.3l.8 6.9zM47.7 17.1v.4h-3.4c0 .4.1.7.3.9.3.3.6.5 1.1.5.4 0 .9-.1 1.4-.4l.4.7c-.5.4-1.1.5-1.9.5-.8 0-1.4-.3-1.8-.8-.4-.5-.6-1.1-.6-1.9 0-.8.2-1.4.7-2 .4-.5 1-.8 1.7-.8s1.2.2 1.6.7c.4.7.5 1.3.5 2.2zm-1-.5c0-.3-.1-.6-.2-.8-.2-.3-.5-.5-.9-.5s-.6.1-.9.4c-.2.2-.4.6-.4.9h2.4zM56 19.6h-1.1v-2.9c0-.6-.1-1-.2-1.1s-.3-.2-.6-.2c-.4 0-.7.1-1.1.4 0 .1.1.5.1 1.2v2.7H52v-2.8c0-.7-.1-1.1-.2-1.2-.1-.1-.3-.2-.6-.2-.4 0-.7.1-1.1.4v3.9H49v-5.1h1v.3c.5-.3 1-.5 1.5-.5s.9.2 1.2.6c.6-.4 1.1-.6 1.7-.6.5 0 1 .2 1.3.5.2.2.4.6.5.9 0 .2.1.7.1 1.3v2.4zM61.9 17c0 .8-.2 1.5-.7 2-.5.5-1.1.8-1.9.8-.6 0-1.2-.1-2-.4v-7.3h1.1v2.7c.4-.3.8-.4 1.3-.4.6 0 1.2.2 1.6.7.4.5.6 1.1.6 1.9zm-1.1 0c0-.5-.1-.9-.4-1.2-.2-.3-.5-.4-.9-.4s-.7.1-1.1.4v3c.3.1.6.1.8.1.5 0 .8-.2 1.1-.5.3-.4.5-.8.5-1.4zM67.4 17.1v.4H64c0 .4.1.7.3.9.3.3.6.5 1.1.5.4 0 .9-.1 1.4-.4l.4.7c-.5.4-1.1.5-1.9.5-.8 0-1.4-.3-1.8-.8-.4-.5-.6-1.1-.6-1.9 0-.8.2-1.4.7-2 .4-.5 1-.8 1.7-.8s1.2.2 1.6.7c.3.7.5 1.3.5 2.2zm-1.1-.5c0-.3-.1-.6-.2-.8-.2-.3-.5-.5-.9-.5s-.6.1-.9.4c-.2.2-.4.6-.4.9h2.4zM71.6 14.6l-.3.9H71c-.6 0-1.1.3-1.5.8v3.5h-1.1v-5.1h1v.6c.1-.1.2-.3.5-.4.4-.2.8-.4 1.2-.4.2-.1.4 0 .5.1z"/></g><g><path class="st1" d="M75.8 18.2c0 .5-.2.9-.5 1.2-.4.3-.8.4-1.4.4-.5 0-.9-.1-1.3-.2-.3-.1-.4-.2-.5-.3l.4-.7c.5.3.9.4 1.3.4.3 0 .5-.1.7-.2.2-.1.2-.3.2-.4 0-.2-.1-.3-.3-.4-.1-.1-.4-.2-.8-.4s-.7-.3-.9-.5c-.3-.3-.5-.6-.5-1 0-.5.2-.8.5-1.1s.8-.4 1.4-.4c.7 0 1.3.2 1.6.5l-.4.7c-.4-.2-.8-.3-1.2-.3-.5 0-.8.2-.8.6 0 .2.1.3.3.4.1.1.3.2.6.3.5.2.9.4 1 .5.4.1.6.5.6.9zM80.8 19.6h-1.2v-6.9h1.2v6.9zM86.5 19.6h-1.1v-2.8c0-.7-.1-1.1-.2-1.2-.2-.2-.4-.2-.6-.2-.4 0-.7.1-1.1.4v3.9h-1.1v-5.1h1v.4c.5-.3 1-.5 1.5-.5s1 .2 1.3.5c.2.2.4.5.5.9 0 .2.1.6.1 1v2.7zM91.2 18.2c0 .5-.2.9-.5 1.2-.4.3-.8.4-1.4.4-.5 0-.9-.1-1.3-.2-.3-.1-.4-.2-.5-.3l.4-.7c.5.3.9.4 1.3.4.3 0 .5-.1.7-.2.2-.1.2-.3.2-.4 0-.2-.1-.3-.3-.4-.1-.1-.4-.2-.8-.4s-.7-.3-.9-.5c-.3-.3-.5-.6-.5-1 0-.5.2-.8.5-1.1.3-.3.8-.4 1.4-.4.7 0 1.3.2 1.6.5l-.4.7c-.4-.2-.8-.3-1.2-.3-.5 0-.8.2-.8.6 0 .2.1.3.3.4.1.1.3.2.6.3.5.2.9.4 1 .5.4.1.6.5.6.9zM96.6 19.6h-1v-.4c-.5.3-1 .5-1.5.5s-1-.2-1.3-.5c-.2-.2-.4-.5-.5-.9 0-.2-.1-.6-.1-1v-2.8h1.1V18c0 .3.1.5.3.6s.3.2.6.2.7-.1 1.1-.4v-3.8h1.1v5zM101.1 14.6l-.3.9h-.3c-.6 0-1.1.3-1.5.8v3.5h-1.1v-5.1h1v.6c.1-.1.2-.3.5-.4.4-.2.8-.4 1.2-.4.2-.1.3 0 .5.1z"/></g><g><path class="st1" d="M105.6 19.6h-1v-.4c-.5.3-1 .5-1.5.5s-.9-.1-1.2-.4c-.3-.3-.4-.7-.4-1.2 0-1.2 1-1.8 2.9-1.8h.2v-.2c0-.3-.1-.5-.2-.6-.2-.2-.4-.2-.8-.2s-.9.1-1.4.4l-.4-.7c.1-.1.3-.2.5-.3.4-.2.8-.2 1.3-.2.7 0 1.2.2 1.6.5.2.2.3.4.3.7 0 .2.1.5.1.9v3zm-1.1-1.1v-1.3h-.2c-.8 0-1.3.1-1.6.4-.1.1-.2.3-.2.5s.1.4.3.6c.2.1.4.2.6.2.3 0 .7-.1 1.1-.4zM111.1 19.6H110v-2.8c0-.7-.1-1.1-.2-1.2-.2-.2-.4-.2-.6-.2-.4 0-.7.1-1.1.4v3.9H107v-5.1h1v.4c.5-.3 1-.5 1.5-.5s1 .2 1.3.5c.2.2.4.5.5.9 0 .2.1.6.1 1v2.7zM116.5 19.2c-.1.1-.2.2-.5.3-.4.2-.9.3-1.3.3-.8 0-1.4-.2-1.8-.7-.5-.5-.7-1.1-.7-1.9 0-.8.2-1.5.7-2 .5-.5 1.1-.8 1.9-.8.4 0 .8.1 1.2.3.2.1.4.2.5.3l-.5.7c-.4-.2-.7-.4-1.1-.4-.5 0-.9.2-1.2.5-.3.3-.4.7-.4 1.2s.1.9.4 1.2c.3.3.6.5 1.1.5.4 0 .8-.1 1.3-.4l.4.9z"/></g><g><path class="st1" d="M121.6 17.1v.4h-3.4c0 .4.1.7.3.9.3.3.6.5 1.1.5.4 0 .9-.1 1.4-.4l.4.7c-.5.4-1.1.5-1.9.5-.8 0-1.4-.3-1.8-.8-.4-.5-.6-1.1-.6-1.9 0-.8.2-1.4.7-2 .4-.5 1-.8 1.7-.8s1.2.2 1.6.7c.3.7.5 1.3.5 2.2zm-1.1-.5c0-.3-.1-.6-.2-.8-.2-.3-.5-.5-.9-.5s-.6.1-.9.4c-.2.2-.4.6-.4.9h2.4zM129.9 14.8c0 .6-.2 1.2-.6 1.5-.3.3-.6.5-1.1.6-.2.1-.6.1-1.2.1h-.5v2.6h-1.2v-6.9h1.8c.6 0 1 0 1.3.1.4.1.7.2 1 .5.4.4.5.9.5 1.5zm-1.2 0c0-.4-.1-.7-.3-.9-.2-.2-.6-.3-1.3-.3h-.7V16h.5c.8 0 1.2-.1 1.4-.3s.4-.5.4-.9zM132.3 19.6h-1.1v-7.5h1.1v7.5zM137.5 19.6h-1v-.4c-.5.3-1 .5-1.5.5s-.9-.1-1.2-.4c-.3-.3-.4-.7-.4-1.2 0-1.2 1-1.8 2.9-1.8h.2v-.2c0-.3-.1-.5-.2-.6-.2-.2-.4-.2-.8-.2s-.9.1-1.4.4l-.4-.7c.1-.1.3-.2.5-.3.4-.2.8-.2 1.3-.2.7 0 1.2.2 1.6.5.2.2.3.4.3.7 0 .2.1.5.1.9v3zm-1.1-1.1v-1.3h-.2c-.8 0-1.3.1-1.6.4-.1.1-.2.3-.2.5s.1.4.3.6c.2.1.4.2.6.2.3 0 .7-.1 1.1-.4zM143 19.6h-1.1v-2.8c0-.7-.1-1.1-.2-1.2-.2-.2-.4-.2-.6-.2-.4 0-.7.1-1.1.4v3.9h-1.1v-5.1h1v.4c.5-.3 1-.5 1.5-.5s1 .2 1.3.5c.2.2.4.5.5.9 0 .2.1.6.1 1v2.7zM147.7 18.2c0 .5-.2.9-.5 1.2-.4.3-.8.4-1.4.4-.5 0-.9-.1-1.3-.2-.3-.1-.4-.2-.5-.3l.4-.7c.5.3.9.4 1.3.4.3 0 .5-.1.7-.2.2-.1.2-.3.2-.4 0-.2-.1-.3-.3-.4-.1-.1-.4-.2-.8-.4s-.7-.3-.9-.5c-.3-.3-.5-.6-.5-1 0-.5.2-.8.5-1.1.3-.3.8-.4 1.4-.4.7 0 1.3.2 1.6.5l-.4.7c-.4-.2-.8-.3-1.2-.3-.5 0-.8.2-.8.6 0 .2.1.3.3.4.1.1.3.2.6.3.5.2.9.4 1 .5.4.1.6.5.6.9z"/></g></svg>