<svg version="1.1" id="Layer_1" xmlns="http://www.w3.org/2000/svg" x="0" y="0" viewBox="0 0 320 50" xml:space="preserve"><style>.st0{fill:#fff}</style><path class="st0" d="M21.6 24c-1 1-2.4 1-3.9 1h-3V14.4h3.5c1.2 0 2.3.1 3.1.9.6.6.8 1.3.8 2 0 1.9-1.3 2.2-1.5 2.3.3.1 1.8.4 1.8 2.3 0 .9-.4 1.6-.8 2.1zM18 16.1h-1.2v2.7h.3c1.2 0 2.7.2 2.7-1.4 0-1.3-1-1.3-1.8-1.3zm1.8 4.8c-.4-.4-.8-.4-1.9-.4h-1v2.8h1.2c1.1 0 1.4-.2 1.7-.5.2-.2.4-.6.4-.9-.1-.4-.2-.7-.4-1zM29.1 25v-.6c-.1.1-1.1.8-2.2.8-.8 0-1.5-.3-2-.8-.9-.9-.8-2.1-.8-3.1v-4.2h2.2v4.1c0 1 0 1.5.3 1.8.1.1.3.3.8.3.7 0 1.3-.4 1.5-.5V17h2.2v8h-2zM36.2 25.3c-.7 0-1.5-.2-2-.7-.7-.7-.7-1.4-.7-2.5V19h-1.4v-1.8h1.4V15h2.2v2.2h2.2V19h-2.2v3.2c0 .6 0 1.3 1 1.3.5 0 .8-.1 1-.2l.5 1.5c-.1 0-.9.5-2 .5zM48 25.1c-.6 1.6-1 2.3-1.5 2.8-.3.3-1 .8-2.3.8-1.2 0-1.9-.5-2-.5l.6-1.5c.1 0 .6.3 1.2.3.5 0 .8-.1 1.1-.4.4-.4.7-1.2.8-1.6l-3.3-7.9h2.3l2.1 5.5 2-5.5h2.1l-3.1 8zM55.5 25.3c-2.3 0-3.9-1.7-3.9-4.1 0-2.4 1.7-4.2 4.1-4.2 2.3 0 3.9 1.7 3.9 4.1 0 2.4-1.7 4.2-4.1 4.2zm0-6.6c-1.1 0-1.8.9-1.8 2.4 0 1.4.8 2.4 1.9 2.4 1.1 0 1.8-.9 1.8-2.4 0-1.4-.8-2.4-1.9-2.4zM66.1 25v-.6c-.1.1-1.1.8-2.2.8-.8 0-1.5-.3-2-.8-.9-.9-.8-2.1-.8-3.1v-4.2h2.2v4.1c0 1 0 1.5.3 1.8.1.1.3.3.8.3.7 0 1.3-.4 1.5-.5V17h2.2v8h-2zM78.2 25v-4.1c0-1 0-1.5-.3-1.8-.1-.1-.3-.3-.8-.3-.7 0-1.3.4-1.5.5V25h-2.2v-7.9h1.8v.6c.1-.1 1.1-.8 2.2-.8.8 0 1.5.3 2 .8.9.9.8 2.1.8 3.1V25h-2zM89 21.8h-5.2c0 .6.4 1.8 2 1.8 1 0 1.8-.4 2.1-.6l.7 1.4s-1.2.9-3 .9c-2.6 0-3.9-1.8-3.9-4.1 0-2.4 1.5-4.2 3.8-4.2s3.5 1.6 3.5 4.2v.6zm-3.5-3.3c-1 0-1.6.7-1.7 1.7H87c0-.4-.2-1.7-1.5-1.7zM97.4 21.8h-5.2c0 .6.4 1.8 2 1.8 1 0 1.8-.4 2.1-.6l.7 1.4s-1.2.9-3 .9c-2.6 0-3.9-1.8-3.9-4.1 0-2.4 1.5-4.2 3.8-4.2s3.5 1.6 3.5 4.2c.1.3 0 .5 0 .6zM94 18.5c-1 0-1.6.7-1.7 1.7h3.2c0-.4-.2-1.7-1.5-1.7zM104.3 25v-.5c-.1.1-.8.7-2.1.7-2.1 0-3.5-1.7-3.5-4 0-2.6 1.8-4.3 3.8-4.3.9 0 1.5.3 1.6.3v-3.8h2.2V25h-2zm-.3-6c-.1 0-.6-.3-1.2-.3-1.1 0-2 .8-2 2.4 0 1.5.9 2.3 1.9 2.3.7 0 1.3-.4 1.3-.4v-4zM115 25.3c-.7 0-1.5-.2-2-.7-.7-.7-.7-1.4-.7-2.5V19h-1.4v-1.8h1.4V15h2.2v2.2h2.2V19h-2.2v3.2c0 .6 0 1.3 1 1.3.5 0 .8-.1 1-.2l.5 1.5c-.1 0-.8.5-2 .5zM121.7 25.3c-2.3 0-3.9-1.7-3.9-4.1 0-2.4 1.7-4.2 4.1-4.2 2.3 0 3.9 1.7 3.9 4.1 0 2.4-1.7 4.2-4.1 4.2zm0-6.6c-1.1 0-1.8.9-1.8 2.4 0 1.4.8 2.4 1.9 2.4 1.1 0 1.8-.9 1.8-2.4 0-1.4-.8-2.4-1.9-2.4zM134.3 25.3c-.7 0-1.5-.2-2-.7-.7-.7-.7-1.4-.7-2.5V19h-1.4v-1.8h1.4V15h2.2v2.2h2.2V19h-2.2v3.2c0 .6 0 1.3 1 1.3.5 0 .8-.1 1-.2l.5 1.5c-.1 0-.8.5-2 .5zM141.9 25v-.6c-.1.1-1 .7-2.2.7-1.6 0-2.5-1-2.5-2.5 0-2.8 3.4-2.8 4.4-2.8h.2c0-.5 0-.7-.2-.9-.2-.2-.5-.3-1.1-.3-1 0-2 .5-2.1.6l-.7-1.4c.1-.1 1.2-.8 3-.8.7 0 1.8.1 2.6.9.7.7.6 1.5.6 2.5V25h-2zm-.1-3.7h-.3c-1.4 0-2.4.2-2.4 1.2 0 .8.7 1 1.2 1 .9 0 1.4-.4 1.5-.5v-1.7zM150.6 25l-2.8-3.7V25h-2.2V13.5h2.2v6.6l2.9-2.9h2.5l-3.5 3.5 3.5 4.4h-2.6zM160.6 21.8h-5.2c0 .6.4 1.8 2 1.8 1 0 1.8-.4 2.1-.6l.7 1.4s-1.2.9-3 .9c-2.6 0-3.9-1.8-3.9-4.1 0-2.4 1.5-4.2 3.8-4.2s3.5 1.6 3.5 4.2c.1.3 0 .5 0 .6zm-3.4-3.3c-1 0-1.6.7-1.7 1.7h3.2c0-.4-.2-1.7-1.5-1.7zM169.3 25.3c-2.3 0-3.9-1.7-3.9-4.1 0-2.4 1.7-4.2 4.1-4.2 2.3 0 3.9 1.7 3.9 4.1 0 2.4-1.6 4.2-4.1 4.2zm.1-6.6c-1.1 0-1.8.9-1.8 2.4 0 1.4.8 2.4 1.9 2.4s1.8-.9 1.8-2.4c0-1.4-.8-2.4-1.9-2.4zM179.7 25v-4.1c0-1 0-1.5-.3-1.8-.1-.1-.3-.3-.8-.3-.7 0-1.3.4-1.5.5V25h-2.2v-7.9h1.8v.6c.1-.1 1.1-.8 2.2-.8.8 0 1.5.3 2 .8.9.9.8 2.1.8 3.1V25h-2zM190.5 21.8h-5.2c0 .6.4 1.8 2 1.8 1 0 1.8-.4 2.1-.6l.7 1.4s-1.2.9-3 .9c-2.6 0-3.9-1.8-3.9-4.1 0-2.4 1.5-4.2 3.8-4.2s3.5 1.6 3.5 4.2c.1.3 0 .5 0 .6zm-3.4-3.3c-1 0-1.6.7-1.7 1.7h3.2c0-.4-.2-1.7-1.5-1.7zM204.9 25v-4.3c0-.9 0-2-1.1-2-.7 0-1.3.5-1.4.6.1.3.1.4.1 1.7v4h-2.2v-4.3c0-.9 0-2-1.1-2-.6 0-1.2.4-1.4.4V25h-2.2v-7.9h1.8v.6c.1-.1 1-.8 2.2-.8 1.2 0 1.8.7 1.9.9.1-.1 1.1-.9 2.5-.9.7 0 1.5.2 2 .7.9.9.9 2.3.9 4.1V25h-2zM212.4 25.3c-2.3 0-3.9-1.7-3.9-4.1 0-2.4 1.7-4.2 4.1-4.2 2.3 0 3.9 1.7 3.9 4.1 0 2.4-1.7 4.2-4.1 4.2zm0-6.6c-1.1 0-1.8.9-1.8 2.4 0 1.4.8 2.4 1.9 2.4 1.1 0 1.8-.9 1.8-2.4 0-1.4-.8-2.4-1.9-2.4zM222.8 18.8h-.5c-1.3 0-2 .8-2.2 1.1V25H218v-7.9h1.8v1c.1-.1 1-1.2 2.6-1.2.6 0 .8.2.9.2l-.5 1.7zM231 21.8h-5.2c0 .6.4 1.8 2 1.8 1 0 1.8-.4 2.1-.6l.7 1.4s-1.2.9-3 .9c-2.6 0-3.9-1.8-3.9-4.1 0-2.4 1.5-4.2 3.8-4.2s3.5 1.6 3.5 4.2c.1.3 0 .5 0 .6zm-3.4-3.3c-1 0-1.6.7-1.7 1.7h3.2c0-.4-.2-1.7-1.5-1.7zM243.1 21.8h-5.2c0 .6.4 1.8 2 1.8 1 0 1.8-.4 2.1-.6l.7 1.4s-1.2.9-3 .9c-2.6 0-3.9-1.8-3.9-4.1 0-2.4 1.5-4.2 3.8-4.2s3.5 1.6 3.5 4.2v.6zm-3.5-3.3c-1 0-1.6.7-1.7 1.7h3.2c0-.4-.1-1.7-1.5-1.7zM249 25v-.6c-.1.1-1 .7-2.2.7-1.6 0-2.5-1-2.5-2.5 0-2.8 3.4-2.8 4.4-2.8h.2c0-.5 0-.7-.2-.9-.2-.2-.5-.3-1.1-.3-1 0-2 .5-2.1.6l-.7-1.4c.1-.1 1.2-.8 3-.8.7 0 1.8.1 2.6.9.7.7.6 1.5.6 2.5V25h-2zm-.2-3.7h-.3c-1.4 0-2.4.2-2.4 1.2 0 .8.7 1 1.2 1 .9 0 1.4-.4 1.5-.5v-1.7zM255.1 25.3c-1.8 0-3-.8-3.1-.9l.7-1.4c.2.1 1.1.6 2 .6 1 0 1.2-.4 1.2-.8 0-.5-.4-.6-1.7-1.2-.7-.3-2-.8-2-2.3 0-1.5 1.2-2.5 3.1-2.5 1.7 0 2.6.7 2.6.7l-.7 1.3c-.1 0-1-.5-1.8-.5s-1.1.4-1.1.7c0 .5.5.7 1.4 1 1.1.4 2.3.9 2.3 2.5.2 1.8-1 2.8-2.9 2.8zM264.5 25.1c-.6 1.6-1 2.3-1.5 2.8-.3.3-1 .8-2.3.8-1.2 0-1.9-.5-2-.5l.6-1.5c.1 0 .6.3 1.2.3.5 0 .8-.1 1.1-.4.4-.4.7-1.2.8-1.6l-3.3-7.9h2.3l2.1 5.5 2-5.5h2.1l-3.1 8zM275 25.3c-1.8 0-3-.8-3.1-.9l.7-1.4c.2.1 1.1.6 2 .6 1 0 1.2-.4 1.2-.8 0-.5-.4-.6-1.7-1.2-.7-.3-2-.8-2-2.3 0-1.5 1.2-2.5 3.1-2.5 1.7 0 2.6.7 2.6.7l-.7 1.3c-.1 0-1-.5-1.8-.5s-1.1.4-1.1.7c0 .5.5.7 1.4 1 1.1.4 2.3.9 2.3 2.5.2 1.8-1 2.8-2.9 2.8zM283.2 25.3c-.7 0-1.5-.2-2-.7-.7-.7-.7-1.4-.7-2.5V19h-1.4v-1.8h1.4V15h2.2v2.2h2.2V19h-2.2v3.2c0 .6 0 1.3 1 1.3.5 0 .8-.1 1-.2l.5 1.5c-.1 0-.9.5-2 .5zM293.3 21.8h-5.2c0 .6.4 1.8 2 1.8 1 0 1.8-.4 2.1-.6l.7 1.4s-1.2.9-3 .9c-2.6 0-3.9-1.8-3.9-4.1 0-2.4 1.5-4.2 3.8-4.2s3.5 1.6 3.5 4.2v.6zm-3.5-3.3c-1 0-1.6.7-1.7 1.7h3.2c0-.4-.2-1.7-1.5-1.7zM298.6 25.3c-.9 0-1.5-.3-1.6-.3v3.6h-2.2V17.2h1.9v.5c.1-.1.8-.7 2.1-.7 2.1 0 3.5 1.7 3.5 4 0 2.6-1.7 4.3-3.7 4.3zm-.3-6.6c-.7 0-1.3.4-1.3.4v4c.1 0 .6.3 1.2.3 1.1 0 2-.8 2-2.4 0-1.5-.9-2.3-1.9-2.3zM304.9 25.2c-.7 0-1.3-.6-1.3-1.3s.6-1.3 1.3-1.3 1.3.6 1.3 1.3-.6 1.3-1.3 1.3z"/></svg>