<svg version="1.1" id="Layer_1" xmlns="http://www.w3.org/2000/svg" x="0" y="0" viewBox="0 0 320 50" xml:space="preserve"><style>.st0{fill:#fff}</style><path class="st0" d="M21 17.8V22h-2.2v-4.3l-3.4-6.4h2.3L20 16l2.3-4.6h2.1L21 17.8zM28.1 22.3c-2.3 0-3.9-1.7-3.9-4.1 0-2.4 1.7-4.2 4.1-4.2 2.3 0 3.9 1.7 3.9 4.1 0 2.4-1.7 4.2-4.1 4.2zm.1-6.6c-1.1 0-1.8.9-1.8 2.4 0 1.4.8 2.4 1.9 2.4 1.1 0 1.8-.9 1.8-2.4-.1-1.4-.8-2.4-1.9-2.4zM38.7 22v-.6c-.1.1-1.1.8-2.2.8-.8 0-1.5-.3-2-.8-.9-.9-.8-2.1-.8-3.1v-4.2h2.2v4.1c0 1 0 1.5.3 1.8.1.1.3.3.8.3.7 0 1.3-.4 1.5-.5V14h2.2v8h-2zM50.8 15.8h-.5c-1.3 0-2 .8-2.2 1.1V22H46v-7.9h1.8v1c.1-.1 1-1.2 2.6-1.2.6 0 .8.2.9.2l-.5 1.7zM59 18.8h-5.2c0 .6.4 1.8 2 1.8 1 0 1.8-.4 2.1-.6l.7 1.4s-1.2.9-3 .9c-2.6 0-3.9-1.8-3.9-4.1 0-2.4 1.5-4.2 3.8-4.2s3.5 1.6 3.5 4.2c.1.3 0 .5 0 .6zm-3.4-3.3c-1 0-1.6.7-1.7 1.7h3.2c0-.4-.2-1.7-1.5-1.7zM66.8 24.7c-.5.5-1.3 1-2.9 1-2.2 0-3.4-1-3.5-1.2l.9-1.4c.1.1 1.1.8 2.4.8 1.7 0 1.9-1.1 1.9-1.9v-.5c-.1.1-.7.5-1.8.5-2.4 0-3.5-1.9-3.5-3.9 0-2.4 1.7-4.2 4.2-4.2 1.7 0 3.1.7 3.3.8v7.2c-.1 1.1-.1 2-1 2.8zm-1.3-8.8c-.1 0-.6-.2-1.2-.2-1.1 0-2 .9-2 2.4s.9 2.3 1.9 2.3c.7 0 1.3-.4 1.3-.4v-4.1zM70.6 13.2c-.7 0-1.2-.5-1.2-1.2s.5-1.2 1.2-1.2 1.2.5 1.2 1.2c.1.6-.5 1.2-1.2 1.2zM69.5 22v-7.9h2.2V22h-2.2zM76 22.3c-1.8 0-3-.8-3.1-.9l.7-1.4c.2.1 1.1.6 2 .6 1 0 1.2-.4 1.2-.8 0-.5-.4-.6-1.7-1.2-.7-.3-2-.8-2-2.3 0-1.5 1.2-2.5 3.1-2.5 1.7 0 2.6.7 2.6.7l-.5 1.5c-.1 0-1-.5-1.8-.5s-1.1.4-1.1.7c0 .5.5.7 1.4 1 1.1.4 2.3.9 2.3 2.5s-1.2 2.6-3.1 2.6zM84.2 22.3c-.7 0-1.5-.2-2-.7-.7-.7-.7-1.4-.7-2.5V16h-1.4v-1.8h1.4V12h2.2v2.2h2.2V16h-2.2v3.2c0 .6 0 1.3 1 1.3.5 0 .8-.1 1-.2l.5 1.5c-.1 0-.9.5-2 .5zM94.3 18.8h-5.2c0 .6.4 1.8 2 1.8 1 0 1.8-.4 2.1-.6l.7 1.4s-1.2.9-3 .9c-2.6 0-3.9-1.8-3.9-4.1 0-2.4 1.5-4.2 3.8-4.2s3.5 1.6 3.5 4.2v.6zm-3.5-3.3c-1 0-1.6.7-1.7 1.7h3.2c0-.4-.2-1.7-1.5-1.7zM100.7 15.8h-.5c-1.3 0-2 .8-2.2 1.1V22h-2.2v-7.9h1.8v1c.1-.1 1-1.2 2.6-1.2.6 0 .8.2.9.2l-.4 1.7zM108.9 18.8h-5.2c0 .6.4 1.8 2 1.8 1 0 1.8-.4 2.1-.6l.7 1.4s-1.2.9-3 .9c-2.6 0-3.9-1.8-3.9-4.1 0-2.4 1.5-4.2 3.8-4.2s3.5 1.6 3.5 4.2v.6zm-3.5-3.3c-1 0-1.6.7-1.7 1.7h3.2c0-.4-.2-1.7-1.5-1.7zM115.7 22v-.5c-.1.1-.8.7-2.1.7-2.1 0-3.5-1.7-3.5-4 0-2.6 1.8-4.3 3.8-4.3.9 0 1.5.3 1.6.3v-3.8h2.2V22h-2zm-.3-6c-.1 0-.6-.3-1.2-.3-1.1 0-2 .8-2 2.4 0 1.5.9 2.3 1.9 2.3.7 0 1.3-.4 1.3-.4v-4zM127.8 22.1c-.6 1.6-1 2.3-1.5 2.8-.3.3-1 .8-2.3.8-1.2 0-1.9-.5-2-.5l.6-1.5c.1 0 .6.3 1.2.3.5 0 .8-.1 1.1-.4.4-.4.7-1.2.8-1.6l-3.3-7.9h2.3l2.1 5.5 2-5.5h2.1l-3.1 8zM135.3 22.3c-2.3 0-3.9-1.7-3.9-4.1 0-2.4 1.7-4.2 4.1-4.2 2.3 0 3.9 1.7 3.9 4.1 0 2.4-1.7 4.2-4.1 4.2zm0-6.6c-1.1 0-1.8.9-1.8 2.4 0 1.4.8 2.4 1.9 2.4 1.1 0 1.8-.9 1.8-2.4 0-1.4-.8-2.4-1.9-2.4zM145.9 22v-.6c-.1.1-1.1.8-2.2.8-.8 0-1.5-.3-2-.8-.9-.9-.8-2.1-.8-3.1v-4.2h2.2v4.1c0 1 0 1.5.3 1.8.1.1.3.3.8.3.7 0 1.3-.4 1.5-.5V14h2.2v8h-2zM154.4 15.8h-.5c-1.3 0-2 .8-2.2 1.1V22h-2.2v-7.9h1.8v1c.1-.1 1-1.2 2.6-1.2.6 0 .8.2.9.2l-.4 1.7zM164 22v-.6c-.1.1-1 .7-2.2.7-1.6 0-2.5-1-2.5-2.5 0-2.8 3.4-2.8 4.4-2.8h.2c0-.5 0-.7-.2-.9-.2-.2-.5-.3-1.1-.3-1 0-2 .5-2.1.6l-.7-1.4c.1-.1 1.2-.8 3-.8.7 0 1.8.1 2.6.9.7.7.6 1.5.6 2.5V22h-2zm-.1-3.7h-.3c-1.4 0-2.4.2-2.4 1.2 0 .8.7 1 1.2 1 .9 0 1.4-.4 1.5-.5v-1.7zM171.3 22.3c-2.5 0-4-1.8-4-4.1 0-2.4 1.8-4.2 4.2-4.2 1.7 0 2.6.8 2.7 1l-.9 1.3c-.1-.1-.8-.5-1.7-.5-1.4 0-2.2 1.2-2.2 2.4 0 1.4.7 2.4 2.1 2.4 1 0 1.8-.5 1.9-.6l.8 1.4c.1-.1-1 .9-2.9.9zM179 22.3c-2.5 0-4-1.8-4-4.1 0-2.4 1.8-4.2 4.2-4.2 1.7 0 2.6.8 2.7 1l-.9 1.3c-.1-.1-.8-.5-1.7-.5-1.4 0-2.2 1.2-2.2 2.4 0 1.4.7 2.4 2.1 2.4 1 0 1.8-.5 1.9-.6l.8 1.4c0-.1-1.1.9-2.9.9zM186.5 22.3c-2.3 0-3.9-1.7-3.9-4.1 0-2.4 1.7-4.2 4.1-4.2 2.3 0 3.9 1.7 3.9 4.1 0 2.4-1.7 4.2-4.1 4.2zm0-6.6c-1.1 0-1.8.9-1.8 2.4 0 1.4.8 2.4 1.9 2.4 1.1 0 1.8-.9 1.8-2.4 0-1.4-.8-2.4-1.9-2.4zM197.1 22v-.6c-.1.1-1.1.8-2.2.8-.8 0-1.5-.3-2-.8-.9-.9-.8-2.1-.8-3.1v-4.2h2.2v4.1c0 1 0 1.5.3 1.8.1.1.3.3.8.3.7 0 1.3-.4 1.5-.5V14h2.2v8h-2zM205.6 22v-4.1c0-1 0-1.5-.3-1.8-.1-.1-.3-.3-.8-.3-.7 0-1.3.4-1.5.5V22h-2.2v-7.9h1.8v.6c.1-.1 1.1-.8 2.2-.8.8 0 1.5.3 2 .8.9.9.8 2.1.8 3.1V22h-2zM212.8 22.3c-.7 0-1.5-.2-2-.7-.7-.7-.7-1.4-.7-2.5V16h-1.4v-1.8h1.4V12h2.2v2.2h2.2V16h-2.2v3.2c0 .6 0 1.3 1 1.3.5 0 .8-.1 1-.2l.5 1.5c-.1 0-.8.5-2 .5zM225.2 12.4c-.1 0-.6-.4-1.1-.4-1.2 0-1.2.9-1.2 1.7v.4h2.3V16h-2.3v6h-2.2v-6h-1.3v-1.8h1.3v-.4c0-1.3.2-2.1.8-2.7.5-.5 1.2-.8 2.2-.8 1.4 0 2.2.7 2.3.8l-.8 1.3zM230.1 22.3c-2.3 0-3.9-1.7-3.9-4.1 0-2.4 1.7-4.2 4.1-4.2 2.3 0 3.9 1.7 3.9 4.1 0 2.4-1.7 4.2-4.1 4.2zm0-6.6c-1.1 0-1.8.9-1.8 2.4 0 1.4.8 2.4 1.9 2.4 1.1 0 1.8-.9 1.8-2.4 0-1.4-.8-2.4-1.9-2.4zM240.5 15.8h-.5c-1.3 0-2 .8-2.2 1.1V22h-2.2v-7.9h1.8v1c.1-.1 1-1.2 2.6-1.2.6 0 .8.2.9.2l-.4 1.7z"/><g><path class="st0" d="M23 38l-.8-2.2h-3.8l-.8 2.2h-2.3l3.9-10.7h2.3L25.3 38H23zm-2.7-8.2L19 34.1h2.7l-1.4-4.3zM34.4 36.4C32.8 38 30.8 38 28.8 38h-2.2V27.4h2.9c1.8 0 3.4 0 4.8 1.4.9.9 1.5 2.3 1.5 3.8s-.5 2.9-1.4 3.8zM32.6 30c-.9-.9-2-.9-3.2-.9h-.6v7.1h1.1c2.4 0 3.7-1.3 3.7-3.7 0-1.1-.4-1.9-1-2.5zM43.8 38l-.8-2.2h-3.8l-.8 2.2h-2.3L40 27.4h2.3L46.2 38h-2.4zm-2.7-8.2l-1.3 4.3h2.7l-1.4-4.3zM53.4 38.3c-1.8 0-3-.8-3.1-.9L51 36c.2.1 1.1.6 2 .6 1 0 1.2-.4 1.2-.8 0-.5-.4-.6-1.7-1.2-.7-.3-2-.8-2-2.3s1.2-2.5 3.1-2.5c1.7 0 2.6.7 2.6.7l-.5 1.5c-.1 0-1-.5-1.8-.5s-1.1.4-1.1.7c0 .5.5.7 1.4 1 1.1.4 2.3.9 2.3 2.5s-1.2 2.6-3.1 2.6zM61.6 38.3c-.7 0-1.5-.2-2-.7-.7-.7-.7-1.4-.7-2.5V32h-1.4v-1.8h1.4V28H61v2.2h2.2V32H61v3.2c0 .6 0 1.3 1 1.3.5 0 .8-.1 1-.2l.5 1.5s-.8.5-1.9.5zM69.9 38v-.6c-.1.1-1.1.8-2.2.8-.8 0-1.5-.3-2-.8-.9-.9-.8-2.1-.8-3.1v-4.2h2.2v4.1c0 1 0 1.5.3 1.8.1.1.3.3.8.3.7 0 1.3-.4 1.5-.5V30h2.2v8h-2zM78.8 38v-.5c-.1.1-.8.7-2.1.7-2.1 0-3.5-1.7-3.5-4 0-2.6 1.8-4.3 3.8-4.3.9 0 1.5.3 1.6.3v-3.8h2.2V38h-2zm-.2-6c-.1 0-.6-.3-1.2-.3-1.1 0-2 .8-2 2.4 0 1.5.9 2.3 1.9 2.3.7 0 1.3-.4 1.3-.4v-4zM89.5 34.8h-5.2c0 .6.4 1.8 2 1.8 1 0 1.8-.4 2.1-.6l.7 1.4s-1.2.9-3 .9c-2.6 0-3.9-1.8-3.9-4.1 0-2.4 1.5-4.2 3.8-4.2s3.5 1.6 3.5 4.2c.1.3 0 .5 0 .6zm-3.4-3.3c-1 0-1.6.7-1.7 1.7h3.2c-.1-.4-.2-1.7-1.5-1.7zM95.9 38v-4.1c0-1 0-1.5-.3-1.8-.1-.1-.3-.3-.8-.3-.7 0-1.3.4-1.5.5V38h-2.2v-7.9h1.8v.6c.1-.1 1.1-.8 2.2-.8.8 0 1.5.3 2 .8.9.9.8 2.1.8 3.1V38h-2zM103.1 38.3c-.7 0-1.5-.2-2-.7-.7-.7-.7-1.4-.7-2.5V32H99v-1.8h1.4V28h2.2v2.2h2.2V32h-2.2v3.2c0 .6 0 1.3 1 1.3.5 0 .8-.1 1-.2l.5 1.5c-.1 0-.8.5-2 .5zM119.4 38v-4.3c0-.9 0-2-1.1-2-.7 0-1.3.5-1.4.6.1.3.1.4.1 1.7v4h-2.2v-4.3c0-.9 0-2-1.1-2-.6 0-1.2.4-1.4.4V38h-2.2v-7.9h1.8v.6c.1-.1 1-.8 2.2-.8 1.2 0 1.8.7 1.9.9.1-.1 1.1-.9 2.5-.9.7 0 1.5.2 2 .7.9.9.9 2.3.9 4.1V38h-2zM130.2 34.8H125c0 .6.4 1.8 2 1.8 1 0 1.8-.4 2.1-.6l.7 1.4s-1.2.9-3 .9c-2.6 0-3.9-1.8-3.9-4.1 0-2.4 1.5-4.2 3.8-4.2s3.5 1.6 3.5 4.2c.1.3 0 .5 0 .6zm-3.4-3.3c-1 0-1.6.7-1.7 1.7h3.2c0-.4-.2-1.7-1.5-1.7zM141 38v-4.3c0-.9 0-2-1.1-2-.7 0-1.3.5-1.4.6.1.3.1.4.1 1.7v4h-2.2v-4.3c0-.9 0-2-1.1-2-.6 0-1.2.4-1.4.4V38h-2.2v-7.9h1.8v.6c.1-.1 1-.8 2.2-.8 1.2 0 1.8.7 1.9.9.1-.1 1.1-.9 2.5-.9.7 0 1.5.2 2 .7.9.9.9 2.3.9 4.1V38h-2zM148.3 38.3c-1.6 0-3.1-.6-3.3-.6V26.5h2.2v4c.1 0 .8-.5 1.9-.5 1.9 0 3.4 1.5 3.4 4s-1.7 4.3-4.2 4.3zm.3-6.6c-.7 0-1.3.4-1.4.5v4.2c.1 0 .5.2 1.2.2 1.2 0 2-1 2-2.6-.1-1.6-1-2.3-1.8-2.3zM160.9 34.8h-5.2c0 .6.4 1.8 2 1.8 1 0 1.8-.4 2.1-.6l.7 1.4s-1.2.9-3 .9c-2.6 0-3.9-1.8-3.9-4.1 0-2.4 1.5-4.2 3.8-4.2s3.5 1.6 3.5 4.2v.6zm-3.5-3.3c-1 0-1.6.7-1.7 1.7h3.2c0-.4-.1-1.7-1.5-1.7zM167.3 31.8h-.5c-1.3 0-2 .8-2.2 1.1V38h-2.2v-7.9h1.8v1c.1-.1 1-1.2 2.6-1.2.6 0 .8.2.9.2l-.4 1.7zM171.2 38.3c-1.8 0-3-.8-3.1-.9l.7-1.4c.2.1 1.1.6 2 .6 1 0 1.2-.4 1.2-.8 0-.5-.4-.6-1.7-1.2-.7-.3-2-.8-2-2.3s1.2-2.5 3.1-2.5c1.7 0 2.6.7 2.6.7l-.7 1.3c-.1 0-1-.5-1.8-.5s-1.1.4-1.1.7c0 .5.5.7 1.4 1 1.1.4 2.3.9 2.3 2.5.2 1.8-1 2.8-2.9 2.8zM180.7 29.2c-.7 0-1.2-.5-1.2-1.2s.5-1.2 1.2-1.2 1.2.5 1.2 1.2c0 .6-.5 1.2-1.2 1.2zm-1.1 8.8v-7.9h2.2V38h-2.2zM188.4 38v-4.1c0-1 0-1.5-.3-1.8-.1-.1-.3-.3-.8-.3-.7 0-1.3.4-1.5.5V38h-2.2v-7.9h1.8v.6c.1-.1 1.1-.8 2.2-.8.8 0 1.5.3 2 .8.9.9.8 2.1.8 3.1V38h-2zM194.8 38.3c-1.8 0-3-.8-3.1-.9l.7-1.4c.2.1 1.1.6 2 .6 1 0 1.2-.4 1.2-.8 0-.5-.4-.6-1.7-1.2-.7-.3-2-.8-2-2.3s1.2-2.5 3.1-2.5c1.7 0 2.6.7 2.6.7l-.7 1.3c-.1 0-1-.5-1.8-.5s-1.1.4-1.1.7c0 .5.5.7 1.4 1 1.1.4 2.3.9 2.3 2.5.2 1.8-1 2.8-2.9 2.8zM204.5 38v-.6c-.1.1-1.1.8-2.2.8-.8 0-1.5-.3-2-.8-.9-.9-.8-2.1-.8-3.1v-4.2h2.2v4.1c0 1 0 1.5.3 1.8.1.1.3.3.8.3.7 0 1.3-.4 1.5-.5V30h2.2v8h-2zM213.1 31.8h-.5c-1.3 0-2 .8-2.2 1.1V38h-2.2v-7.9h1.8v1c.1-.1 1-1.2 2.6-1.2.6 0 .8.2.9.2l-.4 1.7zM218.9 38v-.6c-.1.1-1 .7-2.2.7-1.6 0-2.5-1-2.5-2.5 0-2.8 3.4-2.8 4.4-2.8h.2c0-.5 0-.7-.2-.9-.2-.2-.5-.3-1.1-.3-1 0-2 .5-2.1.6l-.7-1.4c.1-.1 1.2-.8 3-.8.7 0 1.8.1 2.6.9.7.7.6 1.5.6 2.5V38h-2zm-.1-3.7h-.3c-1.4 0-2.4.2-2.4 1.2 0 .8.7 1 1.2 1 .9 0 1.4-.4 1.5-.5v-1.7zM227.4 38v-4.1c0-1 0-1.5-.3-1.8-.1-.1-.3-.3-.8-.3-.7 0-1.3.4-1.5.5V38h-2.2v-7.9h1.8v.6c.1-.1 1.1-.8 2.2-.8.8 0 1.5.3 2 .8.9.9.8 2.1.8 3.1V38h-2zM235 38.3c-2.5 0-4-1.8-4-4.1 0-2.4 1.8-4.2 4.2-4.2 1.7 0 2.6.8 2.7 1l-.9 1.3c-.1-.1-.8-.5-1.7-.5-1.4 0-2.2 1.2-2.2 2.4 0 1.4.7 2.4 2.1 2.4 1 0 1.8-.5 1.9-.6l.8 1.4c0-.1-1.1.9-2.9.9zM245.9 34.8h-5.2c0 .6.4 1.8 2 1.8 1 0 1.8-.4 2.1-.6l.7 1.4s-1.2.9-3 .9c-2.6 0-3.9-1.8-3.9-4.1 0-2.4 1.5-4.2 3.8-4.2s3.5 1.6 3.5 4.2v.6zm-3.5-3.3c-1 0-1.6.7-1.7 1.7h3.2c0-.4-.2-1.7-1.5-1.7zM248.5 38.2c-.7 0-1.3-.6-1.3-1.3s.6-1.3 1.3-1.3 1.3.6 1.3 1.3-.6 1.3-1.3 1.3z"/></g></svg>