<svg version="1.1" id="Layer_1" xmlns="http://www.w3.org/2000/svg" x="0" y="0" viewBox="0 0 320 50" xml:space="preserve"><style>.st0{fill:#fff}</style><path class="st0" d="M22.5 22l-.8-2.2h-3.8l-.8 2.2h-2.3l3.9-10.7H21L24.9 22h-2.4zm-2.7-8.3L18.5 18h2.7l-1.4-4.3zM29.4 22.2c-2.5 0-4-1.8-4-4.1 0-2.4 1.8-4.2 4.2-4.2 1.7 0 2.6.8 2.7 1l-.9 1.3c-.1-.1-.8-.5-1.7-.5-1.4 0-2.2 1.2-2.2 2.4 0 1.4.7 2.4 2.1 2.4 1 0 1.8-.5 1.9-.6l.8 1.4c.1 0-1 .9-2.9.9zM37.2 22.2c-.7 0-1.5-.2-2-.7-.7-.7-.7-1.4-.7-2.5v-3.1h-1.4v-1.8h1.4v-2.2h2.2v2.2h2.2v1.8h-2.2v3.2c0 .6 0 1.3 1 1.3.5 0 .8-.1 1-.2l.5 1.5c-.1 0-.8.5-2 .5zM41.6 13.1c-.7 0-1.2-.5-1.2-1.2s.5-1.2 1.2-1.2 1.2.5 1.2 1.2-.5 1.2-1.2 1.2zM40.5 22v-7.9h2.2V22h-2.2zM48.8 22h-2.1l-3-7.9H46l1.9 5.5 1.9-5.5h2.1L48.8 22zM57.2 22v-.6c-.1.1-1 .7-2.2.7-1.6 0-2.5-1-2.5-2.5 0-2.8 3.4-2.8 4.4-2.8h.1c0-.5 0-.7-.2-.9-.2-.2-.5-.3-1.1-.3-1 0-2 .5-2.1.6l-.7-1.4c.1-.1 1.2-.8 3-.8.7 0 1.8.1 2.6.9.7.7.6 1.5.6 2.5V22h-1.9zm-.2-3.7h-.3c-1.4 0-2.4.2-2.4 1.2 0 .8.7 1 1.2 1 .9 0 1.4-.4 1.5-.5v-1.7zM64.2 22.2c-.7 0-1.5-.2-2-.7-.7-.7-.7-1.4-.7-2.5v-3.1h-1.4v-1.8h1.4v-2.2h2.2v2.2h2.2v1.8h-2.2v3.2c0 .6 0 1.3 1 1.3.5 0 .8-.1 1-.2l.5 1.5c-.1 0-.9.5-2 .5zM74.3 18.7h-5.2c0 .6.4 1.8 2 1.8 1 0 1.8-.4 2.1-.6l.7 1.4s-1.2.9-3 .9c-2.6 0-3.9-1.8-3.9-4.1 0-2.4 1.5-4.2 3.8-4.2s3.5 1.6 3.5 4.2v.6zm-3.5-3.2c-1 0-1.6.7-1.7 1.7h3.2c0-.4-.2-1.7-1.5-1.7zM84 22.1c-.6 1.6-1 2.3-1.5 2.8-.3.3-1 .8-2.3.8-1.2 0-1.9-.5-2-.5l.6-1.5c.1 0 .6.3 1.2.3.5 0 .8-.1 1.1-.4.4-.4.7-1.2.8-1.6l-3.3-7.9h2.3l2.1 5.5 2-5.5h2.1l-3.1 8zM91.5 22.2c-2.3 0-3.9-1.7-3.9-4.1 0-2.4 1.7-4.2 4.1-4.2 2.3 0 3.9 1.7 3.9 4.1 0 2.5-1.7 4.2-4.1 4.2zm.1-6.5c-1.1 0-1.8.9-1.8 2.4 0 1.4.8 2.4 1.9 2.4 1.1 0 1.8-.9 1.8-2.4-.1-1.5-.8-2.4-1.9-2.4zM102.1 22v-.6c-.1.1-1.1.8-2.2.8-.8 0-1.5-.3-2-.8-.9-.9-.8-2.1-.8-3.1v-4.2h2.2v4.1c0 1 0 1.5.3 1.8.1.1.3.3.8.3.7 0 1.3-.4 1.5-.5V14h2.2v8h-2zM110.6 15.7h-.5c-1.3 0-2 .8-2.2 1.1V22h-2.2v-7.9h1.8v1c.1-.1 1-1.2 2.6-1.2.6 0 .8.2.9.2l-.4 1.6zM120.5 22v-4.1c0-1 0-1.5-.3-1.8-.1-.1-.3-.3-.8-.3-.7 0-1.3.4-1.5.5V22h-2.2v-7.9h1.8v.6c.1-.1 1.1-.8 2.2-.8.8 0 1.5.3 2 .8.9.9.8 2.1.8 3.1V22h-2zM128 22.2c-2.3 0-3.9-1.7-3.9-4.1 0-2.4 1.7-4.2 4.1-4.2 2.3 0 3.9 1.7 3.9 4.1 0 2.5-1.7 4.2-4.1 4.2zm0-6.5c-1.1 0-1.8.9-1.8 2.4 0 1.4.8 2.4 1.9 2.4 1.1 0 1.8-.9 1.8-2.4s-.8-2.4-1.9-2.4zM133.8 18.7v-1.8h5.6v1.8h-5.6zM145.2 22.2c-2.5 0-4-1.8-4-4.1 0-2.4 1.8-4.2 4.2-4.2 1.7 0 2.6.8 2.7 1l-.9 1.3c-.1-.1-.8-.5-1.7-.5-1.4 0-2.2 1.2-2.2 2.4 0 1.4.7 2.4 2.1 2.4 1 0 1.8-.5 1.9-.6l.8 1.4c.1 0-1 .9-2.9.9zM152.7 22.2c-2.3 0-3.9-1.7-3.9-4.1 0-2.4 1.7-4.2 4.1-4.2 2.3 0 3.9 1.7 3.9 4.1 0 2.5-1.6 4.2-4.1 4.2zm.1-6.5c-1.1 0-1.8.9-1.8 2.4 0 1.4.8 2.4 1.9 2.4 1.1 0 1.8-.9 1.8-2.4s-.8-2.4-1.9-2.4zM160.7 22.2c-1.8 0-3-.8-3.1-.9l.7-1.4c.2.1 1.1.6 2 .6 1 0 1.2-.4 1.2-.8 0-.5-.4-.6-1.7-1.2-.7-.3-2-.8-2-2.3 0-1.5 1.2-2.5 3.1-2.5 1.7 0 2.6.7 2.6.7l-.7 1.3c-.1 0-1-.5-1.8-.5s-1.1.4-1.1.7c0 .5.5.7 1.4 1 1.1.4 2.3.9 2.3 2.5.2 1.8-1 2.8-2.9 2.8zM168.8 22.2c-.7 0-1.5-.2-2-.7-.7-.7-.7-1.4-.7-2.5v-3.1h-1.4v-1.8h1.4v-2.2h2.2v2.2h2.2v1.8h-2.2v3.2c0 .6 0 1.3 1 1.3.5 0 .8-.1 1-.2l.5 1.5c-.1 0-.8.5-2 .5z"/><g><path class="st0" d="M16.6 29.1c-.7 0-1.2-.5-1.2-1.2s.5-1.2 1.2-1.2 1.2.5 1.2 1.2-.5 1.2-1.2 1.2zm-1 8.9v-7.9h2.2V38h-2.2zM24.4 38v-4.1c0-1 0-1.5-.3-1.8-.1-.1-.3-.3-.8-.3-.7 0-1.3.4-1.5.5V38h-2.2v-7.9h1.8v.6c.1-.1 1.1-.8 2.2-.8.8 0 1.5.3 2 .8.9.9.8 2.1.8 3.1V38h-2zM30.8 38.2c-1.8 0-3-.8-3.1-.9l.7-1.4c.2.1 1.1.6 2 .6 1 0 1.2-.4 1.2-.8 0-.5-.4-.6-1.7-1.2-.7-.3-2-.8-2-2.3s1.2-2.5 3.1-2.5c1.7 0 2.6.7 2.6.7l-.7 1.3c-.1 0-1-.5-1.8-.5s-1.1.4-1.1.7c0 .5.5.7 1.4 1 1.1.4 2.3.9 2.3 2.5.2 1.8-1 2.8-2.9 2.8zM40.5 38v-.6c-.1.1-1.1.8-2.2.8-.8 0-1.5-.3-2-.8-.9-.9-.8-2.1-.8-3.1v-4.2h2.2v4.1c0 1 0 1.5.3 1.8.1.1.3.3.8.3.7 0 1.3-.4 1.5-.5V30h2.2v8h-2zM49 31.7h-.5c-1.3 0-2 .8-2.2 1.1V38h-2.2v-7.9H46v1c.1-.1 1-1.2 2.6-1.2.6 0 .8.2.9.2l-.5 1.6zM54.9 38v-.6c-.1.1-1 .7-2.2.7-1.6 0-2.5-1-2.5-2.5 0-2.8 3.4-2.8 4.4-2.8h.2c0-.5 0-.7-.2-.9-.2-.2-.5-.3-1.1-.3-1 0-2 .5-2.1.6l-.7-1.4c.1-.1 1.2-.8 3-.8.7 0 1.8.1 2.6.9.7.7.6 1.5.6 2.5V38h-2zm-.2-3.7h-.3c-1.4 0-2.4.2-2.4 1.2 0 .8.7 1 1.2 1 .9 0 1.4-.4 1.5-.5v-1.7zM63.4 38v-4.1c0-1 0-1.5-.3-1.8-.1-.1-.3-.3-.8-.3-.7 0-1.3.4-1.5.5V38h-2.2v-7.9h1.8v.6c.1-.1 1.1-.8 2.2-.8.8 0 1.5.3 2 .8.9.9.8 2.1.8 3.1V38h-2zM70.9 38.2c-2.5 0-4-1.8-4-4.1 0-2.4 1.8-4.2 4.2-4.2 1.7 0 2.6.8 2.7 1l-.9 1.3c-.1-.1-.8-.5-1.7-.5-1.4 0-2.2 1.2-2.2 2.4 0 1.4.7 2.4 2.1 2.4 1 0 1.8-.5 1.9-.6l.8 1.4c.1 0-1 .9-2.9.9zM81.8 34.7h-5.2c0 .6.4 1.8 2 1.8 1 0 1.8-.4 2.1-.6l.7 1.4s-1.2.9-3 .9c-2.6 0-3.9-1.8-3.9-4.1 0-2.4 1.5-4.2 3.8-4.2s3.5 1.6 3.5 4.2v.6zm-3.4-3.2c-1 0-1.6.7-1.7 1.7h3.2c-.1-.4-.2-1.7-1.5-1.7zM91.7 38v-4.1c0-1 0-1.5-.3-1.8-.1-.1-.3-.3-.8-.3-.7 0-1.3.4-1.5.5V38h-2.2v-7.9h1.8v.6c.1-.1 1.1-.8 2.2-.8.8 0 1.5.3 2 .8.9.9.8 2.1.8 3.1V38h-2zM99.2 38.2c-2.3 0-3.9-1.7-3.9-4.1 0-2.4 1.7-4.2 4.1-4.2 2.3 0 3.9 1.7 3.9 4.1 0 2.5-1.6 4.2-4.1 4.2zm.1-6.5c-1.1 0-1.8.9-1.8 2.4 0 1.4.8 2.4 1.9 2.4 1.1 0 1.8-.9 1.8-2.4s-.8-2.4-1.9-2.4zM113.3 38H111l-1.4-5.4-1.3 5.4h-2.2l-2.1-7.9h2.1l1.3 5.5 1.4-5.5h1.9l1.4 5.5 1.4-5.5h2l-2.2 7.9zM117.5 38.1c-.7 0-1.3-.6-1.3-1.3s.6-1.3 1.3-1.3c.7 0 1.3.6 1.3 1.3s-.6 1.3-1.3 1.3z"/></g></svg>