<svg version="1.1" id="Layer_1" xmlns="http://www.w3.org/2000/svg" x="0" y="0" viewBox="0 0 320 50" xml:space="preserve"><style>.st1{fill:#fff}</style><path d="M224 13.5c-1.9 0-3.5 1.6-3.5 3.5v15.6c0 1.9 1.6 3.5 3.5 3.5h75.4c1.9 0 3.5-1.6 3.5-3.5V17c0-1.9-1.6-3.5-3.5-3.5H224z" fill="#f16022"/><path class="st1" d="M235.8 29.8l-.6-1.8h-3.5l-.6 1.8h-2.5l3.6-10h2.5l3.6 10h-2.5zm-2.4-7.5l-1.2 3.8h2.3l-1.1-3.8zM243.7 30c-3 0-5.1-2.1-5.1-5.1 0-3.3 2.3-5.4 5.4-5.4 2.1 0 3.2.9 3.4 1.2l-1 1.6c-.1-.1-1-.7-2.2-.7-1.8 0-3.1 1.3-3.1 3.2 0 1.7 1.1 3.1 2.9 3.1 1.3 0 2.3-.7 2.6-.8l1 1.6c-.1 0-1.3 1.3-3.9 1.3zM253.5 21.7v8H251v-8h-2.7v-2h7.8v2h-2.6zM257.3 29.8v-10h2.5v10h-2.5zM266.7 29.8h-2.3l-3.4-10h2.5l2.2 7.1 2.2-7.1h2.4l-3.6 10zM276.9 29.8l-.6-1.8h-3.5l-.6 1.8h-2.5l3.6-10h2.5l3.6 10h-2.5zm-2.3-7.5l-1.2 3.8h2.3l-1.1-3.8zM284.1 21.7v8h-2.5v-8h-2.7v-2h7.8v2h-2.6zM287.9 29.8v-10h6.3v2h-3.9v2h3.6v1.9h-3.6v2.1h4v2h-6.4z"/></svg>