<svg version="1.1" id="Layer_1" xmlns="http://www.w3.org/2000/svg" x="0" y="0" viewBox="0 0 320 50" xml:space="preserve"><style>.st0{fill:#fff}</style><path class="st0" d="M33.3 31.8h-3.1l-1-2.9h-6.1l-1 2.9H19l5.4-14.3h2.2c.8 0 1.2.2 1.4.8.2.6 2.7 6.9 2.7 6.9h-2.9L26 20.4l-2 6h6.2c.8 0 1.3.3 1.5 1l1.6 4.4zM60.4 31.8h-3.1l-1-2.9h-6.1l-1 2.9h-3.1l5.4-14.3h2.2c.8 0 1.2.2 1.4.8.2.6 2.7 6.9 2.7 6.9H55l-1.8-4.8-2.2 6h6.2c.8 0 1.3.3 1.5 1l1.7 4.4zM34.3 17.5h5.6c4.4 0 6.5 2.3 6.5 7.2 0 2.7-.8 4.7-2.3 5.9-1.4 1.1-2.9 1.3-5 1.3h-4.8V17.5zm5.3 11.7c2.7 0 3.9-1.3 3.9-4.6 0-3.2-1.1-4.7-3.5-4.7h-2.7v9.2h2.3zM84.8 31.7h-2.3l-.9-10.2-3.5 10.2h-1.9l-3.6-10.2-.8 10.2h-2.1L71 18.1h2.6l3.7 10.4 3.6-10.4h2.6l1.3 13.6zM95.8 26.6v.8h-6.7c0 .7.2 1.3.6 1.8.5.6 1.2.9 2.2.9.8 0 1.7-.2 2.7-.8l.8 1.5c-1 .7-2.2 1.1-3.7 1.1s-2.7-.5-3.6-1.5c-.8-.9-1.3-2.2-1.3-3.7 0-1.6.4-2.8 1.3-3.8s2-1.5 3.4-1.5c1.3 0 2.4.5 3.1 1.4.9.9 1.2 2.2 1.2 3.8zm-2.1-.9c0-.6-.1-1.1-.4-1.6-.4-.6-1-1-1.7-1s-1.3.2-1.7.7c-.5.5-.7 1.1-.8 1.8h4.6zM112.1 31.7h-2.2V26c0-1.1-.1-1.9-.4-2.2s-.7-.5-1.2-.5c-.7 0-1.4.3-2.2.8.1.3.1 1 .1 2.3v5.3H104v-5.5c0-1.3-.2-2.1-.5-2.4-.3-.3-.6-.4-1.1-.4-.7 0-1.4.2-2.1.7v7.6H98v-9.9h2v.7c.9-.7 1.9-1 2.9-1s1.8.4 2.4 1.1c1.1-.7 2.2-1.1 3.3-1.1 1 0 1.9.3 2.5.9.5.5.8 1.1.9 1.9.1.5.1 1.3.1 2.5v4.9zM123.6 26.5c0 1.6-.5 2.9-1.4 3.9-.9 1-2.2 1.5-3.8 1.5-1.1 0-2.4-.3-3.9-.8V17h2.2v5.2c.8-.5 1.6-.8 2.5-.8 1.3 0 2.3.5 3.1 1.4s1.3 2.1 1.3 3.7zm-2.2 0c0-1-.2-1.8-.7-2.4-.5-.5-1.1-.8-1.8-.8s-1.4.2-2.1.7v5.8c.6.2 1.1.3 1.6.3.9 0 1.6-.3 2.1-1 .6-.7.9-1.5.9-2.6zM134.2 26.6v.8h-6.7c0 .7.2 1.3.6 1.8.5.6 1.2.9 2.2.9.8 0 1.7-.2 2.7-.8l.8 1.5c-1 .7-2.2 1.1-3.7 1.1s-2.7-.5-3.6-1.5c-.8-.9-1.3-2.2-1.3-3.7 0-1.6.4-2.8 1.3-3.8s2-1.5 3.4-1.5c1.3 0 2.4.5 3.1 1.4.9.9 1.2 2.2 1.2 3.8zm-2.1-.9c0-.6-.1-1.1-.4-1.6-.4-.6-1-1-1.7-1s-1.3.2-1.7.7c-.5.5-.7 1.1-.8 1.8h4.6zM142.7 21.7l-.5 1.7c-.2 0-.4-.1-.7-.1-1.2 0-2.2.5-2.9 1.5v6.8h-2.2v-9.9h2V23c.2-.3.5-.5.9-.8.7-.5 1.5-.7 2.3-.7.4 0 .7 0 1.1.2z"/><g><path class="st0" d="M150.8 28.8c0 1-.4 1.7-1.1 2.3s-1.6.8-2.7.8c-.9 0-1.7-.2-2.6-.5-.5-.2-.9-.4-1.1-.6l.8-1.5c1 .5 1.9.8 2.6.8.6 0 1-.1 1.3-.3.3-.2.4-.5.4-.9s-.2-.6-.6-.9c-.2-.1-.7-.4-1.6-.7-.8-.3-1.4-.7-1.7-1-.6-.5-.9-1.2-.9-2 0-.9.3-1.6 1-2.2.7-.5 1.6-.8 2.7-.8 1.4 0 2.5.3 3.2.9l-.8 1.4c-.8-.4-1.6-.7-2.3-.7-1.1 0-1.6.4-1.6 1.1 0 .3.2.6.5.8.2.1.6.3 1.3.6 1 .4 1.7.8 2 1.1.9.7 1.2 1.4 1.2 2.3zM160.6 31.7h-2.4V18.1h2.4v13.6zM171.8 31.7h-2.2v-5.4c0-1.3-.1-2.1-.4-2.4-.3-.3-.7-.4-1.3-.4-.7 0-1.4.2-2.2.7v7.6h-2.2v-9.9h2v.7c.9-.7 1.9-1 2.9-1s1.9.3 2.5.9c.5.5.8 1 .9 1.7.1.4.1 1.1.1 2v5.5zM181 28.8c0 1-.4 1.7-1.1 2.3-.7.6-1.6.8-2.7.8-.9 0-1.7-.2-2.6-.5-.5-.2-.9-.4-1.1-.6l.8-1.5c1 .5 1.9.8 2.6.8.6 0 1-.1 1.3-.3.3-.2.4-.5.4-.9s-.2-.6-.6-.9c-.2-.1-.7-.4-1.6-.7-.8-.3-1.4-.7-1.7-1-.6-.5-.9-1.2-.9-2 0-.9.3-1.6 1-2.2s1.6-.8 2.7-.8c1.4 0 2.5.3 3.2.9l-.8 1.4c-.8-.4-1.6-.7-2.3-.7-1.1 0-1.6.4-1.6 1.1 0 .3.2.6.5.8.2.1.6.3 1.3.6 1 .4 1.7.8 2 1.1.8.7 1.2 1.4 1.2 2.3zM191.5 31.7h-2v-.8c-.9.7-1.9 1-2.9 1s-1.9-.3-2.5-.9c-.5-.5-.8-1-.9-1.7-.1-.4-.1-1.1-.1-2v-5.5h2.2v6.7c.1.6.2.9.5 1.2.3.2.7.3 1.2.3.6 0 1.3-.2 2.2-.7v-7.5h2.2v9.9zM200.4 21.7l-.5 1.7c-.2 0-.4-.1-.7-.1-1.2 0-2.2.5-2.9 1.5v6.8h-2.2v-9.9h2V23c.2-.3.5-.5.9-.8.7-.5 1.5-.7 2.3-.7.4 0 .8 0 1.1.2z"/></g><g><path class="st0" d="M209.2 31.7h-2V31c-1 .6-2 .9-2.9.9-1 0-1.7-.3-2.3-.9-.6-.6-.9-1.3-.9-2.3 0-2.3 1.9-3.5 5.6-3.5h.4v-.4c0-.6-.1-1-.3-1.2-.3-.3-.8-.4-1.6-.4-.9 0-1.8.3-2.7.8l-.8-1.4c.2-.2.6-.4 1.1-.6.8-.3 1.6-.5 2.6-.5 1.4 0 2.4.4 3.1 1.1.4.4.6.8.7 1.3.1.3.1.9.1 1.7v6.1zm-2.2-2.2v-2.6h-.5c-1.6 0-2.6.3-3.1.8-.3.3-.4.6-.4 1 0 .5.2.9.5 1.1.3.3.7.4 1.2.4.8-.1 1.5-.3 2.3-.7zM220 31.7h-2.2v-5.4c0-1.3-.1-2.1-.4-2.4-.3-.3-.7-.4-1.3-.4-.7 0-1.4.2-2.2.7v7.6h-2.2v-9.9h2v.7c.9-.7 1.9-1 2.9-1s1.9.3 2.5.9c.5.5.8 1 .9 1.7.1.4.1 1.1.1 2v5.5zM230.6 30.7c-.1.2-.5.4-1 .6-.8.4-1.7.5-2.6.5-1.5 0-2.7-.5-3.6-1.4-.9-.9-1.4-2.2-1.4-3.7 0-1.6.5-2.8 1.5-3.9 1-1 2.2-1.5 3.7-1.5.8 0 1.6.2 2.3.5.5.2.8.4 1 .6l-.9 1.4c-.7-.5-1.4-.7-2.2-.7-.9 0-1.7.3-2.3 1-.5.6-.8 1.4-.8 2.3 0 1 .3 1.8.8 2.4.5.6 1.2.9 2.2.9.7 0 1.6-.3 2.5-.8l.8 1.8z"/></g><g><path class="st0" d="M240.6 26.6v.8h-6.7c0 .7.2 1.3.6 1.8.5.6 1.2.9 2.2.9.8 0 1.7-.2 2.7-.8l.8 1.5c-1 .7-2.2 1.1-3.7 1.1s-2.7-.5-3.6-1.5c-.8-.9-1.3-2.2-1.3-3.7 0-1.6.4-2.8 1.3-3.8s2-1.5 3.4-1.5c1.3 0 2.4.5 3.1 1.4s1.2 2.2 1.2 3.8zm-2.2-.9c0-.6-.1-1.1-.4-1.6-.4-.6-1-1-1.7-1s-1.3.2-1.7.7c-.5.5-.7 1.1-.8 1.8h4.6zM256.9 22.2c0 1.2-.4 2.3-1.2 3-.6.6-1.3.9-2.1 1.1-.5.1-1.3.2-2.5.2h-1v5.2h-2.3V18.1h3.6c1.1 0 1.9.1 2.5.2.8.2 1.4.5 1.9 1 .7.7 1.1 1.7 1.1 2.9zm-2.4 0c0-.7-.2-1.3-.6-1.7-.4-.4-1.2-.5-2.5-.5h-1.3v4.6h1c1.5 0 2.4-.2 2.8-.6.4-.5.6-1 .6-1.8zM261.5 31.7h-2.2V17h2.2v14.7zM271.7 31.7h-2V31c-1 .6-2 .9-2.9.9-1 0-1.7-.3-2.3-.9-.6-.6-.9-1.3-.9-2.3 0-2.3 1.9-3.5 5.6-3.5h.4v-.4c0-.6-.1-1-.3-1.2-.3-.3-.8-.4-1.6-.4-.9 0-1.8.3-2.7.8l-.8-1.4c.2-.2.6-.4 1.1-.6.8-.3 1.6-.5 2.6-.5 1.4 0 2.4.4 3.1 1.1.4.4.6.8.7 1.3.1.3.1.9.1 1.7v6.1zm-2.1-2.2v-2.6h-.5c-1.6 0-2.6.3-3.1.8-.3.3-.4.6-.4 1 0 .5.2.9.5 1.1.3.3.7.4 1.2.4.7-.1 1.4-.3 2.3-.7zM282.5 31.7h-2.2v-5.4c0-1.3-.1-2.1-.4-2.4-.3-.3-.7-.4-1.3-.4-.7 0-1.4.2-2.2.7v7.6h-2.2v-9.9h2v.7c.9-.7 1.9-1 2.9-1s1.9.3 2.5.9c.5.5.8 1 .9 1.7.1.4.1 1.1.1 2v5.5zM291.7 28.8c0 1-.4 1.7-1.1 2.3-.7.6-1.6.8-2.7.8-.9 0-1.7-.2-2.6-.5-.5-.2-.9-.4-1.1-.6l.8-1.5c1 .5 1.9.8 2.6.8.6 0 1-.1 1.3-.3.3-.2.4-.5.4-.9s-.2-.6-.6-.9c-.2-.1-.7-.4-1.6-.7-.8-.3-1.4-.7-1.7-1-.6-.5-.9-1.2-.9-2 0-.9.3-1.6 1-2.2s1.6-.8 2.7-.8c1.4 0 2.5.3 3.2.9l-.8 1.4c-.8-.4-1.6-.7-2.3-.7-1.1 0-1.6.4-1.6 1.1 0 .3.2.6.5.8.2.1.6.3 1.3.6 1 .4 1.7.8 2 1.1.8.7 1.2 1.4 1.2 2.3z"/></g><path class="st0" d="M62.5 31.8c-1 0-1.7-.7-1.7-1.7s.8-1.7 1.7-1.7c1 0 1.7.8 1.7 1.7 0 1-.8 1.7-1.7 1.7m0-2.9c-.7 0-1.3.6-1.3 1.3 0 .7.6 1.3 1.3 1.3.7 0 1.3-.5 1.3-1.3s-.6-1.3-1.3-1.3m.4 2.1l-.2-.5c-.1-.2-.1-.2-.4-.2h-.1v.7h-.3v-1.8h.4c.2 0 .4 0 .6.2.1.1.2.2.2.4s-.1.4-.3.4c.1 0 .2.1.2.2l.3.6h-.4zm-.3-1.4h-.4v.4h.3c.1 0 .2-.1.2-.2 0-.2 0-.2-.1-.2"/></svg>