<svg id="Layer_1" xmlns="http://www.w3.org/2000/svg" xmlns:xlink="http://www.w3.org/1999/xlink" viewBox="0 0 300 250"><style>.st0{fill:#fff}.st1{fill:none;stroke:#000;stroke-width:5.695}.st2{clip-path:url(#SVGID_2_)}</style><path class="st0" d="M232.86 198.43c15.29 0 27.68-12.39 27.68-27.68s-12.39-27.68-27.68-27.68-27.68 12.39-27.68 27.68 12.4 27.68 27.68 27.68"/><path class="st1" d="M232.86 198.43c15.29 0 27.68-12.39 27.68-27.68s-12.39-27.68-27.68-27.68-27.68 12.39-27.68 27.68 12.4 27.68 27.68 27.68z"/><defs><path id="SVGID_1_" d="M217.76 154.68h30.19v33.6h-30.19z"/></defs><clipPath id="SVGID_2_"><use xlink:href="#SVGID_1_" overflow="visible"/></clipPath><path class="st2" d="M245.42 168.96h-10.04v-10.04c0-1.4-1.13-2.53-2.53-2.53s-2.53 1.13-2.53 2.53v10.04h-10.04c-1.4 0-2.53 1.13-2.53 2.53s1.13 2.53 2.53 2.53h10.04v10.04c0 1.4 1.13 2.53 2.53 2.53s2.53-1.13 2.53-2.53v-10.04h10.04c1.4 0 2.53-1.13 2.53-2.53s-1.13-2.53-2.53-2.53"/></svg>