<svg id="Layer_1" xmlns="http://www.w3.org/2000/svg" xmlns:xlink="http://www.w3.org/1999/xlink" viewBox="0 0 300 250"><style>.st0{fill:#fff}.st1{fill:none;stroke:#000;stroke-width:5.695}.st2{clip-path:url(#SVGID_2_)}</style><path class="st0" d="M64.28 198.43c15.29 0 27.68-12.39 27.68-27.68s-12.39-27.68-27.68-27.68-27.68 12.4-27.68 27.68c0 15.29 12.39 27.68 27.68 27.68"/><path class="st1" d="M64.28 198.43c15.29 0 27.68-12.39 27.68-27.68s-12.39-27.68-27.68-27.68-27.68 12.4-27.68 27.68c0 15.29 12.39 27.68 27.68 27.68z"/><defs><path id="SVGID_1_" d="M49.18 167.29h30.19v11.61H49.18z"/></defs><clipPath id="SVGID_2_"><use xlink:href="#SVGID_1_" overflow="visible"/></clipPath><path class="st2" d="M76.84 168.99H51.71c-1.4 0-2.53 1.13-2.53 2.53s1.13 2.53 2.53 2.53h25.13c1.4 0 2.53-1.13 2.53-2.53s-1.13-2.53-2.53-2.53"/></svg>