<svg xmlns="http://www.w3.org/2000/svg" viewBox="0 0 300 250"><path d="M14.9 238.7v-4.5l-.9.1.1-.6 1.5-.1v5.2h-.7zM17.1 238.7v-4.5l-.9.1.1-.6 1.5-.1v5.2h-.7zM19.7 238.8c-.3 0-.6-.1-.8-.2l-.1-.7c.3.1.6.2.9.2.6 0 1.2-.3 1.2-1 0-.5-.5-1-1.1-1h-.1l-.1-.6c.5-.1.9-.4.9-.8s-.3-.6-.7-.6c-.3 0-.5.1-.8.2l-.1-.6c.3-.2.6-.2 1-.2.8 0 1.4.5 1.4 1.2 0 .6-.4.9-.7 1 .6.1 1.1.6 1.1 1.5-.2.9-.8 1.6-2 1.6zM23.4 238.8c-.4 0-.8-.1-1-.2l-.1-.7c.3.2.7.3 1 .3.6 0 1.1-.4 1.1-1 0-.7-.5-1-1.1-1-.4 0-.6 0-.9.1l.1-2.6h2.2l-.1.6h-1.4v1.2h.2c1 0 1.7.6 1.7 1.7.1.8-.5 1.6-1.7 1.6zM26.8 238.8c-.3 0-.6-.1-.8-.2l-.1-.7c.3.1.6.2.9.2.6 0 1.2-.3 1.2-1 0-.5-.5-1-1.1-1h-.1l-.1-.6c.5-.1.9-.4.9-.8s-.3-.6-.7-.6c-.3 0-.5.1-.8.2l-.1-.6c.3-.2.6-.2 1-.2.8 0 1.4.5 1.4 1.2 0 .6-.4.9-.7 1 .6.1 1.1.6 1.1 1.5-.1.9-.8 1.6-2 1.6zM30 238.7v-4.5l-.9.1.1-.6 1.5-.1v5.2H30zM32.8 238.8c-.4 0-.8-.1-1-.2l-.1-.7c.3.2.7.3 1 .3.6 0 1.1-.4 1.1-1 0-.7-.5-1-1.1-1-.4 0-.6 0-.9.1l.1-2.6h2.2l-.1.6h-1.4v1.2h.2c1 0 1.7.6 1.7 1.7.1.8-.5 1.6-1.7 1.6z"/></svg>