<svg version="1.1" id="Layer_1" xmlns="http://www.w3.org/2000/svg" x="0" y="0" viewBox="0 0 300 250" xml:space="preserve"><style>.st0{fill:#fff}</style><path class="st0" d="M123.8 117v5.1h-2.6V117l-4-7.7h2.8l2.7 5.6 2.7-5.6h2.5l-4.1 7.7zM132.4 122.4c-2.8 0-4.7-2-4.7-5s2-5.1 4.9-5.1c2.8 0 4.7 2.1 4.7 4.9 0 3.1-2 5.2-4.9 5.2zm.1-7.9c-1.3 0-2.2 1.1-2.2 2.8 0 1.7.9 2.9 2.3 2.9s2.2-1.1 2.2-2.8c-.1-1.8-1-2.9-2.3-2.9zM145.1 122.1v-.7c-.2.1-1.3 1-2.7 1-1 0-1.9-.3-2.5-.9-1.1-1.1-1-2.5-1-3.7v-5.1h2.6v5c0 1.2.1 1.9.4 2.2.1.1.4.3 1 .3.8 0 1.6-.5 1.8-.6v-6.9h2.6v9.5h-2.2zM159.8 114.6c-.1 0-.4-.1-.6-.1-1.6 0-2.4.9-2.7 1.4v6.2h-2.6v-9.5h2.2v1.2c.1-.1 1.3-1.5 3.1-1.5.7 0 1 .2 1.1.3l-.5 2zM169.6 118.2h-6.2c0 .7.5 2.1 2.4 2.1 1.2 0 2.1-.5 2.5-.7l.8 1.7c-.1.1-1.5 1-3.6 1-3.1 0-4.7-2.2-4.7-5 0-2.9 1.9-5.1 4.6-5.1 2.8 0 4.3 2 4.3 5.1 0 .5-.1.8-.1.9zm-4.1-3.9c-1.2 0-1.9.9-2.1 2.1h3.9c0-.6-.2-2.1-1.8-2.1zM179 125.3c-.6.6-1.6 1.3-3.5 1.3-2.7 0-4.1-1.3-4.3-1.4l1-1.7c.1.1 1.4.9 2.9.9 2.1 0 2.3-1.3 2.3-2.3v-.6c-.1.1-.9.6-2.2.6-2.9 0-4.3-2.3-4.3-4.7 0-2.8 2-5.1 5.1-5.1 2 0 3.7.9 4 1v8.6c0 1.4 0 2.4-1 3.4zm-1.5-10.6c-.1-.1-.7-.3-1.4-.3-1.4 0-2.5 1.1-2.5 2.9 0 1.8 1 2.7 2.3 2.7.8 0 1.6-.4 1.6-.5v-4.8zM183.6 111.4c-.8 0-1.5-.7-1.5-1.5s.7-1.5 1.5-1.5 1.5.7 1.5 1.5-.7 1.5-1.5 1.5zm-1.3 10.7v-9.5h2.6v9.5h-2.6zM190.1 122.4c-2.2 0-3.6-1-3.7-1.1l.9-1.7c.2.1 1.3.8 2.5.8s1.5-.5 1.5-.9c0-.6-.5-.8-2-1.4-.8-.3-2.4-.9-2.4-2.8 0-1.8 1.5-3 3.7-3 2.1 0 3.1.8 3.1.8l-.8 1.6c-.1-.1-1.2-.6-2.2-.6-1 0-1.3.5-1.3.9 0 .6.7.8 1.7 1.2 1.3.5 2.7 1.1 2.7 3 0 2-1.4 3.2-3.7 3.2zM199.9 122.4c-.8 0-1.8-.2-2.4-.8-.8-.8-.8-1.7-.8-3v-3.7H195v-2.2h1.6V110h2.6v2.6h2.7v2.2h-2.7v3.8c0 .8.1 1.6 1.2 1.6.6 0 1-.2 1.2-.2l.7 1.8c-.1 0-1 .6-2.4.6zM212 118.2h-6.2c0 .7.5 2.1 2.4 2.1 1.2 0 2.1-.5 2.5-.7l.8 1.7c-.1.1-1.5 1-3.6 1-3.1 0-4.7-2.2-4.7-5 0-2.9 1.9-5.1 4.6-5.1 2.8 0 4.3 2 4.3 5.1-.1.5-.1.8-.1.9zm-4.2-3.9c-1.2 0-1.9.9-2.1 2.1h3.9c0-.6-.2-2.1-1.8-2.1zM219.7 114.6c-.1 0-.4-.1-.6-.1-1.6 0-2.4.9-2.7 1.4v6.2h-2.6v-9.5h2.2v1.2c.1-.1 1.3-1.5 3.1-1.5.7 0 1 .2 1.1.3l-.5 2zM229.6 118.2h-6.2c0 .7.5 2.1 2.4 2.1 1.2 0 2.1-.5 2.5-.7l.8 1.7c-.1.1-1.5 1-3.6 1-3.1 0-4.7-2.2-4.7-5 0-2.9 1.9-5.1 4.6-5.1 2.8 0 4.3 2 4.3 5.1-.1.5-.1.8-.1.9zm-4.2-3.9c-1.2 0-1.9.9-2.1 2.1h3.9c0-.6-.2-2.1-1.8-2.1zM237.8 122.1v-.6c-.1.1-1 .8-2.5.8-2.6 0-4.3-2-4.3-4.9 0-3.1 2.2-5.1 4.6-5.1 1.1 0 1.8.3 1.9.4v-4.6h2.6v14h-2.3zm-.3-7.2c-.1 0-.7-.4-1.4-.4-1.4 0-2.4 1-2.4 2.9 0 1.8 1 2.8 2.3 2.8.8 0 1.5-.4 1.6-.5v-4.8z"/><g><path class="st0" d="M123.5 142.5c-.7 1.9-1.2 2.7-1.8 3.4-.4.4-1.2 1-2.8 1-1.4 0-2.3-.6-2.4-.6l.8-1.9c.1.1.7.3 1.5.3.6 0 1-.2 1.3-.5.5-.5.8-1.5.9-1.9l-4-9.5h2.8l2.5 6.7 2.4-6.7h2.6l-3.8 9.7zM132.5 142.7c-2.8 0-4.7-2-4.7-5s2-5.1 4.9-5.1c2.8 0 4.7 2.1 4.7 4.9.1 3.1-1.9 5.2-4.9 5.2zm.1-7.9c-1.3 0-2.2 1.1-2.2 2.8 0 1.7.9 2.9 2.3 2.9s2.2-1.1 2.2-2.8c0-1.7-1-2.9-2.3-2.9zM145.3 142.4v-.7c-.2.1-1.3 1-2.7 1-1 0-1.9-.3-2.5-.9-1.1-1.1-1-2.5-1-3.7V133h2.6v5c0 1.2.1 1.9.4 2.2.1.1.4.3 1 .3.8 0 1.6-.5 1.8-.6V133h2.6v9.5h-2.2zM155.6 134.9c-.1 0-.4-.1-.6-.1-1.6 0-2.4.9-2.7 1.4v6.2h-2.6v-9.5h2.2v1.2c.1-.1 1.3-1.5 3.1-1.5.7 0 1 .2 1.1.2l-.5 2.1zM167.2 142.4v-.7c-.2.1-1.2.9-2.7.9-1.9 0-3.1-1.3-3.1-3 0-3.4 4.1-3.4 5.3-3.4h.3c0-.6 0-.8-.3-1.1-.2-.2-.6-.4-1.4-.4-1.3 0-2.4.6-2.5.7l-.9-1.7c.1-.1 1.4-1 3.6-1 .8 0 2.2.1 3.1 1.1.8.8.8 1.8.8 3v5.7h-2.2zm-.2-4.5h-.4c-1.7 0-2.9.3-2.9 1.5 0 1 .8 1.3 1.5 1.3 1.1 0 1.7-.5 1.8-.6v-2.2zM176 142.7c-3 0-4.9-2.1-4.9-4.9 0-3 2.2-5.1 5-5.1 2 0 3.1 1 3.3 1.2l-1 1.6c-.1-.1-.9-.7-2-.7-1.7 0-2.7 1.5-2.7 2.9 0 1.7.8 2.9 2.6 2.9 1.2 0 2.2-.7 2.3-.7l1 1.7s-1.4 1.1-3.6 1.1zM185.1 142.7c-3 0-4.9-2.1-4.9-4.9 0-3 2.2-5.1 5-5.1 2 0 3.1 1 3.3 1.2l-1 1.6c-.1-.1-.9-.7-2-.7-1.7 0-2.7 1.5-2.7 2.9 0 1.7.8 2.9 2.6 2.9 1.2 0 2.2-.7 2.3-.7l1 1.7s-1.3 1.1-3.6 1.1zM194.2 142.7c-2.8 0-4.7-2-4.7-5s2-5.1 4.9-5.1c2.8 0 4.7 2.1 4.7 4.9 0 3.1-2 5.2-4.9 5.2zm.1-7.9c-1.3 0-2.2 1.1-2.2 2.8 0 1.7.9 2.9 2.3 2.9 1.3 0 2.2-1.1 2.2-2.8-.1-1.7-1-2.9-2.3-2.9zM206.9 142.4v-.7c-.2.1-1.3 1-2.7 1-1 0-1.9-.3-2.5-.9-1.1-1.1-1-2.5-1-3.7V133h2.6v5c0 1.2.1 1.9.4 2.2.1.1.4.3 1 .3.8 0 1.6-.5 1.8-.6V133h2.6v9.5h-2.2zM217.2 142.4v-5c0-1.2-.1-1.9-.4-2.2-.1-.1-.4-.3-1-.3-.8 0-1.6.5-1.8.6v6.9h-2.6v-9.5h2.2v.7c.2-.1 1.3-1 2.7-1 1 0 1.9.3 2.5.9 1.1 1.1 1 2.5 1 3.7v5.1h-2.6zM225.9 142.7c-.8 0-1.8-.2-2.4-.8-.8-.8-.8-1.7-.8-3v-3.7H221V133h1.6v-2.6h2.6v2.6h2.7v2.2h-2.7v3.8c0 .8.1 1.6 1.2 1.6.6 0 1-.2 1.2-.2l.7 1.8c-.1-.1-1 .5-2.4.5zM240.8 130.8c-.1-.1-.7-.5-1.4-.5-1.4 0-1.4 1.1-1.4 2.1v.5h2.8v2.2H238v7.3h-2.6v-7.3h-1.5v-2.2h1.5v-.5c0-1.6.2-2.5 1-3.3.6-.6 1.4-.9 2.6-.9 1.7 0 2.7.8 2.7.9l-.9 1.7zM246.7 142.7c-2.8 0-4.7-2-4.7-5s2-5.1 4.9-5.1c2.8 0 4.7 2.1 4.7 4.9 0 3.1-2 5.2-4.9 5.2zm.1-7.9c-1.3 0-2.2 1.1-2.2 2.8 0 1.7.9 2.9 2.3 2.9 1.3 0 2.2-1.1 2.2-2.8-.1-1.7-1-2.9-2.3-2.9zM259.2 134.9c-.1 0-.4-.1-.6-.1-1.6 0-2.4.9-2.7 1.4v6.2h-2.6v-9.5h2.2v1.2c.1-.1 1.3-1.5 3.1-1.5.7 0 1 .2 1.1.2l-.5 2.1z"/></g><g><path class="st0" d="M126.2 162.7l-.9-2.7h-4.6l-.9 2.7H117l4.7-12.9h2.7l4.7 12.9h-2.9zm-3.3-9.9l-1.6 5.2h3.2l-1.6-5.2zM139.9 160.8c-1.9 1.9-4.3 1.9-6.7 1.9h-2.6v-12.9h3.5c2.2 0 4.1 0 5.8 1.7 1.1 1.1 1.8 2.8 1.8 4.6 0 1.8-.6 3.6-1.8 4.7zm-2-7.7c-1.1-1.1-2.4-1.1-3.8-1.1h-.8v8.5h1.3c2.9 0 4.4-1.6 4.4-4.4 0-1.3-.4-2.3-1.1-3zM151.3 162.7l-.9-2.7h-4.6l-.9 2.7H142l4.7-12.9h2.7l4.7 12.9h-2.8zm-3.3-9.9l-1.6 5.2h3.2l-1.6-5.2zM162.8 163c-2.2 0-3.6-1-3.7-1.1l.9-1.7c.2.1 1.3.8 2.5.8s1.5-.5 1.5-.9c0-.6-.5-.8-2-1.4-.8-.3-2.4-.9-2.4-2.8 0-1.8 1.5-3 3.7-3 2.1 0 3.1.8 3.1.8l-.8 1.6c-.1-.1-1.2-.6-2.2-.6-1 0-1.3.5-1.3.9 0 .6.7.8 1.7 1.2 1.3.5 2.7 1.1 2.7 3 .1 2-1.3 3.2-3.7 3.2zM172.6 163c-.8 0-1.8-.2-2.5-.8-.8-.8-.8-1.7-.8-3v-3.7h-1.6v-2.2h1.6v-2.6h2.6v2.6h2.7v2.2H172v3.8c0 .8.1 1.6 1.2 1.6.6 0 1-.2 1.2-.2l.7 1.8c-.1-.1-1 .5-2.5.5zM182.6 162.7v-.7c-.2.1-1.3 1-2.7 1-1 0-1.9-.3-2.5-.9-1.1-1.1-1-2.5-1-3.7v-5.1h2.6v5c0 1.2.1 1.9.4 2.2.1.1.4.3 1 .3.8 0 1.6-.5 1.8-.6v-6.9h2.6v9.5h-2.2zM193.4 162.7v-.6c-.1.1-1 .8-2.5.8-2.6 0-4.3-2-4.3-4.9 0-3.1 2.2-5.1 4.6-5.1 1.1 0 1.8.3 1.9.4v-4.6h2.6v14h-2.3zm-.3-7.2c-.1 0-.7-.4-1.4-.4-1.4 0-2.4 1-2.4 2.9 0 1.8 1 2.8 2.3 2.8.8 0 1.5-.4 1.6-.5v-4.8zM206.3 158.8H200c0 .7.5 2.1 2.4 2.1 1.2 0 2.1-.5 2.5-.7l.8 1.7c-.1.1-1.5 1-3.6 1-3.1 0-4.7-2.2-4.7-5 0-2.9 1.9-5.1 4.6-5.1 2.8 0 4.3 2 4.3 5.1v.9zm-4.2-3.9c-1.2 0-1.9.9-2.1 2.1h3.9c0-.6-.2-2.1-1.8-2.1zM213.9 162.7v-5c0-1.2-.1-1.9-.4-2.2-.1-.1-.4-.3-1-.3-.8 0-1.6.5-1.8.6v6.9h-2.6v-9.5h2.2v.7c.2-.1 1.3-1 2.7-1 1 0 1.9.3 2.5.9 1.1 1.1 1 2.5 1 3.7v5.1h-2.6zM222.6 163c-.8 0-1.8-.2-2.5-.8-.8-.8-.8-1.7-.8-3v-3.7h-1.6v-2.2h1.6v-2.6h2.6v2.6h2.7v2.2H222v3.8c0 .8.1 1.6 1.2 1.6.6 0 1-.2 1.2-.2l.7 1.8c-.2-.1-1.1.5-2.5.5z"/></g><g><path class="st0" d="M128.9 183.1v-5.2c0-1.1 0-2.4-1.3-2.4-.8 0-1.6.6-1.7.7.1.4.1.5.1 2.1v4.8h-2.6v-5.2c0-1.1 0-2.4-1.3-2.4-.8 0-1.5.4-1.6.5v7h-2.6v-9.5h2.2v.7c.2-.1 1.2-1 2.7-1 1.5 0 2.1.8 2.3 1 .2-.1 1.4-1 3-1 .8 0 1.8.2 2.4.9 1.1 1.1 1.1 2.7 1.1 4.9v4h-2.7zM142 179.2h-6.2c0 .7.5 2.1 2.4 2.1 1.2 0 2.1-.5 2.5-.7l.8 1.7c-.1.1-1.5 1-3.6 1-3.1 0-4.7-2.2-4.7-5 0-2.9 1.9-5.1 4.6-5.1 2.8 0 4.3 2 4.3 5.1-.1.5-.1.7-.1.9zm-4.2-4c-1.2 0-1.9.9-2.1 2.1h3.9c0-.5-.2-2.1-1.8-2.1zM155 183.1v-5.2c0-1.1 0-2.4-1.3-2.4-.8 0-1.6.6-1.7.7.1.4.1.5.1 2.1v4.8h-2.6v-5.2c0-1.1 0-2.4-1.3-2.4-.8 0-1.5.4-1.6.5v7H144v-9.5h2.2v.7c.2-.1 1.2-1 2.7-1 1.5 0 2.1.8 2.3 1 .2-.1 1.4-1 3-1 .8 0 1.8.2 2.4.9 1.1 1.1 1.1 2.7 1.1 4.9v4H155zM163.7 183.3c-1.9 0-3.8-.7-4-.8V169h2.6v4.9c.1-.1 1-.7 2.3-.7 2.3 0 4.1 1.8 4.1 4.8 0 3.2-1.9 5.3-5 5.3zm.4-7.9c-.8 0-1.6.5-1.7.6v5.1c.1 0 .6.2 1.4.2 1.5 0 2.4-1.2 2.4-3.1-.1-2-1.1-2.8-2.1-2.8zM178.9 179.2h-6.2c0 .7.5 2.1 2.4 2.1 1.2 0 2.1-.5 2.5-.7l.8 1.7c-.1.1-1.5 1-3.6 1-3.1 0-4.7-2.2-4.7-5 0-2.9 1.9-5.1 4.6-5.1 2.8 0 4.3 2 4.3 5.1-.1.5-.1.7-.1.9zm-4.2-4c-1.2 0-1.9.9-2.1 2.1h3.9c0-.5-.2-2.1-1.8-2.1zM186.6 175.5c-.1 0-.4-.1-.6-.1-1.6 0-2.4.9-2.7 1.4v6.2h-2.6v-9.5h2.2v1.2c.1-.1 1.3-1.5 3.1-1.5.7 0 1 .2 1.1.2l-.5 2.1zM191.3 183.3c-2.2 0-3.6-1-3.7-1.1l.9-1.7c.2.1 1.3.8 2.5.8s1.5-.5 1.5-.9c0-.6-.5-.8-2-1.4-.8-.3-2.4-.9-2.4-2.8 0-1.8 1.5-3 3.7-3 2.1 0 3.1.8 3.1.8l-.8 1.6c-.1-.1-1.2-.6-2.2-.6-1 0-1.3.5-1.3.9 0 .6.7.8 1.7 1.2 1.3.5 2.7 1.1 2.7 3 .1 2-1.4 3.2-3.7 3.2zM202.7 172.4c-.8 0-1.5-.7-1.5-1.5s.7-1.5 1.5-1.5 1.5.7 1.5 1.5-.7 1.5-1.5 1.5zm-1.3 10.7v-9.5h2.6v9.5h-2.6zM212 183.1v-5c0-1.2-.1-1.9-.4-2.2-.1-.1-.4-.3-1-.3-.8 0-1.6.5-1.8.6v6.9h-2.6v-9.5h2.2v.7c.2-.1 1.3-1 2.7-1 1 0 1.9.3 2.5.9 1.1 1.1 1 2.5 1 3.7v5.1H212zM219.7 183.3c-2.2 0-3.6-1-3.7-1.1l.9-1.7c.2.1 1.3.8 2.5.8s1.5-.5 1.5-.9c0-.6-.5-.8-2-1.4-.8-.3-2.4-.9-2.4-2.8 0-1.8 1.5-3 3.7-3 2.1 0 3.1.8 3.1.8l-.8 1.6c-.1-.1-1.2-.6-2.2-.6-1 0-1.3.5-1.3.9 0 .6.7.8 1.7 1.2 1.3.5 2.7 1.1 2.7 3 .1 2-1.4 3.2-3.7 3.2zM231.4 183.1v-.7c-.2.1-1.3 1-2.7 1-1 0-1.9-.3-2.5-.9-1.1-1.1-1-2.5-1-3.7v-5.1h2.6v5c0 1.2.1 1.9.4 2.2.1.1.4.3 1 .3.8 0 1.6-.5 1.8-.6v-6.9h2.6v9.5h-2.2zM241.7 175.5c-.1 0-.4-.1-.6-.1-1.6 0-2.4.9-2.7 1.4v6.2h-2.6v-9.5h2.2v1.2c.1-.1 1.3-1.5 3.1-1.5.7 0 1 .2 1.1.2l-.5 2.1zM248.7 183.1v-.7c-.2.1-1.2.9-2.7.9-1.9 0-3.1-1.3-3.1-3 0-3.4 4.1-3.4 5.3-3.4h.3c0-.6 0-.8-.3-1.1-.2-.2-.6-.4-1.4-.4-1.3 0-2.4.6-2.5.7l-.9-1.7c.1-.1 1.4-1 3.6-1 .8 0 2.2.1 3.1 1.1.8.8.8 1.8.8 3v5.7h-2.2zm-.2-4.5h-.4c-1.7 0-2.9.3-2.9 1.5 0 1 .8 1.3 1.5 1.3 1.1 0 1.7-.5 1.8-.6v-2.2zM258.9 183.1v-5c0-1.2-.1-1.9-.4-2.2-.1-.1-.4-.3-1-.3-.8 0-1.6.5-1.8.6v6.9h-2.6v-9.5h2.2v.7c.2-.1 1.3-1 2.7-1 1 0 1.9.3 2.5.9 1.1 1.1 1 2.5 1 3.7v5.1h-2.6zM268 183.3c-3 0-4.9-2.1-4.9-4.9 0-3 2.2-5.1 5-5.1 2 0 3.1 1 3.3 1.2l-1 1.6c-.1-.1-.9-.7-2-.7-1.7 0-2.7 1.5-2.7 2.9 0 1.7.8 2.9 2.6 2.9 1.2 0 2.2-.7 2.3-.7l1 1.7s-1.3 1.1-3.6 1.1zM281.1 179.2h-6.2c0 .7.5 2.1 2.4 2.1 1.2 0 2.1-.5 2.5-.7l.8 1.7c-.1.1-1.5 1-3.6 1-3.1 0-4.7-2.2-4.7-5 0-2.9 1.9-5.1 4.6-5.1 2.8 0 4.3 2 4.3 5.1 0 .5-.1.7-.1.9zm-4.1-4c-1.2 0-1.9.9-2.1 2.1h3.9c-.1-.5-.2-2.1-1.8-2.1zM284.3 183.2c-.9 0-1.6-.7-1.6-1.6s.7-1.6 1.6-1.6 1.6.7 1.6 1.6-.7 1.6-1.6 1.6z"/></g></svg>