<svg id="Layer_1" xmlns="http://www.w3.org/2000/svg" viewBox="0 0 300 250"><style>.st0{fill:#0d4c87}</style><path class="st0" d="M66.79 75.25c-4.4 0-8.6-3.22-8.6-8.37 0-5.1 4.17-8.35 8.6-8.35 4.4 0 8.57 3.22 8.57 8.35s-4.15 8.37-8.57 8.37zm0-13.25c-2.4 0-4.65 1.95-4.65 4.92 0 2.97 2.25 4.92 4.65 4.92 2.37 0 4.65-1.95 4.65-4.92-.01-2.97-2.28-4.92-4.65-4.92zM84.48 67.45c-.23-.12-.73-.27-1.1-.27-1.17 0-2.25.62-2.25 2.42v5.27h-3.67V63.55h3.62v2.52h.03c.37-1.77 1.7-2.72 3.22-2.72.35 0 .77.05 1.05.15l-.9 3.95zM104.76 74.98h-2.52l-1.52-4.5c-.23-.7-.45-1.5-.67-2.35H100c-.17.85-.4 1.67-.62 2.32l-1.52 4.52h-2.4l-3.95-11.42h3.35l1.4 4.3c.2.65.42 1.45.55 2.17h.05c.12-.7.32-1.52.55-2.17l1.42-4.3h2.77l1.42 4.27c.23.7.38 1.47.52 2.2h.05c.15-.73.35-1.52.58-2.2l1.42-4.27h3.12l-3.95 11.43zM117.21 74.88v-6.95c0-.82-.58-1.55-1.7-1.55-1.1 0-1.77.7-1.77 1.6v6.9h-3.67v-17.8h3.62v7.52h.02c.58-.88 1.62-1.4 3.2-1.4 2.5 0 3.97 1.4 3.97 3.8v7.87h-3.67zM133.56 68.58l-1.62 1.65h-5.55c.17.92 1.42 1.97 3.35 1.97 1.17 0 2.37-.35 3.12-.85l-.35 3.15c-.85.45-2.15.75-3.6.75-3.45 0-6.22-2.4-6.22-6.1 0-3.65 2.65-5.97 5.9-5.97 3.15 0 5.07 2.17 5.07 4.52 0 .28-.05.65-.1.88zm-4.98-2.65c-1.07 0-1.97.82-2.2 1.85h3.82c0-.08.02-.15.02-.25.01-.78-.66-1.6-1.64-1.6zM142.61 74.88v-6.95c0-.82-.55-1.55-1.67-1.55-1.1 0-1.8.7-1.8 1.6v6.9h-3.67V63.55h3.37v1.52h.02c.45-1.2 1.62-1.87 3.45-1.87 2.47 0 3.97 1.4 3.97 3.8v7.87h-3.67zM161.11 73.75c-1.72 4.55-3.52 6.2-5.65 7.02l-2.25-2.25c1.82-.7 3.22-2.02 4.15-4.42l-4.07-10.55h3.55l1.65 4.4c.25.65.5 1.42.67 2.22h.05c.22-.77.47-1.57.72-2.22l1.65-4.4h3.37l-3.84 10.2zM171.43 75.23c-3.42 0-6.17-2.42-6.17-6.02s2.75-6.02 6.17-6.02c3.4 0 6.17 2.42 6.17 6.02s-2.77 6.02-6.17 6.02zm0-8.85c-1.38 0-2.55 1.2-2.55 2.87 0 1.67 1.17 2.87 2.55 2.87 1.35 0 2.55-1.2 2.55-2.87 0-1.67-1.2-2.87-2.55-2.87zM186.86 74.88v-1.55h-.03c-.45 1.2-1.65 1.87-3.47 1.87-2.47 0-3.97-1.37-3.97-3.77v-7.87h3.67v6.95c0 .82.58 1.55 1.7 1.55 1.1 0 1.77-.73 1.77-1.62v-6.87h3.67v11.32h-3.34zM204.51 75.2c-1.2 0-2.42-.37-2.87-.75v6.2h-3.57v-17.1h3.22v1.4h.02c.62-1.15 1.92-1.72 3.5-1.72 2.77 0 5.45 2.1 5.45 5.97 0 3.65-2.6 6-5.75 6zm-.65-8.77c-1.08 0-1.82.57-2.22 1.17v3.55c.35.48 1.1 1 2.22 1 1.6 0 2.72-1.23 2.72-2.85s-1.12-2.87-2.72-2.87zM216.01 75.32c-2.33-.1-3.88-1.3-3.88-4.02V57.08h3.62v13.77c0 .92.52 1.42 1.52 1.5l-1.26 2.97zM226.83 75.38c-.67-.15-1.45-.67-1.75-1.5-.5.92-1.57 1.38-2.95 1.38-2 0-3.77-1.4-3.77-3.75 0-2.07 1.62-3.47 3.87-3.7l2.25-.23v-.38c0-.67-.55-1.12-1.77-1.12-1.1 0-2.32.35-3.15.88l-.65-2.77c.92-.6 2.47-1 3.97-1 3 0 5.12 1.38 5.12 4.1v3.7c0 1.32.5 2.02 1.37 2.35l-2.54 2.04zm-2.35-5.45l-1.38.12c-.95.07-1.37.75-1.37 1.42 0 .6.45 1.1 1.15 1.1.88 0 1.6-.67 1.6-1.65v-.99zM237.78 74.88v-6.95c0-.82-.55-1.55-1.67-1.55-1.1 0-1.8.7-1.8 1.6v6.9h-3.67V63.55h3.37v1.52h.03c.45-1.2 1.62-1.87 3.45-1.87 2.47 0 3.97 1.4 3.97 3.8v7.87h-3.68z"/><g><path class="st0" d="M115.36 93.55h-2.95v4.2c0 .97.52 1.37 1.5 1.37.43 0 .67-.02.95-.15l-.32 2.77c-.35.17-.97.3-1.7.3-2.55 0-4.07-1.35-4.07-3.6v-4.9h-1.9v-3h1.9v-2.42l3.65-1.32v3.75h3.65l-.71 3zM122.74 102.23c-3.42 0-6.17-2.42-6.17-6.02s2.75-6.02 6.17-6.02c3.4 0 6.17 2.42 6.17 6.02s-2.77 6.02-6.17 6.02zm0-8.85c-1.37 0-2.55 1.2-2.55 2.87 0 1.67 1.17 2.87 2.55 2.87 1.35 0 2.55-1.2 2.55-2.87 0-1.67-1.2-2.87-2.55-2.87zM143.36 94.45c-.22-.12-.72-.27-1.1-.27-1.17 0-2.25.62-2.25 2.42v5.27h-3.67V90.55h3.62v2.52h.03c.37-1.77 1.7-2.72 3.22-2.72.35 0 .78.05 1.05.15l-.9 3.95zM155.63 95.58l-1.62 1.65h-5.55c.17.92 1.42 1.97 3.35 1.97 1.17 0 2.37-.35 3.12-.85l-.35 3.15c-.85.45-2.15.75-3.6.75-3.45 0-6.22-2.4-6.22-6.1 0-3.65 2.65-5.97 5.9-5.97 3.15 0 5.07 2.17 5.07 4.52 0 .28-.05.65-.1.88zm-4.97-2.65c-1.08 0-1.97.82-2.2 1.85h3.82c0-.08.03-.15.03-.25 0-.78-.67-1.6-1.65-1.6zM165.19 93.55h-2.95v4.2c0 .97.52 1.37 1.5 1.37.42 0 .67-.02.95-.15l-.33 2.77c-.35.17-.97.3-1.7.3-2.55 0-4.07-1.35-4.07-3.6v-4.9h-1.9v-3h1.9v-2.42l3.65-1.32v3.75h3.65l-.7 3zM169.06 89c-.65 0-1.97-1.32-1.97-1.97s1.33-1.95 1.97-1.95 1.97 1.3 1.97 1.95-1.32 1.97-1.97 1.97zm-1.85 12.88V90.55h3.7v11.32h-3.7zM180.31 94.45c-.22-.12-.72-.27-1.1-.27-1.17 0-2.25.62-2.25 2.42v5.27h-3.67V90.55h3.62v2.52h.03c.38-1.77 1.7-2.72 3.22-2.72.35 0 .78.05 1.05.15l-.9 3.95zM192.56 95.58l-1.62 1.65h-5.55c.17.92 1.42 1.97 3.35 1.97 1.17 0 2.37-.35 3.12-.85l-.35 3.15c-.85.45-2.15.75-3.6.75-3.45 0-6.22-2.4-6.22-6.1 0-3.65 2.65-5.97 5.9-5.97 3.15 0 5.07 2.17 5.07 4.52 0 .28-.05.65-.1.88zm-4.98-2.65c-1.08 0-1.97.82-2.2 1.85h3.82c0-.08.03-.15.03-.25 0-.78-.67-1.6-1.65-1.6z"/></g></svg>