<svg xmlns="http://www.w3.org/2000/svg" viewBox="0 0 300 250"><path d="M191.6 39.1c-1.4.2-2.7.4-3.7.7-.4.7-.7 1.3-1 1.9-.3.6-.6 1.2-.8 1.7-.2.3-.3.5-.6.5-.2.1-.5 0-1-.1-.2-.1-.5-.2-.8-.3s-.6-.2-.9-.4c-.2-.1-.4-.3-.6-.4-.2-.1-.3-.2-.4-.4s-.1-.3-.2-.5c0-.2 0-.5.2-.9.5-1.2 1-2.6 1.8-4.2s1.5-3.3 2.4-5c.8-1.7 1.7-3.4 2.6-5.1.9-1.7 1.7-3.2 2.5-4.5.3-.5.7-.9 1.1-1.2.5-.3 1.1-.4 2-.3.8 0 1.5.1 2.1.2.6.1 1.2.2 1.7.3.5.1 1 .2 1.4.3.4.1.9.2 1.3.3.6.2 1 .4 1.1.8.2.3.2.7.2 1.2-.1 1.2-.2 2.7-.3 4.3-.1 1.6-.1 3.3-.2 5 0 1.7-.1 3.5-.1 5.2v4.9c0 .3-.1.5-.2.7-.1.1-.5.2-1 .2h-1.4c-.4 0-.8-.1-1.3-.2s-.8-.3-1-.5-.3-.5-.4-1c-.1-.5-.1-1.1-.2-1.7-.1-.6-.1-1.3-.2-2-1.2.1-2.6.3-4.1.5zm1.4-4.6c.9-.1 1.7-.2 2.6-.2 0-1.4-.1-2.9-.1-4.3v-4.2c-.8 1.3-1.6 2.7-2.5 4.2-.9 1.5-1.8 3.1-2.7 4.8 1-.1 1.9-.2 2.7-.3zM222.5 28.5c-.5 1.6-1.1 3.3-1.6 5l-1.5 5.1c-.5 1.7-.9 3.3-1.3 4.7 0 .2-.1.4-.2.5-.1.1-.3.1-.6.1-.2 0-.5-.1-.9-.1s-.7-.2-1.1-.2c-.8-.2-1.4-.5-1.8-.8-.4-.3-.6-.8-.4-1.4.1-.6.2-1.4.3-2.2.2-.8.3-1.7.5-2.7-.8.1-1.6.2-2.3.3-.8.1-1.6.2-2.3.3-.3 1.2-.6 2.3-.7 3.4-.2 1.1-.4 2-.5 2.8-.1.3-.2.5-.4.6-.2.1-.5.1-1 0s-1-.2-1.5-.4c-.5-.1-.9-.3-1.3-.5s-.8-.4-.9-.7c-.2-.3-.2-.6-.1-1.1.3-1.2.6-2.6.8-4.2.2-1.6.5-3.3.7-5 .2-1.7.5-3.5.7-5.2.2-1.7.4-3.3.7-4.8.2-.6.4-.9.7-1 .3-.1.7-.1 1.3.1.6.2 1.3.4 2 .6.7.3 1.3.6 1.8.9.3.2.5.3.7.4s.3.3.3.4c.1.1.1.3.1.5s-.1.4-.1.6c-.3 1-.6 2.2-1 3.5-.3 1.3-.7 2.8-1.1 4.3.8-.1 1.6-.2 2.3-.2.8-.1 1.5-.1 2.2-.2.5-1.8.9-3.7 1.4-5.5.4-1.8.9-3.5 1.3-5 .2-.6.4-.9.7-1s.8 0 1.4.1c.6.1 1.1.3 1.7.6.6.3 1.1.5 1.7.9.5.3.8.6.9.9s.1.6-.1 1c-.4 1.5-.9 3-1.5 4.6zM241.9 28.5c-.5 1.6-1.1 3.3-1.6 5l-1.5 5.1c-.5 1.7-.9 3.3-1.3 4.7 0 .2-.1.4-.2.5-.1.1-.3.1-.6.1-.2 0-.5-.1-.9-.1s-.7-.2-1.1-.2c-.8-.2-1.4-.5-1.8-.8-.4-.3-.6-.8-.4-1.4.1-.6.2-1.4.3-2.2.2-.8.3-1.7.5-2.7-.8.1-1.6.2-2.3.3-.8.1-1.6.2-2.3.3-.3 1.2-.6 2.3-.7 3.4-.2 1.1-.4 2-.5 2.8-.1.3-.2.5-.4.6-.2.1-.5.1-1 0s-1-.2-1.5-.4c-.5-.1-.9-.3-1.3-.5s-.8-.4-.9-.7c-.2-.3-.2-.6-.1-1.1.3-1.2.6-2.6.8-4.2.2-1.6.5-3.3.7-5 .2-1.7.5-3.5.7-5.2.2-1.7.4-3.3.7-4.8.2-.6.4-.9.7-1 .3-.1.7-.1 1.3.1.6.2 1.3.4 2 .6.7.3 1.3.6 1.8.9.3.2.5.3.7.4s.3.3.3.4c.1.1.1.3.1.5s-.1.4-.1.6c-.3 1-.6 2.2-1 3.5-.3 1.3-.7 2.8-1.1 4.3.8-.1 1.6-.2 2.3-.2.8-.1 1.5-.1 2.2-.2.5-1.8.9-3.7 1.4-5.5.4-1.8.9-3.5 1.3-5 .2-.6.4-.9.7-1s.8 0 1.4.1c.6.1 1.1.3 1.7.6.6.3 1.1.5 1.7.9.5.3.8.6.9.9s.1.6-.1 1c-.5 1.5-1 3-1.5 4.6zM261.2 28.5c-.5 1.6-1.1 3.3-1.6 5l-1.5 5.1c-.5 1.7-.9 3.3-1.3 4.7 0 .2-.1.4-.2.5-.1.1-.3.1-.6.1-.2 0-.5-.1-.9-.1s-.7-.2-1.1-.2c-.8-.2-1.4-.5-1.8-.8-.4-.3-.6-.8-.4-1.4.1-.6.2-1.4.3-2.2.2-.8.3-1.7.5-2.7-.8.1-1.6.2-2.3.3-.8.1-1.6.2-2.3.3-.3 1.2-.6 2.3-.7 3.4-.2 1.1-.4 2-.5 2.8-.1.3-.2.5-.4.6-.2.1-.5.1-1 0s-1-.2-1.5-.4c-.5-.1-.9-.3-1.3-.5s-.8-.4-.9-.7c-.2-.3-.2-.6-.1-1.1.3-1.2.6-2.6.8-4.2.2-1.6.5-3.3.7-5 .2-1.7.5-3.5.7-5.2.2-1.7.4-3.3.7-4.8.2-.6.4-.9.7-1 .3-.1.7-.1 1.3.1.6.2 1.3.4 2 .6.7.3 1.3.6 1.8.9.3.2.5.3.7.4s.3.3.3.4c.1.1.1.3.1.5s-.1.4-.1.6c-.3 1-.6 2.2-1 3.5-.3 1.3-.7 2.8-1.1 4.3.8-.1 1.6-.2 2.3-.2.8-.1 1.5-.1 2.2-.2.5-1.8.9-3.7 1.4-5.5.4-1.8.9-3.5 1.3-5 .2-.6.4-.9.7-1s.8 0 1.4.1c.6.1 1.1.3 1.7.6.6.3 1.1.5 1.7.9.5.3.8.6.9.9s.1.6-.1 1c-.5 1.5-1 3-1.5 4.6z"/></svg>