<svg version="1.1" id="Layer_1" xmlns="http://www.w3.org/2000/svg" x="0" y="0" viewBox="0 0 300 250" xml:space="preserve"><style>.st2{fill:#fff}</style><path d="M170.3 173.1c-2 0-3.6 1.6-3.6 3.6V198c0 2 1.6 3.6 3.6 3.6h114.4c2 0 3.6-1.6 3.6-3.6v-21.3c0-2-1.6-3.6-3.6-3.6H170.3z" fill="#f16022"/><path fill="none" d="M0-23h300v271.7H0z"/><path class="st2" d="M184.7 191.1l-.5-1.7h-3.3l-.6 1.7h-2.4l3.4-9.5h2.3l3.4 9.5h-2.3zm-2.2-7l-1.1 3.5h2.2l-1.1-3.5zM192.2 191.3c-2.8 0-4.8-2-4.8-4.9 0-3.2 2.2-5.1 5.1-5.1 2 0 3 .9 3.3 1.1l-1 1.5c-.1-.1-.9-.6-2.1-.6-1.7 0-3 1.2-3 3 0 1.6 1 3 2.7 3 1.2 0 2.2-.6 2.4-.8l1 1.5c0 .1-1.1 1.3-3.6 1.3zM201.5 183.5v7.6h-2.4v-7.6h-2.5v-1.9h7.4v1.9h-2.5zM205.1 191.1v-9.5h2.3v9.5h-2.3zM214 191.1h-2.2l-3.2-9.5h2.3l2.1 6.7 2.1-6.7h2.3l-3.4 9.5zM223.7 191.1l-.5-1.7h-3.3l-.6 1.7h-2.4l3.4-9.5h2.3l3.4 9.5h-2.3zm-2.3-7l-1.1 3.5h2.2l-1.1-3.5zM230.4 183.5v7.6H228v-7.6h-2.5v-1.9h7.4v1.9h-2.5zM234 191.1v-9.5h6v1.9h-3.7v1.9h3.4v1.8h-3.4v2h3.8v1.9H234zM250.7 191.1l-3.8-5.8.1 5.8h-2.1v-9.5h2l3.7 5.7v-5.7h2.1v9.5h-2zM258.9 191.3c-2.9 0-4.8-2.1-4.8-5.1 0-2.9 1.9-4.8 4.7-4.8 2.9 0 4.8 2.1 4.8 4.9 0 3.1-1.9 5-4.7 5zm-.1-8c-1.4 0-2.3 1.3-2.3 3.2 0 1.9 1.1 3 2.5 3 2 0 2.3-1.9 2.3-3.2 0-1.8-1-3-2.5-3zM274.6 191.1h-2.5l-1.5-6.7-1.6 6.7h-2.5l-2.2-9.5h2.3l1.2 7 1.7-7h2.3l1.6 7 1.3-7h2.1l-2.2 9.5z"/></svg>