<svg id="Layer_1" xmlns="http://www.w3.org/2000/svg" viewBox="0 0 300 250"><style>.st0{fill:#28bdef}</style><path class="st0" d="M93.9 192c-5.3 0-9.7 4.3-9.7 9.7v9.5c0 5.3 4.3 9.7 9.7 9.7H206c5.3 0 9.7-4.3 9.7-9.7v-9.5c0-5.3-4.3-9.7-9.7-9.7H93.9z"/><path d="M112 211.5h-1.5l-2.3-7.8v7.8h-1.9v-9.6h3.5l1.7 5.8 1.8-5.8h3.5v9.6h-2.2v-7.8h-.1l-2.5 7.8zM119.1 210.1c-.7-1-1-2.2-1-3.4 0-2.5 1.3-4.9 4.1-4.9 1.3 0 2.3.4 3.1 1.5.7.9 1 2.3 1 3.5 0 1.1-.3 2.4-.9 3.3-.7 1.1-1.9 1.6-3.2 1.6s-2.3-.5-3.1-1.6zm1.7-5.4c-.2.6-.3 1.4-.3 2 0 1.2.2 3.1 1.8 3.1.8 0 1.2-.4 1.4-1.1.2-.6.3-1.4.3-2 0-.7-.1-1.5-.4-2.2s-.7-.9-1.4-.9-1.1.4-1.4 1.1zM132 211.5h-2.4l-2.9-9.6h2.4l1.9 6.9 2-6.9h1.9l-2.9 9.6zM138.1 203.7v1.9h3.6v1.8h-3.6v2.1h4.6v1.9h-6.9v-9.6h6.9v1.9h-4.6zM154 211.5h-1.5l-2.3-7.8v7.8h-1.9v-9.6h3.5l1.7 5.8 1.8-5.8h3.5v9.6h-2.2v-7.8h-.1l-2.5 7.8zM161.1 210.1c-.7-1-1-2.2-1-3.4 0-2.5 1.3-4.9 4.1-4.9 1.3 0 2.3.4 3.1 1.5.7.9 1 2.3 1 3.5 0 1.1-.3 2.4-.9 3.3-.7 1.1-1.9 1.6-3.2 1.6s-2.3-.5-3.1-1.6zm1.7-5.4c-.2.6-.3 1.4-.3 2 0 1.2.2 3.1 1.8 3.1.8 0 1.2-.4 1.4-1.1.2-.6.3-1.4.3-2 0-.7-.1-1.5-.4-2.2-.3-.6-.7-.9-1.4-.9s-1.1.4-1.4 1.1zM177.2 211.5h-1.9l-3.7-6.5h-.1v6.5h-1.7v-9.6h2.4l3.2 5.6v-5.6h1.7v9.6zM181.3 203.7v1.9h3.6v1.8h-3.6v2.1h4.6v1.9H179v-9.6h6.9v1.9h-4.6zM191.6 207.4v4h-2.2v-4l-3-5.6h2.6l1.8 3.7 1.8-3.7h2l-3 5.6z"/></svg>