<svg xmlns="http://www.w3.org/2000/svg" viewBox="0 0 300 250"><path d="M154.4 206.7h-2.73c-1.38 0-2.5 1.42-2.5 2.69v-4.23c0-1.27-1.12-2.69-2.51-2.69h-2.72c-1.39 0-2.51 1.42-2.51 2.69v-2.7c0-1.27-1.12-2.69-2.5-2.69h-2.72c-1.38 0-2.5 1.42-2.5 2.69V192c0-1.96-1.73-3.55-3.87-3.55s-3.87 1.59-3.87 3.55v20.63c-2.4-1.65-5.9-4.63-9.11-3.24-2.29 1-1.77 4.07.51 6.35 3.99 3.99 8.2 11.91 9.76 16.46 2.45 7.18 3.84 10.34 3.84 10.34h20.66s2.29-7.38 4.46-11.86c.26-.53.81-1.57.81-5.16v-16.15c.01-1.25-1.11-2.67-2.5-2.67" fill="#fff"/><path d="M131.9 241.17h18.73c.7-2.17 2.49-7.49 4.22-11.08.23-.48.67-1.39.67-4.56v-16.15c0-.56-.56-1.31-1.12-1.31h-2.73c-.57 0-1.12.75-1.12 1.31 0 .76-.62 1.38-1.38 1.38-.76 0-1.38-.62-1.38-1.38v-4.23c0-.56-.56-1.31-1.12-1.31h-2.72c-.57 0-1.12.75-1.12 1.31 0 .76-.62 1.38-1.38 1.38-.76 0-1.38-.62-1.38-1.38v-2.7c0-.56-.56-1.31-1.12-1.31h-2.73c-.57 0-1.12.75-1.12 1.31 0 .76-.62 1.38-1.38 1.38-.76 0-1.38-.62-1.38-1.38V192c0-1.19-1.11-2.17-2.49-2.17-1.37 0-2.49.97-2.49 2.17v20.63c0 .51-.28.98-.74 1.22-.45.24-1 .21-1.42-.08-.28-.19-.58-.41-.9-.63-1.7-1.21-3.82-2.72-5.67-2.72-.43 0-.83.08-1.21.25-.37.16-.56.39-.62.74-.14.76.29 2.09 1.57 3.37 4.02 4.02 8.36 11.95 10.09 16.99 1.69 5 2.89 8.05 3.44 9.4m19.74 2.77h-20.66c-.55 0-1.04-.32-1.26-.82-.06-.13-1.44-3.3-3.89-10.45-1.42-4.15-5.48-11.99-9.43-15.94-1.78-1.78-2.67-4.02-2.32-5.84.24-1.25 1.03-2.23 2.23-2.76.73-.32 1.5-.48 2.31-.48 2.18 0 4.21 1.13 5.97 2.32V192c0-2.72 2.36-4.93 5.25-4.93s5.25 2.21 5.25 4.93v6.58c.35-.12.73-.19 1.12-.19h2.73c1.79 0 3.22 1.4 3.71 2.95.4-.16.84-.26 1.3-.26h2.72c2.23 0 3.89 2.15 3.89 4.07v.35c.35-.12.73-.19 1.12-.19h2.73c2.23 0 3.89 2.15 3.89 4.07v16.15c0 3.81-.6 5.05-.93 5.71-2.11 4.38-4.38 11.64-4.4 11.71-.19.59-.73.99-1.33.99"/><path d="M133.7 210.32c-.76 0-1.38-.62-1.38-1.38v-6.48c0-.76.62-1.38 1.38-1.38.76 0 1.38.62 1.38 1.38v6.48c0 .76-.61 1.38-1.38 1.38M141.44 213.02c-.76 0-1.38-.62-1.38-1.38v-6.48c0-.76.62-1.38 1.38-1.38.76 0 1.38.62 1.38 1.38v6.48c0 .76-.62 1.38-1.38 1.38M149.17 217.25c-.76 0-1.38-.62-1.38-1.38v-6.48c0-.76.62-1.38 1.38-1.38.76 0 1.38.62 1.38 1.38v6.48c0 .77-.61 1.38-1.38 1.38"/></svg>