<svg version="1.1" id="Layer_1" xmlns="http://www.w3.org/2000/svg" x="0" y="0" viewBox="0 0 300 250" xml:space="preserve"><style>.st0{fill:#349946}.st1{fill:#231f20}</style><path class="st0" d="M26.2 236.4h-2.1l-.7-2h-4.2l-.7 2h-2.1l3.7-9.8h1.5c.5 0 .9.2 1 .5.1.4 1.8 4.8 1.8 4.8h-2l-1.2-3.3-1.5 4.2H24c.6 0 .9.2 1 .7l1.2 2.9zM44.8 236.4h-2.1l-.7-2h-4.2l-.7 2H35l3.7-9.8h1.5c.5 0 .9.2 1 .5.1.4 1.8 4.8 1.8 4.8h-2l-1.2-3.3-1.5 4.2h4.3c.6 0 .9.2 1 .7l1.2 2.9zM26.9 226.6h3.9c3 0 4.5 1.6 4.5 4.9 0 1.8-.6 3.2-1.6 4-1 .8-2 .9-3.4.9H27v-9.8zm3.6 8c1.9 0 2.7-.9 2.7-3.1s-.8-3.2-2.4-3.2h-1.9v6.3h1.6z"/><path class="st1" d="M61.6 236.3H60l-.6-7-2.4 7h-1.3l-2.5-7-.6 7h-1.4l.9-9.3h1.8l2.5 7.2 2.4-7.2h1.8l1 9.3zM69.2 232.8v.5h-4.6c0 .5.1.9.4 1.3.4.4.9.6 1.5.6s1.2-.2 1.9-.5l.5 1c-.7.5-1.5.7-2.5.7s-1.9-.3-2.5-1c-.6-.6-.9-1.5-.9-2.5 0-1.1.3-1.9.9-2.6.6-.7 1.4-1 2.3-1 .9 0 1.6.3 2.2.9.5.7.8 1.5.8 2.6zm-1.5-.6c0-.4-.1-.8-.3-1.1-.3-.4-.7-.7-1.2-.7s-.9.2-1.2.5c-.3.3-.5.7-.6 1.3h3.3zM80.3 236.3h-1.5v-3.9c0-.8-.1-1.3-.3-1.5-.2-.2-.5-.3-.8-.3-.5 0-1 .2-1.5.5.1.2.1.7.1 1.5v3.6h-1.5v-3.8c0-.9-.1-1.4-.3-1.7-.2-.2-.4-.3-.8-.3-.5 0-1 .2-1.5.5v5.2h-1.5v-6.8H72v.5c.6-.5 1.3-.7 2-.7s1.3.3 1.7.8c.8-.5 1.5-.8 2.3-.8.7 0 1.3.2 1.7.6.3.3.5.8.6 1.3.1.3.1.9.1 1.7v3.6zM88.3 232.8c0 1.1-.3 2-1 2.7-.7.7-1.5 1-2.6 1-.8 0-1.6-.2-2.7-.5v-9.8h1.5v3.6c.5-.3 1.1-.5 1.7-.5.9 0 1.6.3 2.1.9.7.7 1 1.5 1 2.6zm-1.6 0c0-.7-.2-1.2-.5-1.6-.3-.4-.7-.6-1.2-.6s-1 .2-1.4.5v4c.4.1.8.2 1.1.2.6 0 1.1-.2 1.5-.7.3-.5.5-1.1.5-1.8zM95.6 232.8v.5H91c0 .5.1.9.4 1.3.4.4.9.6 1.5.6s1.2-.2 1.9-.5l.5 1c-.7.5-1.5.7-2.5.7s-1.9-.3-2.5-1c-.6-.6-.9-1.5-.9-2.5 0-1.1.3-1.9.9-2.6.6-.7 1.4-1 2.3-1 .9 0 1.6.3 2.2.9.5.7.8 1.5.8 2.6zm-1.5-.6c0-.4-.1-.8-.3-1.1-.3-.4-.7-.7-1.2-.7s-.9.2-1.2.5c-.3.3-.5.7-.6 1.3h3.3zM101.3 229.5l-.3 1.2h-.5c-.8 0-1.5.3-2 1v4.7H97v-6.8h1.3v.9c.1-.2.3-.4.6-.6.5-.3 1-.5 1.6-.5.4-.1.6 0 .8.1z"/><g><path class="st1" d="M106.9 234.4c0 .7-.2 1.2-.7 1.6s-1.1.6-1.9.6c-.6 0-1.2-.1-1.8-.3-.3-.1-.6-.3-.7-.4l.5-1c.7.4 1.3.5 1.8.5.4 0 .7-.1.9-.2s.3-.4.3-.6c0-.2-.1-.4-.4-.6-.1-.1-.5-.3-1.1-.5-.5-.2-.9-.5-1.2-.7-.4-.4-.6-.8-.6-1.4 0-.6.2-1.1.7-1.5.5-.4 1.1-.6 1.8-.6 1 0 1.7.2 2.2.6l-.5 1c-.5-.3-1.1-.5-1.6-.5-.7 0-1.1.3-1.1.8 0 .2.1.4.3.6.1.1.4.2.9.4.7.3 1.2.5 1.4.7.6.4.8.9.8 1.5zM113.6 236.3H112V227h1.6v9.3zM121.4 236.3h-1.5v-3.7c0-.9-.1-1.5-.3-1.7-.2-.2-.5-.3-.9-.3-.5 0-1 .2-1.5.5v5.2h-1.5v-6.8h1.3v.5c.6-.5 1.3-.7 2-.7s1.3.2 1.7.6c.3.3.5.7.6 1.2.1.3.1.7.1 1.4v3.8zM127.6 234.4c0 .7-.2 1.2-.7 1.6s-1.1.6-1.9.6c-.6 0-1.2-.1-1.8-.3-.3-.1-.6-.3-.7-.4l.5-1c.7.4 1.3.5 1.8.5.4 0 .7-.1.9-.2s.3-.4.3-.6c0-.2-.1-.4-.4-.6-.1-.1-.5-.3-1.1-.5-.5-.2-.9-.5-1.2-.7-.4-.4-.6-.8-.6-1.4 0-.6.2-1.1.7-1.5.5-.4 1.1-.6 1.8-.6 1 0 1.7.2 2.2.6l-.5 1c-.5-.3-1.1-.5-1.6-.5-.7 0-1.1.3-1.1.8 0 .2.1.4.3.6.1.1.4.2.9.4.7.3 1.2.5 1.4.7.6.4.8.9.8 1.5zM134.9 236.3h-1.3v-.5c-.6.5-1.3.7-2 .7s-1.3-.2-1.7-.6c-.3-.3-.5-.7-.6-1.2-.1-.3-.1-.7-.1-1.4v-3.8h1.5V234.1c0 .4.2.7.4.8.2.2.5.2.8.2.4 0 .9-.2 1.5-.5v-5.2h1.5v6.9zM141 229.5l-.3 1.2h-.5c-.8 0-1.5.3-2 1v4.7h-1.5v-6.8h1.3v.9c.1-.2.3-.4.6-.6.5-.3 1-.5 1.6-.5.3-.1.6 0 .8.1z"/></g><g><path class="st1" d="M147 236.3h-1.3v-.5c-.7.4-1.3.6-2 .6s-1.2-.2-1.6-.6c-.4-.4-.6-.9-.6-1.6 0-1.6 1.3-2.4 3.8-2.4h.3v-.3c0-.4-.1-.7-.2-.9-.2-.2-.6-.3-1.1-.3-.6 0-1.2.2-1.8.5l-.5-1c.2-.1.4-.3.7-.4.5-.2 1.1-.3 1.8-.3.9 0 1.6.2 2.1.7.2.2.4.5.5.9 0 .2.1.6.1 1.2v4.4zm-1.4-1.5V233h-.3c-1.1 0-1.8.2-2.1.5-.2.2-.3.4-.3.7 0 .3.1.6.3.8s.5.3.9.3.9-.2 1.5-.5zM154.5 236.3H153v-3.7c0-.9-.1-1.5-.3-1.7s-.5-.3-.9-.3c-.5 0-1 .2-1.5.5v5.2h-1.5v-6.8h1.3v.5c.6-.5 1.3-.7 2-.7s1.3.2 1.7.6c.3.3.5.7.6 1.2.1.3.1.7.1 1.4v3.8zM161.7 235.7c-.1.1-.3.3-.7.4-.6.3-1.2.4-1.8.4-1 0-1.8-.3-2.5-1-.6-.6-.9-1.5-.9-2.5 0-1.1.3-2 1-2.6.7-.7 1.5-1 2.5-1 .6 0 1.1.1 1.6.3.3.2.6.3.7.4l-.6 1c-.5-.3-1-.5-1.5-.5-.6 0-1.1.2-1.5.7-.4.4-.5 1-.5 1.6 0 .7.2 1.2.5 1.7.4.4.9.6 1.5.6.5 0 1.1-.2 1.7-.5l.5 1z"/></g><g><path class="st1" d="M168.6 232.8v.5H164c0 .5.1.9.4 1.3.4.4.9.6 1.5.6s1.2-.2 1.9-.5l.5 1c-.7.5-1.5.7-2.5.7s-1.9-.3-2.5-1c-.6-.6-.9-1.5-.9-2.5 0-1.1.3-1.9.9-2.6s1.4-1 2.3-1c.9 0 1.6.3 2.2.9.5.7.8 1.5.8 2.6zm-1.5-.6c0-.4-.1-.8-.3-1.1-.3-.4-.7-.7-1.2-.7s-.9.2-1.2.5c-.3.3-.5.7-.6 1.3h3.3zM179.8 229.8c0 .9-.3 1.5-.8 2.1-.4.4-.9.6-1.4.8-.3.1-.9.1-1.7.1h-.7v3.6h-1.6V227h2.5c.8 0 1.3 0 1.7.1.5.1 1 .3 1.3.7.4.5.7 1.2.7 2zm-1.6 0c0-.5-.1-.9-.4-1.2-.3-.3-.8-.4-1.7-.4h-.9v3.2h.7c1 0 1.7-.1 1.9-.4.2-.2.4-.6.4-1.2zM183 236.3h-1.5v-10.1h1.5v10.1zM190 236.3h-1.3v-.5c-.7.4-1.3.6-2 .6s-1.2-.2-1.6-.6c-.4-.4-.6-.9-.6-1.6 0-1.6 1.3-2.4 3.8-2.4h.3v-.3c0-.4-.1-.7-.2-.9-.2-.2-.6-.3-1.1-.3-.6 0-1.2.2-1.8.5l-.5-1c.2-.1.4-.3.7-.4.5-.2 1.1-.3 1.8-.3.9 0 1.6.2 2.1.7.2.2.4.5.5.9 0 .2.1.6.1 1.2v4.4zm-1.5-1.5V233h-.3c-1.1 0-1.8.2-2.1.5-.2.2-.3.4-.3.7 0 .3.1.6.3.8.2.2.5.3.9.3s.9-.2 1.5-.5zM197.4 236.3h-1.5v-3.7c0-.9-.1-1.5-.3-1.7-.2-.2-.5-.3-.9-.3-.5 0-1 .2-1.5.5v5.2h-1.5v-6.8h1.3v.5c.6-.5 1.3-.7 2-.7s1.3.2 1.7.6c.3.3.5.7.6 1.2.1.3.1.7.1 1.4v3.8zM203.7 234.4c0 .7-.2 1.2-.7 1.6-.5.4-1.1.6-1.9.6-.6 0-1.2-.1-1.8-.3-.3-.1-.6-.3-.7-.4l.5-1c.7.4 1.3.5 1.8.5.4 0 .7-.1.9-.2s.3-.4.3-.6c0-.2-.1-.4-.4-.6-.1-.1-.5-.3-1.1-.5-.5-.2-.9-.5-1.2-.7-.4-.4-.6-.8-.6-1.4 0-.6.2-1.1.7-1.5.5-.4 1.1-.6 1.8-.6 1 0 1.7.2 2.2.6l-.5 1c-.5-.3-1.1-.5-1.6-.5-.7 0-1.1.3-1.1.8 0 .2.1.4.3.6.1.1.4.2.9.4.7.3 1.2.5 1.4.7.6.4.8.9.8 1.5z"/></g></svg>