<svg xmlns="http://www.w3.org/2000/svg" xmlns:xlink="http://www.w3.org/1999/xlink" viewBox="0 0 300 250"><path d="M64.28 198.43c15.29 0 27.68-12.39 27.68-27.68s-12.39-27.68-27.68-27.68-27.68 12.4-27.68 27.68c0 15.29 12.39 27.68 27.68 27.68" fill="#fff"/><path d="M64.28 198.43c15.29 0 27.68-12.39 27.68-27.68s-12.39-27.68-27.68-27.68-27.68 12.4-27.68 27.68c0 15.29 12.39 27.68 27.68 27.68z" fill="none" stroke="#000" stroke-width="5.695"/><defs><path id="a" d="M49.18 167.29h30.19v11.61H49.18z"/></defs><clipPath id="b"><use xlink:href="#a" overflow="visible"/></clipPath><path d="M76.84 168.99H51.71c-1.4 0-2.53 1.13-2.53 2.53s1.13 2.53 2.53 2.53h25.13c1.4 0 2.53-1.13 2.53-2.53s-1.13-2.53-2.53-2.53" clip-path="url(#b)"/></svg>