<svg xmlns="http://www.w3.org/2000/svg" viewBox="0 0 148.2 127.9"><path d="M69 100.8c0-1.6 0-3.2-.1-4.8 2.6 10.6 2.8 18.3 1.5 25.3 9.8-5.1 15.2-14.1 17.8-28.5.1 2.5 0 5-.3 7.3 32.3-4.3 56.8-24.4 56.8-48.6C144.7 24.2 113.4 2 74.9 2c-38.7.1-70 22.3-70 49.6 0 25.9 28.2 47.2 64.1 49.2M0 52.5C0 23.5 33.2 0 74.1 0s74.1 23.5 74.1 52.5c0 25.8-26.4 47.3-61.1 51.7-2.3 10.2-8.8 18.6-21.7 23.8 2.4-7.7 3.4-15.1 3.6-23.1-38.6-2-69-24.7-69-52.4"/><path d="M4.9 51.6c0 25.9 28.2 47.2 64 49.3 0-1.6 0-3.2-.1-4.8 2.6 10.6 2.8 18.3 1.5 25.3 9.8-5.1 15.2-14.1 17.8-28.5.1 2.5 0 5-.3 7.3 32.3-4.3 56.8-24.4 56.8-48.6 0-27.3-31.3-49.5-69.8-49.5-38.6 0-69.9 22.2-69.9 49.5" fill="#fff"/></svg>