<svg version="1.1" id="Layer_1" xmlns="http://www.w3.org/2000/svg" x="0" y="0" viewBox="0 0 300 250" xml:space="preserve"><style>.st0{fill:#fff}</style><path class="st0" d="M26 118.3l-.9-2.7h-4.6l-.9 2.7h-2.8l4.7-12.8h2.7l4.7 12.8H26zm-3.3-10l-1.6 5.2h3.2l-1.6-5.2zM34.3 118.6c-3 0-4.9-2.1-4.9-4.9 0-2.9 2.2-5.1 5-5.1 2 0 3.1 1 3.3 1.2l-1 1.6c-.1-.1-.9-.7-2-.7-1.7 0-2.7 1.5-2.7 2.9 0 1.7.8 2.9 2.6 2.9 1.2 0 2.2-.7 2.3-.7l1 1.7c-.1-.1-1.4 1.1-3.6 1.1zM43.6 118.6c-.8 0-1.8-.2-2.4-.8-.8-.8-.8-1.7-.8-3V111h-1.6v-2.2h1.6v-2.6H43v2.6h2.7v2.2H43v3.8c0 .8.1 1.6 1.2 1.6.6 0 1-.2 1.2-.2l.7 1.8c-.2 0-1.1.6-2.5.6zM48.9 107.6c-.8 0-1.5-.7-1.5-1.5s.7-1.5 1.5-1.5 1.5.7 1.5 1.5c0 .9-.7 1.5-1.5 1.5zm-1.3 10.7v-9.5h2.6v9.5h-2.6zM57.5 118.3H55l-3.6-9.5h2.7l2.3 6.6 2.2-6.6h2.5l-3.6 9.5zM67.6 118.3v-.7c-.2.1-1.2.9-2.7.9-1.9 0-3.1-1.3-3.1-3 0-3.4 4.1-3.4 5.3-3.4h.3c0-.6 0-.8-.3-1.1-.2-.2-.6-.4-1.3-.4-1.3 0-2.4.6-2.5.7l-.9-1.7c.1-.1 1.4-1 3.6-1 .8 0 2.2.1 3.1 1.1.8.8.8 1.8.8 3v5.7h-2.3zm-.1-4.5h-.4c-1.7 0-2.9.3-2.9 1.5 0 1 .8 1.3 1.5 1.3 1.1 0 1.7-.5 1.8-.6v-2.2zM76 118.6c-.8 0-1.8-.2-2.4-.8-.8-.8-.8-1.7-.8-3V111h-1.6v-2.2h1.6v-2.6h2.6v2.6h2.7v2.2h-2.7v3.8c0 .8.1 1.6 1.2 1.6.6 0 1-.2 1.2-.2l.7 1.8c-.2 0-1.1.6-2.5.6zM88.2 114.4H82c0 .7.5 2.1 2.4 2.1 1.2 0 2.1-.5 2.5-.7l.8 1.7c-.1.1-1.5 1-3.6 1-3.1 0-4.7-2.2-4.7-4.9 0-2.9 1.8-5.1 4.5-5.1 2.8 0 4.3 2 4.3 5v.9zm-4.2-3.9c-1.2 0-1.9.9-2.1 2.1h3.9c0-.6-.2-2.1-1.8-2.1zM100 118.4c-.7 1.9-1.2 2.7-1.8 3.4-.4.4-1.2 1-2.8 1-1.4 0-2.3-.6-2.4-.6l.8-1.8c.1.1.7.3 1.5.3.6 0 1-.2 1.3-.5.5-.5.8-1.5.9-1.9l-4-9.5h2.8l2.5 6.6 2.4-6.6h2.6l-3.8 9.6zM109 118.6c-2.8 0-4.7-2-4.7-4.9 0-2.9 2-5.1 4.9-5.1 2.8 0 4.7 2.1 4.7 4.9.1 3-1.9 5.1-4.9 5.1zm.1-7.9c-1.3 0-2.2 1.1-2.2 2.8 0 1.7.9 2.9 2.3 2.9 1.3 0 2.2-1.1 2.2-2.8 0-1.8-1-2.9-2.3-2.9zM121.7 118.3v-.7c-.2.1-1.3 1-2.7 1-1 0-1.8-.3-2.5-.9-1.1-1.1-1-2.5-1-3.7v-5.1h2.6v5c0 1.2.1 1.8.4 2.2.1.1.4.3 1 .3.8 0 1.6-.5 1.8-.6v-6.9h2.6v9.5h-2.2zM132 110.8c-.1 0-.4-.1-.6-.1-1.6 0-2.4.9-2.7 1.4v6.2h-2.6v-9.5h2.2v1.2c.1-.1 1.3-1.5 3.1-1.5.7 0 1 .2 1.1.2l-.5 2.1zM144.1 118.3v-5c0-1.2-.1-1.8-.4-2.2-.1-.1-.4-.3-1-.3-.8 0-1.6.5-1.8.6v6.9h-2.6v-9.5h2.2v.7c.2-.1 1.3-1 2.7-1 1 0 1.8.3 2.5.9 1.1 1.1 1 2.5 1 3.7v5.1h-2.6zM153 118.6c-2.8 0-4.7-2-4.7-4.9 0-2.9 2-5.1 4.9-5.1 2.8 0 4.7 2.1 4.7 4.9.1 3-1.9 5.1-4.9 5.1zm.1-7.9c-1.3 0-2.2 1.1-2.2 2.8 0 1.7.9 2.9 2.3 2.9 1.3 0 2.2-1.1 2.2-2.8 0-1.8-1-2.9-2.3-2.9zM160.1 114.3v-2.2h6.7v2.2h-6.7zM173.8 118.6c-3 0-4.9-2.1-4.9-4.9 0-2.9 2.2-5.1 5-5.1 2 0 3.1 1 3.3 1.2l-1 1.6c-.1-.1-.9-.7-2-.7-1.7 0-2.7 1.5-2.7 2.9 0 1.7.8 2.9 2.6 2.9 1.2 0 2.2-.7 2.3-.7l1 1.7c-.1-.1-1.4 1.1-3.6 1.1zM182.8 118.6c-2.8 0-4.7-2-4.7-4.9 0-2.9 2-5.1 4.9-5.1 2.8 0 4.7 2.1 4.7 4.9 0 3-2 5.1-4.9 5.1zm.1-7.9c-1.3 0-2.2 1.1-2.2 2.8 0 1.7.9 2.9 2.3 2.9 1.3 0 2.2-1.1 2.2-2.8-.1-1.8-1-2.9-2.3-2.9zM192.4 118.6c-2.2 0-3.6-1-3.7-1.1l.9-1.7c.2.1 1.3.8 2.5.8s1.5-.5 1.5-.9c0-.6-.5-.8-2-1.4-.8-.3-2.3-.9-2.3-2.8 0-1.8 1.5-3 3.7-3 2.1 0 3.1.8 3.1.8l-.8 1.6c-.1-.1-1.2-.6-2.2-.6s-1.3.5-1.3.9c0 .6.7.8 1.7 1.2 1.3.5 2.7 1.1 2.7 3-.1 2-1.5 3.2-3.8 3.2zM202.1 118.6c-.8 0-1.8-.2-2.4-.8-.8-.8-.8-1.7-.8-3V111h-1.6v-2.2h1.6v-2.6h2.6v2.6h2.7v2.2h-2.7v3.8c0 .8.1 1.6 1.2 1.6.6 0 1-.2 1.2-.2l.7 1.8c-.2 0-1.1.6-2.5.6z"/><g><path class="st0" d="M18.9 127.9c-.8 0-1.5-.7-1.5-1.5s.7-1.5 1.5-1.5 1.5.7 1.5 1.5-.7 1.5-1.5 1.5zm-1.3 10.7v-9.5h2.6v9.5h-2.6zM28.2 138.6v-5c0-1.2-.1-1.8-.4-2.2-.1-.1-.4-.3-1-.3-.8 0-1.6.5-1.8.6v6.9h-2.6v-9.5h2.2v.7c.2-.1 1.3-1 2.7-1 1 0 1.8.3 2.5.9 1.1 1.1 1 2.5 1 3.7v5.1h-2.6zM35.9 138.8c-2.2 0-3.6-1-3.7-1.1l.9-1.7c.2.1 1.3.8 2.5.8s1.5-.5 1.5-.9c0-.6-.5-.8-2-1.4-.8-.3-2.3-.9-2.3-2.8 0-1.8 1.5-3 3.7-3 2.1 0 3.1.8 3.1.8l-.8 1.6c-.1-.1-1.2-.6-2.2-.6s-1.3.5-1.3.9c0 .6.7.8 1.7 1.2 1.3.5 2.7 1.1 2.7 3-.1 2.1-1.5 3.2-3.8 3.2zM47.5 138.6v-.7c-.2.1-1.3 1-2.7 1-1 0-1.8-.3-2.5-.9-1.1-1.1-1-2.5-1-3.7v-5.1h2.6v5c0 1.2.1 1.8.4 2.2.1.1.4.3 1 .3.8 0 1.6-.5 1.8-.6v-6.9h2.6v9.5h-2.2zM57.8 131c-.1 0-.4-.1-.6-.1-1.6 0-2.4.9-2.7 1.4v6.2H52V129h2.2v1.2c.1-.1 1.3-1.5 3.1-1.5.7 0 1 .2 1.1.3l-.6 2zM64.9 138.6v-.7c-.2.1-1.2.9-2.7.9-1.9 0-3.1-1.3-3.1-3 0-3.4 4.1-3.4 5.3-3.4h.3c0-.6 0-.8-.3-1.1-.2-.2-.6-.4-1.3-.4-1.3 0-2.4.6-2.5.7l-.9-1.7c.1-.1 1.4-1 3.6-1 .8 0 2.2.1 3.1 1.1.8.8.8 1.8.8 3v5.7h-2.3zm-.2-4.5h-.4c-1.7 0-2.9.3-2.9 1.5 0 1 .8 1.3 1.5 1.3 1.1 0 1.7-.5 1.8-.6v-2.2zM75 138.6v-5c0-1.2-.1-1.8-.4-2.2-.1-.1-.4-.3-1-.3-.8 0-1.6.5-1.8.6v6.9h-2.6v-9.5h2.2v.7c.2-.1 1.3-1 2.7-1 1 0 1.8.3 2.5.9 1.1 1.1 1 2.5 1 3.7v5.1H75zM84.1 138.8c-3 0-4.9-2.1-4.9-4.9 0-2.9 2.2-5.1 5-5.1 2 0 3.1 1 3.3 1.2l-1 1.6c-.1-.1-.9-.7-2-.7-1.7 0-2.7 1.5-2.7 2.8 0 1.7.8 2.9 2.6 2.9 1.2 0 2.2-.7 2.3-.7l1 1.7c0 .1-1.4 1.2-3.6 1.2zM97.2 134.7H91c0 .7.5 2.1 2.4 2.1 1.2 0 2.1-.5 2.5-.7l.8 1.7c-.1.1-1.5 1-3.6 1-3.1 0-4.7-2.2-4.7-4.9 0-2.9 1.8-5.1 4.5-5.1 2.8 0 4.3 2 4.3 5v.9zm-4.2-4c-1.2 0-1.9.9-2.1 2.1h3.9c0-.5-.2-2.1-1.8-2.1zM109.1 138.6v-5c0-1.2-.1-1.8-.4-2.2-.1-.1-.4-.3-1-.3-.8 0-1.6.5-1.8.6v6.9h-2.6v-9.5h2.2v.7c.2-.1 1.3-1 2.7-1 1 0 1.8.3 2.5.9 1.1 1.1 1 2.5 1 3.7v5.1h-2.6zM118.1 138.8c-2.8 0-4.7-2-4.7-4.9 0-2.9 2-5.1 4.9-5.1 2.8 0 4.7 2.1 4.7 4.9 0 3.1-2 5.1-4.9 5.1zm.1-7.8c-1.3 0-2.2 1.1-2.2 2.8 0 1.7.9 2.9 2.3 2.9 1.3 0 2.2-1.1 2.2-2.8-.1-1.8-1-2.9-2.3-2.9zM135 138.6h-2.7l-1.7-6.5-1.6 6.5h-2.6l-2.5-9.5h2.5l1.5 6.6 1.7-6.6h2.3l1.7 6.6 1.6-6.6h2.4l-2.6 9.5zM140.1 138.7c-.9 0-1.6-.7-1.6-1.6s.7-1.6 1.6-1.6 1.6.7 1.6 1.6-.8 1.6-1.6 1.6zM156.6 138.6l-.9-2.7H151l-.9 2.7h-2.8l4.7-12.8h2.7l4.7 12.8h-2.8zm-3.3-10l-1.6 5.2h3.2l-1.6-5.2zM166.5 138.6v-5c0-1.2-.1-1.8-.4-2.2-.1-.1-.4-.3-1-.3-.8 0-1.6.5-1.8.6v6.9h-2.6v-9.5h2.2v.7c.2-.1 1.3-1 2.7-1 1 0 1.8.3 2.5.9 1.1 1.1 1 2.5 1 3.7v5.1h-2.6zM177.6 138.6v-.6c-.1.1-1 .8-2.5.8-2.6 0-4.3-2-4.3-4.9 0-3.1 2.2-5.1 4.6-5.1 1.1 0 1.8.3 1.9.4v-4.6h2.6v13.9h-2.3zm-.4-7.3c-.1 0-.7-.4-1.4-.4-1.4 0-2.4 1-2.4 2.9 0 1.8 1 2.8 2.3 2.8.8 0 1.5-.4 1.6-.5v-4.8zM197.5 138.6v-5.2c0-1.1 0-2.3-1.3-2.3-.8 0-1.6.6-1.7.7.1.4.1.5.1 2.1v4.8H192v-5.2c0-1.1 0-2.3-1.3-2.3-.8 0-1.5.4-1.6.5v7h-2.6v-9.5h2.2v.7c.2-.1 1.2-1 2.7-1 1.5 0 2.1.8 2.3 1 .2-.1 1.4-1 3-1 .8 0 1.8.2 2.4.9 1.1 1.1 1.1 2.7 1.1 4.9v4h-2.7zM207.4 138.6v-.7c-.2.1-1.2.9-2.7.9-1.9 0-3.1-1.3-3.1-3 0-3.4 4.1-3.4 5.3-3.4h.3c0-.6 0-.8-.3-1.1-.2-.2-.6-.4-1.3-.4-1.3 0-2.4.6-2.5.7l-.9-1.7c.1-.1 1.4-1 3.6-1 .8 0 2.2.1 3.1 1.1.8.8.8 1.8.8 3v5.7h-2.3zm-.1-4.5h-.4c-1.7 0-2.9.3-2.9 1.5 0 1 .8 1.3 1.5 1.3 1.1 0 1.7-.5 1.8-.6v-2.2zM217.8 138.6l-3.4-4.4v4.4h-2.6v-13.9h2.6v7.9l3.4-3.5h3l-4.2 4.2 4.2 5.3h-3zM229.9 134.7h-6.2c0 .7.5 2.1 2.4 2.1 1.2 0 2.1-.5 2.5-.7l.8 1.7c-.1.1-1.5 1-3.6 1-3.1 0-4.7-2.2-4.7-4.9 0-2.9 1.8-5.1 4.5-5.1 2.8 0 4.3 2 4.3 5 .1.5 0 .7 0 .9zm-4.1-4c-1.2 0-1.9.9-2.1 2.1h3.9c0-.5-.2-2.1-1.8-2.1z"/></g><g><path class="st0" d="M20.6 159.1c-2.2 0-3.6-1-3.7-1.1l.9-1.7c.2.1 1.3.8 2.5.8s1.5-.5 1.5-.9c0-.6-.5-.8-2-1.4-.8-.3-2.3-.9-2.3-2.8 0-1.8 1.5-3 3.7-3 2.1 0 3.1.8 3.1.8l-.8 1.6c-.1-.1-1.2-.6-2.2-.6s-1.3.5-1.3.9c0 .6.7.8 1.7 1.2 1.3.5 2.7 1.1 2.7 3 0 2-1.5 3.2-3.8 3.2zM32.3 158.8v-.7c-.2.1-1.3 1-2.7 1-1 0-1.8-.3-2.5-.9-1.1-1.1-1-2.5-1-3.7v-5.1h2.6v5c0 1.2.1 1.8.4 2.2.1.1.4.3 1 .3.8 0 1.6-.5 1.8-.6v-6.9h2.6v9.5h-2.2zM42.5 151.3c-.1 0-.4-.1-.6-.1-1.6 0-2.4.9-2.7 1.4v6.2h-2.6v-9.5h2.2v1.2c.1-.1 1.3-1.5 3.1-1.5.7 0 1 .2 1.1.3l-.5 2zM52.4 155h-6.2c0 .7.5 2.1 2.4 2.1 1.2 0 2.1-.5 2.5-.7l.8 1.7c-.1.1-1.5 1-3.6 1-3.1 0-4.7-2.2-4.7-4.9 0-2.9 1.8-5.1 4.5-5.1 2.8 0 4.3 2 4.3 5v.9zm-4.2-4c-1.2 0-1.9.9-2.1 2.1H50c0-.5-.2-2.1-1.8-2.1zM64.3 158.9c-.7 1.9-1.2 2.7-1.8 3.4-.4.4-1.2 1-2.8 1-1.4 0-2.3-.6-2.4-.6l.8-1.8c.1.1.7.3 1.5.3.6 0 1-.2 1.3-.5.5-.5.8-1.5.9-1.9l-4-9.5h2.8l2.5 6.6 2.4-6.6H68l-3.7 9.6zM73.3 159.1c-2.8 0-4.7-2-4.7-4.9 0-2.9 2-5.1 4.9-5.1 2.8 0 4.7 2.1 4.7 4.9 0 3-2 5.1-4.9 5.1zm.1-7.9c-1.3 0-2.2 1.1-2.2 2.8 0 1.7.9 2.9 2.3 2.9 1.3 0 2.2-1.1 2.2-2.8-.1-1.7-1-2.9-2.3-2.9zM86 158.8v-.7c-.2.1-1.3 1-2.7 1-1 0-1.8-.3-2.5-.9-1.1-1.1-1-2.5-1-3.7v-5.1h2.6v5c0 1.2.1 1.8.4 2.2.1.1.4.3 1 .3.8 0 1.6-.5 1.8-.6v-6.9h2.6v9.5H86zM92.4 150c-.3.3-.7.7-1.1.9l-1.5-1.3.3-.3c1.3-1.3 1.3-2.7 1.3-3.3h2.7c0 1.4-.3 2.5-1.7 4zM101 151.3c-.1 0-.4-.1-.6-.1-1.6 0-2.4.9-2.7 1.4v6.2h-2.6v-9.5h2.2v1.2c.1-.1 1.3-1.5 3.1-1.5.7 0 1 .2 1.1.3l-.5 2zM110.8 155h-6.2c0 .7.5 2.1 2.4 2.1 1.2 0 2.1-.5 2.5-.7l.8 1.7c-.1.1-1.5 1-3.6 1-3.1 0-4.7-2.2-4.7-4.9 0-2.9 1.8-5.1 4.5-5.1 2.8 0 4.3 2 4.3 5 .1.4 0 .7 0 .9zm-4.1-4c-1.2 0-1.9.9-2.1 2.1h3.9c0-.5-.2-2.1-1.8-2.1zM121.5 159.1c-1.1 0-1.8-.3-1.9-.4v4.3H117v-13.7h2.3v.6c.1-.1 1-.8 2.5-.8 2.6 0 4.3 2 4.3 4.9 0 3.1-2.2 5.1-4.6 5.1zm-.3-7.9c-.8 0-1.5.4-1.6.5v4.9c.1 0 .7.4 1.4.4 1.4 0 2.4-1 2.4-2.9.1-1.9-1-2.9-2.2-2.9zM133.7 151.3c-.1 0-.4-.1-.6-.1-1.6 0-2.4.9-2.7 1.4v6.2h-2.6v-9.5h2.2v1.2c.1-.1 1.3-1.5 3.1-1.5.7 0 1 .2 1.1.3l-.5 2zM139.5 159.1c-2.8 0-4.7-2-4.7-4.9 0-2.9 2-5.1 4.9-5.1 2.8 0 4.7 2.1 4.7 4.9 0 3-2 5.1-4.9 5.1zm.1-7.9c-1.3 0-2.2 1.1-2.2 2.8 0 1.7.9 2.9 2.3 2.9 1.3 0 2.2-1.1 2.2-2.8-.1-1.7-1-2.9-2.3-2.9zM150.2 159.1c-.8 0-1.8-.2-2.4-.8-.8-.8-.8-1.7-.8-3v-3.7h-1.6v-2.2h1.6v-2.6h2.6v2.6h2.7v2.2h-2.7v3.8c0 .8.1 1.6 1.2 1.6.6 0 1-.2 1.2-.2l.7 1.8c-.2 0-1.1.5-2.5.5zM162.3 155h-6.2c0 .7.5 2.1 2.4 2.1 1.2 0 2.1-.5 2.5-.7l.8 1.7c-.1.1-1.5 1-3.6 1-3.1 0-4.7-2.2-4.7-4.9 0-2.9 1.8-5.1 4.5-5.1 2.8 0 4.3 2 4.3 5 .1.4 0 .7 0 .9zm-4.1-4c-1.2 0-1.9.9-2.1 2.1h3.9c0-.5-.2-2.1-1.8-2.1zM168.5 159.1c-3 0-4.9-2.1-4.9-4.9 0-2.9 2.2-5.1 5-5.1 2 0 3.1 1 3.3 1.2l-1 1.6c-.1-.1-.9-.7-2-.7-1.7 0-2.7 1.5-2.7 2.8 0 1.7.8 2.9 2.6 2.9 1.2 0 2.2-.7 2.3-.7l1 1.7c0 .1-1.3 1.2-3.6 1.2zM177.8 159.1c-.8 0-1.8-.2-2.4-.8-.8-.8-.8-1.7-.8-3v-3.7H173v-2.2h1.6v-2.6h2.6v2.6h2.7v2.2h-2.7v3.8c0 .8.1 1.6 1.2 1.6.6 0 1-.2 1.2-.2l.7 1.8c-.1 0-1 .5-2.5.5zM190 155h-6.2c0 .7.5 2.1 2.4 2.1 1.2 0 2.1-.5 2.5-.7l.8 1.7c-.1.1-1.5 1-3.6 1-3.1 0-4.7-2.2-4.7-4.9 0-2.9 1.8-5.1 4.5-5.1 2.8 0 4.3 2 4.3 5v.9zm-4.2-4c-1.2 0-1.9.9-2.1 2.1h3.9c0-.5-.2-2.1-1.8-2.1zM198.2 158.8v-.6c-.1.1-1 .8-2.5.8-2.6 0-4.3-2-4.3-4.9 0-3.1 2.2-5.1 4.6-5.1 1.1 0 1.8.3 1.9.4v-4.6h2.6v13.9h-2.3zm-.3-7.2c-.1 0-.7-.4-1.4-.4-1.4 0-2.4 1-2.4 2.9 0 1.8 1 2.8 2.3 2.8.8 0 1.5-.4 1.6-.5v-4.8zM204.3 159c-.9 0-1.6-.7-1.6-1.6s.7-1.6 1.6-1.6c.9 0 1.6.7 1.6 1.6s-.7 1.6-1.6 1.6z"/></g></svg>