<svg version="1.1" id="Layer_1" xmlns="http://www.w3.org/2000/svg" x="0" y="0" viewBox="0 0 300 250" xml:space="preserve"><style>.st0{fill:#fff}</style><path class="st0" d="M131.8 119.1c-1.2 1.2-2.8 1.3-4.6 1.3h-3.6v-12.8h4.2c1.5 0 2.8.1 3.7 1 .8.8 1 1.6 1 2.5 0 2.2-1.5 2.7-1.8 2.8.3.1 2.2.5 2.2 2.7-.1 1.1-.5 2-1.1 2.5zm-4.2-9.4h-1.4v3.2h.4c1.5 0 3.2.2 3.2-1.6-.1-1.7-1.4-1.6-2.2-1.6zm2 5.7c-.5-.5-1-.5-2.2-.5h-1.3v3.3h1.5c1.3 0 1.7-.2 2-.6.3-.3.4-.7.4-1.1 0-.4-.1-.8-.4-1.1zM140.8 120.4v-.7c-.2.1-1.3 1-2.7 1-1 0-1.8-.3-2.5-.9-1.1-1.1-1-2.5-1-3.7V111h2.6v5c0 1.2.1 1.8.4 2.2.1.1.4.3 1 .3.8 0 1.6-.5 1.8-.6V111h2.6v9.5h-2.2zM149.4 120.6c-.8 0-1.8-.2-2.4-.8-.8-.8-.8-1.7-.8-3v-3.7h-1.6v-2.2h1.6v-2.6h2.6v2.6h2.7v2.2h-2.7v3.8c0 .8.1 1.6 1.2 1.6.6 0 1-.2 1.2-.2l.7 1.8c-.2 0-1.1.5-2.5.5zM163.5 120.5c-.7 1.9-1.2 2.7-1.8 3.4-.4.4-1.2 1-2.8 1-1.4 0-2.3-.6-2.4-.6l.8-1.8c.1.1.7.3 1.5.3.6 0 1-.2 1.3-.5.5-.5.8-1.5.9-1.9l-4-9.5h2.8l2.5 6.6 2.4-6.6h2.6l-3.8 9.6zM172.5 120.6c-2.8 0-4.7-2-4.7-4.9 0-2.9 2-5.1 4.9-5.1 2.8 0 4.7 2.1 4.7 4.9.1 3.1-1.9 5.1-4.9 5.1zm.1-7.8c-1.3 0-2.2 1.1-2.2 2.8 0 1.7.9 2.9 2.3 2.9 1.3 0 2.2-1.1 2.2-2.8 0-1.8-.9-2.9-2.3-2.9zM185.3 120.4v-.7c-.2.1-1.3 1-2.7 1-1 0-1.8-.3-2.5-.9-1.1-1.1-1-2.5-1-3.7V111h2.6v5c0 1.2.1 1.8.4 2.2.1.1.4.3 1 .3.8 0 1.6-.5 1.8-.6V111h2.6v9.5h-2.2zM199.8 120.4v-5c0-1.2-.1-1.8-.4-2.2-.1-.1-.4-.3-1-.3-.8 0-1.6.5-1.8.6v6.9H194v-9.5h2.2v.7c.2-.1 1.3-1 2.7-1 1 0 1.8.3 2.5.9 1.1 1.1 1 2.5 1 3.7v5.1h-2.6zM212.8 116.5h-6.2c0 .7.5 2.1 2.4 2.1 1.2 0 2.1-.5 2.5-.7l.8 1.7c-.1.1-1.5 1-3.6 1-3.1 0-4.7-2.2-4.7-4.9 0-2.9 1.8-5.1 4.5-5.1 2.8 0 4.3 2 4.3 5v.9zm-4.2-3.9c-1.2 0-1.9.9-2.1 2.1h3.9c0-.6-.2-2.1-1.8-2.1zM222.9 116.5h-6.2c0 .7.5 2.1 2.4 2.1 1.2 0 2.1-.5 2.5-.7l.8 1.7c-.1.1-1.5 1-3.6 1-3.1 0-4.7-2.2-4.7-4.9 0-2.9 1.8-5.1 4.5-5.1 2.8 0 4.3 2 4.3 5 .1.5 0 .8 0 .9zm-4.1-3.9c-1.2 0-1.9.9-2.1 2.1h3.9c0-.6-.2-2.1-1.8-2.1zM231.1 120.4v-.6c-.1.1-1 .8-2.5.8-2.6 0-4.3-2-4.3-4.9 0-3.1 2.2-5.1 4.6-5.1 1.1 0 1.8.3 1.9.4v-4.6h2.6v13.9h-2.3zm-.3-7.2c-.1 0-.7-.4-1.4-.4-1.4 0-2.4 1-2.4 2.9 0 1.8 1 2.8 2.3 2.8.8 0 1.5-.4 1.6-.5v-4.8z"/><g><path class="st0" d="M127.5 140.9c-.8 0-1.8-.2-2.4-.8-.8-.8-.8-1.7-.8-3v-3.7h-1.6v-2.2h1.6v-2.6h2.6v2.6h2.7v2.2h-2.7v3.8c0 .8.1 1.6 1.2 1.6.6 0 1-.2 1.2-.2l.7 1.8c-.2 0-1.1.5-2.5.5zM135.5 140.9c-2.8 0-4.7-2-4.7-4.9 0-2.9 2-5.1 4.9-5.1 2.8 0 4.7 2.1 4.7 4.9 0 3-2 5.1-4.9 5.1zm.1-7.9c-1.3 0-2.2 1.1-2.2 2.8 0 1.7.9 2.9 2.3 2.9 1.3 0 2.2-1.1 2.2-2.8-.1-1.7-1-2.9-2.3-2.9zM150.7 140.9c-.8 0-1.8-.2-2.4-.8-.8-.8-.8-1.7-.8-3v-3.7h-1.6v-2.2h1.6v-2.6h2.6v2.6h2.7v2.2H150v3.8c0 .8.1 1.6 1.2 1.6.6 0 1-.2 1.2-.2l.7 1.8c-.1 0-1 .5-2.4.5zM159.8 140.6v-.6c-.2.1-1.2.9-2.7.9-1.9 0-3.1-1.3-3.1-3 0-3.4 4.1-3.4 5.3-3.4h.3c0-.6 0-.8-.3-1.1-.2-.2-.6-.4-1.3-.4-1.3 0-2.4.6-2.5.7l-.9-1.7c.1-.1 1.4-1 3.6-1 .8 0 2.2.1 3.1 1.1.8.8.8 1.8.8 3v5.7h-2.3zm-.2-4.4h-.4c-1.7 0-2.9.3-2.9 1.5 0 1 .8 1.3 1.5 1.3 1.1 0 1.7-.5 1.8-.6v-2.2zM170.2 140.6l-3.4-4.4v4.4h-2.6v-13.9h2.6v7.9l3.4-3.5h3l-4.2 4.2 4.2 5.3h-3zM182.3 136.8h-6.2c0 .7.5 2.1 2.4 2.1 1.2 0 2.1-.5 2.5-.7l.8 1.7c-.1.1-1.5 1-3.6 1-3.1 0-4.7-2.2-4.7-4.9 0-2.9 1.8-5.1 4.5-5.1 2.8 0 4.3 2 4.3 5v.9zm-4.2-4c-1.2 0-1.9.9-2.1 2.1h3.9c0-.5-.2-2.1-1.8-2.1zM192.8 140.9c-2.8 0-4.7-2-4.7-4.9 0-2.9 2-5.1 4.9-5.1 2.8 0 4.7 2.1 4.7 4.9 0 3-2 5.1-4.9 5.1zm.1-7.9c-1.3 0-2.2 1.1-2.2 2.8 0 1.7.9 2.9 2.3 2.9 1.3 0 2.2-1.1 2.2-2.8-.1-1.7-1-2.9-2.3-2.9zM205.3 140.6v-5c0-1.2-.1-1.8-.4-2.2-.1-.1-.4-.3-1-.3-.8 0-1.6.5-1.8.6v6.9h-2.6v-9.5h2.2v.7c.2-.1 1.3-1 2.7-1 1 0 1.8.3 2.5.9 1.1 1.1 1 2.5 1 3.7v5.1h-2.6zM218.3 136.8H212c0 .7.5 2.1 2.4 2.1 1.2 0 2.1-.5 2.5-.7l.8 1.7c-.1.1-1.5 1-3.6 1-3.1 0-4.7-2.2-4.7-4.9 0-2.9 1.8-5.1 4.5-5.1 2.8 0 4.3 2 4.3 5 .1.5.1.7.1.9zm-4.2-4c-1.2 0-1.9.9-2.1 2.1h3.9c0-.5-.2-2.1-1.8-2.1zM235.6 140.6v-5.2c0-1.1 0-2.3-1.3-2.3-.8 0-1.6.6-1.7.7.1.4.1.5.1 2.1v4.8H230v-5.2c0-1.1 0-2.3-1.3-2.3-.8 0-1.5.4-1.6.5v7h-2.6v-9.5h2.2v.7c.2-.1 1.2-1 2.7-1 1.5 0 2.1.8 2.3 1 .2-.1 1.4-1 3-1 .8 0 1.8.2 2.4.9 1.1 1.1 1.1 2.7 1.1 4.9v4h-2.6zM244.5 140.9c-2.8 0-4.7-2-4.7-4.9 0-2.9 2-5.1 4.9-5.1 2.8 0 4.7 2.1 4.7 4.9.1 3-1.9 5.1-4.9 5.1zm.1-7.9c-1.3 0-2.2 1.1-2.2 2.8 0 1.7.9 2.9 2.3 2.9 1.3 0 2.2-1.1 2.2-2.8 0-1.7-1-2.9-2.3-2.9zM257.1 133.1c-.1 0-.4-.1-.6-.1-1.6 0-2.4.9-2.7 1.4v6.2h-2.6v-9.5h2.2v1.2c.1-.1 1.3-1.5 3.1-1.5.7 0 1 .2 1.1.3l-.5 2zM266.9 136.8h-6.2c0 .7.5 2.1 2.4 2.1 1.2 0 2.1-.5 2.5-.7l.8 1.7c-.1.1-1.5 1-3.6 1-3.1 0-4.7-2.2-4.7-4.9 0-2.9 1.8-5.1 4.5-5.1 2.8 0 4.3 2 4.3 5 .1.5 0 .7 0 .9zm-4.1-4c-1.2 0-1.9.9-2.1 2.1h3.9c-.1-.5-.2-2.1-1.8-2.1z"/></g><g><path class="st0" d="M131.7 157h-6.2c0 .7.5 2.1 2.4 2.1 1.2 0 2.1-.5 2.5-.7l.8 1.7c-.1.1-1.5 1-3.6 1-3.1 0-4.7-2.2-4.7-4.9 0-2.9 1.8-5.1 4.5-5.1 2.8 0 4.3 2 4.3 5 .1.5 0 .8 0 .9zm-4.1-3.9c-1.2 0-1.9.9-2.1 2.1h3.9c0-.6-.2-2.1-1.8-2.1zM138.7 160.9v-.7c-.2.1-1.2.9-2.7.9-1.9 0-3.1-1.3-3.1-3 0-3.4 4.1-3.4 5.3-3.4h.3c0-.6 0-.8-.3-1.1-.2-.2-.6-.4-1.3-.4-1.3 0-2.4.6-2.5.7l-.9-1.7c.1-.1 1.4-1 3.6-1 .8 0 2.2.1 3.1 1.1.8.8.8 1.8.8 3v5.7h-2.3zm-.1-4.5h-.4c-1.7 0-2.9.3-2.9 1.5 0 1 .8 1.3 1.5 1.3 1.1 0 1.7-.5 1.8-.6v-2.2zM146.1 161.2c-2.2 0-3.6-1-3.7-1.1l.9-1.7c.2.1 1.3.8 2.5.8s1.5-.5 1.5-.9c0-.6-.5-.8-2-1.4-.8-.3-2.3-.9-2.3-2.8 0-1.8 1.5-3 3.7-3 2.1 0 3.1.8 3.1.8l-.8 1.6c-.1-.1-1.2-.6-2.2-.6s-1.3.5-1.3.9c0 .6.7.8 1.7 1.2 1.3.5 2.7 1.1 2.7 3 0 2-1.5 3.2-3.8 3.2zM157.4 161c-.7 1.9-1.2 2.7-1.8 3.4-.4.4-1.2 1-2.8 1-1.4 0-2.3-.6-2.4-.6l.8-1.8c.1.1.7.3 1.5.3.6 0 1-.2 1.3-.5.5-.5.8-1.5.9-1.9l-4-9.5h2.8l2.5 6.6 2.4-6.6h2.6l-3.8 9.6zM170.1 161.2c-2.2 0-3.6-1-3.7-1.1l.9-1.7c.2.1 1.3.8 2.5.8s1.5-.5 1.5-.9c0-.6-.5-.8-2-1.4-.8-.3-2.3-.9-2.3-2.8 0-1.8 1.5-3 3.7-3 2.1 0 3.1.8 3.1.8l-.8 1.6c-.1-.1-1.2-.6-2.2-.6s-1.3.5-1.3.9c0 .6.7.8 1.7 1.2 1.3.5 2.7 1.1 2.7 3-.1 2-1.5 3.2-3.8 3.2zM179.9 161.2c-.8 0-1.8-.2-2.4-.8-.8-.8-.8-1.7-.8-3v-3.7H175v-2.2h1.6v-2.6h2.6v2.6h2.7v2.2h-2.7v3.8c0 .8.1 1.6 1.2 1.6.6 0 1-.2 1.2-.2l.7 1.8c-.1-.1-1 .5-2.4.5zM192 157h-6.2c0 .7.5 2.1 2.4 2.1 1.2 0 2.1-.5 2.5-.7l.8 1.7c-.1.1-1.5 1-3.6 1-3.1 0-4.7-2.2-4.7-4.9 0-2.9 1.8-5.1 4.5-5.1 2.8 0 4.3 2 4.3 5v.9zm-4.1-3.9c-1.2 0-1.9.9-2.1 2.1h3.9c-.1-.6-.2-2.1-1.8-2.1zM198.4 161.2c-1.1 0-1.8-.3-1.9-.4v4.3h-2.6v-13.7h2.3v.6c.1-.1 1-.8 2.5-.8 2.6 0 4.3 2 4.3 4.9-.1 3-2.2 5.1-4.6 5.1zm-.3-7.9c-.8 0-1.5.4-1.6.5v4.9c.1 0 .7.4 1.4.4 1.4 0 2.4-1 2.4-2.9s-1-2.9-2.2-2.9zM205.9 161.1c-.9 0-1.6-.7-1.6-1.6s.7-1.6 1.6-1.6c.9 0 1.6.7 1.6 1.6s-.7 1.6-1.6 1.6z"/></g></svg>