<?xml version="1.0" encoding="utf-8"?>
<!-- Generator: Adobe Illustrator 24.1.3, SVG Export Plug-In . SVG Version: 6.00 Build 0)  -->
<svg version="1.1" id="Layer_1" xmlns="http://www.w3.org/2000/svg" xmlns:xlink="http://www.w3.org/1999/xlink" x="0px" y="0px"
	 viewBox="0 0 320 50" style="enable-background:new 0 0 320 50;" xml:space="preserve">
<style type="text/css">
	.st0{fill:#FFFFFF;}
</style>
<g>
	<path class="st0" d="M21.6,24c-1,1-2.4,1-3.9,1h-3V14.4h3.5c1.2,0,2.3,0.1,3.1,0.9c0.6,0.6,0.8,1.3,0.8,2c0,1.9-1.3,2.2-1.5,2.3
		c0.3,0.1,1.8,0.4,1.8,2.3C22.4,22.8,22,23.5,21.6,24z M18,16.1h-1.2v2.7h0.3c1.2,0,2.7,0.2,2.7-1.4C19.8,16.1,18.8,16.1,18,16.1z
		 M19.8,20.9c-0.4-0.4-0.8-0.4-1.9-0.4h-1v2.8h1.2c1.1,0,1.4-0.2,1.7-0.5c0.2-0.2,0.4-0.6,0.4-0.9C20.1,21.5,20,21.2,19.8,20.9z"/>
	<path class="st0" d="M29.1,25v-0.6c-0.1,0.1-1.1,0.8-2.2,0.8c-0.8,0-1.5-0.3-2-0.8c-0.9-0.9-0.8-2.1-0.8-3.1v-4.2h2.2v4.1
		c0,1,0,1.5,0.3,1.8c0.1,0.1,0.3,0.3,0.8,0.3c0.7,0,1.3-0.4,1.5-0.5v-5.8h2.2V25H29.1z"/>
	<path class="st0" d="M36.2,25.3c-0.7,0-1.5-0.2-2-0.7c-0.7-0.7-0.7-1.4-0.7-2.5V19h-1.4v-1.8h1.4V15h2.2v2.2h2.2V19h-2.2v3.2
		c0,0.6,0,1.3,1,1.3c0.5,0,0.8-0.1,1-0.2l0.5,1.5C38.1,24.8,37.3,25.3,36.2,25.3z"/>
	<path class="st0" d="M48,25.1c-0.6,1.6-1,2.3-1.5,2.8c-0.3,0.3-1,0.8-2.3,0.8c-1.2,0-1.9-0.5-2-0.5l0.6-1.5c0.1,0,0.6,0.3,1.2,0.3
		c0.5,0,0.8-0.1,1.1-0.4c0.4-0.4,0.7-1.2,0.8-1.6l-3.3-7.9h2.3l2.1,5.5l2-5.5h2.1L48,25.1z"/>
	<path class="st0" d="M55.5,25.3c-2.3,0-3.9-1.7-3.9-4.1c0-2.4,1.7-4.2,4.1-4.2c2.3,0,3.9,1.7,3.9,4.1
		C59.6,23.5,57.9,25.3,55.5,25.3z M55.5,18.7c-1.1,0-1.8,0.9-1.8,2.4c0,1.4,0.8,2.4,1.9,2.4c1.1,0,1.8-0.9,1.8-2.4
		C57.4,19.7,56.6,18.7,55.5,18.7z"/>
	<path class="st0" d="M66.1,25v-0.6c-0.1,0.1-1.1,0.8-2.2,0.8c-0.8,0-1.5-0.3-2-0.8c-0.9-0.9-0.8-2.1-0.8-3.1v-4.2h2.2v4.1
		c0,1,0,1.5,0.3,1.8c0.1,0.1,0.3,0.3,0.8,0.3c0.7,0,1.3-0.4,1.5-0.5v-5.8h2.2V25H66.1z"/>
	<path class="st0" d="M78.2,25v-4.1c0-1,0-1.5-0.3-1.8c-0.1-0.1-0.3-0.3-0.8-0.3c-0.7,0-1.3,0.4-1.5,0.5V25h-2.2v-7.9h1.8v0.6
		c0.1-0.1,1.1-0.8,2.2-0.8c0.8,0,1.5,0.3,2,0.8c0.9,0.9,0.8,2.1,0.8,3.1V25H78.2z"/>
	<path class="st0" d="M89,21.8h-5.2c0,0.6,0.4,1.8,2,1.8c1,0,1.8-0.4,2.1-0.6l0.7,1.4c0,0-1.2,0.9-3,0.9c-2.6,0-3.9-1.8-3.9-4.1
		c0-2.4,1.5-4.2,3.8-4.2c2.3,0,3.5,1.6,3.5,4.2C89,21.5,89,21.7,89,21.8z M85.5,18.5c-1,0-1.6,0.7-1.7,1.7H87
		C87,19.8,86.8,18.5,85.5,18.5z"/>
	<path class="st0" d="M97.4,21.8h-5.2c0,0.6,0.4,1.8,2,1.8c1,0,1.8-0.4,2.1-0.6l0.7,1.4c0,0-1.2,0.9-3,0.9c-2.6,0-3.9-1.8-3.9-4.1
		c0-2.4,1.5-4.2,3.8-4.2c2.3,0,3.5,1.6,3.5,4.2C97.5,21.5,97.4,21.7,97.4,21.8z M94,18.5c-1,0-1.6,0.7-1.7,1.7h3.2
		C95.5,19.8,95.3,18.5,94,18.5z"/>
	<path class="st0" d="M104.3,25v-0.5c-0.1,0.1-0.8,0.7-2.1,0.7c-2.1,0-3.5-1.7-3.5-4c0-2.6,1.8-4.3,3.8-4.3c0.9,0,1.5,0.3,1.6,0.3
		v-3.8h2.2V25H104.3z M104,19c-0.1,0-0.6-0.3-1.2-0.3c-1.1,0-2,0.8-2,2.4c0,1.5,0.9,2.3,1.9,2.3c0.7,0,1.3-0.4,1.3-0.4V19z"/>
	<path class="st0" d="M115,25.3c-0.7,0-1.5-0.2-2-0.7c-0.7-0.7-0.7-1.4-0.7-2.5V19h-1.4v-1.8h1.4V15h2.2v2.2h2.2V19h-2.2v3.2
		c0,0.6,0,1.3,1,1.3c0.5,0,0.8-0.1,1-0.2l0.5,1.5C116.9,24.8,116.2,25.3,115,25.3z"/>
	<path class="st0" d="M121.7,25.3c-2.3,0-3.9-1.7-3.9-4.1c0-2.4,1.7-4.2,4.1-4.2c2.3,0,3.9,1.7,3.9,4.1
		C125.8,23.5,124.1,25.3,121.7,25.3z M121.7,18.7c-1.1,0-1.8,0.9-1.8,2.4c0,1.4,0.8,2.4,1.9,2.4c1.1,0,1.8-0.9,1.8-2.4
		C123.6,19.7,122.8,18.7,121.7,18.7z"/>
	<path class="st0" d="M134.3,25.3c-0.7,0-1.5-0.2-2-0.7c-0.7-0.7-0.7-1.4-0.7-2.5V19h-1.4v-1.8h1.4V15h2.2v2.2h2.2V19h-2.2v3.2
		c0,0.6,0,1.3,1,1.3c0.5,0,0.8-0.1,1-0.2l0.5,1.5C136.2,24.8,135.5,25.3,134.3,25.3z"/>
	<path class="st0" d="M141.9,25v-0.6c-0.1,0.1-1,0.7-2.2,0.7c-1.6,0-2.5-1-2.5-2.5c0-2.8,3.4-2.8,4.4-2.8h0.2c0-0.5,0-0.7-0.2-0.9
		c-0.2-0.2-0.5-0.3-1.1-0.3c-1,0-2,0.5-2.1,0.6l-0.7-1.4c0.1-0.1,1.2-0.8,3-0.8c0.7,0,1.8,0.1,2.6,0.9c0.7,0.7,0.6,1.5,0.6,2.5V25
		H141.9z M141.8,21.3c-0.1,0-0.3,0-0.3,0c-1.4,0-2.4,0.2-2.4,1.2c0,0.8,0.7,1,1.2,1c0.9,0,1.4-0.4,1.5-0.5V21.3z"/>
	<path class="st0" d="M150.6,25l-2.8-3.7V25h-2.2V13.5h2.2v6.6l2.9-2.9h2.5l-3.5,3.5l3.5,4.4H150.6z"/>
	<path class="st0" d="M160.6,21.8h-5.2c0,0.6,0.4,1.8,2,1.8c1,0,1.8-0.4,2.1-0.6l0.7,1.4c0,0-1.2,0.9-3,0.9c-2.6,0-3.9-1.8-3.9-4.1
		c0-2.4,1.5-4.2,3.8-4.2c2.3,0,3.5,1.6,3.5,4.2C160.7,21.5,160.6,21.7,160.6,21.8z M157.2,18.5c-1,0-1.6,0.7-1.7,1.7h3.2
		C158.7,19.8,158.5,18.5,157.2,18.5z"/>
	<path class="st0" d="M169.3,25.3c-2.3,0-3.9-1.7-3.9-4.1c0-2.4,1.7-4.2,4.1-4.2c2.3,0,3.9,1.7,3.9,4.1
		C173.4,23.5,171.8,25.3,169.3,25.3z M169.4,18.7c-1.1,0-1.8,0.9-1.8,2.4c0,1.4,0.8,2.4,1.9,2.4s1.8-0.9,1.8-2.4
		C171.3,19.7,170.5,18.7,169.4,18.7z"/>
	<path class="st0" d="M179.7,25v-4.1c0-1,0-1.5-0.3-1.8c-0.1-0.1-0.3-0.3-0.8-0.3c-0.7,0-1.3,0.4-1.5,0.5V25h-2.2v-7.9h1.8v0.6
		c0.1-0.1,1.1-0.8,2.2-0.8c0.8,0,1.5,0.3,2,0.8c0.9,0.9,0.8,2.1,0.8,3.1V25H179.7z"/>
	<path class="st0" d="M190.5,21.8h-5.2c0,0.6,0.4,1.8,2,1.8c1,0,1.8-0.4,2.1-0.6l0.7,1.4c0,0-1.2,0.9-3,0.9c-2.6,0-3.9-1.8-3.9-4.1
		c0-2.4,1.5-4.2,3.8-4.2c2.3,0,3.5,1.6,3.5,4.2C190.6,21.5,190.5,21.7,190.5,21.8z M187.1,18.5c-1,0-1.6,0.7-1.7,1.7h3.2
		C188.6,19.8,188.4,18.5,187.1,18.5z"/>
	<path class="st0" d="M204.9,25v-4.3c0-0.9,0-2-1.1-2c-0.7,0-1.3,0.5-1.4,0.6c0.1,0.3,0.1,0.4,0.1,1.7v4h-2.2v-4.3c0-0.9,0-2-1.1-2
		c-0.6,0-1.2,0.4-1.4,0.4V25h-2.2v-7.9h1.8v0.6c0.1-0.1,1-0.8,2.2-0.8c1.2,0,1.8,0.7,1.9,0.9c0.1-0.1,1.1-0.9,2.5-0.9
		c0.7,0,1.5,0.2,2,0.7c0.9,0.9,0.9,2.3,0.9,4.1V25H204.9z"/>
	<path class="st0" d="M212.4,25.3c-2.3,0-3.9-1.7-3.9-4.1c0-2.4,1.7-4.2,4.1-4.2c2.3,0,3.9,1.7,3.9,4.1
		C216.5,23.5,214.8,25.3,212.4,25.3z M212.4,18.7c-1.1,0-1.8,0.9-1.8,2.4c0,1.4,0.8,2.4,1.9,2.4c1.1,0,1.8-0.9,1.8-2.4
		C214.3,19.7,213.5,18.7,212.4,18.7z"/>
	<path class="st0" d="M222.8,18.8c-0.1,0-0.4,0-0.5,0c-1.3,0-2,0.8-2.2,1.1V25H218v-7.9h1.8v1c0.1-0.1,1-1.2,2.6-1.2
		c0.6,0,0.8,0.2,0.9,0.2L222.8,18.8z"/>
	<path class="st0" d="M231,21.8h-5.2c0,0.6,0.4,1.8,2,1.8c1,0,1.8-0.4,2.1-0.6l0.7,1.4c0,0-1.2,0.9-3,0.9c-2.6,0-3.9-1.8-3.9-4.1
		c0-2.4,1.5-4.2,3.8-4.2c2.3,0,3.5,1.6,3.5,4.2C231.1,21.5,231,21.7,231,21.8z M227.6,18.5c-1,0-1.6,0.7-1.7,1.7h3.2
		C229.1,19.8,228.9,18.5,227.6,18.5z"/>
	<path class="st0" d="M243.1,21.8h-5.2c0,0.6,0.4,1.8,2,1.8c1,0,1.8-0.4,2.1-0.6l0.7,1.4c0,0-1.2,0.9-3,0.9c-2.6,0-3.9-1.8-3.9-4.1
		c0-2.4,1.5-4.2,3.8-4.2c2.3,0,3.5,1.6,3.5,4.2C243.1,21.5,243.1,21.7,243.1,21.8z M239.6,18.5c-1,0-1.6,0.7-1.7,1.7h3.2
		C241.1,19.8,241,18.5,239.6,18.5z"/>
	<path class="st0" d="M249,25v-0.6c-0.1,0.1-1,0.7-2.2,0.7c-1.6,0-2.5-1-2.5-2.5c0-2.8,3.4-2.8,4.4-2.8h0.2c0-0.5,0-0.7-0.2-0.9
		c-0.2-0.2-0.5-0.3-1.1-0.3c-1,0-2,0.5-2.1,0.6l-0.7-1.4c0.1-0.1,1.2-0.8,3-0.8c0.7,0,1.8,0.1,2.6,0.9c0.7,0.7,0.6,1.5,0.6,2.5V25
		H249z M248.8,21.3c-0.1,0-0.3,0-0.3,0c-1.4,0-2.4,0.2-2.4,1.2c0,0.8,0.7,1,1.2,1c0.9,0,1.4-0.4,1.5-0.5V21.3z"/>
	<path class="st0" d="M255.1,25.3c-1.8,0-3-0.8-3.1-0.9l0.7-1.4c0.2,0.1,1.1,0.6,2,0.6c1,0,1.2-0.4,1.2-0.8c0-0.5-0.4-0.6-1.7-1.2
		c-0.7-0.3-2-0.8-2-2.3c0-1.5,1.2-2.5,3.1-2.5c1.7,0,2.6,0.7,2.6,0.7l-0.7,1.3c-0.1,0-1-0.5-1.8-0.5c-0.8,0-1.1,0.4-1.1,0.7
		c0,0.5,0.5,0.7,1.4,1c1.1,0.4,2.3,0.9,2.3,2.5C258.2,24.3,257,25.3,255.1,25.3z"/>
	<path class="st0" d="M264.5,25.1c-0.6,1.6-1,2.3-1.5,2.8c-0.3,0.3-1,0.8-2.3,0.8c-1.2,0-1.9-0.5-2-0.5l0.6-1.5
		c0.1,0,0.6,0.3,1.2,0.3c0.5,0,0.8-0.1,1.1-0.4c0.4-0.4,0.7-1.2,0.8-1.6l-3.3-7.9h2.3l2.1,5.5l2-5.5h2.1L264.5,25.1z"/>
	<path class="st0" d="M275,25.3c-1.8,0-3-0.8-3.1-0.9l0.7-1.4c0.2,0.1,1.1,0.6,2,0.6c1,0,1.2-0.4,1.2-0.8c0-0.5-0.4-0.6-1.7-1.2
		c-0.7-0.3-2-0.8-2-2.3c0-1.5,1.2-2.5,3.1-2.5c1.7,0,2.6,0.7,2.6,0.7l-0.7,1.3c-0.1,0-1-0.5-1.8-0.5c-0.8,0-1.1,0.4-1.1,0.7
		c0,0.5,0.5,0.7,1.4,1c1.1,0.4,2.3,0.9,2.3,2.5C278.1,24.3,276.9,25.3,275,25.3z"/>
	<path class="st0" d="M283.2,25.3c-0.7,0-1.5-0.2-2-0.7c-0.7-0.7-0.7-1.4-0.7-2.5V19h-1.4v-1.8h1.4V15h2.2v2.2h2.2V19h-2.2v3.2
		c0,0.6,0,1.3,1,1.3c0.5,0,0.8-0.1,1-0.2l0.5,1.5C285.1,24.8,284.3,25.3,283.2,25.3z"/>
	<path class="st0" d="M293.3,21.8h-5.2c0,0.6,0.4,1.8,2,1.8c1,0,1.8-0.4,2.1-0.6l0.7,1.4c0,0-1.2,0.9-3,0.9c-2.6,0-3.9-1.8-3.9-4.1
		c0-2.4,1.5-4.2,3.8-4.2c2.3,0,3.5,1.6,3.5,4.2C293.3,21.5,293.3,21.7,293.3,21.8z M289.8,18.5c-1,0-1.6,0.7-1.7,1.7h3.2
		C291.3,19.8,291.1,18.5,289.8,18.5z"/>
	<path class="st0" d="M298.6,25.3c-0.9,0-1.5-0.3-1.6-0.3v3.6h-2.2V17.2h1.9v0.5c0.1-0.1,0.8-0.7,2.1-0.7c2.1,0,3.5,1.7,3.5,4
		C302.3,23.6,300.6,25.3,298.6,25.3z M298.3,18.7c-0.7,0-1.3,0.4-1.3,0.4v4c0.1,0,0.6,0.3,1.2,0.3c1.1,0,2-0.8,2-2.4
		C300.2,19.5,299.3,18.7,298.3,18.7z"/>
	<path class="st0" d="M304.9,25.2c-0.7,0-1.3-0.6-1.3-1.3s0.6-1.3,1.3-1.3s1.3,0.6,1.3,1.3S305.6,25.2,304.9,25.2z"/>
</g>
</svg>
