<?xml version="1.0" encoding="utf-8"?>
<!-- Generator: Adobe Illustrator 24.1.3, SVG Export Plug-In . SVG Version: 6.00 Build 0)  -->
<svg version="1.1" id="Layer_1" xmlns="http://www.w3.org/2000/svg" xmlns:xlink="http://www.w3.org/1999/xlink" x="0px" y="0px"
	 viewBox="0 0 320 50" style="enable-background:new 0 0 320 50;" xml:space="preserve">
<style type="text/css">
	.st0{fill:#FFFFFF;}
</style>
<g>
	<path class="st0" d="M21,17.8V22h-2.2v-4.3l-3.4-6.4h2.3L20,16l2.3-4.6h2.1L21,17.8z"/>
	<path class="st0" d="M28.1,22.3c-2.3,0-3.9-1.7-3.9-4.1c0-2.4,1.7-4.2,4.1-4.2c2.3,0,3.9,1.7,3.9,4.1
		C32.2,20.5,30.5,22.3,28.1,22.3z M28.2,15.7c-1.1,0-1.8,0.9-1.8,2.4c0,1.4,0.8,2.4,1.9,2.4c1.1,0,1.8-0.9,1.8-2.4
		C30,16.7,29.3,15.7,28.2,15.7z"/>
	<path class="st0" d="M38.7,22v-0.6c-0.1,0.1-1.1,0.8-2.2,0.8c-0.8,0-1.5-0.3-2-0.8c-0.9-0.9-0.8-2.1-0.8-3.1v-4.2h2.2v4.1
		c0,1,0,1.5,0.3,1.8c0.1,0.1,0.3,0.3,0.8,0.3c0.7,0,1.3-0.4,1.5-0.5v-5.8h2.2V22H38.7z"/>
	<path class="st0" d="M50.8,15.8c-0.1,0-0.4,0-0.5,0c-1.3,0-2,0.8-2.2,1.1V22H46v-7.9h1.8v1c0.1-0.1,1-1.2,2.6-1.2
		c0.6,0,0.8,0.2,0.9,0.2L50.8,15.8z"/>
	<path class="st0" d="M59,18.8h-5.2c0,0.6,0.4,1.8,2,1.8c1,0,1.8-0.4,2.1-0.6l0.7,1.4c0,0-1.2,0.9-3,0.9c-2.6,0-3.9-1.8-3.9-4.1
		c0-2.4,1.5-4.2,3.8-4.2c2.3,0,3.5,1.6,3.5,4.2C59.1,18.5,59,18.7,59,18.8z M55.6,15.5c-1,0-1.6,0.7-1.7,1.7h3.2
		C57.1,16.8,56.9,15.5,55.6,15.5z"/>
	<path class="st0" d="M66.8,24.7c-0.5,0.5-1.3,1-2.9,1c-2.2,0-3.4-1-3.5-1.2l0.9-1.4c0.1,0.1,1.1,0.8,2.4,0.8c1.7,0,1.9-1.1,1.9-1.9
		v-0.5c-0.1,0.1-0.7,0.5-1.8,0.5c-2.4,0-3.5-1.9-3.5-3.9c0-2.4,1.7-4.2,4.2-4.2c1.7,0,3.1,0.7,3.3,0.8v7.2
		C67.7,23,67.7,23.9,66.8,24.7z M65.5,15.9c-0.1,0-0.6-0.2-1.2-0.2c-1.1,0-2,0.9-2,2.4c0,1.5,0.9,2.3,1.9,2.3c0.7,0,1.3-0.4,1.3-0.4
		V15.9z"/>
	<path class="st0" d="M70.6,13.2c-0.7,0-1.2-0.5-1.2-1.2c0-0.7,0.5-1.2,1.2-1.2s1.2,0.5,1.2,1.2C71.9,12.6,71.3,13.2,70.6,13.2z
		 M69.5,22v-7.9h2.2V22H69.5z"/>
	<path class="st0" d="M76,22.3c-1.8,0-3-0.8-3.1-0.9l0.7-1.4c0.2,0.1,1.1,0.6,2,0.6c1,0,1.2-0.4,1.2-0.8c0-0.5-0.4-0.6-1.7-1.2
		c-0.7-0.3-2-0.8-2-2.3c0-1.5,1.2-2.5,3.1-2.5c1.7,0,2.6,0.7,2.6,0.7L78.3,16c-0.1,0-1-0.5-1.8-0.5c-0.8,0-1.1,0.4-1.1,0.7
		c0,0.5,0.5,0.7,1.4,1c1.1,0.4,2.3,0.9,2.3,2.5C79.1,21.3,77.9,22.3,76,22.3z"/>
	<path class="st0" d="M84.2,22.3c-0.7,0-1.5-0.2-2-0.7c-0.7-0.7-0.7-1.4-0.7-2.5V16h-1.4v-1.8h1.4V12h2.2v2.2h2.2V16h-2.2v3.2
		c0,0.6,0,1.3,1,1.3c0.5,0,0.8-0.1,1-0.2l0.5,1.5C86.1,21.8,85.3,22.3,84.2,22.3z"/>
	<path class="st0" d="M94.3,18.8h-5.2c0,0.6,0.4,1.8,2,1.8c1,0,1.8-0.4,2.1-0.6l0.7,1.4c0,0-1.2,0.9-3,0.9c-2.6,0-3.9-1.8-3.9-4.1
		c0-2.4,1.5-4.2,3.8-4.2c2.3,0,3.5,1.6,3.5,4.2C94.3,18.5,94.3,18.7,94.3,18.8z M90.8,15.5c-1,0-1.6,0.7-1.7,1.7h3.2
		C92.3,16.8,92.1,15.5,90.8,15.5z"/>
	<path class="st0" d="M100.7,15.8c-0.1,0-0.4,0-0.5,0c-1.3,0-2,0.8-2.2,1.1V22h-2.2v-7.9h1.8v1c0.1-0.1,1-1.2,2.6-1.2
		c0.6,0,0.8,0.2,0.9,0.2L100.7,15.8z"/>
	<path class="st0" d="M108.9,18.8h-5.2c0,0.6,0.4,1.8,2,1.8c1,0,1.8-0.4,2.1-0.6l0.7,1.4c0,0-1.2,0.9-3,0.9c-2.6,0-3.9-1.8-3.9-4.1
		c0-2.4,1.5-4.2,3.8-4.2c2.3,0,3.5,1.6,3.5,4.2C108.9,18.5,108.9,18.7,108.9,18.8z M105.4,15.5c-1,0-1.6,0.7-1.7,1.7h3.2
		C106.9,16.8,106.7,15.5,105.4,15.5z"/>
	<path class="st0" d="M115.7,22v-0.5c-0.1,0.1-0.8,0.7-2.1,0.7c-2.1,0-3.5-1.7-3.5-4c0-2.6,1.8-4.3,3.8-4.3c0.9,0,1.5,0.3,1.6,0.3
		v-3.8h2.2V22H115.7z M115.4,16c-0.1,0-0.6-0.3-1.2-0.3c-1.1,0-2,0.8-2,2.4c0,1.5,0.9,2.3,1.9,2.3c0.7,0,1.3-0.4,1.3-0.4V16z"/>
	<path class="st0" d="M127.8,22.1c-0.6,1.6-1,2.3-1.5,2.8c-0.3,0.3-1,0.8-2.3,0.8c-1.2,0-1.9-0.5-2-0.5l0.6-1.5
		c0.1,0,0.6,0.3,1.2,0.3c0.5,0,0.8-0.1,1.1-0.4c0.4-0.4,0.7-1.2,0.8-1.6l-3.3-7.9h2.3l2.1,5.5l2-5.5h2.1L127.8,22.1z"/>
	<path class="st0" d="M135.3,22.3c-2.3,0-3.9-1.7-3.9-4.1c0-2.4,1.7-4.2,4.1-4.2c2.3,0,3.9,1.7,3.9,4.1
		C139.4,20.5,137.7,22.3,135.3,22.3z M135.3,15.7c-1.1,0-1.8,0.9-1.8,2.4c0,1.4,0.8,2.4,1.9,2.4c1.1,0,1.8-0.9,1.8-2.4
		C137.2,16.7,136.4,15.7,135.3,15.7z"/>
	<path class="st0" d="M145.9,22v-0.6c-0.1,0.1-1.1,0.8-2.2,0.8c-0.8,0-1.5-0.3-2-0.8c-0.9-0.9-0.8-2.1-0.8-3.1v-4.2h2.2v4.1
		c0,1,0,1.5,0.3,1.8c0.1,0.1,0.3,0.3,0.8,0.3c0.7,0,1.3-0.4,1.5-0.5v-5.8h2.2V22H145.9z"/>
	<path class="st0" d="M154.4,15.8c-0.1,0-0.4,0-0.5,0c-1.3,0-2,0.8-2.2,1.1V22h-2.2v-7.9h1.8v1c0.1-0.1,1-1.2,2.6-1.2
		c0.6,0,0.8,0.2,0.9,0.2L154.4,15.8z"/>
	<path class="st0" d="M164,22v-0.6c-0.1,0.1-1,0.7-2.2,0.7c-1.6,0-2.5-1-2.5-2.5c0-2.8,3.4-2.8,4.4-2.8h0.2c0-0.5,0-0.7-0.2-0.9
		c-0.2-0.2-0.5-0.3-1.1-0.3c-1,0-2,0.5-2.1,0.6l-0.7-1.4c0.1-0.1,1.2-0.8,3-0.8c0.7,0,1.8,0.1,2.6,0.9c0.7,0.7,0.6,1.5,0.6,2.5V22
		H164z M163.9,18.3c-0.1,0-0.3,0-0.3,0c-1.4,0-2.4,0.2-2.4,1.2c0,0.8,0.7,1,1.2,1c0.9,0,1.4-0.4,1.5-0.5V18.3z"/>
	<path class="st0" d="M171.3,22.3c-2.5,0-4-1.8-4-4.1c0-2.4,1.8-4.2,4.2-4.2c1.7,0,2.6,0.8,2.7,1l-0.9,1.3c-0.1-0.1-0.8-0.5-1.7-0.5
		c-1.4,0-2.2,1.2-2.2,2.4c0,1.4,0.7,2.4,2.1,2.4c1,0,1.8-0.5,1.9-0.6l0.8,1.4C174.3,21.3,173.2,22.3,171.3,22.3z"/>
	<path class="st0" d="M179,22.3c-2.5,0-4-1.8-4-4.1c0-2.4,1.8-4.2,4.2-4.2c1.7,0,2.6,0.8,2.7,1l-0.9,1.3c-0.1-0.1-0.8-0.5-1.7-0.5
		c-1.4,0-2.2,1.2-2.2,2.4c0,1.4,0.7,2.4,2.1,2.4c1,0,1.8-0.5,1.9-0.6l0.8,1.4C181.9,21.3,180.8,22.3,179,22.3z"/>
	<path class="st0" d="M186.5,22.3c-2.3,0-3.9-1.7-3.9-4.1c0-2.4,1.7-4.2,4.1-4.2c2.3,0,3.9,1.7,3.9,4.1
		C190.6,20.5,188.9,22.3,186.5,22.3z M186.5,15.7c-1.1,0-1.8,0.9-1.8,2.4c0,1.4,0.8,2.4,1.9,2.4c1.1,0,1.8-0.9,1.8-2.4
		C188.4,16.7,187.6,15.7,186.5,15.7z"/>
	<path class="st0" d="M197.1,22v-0.6c-0.1,0.1-1.1,0.8-2.2,0.8c-0.8,0-1.5-0.3-2-0.8c-0.9-0.9-0.8-2.1-0.8-3.1v-4.2h2.2v4.1
		c0,1,0,1.5,0.3,1.8c0.1,0.1,0.3,0.3,0.8,0.3c0.7,0,1.3-0.4,1.5-0.5v-5.8h2.2V22H197.1z"/>
	<path class="st0" d="M205.6,22v-4.1c0-1,0-1.5-0.3-1.8c-0.1-0.1-0.3-0.3-0.8-0.3c-0.7,0-1.3,0.4-1.5,0.5V22h-2.2v-7.9h1.8v0.6
		c0.1-0.1,1.1-0.8,2.2-0.8c0.8,0,1.5,0.3,2,0.8c0.9,0.9,0.8,2.1,0.8,3.1V22H205.6z"/>
	<path class="st0" d="M212.8,22.3c-0.7,0-1.5-0.2-2-0.7c-0.7-0.7-0.7-1.4-0.7-2.5V16h-1.4v-1.8h1.4V12h2.2v2.2h2.2V16h-2.2v3.2
		c0,0.6,0,1.3,1,1.3c0.5,0,0.8-0.1,1-0.2l0.5,1.5C214.7,21.8,214,22.3,212.8,22.3z"/>
	<path class="st0" d="M225.2,12.4c-0.1,0-0.6-0.4-1.1-0.4c-1.2,0-1.2,0.9-1.2,1.7v0.4h2.3V16h-2.3V22h-2.2V16h-1.3v-1.8h1.3v-0.4
		c0-1.3,0.2-2.1,0.8-2.7c0.5-0.5,1.2-0.8,2.2-0.8c1.4,0,2.2,0.7,2.3,0.8L225.2,12.4z"/>
	<path class="st0" d="M230.1,22.3c-2.3,0-3.9-1.7-3.9-4.1c0-2.4,1.7-4.2,4.1-4.2c2.3,0,3.9,1.7,3.9,4.1
		C234.2,20.5,232.5,22.3,230.1,22.3z M230.1,15.7c-1.1,0-1.8,0.9-1.8,2.4c0,1.4,0.8,2.4,1.9,2.4c1.1,0,1.8-0.9,1.8-2.4
		C232,16.7,231.2,15.7,230.1,15.7z"/>
	<path class="st0" d="M240.5,15.8c-0.1,0-0.4,0-0.5,0c-1.3,0-2,0.8-2.2,1.1V22h-2.2v-7.9h1.8v1c0.1-0.1,1-1.2,2.6-1.2
		c0.6,0,0.8,0.2,0.9,0.2L240.5,15.8z"/>
</g>
<g>
	<path class="st0" d="M23,38l-0.8-2.2h-3.8L17.6,38h-2.3l3.9-10.7h2.3L25.3,38H23z M20.3,29.8l-1.3,4.3h2.7L20.3,29.8z"/>
	<path class="st0" d="M34.4,36.4C32.8,38,30.8,38,28.8,38h-2.2V27.4h2.9c1.8,0,3.4,0,4.8,1.4c0.9,0.9,1.5,2.3,1.5,3.8
		C35.8,34.1,35.3,35.5,34.4,36.4z M32.6,30c-0.9-0.9-2-0.9-3.2-0.9h-0.6v7.1h1.1c2.4,0,3.7-1.3,3.7-3.7C33.6,31.4,33.2,30.6,32.6,30
		z"/>
	<path class="st0" d="M43.8,38l-0.8-2.2h-3.8L38.4,38h-2.3L40,27.4h2.3L46.2,38H43.8z M41.1,29.8l-1.3,4.3h2.7L41.1,29.8z"/>
	<path class="st0" d="M53.4,38.3c-1.8,0-3-0.8-3.1-0.9l0.7-1.4c0.2,0.1,1.1,0.6,2,0.6c1,0,1.2-0.4,1.2-0.8c0-0.5-0.4-0.6-1.7-1.2
		c-0.7-0.3-2-0.8-2-2.3s1.2-2.5,3.1-2.5c1.7,0,2.6,0.7,2.6,0.7L55.7,32c-0.1,0-1-0.5-1.8-0.5c-0.8,0-1.1,0.4-1.1,0.7
		c0,0.5,0.5,0.7,1.4,1c1.1,0.4,2.3,0.9,2.3,2.5C56.5,37.3,55.3,38.3,53.4,38.3z"/>
	<path class="st0" d="M61.6,38.3c-0.7,0-1.5-0.2-2-0.7c-0.7-0.7-0.7-1.4-0.7-2.5V32h-1.4v-1.8h1.4V28H61v2.2h2.2V32H61v3.2
		c0,0.6,0,1.3,1,1.3c0.5,0,0.8-0.1,1-0.2l0.5,1.5C63.5,37.8,62.7,38.3,61.6,38.3z"/>
	<path class="st0" d="M69.9,38v-0.6c-0.1,0.1-1.1,0.8-2.2,0.8c-0.8,0-1.5-0.3-2-0.8c-0.9-0.9-0.8-2.1-0.8-3.1v-4.2h2.2v4.1
		c0,1,0,1.5,0.3,1.8c0.1,0.1,0.3,0.3,0.8,0.3c0.7,0,1.3-0.4,1.5-0.5v-5.8h2.2V38H69.9z"/>
	<path class="st0" d="M78.8,38v-0.5c-0.1,0.1-0.8,0.7-2.1,0.7c-2.1,0-3.5-1.7-3.5-4c0-2.6,1.8-4.3,3.8-4.3c0.9,0,1.5,0.3,1.6,0.3
		v-3.8h2.2V38H78.8z M78.6,32c-0.1,0-0.6-0.3-1.2-0.3c-1.1,0-2,0.8-2,2.4c0,1.5,0.9,2.3,1.9,2.3c0.7,0,1.3-0.4,1.3-0.4V32z"/>
	<path class="st0" d="M89.5,34.8h-5.2c0,0.6,0.4,1.8,2,1.8c1,0,1.8-0.4,2.1-0.6l0.7,1.4c0,0-1.2,0.9-3,0.9c-2.6,0-3.9-1.8-3.9-4.1
		c0-2.4,1.5-4.2,3.8-4.2c2.3,0,3.5,1.6,3.5,4.2C89.6,34.5,89.5,34.7,89.5,34.8z M86.1,31.5c-1,0-1.6,0.7-1.7,1.7h3.2
		C87.5,32.8,87.4,31.5,86.1,31.5z"/>
	<path class="st0" d="M95.9,38v-4.1c0-1,0-1.5-0.3-1.8c-0.1-0.1-0.3-0.3-0.8-0.3c-0.7,0-1.3,0.4-1.5,0.5V38h-2.2v-7.9h1.8v0.6
		c0.1-0.1,1.1-0.8,2.2-0.8c0.8,0,1.5,0.3,2,0.8c0.9,0.9,0.8,2.1,0.8,3.1V38H95.9z"/>
	<path class="st0" d="M103.1,38.3c-0.7,0-1.5-0.2-2-0.7c-0.7-0.7-0.7-1.4-0.7-2.5V32H99v-1.8h1.4V28h2.2v2.2h2.2V32h-2.2v3.2
		c0,0.6,0,1.3,1,1.3c0.5,0,0.8-0.1,1-0.2l0.5,1.5C105,37.8,104.3,38.3,103.1,38.3z"/>
	<path class="st0" d="M119.4,38v-4.3c0-0.9,0-2-1.1-2c-0.7,0-1.3,0.5-1.4,0.6c0.1,0.3,0.1,0.4,0.1,1.7v4h-2.2v-4.3c0-0.9,0-2-1.1-2
		c-0.6,0-1.2,0.4-1.4,0.4V38h-2.2v-7.9h1.8v0.6c0.1-0.1,1-0.8,2.2-0.8c1.2,0,1.8,0.7,1.9,0.9c0.1-0.1,1.1-0.9,2.5-0.9
		c0.7,0,1.5,0.2,2,0.7c0.9,0.9,0.9,2.3,0.9,4.1V38H119.4z"/>
	<path class="st0" d="M130.2,34.8h-5.2c0,0.6,0.4,1.8,2,1.8c1,0,1.8-0.4,2.1-0.6l0.7,1.4c0,0-1.2,0.9-3,0.9c-2.6,0-3.9-1.8-3.9-4.1
		c0-2.4,1.5-4.2,3.8-4.2c2.3,0,3.5,1.6,3.5,4.2C130.3,34.5,130.2,34.7,130.2,34.8z M126.8,31.5c-1,0-1.6,0.7-1.7,1.7h3.2
		C128.3,32.8,128.1,31.5,126.8,31.5z"/>
	<path class="st0" d="M141,38v-4.3c0-0.9,0-2-1.1-2c-0.7,0-1.3,0.5-1.4,0.6c0.1,0.3,0.1,0.4,0.1,1.7v4h-2.2v-4.3c0-0.9,0-2-1.1-2
		c-0.6,0-1.2,0.4-1.4,0.4V38h-2.2v-7.9h1.8v0.6c0.1-0.1,1-0.8,2.2-0.8c1.2,0,1.8,0.7,1.9,0.9c0.1-0.1,1.1-0.9,2.5-0.9
		c0.7,0,1.5,0.2,2,0.7c0.9,0.9,0.9,2.3,0.9,4.1V38H141z"/>
	<path class="st0" d="M148.3,38.3c-1.6,0-3.1-0.6-3.3-0.6V26.5h2.2v4c0.1,0,0.8-0.5,1.9-0.5c1.9,0,3.4,1.5,3.4,4
		C152.5,36.5,150.8,38.3,148.3,38.3z M148.6,31.7c-0.7,0-1.3,0.4-1.4,0.5v4.2c0.1,0,0.5,0.2,1.2,0.2c1.2,0,2-1,2-2.6
		C150.3,32.4,149.4,31.7,148.6,31.7z"/>
	<path class="st0" d="M160.9,34.8h-5.2c0,0.6,0.4,1.8,2,1.8c1,0,1.8-0.4,2.1-0.6l0.7,1.4c0,0-1.2,0.9-3,0.9c-2.6,0-3.9-1.8-3.9-4.1
		c0-2.4,1.5-4.2,3.8-4.2c2.3,0,3.5,1.6,3.5,4.2C160.9,34.5,160.9,34.7,160.9,34.8z M157.4,31.5c-1,0-1.6,0.7-1.7,1.7h3.2
		C158.9,32.8,158.8,31.5,157.4,31.5z"/>
	<path class="st0" d="M167.3,31.8c-0.1,0-0.4,0-0.5,0c-1.3,0-2,0.8-2.2,1.1V38h-2.2v-7.9h1.8v1c0.1-0.1,1-1.2,2.6-1.2
		c0.6,0,0.8,0.2,0.9,0.2L167.3,31.8z"/>
	<path class="st0" d="M171.2,38.3c-1.8,0-3-0.8-3.1-0.9l0.7-1.4c0.2,0.1,1.1,0.6,2,0.6c1,0,1.2-0.4,1.2-0.8c0-0.5-0.4-0.6-1.7-1.2
		c-0.7-0.3-2-0.8-2-2.3s1.2-2.5,3.1-2.5c1.7,0,2.6,0.7,2.6,0.7l-0.7,1.3c-0.1,0-1-0.5-1.8-0.5c-0.8,0-1.1,0.4-1.1,0.7
		c0,0.5,0.5,0.7,1.4,1c1.1,0.4,2.3,0.9,2.3,2.5C174.3,37.3,173.1,38.3,171.2,38.3z"/>
	<path class="st0" d="M180.7,29.2c-0.7,0-1.2-0.5-1.2-1.2c0-0.7,0.5-1.2,1.2-1.2s1.2,0.5,1.2,1.2C181.9,28.6,181.4,29.2,180.7,29.2z
		 M179.6,38v-7.9h2.2V38H179.6z"/>
	<path class="st0" d="M188.4,38v-4.1c0-1,0-1.5-0.3-1.8c-0.1-0.1-0.3-0.3-0.8-0.3c-0.7,0-1.3,0.4-1.5,0.5V38h-2.2v-7.9h1.8v0.6
		c0.1-0.1,1.1-0.8,2.2-0.8c0.8,0,1.5,0.3,2,0.8c0.9,0.9,0.8,2.1,0.8,3.1V38H188.4z"/>
	<path class="st0" d="M194.8,38.3c-1.8,0-3-0.8-3.1-0.9l0.7-1.4c0.2,0.1,1.1,0.6,2,0.6c1,0,1.2-0.4,1.2-0.8c0-0.5-0.4-0.6-1.7-1.2
		c-0.7-0.3-2-0.8-2-2.3s1.2-2.5,3.1-2.5c1.7,0,2.6,0.7,2.6,0.7l-0.7,1.3c-0.1,0-1-0.5-1.8-0.5c-0.8,0-1.1,0.4-1.1,0.7
		c0,0.5,0.5,0.7,1.4,1c1.1,0.4,2.3,0.9,2.3,2.5C197.9,37.3,196.7,38.3,194.8,38.3z"/>
	<path class="st0" d="M204.5,38v-0.6c-0.1,0.1-1.1,0.8-2.2,0.8c-0.8,0-1.5-0.3-2-0.8c-0.9-0.9-0.8-2.1-0.8-3.1v-4.2h2.2v4.1
		c0,1,0,1.5,0.3,1.8c0.1,0.1,0.3,0.3,0.8,0.3c0.7,0,1.3-0.4,1.5-0.5v-5.8h2.2V38H204.5z"/>
	<path class="st0" d="M213.1,31.8c-0.1,0-0.4,0-0.5,0c-1.3,0-2,0.8-2.2,1.1V38h-2.2v-7.9h1.8v1c0.1-0.1,1-1.2,2.6-1.2
		c0.6,0,0.8,0.2,0.9,0.2L213.1,31.8z"/>
	<path class="st0" d="M218.9,38v-0.6c-0.1,0.1-1,0.7-2.2,0.7c-1.6,0-2.5-1-2.5-2.5c0-2.8,3.4-2.8,4.4-2.8h0.2c0-0.5,0-0.7-0.2-0.9
		c-0.2-0.2-0.5-0.3-1.1-0.3c-1,0-2,0.5-2.1,0.6l-0.7-1.4c0.1-0.1,1.2-0.8,3-0.8c0.7,0,1.8,0.1,2.6,0.9c0.7,0.7,0.6,1.5,0.6,2.5V38
		H218.9z M218.8,34.3c-0.1,0-0.3,0-0.3,0c-1.4,0-2.4,0.2-2.4,1.2c0,0.8,0.7,1,1.2,1c0.9,0,1.4-0.4,1.5-0.5V34.3z"/>
	<path class="st0" d="M227.4,38v-4.1c0-1,0-1.5-0.3-1.8c-0.1-0.1-0.3-0.3-0.8-0.3c-0.7,0-1.3,0.4-1.5,0.5V38h-2.2v-7.9h1.8v0.6
		c0.1-0.1,1.1-0.8,2.2-0.8c0.8,0,1.5,0.3,2,0.8c0.9,0.9,0.8,2.1,0.8,3.1V38H227.4z"/>
	<path class="st0" d="M235,38.3c-2.5,0-4-1.8-4-4.1c0-2.4,1.8-4.2,4.2-4.2c1.7,0,2.6,0.8,2.7,1l-0.9,1.3c-0.1-0.1-0.8-0.5-1.7-0.5
		c-1.4,0-2.2,1.2-2.2,2.4c0,1.4,0.7,2.4,2.1,2.4c1,0,1.8-0.5,1.9-0.6l0.8,1.4C237.9,37.3,236.8,38.3,235,38.3z"/>
	<path class="st0" d="M245.9,34.8h-5.2c0,0.6,0.4,1.8,2,1.8c1,0,1.8-0.4,2.1-0.6l0.7,1.4c0,0-1.2,0.9-3,0.9c-2.6,0-3.9-1.8-3.9-4.1
		c0-2.4,1.5-4.2,3.8-4.2c2.3,0,3.5,1.6,3.5,4.2C245.9,34.5,245.9,34.7,245.9,34.8z M242.4,31.5c-1,0-1.6,0.7-1.7,1.7h3.2
		C243.9,32.8,243.7,31.5,242.4,31.5z"/>
	<path class="st0" d="M248.5,38.2c-0.7,0-1.3-0.6-1.3-1.3s0.6-1.3,1.3-1.3s1.3,0.6,1.3,1.3S249.2,38.2,248.5,38.2z"/>
</g>
</svg>
