<?xml version="1.0" encoding="utf-8"?>
<!-- Generator: Adobe Illustrator 24.1.3, SVG Export Plug-In . SVG Version: 6.00 Build 0)  -->
<svg version="1.1" id="Layer_1" xmlns="http://www.w3.org/2000/svg" xmlns:xlink="http://www.w3.org/1999/xlink" x="0px" y="0px"
	 viewBox="0 0 320 50" style="enable-background:new 0 0 320 50;" xml:space="preserve">
<style type="text/css">
	.st0{fill:#FFFFFF;}
</style>
<g>
	<path class="st0" d="M22.5,22l-0.8-2.2h-3.8L17.1,22h-2.3l3.9-10.7H21L24.9,22H22.5z M19.8,13.7L18.5,18h2.7L19.8,13.7z"/>
	<path class="st0" d="M29.4,22.2c-2.5,0-4-1.8-4-4.1c0-2.4,1.8-4.2,4.2-4.2c1.7,0,2.6,0.8,2.7,1l-0.9,1.3c-0.1-0.1-0.8-0.5-1.7-0.5
		c-1.4,0-2.2,1.2-2.2,2.4c0,1.4,0.7,2.4,2.1,2.4c1,0,1.8-0.5,1.9-0.6l0.8,1.4C32.4,21.3,31.3,22.2,29.4,22.2z"/>
	<path class="st0" d="M37.2,22.2c-0.7,0-1.5-0.2-2-0.7c-0.7-0.7-0.7-1.4-0.7-2.5v-3.1h-1.4v-1.8h1.4v-2.2h2.2v2.2h2.2v1.8h-2.2v3.2
		c0,0.6,0,1.3,1,1.3c0.5,0,0.8-0.1,1-0.2l0.5,1.5C39.1,21.7,38.4,22.2,37.2,22.2z"/>
	<path class="st0" d="M41.6,13.1c-0.7,0-1.2-0.5-1.2-1.2c0-0.7,0.5-1.2,1.2-1.2s1.2,0.5,1.2,1.2C42.8,12.6,42.3,13.1,41.6,13.1z
		 M40.5,22v-7.9h2.2V22H40.5z"/>
	<path class="st0" d="M48.8,22h-2.1l-3-7.9H46l1.9,5.5l1.9-5.5h2.1L48.8,22z"/>
	<path class="st0" d="M57.2,22v-0.6c-0.1,0.1-1,0.7-2.2,0.7c-1.6,0-2.5-1-2.5-2.5c0-2.8,3.4-2.8,4.4-2.8H57c0-0.5,0-0.7-0.2-0.9
		c-0.2-0.2-0.5-0.3-1.1-0.3c-1,0-2,0.5-2.1,0.6l-0.7-1.4c0.1-0.1,1.2-0.8,3-0.8c0.7,0,1.8,0.1,2.6,0.9c0.7,0.7,0.6,1.5,0.6,2.5V22
		H57.2z M57,18.3c-0.1,0-0.3,0-0.3,0c-1.4,0-2.4,0.2-2.4,1.2c0,0.8,0.7,1,1.2,1c0.9,0,1.4-0.4,1.5-0.5V18.3z"/>
	<path class="st0" d="M64.2,22.2c-0.7,0-1.5-0.2-2-0.7c-0.7-0.7-0.7-1.4-0.7-2.5v-3.1h-1.4v-1.8h1.4v-2.2h2.2v2.2h2.2v1.8h-2.2v3.2
		c0,0.6,0,1.3,1,1.3c0.5,0,0.8-0.1,1-0.2l0.5,1.5C66.1,21.7,65.3,22.2,64.2,22.2z"/>
	<path class="st0" d="M74.3,18.7h-5.2c0,0.6,0.4,1.8,2,1.8c1,0,1.8-0.4,2.1-0.6l0.7,1.4c0,0-1.2,0.9-3,0.9c-2.6,0-3.9-1.8-3.9-4.1
		c0-2.4,1.5-4.2,3.8-4.2c2.3,0,3.5,1.6,3.5,4.2C74.3,18.4,74.3,18.6,74.3,18.7z M70.8,15.5c-1,0-1.6,0.7-1.7,1.7h3.2
		C72.3,16.8,72.1,15.5,70.8,15.5z"/>
	<path class="st0" d="M84,22.1c-0.6,1.6-1,2.3-1.5,2.8c-0.3,0.3-1,0.8-2.3,0.8c-1.2,0-1.9-0.5-2-0.5l0.6-1.5c0.1,0,0.6,0.3,1.2,0.3
		c0.5,0,0.8-0.1,1.1-0.4c0.4-0.4,0.7-1.2,0.8-1.6l-3.3-7.9h2.3l2.1,5.5l2-5.5h2.1L84,22.1z"/>
	<path class="st0" d="M91.5,22.2c-2.3,0-3.9-1.7-3.9-4.1c0-2.4,1.7-4.2,4.1-4.2c2.3,0,3.9,1.7,3.9,4.1
		C95.6,20.5,93.9,22.2,91.5,22.2z M91.6,15.7c-1.1,0-1.8,0.9-1.8,2.4c0,1.4,0.8,2.4,1.9,2.4c1.1,0,1.8-0.9,1.8-2.4
		C93.4,16.6,92.7,15.7,91.6,15.7z"/>
	<path class="st0" d="M102.1,22v-0.6c-0.1,0.1-1.1,0.8-2.2,0.8c-0.8,0-1.5-0.3-2-0.8c-0.9-0.9-0.8-2.1-0.8-3.1v-4.2h2.2v4.1
		c0,1,0,1.5,0.3,1.8c0.1,0.1,0.3,0.3,0.8,0.3c0.7,0,1.3-0.4,1.5-0.5v-5.8h2.2V22H102.1z"/>
	<path class="st0" d="M110.6,15.7c-0.1,0-0.4,0-0.5,0c-1.3,0-2,0.8-2.2,1.1V22h-2.2v-7.9h1.8v1c0.1-0.1,1-1.2,2.6-1.2
		c0.6,0,0.8,0.2,0.9,0.2L110.6,15.7z"/>
	<path class="st0" d="M120.5,22v-4.1c0-1,0-1.5-0.3-1.8c-0.1-0.1-0.3-0.3-0.8-0.3c-0.7,0-1.3,0.4-1.5,0.5V22h-2.2v-7.9h1.8v0.6
		c0.1-0.1,1.1-0.8,2.2-0.8c0.8,0,1.5,0.3,2,0.8c0.9,0.9,0.8,2.1,0.8,3.1V22H120.5z"/>
	<path class="st0" d="M128,22.2c-2.3,0-3.9-1.7-3.9-4.1c0-2.4,1.7-4.2,4.1-4.2c2.3,0,3.9,1.7,3.9,4.1
		C132.1,20.5,130.4,22.2,128,22.2z M128,15.7c-1.1,0-1.8,0.9-1.8,2.4c0,1.4,0.8,2.4,1.9,2.4c1.1,0,1.8-0.9,1.8-2.4
		C129.9,16.6,129.1,15.7,128,15.7z"/>
	<path class="st0" d="M133.8,18.7v-1.8h5.6v1.8H133.8z"/>
	<path class="st0" d="M145.2,22.2c-2.5,0-4-1.8-4-4.1c0-2.4,1.8-4.2,4.2-4.2c1.7,0,2.6,0.8,2.7,1l-0.9,1.3c-0.1-0.1-0.8-0.5-1.7-0.5
		c-1.4,0-2.2,1.2-2.2,2.4c0,1.4,0.7,2.4,2.1,2.4c1,0,1.8-0.5,1.9-0.6l0.8,1.4C148.2,21.3,147.1,22.2,145.2,22.2z"/>
	<path class="st0" d="M152.7,22.2c-2.3,0-3.9-1.7-3.9-4.1c0-2.4,1.7-4.2,4.1-4.2c2.3,0,3.9,1.7,3.9,4.1
		C156.8,20.5,155.2,22.2,152.7,22.2z M152.8,15.7c-1.1,0-1.8,0.9-1.8,2.4c0,1.4,0.8,2.4,1.9,2.4c1.1,0,1.8-0.9,1.8-2.4
		C154.7,16.6,153.9,15.7,152.8,15.7z"/>
	<path class="st0" d="M160.7,22.2c-1.8,0-3-0.8-3.1-0.9l0.7-1.4c0.2,0.1,1.1,0.6,2,0.6c1,0,1.2-0.4,1.2-0.8c0-0.5-0.4-0.6-1.7-1.2
		c-0.7-0.3-2-0.8-2-2.3c0-1.5,1.2-2.5,3.1-2.5c1.7,0,2.6,0.7,2.6,0.7l-0.7,1.3c-0.1,0-1-0.5-1.8-0.5c-0.8,0-1.1,0.4-1.1,0.7
		c0,0.5,0.5,0.7,1.4,1c1.1,0.4,2.3,0.9,2.3,2.5C163.8,21.2,162.6,22.2,160.7,22.2z"/>
	<path class="st0" d="M168.8,22.2c-0.7,0-1.5-0.2-2-0.7c-0.7-0.7-0.7-1.4-0.7-2.5v-3.1h-1.4v-1.8h1.4v-2.2h2.2v2.2h2.2v1.8h-2.2v3.2
		c0,0.6,0,1.3,1,1.3c0.5,0,0.8-0.1,1-0.2l0.5,1.5C170.7,21.7,170,22.2,168.8,22.2z"/>
</g>
<g>
	<path class="st0" d="M16.6,29.1c-0.7,0-1.2-0.5-1.2-1.2s0.5-1.2,1.2-1.2s1.2,0.5,1.2,1.2S17.3,29.1,16.6,29.1z M15.6,38v-7.9h2.2
		V38H15.6z"/>
	<path class="st0" d="M24.4,38v-4.1c0-1,0-1.5-0.3-1.8c-0.1-0.1-0.3-0.3-0.8-0.3c-0.7,0-1.3,0.4-1.5,0.5V38h-2.2v-7.9h1.8v0.6
		c0.1-0.1,1.1-0.8,2.2-0.8c0.8,0,1.5,0.3,2,0.8c0.9,0.9,0.8,2.1,0.8,3.1V38H24.4z"/>
	<path class="st0" d="M30.8,38.2c-1.8,0-3-0.8-3.1-0.9l0.7-1.4c0.2,0.1,1.1,0.6,2,0.6c1,0,1.2-0.4,1.2-0.8c0-0.5-0.4-0.6-1.7-1.2
		c-0.7-0.3-2-0.8-2-2.3s1.2-2.5,3.1-2.5c1.7,0,2.6,0.7,2.6,0.7l-0.7,1.3c-0.1,0-1-0.5-1.8-0.5c-0.8,0-1.1,0.4-1.1,0.7
		c0,0.5,0.5,0.7,1.4,1c1.1,0.4,2.3,0.9,2.3,2.5C33.9,37.2,32.7,38.2,30.8,38.2z"/>
	<path class="st0" d="M40.5,38v-0.6c-0.1,0.1-1.1,0.8-2.2,0.8c-0.8,0-1.5-0.3-2-0.8c-0.9-0.9-0.8-2.1-0.8-3.1v-4.2h2.2v4.1
		c0,1,0,1.5,0.3,1.8c0.1,0.1,0.3,0.3,0.8,0.3c0.7,0,1.3-0.4,1.5-0.5v-5.8h2.2V38H40.5z"/>
	<path class="st0" d="M49,31.7c-0.1,0-0.4,0-0.5,0c-1.3,0-2,0.8-2.2,1.1V38h-2.2v-7.9H46v1c0.1-0.1,1-1.2,2.6-1.2
		c0.6,0,0.8,0.2,0.9,0.2L49,31.7z"/>
	<path class="st0" d="M54.9,38v-0.6c-0.1,0.1-1,0.7-2.2,0.7c-1.6,0-2.5-1-2.5-2.5c0-2.8,3.4-2.8,4.4-2.8h0.2c0-0.5,0-0.7-0.2-0.9
		c-0.2-0.2-0.5-0.3-1.1-0.3c-1,0-2,0.5-2.1,0.6l-0.7-1.4c0.1-0.1,1.2-0.8,3-0.8c0.7,0,1.8,0.1,2.6,0.9c0.7,0.7,0.6,1.5,0.6,2.5V38
		H54.9z M54.7,34.3c-0.1,0-0.3,0-0.3,0c-1.4,0-2.4,0.2-2.4,1.2c0,0.8,0.7,1,1.2,1c0.9,0,1.4-0.4,1.5-0.5V34.3z"/>
	<path class="st0" d="M63.4,38v-4.1c0-1,0-1.5-0.3-1.8c-0.1-0.1-0.3-0.3-0.8-0.3c-0.7,0-1.3,0.4-1.5,0.5V38h-2.2v-7.9h1.8v0.6
		c0.1-0.1,1.1-0.8,2.2-0.8c0.8,0,1.5,0.3,2,0.8c0.9,0.9,0.8,2.1,0.8,3.1V38H63.4z"/>
	<path class="st0" d="M70.9,38.2c-2.5,0-4-1.8-4-4.1c0-2.4,1.8-4.2,4.2-4.2c1.7,0,2.6,0.8,2.7,1l-0.9,1.3c-0.1-0.1-0.8-0.5-1.7-0.5
		c-1.4,0-2.2,1.2-2.2,2.4c0,1.4,0.7,2.4,2.1,2.4c1,0,1.8-0.5,1.9-0.6l0.8,1.4C73.9,37.3,72.8,38.2,70.9,38.2z"/>
	<path class="st0" d="M81.8,34.7h-5.2c0,0.6,0.4,1.8,2,1.8c1,0,1.8-0.4,2.1-0.6l0.7,1.4c0,0-1.2,0.9-3,0.9c-2.6,0-3.9-1.8-3.9-4.1
		c0-2.4,1.5-4.2,3.8-4.2c2.3,0,3.5,1.6,3.5,4.2C81.8,34.4,81.8,34.6,81.8,34.7z M78.4,31.5c-1,0-1.6,0.7-1.7,1.7h3.2
		C79.8,32.8,79.7,31.5,78.4,31.5z"/>
	<path class="st0" d="M91.7,38v-4.1c0-1,0-1.5-0.3-1.8c-0.1-0.1-0.3-0.3-0.8-0.3c-0.7,0-1.3,0.4-1.5,0.5V38h-2.2v-7.9h1.8v0.6
		c0.1-0.1,1.1-0.8,2.2-0.8c0.8,0,1.5,0.3,2,0.8c0.9,0.9,0.8,2.1,0.8,3.1V38H91.7z"/>
	<path class="st0" d="M99.2,38.2c-2.3,0-3.9-1.7-3.9-4.1c0-2.4,1.7-4.2,4.1-4.2c2.3,0,3.9,1.7,3.9,4.1
		C103.3,36.5,101.7,38.2,99.2,38.2z M99.3,31.7c-1.1,0-1.8,0.9-1.8,2.4c0,1.4,0.8,2.4,1.9,2.4c1.1,0,1.8-0.9,1.8-2.4
		C101.2,32.6,100.4,31.7,99.3,31.7z"/>
	<path class="st0" d="M113.3,38H111l-1.4-5.4l-1.3,5.4h-2.2l-2.1-7.9h2.1l1.3,5.5l1.4-5.5h1.9l1.4,5.5l1.4-5.5h2L113.3,38z"/>
	<path class="st0" d="M117.5,38.1c-0.7,0-1.3-0.6-1.3-1.3s0.6-1.3,1.3-1.3c0.7,0,1.3,0.6,1.3,1.3S118.2,38.1,117.5,38.1z"/>
</g>
</svg>
