<?xml version="1.0" encoding="utf-8"?>
<!-- Generator: Adobe Illustrator 24.1.3, SVG Export Plug-In . SVG Version: 6.00 Build 0)  -->
<svg version="1.1" id="Layer_1" xmlns="http://www.w3.org/2000/svg" xmlns:xlink="http://www.w3.org/1999/xlink" x="0px" y="0px"
	 viewBox="0 0 320 50" style="enable-background:new 0 0 320 50;" xml:space="preserve">
<style type="text/css">
	.st0{fill:#F16022;}
	.st1{fill:#FFFFFF;}
</style>
<path class="st0" d="M224,13.5c-1.9,0-3.5,1.6-3.5,3.5v15.6c0,1.9,1.6,3.5,3.5,3.5h75.4c1.9,0,3.5-1.6,3.5-3.5V17
	c0-1.9-1.6-3.5-3.5-3.5H224z"/>
<g>
	<path class="st1" d="M235.8,29.8l-0.6-1.8h-3.5l-0.6,1.8h-2.5l3.6-10h2.5l3.6,10H235.8z M233.4,22.3l-1.2,3.8h2.3L233.4,22.3z"/>
	<path class="st1" d="M243.7,30c-3,0-5.1-2.1-5.1-5.1c0-3.3,2.3-5.4,5.4-5.4c2.1,0,3.2,0.9,3.4,1.2l-1,1.6c-0.1-0.1-1-0.7-2.2-0.7
		c-1.8,0-3.1,1.3-3.1,3.2c0,1.7,1.1,3.1,2.9,3.1c1.3,0,2.3-0.7,2.6-0.8l1,1.6C247.5,28.7,246.3,30,243.7,30z"/>
	<path class="st1" d="M253.5,21.7v8H251v-8h-2.7v-2h7.8v2H253.5z"/>
	<path class="st1" d="M257.3,29.8v-10h2.5v10H257.3z"/>
	<path class="st1" d="M266.7,29.8h-2.3l-3.4-10h2.5l2.2,7.1l2.2-7.1h2.4L266.7,29.8z"/>
	<path class="st1" d="M276.9,29.8l-0.6-1.8h-3.5l-0.6,1.8h-2.5l3.6-10h2.5l3.6,10H276.9z M274.6,22.3l-1.2,3.8h2.3L274.6,22.3z"/>
	<path class="st1" d="M284.1,21.7v8h-2.5v-8h-2.7v-2h7.8v2H284.1z"/>
	<path class="st1" d="M287.9,29.8v-10h6.3v2h-3.9v2h3.6v1.9h-3.6v2.1h4v2H287.9z"/>
</g>
</svg>
