<?xml version="1.0" encoding="utf-8"?>
<!-- Generator: Adobe Illustrator 24.1.3, SVG Export Plug-In . SVG Version: 6.00 Build 0)  -->
<svg version="1.1" id="Layer_1" xmlns="http://www.w3.org/2000/svg" xmlns:xlink="http://www.w3.org/1999/xlink" x="0px" y="0px"
	 viewBox="0 0 320 50" style="enable-background:new 0 0 320 50;" xml:space="preserve">
<style type="text/css">
	.st0{fill:#FFFFFF;}
</style>
<path class="st0" d="M33.3,31.8h-3.1l-1-2.9h-6.1l-1,2.9H19l5.4-14.3h2.2c0.8,0,1.2,0.2,1.4,0.8c0.2,0.6,2.7,6.9,2.7,6.9h-2.9
	l-1.8-4.8L24,26.4h6.2c0.8,0,1.3,0.3,1.5,1L33.3,31.8z"/>
<path class="st0" d="M60.4,31.8h-3.1l-1-2.9h-6.1l-1,2.9h-3.1l5.4-14.3h2.2c0.8,0,1.2,0.2,1.4,0.8c0.2,0.6,2.7,6.9,2.7,6.9H55
	l-1.8-4.8L51,26.4h6.2c0.8,0,1.3,0.3,1.5,1L60.4,31.8z"/>
<path class="st0" d="M34.3,17.5h5.6c4.4,0,6.5,2.3,6.5,7.2c0,2.7-0.8,4.7-2.3,5.9c-1.4,1.1-2.9,1.3-5,1.3h-4.8V17.5z M39.6,29.2
	c2.7,0,3.9-1.3,3.9-4.6c0-3.2-1.1-4.7-3.5-4.7h-2.7v9.2H39.6z"/>
<g>
	<path class="st0" d="M84.8,31.7h-2.3l-0.9-10.2l-3.5,10.2h-1.9l-3.6-10.2l-0.8,10.2h-2.1L71,18.1h2.6l3.7,10.4l3.6-10.4h2.6
		L84.8,31.7z"/>
	<path class="st0" d="M95.8,26.6c0,0.1,0,0.3,0,0.5c0,0.2,0,0.3,0,0.3h-6.7c0,0.7,0.2,1.3,0.6,1.8c0.5,0.6,1.2,0.9,2.2,0.9
		c0.8,0,1.7-0.2,2.7-0.8l0.8,1.5c-1,0.7-2.2,1.1-3.7,1.1c-1.5,0-2.7-0.5-3.6-1.5c-0.8-0.9-1.3-2.2-1.3-3.7c0-1.6,0.4-2.8,1.3-3.8
		s2-1.5,3.4-1.5c1.3,0,2.4,0.5,3.1,1.4C95.5,23.7,95.8,25,95.8,26.6z M93.7,25.7c0-0.6-0.1-1.1-0.4-1.6c-0.4-0.6-1-1-1.7-1
		c-0.7,0-1.3,0.2-1.7,0.7c-0.5,0.5-0.7,1.1-0.8,1.8H93.7z"/>
	<path class="st0" d="M112.1,31.7h-2.2V26c0-1.1-0.1-1.9-0.4-2.2s-0.7-0.5-1.2-0.5c-0.7,0-1.4,0.3-2.2,0.8c0.1,0.3,0.1,1,0.1,2.3
		v5.3h-2.2v-5.5c0-1.3-0.2-2.1-0.5-2.4c-0.3-0.3-0.6-0.4-1.1-0.4c-0.7,0-1.4,0.2-2.1,0.7v7.6H98v-9.9h2v0.7c0.9-0.7,1.9-1,2.9-1
		c1,0,1.8,0.4,2.4,1.1c1.1-0.7,2.2-1.1,3.3-1.1c1,0,1.9,0.3,2.5,0.9c0.5,0.5,0.8,1.1,0.9,1.9c0.1,0.5,0.1,1.3,0.1,2.5V31.7z"/>
	<path class="st0" d="M123.6,26.5c0,1.6-0.5,2.9-1.4,3.9c-0.9,1-2.2,1.5-3.8,1.5c-1.1,0-2.4-0.3-3.9-0.8V17h2.2v5.2
		c0.8-0.5,1.6-0.8,2.5-0.8c1.3,0,2.3,0.5,3.1,1.4S123.6,24.9,123.6,26.5z M121.4,26.5c0-1-0.2-1.8-0.7-2.4c-0.5-0.5-1.1-0.8-1.8-0.8
		c-0.7,0-1.4,0.2-2.1,0.7v5.8c0.6,0.2,1.1,0.3,1.6,0.3c0.9,0,1.6-0.3,2.1-1C121.1,28.4,121.4,27.6,121.4,26.5z"/>
	<path class="st0" d="M134.2,26.6c0,0.1,0,0.3,0,0.5c0,0.2,0,0.3,0,0.3h-6.7c0,0.7,0.2,1.3,0.6,1.8c0.5,0.6,1.2,0.9,2.2,0.9
		c0.8,0,1.7-0.2,2.7-0.8l0.8,1.5c-1,0.7-2.2,1.1-3.7,1.1c-1.5,0-2.7-0.5-3.6-1.5c-0.8-0.9-1.3-2.2-1.3-3.7c0-1.6,0.4-2.8,1.3-3.8
		s2-1.5,3.4-1.5c1.3,0,2.4,0.5,3.1,1.4C133.9,23.7,134.2,25,134.2,26.6z M132.1,25.7c0-0.6-0.1-1.1-0.4-1.6c-0.4-0.6-1-1-1.7-1
		c-0.7,0-1.3,0.2-1.7,0.7c-0.5,0.5-0.7,1.1-0.8,1.8H132.1z"/>
	<path class="st0" d="M142.7,21.7l-0.5,1.7c-0.2,0-0.4-0.1-0.7-0.1c-1.2,0-2.2,0.5-2.9,1.5v6.8h-2.2v-9.9h2V23
		c0.2-0.3,0.5-0.5,0.9-0.8c0.7-0.5,1.5-0.7,2.3-0.7C142,21.5,142.3,21.5,142.7,21.7z"/>
</g>
<g>
	<path class="st0" d="M150.8,28.8c0,1-0.4,1.7-1.1,2.3s-1.6,0.8-2.7,0.8c-0.9,0-1.7-0.2-2.6-0.5c-0.5-0.2-0.9-0.4-1.1-0.6l0.8-1.5
		c1,0.5,1.9,0.8,2.6,0.8c0.6,0,1-0.1,1.3-0.3c0.3-0.2,0.4-0.5,0.4-0.9s-0.2-0.6-0.6-0.9c-0.2-0.1-0.7-0.4-1.6-0.7
		c-0.8-0.3-1.4-0.7-1.7-1c-0.6-0.5-0.9-1.2-0.9-2c0-0.9,0.3-1.6,1-2.2c0.7-0.5,1.6-0.8,2.7-0.8c1.4,0,2.5,0.3,3.2,0.9l-0.8,1.4
		c-0.8-0.4-1.6-0.7-2.3-0.7c-1.1,0-1.6,0.4-1.6,1.1c0,0.3,0.2,0.6,0.5,0.8c0.2,0.1,0.6,0.3,1.3,0.6c1,0.4,1.7,0.8,2,1.1
		C150.5,27.2,150.8,27.9,150.8,28.8z"/>
	<path class="st0" d="M160.6,31.7h-2.4V18.1h2.4V31.7z"/>
	<path class="st0" d="M171.8,31.7h-2.2v-5.4c0-1.3-0.1-2.1-0.4-2.4c-0.3-0.3-0.7-0.4-1.3-0.4c-0.7,0-1.4,0.2-2.2,0.7v7.6h-2.2v-9.9
		h2v0.7c0.9-0.7,1.9-1,2.9-1c1,0,1.9,0.3,2.5,0.9c0.5,0.5,0.8,1,0.9,1.7c0.1,0.4,0.1,1.1,0.1,2V31.7z"/>
	<path class="st0" d="M181,28.8c0,1-0.4,1.7-1.1,2.3c-0.7,0.6-1.6,0.8-2.7,0.8c-0.9,0-1.7-0.2-2.6-0.5c-0.5-0.2-0.9-0.4-1.1-0.6
		l0.8-1.5c1,0.5,1.9,0.8,2.6,0.8c0.6,0,1-0.1,1.3-0.3c0.3-0.2,0.4-0.5,0.4-0.9s-0.2-0.6-0.6-0.9c-0.2-0.1-0.7-0.4-1.6-0.7
		c-0.8-0.3-1.4-0.7-1.7-1c-0.6-0.5-0.9-1.2-0.9-2c0-0.9,0.3-1.6,1-2.2s1.6-0.8,2.7-0.8c1.4,0,2.5,0.3,3.2,0.9l-0.8,1.4
		c-0.8-0.4-1.6-0.7-2.3-0.7c-1.1,0-1.6,0.4-1.6,1.1c0,0.3,0.2,0.6,0.5,0.8c0.2,0.1,0.6,0.3,1.3,0.6c1,0.4,1.7,0.8,2,1.1
		C180.6,27.2,181,27.9,181,28.8z"/>
	<path class="st0" d="M191.5,31.7h-2v-0.8c-0.9,0.7-1.9,1-2.9,1c-1,0-1.9-0.3-2.5-0.9c-0.5-0.5-0.8-1-0.9-1.7
		c-0.1-0.4-0.1-1.1-0.1-2v-5.5h2.2v5.4c0,0.7,0,1.1,0,1.3c0.1,0.6,0.2,0.9,0.5,1.2c0.3,0.2,0.7,0.3,1.2,0.3c0.6,0,1.3-0.2,2.2-0.7
		v-7.5h2.2V31.7z"/>
	<path class="st0" d="M200.4,21.7l-0.5,1.7c-0.2,0-0.4-0.1-0.7-0.1c-1.2,0-2.2,0.5-2.9,1.5v6.8h-2.2v-9.9h2V23
		c0.2-0.3,0.5-0.5,0.9-0.8c0.7-0.5,1.5-0.7,2.3-0.7C199.7,21.5,200.1,21.5,200.4,21.7z"/>
</g>
<g>
	<path class="st0" d="M209.2,31.7h-2v-0.7c-1,0.6-2,0.9-2.9,0.9c-1,0-1.7-0.3-2.3-0.9c-0.6-0.6-0.9-1.3-0.9-2.3
		c0-2.3,1.9-3.5,5.6-3.5h0.4v-0.4c0-0.6-0.1-1-0.3-1.2c-0.3-0.3-0.8-0.4-1.6-0.4c-0.9,0-1.8,0.3-2.7,0.8l-0.8-1.4
		c0.2-0.2,0.6-0.4,1.1-0.6c0.8-0.3,1.6-0.5,2.6-0.5c1.4,0,2.4,0.4,3.1,1.1c0.4,0.4,0.6,0.8,0.7,1.3c0.1,0.3,0.1,0.9,0.1,1.7V31.7z
		 M207,29.5v-2.6h-0.5c-1.6,0-2.6,0.3-3.1,0.8c-0.3,0.3-0.4,0.6-0.4,1c0,0.5,0.2,0.9,0.5,1.1c0.3,0.3,0.7,0.4,1.2,0.4
		C205.5,30.1,206.2,29.9,207,29.5z"/>
	<path class="st0" d="M220,31.7h-2.2v-5.4c0-1.3-0.1-2.1-0.4-2.4c-0.3-0.3-0.7-0.4-1.3-0.4c-0.7,0-1.4,0.2-2.2,0.7v7.6h-2.2v-9.9h2
		v0.7c0.9-0.7,1.9-1,2.9-1c1,0,1.9,0.3,2.5,0.9c0.5,0.5,0.8,1,0.9,1.7c0.1,0.4,0.1,1.1,0.1,2V31.7z"/>
	<path class="st0" d="M230.6,30.7c-0.1,0.2-0.5,0.4-1,0.6c-0.8,0.4-1.7,0.5-2.6,0.5c-1.5,0-2.7-0.5-3.6-1.4
		c-0.9-0.9-1.4-2.2-1.4-3.7c0-1.6,0.5-2.8,1.5-3.9c1-1,2.2-1.5,3.7-1.5c0.8,0,1.6,0.2,2.3,0.5c0.5,0.2,0.8,0.4,1,0.6l-0.9,1.4
		c-0.7-0.5-1.4-0.7-2.2-0.7c-0.9,0-1.7,0.3-2.3,1c-0.5,0.6-0.8,1.4-0.8,2.3c0,1,0.3,1.8,0.8,2.4c0.5,0.6,1.2,0.9,2.2,0.9
		c0.7,0,1.6-0.3,2.5-0.8L230.6,30.7z"/>
</g>
<g>
	<path class="st0" d="M240.6,26.6c0,0.1,0,0.3,0,0.5c0,0.2,0,0.3,0,0.3h-6.7c0,0.7,0.2,1.3,0.6,1.8c0.5,0.6,1.2,0.9,2.2,0.9
		c0.8,0,1.7-0.2,2.7-0.8l0.8,1.5c-1,0.7-2.2,1.1-3.7,1.1c-1.5,0-2.7-0.5-3.6-1.5c-0.8-0.9-1.3-2.2-1.3-3.7c0-1.6,0.4-2.8,1.3-3.8
		s2-1.5,3.4-1.5c1.3,0,2.4,0.5,3.1,1.4S240.6,25,240.6,26.6z M238.4,25.7c0-0.6-0.1-1.1-0.4-1.6c-0.4-0.6-1-1-1.7-1
		c-0.7,0-1.3,0.2-1.7,0.7c-0.5,0.5-0.7,1.1-0.8,1.8H238.4z"/>
	<path class="st0" d="M256.9,22.2c0,1.2-0.4,2.3-1.2,3c-0.6,0.6-1.3,0.9-2.1,1.1c-0.5,0.1-1.3,0.2-2.5,0.2h-1v5.2h-2.3V18.1h3.6
		c1.1,0,1.9,0.1,2.5,0.2c0.8,0.2,1.4,0.5,1.9,1C256.5,20,256.9,21,256.9,22.2z M254.5,22.2c0-0.7-0.2-1.3-0.6-1.7
		c-0.4-0.4-1.2-0.5-2.5-0.5h-1.3v4.6h1c1.5,0,2.4-0.2,2.8-0.6C254.3,23.5,254.5,23,254.5,22.2z"/>
	<path class="st0" d="M261.5,31.7h-2.2V17h2.2V31.7z"/>
	<path class="st0" d="M271.7,31.7h-2v-0.7c-1,0.6-2,0.9-2.9,0.9c-1,0-1.7-0.3-2.3-0.9c-0.6-0.6-0.9-1.3-0.9-2.3
		c0-2.3,1.9-3.5,5.6-3.5h0.4v-0.4c0-0.6-0.1-1-0.3-1.2c-0.3-0.3-0.8-0.4-1.6-0.4c-0.9,0-1.8,0.3-2.7,0.8l-0.8-1.4
		c0.2-0.2,0.6-0.4,1.1-0.6c0.8-0.3,1.6-0.5,2.6-0.5c1.4,0,2.4,0.4,3.1,1.1c0.4,0.4,0.6,0.8,0.7,1.3c0.1,0.3,0.1,0.9,0.1,1.7V31.7z
		 M269.6,29.5v-2.6h-0.5c-1.6,0-2.6,0.3-3.1,0.8c-0.3,0.3-0.4,0.6-0.4,1c0,0.5,0.2,0.9,0.5,1.1c0.3,0.3,0.7,0.4,1.2,0.4
		C268,30.1,268.7,29.9,269.6,29.5z"/>
	<path class="st0" d="M282.5,31.7h-2.2v-5.4c0-1.3-0.1-2.1-0.4-2.4c-0.3-0.3-0.7-0.4-1.3-0.4c-0.7,0-1.4,0.2-2.2,0.7v7.6h-2.2v-9.9
		h2v0.7c0.9-0.7,1.9-1,2.9-1c1,0,1.9,0.3,2.5,0.9c0.5,0.5,0.8,1,0.9,1.7c0.1,0.4,0.1,1.1,0.1,2V31.7z"/>
	<path class="st0" d="M291.7,28.8c0,1-0.4,1.7-1.1,2.3c-0.7,0.6-1.6,0.8-2.7,0.8c-0.9,0-1.7-0.2-2.6-0.5c-0.5-0.2-0.9-0.4-1.1-0.6
		l0.8-1.5c1,0.5,1.9,0.8,2.6,0.8c0.6,0,1-0.1,1.3-0.3c0.3-0.2,0.4-0.5,0.4-0.9s-0.2-0.6-0.6-0.9c-0.2-0.1-0.7-0.4-1.6-0.7
		c-0.8-0.3-1.4-0.7-1.7-1c-0.6-0.5-0.9-1.2-0.9-2c0-0.9,0.3-1.6,1-2.2s1.6-0.8,2.7-0.8c1.4,0,2.5,0.3,3.2,0.9l-0.8,1.4
		c-0.8-0.4-1.6-0.7-2.3-0.7c-1.1,0-1.6,0.4-1.6,1.1c0,0.3,0.2,0.6,0.5,0.8c0.2,0.1,0.6,0.3,1.3,0.6c1,0.4,1.7,0.8,2,1.1
		C291.3,27.2,291.7,27.9,291.7,28.8z"/>
</g>
<path class="st0" d="M62.5,31.8c-1,0-1.7-0.7-1.7-1.7c0-1,0.8-1.7,1.7-1.7c1,0,1.7,0.8,1.7,1.7C64.2,31.1,63.4,31.8,62.5,31.8
	 M62.5,28.9c-0.7,0-1.3,0.6-1.3,1.3c0,0.7,0.6,1.3,1.3,1.3c0.7,0,1.3-0.5,1.3-1.3C63.8,29.4,63.2,28.9,62.5,28.9 M62.9,31l-0.2-0.5
	c-0.1-0.2-0.1-0.2-0.4-0.2h-0.1V31h-0.3v-1.8h0.4c0.2,0,0.4,0,0.6,0.2c0.1,0.1,0.2,0.2,0.2,0.4c0,0.2-0.1,0.4-0.3,0.4
	c0.1,0,0.2,0.1,0.2,0.2l0.3,0.6H62.9z M62.6,29.6c-0.1,0-0.2,0-0.3,0h-0.1V30c0.1,0,0.2,0,0.3,0c0.1,0,0.2-0.1,0.2-0.2
	C62.7,29.6,62.7,29.6,62.6,29.6"/>
</svg>
